<svg width="75" height="73" viewBox="0 0 75 73" fill="none" xmlns="http://www.w3.org/2000/svg">
<path d="M37.5085 0L53.2458 15.6658L57.1361 11.7968L52.6188 7.3H66.8418V21.4584L62.3208 16.9579L58.4341 20.8305L74.1751 36.5L58.4378 52.1694L62.3208 56.0348L66.8418 51.5417V65.7H52.6151L57.1325 61.1996L53.2495 57.3306L37.5085 73L21.7675 57.3306L17.8771 61.1996L22.3981 65.7H8.17513V51.538L12.6888 56.0348L16.5791 52.1658L0.841797 36.5L16.5828 20.8305L12.6888 16.9579L8.17513 21.4584V7.3H22.3981L17.8771 11.7895L21.7711 15.6658L37.5085 0ZM37.5085 41.6575L26.9485 52.1658L37.5085 62.6778L48.0648 52.1658L37.5085 41.6538V41.6575ZM21.7675 25.988L11.2111 36.5L21.7638 47.0047L32.3238 36.4927L21.7675 25.9917V25.988ZM53.2458 25.988L42.6968 36.4927L53.2495 47.001L63.8058 36.5L53.2458 25.9917V25.988ZM37.5085 10.3222L26.9558 20.8305L37.5121 31.3353L48.0611 20.8269L37.5085 10.3222Z" fill="white"/>
</svg>
