<svg width="74" height="73" viewBox="0 0 74 73" fill="none" xmlns="http://www.w3.org/2000/svg">
<path d="M28.8218 1.43256C29.8051 1.17893 30.7436 0.945325 31.6775 0.694262C33.547 0.192137 35.4552 -0.0128356 37.3856 0.000619325C41.7269 0.031537 45.8104 1.07186 49.5433 3.27388C55.9446 7.04984 59.8671 12.5901 61.3464 19.8257C61.5588 20.866 61.3701 21.8866 61.1984 22.9017C60.3509 27.9078 58.084 32.1885 54.4422 35.7566C54.2957 35.9 54.1442 36.0386 53.9939 36.1783C53.978 36.1932 53.9555 36.2006 53.8924 36.2355C54.0399 35.734 54.1803 35.2668 54.3144 34.7976C54.8864 32.7908 55.1995 30.7448 55.2798 28.6601C55.4206 24.9924 54.8434 21.4403 53.4569 18.0393C53.0791 17.1124 52.5609 16.2129 51.9574 15.4113C50.5275 13.5108 49.1182 11.5761 47.5027 9.83529C43.5016 5.52257 38.5071 2.92176 32.6905 1.89576C31.437 1.67447 30.1595 1.58887 28.8218 1.43256ZM48.9051 24.859C44.6621 17.0423 38.2733 12.1206 29.445 10.5249C20.6201 8.92981 12.9084 11.3179 6.17127 17.1241C6.48574 16.565 6.77883 15.9928 7.11873 15.4494C10.8701 9.45111 16.21 5.61103 23.2004 4.24636C30.2317 2.87396 36.7735 4.25494 42.6938 8.29428C43.2707 8.68819 43.7262 9.28851 44.1603 9.85161C46.6154 13.0378 48.1594 16.6177 48.691 20.5943C48.8661 21.9055 48.8635 23.2401 48.939 24.5638C48.9436 24.6489 48.9199 24.735 48.9051 24.8587V24.859ZM36.5304 20.0295C28.1354 17.5075 20.1279 18.3683 12.8266 23.3746C5.53135 28.377 1.87274 35.4732 1.323 44.2558C1.25276 44.0448 1.19495 43.875 1.13946 43.7041C1.08021 43.5209 1.01806 43.3377 0.965748 43.1522C0.295186 40.7761 -0.0788257 38.3525 0.0194463 35.8883C0.268017 29.6483 2.5196 24.2177 6.90398 19.7012C10.1033 16.4059 13.959 14.197 18.4316 13.0599C19.1516 12.8767 19.8825 12.6866 20.6184 12.6285C21.2722 12.5767 21.9465 12.6643 22.6018 12.7579C27.2879 13.4295 31.4136 15.3149 34.9517 18.4344C35.5219 18.9371 36.0243 19.5145 36.5304 20.029V20.0295ZM56.5932 6.48817C59.2812 7.78643 61.6184 9.51839 63.6407 11.664C66.9704 15.1958 69.081 19.3476 69.8637 24.1132C70.9412 30.6769 69.583 36.7342 65.7071 42.1823C65.2018 42.892 64.4162 43.4322 63.6907 43.9561C60.3995 46.333 56.7129 47.7443 52.6684 48.2004C51.4469 48.3384 50.2104 48.3449 48.9812 48.3713C56.7669 44.1997 61.827 37.9706 63.413 29.3034C64.9978 20.6427 62.4889 13.0613 56.5932 6.48817ZM24.8406 24.966C17.0783 29.0958 12.0219 35.3091 10.4386 43.9684C8.85843 52.6073 11.341 60.1818 17.1881 66.7203L17.1303 66.8039C16.0835 66.1621 14.9975 65.5738 13.9963 64.8687C8.97116 61.3289 5.65997 56.5925 4.29139 50.6363C2.65834 43.5289 3.9879 36.9412 8.21562 30.952C8.35783 30.7505 8.54628 30.5742 8.73762 30.415C12.315 27.4337 16.4262 25.6474 21.0658 25.0943C22.3133 24.946 23.5776 24.9394 24.8346 24.8679L24.8404 24.966H24.8406ZM44.526 71.5778C43.8381 71.7682 43.1539 71.9737 42.4608 72.1461C40.2448 72.6986 37.9854 72.9477 35.7107 72.8114C27.2862 72.3061 20.7268 68.5476 16.0774 61.5728C14.2738 58.8672 13.1434 55.8745 12.637 52.6743C12.5194 51.9317 12.6405 51.1347 12.7506 50.3766C13.3509 46.2405 14.9623 42.5235 17.5994 39.2614C18.307 38.3869 19.127 37.6011 19.897 36.776C19.949 36.7205 20.0155 36.6787 20.0895 36.6191C17.5211 45.005 18.3966 52.9354 23.4556 60.1658C28.5149 67.3965 35.6835 71.0227 44.5263 71.5778H44.526ZM25.0453 48.2407C29.2398 55.971 35.5205 60.9605 44.2465 62.5275C52.9753 64.0952 60.6249 61.6238 67.2661 55.8379C66.9594 56.3875 66.673 56.9492 66.3424 57.484C62.8236 63.1771 57.8268 66.9556 51.2744 68.5342C44.0817 70.267 37.383 68.9979 31.2665 64.8395C30.9783 64.6437 30.7162 64.3921 30.4913 64.1252C27.731 60.8534 25.9982 57.1152 25.3089 52.9027C25.0675 51.4295 24.9802 49.9492 25.0216 48.4597C25.023 48.4036 25.0331 48.3475 25.0453 48.2407ZM72.7907 28.6275C73.0832 29.8951 73.4208 31.1547 73.6578 32.4321C74.044 34.5096 74.0787 36.6126 73.8703 38.7101C73.5361 42.0721 72.5436 45.2409 70.849 48.1798C68.0708 52.9978 64.0997 56.4963 58.9436 58.6697C57.2181 59.3971 55.429 59.9368 53.5731 60.1807C52.8395 60.2771 52.0634 60.1689 51.3197 60.0633C47.6869 59.548 44.3552 58.252 41.3336 56.1843C39.9739 55.2541 38.7177 54.1835 37.5862 52.9906C37.527 52.9279 37.4752 52.8581 37.4198 52.7908C45.8714 55.3306 53.8774 54.4732 61.1796 49.4691C68.4749 44.4708 72.1387 37.378 72.6847 28.6598L72.7907 28.6275ZM27.0885 47.1918C28.6501 48.5974 30.3459 49.8101 32.1723 50.8481C32.2847 50.9122 32.3784 51.0273 32.4515 51.1373C34.691 54.5182 37.5646 57.2389 41.0833 59.2904C41.1463 59.327 41.2064 59.3691 41.2469 59.4344C34.8702 57.2363 30.1551 53.1481 27.0888 47.1918H27.0885ZM46.8677 25.6067C46.3628 25.1865 45.883 24.7307 45.3474 24.3526C44.2381 23.5696 43.0978 22.8302 41.9744 22.0672C41.827 21.967 41.6694 21.8554 41.5741 21.7122C39.3528 18.3628 36.5102 15.6581 33.0339 13.6072C32.9576 13.562 32.8836 13.5119 32.8333 13.434C39.1557 15.624 43.834 19.6817 46.8677 25.6067ZM60.4949 31.8246C58.245 38.1192 54.15 42.7729 48.1487 45.7939C48.2057 45.7207 48.2571 45.6431 48.3193 45.5749C49.617 44.155 50.7414 42.612 51.7071 40.9533C51.7952 40.8022 51.9224 40.6527 52.0681 40.5583C55.4902 38.3311 58.2447 35.4755 60.3232 31.9806C60.3521 31.9322 60.3859 31.8867 60.4192 31.8412C60.4232 31.8355 60.4365 31.8369 60.4949 31.8243V31.8246ZM25.8395 27.0221C25.1236 27.9296 24.3822 28.8233 23.6949 29.756C23.2096 30.4138 22.8053 31.1301 22.3474 31.8091C22.2122 32.0095 22.0445 32.2114 21.8451 32.3428C18.5183 34.5356 15.8204 37.3194 13.7743 40.7206C13.7183 40.8142 13.6544 40.9029 13.557 41.0501C15.3239 35.3904 19.9377 29.8181 25.8398 27.0221H25.8395ZM17.213 23.4791C23.2533 20.5692 29.4649 20.1675 35.8413 22.2066C33.9984 22.306 32.1758 22.5496 30.393 23.0185C29.786 23.178 29.2204 23.176 28.6108 23.0635C24.8513 22.3715 21.1144 22.4944 17.409 23.4451C17.3454 23.4614 17.2783 23.468 17.213 23.4791ZM22.2468 37.3689C22.3885 38.5277 22.5073 39.71 22.6873 40.8832C22.8035 41.6435 22.9925 42.395 23.1827 43.1419C23.2663 43.4708 23.2781 43.7774 23.2096 44.1078C22.724 46.4458 22.5333 48.8104 22.7749 51.1851C22.9353 52.7602 23.2382 54.3209 23.4446 55.6759C22.7316 54.5293 21.2844 50.7471 21.0338 46.7684C20.8306 43.5467 21.2222 40.4068 22.2468 37.3689ZM50.4798 16.8877C53.3982 22.9819 53.8069 29.1517 51.7813 35.4752C51.6128 34.1912 51.4567 32.9016 51.2683 31.6168C51.1894 31.08 51.0839 30.5389 50.9136 30.0248C50.7269 29.4608 50.7619 28.9246 50.8732 28.3587C51.3992 25.6746 51.4877 22.9739 51.0871 20.2666C50.9246 19.1698 50.6969 18.0823 50.4801 16.8877H50.4798ZM38.1334 50.6222C40.2358 50.5455 42.2906 50.1774 44.3268 49.6652C44.5933 49.5983 44.9107 49.6956 45.1986 49.7505C49.0523 50.4863 52.8768 50.3509 56.6741 49.3827C56.7383 49.3661 56.8033 49.3535 56.8721 49.3718C50.7995 52.2726 44.5523 52.676 38.1334 50.6225V50.6222Z" fill="white"/>
</svg>
