<svg width="183" height="40" viewBox="0 0 183 40" fill="none" xmlns="http://www.w3.org/2000/svg">
<g clip-path="url(#clip0)">
<path d="M15.2272 10.37H26.051L24.3748 16.799C24.1187 17.695 23.6397 18.4146 22.9379 18.9581C22.2353 19.5025 21.421 19.7739 20.4955 19.7739H15.4667C14.317 19.7739 13.303 20.1095 12.4252 20.7814C11.5465 21.4531 10.9324 22.3645 10.5812 23.516C10.3577 24.3798 10.3337 25.1954 10.5095 25.9629C10.6848 26.7307 10.9959 27.4107 11.4434 28.0019C11.8903 28.5941 12.4648 29.0658 13.1678 29.4176C13.8696 29.7699 14.636 29.9451 15.4667 29.9451H18.5317C19.1064 29.9451 19.5772 30.1776 19.9446 30.6407C20.3113 31.1048 20.4154 31.6243 20.256 32.2L18.3403 39.3008H14.9877C12.6888 39.3008 10.5732 38.797 8.64178 37.7896C6.70943 36.7819 5.10498 35.447 3.82845 33.7833C2.55096 32.1207 1.68057 30.2256 1.21824 28.0982C0.754944 25.9713 0.810981 23.7882 1.38571 21.5489L1.57744 20.8292C1.99188 19.2941 2.63845 17.8786 3.51682 16.5833C4.39488 15.2877 5.43258 14.1844 6.62992 13.2727C7.82727 12.3611 9.16031 11.6497 10.6292 11.1378C12.0975 10.6265 13.6301 10.37 15.2272 10.37Z" fill="white"/>
<path d="M20.6875 39.3008L30.1226 3.89294C30.3775 2.99783 30.8565 2.27816 31.5594 1.73392C32.2612 1.19033 33.0754 0.918297 34.002 0.918297H44.0118C46.3107 0.918297 48.4254 1.42207 50.3577 2.4296C52.289 3.43715 53.8936 4.77317 55.1711 6.43578C56.4476 8.09918 57.3263 9.99447 57.8052 12.1212C58.2842 14.2489 58.2197 16.4317 57.6135 18.6702L57.4221 19.3899C57.0067 20.9252 56.3684 22.3405 55.5063 23.6359C54.6441 24.9313 53.6145 26.0432 52.4172 26.9704C51.2198 27.8985 49.8861 28.6181 48.4179 29.1294C46.949 29.6415 45.4164 29.8972 43.8202 29.8972H35.1514L36.8756 23.42C37.1307 22.5564 37.6097 21.8532 38.3124 21.309C39.0144 20.7656 39.8284 20.4934 40.7549 20.4934H43.5329C44.6822 20.4934 45.712 20.1417 46.6219 19.4378C47.532 18.7346 48.1307 17.8231 48.4179 16.7031C48.6409 15.9039 48.6649 15.1198 48.4899 14.3522C48.3141 13.5845 48.0026 12.9053 47.5558 12.3131C47.1083 11.7217 46.5336 11.2419 45.8318 10.8738C45.129 10.5064 44.3629 10.322 43.5329 10.322H38.1688L31.1761 36.3743C30.9202 37.2377 30.4412 37.9417 29.7393 38.4852C29.0368 39.0294 28.2383 39.3008 27.3446 39.3008H20.6875Z" fill="white"/>
<path d="M80.4102 20.3964L80.5539 19.8686C80.6176 19.6131 80.578 19.3972 80.4342 19.2209C80.2905 19.0457 80.0909 18.9571 79.8355 18.9571H64.27C63.5996 18.9571 62.9925 18.8133 62.45 18.5252C61.9069 18.2374 61.4601 17.8617 61.1093 17.3978C60.7575 16.9346 60.518 16.3985 60.3909 15.7905C60.2627 15.1833 60.2785 14.5595 60.4385 13.9193L61.3964 10.273H82.4696C83.7787 10.273 84.9761 10.5609 86.0617 11.1368C87.1468 11.7124 88.0496 12.4642 88.768 13.3916C89.4864 14.3196 89.9808 15.3827 90.2524 16.5821C90.5235 17.7816 90.4994 19.0215 90.1807 20.3004L86.3969 34.4062C86.0141 35.8455 85.2395 37.0133 84.0742 37.9086C82.9083 38.8045 81.5755 39.252 80.0749 39.252L64.5095 39.204C63.1363 39.204 61.8753 38.9084 60.726 38.3162C59.5764 37.725 58.6345 36.9415 57.9001 35.9655C57.1654 34.9902 56.655 33.8707 56.3675 32.607C56.0805 31.3437 56.1126 30.0565 56.4633 28.7446L56.655 28.0249C56.8781 27.13 57.2537 26.2979 57.7804 25.5302C58.3074 24.7624 58.9215 24.1072 59.6244 23.5629C60.3263 23.0194 61.1093 22.5959 61.9711 22.2917C62.8332 21.988 63.7435 21.8357 64.7014 21.8357H77.776L76.8182 25.4343C76.5624 26.2979 76.0835 27.0017 75.3814 27.5451C74.6789 28.0895 73.8804 28.3608 72.9867 28.3608H67.1436C66.6005 28.3608 66.2494 28.6331 66.0901 29.1765C65.9943 29.5289 66.058 29.8407 66.2815 30.1121C66.5047 30.3842 66.7919 30.5198 67.1436 30.5198H76.5787C76.9298 30.5198 77.2329 30.4238 77.4888 30.2321C77.744 30.04 77.9033 29.7844 77.9678 29.4643L78.0636 29.0804L80.4102 20.3964Z" fill="white"/>
<path d="M108.285 10.37C110.615 10.37 112.746 10.8738 114.678 11.8813C116.61 12.8888 118.214 14.2249 119.492 15.8875C120.768 17.551 121.639 19.4545 122.102 21.5969C122.564 23.7402 122.493 25.9317 121.887 28.17L119.492 37.1899C119.332 37.8299 118.989 38.3412 118.462 38.7252C117.935 39.109 117.352 39.3008 116.714 39.3008H111.541C110.935 39.3008 110.456 39.0694 110.105 38.6053C109.753 38.142 109.657 37.6215 109.817 37.046L112.691 26.1549C112.914 25.3556 112.938 24.5717 112.762 23.8039C112.587 23.0362 112.275 22.357 111.829 21.7648C111.381 21.1734 110.807 20.6936 110.105 20.3254C109.402 19.9581 108.635 19.7739 107.806 19.7739H102.442L97.7956 37.1899C97.636 37.8299 97.2929 38.3412 96.7661 38.7252C96.2391 39.109 95.6404 39.3008 94.9701 39.3008H89.8454C89.2707 39.3008 88.7993 39.0694 88.4326 38.6053C88.066 38.142 87.9618 37.6215 88.1211 37.046L95.2095 10.37H108.285Z" fill="white"/>
<path d="M136.494 19.5098C136.111 19.8142 135.839 20.2055 135.679 20.6853L133.524 28.8416C133.396 29.29 133.477 29.7052 133.764 30.089C134.051 30.473 134.434 30.6647 134.913 30.6647H154.741L153.209 36.3743C152.953 37.2377 152.474 37.9417 151.772 38.4852C151.069 39.0294 150.271 39.3008 149.377 39.3008H131.321C130.012 39.3008 128.814 39.0212 127.729 38.4612C126.643 37.9021 125.741 37.1502 125.023 36.2062C124.305 35.2633 123.809 34.1913 123.539 32.9918C123.268 31.7924 123.307 30.5688 123.658 29.3213L126.58 18.4303C126.899 17.2475 127.394 16.1597 128.064 15.1678C128.735 14.1767 129.525 13.329 130.435 12.625C131.345 11.9218 132.366 11.3702 133.5 10.9697C134.633 10.5702 135.807 10.37 137.021 10.37H149.808C151.117 10.37 152.315 10.6579 153.4 11.2336C154.485 11.8093 155.388 12.5613 156.106 13.4886C156.825 14.4166 157.311 15.488 157.567 16.7031C157.822 17.919 157.79 19.15 157.471 20.3974L156.609 23.6599C156.226 25.0994 155.452 26.2589 154.286 27.1385C153.12 28.0184 151.803 28.4579 150.335 28.4579H135.871L136.829 24.9074C137.052 24.0437 137.515 23.3405 138.218 22.7963C138.92 22.2527 139.734 21.9807 140.661 21.9807H146.504C147.046 21.9807 147.397 21.7093 147.557 21.1651L147.749 20.4454C147.845 20.0937 147.78 19.7737 147.557 19.4858C147.333 19.198 147.046 19.054 146.695 19.054H137.787C137.308 19.054 136.877 19.2063 136.494 19.5098Z" fill="white"/>
<path d="M154.691 39.3008L164.318 3.07731C164.477 2.43792 164.821 1.91832 165.348 1.51802C165.874 1.11852 166.473 0.918297 167.144 0.918297H172.268C172.874 0.918297 173.362 1.15067 173.729 1.61398C174.096 2.07809 174.2 2.59753 174.04 3.17327L166.856 29.8972C166.505 31.3051 165.938 32.5838 165.156 33.7355C164.373 34.8868 163.448 35.8705 162.378 36.686C161.308 37.5016 160.119 38.142 158.81 38.6051C157.501 39.0694 156.128 39.3008 154.691 39.3008Z" fill="white"/>
<path d="M178.513 4.07052H178.984C179.217 4.07052 179.404 4.01006 179.545 3.889C179.686 3.76809 179.757 3.61424 179.757 3.42761C179.757 3.20899 179.694 3.05242 179.569 2.95758C179.444 2.86291 179.246 2.81541 178.975 2.81541H178.513V4.07052ZM180.407 3.41018C180.407 3.64351 180.345 3.84966 180.222 4.02893C180.098 4.20821 179.924 4.34159 179.7 4.42907L180.739 6.15644H180.006L179.102 4.60835H178.513V6.15644H177.866V2.26014H179.006C179.489 2.26014 179.843 2.35482 180.069 2.54433C180.294 2.73401 180.407 3.02251 180.407 3.41018ZM176.251 4.20613C176.251 4.71054 176.378 5.18201 176.631 5.62069C176.884 6.05969 177.23 6.40513 177.668 6.65717C178.106 6.90938 178.575 7.0354 179.076 7.0354C179.582 7.0354 180.052 6.90858 180.486 6.65494C180.919 6.40129 181.263 6.05809 181.518 5.62517C181.773 5.19224 181.9 4.71934 181.9 4.20613C181.9 3.69884 181.773 3.22802 181.52 2.79366C181.267 2.3593 180.924 2.01465 180.492 1.75941C180.06 1.50433 179.588 1.37671 179.076 1.37671C178.569 1.37671 178.099 1.50353 177.666 1.75717C177.232 2.01082 176.888 2.35418 176.633 2.7871C176.379 3.22002 176.251 3.69309 176.251 4.20613ZM175.793 4.20613C175.793 3.62304 175.939 3.07641 176.229 2.56624C176.52 2.05607 176.921 1.65386 177.43 1.35927C177.939 1.06485 178.488 0.917554 179.076 0.917554C179.658 0.917554 180.204 1.06341 180.713 1.35495C181.222 1.6465 181.623 2.04744 181.917 2.55745C182.212 3.06761 182.358 3.61728 182.358 4.20613C182.358 4.78043 182.217 5.31986 181.935 5.82411C181.653 6.32852 181.257 6.73234 180.748 7.0354C180.238 7.33878 179.681 7.49023 179.076 7.49023C178.473 7.49023 177.917 7.33926 177.408 7.03764C176.899 6.73586 176.502 6.33284 176.219 5.82843C175.935 5.32418 175.793 4.78331 175.793 4.20613Z" fill="white"/>
<path fill-rule="evenodd" clip-rule="evenodd" d="M21.4847 36.9049C21.8114 35.7154 23.8965 27.8934 26.1182 19.5228C28.34 11.1522 30.3134 3.90324 30.5036 3.41405C30.6939 2.92486 31.2983 2.20395 31.8468 1.81202C32.7558 1.16244 33.2883 1.08939 37.8678 0.986042C46.5769 0.789502 49.8332 1.61902 53.4233 4.94875C57.2391 8.48772 58.7315 13.4629 57.4623 18.4142C55.9711 24.2314 51.9779 28.2384 46.5016 29.4124C45.5694 29.6123 42.6751 29.7758 40.0699 29.7758H35.3331L36.2535 26.3838C37.6239 21.3331 38.0075 20.9818 42.4788 20.6836C45.5627 20.4779 46.9485 19.7917 47.9751 17.962C49.3844 15.45 48.6469 12.6502 46.1279 10.9496C45.1248 10.2724 44.7414 10.2186 41.5061 10.3012L37.9782 10.3912L34.4396 23.5279C32.4934 30.7531 30.7222 36.9875 30.5037 37.3822C29.7654 38.7156 28.5249 39.0676 24.5643 39.0676H20.8906L21.4847 36.9049Z" fill="white"/>
<path fill-rule="evenodd" clip-rule="evenodd" d="M62.4276 38.7744C60.2027 38.0776 58.2427 36.4118 57.1166 34.2609C56.2476 32.6011 56.3159 29.1247 57.2581 27.0517C58.2096 24.9582 59.3465 23.779 61.3103 22.849C62.8453 22.1221 63.2025 22.0916 70.2113 22.0885L77.5132 22.0854L77.2954 23.1267C76.903 25.0036 75.961 26.7781 74.9893 27.4712C74.1684 28.0568 73.5075 28.1647 70.2655 28.2427C67.0854 28.3192 66.441 28.421 66.1437 28.8941C65.8871 29.3024 65.8872 29.6071 66.144 30.0155C66.4509 30.5035 67.1395 30.5876 71.4581 30.6642C74.1869 30.7126 76.7684 30.6194 77.1947 30.457C77.8786 30.1966 78.132 29.5526 79.3457 24.992C80.1024 22.1487 80.6404 19.6106 80.5413 19.3518C80.3891 18.9546 79.0474 18.8814 71.9224 18.8814C63.668 18.8814 63.4602 18.8654 62.4017 18.1508C60.4735 16.8491 60.1563 15.2217 61.1545 11.7523L61.5002 10.5508H72.8432C83.7327 10.5508 84.2437 10.5779 85.6284 11.23C88.3153 12.4951 90.2561 15.4561 90.2561 18.2899C90.2561 19.7274 86.2198 34.7818 85.5027 36.0187C85.1976 36.5449 84.3311 37.41 83.5772 37.9411L82.2063 38.9068L72.7178 38.9661C67.4991 38.9988 62.8686 38.9125 62.4276 38.7744H62.4276Z" fill="white"/>
<path fill-rule="evenodd" clip-rule="evenodd" d="M88.7219 38.6827C88.5108 38.4712 88.3424 37.9306 88.3478 37.4812C88.3531 37.0318 89.9166 30.8247 91.8222 23.6877L95.2868 10.7112L102.575 10.625C110.785 10.5278 112.521 10.7889 115.48 12.5655C119.779 15.147 122.556 20.415 122.168 25.2513C121.926 28.2622 119.344 37.5132 118.514 38.3451C117.854 39.0055 117.496 39.0672 114.324 39.0672C110.617 39.0672 110.087 38.8742 110.087 37.522C110.087 37.0951 110.75 34.2079 111.56 31.1061C113.174 24.9283 113.244 23.5066 112.024 21.7897C110.801 20.0692 109.707 19.7008 105.791 19.6912L102.295 19.6826L100.455 26.5713C99.443 30.3601 98.3653 34.3922 98.0602 35.5314C97.755 36.6706 97.1764 37.9322 96.7744 38.3349C96.1028 39.0077 95.7613 39.0672 92.5745 39.0672C90.303 39.0672 88.9732 38.9345 88.7219 38.6827Z" fill="white"/>
<path fill-rule="evenodd" clip-rule="evenodd" d="M128.682 38.6282C126.05 37.6743 123.531 34.2799 123.523 31.679C123.519 30.2061 126.531 18.8916 127.489 16.784C128.559 14.427 130.013 12.9441 132.417 11.7588L134.541 10.7109H143.184C152.755 10.7109 153.092 10.7726 155.22 12.9081C157.479 15.1768 157.953 18.1006 156.761 22.4122C155.99 25.2009 155.003 26.6444 153.26 27.5352C152.114 28.1208 151.369 28.1731 144.163 28.1731C137.88 28.1731 136.314 28.0888 136.314 27.7506C136.314 26.525 137.369 24.0358 138.246 23.1939C139.213 22.2647 139.311 22.2434 143.131 22.1373C145.275 22.0778 147.209 21.8799 147.429 21.6976C148.013 21.2128 147.936 19.3118 147.323 19.0758C147.044 18.9688 144.613 18.8813 141.921 18.8813C137.725 18.8813 136.929 18.9615 136.358 19.442C135.899 19.8283 135.341 21.3128 134.564 24.2129C133.347 28.7545 133.225 29.7567 133.819 30.3519C134.102 30.6348 136.895 30.7364 144.396 30.7364C153.954 30.7364 154.578 30.7713 154.42 31.2971C154.328 31.6055 153.972 32.8872 153.629 34.1453C152.874 36.9192 152.558 37.5405 151.466 38.4013C150.648 39.0455 150.285 39.0661 140.189 39.0426C132.853 39.0254 129.438 38.9025 128.682 38.6282Z" fill="white"/>
<path fill-rule="evenodd" clip-rule="evenodd" d="M155.007 38.7129C155.093 38.4675 157.26 30.3551 159.821 20.6852C162.383 11.0154 164.63 2.82076 164.814 2.47503C165.341 1.48936 167.095 0.939453 169.711 0.939453C172.177 0.939453 173.571 1.33318 173.87 2.11362C174.1 2.7131 166.527 30.7915 165.695 32.4251C164.645 34.4867 162.394 36.6512 160.149 37.7582C157.841 38.8965 154.738 39.4726 155.007 38.7129Z" fill="white"/>
<path fill-rule="evenodd" clip-rule="evenodd" d="M16.0527 15.0365V10.5508H20.8504C24.4757 10.5508 25.6479 10.6486 25.6472 10.9513C25.6468 11.1716 25.2853 12.7215 24.8438 14.3957C24.1772 16.9239 23.853 17.6159 22.9303 18.4808C21.8469 19.4964 21.7479 19.5222 18.936 19.5222H16.0527V15.0365Z" fill="white"/>
<path fill-rule="evenodd" clip-rule="evenodd" d="M177.875 4.20715V2.26367H178.502C178.871 2.26367 179.17 2.26672 179.228 2.27109C179.522 2.29302 179.746 2.35118 179.929 2.45295C180.163 2.58282 180.318 2.8079 180.376 3.10266C180.397 3.20626 180.408 3.35081 180.403 3.46039C180.386 3.87514 180.161 4.20948 179.78 4.38828C179.735 4.40937 179.7 4.42982 179.701 4.43371C179.703 4.4376 179.935 4.82471 180.217 5.29394L180.731 6.14708L180.375 6.14893C180.18 6.14994 180.017 6.14953 180.013 6.14803C180.009 6.14653 179.804 5.79925 179.557 5.37632L179.108 4.60735L178.81 4.60727L178.511 4.60718V5.37891V6.15063H178.193H177.875V4.20716V4.20715ZM179.063 4.06907C179.266 4.05444 179.408 4.00414 179.535 3.90168C179.696 3.77155 179.771 3.5974 179.76 3.37934C179.745 3.08238 179.618 2.92179 179.343 2.85168C179.222 2.82081 179.15 2.81514 178.824 2.81094L178.511 2.80692V3.44154V4.07617L178.739 4.0761C178.864 4.07607 179.01 4.07291 179.063 4.06907V4.06907Z" fill="white"/>
<path fill-rule="evenodd" clip-rule="evenodd" d="M178.903 7.48208C178.189 7.44595 177.538 7.18853 176.965 6.71519C176.378 6.23025 175.963 5.49685 175.842 4.72812C175.802 4.47791 175.791 4.1274 175.816 3.88914C175.876 3.299 176.081 2.75639 176.427 2.27194C176.599 2.03117 176.848 1.77468 177.079 1.60015L177.118 1.57031L177.575 1.57214L178.031 1.57396L177.938 1.61586C177.368 1.87252 176.899 2.30478 176.597 2.85191C176.411 3.18884 176.302 3.54525 176.264 3.93516C176.253 4.05561 176.253 4.35578 176.264 4.47678C176.297 4.82125 176.388 5.13694 176.544 5.45383C176.814 5.99971 177.213 6.41392 177.748 6.70279C178.161 6.92523 178.601 7.03578 179.075 7.03611C179.746 7.03657 180.348 6.8197 180.88 6.38554C180.979 6.30476 181.173 6.11047 181.256 6.00961C181.686 5.48305 181.905 4.87611 181.905 4.20755C181.905 3.75984 181.811 3.35749 181.615 2.96094C181.35 2.42535 180.946 2.00452 180.418 1.71285C180.347 1.67353 180.17 1.58869 180.131 1.57521C180.125 1.57319 180.327 1.57129 180.579 1.57098L181.037 1.57042L181.074 1.59697C181.214 1.69936 181.415 1.88745 181.546 2.03937C181.787 2.31665 181.999 2.66785 182.138 3.01737C182.235 3.26246 182.309 3.57132 182.341 3.86436C182.358 4.02313 182.358 4.3872 182.341 4.54281C182.269 5.20701 182.012 5.81354 181.588 6.32468C181.503 6.42696 181.323 6.60616 181.213 6.69948C180.549 7.25805 179.761 7.52542 178.903 7.48208L178.903 7.48208Z" fill="white"/>
</g>
<defs>
<clipPath id="clip0">
<rect width="182.951" height="40" fill="white"/>
</clipPath>
</defs>
</svg>
