<svg width="59" height="73" viewBox="0 0 59 73" fill="none" xmlns="http://www.w3.org/2000/svg">
<path d="M33.8938 36.7705C32.7426 36.7859 34.1104 37.3632 35.6137 37.5955C36.0305 37.2698 36.405 36.9426 36.741 36.623C35.8063 36.8523 34.8539 36.8577 33.8938 36.7705Z" fill="white"/>
<path d="M40.0679 35.2285C40.756 34.28 41.2554 33.2427 41.4318 32.1699C41.2769 32.934 40.8647 33.5939 40.4732 34.2916C38.3211 35.6491 40.2698 33.4858 40.4717 32.6623C38.1585 35.582 40.1527 34.4127 40.0679 35.2285Z" fill="white"/>
<path d="M42.3535 29.2822C42.4937 27.2053 41.9459 27.8629 41.7617 28.654C41.9759 28.7667 42.1462 30.1188 42.3535 29.2822Z" fill="white"/>
<path d="M29.5273 0.898438C30.1422 1.00803 30.8558 1.09293 30.7533 1.24034C31.4283 1.09138 31.5801 0.957094 29.5273 0.898438Z" fill="white"/>
<path d="M30.7526 1.24023L30.3203 1.33053L30.7233 1.29349L30.7526 1.24023Z" fill="white"/>
<path d="M49.9142 30.0701C49.9835 31.9347 49.371 32.8407 48.817 34.4429L47.8207 34.9392C47.0062 36.5244 47.9016 35.9456 47.3183 37.2059C46.0454 38.3381 43.461 40.7476 42.6335 40.9683C42.0286 40.9552 43.0426 40.2536 43.1751 39.9797C41.473 41.1497 41.809 41.7362 39.2054 42.4486L39.1298 42.278C32.7113 45.3034 23.7948 39.309 23.9119 31.1313C23.8441 31.6499 23.7169 31.5202 23.5752 31.7286C23.2438 27.5217 25.5154 23.2962 29.3464 21.5682C33.0935 19.7113 37.4863 20.4723 40.1685 22.9798C38.6953 21.0457 35.7603 18.9951 32.2845 19.185C28.8779 19.2405 25.6903 21.4085 24.6269 23.7631C22.8825 24.8629 22.679 28.0048 21.9193 28.5805C20.8953 36.1131 23.8433 39.3661 28.8309 43.1949C29.6138 43.7243 29.0513 43.8053 29.1561 44.2082C27.4995 43.4318 25.9831 42.2587 24.7348 40.8224C25.3975 41.7926 26.1117 42.7357 27.0356 43.4766C25.4722 42.9479 23.3848 39.6848 22.7769 39.5521C25.4699 44.3819 33.7015 48.0223 38.0141 46.2156C36.0184 46.2897 33.4842 46.2565 31.2435 45.4268C30.2996 44.9414 29.0213 43.9373 29.2501 43.7498C35.1339 45.9501 41.2103 45.4153 46.3004 41.3287C47.5964 40.3177 49.0111 38.599 49.4203 38.5758C48.8046 39.5035 49.5258 39.0219 49.0527 39.8407C50.3411 37.7562 48.491 38.9918 50.3857 36.2412L51.0854 37.2059C50.8234 35.474 53.2313 33.3733 52.9863 30.6366C53.5388 29.8 53.6019 31.538 53.0163 33.4628C53.8293 31.3273 53.2313 30.9839 53.4394 29.2211C53.6636 29.8138 53.9618 30.4428 54.1136 31.0688C53.5835 29.0043 54.6553 27.5935 54.9219 26.3933C54.6583 26.2776 54.1043 27.3056 53.9764 24.8683C53.9957 23.8094 54.2715 24.3134 54.3771 24.0525C54.1706 23.9329 53.6258 23.121 53.2953 21.5644C53.5334 21.1978 53.9364 22.5129 54.2631 22.5661C54.0527 21.329 53.6913 20.3851 53.6759 19.435C52.7205 17.4361 53.3377 19.7021 52.564 18.5768C51.5469 15.4017 53.407 17.8398 53.5334 16.3981C55.0729 18.6324 55.9505 22.0976 56.3551 23.5324C56.0468 21.7828 55.5499 20.0872 54.9419 18.4472C55.4112 18.6455 54.1876 14.8484 55.5514 17.3628C54.0959 12.0028 49.327 6.99402 44.9389 4.64474C45.4744 5.13636 46.1517 5.75378 45.9097 5.85103C43.7261 4.55059 44.1098 4.44794 43.7969 3.89844C42.0209 3.17374 41.9022 3.95786 40.7272 3.89998C37.3754 2.11873 36.7296 2.30781 33.6452 1.19337L33.7855 1.85092C31.5656 1.11002 31.1988 2.1303 28.8001 1.85246C28.6545 1.73901 29.5691 1.43879 30.3227 1.32997C28.176 1.61399 28.2762 0.905496 26.1757 1.40792C26.6927 1.04442 27.2413 0.80285 27.793 0.494141C26.0432 0.600645 23.6137 1.51443 24.3634 0.682454C21.5086 1.95897 16.4377 3.75026 13.5922 6.42291L13.5028 5.82401C12.199 7.39149 7.81704 10.5056 7.46799 12.5377L7.11894 12.6187C6.44165 13.7694 6.00167 15.073 5.46384 16.2561C4.57696 17.7711 4.16319 16.8395 4.28956 17.0773C2.54431 20.6212 1.67592 23.5987 0.927734 26.0422C1.46094 26.841 0.940833 30.8519 1.14194 34.0617C0.266619 49.917 12.2514 65.3101 25.352 68.8633C27.2722 69.5525 30.127 69.5278 32.5557 69.5957C29.6909 68.7746 29.321 69.1612 26.5286 68.1865C24.5152 67.2356 24.0745 66.1513 22.6474 64.911L23.2122 65.9105C20.4152 64.9188 21.5856 64.6834 19.3095 63.9618L19.9128 63.1738C19.0059 63.1043 17.5111 61.6441 17.1027 60.833L16.1103 60.8724C14.919 59.4014 14.2833 58.3386 14.3303 57.5151L14.0098 58.0878C13.6469 57.4634 9.62471 52.5634 11.7113 53.7041C11.3237 53.3506 10.8082 53.1276 10.2496 52.1096L10.6742 51.6242C9.67171 50.3299 8.82644 48.6714 8.89116 48.1188C9.42668 48.8427 9.79808 48.9785 10.1664 49.1028C7.63058 42.802 7.48803 48.7563 5.56864 42.6894L5.97394 42.6569C5.66341 42.1854 5.47309 41.6768 5.22344 41.1759L5.40066 39.4124C3.57605 37.3008 4.89057 30.4251 5.15486 26.655C5.33594 25.1222 6.6782 23.4899 7.69761 20.93L7.07656 20.8234C8.26472 18.7489 13.8588 12.4891 16.4508 12.8101C17.706 11.2311 16.2012 12.8039 15.9554 12.4072C18.7131 9.54937 19.58 10.3883 21.4408 9.87351C23.4465 8.68112 19.7187 10.3397 20.6695 9.41894C24.1392 8.53217 23.1275 7.40152 27.6528 6.95158C28.1305 7.22324 26.5455 7.37142 26.148 7.72412C29.0374 6.30714 35.2934 6.63052 39.3587 8.50979C44.072 10.7178 49.371 17.2416 49.5806 23.3796L49.8186 23.4436C49.6984 25.884 50.1916 28.7063 49.3355 31.298L49.9142 30.0701Z" fill="white"/>
<path d="M21.3286 38.3535L21.166 39.1616C21.9235 40.1919 22.5245 41.3079 23.49 42.1106C22.795 40.753 22.2795 40.1919 21.3286 38.3535Z" fill="white"/>
<path d="M23.114 38.285C22.7133 37.8405 22.4775 37.3064 22.2109 36.7754C22.4652 37.71 22.9861 38.5135 23.4692 39.3316L23.114 38.285Z" fill="white"/>
<path d="M54.7737 31.3926L54.6049 31.8186C54.2952 34.0244 53.624 36.207 52.5977 38.2314C53.7319 36.0959 54.4632 33.7597 54.7737 31.3926Z" fill="white"/>
<path d="M29.7541 0.344218C30.5315 0.0594278 31.6666 0.187545 32.4941 0C31.4169 0.0902994 30.3451 0.144325 29.2871 0.279388L29.7541 0.344218Z" fill="white"/>
<path d="M2.42082 14.9004C2.60036 16.5628 1.17254 17.2088 2.73674 16.1113C3.57663 14.2174 2.41003 15.5888 2.42082 14.9004Z" fill="white"/>
<path d="M0.587534 22.5989C0.94892 21.4898 1.01365 20.8245 1.15157 20.1816C0.155259 21.4582 0.692328 21.7306 0.587534 22.5989Z" fill="white"/>
</svg>
