<svg width="34" height="20" viewBox="0 0 34 20" fill="none" xmlns="http://www.w3.org/2000/svg">
<g clip-path="url(#clip0)">
<path d="M9.42034 7.26288C9.42034 7.6744 9.46483 8.00807 9.54269 8.25276C9.63167 8.49745 9.74289 8.76439 9.8986 9.05357C9.95422 9.14255 9.97646 9.23153 9.97646 9.30938C9.97646 9.4206 9.90973 9.53183 9.76514 9.64305L9.06443 10.1102C8.96433 10.1769 8.86423 10.2103 8.77525 10.2103C8.66403 10.2103 8.5528 10.1547 8.44158 10.0546C8.28587 9.88774 8.1524 9.70978 8.04118 9.53183C7.92995 9.34275 7.81873 9.13142 7.69638 8.87561C6.82884 9.89886 5.73886 10.4105 4.42642 10.4105C3.49215 10.4105 2.74695 10.1436 2.20196 9.60968C1.65696 9.07581 1.37891 8.36398 1.37891 7.4742C1.37891 6.5288 1.71258 5.76136 2.39104 5.183C3.0695 4.60464 3.97041 4.31546 5.11601 4.31546C5.49416 4.31546 5.88345 4.34883 6.29497 4.40444C6.7065 4.46005 7.12915 4.54903 7.57404 4.64913V3.8372C7.57404 2.9919 7.39608 2.40242 7.05129 2.05763C6.69537 1.71284 6.09477 1.546 5.23835 1.546C4.84907 1.546 4.44867 1.59049 4.03714 1.69059C3.62561 1.79069 3.22521 1.91304 2.83593 2.06875C2.65797 2.14661 2.52451 2.1911 2.44665 2.21334C2.36879 2.23559 2.31318 2.24671 2.26869 2.24671C2.11298 2.24671 2.03512 2.13549 2.03512 1.90192V1.35692C2.03512 1.17897 2.05737 1.0455 2.11298 0.967642C2.16859 0.889786 2.26869 0.811929 2.4244 0.734073C2.81369 0.533871 3.28082 0.367037 3.82582 0.233569C4.37081 0.0889786 4.94917 0.0222446 5.5609 0.0222446C6.88445 0.0222446 7.8521 0.322547 8.47495 0.923153C9.08667 1.52376 9.3981 2.43579 9.3981 3.65924V7.26288H9.42034ZM4.90468 8.95347C5.27172 8.95347 5.64988 8.88673 6.05028 8.75327C6.45068 8.6198 6.8066 8.37511 7.1069 8.04144C7.28486 7.83011 7.41833 7.59654 7.48506 7.32961C7.55179 7.06267 7.59628 6.74013 7.59628 6.36197V5.89483C7.27374 5.81697 6.92894 5.75024 6.57303 5.70575C6.21711 5.66126 5.87232 5.63902 5.52753 5.63902C4.78234 5.63902 4.23734 5.78361 3.87031 6.08391C3.50327 6.38421 3.32531 6.80686 3.32531 7.36298C3.32531 7.88572 3.45878 8.27501 3.73684 8.54194C4.00377 8.82 4.39305 8.95347 4.90468 8.95347ZM13.8359 10.1547C13.6357 10.1547 13.5022 10.1213 13.4133 10.0435C13.3243 9.97672 13.2464 9.82101 13.1797 9.60968L10.5659 1.01213C10.4992 0.789685 10.4658 0.645095 10.4658 0.567238C10.4658 0.389281 10.5548 0.28918 10.7328 0.28918H11.8228C12.0341 0.28918 12.1787 0.322547 12.2565 0.400403C12.3455 0.467137 12.4122 0.62285 12.479 0.834174L14.3475 8.19715L16.0826 0.834174C16.1382 0.611728 16.205 0.467137 16.2939 0.400403C16.3829 0.33367 16.5386 0.28918 16.7388 0.28918H17.6286C17.8399 0.28918 17.9845 0.322547 18.0735 0.400403C18.1625 0.467137 18.2403 0.62285 18.2848 0.834174L20.0422 8.28613L21.9663 0.834174C22.0331 0.611728 22.1109 0.467137 22.1888 0.400403C22.2777 0.33367 22.4223 0.28918 22.6225 0.28918H23.6569C23.8349 0.28918 23.935 0.378159 23.935 0.567238C23.935 0.62285 23.9238 0.678461 23.9127 0.745195C23.9016 0.811929 23.8794 0.900908 23.8349 1.02325L21.1544 9.62081C21.0877 9.84325 21.0098 9.98784 20.9208 10.0546C20.8318 10.1213 20.6873 10.1658 20.4982 10.1658H19.5417C19.3303 10.1658 19.1857 10.1324 19.0968 10.0546C19.0078 9.97672 18.9299 9.83213 18.8854 9.60968L17.1615 2.43579L15.4486 9.59856C15.393 9.82101 15.3263 9.9656 15.2373 10.0435C15.1483 10.1213 14.9926 10.1547 14.7924 10.1547H13.8359ZM28.1281 10.455C27.5497 10.455 26.9714 10.3882 26.4152 10.2548C25.8591 10.1213 25.4254 9.97672 25.1362 9.80989C24.9582 9.70978 24.8359 9.59856 24.7914 9.49846C24.7469 9.39836 24.7247 9.28714 24.7247 9.18704V8.6198C24.7247 8.38623 24.8136 8.27501 24.9805 8.27501C25.0472 8.27501 25.1139 8.28613 25.1807 8.30837C25.2474 8.33062 25.3475 8.37511 25.4587 8.4196C25.8369 8.58643 26.2484 8.7199 26.6822 8.80888C27.1271 8.89786 27.5608 8.94235 28.0057 8.94235C28.7064 8.94235 29.2514 8.82 29.6296 8.57531C30.0078 8.33062 30.208 7.9747 30.208 7.51869C30.208 7.20726 30.1079 6.95145 29.9077 6.74013C29.7075 6.5288 29.3293 6.33972 28.7843 6.16177L27.1716 5.66126C26.3596 5.40545 25.759 5.02729 25.392 4.52678C25.025 4.0374 24.8359 3.49241 24.8359 2.91405C24.8359 2.44691 24.936 2.03538 25.1362 1.67947C25.3364 1.32356 25.6033 1.01213 25.937 0.76744C26.2707 0.511627 26.6488 0.322547 27.0937 0.189079C27.5386 0.0556116 28.0057 0 28.4951 0C28.7398 0 28.9956 0.0111223 29.2403 0.0444893C29.4961 0.0778562 29.7297 0.122346 29.9633 0.166835C30.1857 0.222446 30.397 0.278058 30.5972 0.344792C30.7974 0.411526 30.9532 0.47826 31.0644 0.544994C31.2201 0.633972 31.3313 0.722951 31.398 0.823052C31.4648 0.91203 31.4981 1.03438 31.4981 1.19009V1.71284C31.4981 1.94641 31.4092 2.06875 31.2423 2.06875C31.1534 2.06875 31.0088 2.02426 30.8197 1.93528C30.1857 1.6461 29.4739 1.50151 28.6842 1.50151C28.0502 1.50151 27.5497 1.60161 27.2049 1.81294C26.8601 2.02426 26.6822 2.34681 26.6822 2.80282C26.6822 3.11425 26.7934 3.38119 27.0159 3.59251C27.2383 3.80383 27.6498 4.01516 28.2393 4.20424L29.8187 4.70474C30.6195 4.96055 31.1978 5.31647 31.5426 5.77248C31.8874 6.2285 32.0543 6.75125 32.0543 7.32961C32.0543 7.80787 31.9542 8.24164 31.7651 8.6198C31.5649 8.99796 31.2979 9.33163 30.9532 9.59856C30.6084 9.87662 30.1968 10.0768 29.7186 10.2214C29.2181 10.3771 28.6953 10.455 28.1281 10.455Z" fill="white"/>
<path d="M30.2301 15.8622C26.5709 18.5649 21.2544 19.9997 16.6831 19.9997C10.2767 19.9997 4.50419 17.6306 0.144245 13.6933C-0.200547 13.3819 0.110878 12.9592 0.522404 13.2039C5.23827 15.94 11.0552 17.5973 17.0724 17.5973C21.1321 17.5973 25.5921 16.752 29.6962 15.0169C30.308 14.7388 30.8307 15.4173 30.2301 15.8622Z" fill="white"/>
<path d="M31.7539 14.1268C31.2867 13.5262 28.6618 13.8376 27.4717 13.9822C27.1158 14.0267 27.0602 13.7153 27.3827 13.4817C29.4738 12.0136 32.9106 12.4362 33.311 12.9256C33.7115 13.4261 33.1998 16.8629 31.2423 18.509C30.9419 18.7648 30.6528 18.6313 30.7862 18.2977C31.2311 17.1966 32.221 14.7163 31.7539 14.1268Z" fill="white"/>
</g>
<defs>
<clipPath id="clip0">
<rect width="33.4448" height="20" fill="white"/>
</clipPath>
</defs>
</svg>
