<?xml version="1.0" encoding="utf-8"?>
<!-- Generator: Adobe Illustrator 24.0.1, SVG Export Plug-In . SVG Version: 6.00 Build 0)  -->
<svg version="1.1"
	 id="Layer_1" text-rendering="geometricPrecision" image-rendering="optimizeQuality" shape-rendering="geometricPrecision" xmlns:xodm="http://www.corel.com/coreldraw/odm/2003"
	 xmlns="http://www.w3.org/2000/svg" xmlns:xlink="http://www.w3.org/1999/xlink" x="0px" y="0px" viewBox="0 0 370 150"
	 style="enable-background:new 0 0 370 150;" xml:space="preserve">
<style type="text/css">
	.st0{fill:#FFFFFF;stroke:#000000;stroke-miterlimit:10;}
	.st1{fill:none;stroke:#000000;stroke-miterlimit:10;}
</style>
<g id="Layer_x0020_1">
	<g id="_1421344023328">
		<path class="st0" d="M257.7,93.1c-10,40.2-50.7,64.6-90.9,54.6c-40.2-10-64.6-50.7-54.6-90.9c10-40.2,50.7-64.6,90.9-54.6
			C243.3,12.3,267.8,53,257.7,93.1L257.7,93.1L257.7,93.1z"/>
		<path class="st1" d="M218.1,64.3c1.5-10-6.1-15.3-16.5-18.9l3.4-13.5l-8.2-2.1L193.4,43c-2.2-0.5-4.4-1-6.6-1.6l3.3-13.3l-8.2-2.1
			l-3.4,13.5c-1.8-0.4-3.5-0.8-5.3-1.2l0,0L162,35.5l-2.2,8.8c0,0,6.1,1.4,6,1.5c3.3,0.8,3.9,3,3.8,4.8L165.7,66
			c0.2,0.1,0.5,0.1,0.9,0.3c-0.3-0.1-0.6-0.1-0.9-0.2l-5.4,21.6c-0.4,1-1.4,2.5-3.8,2c0.1,0.1-6-1.5-6-1.5l-4.1,9.4l10.7,2.7
			c2,0.5,3.9,1,5.9,1.5l-3.4,13.7l8.2,2.1l3.4-13.5c2.2,0.6,4.4,1.2,6.6,1.7l-3.4,13.5l8.2,2.1l3.4-13.6c14,2.7,24.6,1.6,29-11.1
			c3.6-10.2-0.2-16.1-7.6-20C212.9,75.2,217,71.6,218.1,64.3L218.1,64.3L218.1,64.3z M199.3,90.7c-2.5,10.2-19.8,4.7-25.3,3.3
			l4.5-18.1C184,77.3,201.9,80,199.3,90.7L199.3,90.7z M201.8,64.2c-2.3,9.3-16.6,4.6-21.3,3.4l4.1-16.4
			C189.3,52.3,204.2,54.5,201.8,64.2L201.8,64.2z"/>
	</g>
</g>
</svg>
