<?xml version="1.0" encoding="utf-8"?>
<!-- Generator: Adobe Illustrator 24.0.1, SVG Export Plug-In . SVG Version: 6.00 Build 0)  -->
<svg version="1.1" id="Layer_1" xmlns="http://www.w3.org/2000/svg" xmlns:xlink="http://www.w3.org/1999/xlink" x="0px" y="0px"
	 viewBox="0 0 40 40" style="enable-background:new 0 0 40 40;" xml:space="preserve">
<style type="text/css">
	.st0{fill:#FFFFFF;}
	.st1{fill:#FFFFFF;stroke:#000000;stroke-miterlimit:10;}
</style>
<rect class="st0" width="40" height="40"/>
<path class="st1" d="M19,4c-3.2,0.2-6.1,1.3-8.7,3.3c-1.4,1.1-2.6,2.4-3.6,3.9c-1.3,2-2.2,4.3-2.5,6.7C4,18.7,4,18.9,4,20.1
	c0,1.2,0,1.6,0.2,2.6c0.7,4,2.9,7.6,6.1,10.1c2.4,1.8,5.3,3,8.4,3.2c0.6,0,1.8,0.1,2.4,0c2.8-0.2,5.5-1.1,7.8-2.7
	c3.6-2.5,6-6.2,6.8-10.5C35.9,21.8,36,21,36,20c0-0.8,0-1.2-0.1-2c-0.6-4.5-3.1-8.6-6.9-11.2c-2.4-1.6-5-2.5-7.9-2.7
	C20.8,4,19.3,4,19,4z M20.2,9.8c0.4,0.1,0.8,0.2,0.8,0.2c0,0-0.1,0.7-0.3,1.4c-0.2,0.8-0.3,1.4-0.3,1.4c0,0,0.3,0.1,0.7,0.2
	c0.5,0.1,0.7,0.2,0.7,0.1c0,0,0.2-0.6,0.4-1.4l0.3-1.4l0.9,0.2c0.5,0.1,0.9,0.2,0.9,0.2c0,0-0.2,0.6-0.4,1.4
	c-0.2,0.8-0.4,1.4-0.4,1.4s0.1,0,0.2,0.1c1.6,0.6,2.7,1.4,3.1,2.3c0.2,0.4,0.3,1,0.2,1.4c-0.1,1-0.5,1.8-1.1,2.3
	c-0.2,0.2-0.7,0.4-0.9,0.4c-0.1,0-0.2,0.1-0.2,0.1s0,0.1,0.1,0.1c0.2,0.1,0.6,0.4,0.8,0.6c0.4,0.4,0.7,0.9,0.9,1.4
	c0.1,0.2,0.1,0.3,0.1,0.7c0,0.6,0,0.8-0.2,1.4c-0.5,1.4-1.3,2.2-2.6,2.5c-0.8,0.2-1.8,0.2-3.1,0c-0.2,0-0.4-0.1-0.5-0.1
	c-0.1,0-0.1,0-0.4,1.4c-0.2,0.8-0.4,1.4-0.4,1.5c0,0-1.7-0.4-1.7-0.4c0,0,0.5-2,0.7-2.8c0-0.1,0-0.1-0.7-0.2
	c-0.4-0.1-0.7-0.2-0.7-0.2c0,0-0.2,0.7-0.4,1.4L16.3,29l-0.9-0.2c-0.5-0.1-0.9-0.2-0.9-0.2c0,0,0.2-0.7,0.4-1.5
	c0.2-0.8,0.4-1.5,0.3-1.5s-0.8-0.2-1.8-0.5c-1-0.2-1.7-0.4-1.7-0.4c0,0,0.2-0.5,0.4-1l0.4-1l0.5,0.1c0.9,0.2,1.1,0.3,1.3,0.1
	c0.2-0.2,0.2,0,1.2-4.3c0.7-2.7,1-4,1-4.1c0-0.3-0.1-0.6-0.4-0.7c-0.2-0.1-0.5-0.2-1.2-0.4c-0.3-0.1-0.5-0.1-0.5-0.1
	c0,0,0.4-1.8,0.4-1.8c0,0,3.3,0.8,3.5,0.9c0,0,0.1-0.2,0.4-1.4c0.2-0.8,0.4-1.4,0.4-1.4c0,0,0,0,0.1,0C19.4,9.6,19.8,9.7,20.2,9.8z
	 M19.5,16.7c-0.2,1-0.4,1.8-0.4,1.8c0,0,0.9,0.3,1.3,0.3c1.9,0.4,3,0,3.2-1.1c0.1-0.6,0-1-0.4-1.4c-0.4-0.4-0.9-0.7-1.7-0.9
	c-0.3-0.1-1.4-0.4-1.5-0.4C19.9,14.9,19.8,15.4,19.5,16.7z M18.6,20.3c-0.1,0.3-0.9,3.7-0.9,3.8c0,0.1,1.6,0.4,2.3,0.5
	c0.4,0.1,1.4,0.1,1.7,0c0.5-0.1,0.8-0.3,1-0.5c0.4-0.4,0.6-1.2,0.3-1.7c-0.3-0.8-1.3-1.4-3-1.8c-0.4-0.1-1.3-0.3-1.3-0.3
	C18.6,20.2,18.6,20.2,18.6,20.3z"/>
</svg>
