<?xml version="1.0" encoding="utf-8"?>
<!-- Generator: Adobe Illustrator 24.0.1, SVG Export Plug-In . SVG Version: 6.00 Build 0)  -->
<svg version="1.1" id="Layer_1" xmlns="http://www.w3.org/2000/svg" xmlns:xlink="http://www.w3.org/1999/xlink" x="0px" y="0px"
	 viewBox="0 0 800 800" style="enable-background:new 0 0 800 800;" xml:space="preserve">
<style type="text/css">
	.st0{fill:#FFFFFF;stroke:#000000;stroke-miterlimit:10;}
</style>
<path class="st0" d="M116.7,400c0-156.5,126.9-283.3,283.3-283.3c156.5,0,283.3,126.9,283.3,283.3c0,156.5-126.9,283.3-283.3,283.3
	C243.5,683.3,116.7,556.5,116.7,400z M400,50C206.7,50,50,206.7,50,400c0,193.3,156.7,350,350,350c193.3,0,350-156.7,350-350
	C750,206.7,593.3,50,400,50z M366.7,200c0-18.4-14.9-33.3-33.3-33.3c-18.4,0-33.3,14.9-33.3,33.3v33.3h-33.3
	c-18.4,0-33.3,14.9-33.3,33.3s14.9,33.3,33.3,33.3v100v100c-18.4,0-33.3,14.9-33.3,33.3c0,18.4,14.9,33.3,33.3,33.3H300V600
	c0,18.4,14.9,33.3,33.3,33.3c18.4,0,33.3-14.9,33.3-33.3v-33.3H400V600c0,18.4,14.9,33.3,33.3,33.3s33.3-14.9,33.3-33.3v-33.3h16.7
	c55.2,0,100-44.8,100-100c0-30.3-13.5-57.5-34.8-75.9c11.4-16.3,18.2-36.1,18.2-57.5c0-55.2-44.8-100-100-100V200
	c0-18.4-14.9-33.3-33.3-33.3S400,181.6,400,200v33.3h-33.3V200z M433.3,500h-100v-66.7H400h66.7h16.7c18.4,0,33.3,14.9,33.3,33.3
	c0,18.4-14.9,33.3-33.3,33.3H433.3z M433.3,300h-100v66.7H400h66.7c18.4,0,33.3-14.9,33.3-33.3c0-18.4-14.9-33.3-33.3-33.3H433.3z"
	/>
</svg>
