<svg width="25" height="14" viewBox="0 0 25 14" fill="none" xmlns="http://www.w3.org/2000/svg">
<path d="M24.0018 12.9238H0V14.0008H24.0018V12.9238Z" fill="#CB001C"/>
<path d="M24.0018 11.8457H0V12.9226H24.0018V11.8457Z" fill="white"/>
<path d="M24.0018 10.7695H0V11.8465H24.0018V10.7695Z" fill="#CB001C"/>
<path d="M24.0018 9.69141H0V10.7683H24.0018V9.69141Z" fill="white"/>
<path d="M24.0018 8.61523H0V9.69216H24.0018V8.61523Z" fill="#CB001C"/>
<path d="M24.0018 7.53906H0V8.61599H24.0018V7.53906Z" fill="white"/>
<path d="M24.0018 6.46094H0V7.53786H24.0018V6.46094Z" fill="#CB001C"/>
<path d="M24.0018 5.38477H0V6.46169H24.0018V5.38477Z" fill="white"/>
<path d="M24.0018 4.30859H0V5.38552H24.0018V4.30859Z" fill="#CB001C"/>
<path d="M24.0018 3.23047H0V4.30739H24.0018V3.23047Z" fill="white"/>
<path d="M24.0018 2.1543H0V3.23122H24.0018V2.1543Z" fill="#CB001C"/>
<path d="M24.0018 1.07617H0V2.1531H24.0018V1.07617Z" fill="white"/>
<path d="M24.0018 0H0V1.07692H24.0018V0Z" fill="#CB001C"/>
<path d="M10.9595 0H0V7.53846H10.9595V0Z" fill="#2A3560"/>
<path d="M0.986822 0.832031L1.08033 1.11577H1.38019L1.13837 1.29311L1.23187 1.57685L0.986822 1.39951L0.744998 1.57685L0.838504 1.29311L0.59668 1.11577H0.896541L0.986822 0.832031Z" fill="white"/>
<path d="M0.986822 2.08984L1.08033 2.37358H1.38019L1.13837 2.55092L1.23187 2.83466L0.986822 2.66055L0.744998 2.83466L0.838504 2.55092L0.59668 2.37358H0.896541L0.986822 2.08984Z" fill="white"/>
<path d="M0.986822 3.34766L1.08033 3.63462H1.38019L1.13837 3.80873L1.23187 4.0957L0.986822 3.91836L0.744998 4.0957L0.838504 3.80873L0.59668 3.63462H0.896541L0.986822 3.34766Z" fill="white"/>
<path d="M0.986822 4.60742L1.08033 4.89116H1.38019L1.13837 5.0685L1.23187 5.35224L0.986822 5.1749L0.744998 5.35224L0.838504 5.0685L0.59668 4.89116H0.896541L0.986822 4.60742Z" fill="white"/>
<path d="M0.986822 5.86523L1.08033 6.14897H1.38019L1.13837 6.32631L1.23187 6.61005L0.986822 6.43594L0.744998 6.61005L0.838504 6.32631L0.59668 6.14897H0.896541L0.986822 5.86523Z" fill="white"/>
<path d="M1.86378 1.49219L1.95728 1.77915H2.25714L2.01532 1.95327L2.10882 2.24023L1.86378 2.06289L1.62195 2.24023L1.71546 1.95327L1.47363 1.77915H1.77349L1.86378 1.49219Z" fill="white"/>
<path d="M1.86378 2.75391L1.95728 3.03765H2.25714L2.01532 3.21498L2.10882 3.49872L1.86378 3.32139L1.62195 3.49872L1.71546 3.21498L1.47363 3.03765H1.77349L1.86378 2.75391Z" fill="white"/>
<path d="M1.86378 4.01172L1.95728 4.29546H2.25714L2.01532 4.4728L2.10882 4.75654L1.86378 4.58242L1.62195 4.75654L1.71546 4.4728L1.47363 4.29546H1.77349L1.86378 4.01172Z" fill="white"/>
<path d="M1.86378 5.26758L1.95728 5.55454H2.25714L2.01532 5.72866L2.10882 6.0124L1.86378 5.83828L1.62195 6.0124L1.71546 5.72866L1.47363 5.55454H1.77349L1.86378 5.26758Z" fill="white"/>
<path d="M2.75372 0.832031L2.844 1.11577H3.14386L2.90204 1.29311L2.99554 1.57685L2.75372 1.39951L2.50867 1.57685L2.60218 1.29311L2.36035 1.11577H2.66021L2.75372 0.832031Z" fill="white"/>
<path d="M2.75372 2.08984L2.844 2.37358H3.14386L2.90204 2.55092L2.99554 2.83466L2.75372 2.66055L2.50867 2.83466L2.60218 2.55092L2.36035 2.37358H2.66021L2.75372 2.08984Z" fill="white"/>
<path d="M2.75372 3.34766L2.844 3.63462H3.14386L2.90204 3.80873L2.99554 4.0957L2.75372 3.91836L2.50867 4.0957L2.60218 3.80873L2.36035 3.63462H2.66021L2.75372 3.34766Z" fill="white"/>
<path d="M2.75372 4.60742L2.844 4.89116H3.14386L2.90204 5.0685L2.99554 5.35224L2.75372 5.1749L2.50867 5.35224L2.60218 5.0685L2.36035 4.89116H2.66021L2.75372 4.60742Z" fill="white"/>
<path d="M2.75372 5.86523L2.844 6.14897H3.14386L2.90204 6.32631L2.99554 6.61005L2.75372 6.43594L2.50867 6.61005L2.60218 6.32631L2.36035 6.14897H2.66021L2.75372 5.86523Z" fill="white"/>
<path d="M3.62745 1.49219L3.72095 1.77915H4.02081L3.77899 1.95327L3.8725 2.24023L3.62745 2.06289L3.38562 2.24023L3.47913 1.95327L3.2373 1.77915H3.53717L3.62745 1.49219Z" fill="white"/>
<path d="M3.62745 2.75391L3.72095 3.03765H4.02081L3.77899 3.21498L3.8725 3.49872L3.62745 3.32139L3.38562 3.49872L3.47913 3.21498L3.2373 3.03765H3.53717L3.62745 2.75391Z" fill="white"/>
<path d="M3.62745 4.01172L3.72095 4.29546H4.02081L3.77899 4.4728L3.8725 4.75654L3.62745 4.58242L3.38562 4.75654L3.47913 4.4728L3.2373 4.29546H3.53717L3.62745 4.01172Z" fill="white"/>
<path d="M3.62745 5.26758L3.72095 5.55454H4.02081L3.77899 5.72866L3.8725 6.0124L3.62745 5.83828L3.38562 6.0124L3.47913 5.72866L3.2373 5.55454H3.53717L3.62745 5.26758Z" fill="white"/>
<path d="M4.51739 0.832031L4.60767 1.11577H4.90753L4.66571 1.29311L4.75921 1.57685L4.51739 1.39951L4.27557 1.57685L4.36585 1.29311L4.12402 1.11577H4.42389L4.51739 0.832031Z" fill="white"/>
<path d="M4.51739 2.08984L4.60767 2.37358H4.90753L4.66571 2.55092L4.75921 2.83466L4.51739 2.66055L4.27557 2.83466L4.36585 2.55092L4.12402 2.37358H4.42389L4.51739 2.08984Z" fill="white"/>
<path d="M4.51739 3.34766L4.60767 3.63462H4.90753L4.66571 3.80873L4.75921 4.0957L4.51739 3.91836L4.27557 4.0957L4.36585 3.80873L4.12402 3.63462H4.42389L4.51739 3.34766Z" fill="white"/>
<path d="M4.51739 4.60742L4.60767 4.89116H4.90753L4.66571 5.0685L4.75921 5.35224L4.51739 5.1749L4.27557 5.35224L4.36585 5.0685L4.12402 4.89116H4.42389L4.51739 4.60742Z" fill="white"/>
<path d="M4.51739 5.86523L4.60767 6.14897H4.90753L4.66571 6.32631L4.75921 6.61005L4.51739 6.43594L4.27557 6.61005L4.36585 6.32631L4.12402 6.14897H4.42389L4.51739 5.86523Z" fill="white"/>
<path d="M5.39434 1.49219L5.48462 1.77915H5.78449L5.54266 1.95327L5.63617 2.24023L5.39434 2.06289L5.1493 2.24023L5.2428 1.95327L5.00098 1.77915H5.30084L5.39434 1.49219Z" fill="white"/>
<path d="M5.39434 2.75391L5.48462 3.03765H5.78449L5.54266 3.21498L5.63617 3.49872L5.39434 3.32139L5.1493 3.49872L5.2428 3.21498L5.00098 3.03765H5.30084L5.39434 2.75391Z" fill="white"/>
<path d="M5.39434 4.01172L5.48462 4.29546H5.78449L5.54266 4.4728L5.63617 4.75654L5.39434 4.58242L5.1493 4.75654L5.2428 4.4728L5.00098 4.29546H5.30084L5.39434 4.01172Z" fill="white"/>
<path d="M5.39434 5.26758L5.48462 5.55454H5.78449L5.54266 5.72866L5.63617 6.0124L5.39434 5.83828L5.1493 6.0124L5.2428 5.72866L5.00098 5.55454H5.30084L5.39434 5.26758Z" fill="white"/>
<path d="M6.28106 0.832031L6.37457 1.11577H6.67443L6.42938 1.29311L6.52289 1.57685L6.28106 1.39951L6.03924 1.57685L6.13274 1.29311L5.8877 1.11577H6.18756L6.28106 0.832031Z" fill="white"/>
<path d="M6.28106 2.08984L6.37457 2.37358H6.67443L6.42938 2.55092L6.52289 2.83466L6.28106 2.66055L6.03924 2.83466L6.13274 2.55092L5.8877 2.37358H6.18756L6.28106 2.08984Z" fill="white"/>
<path d="M6.28106 3.34766L6.37457 3.63462H6.67443L6.42938 3.80873L6.52289 4.0957L6.28106 3.91836L6.03924 4.0957L6.13274 3.80873L5.8877 3.63462H6.18756L6.28106 3.34766Z" fill="white"/>
<path d="M6.28106 4.60742L6.37457 4.89116H6.67443L6.42938 5.0685L6.52289 5.35224L6.28106 5.1749L6.03924 5.35224L6.13274 5.0685L5.8877 4.89116H6.18756L6.28106 4.60742Z" fill="white"/>
<path d="M6.28106 5.86523L6.37457 6.14897H6.67443L6.42938 6.32631L6.52289 6.61005L6.28106 6.43594L6.03924 6.61005L6.13274 6.32631L5.8877 6.14897H6.18756L6.28106 5.86523Z" fill="white"/>
<path d="M7.15802 1.49219L7.2483 1.77915H7.54816L7.30634 1.95327L7.39984 2.24023L7.15802 2.06289L6.91619 2.24023L7.00647 1.95327L6.76465 1.77915H7.06451L7.15802 1.49219Z" fill="white"/>
<path d="M7.15802 2.75391L7.2483 3.03765H7.54816L7.30634 3.21498L7.39984 3.49872L7.15802 3.32139L6.91619 3.49872L7.00647 3.21498L6.76465 3.03765H7.06451L7.15802 2.75391Z" fill="white"/>
<path d="M7.15802 4.01172L7.2483 4.29546H7.54816L7.30634 4.4728L7.39984 4.75654L7.15802 4.58242L6.91619 4.75654L7.00647 4.4728L6.76465 4.29546H7.06451L7.15802 4.01172Z" fill="white"/>
<path d="M7.15802 5.26758L7.2483 5.55454H7.54816L7.30634 5.72866L7.39984 6.0124L7.15802 5.83828L6.91619 6.0124L7.00647 5.72866L6.76465 5.55454H7.06451L7.15802 5.26758Z" fill="white"/>
<path d="M8.04473 0.832031L8.13824 1.11577H8.4381L8.19305 1.29311L8.28656 1.57685L8.04473 1.39951L7.80291 1.57685L7.89319 1.29311L7.65137 1.11577H7.95123L8.04473 0.832031Z" fill="white"/>
<path d="M8.04473 2.08984L8.13824 2.37358H8.4381L8.19305 2.55092L8.28656 2.83466L8.04473 2.66055L7.80291 2.83466L7.89319 2.55092L7.65137 2.37358H7.95123L8.04473 2.08984Z" fill="white"/>
<path d="M8.04473 3.34766L8.13824 3.63462H8.4381L8.19305 3.80873L8.28656 4.0957L8.04473 3.91836L7.80291 4.0957L7.89319 3.80873L7.65137 3.63462H7.95123L8.04473 3.34766Z" fill="white"/>
<path d="M8.04473 4.60742L8.13824 4.89116H8.4381L8.19305 5.0685L8.28656 5.35224L8.04473 5.1749L7.80291 5.35224L7.89319 5.0685L7.65137 4.89116H7.95123L8.04473 4.60742Z" fill="white"/>
<path d="M8.04473 5.86523L8.13824 6.14897H8.4381L8.19305 6.32631L8.28656 6.61005L8.04473 6.43594L7.80291 6.61005L7.89319 6.32631L7.65137 6.14897H7.95123L8.04473 5.86523Z" fill="white"/>
<path d="M8.92169 1.49219L9.01519 1.77915H9.31183L9.07001 1.95327L9.16351 2.24023L8.92169 2.06289L8.67986 2.24023L8.77014 1.95327L8.52832 1.77915H8.82818L8.92169 1.49219Z" fill="white"/>
<path d="M8.92169 2.75391L9.01519 3.03765H9.31183L9.07001 3.21498L9.16351 3.49872L8.92169 3.32139L8.67986 3.49872L8.77014 3.21498L8.52832 3.03765H8.82818L8.92169 2.75391Z" fill="white"/>
<path d="M8.92169 4.01172L9.01519 4.29546H9.31183L9.07001 4.4728L9.16351 4.75654L8.92169 4.58242L8.67986 4.75654L8.77014 4.4728L8.52832 4.29546H8.82818L8.92169 4.01172Z" fill="white"/>
<path d="M8.92169 5.26758L9.01519 5.55454H9.31183L9.07001 5.72866L9.16351 6.0124L8.92169 5.83828L8.67986 6.0124L8.77014 5.72866L8.52832 5.55454H8.82818L8.92169 5.26758Z" fill="white"/>
<path d="M9.80841 0.832031L9.90191 1.11577H10.2018L9.95995 1.29311L10.0502 1.57685L9.80841 1.39951L9.56658 1.57685L9.66009 1.29311L9.41504 1.11577H9.7149L9.80841 0.832031Z" fill="white"/>
<path d="M9.80841 2.08984L9.90191 2.37358H10.2018L9.95995 2.55092L10.0502 2.83466L9.80841 2.66055L9.56658 2.83466L9.66009 2.55092L9.41504 2.37358H9.7149L9.80841 2.08984Z" fill="white"/>
<path d="M9.80841 3.34766L9.90191 3.63462H10.2018L9.95995 3.80873L10.0502 4.0957L9.80841 3.91836L9.56658 4.0957L9.66009 3.80873L9.41504 3.63462H9.7149L9.80841 3.34766Z" fill="white"/>
<path d="M9.80841 4.60742L9.90191 4.89116H10.2018L9.95995 5.0685L10.0502 5.35224L9.80841 5.1749L9.56658 5.35224L9.66009 5.0685L9.41504 4.89116H9.7149L9.80841 4.60742Z" fill="white"/>
<path d="M9.80841 5.86523L9.90191 6.14897H10.2018L9.95995 6.32631L10.0502 6.61005L9.80841 6.43594L9.56658 6.61005L9.66009 6.32631L9.41504 6.14897H9.7149L9.80841 5.86523Z" fill="white"/>
</svg>
