<svg width="24" height="14" viewBox="0 0 24 14" fill="none" xmlns="http://www.w3.org/2000/svg">
<path d="M24 0H0V13.9989H24V0Z" fill="#CB1D23"/>
<path d="M12.0038 6.99935C11.5351 6.80763 11.1504 6.45484 10.9188 6.00455C10.6872 5.55425 10.6241 5.03606 10.7408 4.54333C10.8574 4.0506 11.1462 3.61574 11.5551 3.3171C11.964 3.01845 12.4662 2.87566 12.971 2.91445C12.878 2.95329 12.7949 3.01262 12.728 3.088C12.661 3.16339 12.6119 3.25289 12.5844 3.34987C12.5568 3.44684 12.5514 3.54879 12.5687 3.64812C12.586 3.74744 12.6254 3.8416 12.6841 3.92359C12.7598 4.05435 12.808 4.19924 12.8255 4.34933C12.8431 4.49942 12.8297 4.65152 12.7862 4.79623C12.7427 4.94095 12.67 5.07521 12.5726 5.19074C12.4752 5.30626 12.3551 5.4006 12.2198 5.46792C12.0777 5.52955 11.9536 5.62635 11.8592 5.7492C11.7649 5.87206 11.7033 6.01691 11.6804 6.17012C11.6575 6.32333 11.674 6.47984 11.7283 6.62492C11.7827 6.77 11.873 6.89885 11.9909 6.99935" fill="white"/>
<path d="M11.8115 4.78476L12.0758 4.17541L11.502 4.51394L12.1661 4.57842L11.6664 4.13672L11.8115 4.78476Z" fill="#CB1D23"/>
<path d="M12.005 6.96776C11.6651 6.73541 11.4299 6.37907 11.3497 5.97523C11.2695 5.57138 11.3509 5.15219 11.5762 4.80763L11.5247 4.77539C11.1378 5.32993 11.0991 6.49705 11.9793 7.03224L12.005 6.96776Z" fill="#CB1D23"/>
<path d="M12.0039 6.99962C12.0395 6.49119 12.2567 6.0125 12.6159 5.65088C12.9751 5.28925 13.4522 5.06879 13.9604 5.0297C14.4686 4.99061 14.9739 5.1355 15.3841 5.43793C15.7944 5.74037 16.0822 6.18021 16.1952 6.67721C16.1296 6.60046 16.0475 6.53958 15.955 6.49916C15.8625 6.45875 15.762 6.43985 15.6611 6.44388C15.5602 6.44792 15.4616 6.47478 15.3726 6.52246C15.2836 6.57014 15.2066 6.63738 15.1474 6.71913C15.0457 6.83049 14.9224 6.92001 14.785 6.98224C14.6477 7.04447 14.4991 7.07811 14.3483 7.08113C14.1975 7.08414 14.0477 7.05647 13.9079 6.99978C13.7682 6.94309 13.6414 6.85857 13.5353 6.75137C13.4326 6.63584 13.3021 6.54832 13.1563 6.49702C13.0104 6.44573 12.8539 6.43235 12.7014 6.45814C12.549 6.48392 12.4056 6.54803 12.2847 6.64444C12.1638 6.74085 12.0694 6.86639 12.0104 7.00929" fill="white"/>
<path d="M14.0488 6.13435L14.7098 6.1956L14.2133 5.75391L14.3551 6.40517L14.6227 5.79582L14.0488 6.13435Z" fill="#CB1D23"/>
<path d="M12.0359 6.99951C12.1507 6.60088 12.4185 6.26388 12.781 6.06212C13.1434 5.86035 13.571 5.81022 13.9703 5.92267V5.86464C13.3255 5.66474 12.2035 5.99038 11.9746 6.98984L12.0359 6.99951Z" fill="#CB1D23"/>
<path d="M12.0043 6.99901C11.6765 7.38628 11.221 7.64348 10.7201 7.72412C10.2193 7.80475 9.70604 7.70348 9.27332 7.43863C8.8406 7.17377 8.51693 6.76282 8.36085 6.28008C8.20477 5.79735 8.22659 5.27469 8.42235 4.80664C8.4312 4.90708 8.46247 5.00426 8.51387 5.091C8.56527 5.17775 8.63549 5.25185 8.71933 5.30785C8.80318 5.36386 8.89853 5.40033 8.99835 5.41458C9.09816 5.42883 9.19991 5.4205 9.29608 5.3902C9.44384 5.3586 9.5965 5.35762 9.74466 5.38732C9.89281 5.41701 10.0333 5.47675 10.1575 5.56286C10.2816 5.64896 10.3869 5.75959 10.4666 5.88793C10.5464 6.01627 10.599 6.1596 10.6212 6.30906C10.6354 6.4632 10.6887 6.61115 10.7762 6.7389C10.8636 6.86665 10.9822 6.96997 11.1207 7.03907C11.2592 7.10816 11.413 7.14075 11.5677 7.13374C11.7223 7.12673 11.8726 7.08036 12.0043 6.99901Z" fill="white"/>
<path d="M9.83672 6.49638L9.33698 6.05469L9.48207 6.70595L9.74644 6.0966L9.17578 6.4319L9.83672 6.49638Z" fill="#CB1D23"/>
<path d="M11.9745 6.98058C11.6488 7.23194 11.2376 7.34571 10.8289 7.29749C10.4203 7.24928 10.0469 7.04293 9.7886 6.72266L9.74023 6.76134C10.1465 7.29976 11.2459 7.69955 12.0164 7.0225L11.9745 6.98058Z" fill="#CB1D23"/>
<path d="M12.0039 6.99961C12.4951 6.88009 13.0127 6.93988 13.4637 7.1682C13.9147 7.39651 14.2693 7.77836 14.4637 8.24496C14.6582 8.71155 14.6796 9.23224 14.5241 9.71323C14.3687 10.1942 14.0466 10.6039 13.6159 10.8685C13.6687 10.7826 13.7013 10.6858 13.7112 10.5855C13.7212 10.4852 13.7084 10.384 13.6736 10.2893C13.6389 10.1947 13.5832 10.1092 13.5106 10.0392C13.4381 9.96918 13.3506 9.91652 13.2548 9.88515C13.1164 9.82389 12.9919 9.73485 12.8893 9.62354C12.7866 9.51223 12.7079 9.38103 12.658 9.23805C12.6082 9.09508 12.5882 8.94339 12.5993 8.79238C12.6105 8.64137 12.6525 8.49426 12.7229 8.36016C12.7996 8.22699 12.8414 8.07654 12.8442 7.92286C12.847 7.76918 12.8108 7.6173 12.739 7.4814C12.6672 7.34551 12.5621 7.23003 12.4335 7.14578C12.305 7.06152 12.1572 7.01123 12.0039 6.99961Z" fill="white"/>
<path d="M13.4593 8.67578L13.6044 9.32704L13.8688 8.71769L13.2949 9.05622L13.9591 9.11748L13.4593 8.67578Z" fill="#CB1D23"/>
<path d="M12.0051 7.03111C12.4159 7.01882 12.815 7.1684 13.1165 7.44762C13.4181 7.72684 13.5979 8.11335 13.6171 8.52386H13.6784C13.6784 7.85003 13.011 6.87958 11.9922 6.97308L12.0051 7.03111Z" fill="#CB1D23"/>
<path d="M12.0043 7C12.2761 7.43113 12.3835 7.94567 12.307 8.44952C12.2305 8.95336 11.9752 9.41284 11.5878 9.74391C11.2004 10.075 10.7067 10.2555 10.1971 10.2525C9.6875 10.2495 9.196 10.0632 8.8125 9.72757C8.91042 9.75142 9.01246 9.75279 9.11098 9.73158C9.20951 9.71036 9.30194 9.66711 9.38136 9.60507C9.46077 9.54302 9.52511 9.4638 9.56953 9.37334C9.61396 9.28288 9.63732 9.18353 9.63786 9.08275C9.65499 8.93282 9.70253 8.78796 9.77758 8.65704C9.85263 8.52612 9.9536 8.41189 10.0743 8.32134C10.1951 8.2308 10.333 8.16585 10.4797 8.13046C10.6264 8.09507 10.7788 8.08999 10.9275 8.11553C11.0794 8.14918 11.2374 8.14329 11.3863 8.09844C11.5353 8.05358 11.6702 7.97125 11.7783 7.85932C11.8863 7.74739 11.9639 7.6096 12.0034 7.45915C12.043 7.3087 12.0433 7.15061 12.0043 7Z" fill="white"/>
<path d="M10.8571 8.90197L10.2832 9.2405L10.9441 9.30498L10.4476 8.86328L10.5895 9.51454L10.8571 8.90197Z" fill="#CB1D23"/>
<path d="M11.9748 7.01798C12.1139 7.40553 12.0952 7.83221 11.9228 8.2061C11.7503 8.57999 11.4378 8.87117 11.0527 9.0169L11.0753 9.07494C11.7201 8.8557 12.4326 7.93362 12.0425 6.99219L11.9748 7.01798Z" fill="#CB1D23"/>
<path d="M12.0037 6.90625C12.0221 6.90625 12.0402 6.91173 12.0556 6.92201C12.071 6.93228 12.083 6.94688 12.09 6.96397C12.0971 6.98105 12.099 6.99985 12.0954 7.01799C12.0917 7.03612 12.0828 7.05278 12.0698 7.06586C12.0567 7.07894 12.04 7.08784 12.0219 7.09145C12.0038 7.09506 11.985 7.0932 11.9679 7.08613C11.9508 7.07905 11.9362 7.06707 11.9259 7.05169C11.9156 7.03632 11.9102 7.01824 11.9102 6.99975C11.9102 6.97495 11.92 6.95117 11.9375 6.93363C11.9551 6.9161 11.9789 6.90625 12.0037 6.90625Z" fill="#CB1D23"/>
</svg>
