<svg width="20" height="20" viewBox="0 0 20 20" fill="none" xmlns="http://www.w3.org/2000/svg">
<path d="M4.06358 15.6842C0.99298 15.6842 0.940267 12.7957 0.93992 12.6742V0.905609H13.1569C16.2278 0.905609 16.2801 3.79374 16.2809 3.91558V5.32379H17.2204V3.91558C17.2204 2.56114 16.3711 0 13.1569 0H0V12.6742C0 14.0283 0.849306 16.5895 4.06358 16.5895H5.66571V15.6842H4.06358Z" fill="white"/>
<path d="M19.9384 11.5185V16.407C19.9384 16.4137 19.9297 17.1145 19.5704 17.7893C19.1173 18.6402 18.3111 19.0721 17.1737 19.0721H6.91934C9.5238 14.6825 14.3653 11.6805 19.9384 11.5185ZM6.60547 15.6833V8.8936C6.60547 8.8866 6.61443 8.18613 6.97347 7.51126C7.42654 6.66008 8.23274 6.22852 9.37047 6.22852H16.281H17.2206H19.9384V10.6132C14.3585 10.7662 9.46627 13.6032 6.60547 17.8315V16.5886V15.6833Z" fill="white"/>
<path d="M17.2206 6.22852H16.2807H9.37014C8.23274 6.22852 7.42654 6.66008 6.97347 7.51126C6.61408 8.18613 6.60547 8.8866 6.60547 8.89353V15.6833V16.5886V17.8315C9.46627 13.6032 14.3581 10.7662 19.9384 10.6131V6.22852H17.2206Z" fill="white"/>
<path d="M6.91992 19.0731H17.174C18.3117 19.0731 19.1179 18.6413 19.571 17.7904C19.93 17.1155 19.9389 16.4147 19.9389 16.4081V11.5195C14.3659 11.6815 9.52399 14.6832 6.91992 19.0731Z" fill="white"/>
</svg>
