<svg width="31" height="24" viewBox="0 0 31 24" fill="none" xmlns="http://www.w3.org/2000/svg">
<path d="M30.3691 23.6628V23.7252H30.4269C30.4397 23.7252 30.4507 23.7222 30.4586 23.7173C30.4659 23.7125 30.4702 23.704 30.4702 23.6937C30.4702 23.6834 30.4659 23.6755 30.4586 23.6706C30.4507 23.6652 30.4397 23.6628 30.4269 23.6628H30.3691ZM30.4275 23.6191C30.4574 23.6191 30.4805 23.6258 30.497 23.6391C30.5134 23.6525 30.5213 23.6706 30.5213 23.6937C30.5213 23.7131 30.5152 23.7288 30.5018 23.7416C30.4891 23.7537 30.4708 23.7616 30.4464 23.7646L30.5232 23.8525H30.4635L30.3922 23.7652H30.3691V23.8525H30.3191V23.6191H30.4275ZM30.4123 23.9331C30.4397 23.9331 30.4653 23.9277 30.4884 23.9174C30.5122 23.9071 30.5329 23.8931 30.5506 23.8755C30.5682 23.858 30.5823 23.8373 30.5926 23.8131C30.6024 23.7895 30.6078 23.764 30.6078 23.7367C30.6078 23.7094 30.6024 23.684 30.5926 23.6603C30.5823 23.6367 30.5682 23.6155 30.5506 23.5979C30.5329 23.5803 30.5122 23.5664 30.4884 23.5561C30.4653 23.5464 30.4397 23.5415 30.4123 23.5415C30.3849 23.5415 30.3587 23.5464 30.335 23.5561C30.3106 23.5664 30.2893 23.5803 30.2716 23.5979C30.2539 23.6155 30.2399 23.6367 30.2302 23.6603C30.2198 23.684 30.215 23.7094 30.215 23.7367C30.215 23.764 30.2198 23.7895 30.2302 23.8131C30.2399 23.8373 30.2539 23.858 30.2716 23.8755C30.2893 23.8931 30.3106 23.9071 30.335 23.9174C30.3587 23.9277 30.3849 23.9331 30.4123 23.9331ZM30.4123 23.4851C30.4482 23.4851 30.4811 23.4918 30.5128 23.5051C30.5439 23.5179 30.5707 23.5361 30.5944 23.5591C30.6176 23.5815 30.6358 23.6082 30.6492 23.6391C30.6626 23.6694 30.6693 23.7022 30.6693 23.7367C30.6693 23.7713 30.6626 23.804 30.6492 23.8343C30.6358 23.8646 30.6176 23.8913 30.5944 23.9143C30.5707 23.9368 30.5439 23.9549 30.5128 23.9683C30.4811 23.9816 30.4482 23.9883 30.4123 23.9883C30.3758 23.9883 30.3423 23.9816 30.3106 23.9683C30.2789 23.9549 30.2515 23.9368 30.2284 23.9143C30.2052 23.8913 30.1869 23.8646 30.1735 23.8343C30.1601 23.804 30.1534 23.7713 30.1534 23.7367C30.1534 23.7022 30.1601 23.6694 30.1735 23.6391C30.1869 23.6082 30.2052 23.5815 30.2284 23.5591C30.2515 23.5361 30.2789 23.5179 30.3106 23.5051C30.3423 23.4918 30.3758 23.4851 30.4123 23.4851ZM6.68148 22.5862C6.68148 22.1412 6.97446 21.7757 7.4532 21.7757C7.91063 21.7757 8.21944 22.1255 8.21944 22.5862C8.21944 23.0469 7.91063 23.3966 7.4532 23.3966C6.97446 23.3966 6.68148 23.0311 6.68148 22.5862ZM8.74082 22.5862V21.3204H8.18777V21.6278C8.01235 21.3999 7.74618 21.2568 7.38438 21.2568C6.67113 21.2568 6.11198 21.8133 6.11198 22.5862C6.11198 23.3597 6.67113 23.9155 7.38438 23.9155C7.74618 23.9155 8.01235 23.7725 8.18777 23.5446V23.8519H8.74082V22.5862ZM27.4302 22.5862C27.4302 22.1412 27.7232 21.7757 28.2019 21.7757C28.66 21.7757 28.9682 22.1255 28.9682 22.5862C28.9682 23.0469 28.66 23.3966 28.2019 23.3966C27.7232 23.3966 27.4302 23.0311 27.4302 22.5862ZM29.4901 22.5862V20.3039H28.9365V21.6278C28.7611 21.3999 28.4949 21.2568 28.1331 21.2568C27.4198 21.2568 26.8607 21.8133 26.8607 22.5862C26.8607 23.3597 27.4198 23.9155 28.1331 23.9155C28.4949 23.9155 28.7611 23.7725 28.9365 23.5446V23.8519H29.4901V22.5862ZM15.6059 21.7496C15.9622 21.7496 16.1912 21.9721 16.2497 22.3637H14.9298C14.9889 21.9982 15.2118 21.7496 15.6059 21.7496ZM15.6169 21.2568C14.8713 21.2568 14.35 21.7969 14.35 22.5862C14.35 23.3912 14.8927 23.9155 15.654 23.9155C16.0371 23.9155 16.388 23.8204 16.6968 23.5609L16.4257 23.153C16.2126 23.3221 15.9409 23.4179 15.6857 23.4179C15.3294 23.4179 15.0047 23.2536 14.9249 22.7977H16.8137C16.8192 22.7292 16.8247 22.6601 16.8247 22.5862C16.8192 21.7969 16.3295 21.2568 15.6169 21.2568ZM22.2949 22.5862C22.2949 22.1412 22.5879 21.7757 23.0667 21.7757C23.5241 21.7757 23.8329 22.1255 23.8329 22.5862C23.8329 23.0469 23.5241 23.3966 23.0667 23.3966C22.5879 23.3966 22.2949 23.0311 22.2949 22.5862ZM24.3543 22.5862V21.3204H23.8012V21.6278C23.6252 21.3999 23.3596 21.2568 22.9978 21.2568C22.2846 21.2568 21.7254 21.8133 21.7254 22.5862C21.7254 23.3597 22.2846 23.9155 22.9978 23.9155C23.3596 23.9155 23.6252 23.7725 23.8012 23.5446V23.8519H24.3543V22.5862ZM19.1715 22.5862C19.1715 23.3542 19.7087 23.9155 20.5286 23.9155C20.9117 23.9155 21.1669 23.8307 21.4434 23.6137L21.1779 23.1687C20.9702 23.3172 20.7521 23.3966 20.5121 23.3966C20.0705 23.3912 19.7459 23.0735 19.7459 22.5862C19.7459 22.0988 20.0705 21.7811 20.5121 21.7757C20.7521 21.7757 20.9702 21.8551 21.1779 22.0036L21.4434 21.5587C21.1669 21.3417 20.9117 21.2568 20.5286 21.2568C19.7087 21.2568 19.1715 21.8181 19.1715 22.5862ZM26.3022 21.2568C25.983 21.2568 25.7753 21.4053 25.6315 21.6278V21.3204H25.0834V23.8519H25.637V22.4328C25.637 22.0139 25.8179 21.7811 26.1797 21.7811C26.2918 21.7811 26.4088 21.7969 26.5257 21.8448L26.6962 21.3259C26.5738 21.278 26.4142 21.2568 26.3022 21.2568ZM11.4763 21.5217C11.2101 21.3471 10.8434 21.2568 10.439 21.2568C9.79455 21.2568 9.37976 21.5641 9.37976 22.0673C9.37976 22.4801 9.68857 22.7347 10.2575 22.8141L10.5188 22.8511C10.8221 22.8935 10.9652 22.9729 10.9652 23.116C10.9652 23.3118 10.763 23.4233 10.3854 23.4233C10.0023 23.4233 9.72572 23.3015 9.53934 23.1584L9.27865 23.587C9.58198 23.8095 9.9651 23.9155 10.3799 23.9155C11.1145 23.9155 11.5402 23.5712 11.5402 23.0893C11.5402 22.6444 11.2052 22.4116 10.6515 22.3322L10.3909 22.2946C10.1515 22.2631 9.95962 22.2158 9.95962 22.0461C9.95962 21.8606 10.1405 21.7496 10.4438 21.7496C10.7685 21.7496 11.0828 21.8715 11.2369 21.9666L11.4763 21.5217ZM18.6124 21.2568C18.2932 21.2568 18.0855 21.4053 17.9424 21.6278V21.3204H17.3942V23.8519H17.9472V22.4328C17.9472 22.0139 18.1281 21.7811 18.4899 21.7811C18.602 21.7811 18.719 21.7969 18.8359 21.8448L19.0065 21.3259C18.884 21.278 18.7244 21.2568 18.6124 21.2568ZM13.8925 21.3204H12.988V20.5524H12.4289V21.3204H11.913V21.8236H12.4289V22.9784C12.4289 23.5658 12.6579 23.9155 13.3121 23.9155C13.552 23.9155 13.8286 23.8416 14.004 23.7197L13.8444 23.2481C13.6793 23.3433 13.4984 23.3912 13.3547 23.3912C13.0782 23.3912 12.988 23.2215 12.988 22.9675V21.8236H13.8925V21.3204ZM5.62288 23.8519V22.2631C5.62288 21.6648 5.23976 21.2622 4.62214 21.2568C4.2975 21.2513 3.9625 21.352 3.728 21.7072C3.55258 21.4265 3.27605 21.2568 2.88745 21.2568C2.6158 21.2568 2.35023 21.3362 2.14253 21.6326V21.3204H1.58887V23.8519H2.1474V22.4486C2.1474 22.0091 2.39226 21.7757 2.7705 21.7757C3.13779 21.7757 3.32356 22.0139 3.32356 22.4431V23.8519H3.88271V22.4486C3.88271 22.0091 4.13792 21.7757 4.5052 21.7757C4.88283 21.7757 5.06374 22.0139 5.06374 22.4431V23.8519H5.62288Z" fill="white"/>
<path d="M30.7101 15.4336V15.0638H30.6133L30.5012 15.3178L30.3897 15.0638H30.2923V15.4336H30.3611V15.1547L30.4659 15.3954H30.5371L30.6419 15.1541V15.4336H30.7101ZM30.0955 15.4336V15.1269H30.2198V15.0644H29.9031V15.1269H30.0273V15.4336H30.0955Z" fill="white"/>
<path d="M19.6978 17.0255H11.3157V2.0332H19.6978V17.0255Z" fill="white"/>
<path d="M11.8527 9.52774C11.8527 6.48649 13.2835 3.77742 15.5115 2.0316C13.8822 0.754961 11.8259 -0.00701904 9.59115 -0.00701904C4.30058 -0.00701904 0.0119629 4.26177 0.0119629 9.52774C0.0119629 14.7937 4.30058 19.0625 9.59115 19.0625C11.8259 19.0625 13.8822 18.3005 15.5115 17.0239C13.2835 15.2781 11.8527 12.569 11.8527 9.52774Z" fill="white"/>
<path d="M31.0026 9.52774C31.0026 14.7937 26.714 19.0625 21.4234 19.0625C19.1887 19.0625 17.1324 18.3005 15.5024 17.0239C17.7311 15.2781 19.1619 12.569 19.1619 9.52774C19.1619 6.48649 17.7311 3.77742 15.5024 2.0316C17.1324 0.754961 19.1887 -0.00701904 21.4234 -0.00701904C26.714 -0.00701904 31.0026 4.26177 31.0026 9.52774Z" fill="white"/>
</svg>
