<svg width="75" height="20" viewBox="0 0 75 20" fill="none" xmlns="http://www.w3.org/2000/svg">
<path d="M8.84045 0H3.1103C2.71818 0 2.38471 0.293704 2.32355 0.692795L0.00601556 15.8419C-0.040067 16.1407 0.18448 16.4103 0.47857 16.4103H3.2142C3.60632 16.4103 3.93979 16.1166 4.00095 15.7166L4.626 11.6307C4.68632 11.2307 5.02063 10.937 5.41191 10.937H7.22589C11.0005 10.937 13.1789 9.05385 13.7478 5.32208C14.0042 3.68944 13.7587 2.40664 13.0172 1.50825C12.2028 0.521756 10.7583 0 8.84045 0ZM9.50153 5.53286C9.18817 7.65271 7.61717 7.65271 6.09813 7.65271H5.23345L5.84006 3.69375C5.87609 3.45447 6.07718 3.27825 6.31178 3.27825H6.70809C7.74285 3.27825 8.71896 3.27825 9.22336 3.88639C9.52415 4.2492 9.61632 4.78823 9.50153 5.53286Z" fill="white"/>
<path d="M26.1946 5.39051H23.4754C23.2437 5.39051 23.0436 5.56378 23.0079 5.79905L22.8875 6.57707L22.6974 6.29508C22.1087 5.42109 20.796 5.12891 19.4858 5.12891C16.4809 5.12891 13.9144 7.457 13.4146 10.7228C13.1547 12.3519 13.5242 13.9096 14.4276 14.9959C15.2562 15.9948 16.4419 16.411 17.8526 16.411C20.2737 16.411 21.6163 14.8184 21.6163 14.8184L21.4951 15.5913C21.4494 15.8869 21.672 16.1519 21.9617 16.1519H24.4111C24.8005 16.1519 25.1293 15.8631 25.1908 15.4699L26.6604 5.94939C26.7069 5.65636 26.4852 5.39051 26.1946 5.39051ZM22.4043 10.8043C22.1419 12.3935 20.9089 13.4603 19.3363 13.4603C18.5467 13.4603 17.9157 13.2012 17.5105 12.7103C17.1086 12.2228 16.9558 11.5288 17.0837 10.7559C17.3286 9.18035 18.5824 8.07873 20.1309 8.07873C20.9031 8.07873 21.5308 8.34119 21.9443 8.83636C22.3586 9.33664 22.523 10.0348 22.4043 10.8043Z" fill="white"/>
<path d="M41.0576 5.64062H38.2856C38.0211 5.64062 37.7726 5.7716 37.6227 5.99072L33.7994 11.604L32.1788 6.20985C32.0769 5.87234 31.7644 5.64062 31.4106 5.64062H28.6866C28.3555 5.64062 28.1256 5.96302 28.2309 6.27365L31.2843 15.2049L28.4137 19.244C28.1879 19.5622 28.4153 19.9996 28.8053 19.9996H31.574C31.8368 19.9996 32.0828 19.872 32.2319 19.6571L41.4519 6.39203C41.6725 6.07468 41.446 5.64062 41.0576 5.64062Z" fill="white"/>
<path d="M50.7069 0H44.7634C44.3576 0 44.0117 0.293704 43.9483 0.692795L41.5448 15.8419C41.497 16.1407 41.7299 16.4103 42.0332 16.4103H45.0831C45.3664 16.4103 45.6088 16.2047 45.6531 15.9248L46.3353 11.6307C46.3978 11.2307 46.7445 10.937 47.1503 10.937H49.0307C52.9461 10.937 55.2045 9.05385 55.7953 5.32208C56.0621 3.68944 55.8058 2.40664 55.0368 1.50825C54.193 0.521756 52.6959 0 50.7069 0ZM51.3925 5.53286C51.0683 7.65271 49.4391 7.65271 47.8628 7.65271H46.967L47.5969 3.69375C47.6343 3.45447 47.8411 3.27825 48.0853 3.27825H48.4963C49.5686 3.27825 50.5817 3.27825 51.1048 3.88639C51.4168 4.2492 51.5115 4.78823 51.3925 5.53286Z" fill="white"/>
<path d="M68.2248 5.39051H65.4026C65.1603 5.39051 64.9542 5.56378 64.918 5.79905L64.7929 6.57707L64.5946 6.29508C63.9833 5.42109 62.6209 5.12891 61.2602 5.12891C58.1396 5.12891 55.4752 7.457 54.9561 10.7228C54.687 12.3519 55.069 13.9096 56.0072 14.9959C56.8695 15.9948 58.0991 16.411 59.5641 16.411C62.0785 16.411 63.4728 14.8184 63.4728 14.8184L63.3469 15.5913C63.2995 15.8869 63.5306 16.1519 63.8332 16.1519H66.3761C66.7788 16.1519 67.122 15.8631 67.1849 15.4699L68.712 5.94939C68.7586 5.65636 68.5275 5.39051 68.2248 5.39051ZM64.2885 10.8043C64.0178 12.3935 62.7355 13.4603 61.1024 13.4603C60.2841 13.4603 59.627 13.2012 59.2062 12.7103C58.7889 12.2228 58.632 11.5288 58.763 10.7559C59.0191 9.18035 60.3194 8.07873 61.9276 8.07873C62.7295 8.07873 63.3814 8.34119 63.8108 8.83636C64.2428 9.33664 64.4135 10.0348 64.2885 10.8043Z" fill="white"/>
<path d="M71.1553 0.416346L68.7242 15.8419C68.6766 16.1408 68.9087 16.4103 69.211 16.4103H71.6551C72.0613 16.4103 72.406 16.1166 72.4683 15.7166L74.8656 0.569237C74.9133 0.270366 74.6812 0 74.3789 0H71.6421C71.4004 0.000863789 71.1926 0.177077 71.1553 0.416346Z" fill="white"/>
</svg>
