<svg width="44" height="20" viewBox="0 0 44 20" fill="none" xmlns="http://www.w3.org/2000/svg">
<path d="M21.373 11.4789H22.0554V13.0083H22.5485L23.4332 11.4789H24.1792L23.1173 13.2739V13.2864L24.2425 15.2452H23.4713L22.561 13.6019H22.0684V15.2452H21.3856V11.4785H21.373V11.4789ZM25.7719 12.4776C26.5929 12.4776 27.2632 13.0716 27.2632 13.893C27.2632 14.7274 26.6059 15.3089 25.7844 15.3089C24.9626 15.3089 24.3053 14.7274 24.3053 13.893C24.2928 13.059 24.95 12.4776 25.7719 12.4776ZM27.7939 12.5404H28.4386V14.6642H29.2856V12.5408H29.9299V14.6642H30.7769V12.5408H31.4215V15.2452H27.819V12.5404H27.7939ZM33.3304 12.4776C34.1012 12.4776 34.531 13.0464 34.531 13.7543C34.5289 13.8432 34.5205 13.9318 34.5059 14.0195H32.6477C32.6858 14.487 33.0523 14.74 33.4569 14.74C33.7347 14.74 34.0128 14.6135 34.2277 14.4493L34.4933 14.9298C34.2152 15.1694 33.7979 15.3214 33.4063 15.3214C32.5086 15.3214 31.9527 14.6768 31.9527 13.9056C31.9527 13.059 32.5212 12.4776 33.3304 12.4776ZM34.8469 14.6768C35.1757 14.6261 35.4157 14.3483 35.4157 13.3874V12.5408H37.3879V15.2452H36.7177V13.0837H36.0604V13.387C36.0604 14.5624 35.7445 15.2452 34.8469 15.2704V14.6764V14.6768ZM39.3089 12.4776C40.0797 12.4776 40.5095 13.0464 40.5095 13.7543C40.5074 13.8432 40.499 13.9318 40.4844 14.0195H38.6262C38.6643 14.487 39.0308 14.74 39.4354 14.74C39.7132 14.74 39.9913 14.6135 40.2062 14.4493L40.4718 14.9298C40.1937 15.1694 39.7764 15.3214 39.3848 15.3214C38.4875 15.3214 37.9312 14.6768 37.9312 13.9056C37.9312 13.059 38.5 12.4776 39.3089 12.4776ZM41.0658 12.5404H41.7356V13.5772H42.0644L42.7217 12.5408H43.4673L42.6078 13.8298V13.8427L43.5683 15.2452H42.7849L42.077 14.146H41.7234V15.2452H41.0528V12.5404H41.0654H41.0658ZM25.7719 14.7274C26.2142 14.7274 26.5808 14.3861 26.5808 13.8804C26.5808 13.3874 26.2142 13.0334 25.7715 13.0334C25.3295 13.0334 24.9755 13.3752 24.9755 13.8804C24.9755 14.3861 25.3291 14.7274 25.7719 14.7274ZM33.8486 13.552C33.8486 13.1981 33.6082 12.9832 33.3049 12.9832C32.9639 12.9832 32.7109 13.2106 32.6477 13.552H33.8486ZM39.8271 13.552C39.8271 13.1981 39.5871 12.9832 39.2838 12.9832C38.942 12.9832 38.6894 13.2106 38.6262 13.552H39.8271Z" fill="#fff"/>
<path d="M30.8158 3.27614V9.65928C30.8164 9.68264 30.8122 9.70587 30.8035 9.72757C30.7948 9.74926 30.7818 9.76896 30.7652 9.78548C30.7487 9.80201 30.729 9.81501 30.7073 9.8237C30.6856 9.8324 30.6624 9.8366 30.639 9.83607H29.3371C29.3137 9.8366 29.2905 9.8324 29.2688 9.8237C29.2471 9.81501 29.2274 9.80201 29.2109 9.78548C29.1944 9.76896 29.1814 9.74926 29.1727 9.72757C29.164 9.70587 29.1598 9.68264 29.1603 9.65928V3.27614C29.1598 3.25278 29.164 3.22955 29.1727 3.20785C29.1814 3.18616 29.1944 3.16646 29.2109 3.14994C29.2274 3.13341 29.2471 3.12041 29.2688 3.11172C29.2905 3.10302 29.3137 3.09882 29.3371 3.09935H30.639C30.6624 3.09882 30.6856 3.10302 30.7073 3.11172C30.729 3.12041 30.7487 3.13341 30.7652 3.14994C30.7818 3.16646 30.7948 3.18616 30.8035 3.20785C30.8122 3.22955 30.8164 3.25278 30.8158 3.27614ZM40.9782 3.09935C41.0289 3.09935 41.0922 3.1245 41.155 3.17517C41.1931 3.21289 41.1931 3.27614 41.1806 3.32682L39.0316 9.72253C39.0186 9.75563 38.996 9.78412 38.9668 9.80439C38.9376 9.82467 38.903 9.83583 38.8674 9.83646H37.7046C37.6287 9.83646 37.5655 9.79835 37.5404 9.72253L36.2883 5.99392L35.0371 9.72214C35.024 9.75524 35.0015 9.78372 34.9722 9.804C34.943 9.82428 34.9084 9.83544 34.8729 9.83607H33.71C33.6342 9.83607 33.5709 9.79835 33.5458 9.72214L31.3969 3.32642C31.3843 3.27614 31.3843 3.22546 31.422 3.17517C31.4475 3.1245 31.5108 3.09935 31.5611 3.09935H33.0146C33.0905 3.09935 33.1537 3.14964 33.1792 3.22546L34.3291 7.00475L35.5934 3.22546C35.6064 3.19236 35.629 3.16388 35.6582 3.1436C35.6874 3.12332 35.722 3.11216 35.7576 3.11153H36.7814C36.8572 3.11153 36.9204 3.14964 36.9456 3.22546L38.2098 7.00475L39.3601 3.22546C39.3704 3.18966 39.3919 3.1581 39.4214 3.13541C39.451 3.11271 39.487 3.10008 39.5243 3.09935H40.9779H40.9782ZM43.1775 3.09935C43.2659 3.09935 43.3417 3.17517 43.3542 3.27614V9.65928C43.3548 9.68264 43.3506 9.70587 43.3419 9.72757C43.3332 9.74926 43.3202 9.76896 43.3037 9.78548C43.2871 9.80201 43.2674 9.81501 43.2457 9.8237C43.2241 9.8324 43.2008 9.8366 43.1775 9.83607H41.8755C41.8522 9.8366 41.8289 9.8324 41.8073 9.8237C41.7856 9.81501 41.7659 9.80201 41.7493 9.78548C41.7328 9.76896 41.7198 9.74926 41.7111 9.72757C41.7024 9.70587 41.6982 9.68264 41.6987 9.65928V3.27614C41.6982 3.25278 41.7024 3.22955 41.7111 3.20785C41.7198 3.18616 41.7328 3.16646 41.7493 3.14994C41.7659 3.13341 41.7856 3.12041 41.8073 3.11172C41.8289 3.10302 41.8522 3.09882 41.8755 3.09935H43.1775ZM28.4017 9.609C28.4775 9.69739 28.4143 9.8235 28.3004 9.8235H26.7077C26.6764 9.82434 26.6452 9.81794 26.6167 9.80479C26.5883 9.79164 26.5632 9.77209 26.5435 9.74767L26.2783 9.41925C25.722 9.77282 25.0644 9.9881 24.3694 9.9881C22.4232 9.9881 20.8431 8.40803 20.8431 6.46142C20.8431 4.51482 22.4232 2.93475 24.3694 2.93475C26.316 2.93475 27.8961 4.51482 27.8961 6.46142C27.8961 7.15678 27.6938 7.81403 27.3398 8.36992L28.4017 9.6086V9.609ZM15.0917 12.7055C15.4205 12.832 15.547 13.3246 15.5722 13.5395C15.6229 13.9316 15.5093 14.0832 15.3828 14.0832C15.2563 14.0832 15.0791 13.9316 14.8898 13.6283C14.7 13.3246 14.6242 12.9836 14.7256 12.8065C14.7884 12.6925 14.9275 12.6422 15.0921 12.7055H15.0917ZM13.1706 14.1339C13.373 14.1339 13.6004 14.2223 13.8027 14.3991C14.1944 14.7279 14.3084 15.107 14.106 15.3852C13.9921 15.5242 13.8027 15.6126 13.5879 15.6126C13.373 15.6126 13.1455 15.5368 12.9939 15.3977C12.6399 15.0945 12.5389 14.5885 12.766 14.3107C12.8548 14.1968 12.9939 14.1339 13.1706 14.1339ZM8.74707 17.7867C3.9436 17.7867 0.0507812 13.8935 0.0507812 9.09042C0.0507812 4.28735 3.944 0.394531 8.74667 0.394531C13.5497 0.394531 17.443 4.28775 17.443 9.09042C17.443 10.7208 16.988 12.2506 16.2172 13.5525C16.1917 13.5902 16.1285 13.5776 16.1159 13.527C15.8126 11.391 14.5107 10.2152 12.6147 9.8616C12.4501 9.83607 12.425 9.7351 12.6399 9.70996C13.2213 9.65928 14.0428 9.67185 14.4726 9.74767C14.4977 9.53278 14.5107 9.30532 14.5107 9.07785C14.5107 5.90514 11.932 3.32642 8.75925 3.32642C5.58692 3.32642 3.00821 5.90514 3.00821 9.07785C3.00821 12.2506 5.58692 14.8293 8.75964 14.8293H9.02482C8.93473 14.3161 8.89656 13.7952 8.91089 13.2744C8.92385 12.9204 8.99967 12.8697 9.15132 13.1479C9.94764 14.5256 11.0854 15.7643 13.3097 16.2573C15.1298 16.662 16.9499 17.1295 18.9091 19.6194C19.0859 19.8343 18.8207 20.0617 18.6184 19.885C16.6215 18.1151 14.8014 17.5337 13.1455 17.5337C11.2873 17.5467 10.0235 17.7867 8.74667 17.7867H8.74707ZM25.2416 8.19314L24.5462 7.34614C24.4708 7.25775 24.534 7.11867 24.6476 7.11867H26.1137C26.1895 6.91635 26.2276 6.68889 26.2276 6.46142C26.2276 5.4125 25.4439 4.50225 24.3694 4.50225C23.2954 4.50225 22.5112 5.4125 22.5112 6.46142C22.5112 7.51035 23.2954 8.40803 24.3694 8.40803C24.6727 8.4206 24.9764 8.33221 25.2416 8.19314Z" fill="#fff"/>
</svg>
