<svg width="24" height="14" viewBox="0 0 24 14" fill="none" xmlns="http://www.w3.org/2000/svg">
<path d="M24 0H0V6.99946H24V0Z" fill="#DA1841"/>
<path d="M24 7H0V13.9995H24V7Z" fill="white"/>
<path d="M7.20173 3.49803C7.20237 4.01914 7.04842 4.52872 6.75938 4.96232C6.47033 5.39591 6.05917 5.73403 5.57791 5.93389C5.09665 6.13375 4.56693 6.18637 4.05576 6.0851C3.54459 5.98383 3.07494 5.73321 2.70624 5.36496C2.33753 4.99671 2.08634 4.52737 1.98444 4.01633C1.88255 3.50528 1.93452 2.97549 2.13379 2.49399C2.33306 2.01249 2.67068 1.60091 3.10392 1.31133C3.53716 1.02176 4.04655 0.867188 4.56766 0.867188C5.2657 0.867187 5.9352 1.14426 6.42909 1.63755C6.92298 2.13084 7.20087 2.79999 7.20173 3.49803Z" fill="white"/>
<path d="M8.04437 3.49748C8.04501 3.99003 7.8995 4.47169 7.62625 4.88149C7.353 5.2913 6.96431 5.61082 6.50937 5.79961C6.05444 5.98839 5.55372 6.03796 5.07061 5.94202C4.58749 5.84609 4.1437 5.60896 3.79542 5.26067C3.44713 4.91239 3.21001 4.4686 3.11408 3.98549C3.01814 3.50237 3.0677 3.00165 3.25649 2.54672C3.44527 2.09178 3.76479 1.70309 4.1746 1.42984C4.5844 1.15659 5.06607 1.01108 5.55861 1.01172C6.21788 1.01172 6.85014 1.27361 7.31631 1.73978C7.78248 2.20595 8.04437 2.83821 8.04437 3.49748Z" fill="#DA1841"/>
<path d="M4.89397 3.56175L4.53932 3.2877L4.18144 3.56175L4.31686 3.12004L3.95898 2.846L4.40068 2.84922L4.53609 2.4043L4.67473 2.84922L5.11643 2.846L4.75855 3.12004L4.89397 3.56175Z" fill="white"/>
<path d="M7.70188 3.56175L7.34401 3.2877L6.98613 3.56175L7.12154 3.12004L6.76367 2.846L7.20537 2.84922L7.34078 2.4043L7.47942 2.84922L7.92111 2.846L7.56324 3.12004L7.70188 3.56175Z" fill="white"/>
<path d="M6.30021 2.52072L5.94234 2.24667L5.58447 2.52072L5.72311 2.07903L5.36523 1.8082H5.80693L5.94234 1.36328L6.07775 1.8082L6.51945 1.80498L6.16158 2.07903L6.30021 2.52072Z" fill="white"/>
<path d="M5.41936 5.22971L5.06148 4.95566L4.70361 5.22971L4.84225 4.78801L4.48438 4.51396L4.92607 4.51719L5.06148 4.07227L5.19689 4.51719L5.64182 4.51396L5.28072 4.78801L5.41936 5.22971Z" fill="white"/>
<path d="M7.17649 5.22971L6.81862 4.95566L6.46074 5.22971L6.59938 4.78801L6.23828 4.51396L6.6832 4.51719L6.81862 4.07227L6.95403 4.51719L7.39573 4.51396L7.03785 4.78801L7.17649 5.22971Z" fill="white"/>
</svg>
