<svg width="24" height="24" viewBox="0 0 24 24" fill="none" xmlns="http://www.w3.org/2000/svg">
<path fill-rule="evenodd" clip-rule="evenodd" d="M0 12C0 5.37258 5.37258 0 12 0C18.6274 0 24 5.37258 24 12C24 18.6274 18.6274 24 12 24C5.37258 24 0 18.6274 0 12ZM9.87072 4C8.98881 4 8.27398 4.71643 8.27398 5.59995C8.27377 5.80984 8.31491 6.01773 8.39504 6.21173C8.47517 6.40573 8.59272 6.58205 8.74099 6.73062C8.88926 6.87918 9.06535 6.99709 9.25919 7.07761C9.45302 7.15813 9.66083 7.19968 9.87072 7.19989H11.4677V5.59995C11.4681 5.17602 11.3 4.7693 11.0005 4.46926C10.7011 4.16922 10.2947 4.00043 9.87072 4ZM9.87072 8.26653H5.61249C4.73058 8.26653 4.01575 8.98296 4.01575 9.86674C4.01575 10.7503 4.73058 11.4667 5.61249 11.4667H9.87099C10.7526 11.4667 11.4677 10.7503 11.4677 9.86674C11.4677 8.98296 10.7526 8.26653 9.87072 8.26653ZM18.3872 8.26652C19.2691 8.26652 19.9842 8.98296 19.9842 9.86674C19.9846 10.2907 19.8165 10.6974 19.517 10.9974C19.2175 11.2975 18.8111 11.4663 18.3872 11.4667H16.7905V9.86674C16.7905 8.98296 17.5053 8.26652 18.3872 8.26652ZM15.726 5.59995V9.86674V9.867C15.7263 10.2909 15.5583 10.6976 15.2588 10.9977C14.9593 11.2977 14.5529 11.4665 14.129 11.467C13.2471 11.467 12.5322 10.7505 12.5322 9.86647V5.59995C12.5322 4.71643 13.2471 4 14.129 4C14.5529 4.00043 14.9593 4.16922 15.2588 4.46926C15.5583 4.7693 15.7263 5.17601 15.726 5.59995ZM14.129 20.0001C14.5529 19.9997 14.9593 19.8309 15.2588 19.5308C15.5583 19.2308 15.7263 18.8241 15.726 18.4002C15.7263 17.9762 15.5583 17.5695 15.2588 17.2695C14.9593 16.9694 14.5529 16.8006 14.129 16.8002H12.5322V18.4002C12.5322 19.2837 13.2471 20.0001 14.129 20.0001ZM14.129 15.7336H18.3875C19.2691 15.7336 19.9842 15.0172 19.9842 14.1334C19.9846 13.7094 19.8165 13.3027 19.517 13.0027C19.2175 12.7026 18.8111 12.5339 18.3872 12.5334H14.129C13.2471 12.5334 12.5322 13.2499 12.5322 14.1334C12.532 14.3433 12.5731 14.5512 12.6533 14.7452C12.7334 14.9392 12.851 15.1155 12.9992 15.264C13.1475 15.4126 13.3236 15.5305 13.5174 15.611C13.7113 15.6916 13.9191 15.7331 14.129 15.7333V15.7336ZM4.1368 14.7452C4.05667 14.5512 4.01554 14.3433 4.01575 14.1334C4.01575 13.2499 4.73058 12.5334 5.61249 12.5334H7.20949V14.1334C7.20985 14.5573 7.0418 14.964 6.74231 15.2641C6.44282 15.5641 6.03642 15.7329 5.61249 15.7333C5.40259 15.7331 5.19479 15.6916 5.00095 15.611C4.80711 15.5305 4.63103 15.4126 4.48276 15.264C4.33449 15.1155 4.21693 14.9392 4.1368 14.7452ZM8.27398 18.3999V14.1334C8.27398 13.2499 8.98882 12.5334 9.87072 12.5334C10.0806 12.5336 10.2885 12.5751 10.4823 12.6556C10.6762 12.7361 10.8523 12.854 11.0006 13.0026C11.1489 13.1512 11.2665 13.3275 11.3467 13.5215C11.4268 13.7155 11.4679 13.9235 11.4677 14.1334V18.4002C11.4681 18.8241 11.3 19.2308 11.0005 19.5308C10.7011 19.8309 10.2947 19.9997 9.87072 20.0001C8.98882 20.0001 8.27398 19.2837 8.27398 18.3999Z" fill="#FF8311"/>
</svg>
