<svg width="24" height="24" viewBox="0 0 24 24" fill="none" xmlns="http://www.w3.org/2000/svg">
<g id="Twitter">
<g id="Twitter_2">
<path id="Subtract" fill-rule="evenodd" clip-rule="evenodd" d="M12 0C5.37258 0 0 5.37258 0 12C0 18.6274 5.37258 24 12 24C18.6274 24 24 18.6274 24 12C24 5.37258 18.6274 0 12 0ZM17.8812 9.78125V9.40625C18.4625 8.99375 18.95 8.46875 19.325 7.86875C18.8 8.1125 18.2375 8.2625 17.6375 8.3375C18.2375 7.9625 18.7062 7.4 18.9312 6.70625C18.35 7.04375 17.7312 7.2875 17.0562 7.41875C16.5312 6.85625 15.7625 6.5 14.9187 6.5C13.2875 6.5 11.975 7.8125 11.975 9.44375C11.975 9.66875 11.9937 9.9125 12.05 10.1187C9.6125 9.9875 7.4375 8.825 5.99375 7.04375C5.75 7.475 5.6 7.98125 5.6 8.525C5.6 9.55625 6.125 10.4562 6.9125 10.9812C6.425 10.9625 5.975 10.8312 5.58125 10.6062V10.6437C5.58125 12.0687 6.59375 13.25 7.94375 13.5125C7.7 13.5875 7.4375 13.625 7.175 13.625C6.96875 13.625 6.8 13.6062 6.6125 13.5687C6.96875 14.7312 8.05625 15.5937 9.35 15.6125C8.3375 16.4 7.0625 16.8687 5.69375 16.8687C5.46875 16.8687 5.225 16.85 5 16.8312C6.3125 17.6562 7.85 18.1437 9.51875 18.1437C14.9187 18.1437 17.8812 13.6625 17.8812 9.78125Z" fill="white"/>
</g>
</g>
</svg>
