<svg width="67" height="20" viewBox="0 0 67 20" fill="none" xmlns="http://www.w3.org/2000/svg">
<g>
<path d="M28.8887 19.7101H23.4883L26.8661 0.349609H32.2663L28.8887 19.7101Z" fill="white"/>
<path d="M48.466 0.824254C47.4008 0.432522 45.7113 0 43.6222 0C38.2891 0 34.5336 2.63619 34.5105 6.40515C34.4662 9.18587 37.1994 10.7304 39.2436 11.6575C41.3329 12.605 42.0432 13.2234 42.0432 14.0679C42.0219 15.3649 40.3548 15.9628 38.8 15.9628C36.6439 15.9628 35.4886 15.6545 33.733 14.9329L33.0218 14.6236L32.2661 18.9696C33.5327 19.5045 35.8663 19.9792 38.2891 20C43.9557 20 47.6448 17.4046 47.6885 13.3882C47.71 11.1842 46.2668 9.49548 43.1553 8.11552C41.2665 7.22967 40.1097 6.63236 40.1097 5.72598C40.1319 4.902 41.0881 4.05803 43.2203 4.05803C44.976 4.0167 46.2659 4.40788 47.2431 4.79934L47.7316 5.00493L48.466 0.824254Z" fill="white"/>
<path d="M55.6435 12.8514C56.0882 11.7392 57.7996 7.43447 57.7996 7.43447C57.7772 7.47581 58.2435 6.3017 58.5101 5.58093L58.8876 7.24914C58.8876 7.24914 59.9102 11.8834 60.1323 12.8514C59.2883 12.8514 56.7102 12.8514 55.6435 12.8514ZM62.3097 0.349609H58.1324C56.8443 0.349609 55.8656 0.699459 55.3098 1.95596L47.2881 19.7099H52.9546C52.9546 19.7099 53.8875 17.3203 54.0881 16.8057C54.7097 16.8057 60.2221 16.8057 61.0218 16.8057C61.1769 17.4854 61.6662 19.7099 61.6662 19.7099H66.6665L62.3097 0.349609Z" fill="white"/>
<path d="M18.9776 0.349609L13.6887 13.5516L13.1108 10.8741C12.133 7.78459 9.06642 4.4279 5.64429 2.75886L10.4887 19.6896H16.1995L24.6881 0.349609H18.9776Z" fill="white"/>
<path d="M8.77771 0.349609H0.0888901L0 0.740794C6.77782 2.34742 11.2666 6.22013 13.1109 10.8749L11.2221 1.97704C10.9111 0.740521 9.95544 0.390398 8.77771 0.349609Z" fill="white"/>
</g>
</svg>
