<svg width="105" height="24" viewBox="0 0 105 24" fill="none" xmlns="http://www.w3.org/2000/svg">
<g>
<path d="M12.1274 0C14.0287 0 15.8377 0.435606 17.461 1.21483C17.7156 1.32968 17.9718 1.46715 18.2256 1.60473L17.1125 2.59068L15.4438 0.871335L12.5686 3.39275L10.8754 1.58153L5.58826 6.2811L8.97327 9.97187L7.6518 11.1178L10.9915 14.8085L9.66988 15.954L14.4471 21.2037L17.2745 18.6361L19.7336 21.3877C19.2462 21.7545 18.7129 22.122 18.1339 22.4424C16.3712 23.428 14.3303 24 12.1508 24C5.44863 24 7.68055e-05 18.614 7.68055e-05 11.9897C-0.0235914 5.41011 5.42592 0 12.1274 0ZM9.9009 11.2556L12.7996 8.68801L15.3973 11.5534L12.498 14.1207L9.9009 11.2556ZM11.9653 16.2073L14.8404 13.6169L17.461 16.4821L14.5622 19.0498L11.9653 16.2073ZM7.83831 6.3731L10.7362 3.80551L13.3333 6.67088L10.4345 9.23835L7.83831 6.3731ZM13.1475 4.99724L15.3042 3.07176L17.2526 5.20374L15.0958 7.15197L13.1475 4.99724ZM16.9973 13.8228L19.1533 11.8972L21.1015 14.0515L18.9447 15.9783L16.9973 13.8228ZM18.8985 18.1558L21.0553 16.2299L23.002 18.3617L20.846 20.3097L18.8985 18.1558ZM19.7798 8.2524L21.2173 6.96854L22.5155 8.39034L21.0782 9.67373L19.7798 8.2524ZM17.9247 4.01152L19.3623 2.70517L20.6614 4.14911L19.2227 5.43284L17.9247 4.01152ZM21.6115 12.4936L23.049 11.2099L24.3707 12.6312L22.9104 13.9146L21.6115 12.4936ZM15.142 9.30715L17.2989 7.38154L19.2463 9.51306L17.0903 11.439L15.142 9.30715Z" fill="white"/>
<path d="M36.7315 9.30443H36.6221L34.5687 17.1037H32.8903L30.3708 6.02344H32.1123L33.8541 14.2912H33.9629L35.9842 6.02344H37.3687L39.5304 14.2912H39.6392L41.2257 6.02344H43.0453L40.5252 17.1037H38.8455L36.7315 9.30443Z" fill="white"/>
<path d="M45.2545 12.3869H48.815C48.7378 10.7465 47.9442 10.0907 47.1048 10.0907C46.1562 10.0907 45.4248 10.825 45.2545 12.3869ZM50.059 15.3259V16.5138C49.3593 16.92 48.4267 17.2328 47.3064 17.2328C44.6945 17.2328 43.6216 15.6075 43.6216 13.1385C43.6216 10.7621 44.8187 9.04297 47.1514 9.04297C49.0948 9.04297 50.2929 10.3097 50.2929 12.8564V13.4348H45.2233C45.2233 15.3095 45.9849 16.138 47.5872 16.138C48.4267 16.138 49.2043 15.8406 50.059 15.3259Z" fill="white"/>
<path d="M53.9103 15.9792C54.408 16.198 54.9527 16.2303 55.3421 16.2303C56.4926 16.2303 57.3625 15.5104 57.3625 12.9793C57.3625 10.9946 56.6473 10.3538 55.6058 10.3538C54.9833 10.3538 54.5325 10.5262 53.9103 10.8694V15.9792H53.9103ZM53.9266 9.71322C54.392 9.464 55.185 9.13467 56.0251 9.13467C57.9536 9.13467 58.9957 10.4786 58.9957 12.9793C58.9957 15.902 57.5958 17.3241 55.3421 17.3241C54.5173 17.3241 53.2422 17.0583 52.3086 16.5571V5.64991L53.9267 5.25977V9.71322H53.9266Z" fill="white"/>
<path d="M65.9948 14.7517H66.0727L69.3999 6.01562H71.3293V17.0967H69.6498V9.06333H69.5096L66.3367 17.0967H65.3424L62.1688 9.25114H62.0294V17.0967H60.6296V6.01562H62.5119L65.9948 14.7517Z" fill="white"/>
<path d="M78.1911 13.138C78.1911 11.0284 77.3365 10.1381 76.279 10.1381C75.253 10.1381 74.3659 11.0284 74.3659 13.138C74.3659 15.2793 75.1755 16.138 76.279 16.138C77.3826 16.138 78.1911 15.2793 78.1911 13.138ZM72.7336 13.138C72.7336 10.4022 74.2269 9.04297 76.279 9.04297C78.3324 9.04297 79.8248 10.4022 79.8248 13.138C79.8248 15.8099 78.4098 17.2328 76.279 17.2328C74.1487 17.2328 72.7336 15.8099 72.7336 13.138Z" fill="white"/>
<path d="M81.0547 10.2003C81.7544 9.77767 83.2324 9.04297 85.0203 9.04297C86.8862 9.04297 87.5848 9.77767 87.5848 11.3869V17.0451H85.9686V11.7468C85.9686 10.5125 85.3632 10.2937 84.5691 10.2937C83.9478 10.2937 83.1537 10.5754 82.672 10.8567V17.0451H81.0547V10.2003H81.0547Z" fill="white"/>
<path d="M91.0079 12.3869H94.5687C94.4922 10.7465 93.6982 10.0907 92.8584 10.0907C91.9096 10.0907 91.1797 10.825 91.0079 12.3869ZM95.8125 15.3259V16.5138C95.1131 16.92 94.18 17.2328 93.0602 17.2328C90.4492 17.2328 89.3755 15.6075 89.3755 13.1385C89.3755 10.7621 90.5722 9.04297 92.9051 9.04297C94.8496 9.04297 96.0476 10.3097 96.0476 12.8564V13.4348H90.9774C90.9774 15.3095 91.7394 16.138 93.3412 16.138C94.18 16.138 94.9588 15.8406 95.8125 15.3259Z" fill="white"/>
<path d="M102.507 9.04297H104.171L101.356 16.856C100.578 19.0128 99.6301 20.1381 97.8421 20.1381V18.8575C98.9002 18.8575 99.5523 18.0132 99.9264 16.856L96.9404 9.04297H98.6513L100.642 14.794H100.735L102.507 9.04297Z" fill="white"/>
</g>
</svg>
