<svg width="92" height="18" viewBox="0 0 92 18" fill="none" xmlns="http://www.w3.org/2000/svg">
<path d="M5.91889 1.40986H5.06568C4.74742 1.40986 4.43593 1.46854 4.12895 1.58592C3.82424 1.70555 3.55338 1.89289 3.31863 2.15021C3.08163 2.40753 2.89202 2.74836 2.74757 3.17271C2.60085 3.59705 2.52862 4.12297 2.52862 4.74821C2.52862 5.34636 2.59408 5.84745 2.72499 6.25149C2.85817 6.65552 3.03874 6.98281 3.26671 7.2311C3.49469 7.48165 3.76555 7.65996 4.07704 7.76379C4.39079 7.86762 4.72033 7.91954 5.06568 7.91954H5.91889V1.40986ZM4.58716 9.25127L2.0501 14.9506H0.199219L2.98683 8.85626C2.3345 8.52446 1.80633 8.03465 1.40455 7.3891C1.00277 6.74581 0.801884 5.86777 0.801884 4.7595C0.801884 3.98077 0.916999 3.29911 1.14497 2.70999C1.37295 2.12086 1.6867 1.63106 2.0817 1.24283C2.47671 0.854592 2.93717 0.563416 3.46535 0.3693C3.99127 0.175183 4.54653 0.078125 5.12888 0.078125H7.52148V14.9506H5.91889V9.25127H4.58716Z" fill="#fff"/>
<path d="M42.2403 15.098C41.1162 15.098 40.2359 14.6511 39.5994 13.755C38.9606 12.8611 38.6423 11.5136 38.6423 9.71014C38.6423 8.89078 38.7213 8.15043 38.8816 7.48456C39.0396 6.8187 39.2766 6.2544 39.5881 5.78943C39.8996 5.32445 40.2878 4.9633 40.7528 4.70598C41.2178 4.45092 41.755 4.32227 42.3644 4.32227C42.8362 4.32227 43.2176 4.37418 43.5088 4.47801C43.8 4.58184 44.0641 4.7105 44.3011 4.86399L44.0708 6.40338C43.8496 6.20249 43.5878 6.02869 43.2921 5.87746C42.9919 5.72848 42.6782 5.654 42.3441 5.654C41.7618 5.654 41.2832 5.98129 40.9085 6.63587C40.5339 7.2927 40.3465 8.28812 40.3465 9.62662C40.3465 10.9516 40.5045 11.9718 40.816 12.6896C41.1275 13.4074 41.6173 13.7663 42.2832 13.7663C42.6849 13.7663 43.0303 13.6986 43.3215 13.5631C43.6126 13.4277 43.8564 13.272 44.0505 13.1004L44.4252 14.308C44.1476 14.5427 43.8338 14.7346 43.4885 14.8791C43.1431 15.0258 42.7256 15.098 42.2403 15.098ZM33.9 9.73045V14.9513H32.2771V4.46898H33.9V9.31513L36.4168 4.46898H38.06L35.4597 9.39865L38.4347 14.9513H36.6651L33.9 9.73045ZM27.7199 5.654C27.221 5.654 26.8689 5.93389 26.659 6.49592C26.4514 7.05796 26.3204 7.8096 26.264 8.75309H28.9478C28.9478 8.30843 28.9275 7.89763 28.8846 7.51616C28.844 7.1347 28.7785 6.80515 28.6882 6.52752C28.5979 6.24989 28.4715 6.03546 28.3135 5.88197C28.1533 5.73074 27.9569 5.654 27.7199 5.654ZM30.6339 14.2448C30.2998 14.5089 29.9184 14.7165 29.4895 14.87C29.0584 15.0213 28.5799 15.098 28.0539 15.098C26.9728 15.098 26.1195 14.6782 25.4943 13.8385C24.8713 13.0011 24.5598 11.7687 24.5598 10.1458C24.5598 9.30159 24.6163 8.52512 24.7359 7.81637C24.8533 7.10987 25.0406 6.49592 25.2979 5.97677C25.553 5.45537 25.8825 5.05133 26.2843 4.76016C26.6861 4.46898 27.1669 4.32227 27.7199 4.32227C28.151 4.32227 28.546 4.40804 28.9072 4.58184C29.266 4.75564 29.573 5.03553 29.8213 5.42377C30.0719 5.812 30.266 6.31535 30.4037 6.93381C30.5413 7.55002 30.6113 8.30166 30.6113 9.19099V10.0848H26.2437C26.2437 11.2766 26.4062 12.1795 26.7335 12.7889C27.0585 13.3984 27.5461 13.7031 28.1984 13.7031C28.6566 13.7031 29.0629 13.6241 29.415 13.4638C29.7694 13.3058 30.0515 13.1501 30.2592 12.9966L30.6339 14.2448ZM21.147 5.79846H19.3367V5.9858C19.3367 6.53881 19.3277 7.14373 19.3074 7.80057C19.2848 8.4574 19.2397 9.12553 19.172 9.80268C19.102 10.4821 19.0049 11.148 18.8808 11.8048C18.7544 12.4639 18.5806 13.0688 18.3594 13.6218H21.147V5.79846ZM23.5802 17.0121H22.1244V14.9513H17.6326V17.0121H16.1767V13.6218H16.82C17.057 13.0666 17.2443 12.4526 17.382 11.78C17.5197 11.1073 17.6281 10.4144 17.7048 9.69885C17.7793 8.98558 17.829 8.25652 17.8493 7.51616C17.8718 6.77355 17.8809 6.05577 17.8809 5.36282V4.46898H22.7496V13.6218H23.5802L23.5802 17.0121ZM15.24 4.46898V14.9513H13.6374V10.2519H11.2245V14.9513H9.60156V4.46898H11.2245V8.92013H13.6374V4.46898H15.24Z" fill="#fff"/>
<path d="M54.3458 0.911022H51.1203C51.0932 2.81607 51.0503 4.48864 50.9961 5.92872C50.9397 7.36879 50.872 8.63055 50.7885 9.71625C50.6914 10.8426 50.556 11.7725 50.3822 12.5016C50.2084 13.2329 49.9827 13.7724 49.705 14.12H54.3458V0.911022ZM55.4473 14.9506H49.082L48.9376 17.4268H48.125V14.12H48.5629C48.9218 13.813 49.1994 13.2713 49.3935 12.4948C49.5877 11.7161 49.7411 10.7929 49.8517 9.72302C49.9623 8.61249 50.0391 7.2469 50.0797 5.63077C50.1226 4.01238 50.1565 2.1615 50.1835 0.078125H55.3841V14.12H56.4043V17.4268H55.594L55.4473 14.9506Z" fill="#fff"/>
<path d="M60.5057 5.09071C59.9505 5.09071 59.4742 5.43154 59.0792 6.11547C58.6842 6.79713 58.4652 7.7948 58.4246 9.10622H62.2302C62.3137 7.71129 62.1783 6.69556 61.8262 6.05452C61.4718 5.41123 61.0316 5.09071 60.5057 5.09071ZM58.4043 9.87591C58.4314 11.325 58.6323 12.4288 59.007 13.1872C59.3816 13.9479 59.9505 14.3271 60.7134 14.3271C61.0587 14.3271 61.3634 14.2706 61.6275 14.1578C61.8916 14.0449 62.1128 13.9095 62.2934 13.7537C62.501 13.6002 62.6816 13.4084 62.8351 13.1827L63.1466 13.9727C62.9796 14.2097 62.7787 14.4106 62.5439 14.5776C62.3363 14.7288 62.079 14.8643 61.7742 14.9816C61.4695 15.099 61.1084 15.16 60.6908 15.16C59.5825 15.16 58.7632 14.6814 58.2373 13.7244C57.7114 12.7674 57.4473 11.4288 57.4473 9.70888C57.4473 8.8489 57.5217 8.08372 57.6752 7.41108C57.8287 6.73844 58.0386 6.16512 58.3095 5.69337C58.5804 5.22388 58.9031 4.86499 59.2778 4.62347C59.6525 4.3797 60.0611 4.25781 60.5057 4.25781C60.9617 4.25781 61.3725 4.37744 61.7314 4.61219C62.0925 4.84919 62.3904 5.20131 62.6274 5.67306C62.8622 6.14481 63.0292 6.73167 63.1263 7.4314C63.2233 8.13112 63.2301 8.94596 63.1466 9.87591H58.4043Z" fill="#fff"/>
<path d="M69.5511 9.93787H65.9735V14.951H64.9961V4.46875H65.9735V9.10723H69.5511V4.46875H70.5307V14.951H69.5511V9.93787Z" fill="#fff"/>
<path d="M73.8175 9.12786V14.1817H74.4405C75.1763 14.1817 75.7722 13.9853 76.2304 13.5903C76.6864 13.1953 76.9166 12.5475 76.9166 11.6446C76.9166 10.7575 76.7089 10.1165 76.2914 9.72149C75.876 9.32423 75.2937 9.12786 74.5443 9.12786H73.8175ZM72.8379 4.4668H73.8175V8.35816H74.5872C75.5849 8.35816 76.3817 8.62902 76.9776 9.16849C77.5757 9.71021 77.8736 10.5273 77.8736 11.6243C77.8736 12.7326 77.5599 13.5655 76.9369 14.1207C76.3117 14.6737 75.5081 14.9514 74.524 14.9514H72.8379V4.4668Z" fill="#fff"/>
<path d="M80.5156 5.29969V14.9514H79.5586V4.4668H83.9894V5.29969H80.5156Z" fill="#fff"/>
<path d="M90.3728 7.65167C90.3728 7.37403 90.3795 7.11897 90.3931 6.891C90.4089 6.66303 90.4292 6.43731 90.4563 6.21611H90.3931C90.3254 6.45085 90.2419 6.67657 90.1448 6.891C90.0478 7.10769 89.9439 7.33115 89.8333 7.56815L86.4205 14.9514H85.5898V4.4668H86.504V11.7484C86.504 12.0261 86.4972 12.2834 86.4837 12.5181C86.4701 12.7551 86.4498 12.9899 86.4205 13.2246H86.4837C86.5536 12.9899 86.6349 12.7574 86.7319 12.5294C86.829 12.2992 86.9328 12.069 87.0457 11.832L90.4563 4.4668H91.3095V14.9514H90.3728V7.65167Z" fill="#fff"/>
</svg>
