<svg width="73" height="73" viewBox="0 0 73 73" fill="none" xmlns="http://www.w3.org/2000/svg">
<path d="M7.69419 43.5895C11.607 43.5895 14.779 40.4176 14.779 36.5047C14.779 32.5919 11.607 29.4199 7.69419 29.4199C3.78135 29.4199 0.609375 32.5919 0.609375 36.5047C0.609375 40.4176 3.78135 43.5895 7.69419 43.5895Z" fill="white"/>
<path d="M58.495 72.9138C62.4078 72.9138 65.5798 69.7418 65.5798 65.829C65.5798 61.9161 62.4078 58.7441 58.495 58.7441C54.5821 58.7441 51.4102 61.9161 51.4102 65.829C51.4102 69.7418 54.5821 72.9138 58.495 72.9138Z" fill="white"/>
<path d="M41.5609 18.9747C50.3827 18.9747 57.702 25.5253 58.9141 34.0179H71.0524C70.5011 27.3446 67.7345 21.1248 63.1088 16.2197C60.1465 17.7284 56.5039 17.7571 53.4095 15.9712C50.3128 14.1829 48.516 11.0116 48.3436 7.68821C46.1453 7.17572 43.8741 6.91016 41.5609 6.91016C37.1317 6.91016 32.8516 7.8769 28.959 9.71023L35.0359 20.2357C37.054 19.4235 39.2562 18.9747 41.5609 18.9747Z" fill="white"/>
<path d="M58.9161 38.9863C57.7071 47.482 50.3862 54.0365 41.562 54.0365C39.2558 54.0365 37.0529 53.5877 35.0347 52.7739L28.957 63.3002C32.8489 65.1343 37.1305 66.1018 41.5612 66.1018C43.876 66.1018 46.1504 65.8347 48.3494 65.3222C48.5187 61.9949 50.3163 58.8182 53.4153 57.0292C56.5105 55.2416 60.1546 55.2704 63.1178 56.7822C67.7395 51.8763 70.5031 45.6573 71.0528 38.9863L58.9161 38.9863V38.9863Z" fill="white"/>
<path d="M24.0299 36.5057C24.0299 30.9203 26.6553 25.9375 30.7358 22.7251L24.6605 12.2012C23.2356 13.1966 21.8876 14.3234 20.632 15.5782C17.116 19.0942 14.5946 23.3393 13.207 27.9727C16.0024 29.7835 17.8536 32.9268 17.8536 36.5057C17.8536 40.0838 16.0024 43.2279 13.207 45.0379C14.5946 49.6713 17.116 53.9165 20.632 57.4325C21.8868 58.6873 23.2332 59.8125 24.6574 60.8087L30.7335 50.284C26.6537 47.0716 24.0299 42.0888 24.0299 36.5057Z" fill="white"/>
<path d="M58.4911 14.2556C62.4039 14.2556 65.5759 11.0836 65.5759 7.17075C65.5759 3.25792 62.4039 0.0859375 58.4911 0.0859375C54.5782 0.0859375 51.4062 3.25792 51.4062 7.17075C51.4062 11.0836 54.5782 14.2556 58.4911 14.2556Z" fill="white"/>
</svg>
