<svg width="790" height="527" viewBox="0 0 790 527" fill="none" xmlns="http://www.w3.org/2000/svg">
<path d="M724.059 343.027C708.761 343.027 696.77 335.373 696.752 325.601C696.795 323.825 697.194 322.075 697.926 320.457C698.657 318.838 699.706 317.382 701.011 316.175C706.019 311.152 714.61 308.156 723.986 308.156C739.029 308.156 751.275 315.974 751.293 325.582C751.248 327.358 750.848 329.106 750.117 330.725C749.386 332.344 748.338 333.8 747.035 335.008C742.008 340.049 733.418 343.027 724.059 343.027ZM724.059 309.983C715.286 309.983 706.988 312.851 702.382 317.472C701.262 318.512 700.362 319.765 699.734 321.158C699.106 322.551 698.763 324.055 698.726 325.582C698.726 334.204 710.168 341.2 724.206 341.2C732.961 341.2 741.277 338.332 745.883 333.711C747 332.668 747.898 331.415 748.525 330.022C749.153 328.63 749.497 327.127 749.539 325.601C749.447 316.997 738.024 310.001 723.986 310.001L724.059 309.983Z" fill="#2ACAF7"/>
<path d="M724.041 333.035C717.698 333.035 712.727 329.766 712.727 325.619C712.736 324.846 712.903 324.083 713.218 323.376C713.532 322.67 713.987 322.035 714.554 321.509C717.163 319.235 720.545 318.045 724.004 318.185C730.347 318.185 735.3 321.455 735.318 325.601C735.302 326.373 735.132 327.134 734.818 327.84C734.505 328.546 734.053 329.182 733.49 329.711C730.882 331.987 727.5 333.177 724.041 333.035ZM724.041 320.011C721.069 319.892 718.161 320.889 715.889 322.806C715.497 323.163 715.181 323.593 714.958 324.073C714.736 324.553 714.611 325.072 714.591 325.601C714.591 328.304 718.393 331.209 724.077 331.209C727.043 331.329 729.946 330.331 732.211 328.414C732.61 328.063 732.932 327.633 733.158 327.153C733.385 326.672 733.51 326.15 733.527 325.619C733.563 322.934 729.67 320.011 724.004 320.011H724.041Z" fill="#2ACAF7"/>
<path d="M165.605 389.436C143.306 389.436 125.137 377.91 125.119 363.753C125.183 361.153 125.769 358.592 126.843 356.223C127.917 353.854 129.456 351.725 131.37 349.962C138.809 342.51 151.476 338.053 165.495 338.053C187.794 338.053 205.963 349.579 205.981 363.735C205.919 366.336 205.334 368.897 204.26 371.267C203.186 373.636 201.645 375.765 199.73 377.526C192.291 384.96 179.533 389.436 165.605 389.436ZM165.495 339.879C152.043 339.879 139.76 344.135 132.595 351.241C130.854 352.835 129.45 354.763 128.467 356.909C127.485 359.055 126.943 361.376 126.874 363.735C126.874 376.905 144.238 387.609 165.532 387.609C178.984 387.609 191.267 383.353 198.432 376.247C200.173 374.653 201.577 372.726 202.559 370.58C203.542 368.434 204.084 366.112 204.153 363.753C204.135 350.583 186.789 339.879 165.495 339.879Z" fill="#2ACAF7"/>
<path d="M165.569 374.42C156.43 374.42 149.119 369.726 149.119 363.753C149.141 362.658 149.383 361.578 149.828 360.577C150.274 359.577 150.915 358.675 151.715 357.926C155.537 354.601 160.487 352.862 165.551 353.067C174.8 353.067 182.001 357.761 182.001 363.735C181.974 364.832 181.727 365.913 181.275 366.914C180.823 367.915 180.175 368.815 179.369 369.561C175.556 372.878 170.621 374.616 165.569 374.42ZM165.569 354.894C160.997 354.711 156.523 356.25 153.031 359.204C151.76 360.378 151.004 362.007 150.929 363.735C150.929 368.612 157.527 372.594 165.551 372.594C170.123 372.776 174.597 371.238 178.09 368.283C178.721 367.703 179.231 367.004 179.592 366.227C179.952 365.45 180.156 364.609 180.192 363.753C180.192 358.876 173.648 354.894 165.533 354.894H165.569Z" fill="#2ACAF7"/>
<path d="M266.354 469.388C257.106 469.388 249.904 464.694 249.904 458.72C249.927 457.622 250.172 456.54 250.624 455.538C251.077 454.537 251.727 453.637 252.536 452.894C256.356 449.563 261.308 447.824 266.373 448.035C275.603 448.035 282.823 452.729 282.823 458.702C282.803 459.799 282.562 460.881 282.113 461.883C281.663 462.884 281.016 463.785 280.209 464.529C276.382 467.859 271.424 469.598 266.354 469.388ZM266.354 449.861C261.776 449.674 257.294 451.213 253.798 454.172C252.536 455.351 251.788 456.978 251.714 458.702C251.714 463.579 258.312 467.561 266.336 467.561C270.908 467.744 275.383 466.205 278.875 463.25C279.503 462.669 280.011 461.97 280.368 461.193C280.726 460.416 280.927 459.575 280.959 458.72C280.977 453.843 274.397 449.861 266.318 449.861H266.354Z" fill="#2ACAF7"/>
<path d="M188.453 526.999C188.254 526.997 188.06 526.929 187.903 526.807C187.745 526.685 187.632 526.515 187.58 526.322C187.528 526.13 187.541 525.926 187.616 525.741C187.691 525.557 187.825 525.402 187.996 525.3L208.595 513.354L198.287 507.344L168.567 524.551C168.431 524.64 168.272 524.684 168.11 524.679C167.951 524.674 167.796 524.63 167.659 524.55C167.521 524.471 167.406 524.358 167.324 524.222C167.262 524.119 167.221 524.005 167.205 523.887C167.188 523.768 167.195 523.647 167.225 523.532C167.256 523.416 167.31 523.307 167.383 523.212C167.457 523.118 167.548 523.039 167.653 522.98L196.459 506.285L186.132 500.312L145.92 523.601C145.779 523.674 145.622 523.711 145.463 523.711C145.301 523.713 145.141 523.672 144.999 523.592C144.858 523.511 144.74 523.395 144.659 523.254C144.546 523.042 144.518 522.795 144.583 522.563C144.648 522.332 144.799 522.134 145.006 522.012L184.286 499.252L158.916 484.639L105.087 515.692C100.894 518.12 96.1338 519.398 91.2875 519.398C86.4413 519.398 81.6809 518.12 77.4877 515.692L4.90587 473.752C3.41424 472.891 2.17563 471.653 1.31449 470.162C0.453345 468.671 0 466.98 0 465.259C0 463.537 0.453345 461.846 1.31449 460.355C2.17563 458.864 3.41424 457.626 4.90587 456.765L77.5242 414.88C81.7329 412.498 86.4872 411.246 91.3241 411.246C96.1609 411.246 100.915 412.498 105.124 414.88L177.742 456.765C179.234 457.626 180.473 458.864 181.334 460.355C182.195 461.846 182.648 463.537 182.648 465.259C182.648 466.98 182.195 468.671 181.334 470.162C180.473 471.653 179.234 472.891 177.742 473.752L160.853 483.598L227.056 521.957C229.698 523.493 232.7 524.3 235.757 524.295C239.121 524.241 242.402 523.241 245.225 521.409C277.284 503.143 374.797 446.408 374.797 446.408L301.502 404.103C298.371 402.294 295.772 399.693 293.964 396.562C292.157 393.432 291.206 389.881 291.206 386.266C291.206 382.652 292.157 379.101 293.964 375.97C295.772 372.839 298.371 370.238 301.502 368.429L462.202 275.71C471.327 270.455 481.674 267.689 492.205 267.689C502.737 267.689 513.084 270.455 522.209 275.71L682.909 368.429C686.039 370.241 688.638 372.843 690.445 375.976C692.252 379.108 693.203 382.66 693.203 386.275C693.203 389.891 692.252 393.443 690.445 396.575C688.638 399.707 686.039 402.31 682.909 404.121L522.117 496.75C512.994 502.009 502.647 504.778 492.114 504.778C481.581 504.778 471.234 502.009 462.111 496.75L376.424 447.339L245.279 523.473C242.356 525.16 239.04 526.048 235.665 526.048C232.29 526.048 228.974 525.16 226.051 523.473L210.423 514.431L188.91 526.889C188.772 526.969 188.613 527.007 188.453 526.999ZM91.3972 412.999C86.874 413.006 82.4315 414.196 78.5112 416.451L5.81977 458.354C4.6094 459.056 3.60472 460.063 2.90633 461.275C2.20794 462.486 1.84035 463.86 1.84035 465.259C1.84035 466.657 2.20794 468.031 2.90633 469.243C3.60472 470.454 4.6094 471.462 5.81977 472.163L78.4381 514.066C82.3712 516.281 86.8095 517.445 91.3241 517.445C95.8387 517.445 100.277 516.281 104.21 514.066L176.828 472.163C178.039 471.462 179.043 470.454 179.742 469.243C180.44 468.031 180.808 466.657 180.808 465.259C180.808 463.86 180.44 462.486 179.742 461.275C179.043 460.063 178.039 459.056 176.828 458.354L104.192 416.451C100.298 414.212 95.8894 413.022 91.3972 412.999ZM492.178 269.426C481.947 269.413 471.893 272.09 463.025 277.189L302.325 369.927C299.475 371.579 297.11 373.951 295.466 376.804C293.822 379.657 292.957 382.892 292.957 386.184C292.957 389.476 293.822 392.711 295.466 395.564C297.11 398.417 299.475 400.788 302.325 402.441L463.025 495.16C471.871 500.258 481.903 502.942 492.114 502.942C502.325 502.942 512.357 500.258 521.203 495.16L681.885 402.441C684.739 400.792 687.109 398.422 688.756 395.568C690.404 392.715 691.271 389.478 691.271 386.184C691.271 382.889 690.404 379.653 688.756 376.799C687.109 373.946 684.739 371.576 681.885 369.927L521.203 277.189C512.351 272.1 502.317 269.423 492.105 269.426H492.178Z" fill="#2ACAF7"/>
<path d="M644.288 456.2C644.129 456.2 643.972 456.163 643.831 456.09L618.333 441.477C618.123 441.358 617.968 441.161 617.903 440.928C617.838 440.695 617.868 440.446 617.986 440.235C618.108 440.028 618.306 439.876 618.538 439.812C618.769 439.747 619.017 439.774 619.229 439.888L644.818 454.501C644.989 454.602 645.122 454.755 645.197 454.938C645.273 455.121 645.287 455.323 645.237 455.515C645.188 455.707 645.078 455.877 644.923 456C644.768 456.124 644.577 456.194 644.379 456.2H644.288Z" fill="#2ACAF7"/>
<path d="M679.453 454.956C679.293 454.95 679.136 454.907 678.996 454.828L636.719 430.735C636.508 430.612 636.352 430.412 636.287 430.176C636.222 429.94 636.253 429.688 636.372 429.475C636.431 429.37 636.51 429.278 636.605 429.205C636.699 429.132 636.808 429.078 636.924 429.047C637.04 429.017 637.161 429.01 637.279 429.027C637.398 429.043 637.512 429.084 637.615 429.146L679.947 453.239C680.157 453.358 680.312 453.555 680.377 453.788C680.442 454.021 680.412 454.27 680.294 454.481C680.211 454.629 680.088 454.752 679.94 454.836C679.792 454.92 679.623 454.961 679.453 454.956Z" fill="#2ACAF7"/>
<path d="M717.015 456.874C716.854 456.875 716.696 456.831 716.558 456.746L653.828 420.999C653.62 420.873 653.468 420.672 653.403 420.438C653.339 420.203 653.366 419.953 653.481 419.739C653.607 419.53 653.809 419.379 654.045 419.317C654.28 419.256 654.531 419.289 654.742 419.41L717.472 455.157C717.681 455.283 717.833 455.483 717.897 455.718C717.962 455.952 717.934 456.203 717.82 456.417C717.735 456.555 717.617 456.67 717.477 456.75C717.336 456.83 717.177 456.873 717.015 456.874Z" fill="#2ACAF7"/>
<path d="M784.742 71.2434L712.124 29.3406C707.912 26.9688 703.159 25.7227 698.324 25.7227C693.489 25.7227 688.736 26.9688 684.524 29.3406L611.924 71.2434C610.428 72.1007 609.185 73.3376 608.32 74.8291C607.455 76.3205 607 78.0136 607 79.7373C607 81.4609 607.455 83.154 608.32 84.6454C609.185 86.1369 610.428 87.3738 611.924 88.2311L684.524 130.116C688.718 132.544 693.478 133.822 698.324 133.822C703.17 133.822 707.931 132.544 712.124 130.116L747.985 109.438L767.104 120.398C768.352 121.122 769.388 122.162 770.108 123.412C770.829 124.662 771.208 126.079 771.208 127.522C771.208 128.964 770.829 130.382 770.108 131.632C769.388 132.882 768.352 133.921 767.104 134.646L700.664 173.151C699.138 174.033 697.872 175.301 696.991 176.827C696.111 178.353 695.647 180.084 695.647 181.846C695.647 183.607 696.111 185.338 696.991 186.864C697.872 188.39 699.138 189.658 700.664 190.54L771.18 231.11C772.429 231.832 773.465 232.869 774.186 234.118C774.907 235.367 775.286 236.783 775.286 238.225C775.286 239.666 774.907 241.082 774.186 242.331C773.465 243.58 772.429 244.617 771.18 245.339L619.912 333.017L620.826 334.607L720.587 276.83L732.212 283.571L731.755 284.356C731.599 284.616 731.511 284.912 731.499 285.215C731.499 286.858 733.966 288.247 736.982 288.247C738.686 288.32 740.355 287.753 741.661 286.658C742.066 286.283 742.309 285.765 742.337 285.215C742.337 283.571 739.87 282.182 736.964 282.182C736.18 282.183 735.399 282.287 734.642 282.493L734.277 282.602L722.506 275.771L734.88 268.61L755.096 280.319L754.657 281.105C754.495 281.363 754.401 281.659 754.383 281.963C754.383 283.607 756.85 284.995 759.775 284.995C761.475 285.069 763.143 284.509 764.454 283.424C764.657 283.241 764.822 283.019 764.938 282.771C765.055 282.524 765.12 282.255 765.13 281.981C765.13 280.337 762.663 278.949 759.756 278.949C758.978 278.94 758.202 279.044 757.453 279.26L757.07 279.351L736.69 267.551L772.185 247.001C773.711 246.116 774.977 244.847 775.856 243.319C776.736 241.792 777.2 240.06 777.2 238.298C777.2 236.535 776.736 234.803 775.856 233.276C774.977 231.748 773.711 230.479 772.185 229.594L701.669 189.024C700.42 188.302 699.384 187.265 698.663 186.016C697.943 184.767 697.563 183.351 697.563 181.91C697.563 180.468 697.943 179.052 698.663 177.803C699.384 176.554 700.42 175.517 701.669 174.795L734.971 155.524L755.077 167.16L754.456 167.982C753.819 168.817 753.466 169.835 753.451 170.886C753.451 174.539 757.782 177.389 763.302 177.389C766.309 177.503 769.245 176.463 771.509 174.484C772.013 174.016 772.416 173.452 772.696 172.824C772.976 172.196 773.125 171.518 773.136 170.831C773.136 167.178 768.804 164.328 763.284 164.328C761.161 164.313 759.064 164.795 757.161 165.735L756.722 165.972L736.781 154.428L768.183 136.162C769.708 135.279 770.975 134.011 771.855 132.485C772.736 130.959 773.199 129.229 773.199 127.467C773.199 125.705 772.736 123.975 771.855 122.449C770.975 120.923 769.708 119.655 768.183 118.772L749.905 108.287L784.834 88.1945C786.325 87.3335 787.564 86.0953 788.425 84.6043C789.286 83.1134 789.74 81.4222 789.74 79.7007C789.74 77.9792 789.286 76.2881 788.425 74.7971C787.564 73.3062 786.325 72.068 784.834 71.2069L784.742 71.2434ZM756.229 168.53C758.157 166.91 760.621 166.069 763.138 166.173C767.488 166.173 771.162 168.329 771.162 170.868C771.13 171.736 770.756 172.557 770.12 173.151C768.192 174.771 765.728 175.611 763.211 175.507C758.861 175.507 755.187 173.352 755.187 170.813C755.209 169.949 755.57 169.129 756.192 168.53H756.229ZM783.828 86.6419L711.21 128.545C707.277 130.76 702.839 131.923 698.324 131.923C693.81 131.923 689.371 130.76 685.438 128.545L612.838 86.6419C611.623 85.9414 610.615 84.9337 609.913 83.72C609.212 82.5064 608.843 81.1296 608.843 79.7281C608.843 78.3266 609.212 76.9498 609.913 75.7362C610.615 74.5225 611.623 73.5148 612.838 72.8143L685.438 30.9298C689.355 28.6675 693.8 27.4764 698.324 27.4764C702.848 27.4764 707.293 28.6675 711.21 30.9298L783.828 72.8143C785.039 73.5185 786.043 74.5276 786.74 75.7407C787.438 76.9539 787.806 78.3288 787.806 79.7281C787.806 81.1275 787.438 82.5023 786.74 83.7155C786.043 84.9287 785.039 85.9377 783.828 86.6419Z" fill="#2ACAF7"/>
<path d="M158.112 441.219V455.321C158.112 458.132 157.368 460.894 155.956 463.326C154.544 465.757 152.513 467.772 150.07 469.167L103.205 495.909C99.5879 497.977 95.4925 499.065 91.3248 499.065C87.1571 499.065 83.0617 497.977 79.4441 495.909L32.5977 469.167C30.1501 467.776 28.1149 465.762 26.699 463.33C25.2832 460.898 24.5372 458.135 24.5371 455.321V440.27L72.6264 472.747C78.1305 476.522 84.6494 478.542 91.3248 478.542C98.0002 478.542 104.519 476.522 110.023 472.747L158.112 441.219Z" fill="url(#paint0_linear_80_15437)"/>
<path d="M30.5317 429.787L79.3521 401.62C82.9921 399.52 87.1211 398.414 91.3242 398.414C95.5273 398.414 99.6563 399.52 103.296 401.62L152.117 429.787C153.939 430.833 155.453 432.342 156.506 434.161C157.559 435.979 158.113 438.043 158.113 440.143C158.113 442.244 157.559 444.308 156.506 446.126C155.453 447.945 153.939 449.454 152.117 450.5L103.296 478.685C99.6551 480.782 95.5265 481.886 91.3242 481.886C87.1219 481.886 82.9933 480.782 79.3521 478.685L30.5317 450.5C28.7092 449.454 27.1951 447.945 26.1423 446.126C25.0895 444.308 24.5352 442.244 24.5352 440.143C24.5352 438.043 25.0895 435.979 26.1423 434.161C27.1951 432.342 28.7092 430.833 30.5317 429.787Z" fill="url(#paint1_linear_80_15437)"/>
<path d="M30.5317 429.787L79.3521 401.62C82.9921 399.52 87.1211 398.414 91.3242 398.414C95.5273 398.414 99.6563 399.52 103.296 401.62L152.117 429.787C153.939 430.833 155.453 432.342 156.506 434.161C157.559 435.979 158.113 438.043 158.113 440.143C158.113 442.244 157.559 444.308 156.506 446.126C155.453 447.945 153.939 449.454 152.117 450.5L103.296 478.685C99.6551 480.782 95.5265 481.886 91.3242 481.886C87.1219 481.886 82.9933 480.782 79.3521 478.685L30.5317 450.5C28.7092 449.454 27.1951 447.945 26.1423 446.126C25.0895 444.308 24.5352 442.244 24.5352 440.143C24.5352 438.043 25.0895 435.979 26.1423 434.161C27.1951 432.342 28.7092 430.833 30.5317 429.787Z" fill="url(#paint2_linear_80_15437)"/>
<path d="M91.3978 476.822C88.0851 476.821 84.8316 475.945 81.9664 474.283L33.0729 446.117C32.021 445.513 31.147 444.644 30.5392 443.595C29.9314 442.546 29.6113 441.355 29.6113 440.144C29.6113 438.932 29.9314 437.741 30.5392 436.692C31.147 435.643 32.021 434.774 33.0729 434.17L81.8933 406.004C84.7708 404.379 88.0197 403.525 91.3247 403.525C94.6297 403.525 97.8786 404.379 100.756 406.004L149.595 434.17C150.642 434.777 151.511 435.649 152.116 436.697C152.72 437.745 153.038 438.934 153.038 440.144C153.038 441.353 152.72 442.542 152.116 443.59C151.511 444.638 150.642 445.51 149.595 446.117L100.756 474.283C97.9134 475.935 94.6861 476.81 91.3978 476.822ZM91.3978 405.31C88.4101 405.313 85.4748 406.094 82.8803 407.575L33.9868 435.76C33.2161 436.203 32.5761 436.842 32.1311 437.612C31.6861 438.381 31.4518 439.255 31.4518 440.144C31.4518 441.032 31.6861 441.906 32.1311 442.675C32.5761 443.445 33.2161 444.084 33.9868 444.527L82.8072 472.639C85.4068 474.104 88.3405 474.873 91.3247 474.873C94.3089 474.873 97.2426 474.104 99.8423 472.639L148.681 444.454C149.447 444.007 150.082 443.367 150.524 442.598C150.966 441.828 151.198 440.957 151.198 440.07C151.198 439.184 150.966 438.312 150.524 437.543C150.082 436.774 149.447 436.134 148.681 435.687L99.8423 407.575C97.2713 406.102 94.3614 405.321 91.3978 405.31Z" fill="#2ACAF7"/>
<path d="M91.3968 458.702C89.7611 458.704 88.1536 458.275 86.736 457.46L61.3844 442.847C60.914 442.574 60.5235 442.182 60.2521 441.711C59.9807 441.239 59.8379 440.705 59.8379 440.161C59.8379 439.618 59.9807 439.084 60.2521 438.612C60.5235 438.141 60.914 437.749 61.3844 437.476L86.736 422.863C88.1536 422.048 89.7611 421.619 91.3968 421.621C93.0337 421.611 94.6434 422.04 96.0577 422.863L121.409 437.476C121.88 437.749 122.27 438.141 122.542 438.612C122.813 439.084 122.956 439.618 122.956 440.161C122.956 440.705 122.813 441.239 122.542 441.711C122.27 442.182 121.88 442.574 121.409 442.847L96.0577 457.46C94.6434 458.283 93.0337 458.712 91.3968 458.702Z" fill="#2ACAF7"/>
<path d="M102.09 442.664L98.1601 444.71C97.6933 444.893 97.1911 444.969 96.691 444.931C96.1909 444.893 95.7058 444.742 95.2721 444.491L81.8744 436.782C81.3809 436.49 81.125 436.161 81.125 435.833V434.919C81.1281 434.77 81.1771 434.625 81.2654 434.504C81.3536 434.383 81.4769 434.292 81.6185 434.243L85.53 432.179C85.9951 431.992 86.4968 431.913 86.9971 431.947C87.4974 431.982 87.9833 432.13 88.4179 432.38L89.8984 433.239C90.1149 433.359 90.3697 433.39 90.6087 433.325C90.8477 433.26 91.0519 433.105 91.1779 432.892C91.2529 432.751 91.2906 432.594 91.2875 432.435V426.955L97.5569 430.024V436.636C97.5556 436.958 97.6395 437.275 97.7999 437.554C97.9604 437.833 98.1919 438.064 98.4708 438.225L101.852 440.18C102.419 440.49 102.638 440.892 102.565 441.258C102.583 441.751 102.73 442.28 102.09 442.664Z" fill="url(#paint3_linear_80_15437)"/>
<path d="M97.5567 429.968V436.58L91.1777 432.927C91.2527 432.786 91.2905 432.629 91.2874 432.47V426.99L97.5567 429.968Z" fill="#CACEFC"/>
<path d="M119.929 441.476V413.565C119.931 412.581 119.673 411.614 119.182 410.761C118.691 409.908 117.984 409.199 117.133 408.706L77.4878 385.836C77.0948 385.603 76.6494 385.473 76.1926 385.457C75.7358 385.441 75.2824 385.54 74.874 385.745L73.3204 386.604C72.872 386.836 72.4964 387.187 72.2352 387.619C71.974 388.051 71.8372 388.547 71.8399 389.051V416.889C71.8412 417.865 72.0984 418.824 72.5859 419.67C73.0733 420.516 73.774 421.22 74.6181 421.711L114.263 444.69C115.78 445.567 117.06 444.8 118.613 443.832C119.017 443.586 119.351 443.24 119.582 442.827C119.812 442.414 119.932 441.948 119.929 441.476Z" fill="url(#paint4_linear_80_15437)"/>
<path d="M75.3848 390.295V415.174L95.1432 426.663L110.972 410.826L75.3848 390.295Z" fill="#00125C"/>
<path d="M95.1445 426.663L114.848 438.079V413.109L110.973 410.826L95.1445 426.663Z" fill="#13287B"/>
<path d="M765.075 55.6999V69.8014C765.075 72.613 764.331 75.3745 762.919 77.806C761.507 80.2376 759.476 82.2528 757.033 83.6473L710.168 110.389C706.551 112.457 702.455 113.545 698.288 113.545C694.12 113.545 690.025 112.457 686.407 110.389L639.561 83.6473C637.113 82.2565 635.078 80.2427 633.662 77.8106C632.246 75.3786 631.5 72.6151 631.5 69.8014V54.75L679.589 87.3005C685.093 91.0752 691.612 93.0955 698.288 93.0955C704.963 93.0955 711.482 91.0752 716.986 87.3005L765.075 55.6999Z" fill="url(#paint5_linear_80_15437)"/>
<path d="M637.496 44.2645L686.316 16.0613C689.956 13.9611 694.085 12.8555 698.288 12.8555C702.491 12.8555 706.62 13.9611 710.26 16.0613L759.154 44.2645C760.976 45.3114 762.49 46.8202 763.543 48.6385C764.596 50.4569 765.15 52.5206 765.15 54.6214C765.15 56.7223 764.596 58.7859 763.543 60.6043C762.49 62.4227 760.976 63.9314 759.154 64.9784L710.26 93.145C706.62 95.2452 702.491 96.3508 698.288 96.3508C694.085 96.3508 689.956 95.2452 686.316 93.145L637.496 64.9784C635.678 63.9277 634.169 62.4176 633.119 60.5997C632.07 58.7818 631.518 56.7201 631.518 54.6214C631.518 52.5228 632.07 50.461 633.119 48.6431C634.169 46.8252 635.678 45.3152 637.496 44.2645Z" fill="url(#paint6_linear_80_15437)"/>
<path d="M637.496 44.2645L686.316 16.0613C689.956 13.9611 694.085 12.8555 698.288 12.8555C702.491 12.8555 706.62 13.9611 710.26 16.0613L759.154 44.2645C760.976 45.3114 762.49 46.8202 763.543 48.6385C764.596 50.4569 765.15 52.5206 765.15 54.6214C765.15 56.7223 764.596 58.7859 763.543 60.6043C762.49 62.4227 760.976 63.9314 759.154 64.9784L710.26 93.145C706.62 95.2452 702.491 96.3508 698.288 96.3508C694.085 96.3508 689.956 95.2452 686.316 93.145L637.496 64.9784C635.678 63.9277 634.169 62.4176 633.119 60.5997C632.07 58.7818 631.518 56.7201 631.518 54.6214C631.518 52.5228 632.07 50.461 633.119 48.6431C634.169 46.8252 635.678 45.3152 637.496 44.2645Z" fill="url(#paint7_linear_80_15437)"/>
<path d="M698.288 91.2824C694.977 91.2873 691.723 90.4177 688.856 88.7617L640.036 60.5951C638.984 59.9919 638.11 59.122 637.502 58.0732C636.894 57.0245 636.574 55.834 636.574 54.622C636.574 53.41 636.894 52.2195 637.502 51.1707C638.11 50.122 638.984 49.2521 640.036 48.6489L688.856 20.4824C691.734 18.8577 694.983 18.0039 698.288 18.0039C701.593 18.0039 704.842 18.8577 707.719 20.4824L756.558 48.6489C757.605 49.2558 758.474 50.1271 759.079 51.1753C759.683 52.2236 760.001 53.4122 760.001 54.622C760.001 55.8318 759.683 57.0204 759.079 58.0687C758.474 59.117 757.605 59.9882 756.558 60.5951L707.719 88.7617C704.853 90.4202 701.599 91.2899 698.288 91.2824ZM698.288 19.7882C695.3 19.7919 692.365 20.5725 689.77 22.0533L640.95 50.2381C640.179 50.6819 639.539 51.3208 639.094 52.0904C638.649 52.86 638.415 53.7332 638.415 54.622C638.415 55.5109 638.649 56.384 639.094 57.1536C639.539 57.9232 640.179 58.5621 640.95 59.0059L689.697 87.1908C692.297 88.6552 695.23 89.4246 698.215 89.4246C701.199 89.4246 704.132 88.6552 706.732 87.1908L755.571 59.0059C756.337 58.5584 756.972 57.9182 757.414 57.1491C757.855 56.38 758.088 55.5087 758.088 54.622C758.088 53.7353 757.855 52.864 757.414 52.0949C756.972 51.3258 756.337 50.6856 755.571 50.2381L706.732 22.0533C704.168 20.5545 701.258 19.7487 698.288 19.7152V19.7882Z" fill="#2ACAF7"/>
<path d="M698.288 73.1803C696.652 73.1821 695.044 72.7537 693.627 71.9382L668.275 57.3252C667.805 57.0521 667.414 56.6604 667.143 56.1891C666.871 55.7179 666.729 55.1837 666.729 54.64C666.729 54.0963 666.871 53.5622 667.143 53.091C667.414 52.6198 667.805 52.228 668.275 51.9549L693.627 37.3419C695.044 36.5263 696.652 36.098 698.288 36.0998C699.924 36.0892 701.534 36.5182 702.948 37.3419L728.3 51.9549C728.77 52.228 729.161 52.6198 729.432 53.091C729.704 53.5622 729.846 54.0963 729.846 54.64C729.846 55.1837 729.704 55.7179 729.432 56.1891C729.161 56.6604 728.77 57.0521 728.3 57.3252L702.948 71.9382C701.534 72.7619 699.924 73.1909 698.288 73.1803Z" fill="#2ACAF7"/>
<path d="M709.492 57.1595L705.562 59.2236C705.094 59.3981 704.593 59.4689 704.094 59.431C703.596 59.3932 703.111 59.2476 702.675 59.0044L689.277 51.2777C688.802 51.0037 688.527 50.6567 688.527 50.3462V49.4146C688.533 49.2656 688.583 49.1218 688.671 49.0014C688.759 48.881 688.881 48.7895 689.021 48.7387L692.932 46.6746C693.399 46.4924 693.899 46.4159 694.399 46.4506C694.898 46.4854 695.384 46.6305 695.82 46.8756L697.301 47.7341C697.44 47.8186 697.599 47.8646 697.761 47.8672C697.924 47.8698 698.084 47.8289 698.226 47.7489C698.368 47.6688 698.485 47.5524 698.567 47.4118C698.648 47.2711 698.691 47.1112 698.69 46.9486V41.4688L704.959 44.5375V51.1499C704.957 51.4767 705.042 51.7981 705.206 52.0809C705.37 52.3636 705.606 52.5972 705.891 52.7573L709.273 54.6935C709.821 55.0041 710.041 55.4059 709.967 55.7713C709.986 56.2462 710.132 56.7759 709.492 57.1595Z" fill="url(#paint8_linear_80_15437)"/>
<path d="M704.959 44.465V51.0774L698.58 47.4241C698.653 47.2895 698.691 47.1387 698.69 46.9857V41.5059L704.959 44.465Z" fill="#CACEFC"/>
<path d="M727.332 55.9911V28.0619C727.346 27.0755 727.094 26.1033 726.602 25.2481C726.11 24.393 725.396 23.6864 724.535 23.2031L684.908 0.333741C684.504 0.114717 684.052 0 683.592 0C683.133 0 682.68 0.114717 682.276 0.333741L680.723 1.19226C680.276 1.42602 679.901 1.7778 679.64 2.20934C679.379 2.64088 679.242 3.13567 679.242 3.63993V31.4047C679.245 32.3708 679.504 33.3189 679.992 34.1529C680.48 34.987 681.18 35.6773 682.02 36.1539L721.665 59.1329C723.182 60.0096 724.462 59.2425 726.015 58.2743C726.409 58.035 726.736 57.7003 726.966 57.3012C727.196 56.9021 727.322 56.4515 727.332 55.9911Z" fill="url(#paint9_linear_80_15437)"/>
<path d="M682.787 4.79102V29.6697L702.546 41.1592L718.374 25.3406L682.787 4.79102Z" fill="#00125C"/>
<path d="M702.547 41.1584L722.251 52.5748V27.6049L718.376 25.3398L702.547 41.1584Z" fill="#13287B"/>
<defs>
<linearGradient id="paint0_linear_80_15437" x1="158.112" y1="469.66" x2="24.5371" y2="469.66" gradientUnits="userSpaceOnUse">
<stop stop-color="#CACEFC"/>
<stop offset="0.11" stop-color="#BABEFB"/>
<stop offset="0.26" stop-color="#A7ACFA"/>
<stop offset="0.38" stop-color="#A0A5FA"/>
<stop offset="0.44" stop-color="#AFB4FB"/>
<stop offset="0.58" stop-color="#D7D9FD"/>
<stop offset="0.69" stop-color="white"/>
</linearGradient>
<linearGradient id="paint1_linear_80_15437" x1="91.3242" y1="398.405" x2="91.3242" y2="481.882" gradientUnits="userSpaceOnUse">
<stop stop-color="#0E004F"/>
<stop offset="1" stop-color="#5E45D9"/>
</linearGradient>
<linearGradient id="paint2_linear_80_15437" x1="23141.6" y1="20183.7" x2="32902.1" y2="20183.7" gradientUnits="userSpaceOnUse">
<stop stop-color="#0E004F"/>
<stop offset="1" stop-color="#5E45D9"/>
</linearGradient>
<linearGradient id="paint3_linear_80_15437" x1="88.9114" y1="442.08" x2="94.9384" y2="434.568" gradientUnits="userSpaceOnUse">
<stop stop-color="#CACEFC"/>
<stop offset="0.38" stop-color="#E5E7FE"/>
<stop offset="0.75" stop-color="#F8F9FF"/>
<stop offset="1" stop-color="white"/>
</linearGradient>
<linearGradient id="paint4_linear_80_15437" x1="1961.75" y1="20989.5" x2="3226.99" y2="20989.5" gradientUnits="userSpaceOnUse">
<stop stop-color="#CACEFC"/>
<stop offset="0.38" stop-color="#E5E7FE"/>
<stop offset="0.75" stop-color="#F8F9FF"/>
<stop offset="1" stop-color="white"/>
</linearGradient>
<linearGradient id="paint5_linear_80_15437" x1="56097.3" y1="9948.22" x2="46335.6" y2="9948.22" gradientUnits="userSpaceOnUse">
<stop stop-color="#CACEFC"/>
<stop offset="0.11" stop-color="#BABEFB"/>
<stop offset="0.26" stop-color="#A7ACFA"/>
<stop offset="0.38" stop-color="#A0A5FA"/>
<stop offset="0.44" stop-color="#AFB4FB"/>
<stop offset="0.58" stop-color="#D7D9FD"/>
<stop offset="0.69" stop-color="white"/>
</linearGradient>
<linearGradient id="paint6_linear_80_15437" x1="698.334" y1="12.8465" x2="698.334" y2="96.3472" gradientUnits="userSpaceOnUse">
<stop stop-color="#0E004F"/>
<stop offset="1" stop-color="#5E45D9"/>
</linearGradient>
<linearGradient id="paint7_linear_80_15437" x1="23758" y1="19803.8" x2="33522.6" y2="19803.8" gradientUnits="userSpaceOnUse">
<stop stop-color="#0E004F"/>
<stop offset="1" stop-color="#5E45D9"/>
</linearGradient>
<linearGradient id="paint8_linear_80_15437" x1="8794.96" y1="2794.63" x2="8851.19" y2="2710.78" gradientUnits="userSpaceOnUse">
<stop stop-color="#CACEFC"/>
<stop offset="0.38" stop-color="#E5E7FE"/>
<stop offset="0.75" stop-color="#F8F9FF"/>
<stop offset="1" stop-color="white"/>
</linearGradient>
<linearGradient id="paint9_linear_80_15437" x1="18389.8" y1="8243.15" x2="19655" y2="8243.15" gradientUnits="userSpaceOnUse">
<stop stop-color="#CACEFC"/>
<stop offset="0.38" stop-color="#E5E7FE"/>
<stop offset="0.75" stop-color="#F8F9FF"/>
<stop offset="1" stop-color="white"/>
</linearGradient>
</defs>
</svg>
