<svg width="310" height="258" viewBox="0 0 310 258" fill="none" xmlns="http://www.w3.org/2000/svg">
<path d="M217.281 208.094L86.9141 132.659L309.998 149.747V153.008L217.281 208.094Z" fill="#DA6900"/>
<path d="M217.281 204.847L86.9141 129.413L179.631 74.3125L309.998 149.747L217.281 204.847Z" fill="#FF8311"/>
<path d="M224.778 187.037L113.832 122.847L192.723 75.9658L303.669 140.156L224.778 187.037Z" fill="url(#paint0_linear)"/>
<path d="M217.281 175.364V204.847L191.809 190.106L217.281 175.364Z" fill="#DA6900"/>
<path d="M130.367 258L0 182.565V178.714L217.283 179.201L130.367 258Z" fill="#DA6900"/>
<path d="M130.367 254.163L0 178.714L86.916 99.9297L217.283 175.364L130.367 254.163Z" fill="#FF8311"/>
<path d="M115.716 128.012L57.5703 196.496L69.2318 203.372L127.362 134.844L115.716 128.012Z" fill="#F50E38"/>
<path d="M138.48 142.148L150.436 148.198L176.469 77.4562L164.807 70.624L138.48 142.148Z" fill="#F50E38"/>
<path d="M164.805 70.6243L176.466 77.4564L203.514 61.8L191.867 54.9678L164.805 70.6243Z" fill="#FF2D52"/>
<path d="M231.214 0L197.128 12.6167L211.484 20.9245L191.871 54.9674L203.518 61.7996L223.13 27.7567L242.86 6.83219L231.214 0Z" fill="#F50E38"/>
<path d="M242.856 6.83203L208.844 19.3897L223.126 27.7565L203.514 61.7994L176.466 77.4559L150.434 148.198L127.361 134.843L69.2305 203.328L80.8772 210.204L130.321 151.961L157.457 167.676L187.288 86.6048L213.261 71.5829L234.67 34.4264L248.334 42.3358L242.856 6.83203Z" fill="#D10026"/>
<path d="M288.091 112.487C289.485 113.29 290.597 114.505 291.274 115.966C291.952 117.427 292.162 119.062 291.875 120.647C290.903 126.152 289.519 133.928 289.416 134.238C289.186 134.993 288.806 135.695 288.301 136.301C287.795 136.906 287.173 137.404 286.471 137.765L236.174 165.802C234.236 166.869 232.061 167.428 229.85 167.428C227.639 167.428 225.464 166.869 223.526 165.802L183.02 142.413C182.136 141.948 181.384 141.265 180.835 140.429C180.287 139.592 179.959 138.63 179.884 137.632V134.341C179.796 132.216 180.856 130.844 183.05 129.619L231.418 102.556L236.41 87.7998C236.592 87.26 236.892 86.7675 237.288 86.358C237.684 85.9484 238.165 85.632 238.697 85.4316C239.23 85.2311 239.8 85.1516 240.367 85.1988C240.934 85.2459 241.483 85.4186 241.975 85.7044L288.091 112.487Z" fill="#4E90F9"/>
<path d="M286.723 116.782C286.105 120.19 285.251 125.075 284.647 127.937C284.596 128.201 284.483 128.448 284.318 128.659C284.152 128.869 283.939 129.037 283.695 129.148C283.452 129.259 283.185 129.311 282.918 129.298C282.651 129.285 282.39 129.208 282.159 129.074L236.264 102.512C235.839 102.263 235.513 101.874 235.341 101.412C235.169 100.949 235.162 100.441 235.322 99.9741L238.811 89.7922C238.891 89.5567 239.022 89.3418 239.195 89.1631C239.367 88.9844 239.578 88.8464 239.81 88.7589C240.042 88.6714 240.291 88.6366 240.539 88.6571C240.786 88.6776 241.026 88.7528 241.241 88.8773L285.648 114.553C286.036 114.767 286.347 115.097 286.54 115.496C286.732 115.895 286.796 116.344 286.723 116.782Z" fill="#27145A"/>
<path d="M289.431 116.899L286.339 133.131C286.281 133.38 286.171 133.614 286.016 133.818C285.861 134.021 285.665 134.19 285.441 134.312L236.101 161.862C234.159 162.918 231.985 163.472 229.777 163.472C227.568 163.472 225.394 162.918 223.453 161.862L182.873 138.34C182.039 137.887 181.327 137.24 180.797 136.452C180.786 136.55 180.786 136.649 180.797 136.747C180.861 137.575 181.132 138.374 181.585 139.071C182.038 139.767 182.658 140.338 183.388 140.731L223.968 164.194C225.743 165.171 227.736 165.684 229.762 165.684C231.788 165.684 233.78 165.171 235.556 164.194L286.501 135.758C286.844 135.539 287.132 135.244 287.344 134.897C287.556 134.549 287.686 134.157 287.723 133.751C288.017 132.172 289.46 124.16 290.138 120.47C290.367 119.233 290.114 117.955 289.431 116.899Z" fill="#3C2DA1"/>
<path d="M228.488 109.935V111.248C228.488 111.339 228.513 111.428 228.56 111.506C228.606 111.584 228.673 111.648 228.753 111.691L236.204 115.985C236.396 116.098 236.614 116.157 236.837 116.157C237.059 116.157 237.278 116.098 237.47 115.985L240.739 114.081C240.818 114.041 240.884 113.98 240.931 113.904C240.977 113.829 241.003 113.742 241.004 113.653V112.473L228.488 109.935Z" fill="#27145A"/>
<path d="M228.74 109.507L232.009 107.603C232.2 107.487 232.419 107.426 232.642 107.426C232.865 107.426 233.084 107.487 233.275 107.603L240.74 111.897C240.813 111.944 240.873 112.008 240.915 112.084C240.956 112.16 240.978 112.246 240.978 112.332C240.978 112.419 240.956 112.504 240.915 112.581C240.873 112.657 240.813 112.721 240.74 112.768L237.457 114.671C237.266 114.787 237.047 114.848 236.823 114.848C236.6 114.848 236.381 114.787 236.19 114.671L228.74 110.377C228.664 110.333 228.6 110.27 228.556 110.193C228.512 110.117 228.488 110.03 228.488 109.942C228.488 109.853 228.512 109.767 228.556 109.69C228.6 109.614 228.664 109.55 228.74 109.507Z" fill="#F50E38"/>
<path d="M215.855 117.254V118.582C215.857 118.669 215.88 118.754 215.924 118.829C215.968 118.904 216.031 118.966 216.106 119.01L223.571 123.304C223.764 123.413 223.982 123.47 224.204 123.47C224.426 123.47 224.644 123.413 224.837 123.304L232.273 118.98C232.35 118.936 232.414 118.871 232.458 118.793C232.502 118.715 232.525 118.627 232.523 118.538V117.372L215.855 117.254Z" fill="#27145A"/>
<path d="M216.104 116.841L223.554 112.517C223.745 112.401 223.964 112.34 224.187 112.34C224.411 112.34 224.63 112.401 224.821 112.517L232.271 116.811C232.347 116.855 232.411 116.918 232.455 116.995C232.499 117.071 232.523 117.158 232.523 117.246C232.523 117.335 232.499 117.422 232.455 117.498C232.411 117.574 232.347 117.638 232.271 117.682L224.835 122.005C224.642 122.114 224.424 122.171 224.202 122.171C223.98 122.171 223.762 122.114 223.569 122.005L216.119 117.711C216.041 117.669 215.977 117.606 215.931 117.531C215.886 117.455 215.861 117.369 215.859 117.28C215.858 117.192 215.88 117.105 215.923 117.027C215.966 116.95 216.028 116.886 216.104 116.841Z" fill="#3C2DA1"/>
<path d="M222.582 150.515V151.828C222.579 151.918 222.601 152.006 222.645 152.085C222.689 152.163 222.754 152.227 222.833 152.271L230.283 156.565C230.476 156.673 230.694 156.73 230.916 156.73C231.138 156.73 231.356 156.673 231.549 156.565L251.603 144.907C251.681 144.866 251.745 144.804 251.789 144.729C251.833 144.653 251.856 144.567 251.854 144.479V143.313L222.582 150.515Z" fill="#27145A"/>
<path d="M222.836 150.043L242.949 138.4C243.141 138.287 243.359 138.228 243.582 138.228C243.805 138.228 244.023 138.287 244.215 138.4L251.68 142.694C251.753 142.741 251.813 142.805 251.855 142.881C251.896 142.957 251.918 143.043 251.918 143.129C251.918 143.216 251.896 143.301 251.855 143.377C251.813 143.454 251.753 143.518 251.68 143.565L231.611 155.207C231.419 155.32 231.201 155.38 230.978 155.38C230.756 155.38 230.537 155.32 230.345 155.207L222.895 150.913C222.818 150.872 222.754 150.812 222.707 150.738C222.66 150.665 222.632 150.581 222.626 150.494C222.62 150.407 222.636 150.32 222.673 150.241C222.71 150.162 222.766 150.094 222.836 150.043Z" fill="#2ACAF7"/>
<path d="M239.164 116.147V117.461C239.161 117.551 239.183 117.639 239.227 117.717C239.271 117.796 239.336 117.86 239.415 117.903L246.865 122.198C247.058 122.306 247.276 122.363 247.498 122.363C247.72 122.363 247.938 122.306 248.131 122.198L251.415 120.294C251.49 120.247 251.553 120.182 251.596 120.105C251.64 120.027 251.664 119.94 251.665 119.851V118.686L239.164 116.147Z" fill="#27145A"/>
<path d="M239.411 115.734L242.695 113.816C242.888 113.707 243.106 113.65 243.328 113.65C243.55 113.65 243.768 113.707 243.961 113.816L251.411 118.051C251.488 118.095 251.551 118.158 251.596 118.235C251.64 118.311 251.663 118.398 251.663 118.486C251.663 118.575 251.64 118.661 251.596 118.738C251.551 118.814 251.488 118.878 251.411 118.922L248.128 120.84C247.934 120.949 247.716 121.006 247.495 121.006C247.273 121.006 247.055 120.949 246.862 120.84L239.411 116.575C239.341 116.53 239.284 116.468 239.244 116.394C239.204 116.321 239.184 116.238 239.184 116.155C239.184 116.071 239.204 115.989 239.244 115.916C239.284 115.842 239.341 115.78 239.411 115.734Z" fill="#3C2DA1"/>
<path d="M226.543 123.481V124.795C226.542 124.884 226.564 124.972 226.608 125.05C226.652 125.128 226.716 125.193 226.793 125.237L234.244 129.532C234.436 129.644 234.654 129.704 234.877 129.704C235.099 129.704 235.318 129.644 235.51 129.532L242.946 125.208C243.023 125.163 243.087 125.099 243.131 125.021C243.175 124.943 243.197 124.855 243.196 124.765V123.599L226.543 123.481Z" fill="#27145A"/>
<path d="M226.752 123.054L234.188 118.73C234.381 118.621 234.599 118.564 234.821 118.564C235.043 118.564 235.261 118.621 235.454 118.73L242.948 123.024C243.025 123.068 243.089 123.131 243.133 123.208C243.177 123.284 243.2 123.371 243.2 123.459C243.2 123.548 243.177 123.635 243.133 123.711C243.089 123.787 243.025 123.851 242.948 123.895L235.586 128.218C235.396 128.334 235.177 128.396 234.953 128.396C234.73 128.396 234.511 128.334 234.32 128.218L226.752 123.954C226.668 123.912 226.598 123.848 226.548 123.769C226.499 123.689 226.473 123.597 226.473 123.504C226.473 123.41 226.499 123.318 226.548 123.239C226.598 123.159 226.668 123.095 226.752 123.054Z" fill="#3C2DA1"/>
<path d="M213.926 130.801V132.114C213.924 132.205 213.948 132.295 213.995 132.374C214.042 132.452 214.11 132.515 214.191 132.557L221.641 136.851C221.835 136.959 222.053 137.016 222.274 137.016C222.496 137.016 222.714 136.959 222.908 136.851L230.343 132.527C230.42 132.481 230.483 132.417 230.527 132.339C230.57 132.261 230.593 132.174 230.594 132.085V130.919L213.926 130.801Z" fill="#27145A"/>
<path d="M214.175 130.388L221.537 126.064C221.728 125.948 221.947 125.887 222.17 125.887C222.394 125.887 222.613 125.948 222.803 126.064L230.254 130.358C230.33 130.402 230.394 130.465 230.438 130.542C230.482 130.618 230.506 130.705 230.506 130.793C230.506 130.882 230.482 130.968 230.438 131.045C230.394 131.121 230.33 131.185 230.254 131.229L222.818 135.552C222.625 135.661 222.407 135.718 222.185 135.718C221.963 135.718 221.745 135.661 221.552 135.552L214.175 131.332C214.078 131.297 213.994 131.233 213.935 131.148C213.876 131.064 213.844 130.963 213.844 130.86C213.844 130.756 213.876 130.656 213.935 130.571C213.994 130.487 214.078 130.422 214.175 130.388Z" fill="#3C2DA1"/>
<path d="M201.293 138.134V139.447C201.293 139.536 201.316 139.624 201.36 139.701C201.404 139.779 201.467 139.844 201.543 139.89L209.082 144.184C209.274 144.297 209.493 144.356 209.715 144.356C209.938 144.356 210.156 144.297 210.348 144.184L217.784 139.875C217.859 139.828 217.922 139.763 217.965 139.686C218.009 139.608 218.033 139.521 218.034 139.432V138.267L201.293 138.134Z" fill="#27145A"/>
<path d="M201.541 137.706L208.992 133.382C209.185 133.274 209.403 133.217 209.625 133.217C209.847 133.217 210.065 133.274 210.258 133.382L217.708 137.676C217.785 137.72 217.848 137.784 217.893 137.86C217.937 137.937 217.96 138.023 217.96 138.112C217.96 138.2 217.937 138.287 217.893 138.363C217.848 138.44 217.785 138.503 217.708 138.547L210.273 142.871C210.082 142.987 209.863 143.048 209.64 143.048C209.416 143.048 209.197 142.987 209.006 142.871L201.556 138.577C201.479 138.534 201.414 138.472 201.369 138.396C201.323 138.32 201.298 138.234 201.297 138.146C201.295 138.057 201.317 137.97 201.36 137.893C201.403 137.816 201.466 137.751 201.541 137.706Z" fill="#3C2DA1"/>
<path d="M203.191 124.544V125.857C203.191 125.946 203.215 126.034 203.258 126.112C203.302 126.189 203.365 126.254 203.442 126.3L210.892 130.594C211.087 130.707 211.308 130.766 211.533 130.766C211.757 130.766 211.978 130.707 212.173 130.594L219.609 126.285C219.684 126.238 219.746 126.173 219.79 126.096C219.834 126.018 219.858 125.931 219.859 125.842V124.677L203.191 124.544Z" fill="#27145A"/>
<path d="M203.488 124.116L210.924 119.792C211.12 119.684 211.34 119.627 211.564 119.627C211.788 119.627 212.009 119.684 212.205 119.792L219.655 124.086C219.732 124.13 219.795 124.194 219.839 124.27C219.883 124.347 219.907 124.433 219.907 124.522C219.907 124.61 219.883 124.697 219.839 124.773C219.795 124.85 219.732 124.913 219.655 124.957L212.219 129.281C212.028 129.397 211.809 129.458 211.586 129.458C211.363 129.458 211.144 129.397 210.953 129.281L203.488 124.987C203.415 124.94 203.355 124.876 203.313 124.8C203.272 124.723 203.25 124.638 203.25 124.551C203.25 124.465 203.272 124.379 203.313 124.303C203.355 124.227 203.415 124.163 203.488 124.116Z" fill="#3C2DA1"/>
<path d="M190.617 131.862V133.19C190.618 133.277 190.642 133.362 190.686 133.438C190.73 133.513 190.792 133.575 190.867 133.618L198.318 137.912C198.511 138.021 198.729 138.078 198.951 138.078C199.173 138.078 199.391 138.021 199.584 137.912L207.034 133.589C207.112 133.544 207.176 133.479 207.22 133.402C207.264 133.324 207.286 133.236 207.285 133.146V131.98L190.617 131.862Z" fill="#27145A"/>
<path d="M190.869 131.45L198.305 127.126C198.495 127.01 198.714 126.949 198.938 126.949C199.161 126.949 199.38 127.01 199.571 127.126L207.036 131.42C207.109 131.467 207.169 131.532 207.211 131.608C207.252 131.684 207.274 131.769 207.274 131.856C207.274 131.943 207.252 132.028 207.211 132.104C207.169 132.18 207.109 132.244 207.036 132.291L199.6 136.615C199.404 136.723 199.184 136.78 198.96 136.78C198.736 136.78 198.515 136.723 198.319 136.615L190.869 132.321C190.792 132.277 190.729 132.213 190.685 132.137C190.64 132.06 190.617 131.974 190.617 131.885C190.617 131.797 190.64 131.71 190.685 131.634C190.729 131.557 190.792 131.494 190.869 131.45Z" fill="#3C2DA1"/>
<path d="M249.836 122.374V123.687C249.837 123.774 249.861 123.859 249.905 123.934C249.949 124.009 250.011 124.072 250.086 124.115L257.537 128.38C257.73 128.495 257.952 128.557 258.177 128.557C258.403 128.557 258.624 128.495 258.818 128.38L262.086 126.506C262.165 126.462 262.23 126.398 262.274 126.32C262.318 126.242 262.34 126.153 262.337 126.063V124.897L249.836 122.374Z" fill="#27145A"/>
<path d="M250.086 121.946L253.369 120.042C253.561 119.93 253.78 119.87 254.002 119.87C254.225 119.87 254.443 119.93 254.635 120.042L262.086 124.322C262.162 124.368 262.225 124.433 262.269 124.51C262.313 124.588 262.336 124.675 262.336 124.764C262.336 124.854 262.313 124.941 262.269 125.019C262.225 125.096 262.162 125.161 262.086 125.207L258.817 127.111C258.624 127.219 258.406 127.276 258.184 127.276C257.962 127.276 257.744 127.219 257.551 127.111L250.086 122.817C250.013 122.77 249.953 122.706 249.911 122.63C249.869 122.553 249.848 122.468 249.848 122.381C249.848 122.295 249.869 122.209 249.911 122.133C249.953 122.057 250.013 121.993 250.086 121.946Z" fill="#3C2DA1"/>
<path d="M237.219 129.693V131.007C237.219 131.096 237.242 131.183 237.286 131.261C237.33 131.339 237.393 131.404 237.469 131.449L244.919 135.758C245.113 135.867 245.331 135.924 245.553 135.924C245.774 135.924 245.992 135.867 246.186 135.758L253.636 131.435C253.712 131.389 253.776 131.324 253.819 131.246C253.863 131.169 253.886 131.081 253.886 130.992V129.856L237.219 129.693Z" fill="#27145A"/>
<path d="M237.471 129.265L244.907 124.957C245.099 124.844 245.318 124.784 245.54 124.784C245.763 124.784 245.981 124.844 246.173 124.957L253.638 129.251C253.715 129.297 253.778 129.361 253.822 129.439C253.865 129.517 253.888 129.604 253.888 129.693C253.888 129.782 253.865 129.87 253.822 129.948C253.778 130.025 253.715 130.09 253.638 130.136L246.276 134.46C246.083 134.568 245.865 134.625 245.643 134.625C245.422 134.625 245.204 134.568 245.01 134.46L237.545 130.166C237.461 130.128 237.389 130.068 237.336 129.992C237.283 129.917 237.251 129.829 237.244 129.737C237.236 129.645 237.254 129.553 237.294 129.47C237.334 129.387 237.395 129.317 237.471 129.265Z" fill="#3C2DA1"/>
<path d="M224.602 137.027V138.341C224.6 138.428 224.622 138.515 224.666 138.59C224.71 138.666 224.775 138.728 224.852 138.769L232.302 143.136C232.493 143.252 232.712 143.314 232.935 143.314C233.159 143.314 233.378 143.252 233.569 143.136L241.004 138.71C241.081 138.669 241.146 138.607 241.19 138.531C241.234 138.456 241.257 138.369 241.255 138.282V137.116L224.602 137.027Z" fill="#27145A"/>
<path d="M224.852 136.6L232.214 132.276C232.407 132.167 232.625 132.11 232.847 132.11C233.069 132.11 233.287 132.167 233.48 132.276L240.931 136.57C241.007 136.614 241.071 136.677 241.115 136.754C241.159 136.83 241.182 136.917 241.182 137.005C241.182 137.094 241.159 137.18 241.115 137.257C241.071 137.333 241.007 137.397 240.931 137.441L233.48 141.764C233.288 141.877 233.07 141.937 232.847 141.937C232.624 141.937 232.406 141.877 232.214 141.764L224.764 137.47C224.691 137.419 224.633 137.349 224.596 137.268C224.559 137.187 224.544 137.098 224.553 137.009C224.562 136.92 224.595 136.836 224.647 136.764C224.7 136.692 224.77 136.635 224.852 136.6Z" fill="#3C2DA1"/>
<path d="M212.028 144.347V145.66C212.025 145.75 212.046 145.839 212.09 145.917C212.135 145.995 212.2 146.059 212.278 146.103L219.728 150.397C219.922 150.505 220.14 150.562 220.361 150.562C220.583 150.562 220.801 150.505 220.995 150.397L228.386 146.088C228.464 146.044 228.529 145.98 228.573 145.902C228.618 145.824 228.639 145.735 228.636 145.645V144.465L212.028 144.347Z" fill="#27145A"/>
<path d="M212.234 143.933L219.669 139.61C219.861 139.497 220.08 139.438 220.302 139.438C220.525 139.437 220.743 139.497 220.935 139.61L228.386 143.919C228.462 143.963 228.526 144.026 228.57 144.102C228.614 144.179 228.638 144.266 228.638 144.354C228.638 144.442 228.614 144.529 228.57 144.606C228.526 144.682 228.462 144.745 228.386 144.789L220.95 149.039C220.757 149.148 220.539 149.205 220.317 149.205C220.095 149.205 219.877 149.148 219.684 149.039L212.234 144.745C212.17 144.699 212.118 144.637 212.082 144.567C212.046 144.496 212.027 144.418 212.027 144.339C212.027 144.26 212.046 144.182 212.082 144.112C212.118 144.041 212.17 143.98 212.234 143.933Z" fill="#3C2DA1"/>
<path d="M260.527 128.587V129.856C260.527 129.947 260.552 130.036 260.599 130.114C260.645 130.192 260.712 130.256 260.792 130.299L268.243 134.593C268.436 134.701 268.654 134.758 268.876 134.758C269.098 134.758 269.316 134.701 269.509 134.593L272.792 132.674C272.868 132.631 272.93 132.569 272.974 132.494C273.018 132.419 273.042 132.333 273.043 132.246V131.081L260.527 128.587Z" fill="#27145A"/>
<path d="M260.777 128.159L264.046 126.255C264.239 126.147 264.457 126.09 264.679 126.09C264.901 126.09 265.119 126.147 265.312 126.255L272.777 130.55C272.85 130.596 272.91 130.661 272.952 130.737C272.993 130.813 273.015 130.898 273.015 130.985C273.015 131.072 272.993 131.157 272.952 131.233C272.91 131.309 272.85 131.373 272.777 131.42L269.449 133.324C269.257 133.437 269.039 133.496 268.816 133.496C268.594 133.496 268.375 133.437 268.183 133.324L260.733 129.03C260.662 128.979 260.605 128.912 260.567 128.834C260.529 128.756 260.512 128.669 260.516 128.582C260.521 128.495 260.547 128.411 260.592 128.337C260.638 128.263 260.702 128.202 260.777 128.159Z" fill="#3C2DA1"/>
<path d="M247.895 135.906V137.234C247.896 137.321 247.919 137.406 247.963 137.481C248.007 137.556 248.07 137.619 248.145 137.662L255.61 141.956C255.801 142.072 256.02 142.134 256.243 142.134C256.466 142.134 256.685 142.072 256.876 141.956L264.238 137.633C264.313 137.589 264.376 137.527 264.42 137.452C264.464 137.377 264.487 137.292 264.489 137.205V136.039L247.895 135.906Z" fill="#27145A"/>
<path d="M248.142 135.493L255.593 131.169C255.785 131.057 256.003 130.997 256.226 130.997C256.449 130.997 256.667 131.057 256.859 131.169L264.309 135.464C264.386 135.507 264.45 135.571 264.494 135.647C264.538 135.724 264.561 135.81 264.561 135.899C264.561 135.987 264.538 136.074 264.494 136.15C264.45 136.227 264.386 136.29 264.309 136.334L256.947 140.658C256.754 140.766 256.536 140.823 256.314 140.823C256.093 140.823 255.875 140.766 255.681 140.658L248.231 136.364C248.149 136.328 248.079 136.271 248.026 136.2C247.974 136.128 247.941 136.043 247.932 135.954C247.923 135.866 247.938 135.776 247.975 135.695C248.012 135.614 248.07 135.544 248.142 135.493Z" fill="#3C2DA1"/>
<path d="M244.333 104.652C244.295 104.665 244.253 104.665 244.215 104.652L238.325 101.273C238.275 101.243 238.238 101.195 238.222 101.138C238.207 101.082 238.215 101.021 238.244 100.97C238.274 100.919 238.322 100.882 238.379 100.867C238.435 100.852 238.495 100.86 238.546 100.889L244.436 104.268C244.463 104.282 244.486 104.301 244.505 104.325C244.524 104.348 244.539 104.375 244.547 104.404C244.555 104.433 244.557 104.463 244.553 104.493C244.55 104.523 244.54 104.552 244.524 104.578C244.501 104.605 244.471 104.626 244.438 104.639C244.404 104.651 244.368 104.656 244.333 104.652Z" fill="#33E7D2"/>
<path d="M248.837 131.479C248.804 131.491 248.767 131.491 248.734 131.479L242.844 128.1C242.797 128.069 242.762 128.022 242.749 127.967C242.735 127.912 242.743 127.854 242.771 127.805C242.783 127.778 242.801 127.755 242.823 127.736C242.845 127.717 242.87 127.703 242.898 127.694C242.926 127.686 242.955 127.684 242.984 127.687C243.013 127.691 243.04 127.701 243.065 127.716L248.955 131.095C249.003 131.128 249.038 131.179 249.051 131.236C249.065 131.293 249.057 131.354 249.028 131.405C249.005 131.432 248.975 131.453 248.942 131.466C248.908 131.478 248.872 131.483 248.837 131.479Z" fill="#211155"/>
<path d="M257.08 124.44H256.963L254.857 123.215C254.831 123.203 254.807 123.185 254.788 123.163C254.769 123.141 254.755 123.115 254.747 123.087C254.739 123.06 254.736 123.03 254.74 123.001C254.744 122.973 254.754 122.945 254.769 122.92C254.799 122.869 254.848 122.831 254.906 122.815C254.963 122.798 255.025 122.804 255.078 122.832L257.183 124.056C257.235 124.087 257.272 124.136 257.289 124.194C257.305 124.251 257.299 124.313 257.272 124.366C257.247 124.391 257.217 124.411 257.184 124.424C257.151 124.436 257.116 124.442 257.08 124.44Z" fill="#211155"/>
<path d="M246.613 118.183C246.575 118.197 246.533 118.197 246.495 118.183L244.419 116.944C244.368 116.913 244.33 116.864 244.314 116.806C244.297 116.749 244.303 116.687 244.331 116.634C244.364 116.585 244.414 116.55 244.471 116.537C244.528 116.523 244.588 116.531 244.64 116.56L246.745 117.77C246.796 117.801 246.834 117.85 246.85 117.907C246.867 117.965 246.861 118.027 246.834 118.08C246.811 118.117 246.778 118.146 246.739 118.165C246.699 118.183 246.656 118.19 246.613 118.183Z" fill="#211155"/>
<path d="M235.586 111.971H235.483L233.29 110.673C233.242 110.642 233.208 110.595 233.194 110.54C233.18 110.485 233.188 110.427 233.216 110.378C233.228 110.351 233.246 110.328 233.268 110.309C233.29 110.29 233.316 110.276 233.343 110.267C233.371 110.259 233.4 110.257 233.429 110.261C233.458 110.264 233.486 110.274 233.51 110.289L235.631 111.514C235.678 111.544 235.712 111.592 235.726 111.647C235.74 111.702 235.732 111.76 235.704 111.809C235.698 111.843 235.684 111.875 235.663 111.904C235.643 111.932 235.617 111.955 235.586 111.971Z" fill="#211155"/>
<path d="M268.112 130.624H267.994L265.889 129.399C265.864 129.385 265.842 129.366 265.824 129.344C265.807 129.321 265.794 129.295 265.787 129.267C265.78 129.24 265.779 129.211 265.784 129.183C265.789 129.154 265.8 129.127 265.815 129.104C265.843 129.053 265.89 129.016 265.945 129C266 128.983 266.059 128.989 266.11 129.015L268.23 130.24C268.279 130.273 268.313 130.323 268.327 130.38C268.34 130.438 268.332 130.498 268.304 130.55C268.279 130.575 268.249 130.594 268.216 130.607C268.183 130.62 268.148 130.625 268.112 130.624Z" fill="#211155"/>
<path d="M223.557 146.088C223.524 146.101 223.487 146.101 223.454 146.088L217.564 142.709C217.515 142.676 217.481 142.626 217.467 142.568C217.454 142.511 217.462 142.451 217.491 142.399C217.531 142.363 217.583 142.343 217.638 142.343C217.692 142.343 217.745 142.363 217.785 142.399L223.675 145.778C223.723 145.811 223.758 145.862 223.771 145.919C223.785 145.976 223.777 146.037 223.748 146.088C223.718 146.103 223.686 146.11 223.653 146.11C223.619 146.11 223.587 146.103 223.557 146.088Z" fill="#211155"/>
<path d="M92.9102 57.0478V59.8515C92.9102 64.2784 94.0292 66.8017 96.8415 65.1785C99.6538 63.5553 100.684 59.7187 100.684 55.3508V52.5471C100.684 48.1202 99.7127 45.5231 96.8415 47.1905C93.9703 48.858 92.9102 52.6799 92.9102 57.0478Z" fill="black"/>
<path d="M122.047 75.3461C122.047 67.4515 124.992 60.516 132.044 56.399C135.137 54.6135 137.433 54.2741 139.053 55.1004L139.303 55.248L147.814 60.1323L137.507 66.0349C136.8 71.6718 136.226 76.4529 131.411 79.9501L133.443 88.7006L125.154 83.8753C122.974 82.8129 122.047 79.6845 122.047 75.3461Z" fill="url(#paint1_linear)"/>
<path d="M130.676 80.3045C130.676 88.0516 133.621 91.6374 140.688 87.5204C147.756 83.4034 150.745 76.4384 150.745 68.6913C150.745 60.9442 147.8 57.2551 140.688 61.3131C133.576 65.3711 130.676 72.4099 130.676 80.3045ZM137.464 75.1398C137.464 71.4802 138.273 68.3076 140.688 66.9205C143.103 65.5334 143.972 67.7174 143.972 71.3474V73.7822C143.972 77.4418 143.044 80.6882 140.688 82.0458C138.332 83.4034 137.464 81.2047 137.464 77.6189V75.1398Z" fill="url(#paint2_linear)"/>
<path d="M140.689 66.9203C143.045 65.548 143.973 67.7172 143.973 71.3472V73.782C143.973 77.4416 143.045 80.688 140.689 82.0456C138.334 83.4032 137.465 81.2045 137.465 77.6187V75.1396C137.465 71.48 138.275 68.3074 140.689 66.9203Z" fill="#A2B7EB"/>
<path d="M98.7852 101.362L126.201 25.4697L134.314 30.1032L106.898 105.995L98.7852 101.362Z" fill="url(#paint3_linear)"/>
<path d="M106.895 105.994L134.311 30.1025L141.422 25.9707L114.153 101.789L106.895 105.994Z" fill="url(#paint4_linear)"/>
<path d="M126.199 25.4696L134.312 30.1031L141.424 25.9713L133.326 21.3525L126.199 25.4696Z" fill="#BFCDEF"/>
<path d="M84.3086 59.0258C84.3086 51.1312 87.2534 44.2695 94.3062 40.0787C97.3983 38.2932 99.6952 37.9538 101.315 38.7801L101.58 38.9277L110.076 43.812L99.7688 49.7146C99.0621 55.3515 98.4878 60.1326 93.6731 63.6151L95.705 72.3803L87.4006 67.5993C85.2362 66.5368 84.3086 63.4527 84.3086 59.0258Z" fill="url(#paint5_linear)"/>
<path d="M92.9375 64.0424C92.9375 71.7895 95.8823 75.3753 102.95 71.2583C110.017 67.1412 113.006 60.1762 113.006 52.4291C113.006 44.6821 110.062 40.9782 102.95 45.051C95.8381 49.1237 92.9375 56.1478 92.9375 64.0424ZM99.7253 58.8777C99.7253 55.2181 100.535 52.0455 102.95 50.6436C105.365 49.2418 106.233 51.4552 106.233 55.0705V57.4168C106.233 61.0764 105.306 64.308 102.95 65.6656C100.594 67.0232 99.7253 64.8392 99.7253 61.2387V58.8777Z" fill="url(#paint6_linear)"/>
<path d="M102.951 50.6436C105.307 49.286 106.235 51.4552 106.235 55.0705V57.4167C106.235 61.0763 105.307 64.3079 102.951 65.6655C100.595 67.0231 99.7266 64.8392 99.7266 61.2386V58.8776C99.7266 55.218 100.536 52.0454 102.951 50.6436Z" fill="#A2B7EB"/>
<path d="M127.759 217.391L153.335 220.77L128.745 245.029L96.1758 222.054L127.759 217.391Z" fill="#DA6900"/>
<path d="M114.684 205.423L135.666 202.855L158.562 216.092L129.658 241.945L96.1758 222.053L114.684 205.423Z" fill="url(#paint7_linear)"/>
<path d="M125.701 211.798L114.688 205.423L135.669 202.855L125.701 211.798Z" fill="#D0DBF8"/>
<defs>
<linearGradient id="paint0_linear" x1="303.654" y1="131.494" x2="113.817" y2="131.494" gradientUnits="userSpaceOnUse">
<stop stop-color="#EEF2FC"/>
<stop offset="0.36" stop-color="#E9EEFB"/>
<stop offset="0.76" stop-color="#DCE4FA"/>
<stop offset="1" stop-color="#D0DBF8"/>
</linearGradient>
<linearGradient id="paint1_linear" x1="147.814" y1="71.6571" x2="122.032" y2="71.6571" gradientUnits="userSpaceOnUse">
<stop stop-color="#D0DBF8"/>
<stop offset="1" stop-color="#A2B7E8"/>
</linearGradient>
<linearGradient id="paint2_linear" x1="141988" y1="1552.96" x2="142261" y2="1552.96" gradientUnits="userSpaceOnUse">
<stop stop-color="#EEF2FC"/>
<stop offset="0.36" stop-color="#E9EEFB"/>
<stop offset="0.76" stop-color="#DCE4FA"/>
<stop offset="1" stop-color="#D0DBF8"/>
</linearGradient>
<linearGradient id="paint3_linear" x1="2482.43" y1="3612.07" x2="3339.4" y2="3612.07" gradientUnits="userSpaceOnUse">
<stop stop-color="#F8FAFF"/>
<stop offset="0.36" stop-color="#E9EEFB"/>
<stop offset="0.76" stop-color="#DCE4FA"/>
<stop offset="1" stop-color="#D0DBF8"/>
</linearGradient>
<linearGradient id="paint4_linear" x1="2613.62" y1="3604.63" x2="3423.3" y2="3604.63" gradientUnits="userSpaceOnUse">
<stop stop-color="#D0DBF8"/>
<stop offset="1" stop-color="#A2B7E8"/>
</linearGradient>
<linearGradient id="paint5_linear" x1="182931" y1="1315.76" x2="183382" y2="1315.76" gradientUnits="userSpaceOnUse">
<stop stop-color="#D0DBF8"/>
<stop offset="1" stop-color="#A2B7E8"/>
</linearGradient>
<linearGradient id="paint6_linear" x1="142465" y1="1210.46" x2="142738" y2="1210.46" gradientUnits="userSpaceOnUse">
<stop stop-color="#EEF2FC"/>
<stop offset="0.36" stop-color="#E9EEFB"/>
<stop offset="0.76" stop-color="#DCE4FA"/>
<stop offset="1" stop-color="#D0DBF8"/>
</linearGradient>
<linearGradient id="paint7_linear" x1="158.547" y1="222.408" x2="96.1758" y2="222.408" gradientUnits="userSpaceOnUse">
<stop stop-color="#F7F9FE"/>
<stop offset="0.42" stop-color="#F2F5FD"/>
<stop offset="0.88" stop-color="#E5EBFB"/>
<stop offset="1" stop-color="#E0E7FA"/>
</linearGradient>
</defs>
</svg>
