<svg width="131" height="112" viewBox="0 0 131 112" fill="none" xmlns="http://www.w3.org/2000/svg">
<path d="M130.662 54.6186V68.4126C130.662 71.1628 129.934 73.8641 128.553 76.2426C127.171 78.6212 125.185 80.5924 122.795 81.9565L76.9526 108.115C73.4139 110.138 69.4079 111.202 65.3311 111.202C61.2542 111.202 57.2482 110.138 53.7095 108.115L7.88479 81.9565C5.49061 80.5961 3.49975 78.6262 2.11477 76.2471C0.729788 73.8681 0.000122917 71.1649 0 68.4126V53.6895L47.0405 85.53C52.4245 89.2224 58.8012 91.1986 65.3311 91.1986C71.8609 91.1986 78.2375 89.2224 83.6216 85.53L130.662 54.6186Z" fill="url(#paint0_linear)"/>
<path d="M5.85954 43.4349L53.6152 15.8469C57.1758 13.7925 61.2148 12.7109 65.3262 12.7109C69.4376 12.7109 73.4765 13.7925 77.0371 15.8469L124.864 43.4349C126.647 44.459 128.128 45.9349 129.158 47.7136C130.188 49.4923 130.73 51.511 130.73 53.566C130.73 55.621 130.188 57.6397 129.158 59.4184C128.128 61.1971 126.647 62.6729 124.864 63.6971L77.0371 91.2494C73.4765 93.3037 69.4376 94.3853 65.3262 94.3853C61.2148 94.3853 57.1758 93.3037 53.6152 91.2494L5.85954 63.6971C4.08132 62.6693 2.60488 61.1921 1.57845 59.4139C0.552016 57.6356 0.0117188 55.6189 0.0117188 53.566C0.0117188 51.5131 0.552016 49.4963 1.57845 47.7181C2.60488 45.9398 4.08132 44.4627 5.85954 43.4349Z" fill="url(#paint1_linear)"/>
<path d="M5.85954 43.4349L53.6152 15.8469C57.1758 13.7925 61.2148 12.7109 65.3262 12.7109C69.4376 12.7109 73.4765 13.7925 77.0371 15.8469L124.864 43.4349C126.647 44.459 128.128 45.9349 129.158 47.7136C130.188 49.4923 130.73 51.511 130.73 53.566C130.73 55.621 130.188 57.6397 129.158 59.4184C128.128 61.1971 126.647 62.6729 124.864 63.6971L77.0371 91.2494C73.4765 93.3037 69.4376 94.3853 65.3262 94.3853C61.2148 94.3853 57.1758 93.3037 53.6152 91.2494L5.85954 63.6971C4.08132 62.6693 2.60488 61.1921 1.57845 59.4139C0.552016 57.6356 0.0117188 55.6189 0.0117188 53.566C0.0117188 51.5131 0.552016 49.4963 1.57845 47.7181C2.60488 45.9398 4.08132 44.4627 5.85954 43.4349Z" fill="url(#paint2_linear)"/>
<path d="M65.3245 89.4264C62.0856 89.4312 58.9029 88.5806 56.0988 86.9606L8.34307 59.4084C7.31411 58.8184 6.45917 57.9674 5.86464 56.9415C5.2701 55.9156 4.95703 54.7511 4.95703 53.5656C4.95703 52.38 5.2701 51.2155 5.86464 50.1896C6.45917 49.1637 7.31411 48.3127 8.34307 47.7228L56.0988 20.1705C58.9135 18.5812 62.0916 17.7461 65.3245 17.7461C68.5574 17.7461 71.7354 18.5812 74.5502 20.1705L122.324 47.7228C123.348 48.3164 124.199 49.1686 124.79 50.1941C125.381 51.2195 125.692 52.3821 125.692 53.5656C125.692 54.749 125.381 55.9116 124.79 56.9371C124.199 57.9625 123.348 58.8147 122.324 59.4084L74.5502 86.9606C71.7471 88.5829 68.5638 89.4337 65.3245 89.4264ZM65.3245 19.4915C62.4019 19.4951 59.5306 20.2587 56.9927 21.7071L9.23704 49.2773C8.48322 49.7114 7.85714 50.3363 7.42182 51.0892C6.9865 51.842 6.75735 52.6961 6.75735 53.5656C6.75735 54.435 6.9865 55.2892 7.42182 56.042C7.85714 56.7948 8.48322 57.4197 9.23704 57.8538L56.9212 85.424C59.4641 86.8565 62.3339 87.6091 65.253 87.6091C68.1721 87.6091 71.0418 86.8565 73.5848 85.424L121.358 57.8538C122.108 57.4161 122.729 56.7899 123.161 56.0376C123.593 55.2852 123.82 54.4329 123.82 53.5656C123.82 52.6982 123.593 51.8459 123.161 51.0936C122.729 50.3412 122.108 49.715 121.358 49.2773L73.5848 21.7071C71.0767 20.2411 68.2299 19.4528 65.3245 19.42V19.4915Z" fill="#2ACAF7"/>
<path d="M39.8008 28.5566V30.7996C39.8008 34.3411 40.686 36.3598 42.9106 35.0612C45.1353 33.7626 45.9506 30.6933 45.9506 27.199V24.956C45.9506 21.4145 45.1819 19.3368 42.9106 20.6708C40.6394 22.0048 39.8008 25.0623 39.8008 28.5566Z" fill="black"/>
<path d="M62.8516 43.1949C62.8516 36.8792 65.181 31.3308 70.7601 28.0372C73.2061 26.6087 75.0231 26.3372 76.3043 26.9983L76.5023 27.1164L83.2345 31.0238L75.0813 35.7459C74.5222 40.2554 74.068 44.0803 70.2593 46.8781L71.8666 53.8785L65.3092 50.0182C63.5853 49.1683 62.8516 46.6656 62.8516 43.1949Z" fill="#36C25E"/>
<path d="M69.6797 47.161C69.6797 53.3587 72.0092 56.2273 77.5999 52.9337C83.1906 49.6401 85.5551 44.0681 85.5551 37.8704C85.5551 31.6727 83.2256 28.7215 77.5999 31.9679C71.9742 35.2143 69.6797 40.8453 69.6797 47.161ZM75.0491 43.0292C75.0491 40.1016 75.6897 37.5635 77.5999 36.4538C79.5101 35.3441 80.1973 37.0913 80.1973 39.9953V41.9432C80.1973 44.8708 79.4635 47.4679 77.5999 48.554C75.7363 49.6401 75.0491 47.8811 75.0491 45.0125V43.0292Z" fill="#27E35C"/>
<path d="M77.5977 36.4544C79.4612 35.3565 80.195 37.0919 80.195 39.9959V41.9438C80.195 44.8714 79.4612 47.4686 77.5977 48.5546C75.7341 49.6407 75.0469 47.8817 75.0469 45.0131V43.0298C75.0469 40.1022 75.6875 37.5641 77.5977 36.4544Z" fill="#1EB047"/>
<path d="M44.4492 64.0075L66.1366 3.29395L72.5543 7.00074L50.8669 67.7143L44.4492 64.0075Z" fill="#5CF387"/>
<path d="M50.8672 67.7143L72.5546 7.00073L78.1803 3.69531L56.6093 64.3498L50.8672 67.7143Z" fill="#27E35C"/>
<path d="M66.1367 3.29362L72.5544 7.00041L78.1801 3.69499L71.7741 0L66.1367 3.29362Z" fill="#36C21E"/>
<path d="M33 30.1382C33 23.8225 35.3295 18.3332 40.9086 14.9805C43.3545 13.5521 45.1715 13.2806 46.4527 13.9417L46.6624 14.0597L53.3829 17.9672L45.2297 22.6892C44.6707 27.1988 44.2164 31.0236 40.4077 33.8096L42.0151 40.8218L35.446 36.997C33.7338 36.147 33 33.6798 33 30.1382Z" fill="#5CF387"/>
<path d="M39.8242 34.1525C39.8242 40.3501 42.1537 43.2188 47.7444 39.9252C53.3352 36.6315 55.6996 31.0595 55.6996 24.8619C55.6996 18.6642 53.3701 15.7011 47.7444 18.9593C42.1188 22.2175 39.8242 27.8368 39.8242 34.1525ZM45.1937 30.0207C45.1937 27.093 45.8343 24.5549 47.7444 23.4335C49.6546 22.312 50.3418 24.0827 50.3418 26.975V28.852C50.3418 31.7796 49.608 34.365 47.7444 35.451C45.8809 36.5371 45.1937 34.7899 45.1937 31.9095V30.0207Z" fill="#27E35C"/>
<path d="M47.7461 23.433C49.6097 22.3469 50.3435 24.0823 50.3435 26.9745V28.8515C50.3435 31.7792 49.6097 34.3645 47.7461 35.4506C45.8825 36.5367 45.1953 34.7895 45.1953 31.9091V30.0202C45.1953 27.0926 45.8359 24.5545 47.7461 23.433Z" fill="#1EB047"/>
<defs>
<linearGradient id="paint0_linear" x1="54256.1" y1="9731.39" x2="44707.3" y2="9731.39" gradientUnits="userSpaceOnUse">
<stop stop-color="#CACEFC"/>
<stop offset="0.11" stop-color="#BABEFB"/>
<stop offset="0.26" stop-color="#A7ACFA"/>
<stop offset="0.38" stop-color="#A0A5FA"/>
<stop offset="0.44" stop-color="#AFB4FB"/>
<stop offset="0.58" stop-color="#D7D9FD"/>
<stop offset="0.69" stop-color="white"/>
</linearGradient>
<linearGradient id="paint1_linear" x1="65.3709" y1="12.7021" x2="65.3709" y2="94.3818" gradientUnits="userSpaceOnUse">
<stop stop-color="#0E004F"/>
<stop offset="1" stop-color="#5E45D9"/>
</linearGradient>
<linearGradient id="paint2_linear" x1="22622.1" y1="19372" x2="32173.7" y2="19372" gradientUnits="userSpaceOnUse">
<stop stop-color="#0E004F"/>
<stop offset="1" stop-color="#5E45D9"/>
</linearGradient>
</defs>
</svg>
