<svg width="131" height="99" viewBox="0 0 131 99" fill="none" xmlns="http://www.w3.org/2000/svg">
<path d="M130.662 41.9077V55.7017C130.662 58.4519 129.934 61.1532 128.553 63.5317C127.171 65.9102 125.185 67.8814 122.795 69.2455L76.9526 95.4041C73.4139 97.4272 69.4079 98.4914 65.3311 98.4914C61.2542 98.4914 57.2482 97.4272 53.7095 95.4041L7.88479 69.2455C5.49061 67.8851 3.49975 65.9152 2.11477 63.5362C0.729788 61.1572 0.000122917 58.454 0 55.7017V40.9785L47.0405 72.8191C52.4245 76.5114 58.8012 78.4877 65.3311 78.4877C71.8609 78.4877 78.2375 76.5114 83.6216 72.8191L130.662 41.9077Z" fill="url(#paint0_linear)"/>
<path d="M5.84783 30.724L53.6035 3.13593C57.164 1.08154 61.203 0 65.3144 0C69.4258 0 73.4648 1.08154 77.0254 3.13593L124.853 30.724C126.635 31.7481 128.116 33.2239 129.146 35.0026C130.176 36.7814 130.718 38.8 130.718 40.855C130.718 42.9101 130.176 44.9287 129.146 46.7075C128.116 48.4862 126.635 49.962 124.853 50.9861L77.0254 78.5384C73.4648 80.5928 69.4258 81.6744 65.3144 81.6744C61.203 81.6744 57.164 80.5928 53.6035 78.5384L5.84783 50.9861C4.0696 49.9584 2.59317 48.4812 1.56673 46.703C0.540298 44.9247 0 42.9079 0 40.855C0 38.8022 0.540298 36.7854 1.56673 35.0071C2.59317 33.2289 4.0696 31.7517 5.84783 30.724Z" fill="url(#paint1_linear)"/>
<path d="M5.84783 30.724L53.6035 3.13593C57.164 1.08154 61.203 0 65.3144 0C69.4258 0 73.4648 1.08154 77.0254 3.13593L124.853 30.724C126.635 31.7481 128.116 33.2239 129.146 35.0026C130.176 36.7814 130.718 38.8 130.718 40.855C130.718 42.9101 130.176 44.9287 129.146 46.7075C128.116 48.4862 126.635 49.962 124.853 50.9861L77.0254 78.5384C73.4648 80.5928 69.4258 81.6744 65.3144 81.6744C61.203 81.6744 57.164 80.5928 53.6035 78.5384L5.84783 50.9861C4.0696 49.9584 2.59317 48.4812 1.56673 46.703C0.540298 44.9247 0 42.9079 0 40.855C0 38.8022 0.540298 36.7854 1.56673 35.0071C2.59317 33.2289 4.0696 31.7517 5.84783 30.724Z" fill="url(#paint2_linear)"/>
<path d="M65.3245 76.7155C62.0856 76.7203 58.9029 75.8696 56.0988 74.2497L8.34307 46.6974C7.31411 46.1074 6.45917 45.2565 5.86464 44.2306C5.2701 43.2047 4.95703 42.0402 4.95703 40.8546C4.95703 39.6691 5.2701 38.5045 5.86464 37.4786C6.45917 36.4527 7.31411 35.6018 8.34307 35.0118L56.0988 7.45955C58.9135 5.87029 62.0916 5.03516 65.3245 5.03516C68.5574 5.03516 71.7354 5.87029 74.5502 7.45955L122.324 35.0118C123.348 35.6055 124.199 36.4577 124.79 37.4831C125.381 38.5086 125.692 39.6712 125.692 40.8546C125.692 42.038 125.381 43.2007 124.79 44.2261C124.199 45.2515 123.348 46.1038 122.324 46.6974L74.5502 74.2497C71.7471 75.872 68.5638 76.7228 65.3245 76.7155ZM65.3245 6.78056C62.4019 6.78416 59.5306 7.54773 56.9927 8.99618L9.23704 36.5663C8.48322 37.0005 7.85714 37.6254 7.42182 38.3782C6.9865 39.131 6.75735 39.9851 6.75735 40.8546C6.75735 41.7241 6.9865 42.5782 7.42182 43.331C7.85714 44.0838 8.48322 44.7088 9.23704 45.1429L56.9212 72.7131C59.4641 74.1456 62.3339 74.8982 65.253 74.8982C68.1721 74.8982 71.0418 74.1456 73.5848 72.7131L121.358 45.1429C122.108 44.7052 122.729 44.079 123.161 43.3266C123.593 42.5743 123.82 41.722 123.82 40.8546C123.82 39.9872 123.593 39.135 123.161 38.3826C122.729 37.6303 122.108 37.0041 121.358 36.5663L73.5848 8.99618C71.0767 7.53012 68.2299 6.74191 65.3245 6.7091V6.78056Z" fill="#2ACAF7"/>
<path d="M41.7109 27.666V41.3999C41.7109 43.8892 43.6947 46.3956 46.6357 48.5244L38.0391 52.9364L43.8688 56.3699L51.6301 51.4772C52.5002 51.9064 53.3703 52.284 54.31 52.6446V33.9149L41.7109 27.666Z" fill="#FF8311"/>
<path d="M69.5166 20.3193C66.4365 21.5039 60.3283 20.7313 60.3283 20.7313H54.168L54.3072 52.6283C60.6068 55.0489 67.6198 55.5983 74.337 51.77C77.1214 50.1734 78.2525 48.594 78.3569 47.0489V18.8086C75.3458 18.8266 72.3585 19.3371 69.5166 20.3193Z" fill="#FF8311"/>
<path d="M78.3594 18.8086V40.7485L85.3028 44.697V30.9974L78.3594 18.8086Z" fill="#FF8311"/>
<path d="M84.3633 19.0482L85.303 30.9967L89.3403 25.8293V16.4902L84.3633 19.0482Z" fill="#DA6900"/>
<path d="M89.3398 16.4908V25.8299V30.2075L92.9595 28.3535V14.6367L89.3398 16.4908Z" fill="#DA6900"/>
<path d="M54.4682 27.5117L52.1016 29.6576L55.5646 34.2585V27.5117H54.4682Z" fill="#DA6900"/>
<path d="M85.3047 30.9975V44.7314C88.2456 43.0146 89.4116 41.2979 89.342 39.3923V25.8301L85.3047 30.9975Z" fill="#DA6900"/>
<path d="M38.0391 39.2715V52.9711L43.8688 56.3015V42.602L38.0391 39.2715Z" fill="#FF8311"/>
<path d="M43.8672 42.6017L51.6285 37.709V51.4086L43.8672 56.3013V42.6017Z" fill="#DA6900"/>
<path d="M85.3032 30.9972L75.7843 25.5552C78.2379 24.0959 76.5499 22.5337 75.1578 21.744C74.2877 21.229 71.4337 19.6152 69.4151 20.7655C64.8731 23.3577 87.2 30.7054 74.3747 37.9328C66.6829 42.3105 58.6084 40.9715 51.6649 37.641L43.8688 42.6367L38 39.3019L46.6357 34.7225C41.3977 30.9972 39.1006 26.0187 46.0092 22.0358L55.5804 27.4779L55.3368 27.6152C52.3436 29.332 54.6929 31.3921 56.1895 32.2504C57.686 33.1088 60.5922 34.6195 62.8023 33.3663C67.5182 30.6882 45.609 23.0659 58.0167 16.0273C65.169 11.9586 72.7215 13.126 79.2473 16.1818L87.113 11.2891L92.9763 14.6359L84.3635 19.0487C89.5667 22.6195 91.916 27.1861 85.3032 30.9972Z" fill="#FFA858"/>
<defs>
<linearGradient id="paint0_linear" x1="54256.1" y1="9718.68" x2="44707.3" y2="9718.68" gradientUnits="userSpaceOnUse">
<stop stop-color="#CACEFC"/>
<stop offset="0.11" stop-color="#BABEFB"/>
<stop offset="0.26" stop-color="#A7ACFA"/>
<stop offset="0.38" stop-color="#A0A5FA"/>
<stop offset="0.44" stop-color="#AFB4FB"/>
<stop offset="0.58" stop-color="#D7D9FD"/>
<stop offset="0.69" stop-color="white"/>
</linearGradient>
<linearGradient id="paint1_linear" x1="65.3592" y1="-0.00881638" x2="65.3592" y2="81.6708" gradientUnits="userSpaceOnUse">
<stop stop-color="#0E004F"/>
<stop offset="1" stop-color="#5E45D9"/>
</linearGradient>
<linearGradient id="paint2_linear" x1="22622.1" y1="19359.3" x2="32173.7" y2="19359.3" gradientUnits="userSpaceOnUse">
<stop stop-color="#0E004F"/>
<stop offset="1" stop-color="#5E45D9"/>
</linearGradient>
</defs>
</svg>
