<svg width="56" height="48" viewBox="0 0 56 48" fill="none" xmlns="http://www.w3.org/2000/svg">
<g clip-path="url(#clip0)">
<path d="M4.21091 19.3652V33.0991C4.21091 35.5884 6.19475 38.0948 9.13571 40.2236L0.539062 44.6356L6.36877 48.0691L14.1301 43.1764C15.0002 43.6056 15.8703 43.9833 16.81 44.3438V25.6142L4.21091 19.3652Z" fill="#FF8311"/>
<path d="M32.0166 12.0176C28.9365 13.2021 22.8283 12.4296 22.8283 12.4296H16.668L16.8072 44.3266C23.1068 46.7472 30.1198 47.2965 36.837 43.4682C39.6214 41.8716 40.7525 40.2922 40.8569 38.7472V10.5068C37.8458 10.5248 34.8585 11.0353 32.0166 12.0176Z" fill="#FF8311"/>
<path d="M40.8594 10.5068V32.4468L47.8028 36.3953V22.6957L40.8594 10.5068Z" fill="#FF8311"/>
<path d="M46.8633 10.7474L47.803 22.6959L51.8403 17.5285V8.18945L46.8633 10.7474Z" fill="#DA6900"/>
<path d="M51.8398 8.18904V17.5281V21.9058L55.4595 20.0517V6.33496L51.8398 8.18904Z" fill="#DA6900"/>
<path d="M16.9682 19.2109L14.6016 21.3569L18.0646 25.9577V19.2109H16.9682Z" fill="#DA6900"/>
<path d="M47.8047 22.6957V36.4296C50.7456 34.7129 51.9116 32.9961 51.842 31.0906V17.5283L47.8047 22.6957Z" fill="#DA6900"/>
<path d="M0.539062 30.9697V44.6693L6.36877 47.9998V34.3002L0.539062 30.9697Z" fill="#FF8311"/>
<path d="M6.36719 34.3009L14.1285 29.4082V43.1078L6.36719 48.0005V34.3009Z" fill="#DA6900"/>
<path d="M47.8032 22.6955L38.2843 17.2534C40.7379 15.7942 39.0499 14.2319 37.6578 13.4422C36.7877 12.9272 33.9337 11.3135 31.9151 12.4637C27.3731 15.056 49.7 22.4036 36.8747 29.6311C29.1829 34.0088 21.1084 32.6697 14.1649 29.3392L6.36877 34.3349L0.5 31.0002L9.13571 26.4208C3.89767 22.6955 1.60059 17.7169 8.50923 13.7341L18.0804 19.1761L17.8368 19.3135C14.8436 21.0302 17.1929 23.0903 18.6895 23.9487C20.186 24.807 23.0922 26.3178 25.3023 25.0646C30.0182 22.3864 8.10898 14.7641 20.5167 7.7255C27.669 3.65683 35.2215 4.82421 41.7473 7.88001L49.613 2.9873L55.4763 6.33412L46.8635 10.747C52.0667 14.3178 54.416 18.8843 47.8032 22.6955Z" fill="#FFA858"/>
</g>
<defs>
<clipPath id="clip0">
<rect width="56" height="48" fill="white"/>
</clipPath>
</defs>
</svg>
