<svg width="131" height="118" viewBox="0 0 131 118" fill="none" xmlns="http://www.w3.org/2000/svg">
<path d="M130.662 60.6186V74.4126C130.662 77.1628 129.934 79.8641 128.553 82.2426C127.171 84.6212 125.185 86.5924 122.795 87.9565L76.9526 114.115C73.4139 116.138 69.4079 117.202 65.3311 117.202C61.2542 117.202 57.2482 116.138 53.7095 114.115L7.88479 87.9565C5.49061 86.5961 3.49975 84.6262 2.11477 82.2471C0.729788 79.8681 0.000122917 77.1649 0 74.4126V59.6895L47.0405 91.53C52.4245 95.2224 58.8012 97.1986 65.3311 97.1986C71.8609 97.1986 78.2375 95.2224 83.6216 91.53L130.662 60.6186Z" fill="url(#paint0_linear)"/>
<path d="M5.85954 49.4349L53.6152 21.8469C57.1758 19.7925 61.2148 18.7109 65.3262 18.7109C69.4376 18.7109 73.4765 19.7925 77.0371 21.8469L124.864 49.4349C126.647 50.459 128.128 51.9349 129.158 53.7136C130.188 55.4923 130.73 57.511 130.73 59.566C130.73 61.621 130.188 63.6397 129.158 65.4184C128.128 67.1971 126.647 68.6729 124.864 69.6971L77.0371 97.2494C73.4765 99.3037 69.4376 100.385 65.3262 100.385C61.2148 100.385 57.1758 99.3037 53.6152 97.2494L5.85954 69.6971C4.08132 68.6693 2.60488 67.1921 1.57845 65.4139C0.552016 63.6356 0.0117188 61.6189 0.0117188 59.566C0.0117188 57.5131 0.552016 55.4963 1.57845 53.7181C2.60488 51.9398 4.08132 50.4627 5.85954 49.4349Z" fill="url(#paint1_linear)"/>
<path d="M5.85954 49.4349L53.6152 21.8469C57.1758 19.7925 61.2148 18.7109 65.3262 18.7109C69.4376 18.7109 73.4765 19.7925 77.0371 21.8469L124.864 49.4349C126.647 50.459 128.128 51.9349 129.158 53.7136C130.188 55.4923 130.73 57.511 130.73 59.566C130.73 61.621 130.188 63.6397 129.158 65.4184C128.128 67.1971 126.647 68.6729 124.864 69.6971L77.0371 97.2494C73.4765 99.3037 69.4376 100.385 65.3262 100.385C61.2148 100.385 57.1758 99.3037 53.6152 97.2494L5.85954 69.6971C4.08132 68.6693 2.60488 67.1921 1.57845 65.4139C0.552016 63.6356 0.0117188 61.6189 0.0117188 59.566C0.0117188 57.5131 0.552016 55.4963 1.57845 53.7181C2.60488 51.9398 4.08132 50.4627 5.85954 49.4349Z" fill="url(#paint2_linear)"/>
<path d="M65.3265 95.4264C62.0875 95.4312 58.9049 94.5806 56.1007 92.9606L8.34502 65.4084C7.31606 64.8184 6.46113 63.9674 5.86659 62.9415C5.27206 61.9156 4.95898 60.7511 4.95898 59.5656C4.95898 58.38 5.27206 57.2155 5.86659 56.1896C6.46113 55.1637 7.31606 54.3127 8.34502 53.7228L56.1007 26.1705C58.9155 24.5812 62.0935 23.7461 65.3265 23.7461C68.5594 23.7461 71.7374 24.5812 74.5521 26.1705L122.326 53.7228C123.35 54.3164 124.2 55.1686 124.792 56.1941C125.383 57.2195 125.694 58.3821 125.694 59.5656C125.694 60.749 125.383 61.9116 124.792 62.9371C124.2 63.9625 123.35 64.8147 122.326 65.4084L74.5521 92.9606C71.749 94.5829 68.5657 95.4337 65.3265 95.4264ZM65.3265 25.4915C62.4039 25.4951 59.5326 26.2587 56.9947 27.7071L9.23899 55.2773C8.48517 55.7114 7.85909 56.3363 7.42377 57.0892C6.98846 57.842 6.7593 58.6961 6.7593 59.5656C6.7593 60.435 6.98846 61.2892 7.42377 62.042C7.85909 62.7948 8.48517 63.4197 9.23899 63.8538L56.9232 91.424C59.4661 92.8565 62.3358 93.6091 65.2549 93.6091C68.174 93.6091 71.0438 92.8565 73.5867 91.424L121.36 63.8538C122.11 63.4161 122.731 62.7899 123.163 62.0376C123.595 61.2852 123.822 60.4329 123.822 59.5656C123.822 58.6982 123.595 57.8459 123.163 57.0936C122.731 56.3412 122.11 55.715 121.36 55.2773L73.5867 27.7071C71.0787 26.2411 68.2319 25.4528 65.3265 25.42V25.4915Z" fill="#2ACAF7"/>
<g clip-path="url(#clip0)">
<path d="M34.6019 19.034C32.7698 20.1624 30.7579 20.9732 28.6522 21.4317C27.8609 21.6337 27.0532 21.766 26.2385 21.8273C26.0105 20.7695 25.8692 19.695 25.8161 18.6144C22.1111 18.6144 22.8473 13.5193 22.8473 13.5193L32.152 8.50812C32.3831 8.34787 32.625 8.20366 32.8761 8.07654C34.8795 7.11746 37.4863 7.23734 40.3706 8.60403C41.9395 11.4813 37.1121 17.2957 34.6019 19.034Z" fill="url(#paint3_linear)"/>
<path d="M83.6473 65.4292L52.366 47.4465C55.0452 44.9169 57.6399 42.2914 60.3674 39.7978C63.8913 36.5969 67.6084 33.5398 70.891 30.0871C73.1719 27.6894 78.2648 23.6373 80.4492 21.1797C83.7801 25.0759 86.061 30.3509 86.061 34.9425C86.0678 35.851 85.9624 36.7569 85.7472 37.6399C86.0854 37.791 86.4157 37.9591 86.7368 38.1434C92.9762 41.7639 98.0449 50.4436 98.0449 57.5647C98.0449 61.0774 96.8381 63.559 94.8106 64.7578H94.7382L85.0835 70.0088L83.5628 65.7888H84.468L83.6473 65.4292Z" fill="url(#paint4_linear)"/>
<path d="M51.1706 46.7999L50.724 46.5362L54.9238 43.1914C53.6808 44.4022 52.4377 45.6131 51.1706 46.7999Z" fill="#52A5EA"/>
<path d="M29.6767 22.4634C32.1532 21.9081 34.464 20.7829 36.4229 19.1786C37.4831 18.0996 38.2701 16.7859 38.7191 15.3457C39.1681 13.9054 39.2663 12.3798 39.0056 10.8945L39.621 11.2902C39.7 10.3933 39.8657 9.50603 40.1158 8.64069C39.1236 8.3172 38.2109 7.79032 37.4367 7.09418L46.9828 1.90317H47.0914C49.8188 0.404604 53.56 0.704316 57.6874 3.03008C62.7086 6.17786 66.7427 10.6587 69.3334 15.9657C70.4033 15.7411 71.5075 15.7314 72.5812 15.9373C73.6548 16.1432 74.6761 16.5605 75.5849 17.1645C77.0442 18.0242 78.373 19.0859 79.5312 20.3175C77.1176 23.0269 71.8437 27.3667 69.2852 29.9083L67.7646 31.3948C67.6197 31.3991 67.4801 31.4496 67.3663 31.5387C61.3321 36.3341 55.4669 41.1295 49.4689 45.9249L39.5124 40.2184V40.1584C39.1504 39.9906 38.7883 39.7988 38.4142 39.595C32.9231 36.442 28.2526 29.7764 26.4906 23.2067C27.5746 23.0631 28.6417 22.8142 29.6767 22.4634Z" fill="url(#paint5_linear)"/>
<path d="M75.623 17.0923C81.3917 20.4011 86.0622 28.4574 86.0622 34.9791C86.069 35.8876 85.9636 36.7935 85.7484 37.6765L76.2023 42.8436C51.5828 46.4401 59.8134 21.0605 59.8134 21.0605L69.3716 15.8695C70.443 15.6483 71.5482 15.6426 72.6218 15.8526C73.6955 16.0626 74.716 16.4841 75.623 17.0923Z" fill="url(#paint6_linear)"/>
<path d="M19.3102 21.517C19.3102 29.5014 24.9824 39.224 31.9821 43.2402C32.2355 43.3841 32.4769 43.5159 32.7303 43.6358L33.0682 43.8036V43.8636L49.3606 53.2026L56.2878 57.2308L77.1782 69.2192C77.7904 69.5691 78.4278 69.8736 79.085 70.1304C84.4193 72.1564 88.4863 69.1953 88.4863 62.8054C88.4863 55.6842 83.4297 47.0166 77.1782 43.432C76.8403 43.2402 76.5265 43.0724 76.2007 42.9165C76.4071 42.0322 76.5084 41.1269 76.5024 40.2191C76.5024 34.2248 72.5681 26.9478 67.4632 23.2554C67.0166 22.9283 66.5533 22.6241 66.0753 22.3443C65.1644 21.7399 64.141 21.3225 63.0654 21.1166C61.9898 20.9107 60.8836 20.9205 59.8118 21.1454C57.2471 15.7864 53.2099 11.2564 48.1658 8.07795C46.7871 7.27517 45.2937 6.685 43.7367 6.32763C41.7768 5.82532 39.7017 6.02042 37.8714 6.8791C35.2526 8.16187 33.5027 10.9912 33.1406 15.0912C32.7544 14.8395 32.3683 14.5877 31.9338 14.3599C29.8893 13.0358 27.4431 12.4633 25.0186 12.7415C21.5912 13.3049 19.3102 16.4699 19.3102 21.517Z" fill="#DCFFFF"/>
<path d="M20.8078 21.5169C20.9598 25.6125 22.1691 29.6004 24.3197 33.0978C26.2302 36.5329 28.9407 39.4638 32.2245 41.6456C32.3935 41.7535 32.5624 41.8614 32.7435 41.9573L33.4072 42.305C33.4865 42.3582 33.5715 42.4025 33.6607 42.4369L34.602 42.8924V43.0243L48.8548 51.1645L55.8062 55.1327L77.9396 67.8405C78.1689 67.9723 78.3982 68.1042 78.6275 68.2121C78.9533 68.3739 79.2877 68.5179 79.6292 68.6437C80.4646 68.985 81.357 69.1679 82.2601 69.1832C85.2048 69.1832 86.9668 66.7855 86.9668 62.7454C86.9589 61.612 86.8294 60.4827 86.5806 59.3766C86.1411 57.3408 85.4181 55.3757 84.4324 53.5382C84.2554 53.1865 84.0623 52.8389 83.8531 52.4952C82.0822 49.3058 79.524 46.616 76.419 44.6787C76.1294 44.5229 75.8397 44.367 75.5501 44.2351L74.4157 43.7076L74.7053 42.5088C74.9004 41.7246 74.9937 40.9188 74.9829 40.1111C74.8398 36.7011 73.8041 33.3872 71.9778 30.4963C70.9117 28.7239 69.5994 27.1095 68.0797 25.7009C67.5973 25.2716 67.0895 24.8713 66.5591 24.5021C66.1488 24.2024 65.7264 23.9266 65.3523 23.6749C64.1726 22.9517 62.8269 22.5392 61.4421 22.476C61.0351 22.4693 60.6291 22.5177 60.2353 22.6199L59.0284 22.9676L58.4492 21.8526C56.0047 16.7599 52.1597 12.4582 47.3583 9.44454C46.3184 8.83452 45.2081 8.35148 44.0516 8.00592C43.7981 7.93399 43.5568 7.86206 43.3154 7.8141C42.6704 7.66487 42.0105 7.58846 41.3482 7.58632C40.3634 7.57562 39.3892 7.78886 38.5001 8.20972L38.1984 8.36557C36.8421 9.19132 35.8212 10.4644 35.314 11.9621C34.9355 12.9967 34.7 14.0775 34.6141 15.175L34.3968 17.7526L33.4434 17.1052L32.2366 16.302C31.8504 16.0382 31.5004 15.8224 31.1746 15.6306C30.7836 15.4055 30.3807 15.2014 29.9677 15.0192C28.8085 14.455 27.541 14.1443 26.2507 14.1081C25.9593 14.1012 25.668 14.1253 25.3817 14.18H25.2731C22.4612 14.6955 20.8078 17.3569 20.8078 21.5169Z" fill="#CFF2FF"/>
<path d="M52.1976 19.166L59.0887 26.5629L70.252 50.468L67.8262 54.6639L62.9747 53.2373V60.9579L56.8802 57.5172L52.1976 19.166Z" fill="#6ECED8"/>
<path d="M39.2122 8.16138L38.9105 8.32922C36.883 9.52807 35.6158 11.9258 35.29 15.1507L35.1089 17.3206L34.409 17.7762L34.6262 15.1986C34.9158 11.9258 36.183 9.52807 38.2467 8.36519L38.5484 8.20934C39.3734 7.81344 40.2753 7.60072 41.1914 7.58594C40.5033 7.66351 39.8338 7.85817 39.2122 8.16138Z" fill="#AACDEC"/>
<path d="M25.3194 14.2149H25.428C25.6892 14.1966 25.9513 14.1966 26.2124 14.2149H26.0918H25.9831C23.135 14.6944 21.4937 17.3559 21.4937 21.5159C21.6397 25.6124 22.8495 29.6018 25.0056 33.0968C26.9133 36.4997 29.6109 39.4014 32.8742 41.5606L33.3931 41.8723L34.0569 42.232L34.3103 42.3519L35.2879 42.8434V42.9753L49.5165 51.1155L56.4438 55.0837L78.6014 67.7915L79.2893 68.1631C79.6272 68.3309 79.9651 68.4748 80.291 68.6067C81.1289 68.9381 82.0201 69.1168 82.9219 69.1342C82.6968 69.1465 82.4712 69.1465 82.246 69.1342C81.3429 69.1189 80.4506 68.936 79.6151 68.5947C79.2736 68.4689 78.9392 68.3249 78.6135 68.1631L77.9256 67.7915L55.8042 55.1316L48.8769 51.1514L34.6241 42.9873V42.8434L33.6828 42.3878L33.4293 42.268L32.7656 41.9083L32.2466 41.5966C28.9731 39.4252 26.2709 36.5065 24.366 33.0848C22.1949 29.598 20.9684 25.6126 20.8058 21.5159C20.8058 17.3559 22.4712 14.6944 25.3194 14.2149Z" fill="#AACDEC"/>
<path d="M60.8985 22.464L59.6917 22.7997V22.6798L60.2951 22.5C60.6889 22.3977 61.095 22.3493 61.502 22.3561C61.2977 22.3723 61.0956 22.4085 60.8985 22.464Z" fill="#428BD0"/>
<path d="M77.1782 45.0623C76.8403 44.8705 76.5265 44.7026 76.2007 44.5468C76.3192 44.0333 76.4039 43.5127 76.4541 42.9883C76.6955 43.1082 76.9369 43.2281 77.1782 43.3719C83.4297 46.9685 88.4863 55.6242 88.4863 62.7453C88.4863 63.033 88.4863 63.3088 88.4863 63.5845C88.0881 56.6312 83.1762 48.503 77.1782 45.0623Z" fill="#DCFFFF"/>
<path d="M67.4627 24.8618C67.016 24.5386 66.5528 24.2384 66.0749 23.9627C65.1639 23.3583 64.1406 22.9409 63.065 22.735C61.9893 22.5291 60.8831 22.5389 59.8113 22.7639C57.2279 17.4489 53.1924 12.9624 48.1653 9.81628C46.786 9.01768 45.2926 8.43156 43.7362 8.07795C41.7951 7.58194 39.7413 7.76395 37.9193 8.59346C35.3004 9.87623 33.5505 12.7175 33.1884 16.8176C32.8023 16.5658 32.4161 16.314 31.9816 16.0863C29.9371 14.7621 27.4909 14.1896 25.0664 14.4678C21.7838 15.0193 19.5632 17.8606 19.3218 22.4402C19.3218 22.1524 19.3218 21.8647 19.3218 21.577C19.3218 16.5059 21.6028 13.3649 25.0785 12.7774C27.503 12.4992 29.9492 13.0717 31.9937 14.3959C32.3799 14.6237 32.7661 14.8754 33.2005 15.1272C33.5022 10.9672 35.2883 8.1379 37.871 6.8791C39.7012 6.02042 41.7763 5.82532 43.7362 6.32763C45.2933 6.685 46.7867 7.27517 48.1653 8.07795C53.1924 11.224 57.2279 15.7105 59.8113 21.0255C60.8831 20.8006 61.9893 20.7908 63.065 20.9967C64.1406 21.2026 65.1639 21.62 66.0749 22.2244C66.5529 22.5043 67.0161 22.8084 67.4627 23.1355C72.5677 26.8279 76.502 34.069 76.502 40.0992C76.502 40.3869 76.502 40.6627 76.502 40.9264C76.1651 37.7812 75.1905 34.7363 73.637 31.9754C72.0834 29.2145 69.9831 26.7946 67.4627 24.8618Z" fill="#DCFFFF"/>
<path d="M25.0548 12.7175C27.4796 12.4352 29.9271 13.008 31.97 14.3359C32.3683 14.5637 32.7544 14.8155 33.1768 15.0672C33.4906 10.9672 35.2888 8.13787 37.8714 6.87908C39.6892 6.0495 41.7393 5.86744 43.6764 6.36357C45.2526 6.70241 46.7669 7.28065 48.1658 8.07793C53.1869 11.2257 57.221 15.7065 59.8118 21.0135C60.8839 20.7946 61.9889 20.7878 63.0637 20.9936C64.1384 21.1993 65.1618 21.6134 66.0753 22.2124C66.5534 22.4964 67.0167 22.8045 67.4632 23.1355C72.5681 26.8399 76.5024 34.069 76.5024 40.0992C76.5122 41.023 76.4109 41.9446 76.2007 42.8445C76.5145 43.0004 76.8403 43.1682 77.1782 43.3601C83.4297 46.9566 88.4863 55.6123 88.4863 62.7334C88.4863 69.1113 84.4193 72.0845 79.085 70.0584C78.4232 69.8072 77.7851 69.4983 77.1782 69.1353L74.2335 67.4569L72.7491 66.6177L69.7924 64.9034L62.8651 60.9472L58.4119 58.4296L56.2878 57.2307L51.4605 54.4854L50.0243 53.6342L49.3485 53.2506L48.5399 52.795L47.0555 51.9318L33.0682 43.9115V43.8036L32.7182 43.6238C32.4604 43.5083 32.2105 43.3761 31.97 43.2282C24.9824 39.248 19.3102 29.5014 19.3102 21.517C19.3102 16.4699 21.5912 13.2929 25.0548 12.7175ZM32.2234 41.6457C32.4045 41.7536 32.5613 41.8615 32.7424 41.9574L33.4061 42.3171L33.6596 42.4369L34.6009 42.8805V43.0244L47.0555 50.2175L48.564 50.9847L48.8778 51.1526L50.0847 51.8239L51.5691 52.6871L55.8534 55.0848L58.4722 56.5953L61.441 58.3097L62.9255 59.1489L69.7924 63.225L74.2335 65.7785L77.9385 67.9005C78.1678 68.0324 78.3971 68.1642 78.6264 68.2721C78.8557 68.38 79.3023 68.5838 79.6402 68.7037C80.471 69.0476 81.3592 69.2346 82.259 69.2552C85.2037 69.2552 86.9536 66.8575 86.9536 62.8054C86.95 61.6724 86.8245 60.5431 86.5795 59.4366C86.1411 57.3988 85.4138 55.433 84.4193 53.5982C84.2503 53.2506 84.0452 52.9029 83.8521 52.5552C82.0881 49.3608 79.5284 46.6694 76.4179 44.7387C76.1162 44.5829 75.8386 44.427 75.549 44.2952L74.4146 43.7677L74.7163 42.5688C74.8925 41.8061 74.9776 41.0255 74.9697 40.243C74.8466 36.7902 73.8147 33.4297 71.9768 30.4964C70.9113 28.7235 69.5989 27.1091 68.0787 25.701C67.5962 25.2717 67.0885 24.8714 66.558 24.5022C66.1477 24.2024 65.7253 23.9267 65.3512 23.675C64.168 22.9499 62.8179 22.5372 61.429 22.4761C61.0421 22.4737 60.6566 22.5221 60.2825 22.62L59.0756 22.9676L58.5205 21.8527C56.0531 16.7528 52.1828 12.4509 47.3572 9.44462C46.3235 8.83086 45.2167 8.34759 44.0625 8.006C43.797 7.93407 43.5557 7.86214 43.3143 7.81418C42.6614 7.66335 41.9933 7.58693 41.323 7.5864C40.3459 7.57552 39.3795 7.78886 38.499 8.2098C38.3909 8.25449 38.2861 8.30656 38.1852 8.36565C36.8285 9.19391 35.8044 10.4655 35.2888 11.9622C34.9293 13.0312 34.7221 14.145 34.6733 15.271L34.444 17.8366L33.4785 17.1892L32.2717 16.386C31.8855 16.1342 31.5355 15.9064 31.1976 15.7146C30.8597 15.5228 30.4011 15.283 29.9908 15.1032C28.8258 14.5432 27.5552 14.2328 26.2616 14.1921C25.9745 14.1927 25.6879 14.2167 25.4048 14.264H25.2962C22.436 14.7435 20.8067 17.405 20.8067 21.553C20.9512 25.6535 22.161 29.6472 24.3186 33.1459C26.2319 36.566 28.9426 39.4807 32.2234 41.6457Z" fill="#DCFFFF"/>
<path d="M53.9463 42.1118L56.8789 64.4224L40.8279 55.9345C39.9791 55.4491 39.2736 54.7505 38.7822 53.9089C38.2908 53.0673 38.0307 52.1121 38.0281 51.1391V32.9766L53.9463 42.1118Z" fill="#27E35C"/>
<path d="M60.0176 51.4164L46.1268 22.668L31.9585 35.3278L60.0176 51.4164Z" fill="#27E35C"/>
<path d="M60.0176 51.4152L45.3907 24.3691L32.4533 35.6143L60.0176 51.4152Z" fill="#27E35C"/>
<path d="M53.9477 47.9395V59.4964C53.9466 60.478 54.2071 61.4425 54.7026 62.2918C55.1982 63.1411 55.9112 63.8451 56.7692 64.3321C57.6272 64.8191 58.5996 65.072 59.5878 65.0649C60.576 65.0578 61.5447 64.791 62.3956 64.2918L65.4609 62.4695L59.9577 59.3045V51.4161L53.9477 47.9395Z" fill="#0FB03C"/>
<path d="M60.0178 51.415L66.0762 47.9144L52.1975 19.166L46.1271 22.6667L60.0178 51.415Z" fill="#0FB03C"/>
</g>
<defs>
<linearGradient id="paint0_linear" x1="54256.1" y1="9737.39" x2="44707.3" y2="9737.39" gradientUnits="userSpaceOnUse">
<stop stop-color="#CACEFC"/>
<stop offset="0.11" stop-color="#BABEFB"/>
<stop offset="0.26" stop-color="#A7ACFA"/>
<stop offset="0.38" stop-color="#A0A5FA"/>
<stop offset="0.44" stop-color="#AFB4FB"/>
<stop offset="0.58" stop-color="#D7D9FD"/>
<stop offset="0.69" stop-color="white"/>
</linearGradient>
<linearGradient id="paint1_linear" x1="65.3709" y1="18.7021" x2="65.3709" y2="100.382" gradientUnits="userSpaceOnUse">
<stop stop-color="#0E004F"/>
<stop offset="1" stop-color="#5E45D9"/>
</linearGradient>
<linearGradient id="paint2_linear" x1="22622.1" y1="19378" x2="32173.7" y2="19378" gradientUnits="userSpaceOnUse">
<stop stop-color="#0E004F"/>
<stop offset="1" stop-color="#5E45D9"/>
</linearGradient>
<linearGradient id="paint3_linear" x1="35.2536" y1="18.6983" x2="29.9484" y2="9.46063" gradientUnits="userSpaceOnUse">
<stop stop-color="#5BBAF2"/>
<stop offset="0.05" stop-color="#61CAF2"/>
<stop offset="0.09" stop-color="#6CCCF6"/>
<stop offset="0.17" stop-color="#7DCEFD"/>
<stop offset="0.23" stop-color="#83CFFF"/>
<stop offset="0.43" stop-color="#83CFFF"/>
<stop offset="0.66" stop-color="#9EE6FF"/>
</linearGradient>
<linearGradient id="paint4_linear" x1="-322.658" y1="2805.9" x2="-1265.1" y2="1279.3" gradientUnits="userSpaceOnUse">
<stop stop-color="#5BBAF2"/>
<stop offset="0.05" stop-color="#61CAF2"/>
<stop offset="0.09" stop-color="#6CCCF6"/>
<stop offset="0.17" stop-color="#7DCEFD"/>
<stop offset="0.23" stop-color="#83CFFF"/>
<stop offset="0.43" stop-color="#83CFFF"/>
<stop offset="0.66" stop-color="#9EE6FF"/>
</linearGradient>
<linearGradient id="paint5_linear" x1="-1492.06" y1="1412.18" x2="-2168.49" y2="29.7631" gradientUnits="userSpaceOnUse">
<stop stop-color="#5BBAF2"/>
<stop offset="0.05" stop-color="#61CAF2"/>
<stop offset="0.09" stop-color="#6CCCF6"/>
<stop offset="0.17" stop-color="#7DCEFD"/>
<stop offset="0.23" stop-color="#83CFFF"/>
<stop offset="0.43" stop-color="#83CFFF"/>
<stop offset="0.66" stop-color="#9EE6FF"/>
</linearGradient>
<linearGradient id="paint6_linear" x1="-372.713" y1="961.748" x2="-684.874" y2="419.644" gradientUnits="userSpaceOnUse">
<stop stop-color="#5BBAF2"/>
<stop offset="0.05" stop-color="#61CAF2"/>
<stop offset="0.09" stop-color="#6CCCF6"/>
<stop offset="0.17" stop-color="#7DCEFD"/>
<stop offset="0.23" stop-color="#83CFFF"/>
<stop offset="0.43" stop-color="#83CFFF"/>
<stop offset="0.66" stop-color="#9EE6FF"/>
</linearGradient>
<clipPath id="clip0">
<rect width="78.7343" height="69.821" fill="white" transform="matrix(-1 0 0 1 98.0449 0.884766)"/>
</clipPath>
</defs>
</svg>
