<svg width="824" height="772" viewBox="0 0 824 772" fill="none" xmlns="http://www.w3.org/2000/svg">
<g filter="url(#filter0_d)">
<path d="M479.259 222.88C479.271 224.656 478.805 226.403 477.912 227.939C477.018 229.474 475.729 230.742 474.178 231.611L250.803 358.927C249.542 359.645 248.493 360.684 247.763 361.939C247.034 363.193 246.65 364.618 246.65 366.069C246.65 367.52 247.034 368.945 247.763 370.199C248.493 371.454 249.542 372.493 250.803 373.211L453.195 488.617L452.281 490.207L249.908 374.8C248.364 373.925 247.081 372.657 246.188 371.125C245.295 369.593 244.825 367.851 244.825 366.078C244.825 364.305 245.295 362.564 246.188 361.031C247.081 359.499 248.364 358.231 249.908 357.356L473.301 230.022C474.562 229.304 475.611 228.265 476.341 227.01C477.07 225.756 477.454 224.331 477.454 222.88C477.454 221.429 477.07 220.004 476.341 218.749C475.611 217.495 474.562 216.456 473.301 215.738L110.282 9H113.938L354.914 146.234L356.742 147.276L474.16 214.148C475.714 215.015 477.007 216.282 477.904 217.818C478.801 219.353 479.269 221.102 479.259 222.88Z" fill="#2ACAF7"/>
<path d="M737.966 575.255C722.667 575.255 710.676 567.602 710.658 557.829C710.701 556.053 711.1 554.304 711.832 552.685C712.563 551.066 713.612 549.61 714.917 548.404C719.925 543.38 728.516 540.385 737.892 540.385C752.935 540.385 765.181 548.203 765.2 557.811C765.155 559.586 764.755 561.335 764.023 562.954C763.292 564.572 762.244 566.028 760.941 567.236C755.914 572.278 747.324 575.255 737.966 575.255ZM737.966 542.211C729.192 542.211 720.894 545.079 716.288 549.701C715.168 550.74 714.268 551.994 713.64 553.387C713.012 554.779 712.67 556.284 712.632 557.811C712.632 566.433 724.074 573.428 738.112 573.428C746.867 573.428 755.183 570.561 759.789 565.939C760.906 564.897 761.804 563.643 762.432 562.251C763.059 560.859 763.404 559.355 763.445 557.829C763.354 549.226 751.93 542.23 737.892 542.23L737.966 542.211Z" fill="#2ACAF7"/>
<path d="M737.947 565.262C731.605 565.262 726.633 561.992 726.633 557.846C726.643 557.073 726.81 556.31 727.124 555.603C727.439 554.897 727.893 554.261 728.461 553.736C731.07 551.461 734.451 550.272 737.911 550.411C744.253 550.411 749.207 553.681 749.225 557.828C749.209 558.6 749.039 559.361 748.725 560.066C748.411 560.772 747.96 561.408 747.397 561.937C744.789 564.214 741.407 565.403 737.947 565.262ZM737.947 552.238C734.976 552.119 732.068 553.116 729.795 555.033C729.404 555.389 729.088 555.82 728.865 556.3C728.642 556.78 728.517 557.299 728.498 557.828C728.498 560.531 732.299 563.435 737.984 563.435C740.95 563.555 743.853 562.558 746.118 560.641C746.516 560.289 746.839 559.86 747.065 559.379C747.291 558.899 747.417 558.377 747.434 557.846C747.47 555.161 743.577 552.238 737.911 552.238H737.947Z" fill="#2ACAF7"/>
<path d="M185.606 614.436C163.307 614.436 145.138 602.91 145.12 588.753C145.184 586.153 145.77 583.592 146.844 581.223C147.918 578.854 149.457 576.725 151.371 574.962C158.81 567.51 171.477 563.053 185.496 563.053C207.795 563.053 225.964 574.579 225.982 588.735C225.92 591.336 225.335 593.897 224.261 596.267C223.187 598.636 221.646 600.765 219.731 602.526C212.292 609.96 199.534 614.436 185.606 614.436ZM185.496 564.879C172.044 564.879 159.761 569.135 152.596 576.241C150.855 577.835 149.451 579.763 148.468 581.909C147.486 584.055 146.944 586.376 146.875 588.735C146.875 601.905 164.239 612.609 185.533 612.609C198.985 612.609 211.268 608.353 218.433 601.247C220.174 599.653 221.578 597.726 222.56 595.58C223.543 593.434 224.085 591.112 224.154 588.753C224.136 575.583 206.79 564.879 185.496 564.879Z" fill="#2ACAF7"/>
<path d="M185.569 599.42C176.43 599.42 169.119 594.726 169.119 588.753C169.141 587.658 169.382 586.578 169.828 585.577C170.274 584.577 170.915 583.675 171.714 582.926C175.537 579.601 180.487 577.862 185.551 578.067C194.799 578.067 202.001 582.761 202.001 588.735C201.974 589.832 201.727 590.913 201.275 591.914C200.823 592.915 200.175 593.815 199.369 594.561C195.556 597.878 190.62 599.616 185.569 599.42ZM185.569 579.894C180.997 579.711 176.523 581.25 173.03 584.204C171.759 585.378 171.004 587.007 170.928 588.735C170.928 593.612 177.527 597.594 185.551 597.594C190.123 597.776 194.597 596.238 198.089 593.283C198.72 592.703 199.231 592.004 199.591 591.227C199.952 590.45 200.156 589.609 200.191 588.753C200.191 583.876 193.648 579.894 185.532 579.894H185.569Z" fill="#2ACAF7"/>
<path d="M286.354 694.386C277.105 694.386 269.904 689.692 269.904 683.719C269.926 682.62 270.171 681.538 270.624 680.536C271.076 679.535 271.726 678.635 272.536 677.892C276.355 674.561 281.307 672.822 286.372 673.033C295.602 673.033 302.822 677.727 302.822 683.7C302.803 684.798 302.561 685.88 302.112 686.881C301.663 687.882 301.015 688.783 300.208 689.527C296.381 692.857 291.424 694.596 286.354 694.386ZM286.354 674.859C281.775 674.673 277.294 676.211 273.797 679.17C272.536 680.35 271.788 681.976 271.713 683.7C271.713 688.577 278.311 692.559 286.335 692.559C290.908 692.742 295.382 691.203 298.874 688.249C299.503 687.668 300.01 686.968 300.368 686.191C300.725 685.414 300.926 684.573 300.958 683.719C300.976 678.841 294.396 674.859 286.317 674.859H286.354Z" fill="#2ACAF7"/>
<path d="M300.081 481.22C287.67 481.22 277.946 474.992 277.928 467.028C277.966 465.578 278.294 464.15 278.894 462.829C279.494 461.508 280.352 460.321 281.419 459.337C285.477 455.246 292.386 452.816 300.026 452.816C312.418 452.816 322.16 459.063 322.16 467.028C322.128 468.477 321.804 469.905 321.207 471.226C320.61 472.547 319.753 473.735 318.688 474.718C314.612 478.791 307.666 481.22 300.081 481.22ZM300.081 454.643C293.08 454.643 286.445 456.945 282.753 460.616C281.862 461.436 281.143 462.426 280.637 463.526C280.132 464.627 279.851 465.817 279.81 467.028C279.81 473.731 289.132 479.394 300.135 479.394C307.136 479.394 313.771 477.111 317.445 473.439C318.336 472.619 319.055 471.629 319.56 470.529C320.066 469.428 320.347 468.238 320.387 467.028C320.333 460.324 311.029 454.698 300.026 454.698L300.081 454.643Z" fill="#2ACAF7"/>
<path d="M208.453 751.999C208.254 751.997 208.06 751.929 207.903 751.807C207.745 751.685 207.632 751.515 207.58 751.322C207.528 751.13 207.541 750.926 207.616 750.741C207.691 750.557 207.825 750.402 207.996 750.3L228.595 738.354L218.287 732.344L188.567 749.551C188.431 749.64 188.272 749.684 188.11 749.679C187.951 749.674 187.796 749.63 187.659 749.55C187.521 749.471 187.406 749.358 187.324 749.222C187.262 749.119 187.221 749.005 187.205 748.887C187.188 748.768 187.195 748.647 187.225 748.532C187.256 748.416 187.31 748.307 187.383 748.212C187.457 748.118 187.548 748.039 187.653 747.98L216.459 731.285L206.132 725.312L165.92 748.601C165.779 748.674 165.622 748.711 165.463 748.711C165.301 748.713 165.141 748.672 164.999 748.592C164.858 748.511 164.74 748.395 164.659 748.254C164.546 748.042 164.518 747.795 164.583 747.563C164.648 747.332 164.799 747.134 165.006 747.012L204.286 724.252L178.916 709.639L125.087 740.692C120.894 743.12 116.134 744.398 111.288 744.398C106.441 744.398 101.681 743.12 97.4877 740.692L24.9059 698.752C23.4142 697.891 22.1756 696.653 21.3145 695.162C20.4533 693.671 20 691.98 20 690.259C20 688.537 20.4533 686.846 21.3145 685.355C22.1756 683.864 23.4142 682.626 24.9059 681.765L97.5242 639.88C101.733 637.498 106.487 636.246 111.324 636.246C116.161 636.246 120.915 637.498 125.124 639.88L197.742 681.765C199.234 682.626 200.473 683.864 201.334 685.355C202.195 686.846 202.648 688.537 202.648 690.259C202.648 691.98 202.195 693.671 201.334 695.162C200.473 696.653 199.234 697.891 197.742 698.752L180.853 708.598L247.056 746.957C249.698 748.493 252.7 749.3 255.757 749.295C259.121 749.241 262.402 748.241 265.225 746.409C297.284 728.143 394.797 671.408 394.797 671.408L321.502 629.103C318.371 627.294 315.772 624.693 313.964 621.562C312.157 618.432 311.206 614.881 311.206 611.266C311.206 607.652 312.157 604.101 313.964 600.97C315.772 597.839 318.371 595.238 321.502 593.429L482.202 500.71C491.327 495.455 501.674 492.689 512.205 492.689C522.737 492.689 533.084 495.455 542.209 500.71L702.909 593.429C706.039 595.241 708.638 597.843 710.445 600.976C712.252 604.108 713.203 607.66 713.203 611.275C713.203 614.891 712.252 618.443 710.445 621.575C708.638 624.707 706.039 627.31 702.909 629.121L542.117 721.75C532.994 727.009 522.647 729.778 512.114 729.778C501.581 729.778 491.234 727.009 482.111 721.75L396.424 672.339L265.279 748.473C262.356 750.16 259.04 751.048 255.665 751.048C252.29 751.048 248.974 750.16 246.051 748.473L230.423 739.431L208.91 751.889C208.772 751.969 208.613 752.007 208.453 751.999ZM111.397 637.999C106.874 638.006 102.432 639.196 98.5112 641.451L25.8198 683.354C24.6094 684.056 23.6047 685.063 22.9063 686.275C22.2079 687.486 21.8403 688.86 21.8403 690.259C21.8403 691.657 22.2079 693.031 22.9063 694.243C23.6047 695.454 24.6094 696.462 25.8198 697.163L98.4381 739.066C102.371 741.281 106.809 742.445 111.324 742.445C115.839 742.445 120.277 741.281 124.21 739.066L196.828 697.163C198.039 696.462 199.043 695.454 199.742 694.243C200.44 693.031 200.808 691.657 200.808 690.259C200.808 688.86 200.44 687.486 199.742 686.275C199.043 685.063 198.039 684.056 196.828 683.354L124.192 641.451C120.298 639.212 115.889 638.022 111.397 637.999ZM512.178 494.426C501.947 494.413 491.893 497.09 483.025 502.189L322.325 594.927C319.475 596.579 317.11 598.951 315.466 601.804C313.822 604.657 312.957 607.892 312.957 611.184C312.957 614.476 313.822 617.711 315.466 620.564C317.11 623.417 319.475 625.788 322.325 627.441L483.025 720.16C491.871 725.258 501.903 727.942 512.114 727.942C522.325 727.942 532.357 725.258 541.203 720.16L701.885 627.441C704.739 625.792 707.109 623.422 708.756 620.568C710.404 617.715 711.271 614.478 711.271 611.184C711.271 607.889 710.404 604.653 708.756 601.799C707.109 598.946 704.739 596.576 701.885 594.927L541.203 502.189C532.351 497.1 522.317 494.423 512.105 494.426H512.178Z" fill="#2ACAF7"/>
<path d="M344.496 334.779C344.337 334.778 344.181 334.741 344.039 334.67L318.541 320.057C318.33 319.936 318.176 319.736 318.113 319.501C318.049 319.266 318.082 319.016 318.203 318.805C318.324 318.595 318.524 318.441 318.759 318.377C318.994 318.314 319.244 318.346 319.455 318.468L344.953 333.081C345.163 333.2 345.318 333.397 345.383 333.63C345.448 333.863 345.418 334.112 345.3 334.323C345.217 334.462 345.1 334.578 344.959 334.658C344.818 334.738 344.658 334.78 344.496 334.779Z" fill="#2ACAF7"/>
<path d="M379.663 333.518C379.51 333.519 379.359 333.481 379.224 333.408L336.947 309.297C336.844 309.238 336.753 309.16 336.681 309.066C336.608 308.972 336.554 308.865 336.523 308.75C336.491 308.636 336.483 308.516 336.498 308.399C336.512 308.281 336.55 308.167 336.609 308.064C336.668 307.961 336.746 307.87 336.84 307.797C336.934 307.725 337.041 307.671 337.156 307.64C337.271 307.608 337.39 307.6 337.508 307.614C337.626 307.629 337.74 307.667 337.843 307.726L380.083 331.819C380.255 331.921 380.388 332.076 380.463 332.26C380.539 332.445 380.551 332.649 380.5 332.842C380.448 333.034 380.334 333.205 380.177 333.327C380.019 333.449 379.826 333.516 379.626 333.518H379.663Z" fill="#2ACAF7"/>
<path d="M417.242 335.454C417.081 335.457 416.922 335.412 416.785 335.326L354.055 299.561C353.952 299.502 353.862 299.423 353.789 299.329C353.716 299.236 353.662 299.129 353.631 299.014C353.599 298.9 353.591 298.78 353.606 298.662C353.621 298.544 353.658 298.431 353.717 298.328C353.776 298.224 353.855 298.134 353.948 298.061C354.042 297.988 354.15 297.935 354.264 297.903C354.379 297.872 354.498 297.863 354.616 297.878C354.734 297.893 354.848 297.931 354.951 297.99L417.699 333.737C417.804 333.795 417.896 333.874 417.969 333.969C418.042 334.064 418.096 334.172 418.127 334.288C418.157 334.404 418.164 334.525 418.148 334.644C418.131 334.762 418.09 334.876 418.028 334.979C417.952 335.122 417.839 335.241 417.701 335.325C417.562 335.408 417.404 335.453 417.242 335.454Z" fill="#2ACAF7"/>
<path d="M269.812 346.925C269.651 346.929 269.492 346.884 269.355 346.798L228.943 323.764C228.732 323.643 228.578 323.443 228.514 323.208C228.451 322.973 228.483 322.723 228.605 322.513C228.726 322.302 228.926 322.148 229.161 322.084C229.395 322.021 229.646 322.053 229.857 322.175L270.251 345.208C270.462 345.327 270.616 345.525 270.681 345.758C270.747 345.991 270.717 346.24 270.598 346.451C270.522 346.593 270.409 346.713 270.271 346.796C270.132 346.88 269.974 346.925 269.812 346.925Z" fill="#2ACAF7"/>
<path d="M664.287 681.2C664.128 681.2 663.971 681.163 663.83 681.09L638.332 666.477C638.122 666.358 637.967 666.161 637.902 665.928C637.837 665.695 637.867 665.446 637.985 665.235C638.107 665.028 638.305 664.876 638.537 664.812C638.768 664.747 639.016 664.774 639.228 664.888L664.817 679.501C664.988 679.602 665.121 679.755 665.196 679.938C665.272 680.121 665.286 680.323 665.236 680.515C665.187 680.707 665.077 680.877 664.922 681C664.767 681.124 664.576 681.194 664.379 681.2H664.287Z" fill="#2ACAF7"/>
<path d="M699.454 679.956C699.294 679.95 699.137 679.907 698.997 679.828L656.72 655.735C656.508 655.612 656.353 655.412 656.288 655.176C656.223 654.94 656.254 654.688 656.373 654.475C656.432 654.37 656.511 654.278 656.605 654.205C656.7 654.132 656.809 654.078 656.925 654.047C657.041 654.017 657.161 654.01 657.28 654.027C657.399 654.043 657.513 654.084 657.616 654.146L699.947 678.239C700.158 678.358 700.313 678.555 700.378 678.788C700.443 679.021 700.413 679.27 700.295 679.481C700.211 679.629 700.089 679.752 699.941 679.836C699.793 679.92 699.624 679.961 699.454 679.956Z" fill="#2ACAF7"/>
<path d="M737.015 681.874C736.854 681.875 736.696 681.831 736.558 681.746L673.828 645.999C673.62 645.873 673.468 645.672 673.403 645.438C673.339 645.203 673.366 644.953 673.481 644.739C673.607 644.53 673.809 644.379 674.045 644.317C674.28 644.256 674.531 644.289 674.742 644.41L737.472 680.157C737.681 680.283 737.833 680.483 737.897 680.718C737.962 680.952 737.934 681.203 737.82 681.417C737.735 681.555 737.617 681.67 737.477 681.75C737.336 681.83 737.177 681.873 737.015 681.874Z" fill="#2ACAF7"/>
<path d="M422.762 260.946C422.601 260.947 422.443 260.903 422.305 260.818L359.575 225.071C359.367 224.946 359.215 224.745 359.15 224.51C359.086 224.276 359.114 224.025 359.228 223.811C359.354 223.602 359.556 223.451 359.792 223.39C360.027 223.328 360.278 223.361 360.489 223.482L423.219 259.247C423.428 259.373 423.579 259.575 423.641 259.811C423.702 260.046 423.669 260.296 423.548 260.508C423.466 260.642 423.351 260.754 423.213 260.83C423.075 260.907 422.92 260.947 422.762 260.946Z" fill="#2ACAF7"/>
<path d="M798.649 303.47L726.03 261.567C721.818 259.195 717.065 257.949 712.23 257.949C707.396 257.949 702.643 259.195 698.431 261.567L625.831 303.47C624.334 304.327 623.091 305.564 622.226 307.056C621.362 308.547 620.906 310.24 620.906 311.964C620.906 313.687 621.362 315.381 622.226 316.872C623.091 318.363 624.334 319.6 625.831 320.458L698.431 362.342C702.624 364.77 707.384 366.049 712.23 366.049C717.077 366.049 721.837 364.77 726.03 362.342L761.892 341.665L781.01 352.625C782.259 353.349 783.295 354.388 784.015 355.638C784.735 356.889 785.114 358.306 785.114 359.748C785.114 361.191 784.735 362.608 784.015 363.858C783.295 365.108 782.259 366.148 781.01 366.872L714.57 405.378C713.044 406.26 711.778 407.528 710.897 409.054C710.017 410.58 709.553 412.311 709.553 414.072C709.553 415.834 710.017 417.564 710.897 419.09C711.778 420.617 713.044 421.884 714.57 422.767L785.086 463.336C786.335 464.058 787.372 465.096 788.092 466.345C788.813 467.593 789.192 469.01 789.192 470.451C789.192 471.893 788.813 473.309 788.092 474.558C787.372 475.806 786.335 476.844 785.086 477.566L633.818 565.244L634.732 566.833L734.493 509.057L746.118 515.797L745.661 516.583C745.506 516.843 745.418 517.138 745.405 517.441C745.405 519.085 747.872 520.473 750.888 520.473C752.592 520.547 754.262 519.98 755.567 518.884C755.972 518.509 756.215 517.992 756.244 517.441C756.244 515.797 753.776 514.409 750.87 514.409C750.086 514.41 749.305 514.514 748.549 514.719L748.183 514.829L736.412 507.997L748.786 500.837L769.002 512.546L768.563 513.331C768.401 513.59 768.307 513.885 768.289 514.19C768.289 515.834 770.756 517.222 773.681 517.222C775.381 517.295 777.049 516.736 778.36 515.651C778.564 515.468 778.728 515.246 778.845 514.998C778.961 514.75 779.026 514.481 779.036 514.208C779.036 512.564 776.569 511.176 773.663 511.176C772.884 511.166 772.108 511.271 771.36 511.486L770.976 511.578L750.596 499.778L786.092 479.228C787.617 478.343 788.883 477.073 789.763 475.546C790.643 474.018 791.106 472.287 791.106 470.524C791.106 468.762 790.643 467.03 789.763 465.503C788.883 463.975 787.617 462.705 786.092 461.82L715.575 421.251C714.327 420.529 713.29 419.492 712.569 418.243C711.849 416.994 711.469 415.578 711.469 414.136C711.469 412.695 711.849 411.278 712.569 410.03C713.29 408.781 714.327 407.743 715.575 407.021L748.878 387.751L768.983 399.386L768.362 400.208C767.725 401.044 767.373 402.062 767.357 403.112C767.357 406.766 771.689 409.615 777.209 409.615C780.215 409.729 783.151 408.69 785.415 406.711C785.919 406.243 786.323 405.678 786.602 405.05C786.882 404.423 787.031 403.745 787.042 403.058C787.042 399.404 782.71 396.555 777.19 396.555C775.067 396.54 772.97 397.021 771.067 397.961L770.629 398.199L750.687 386.655L782.089 368.388C783.614 367.506 784.881 366.238 785.761 364.712C786.642 363.186 787.105 361.455 787.105 359.694C787.105 357.932 786.642 356.201 785.761 354.675C784.881 353.149 783.614 351.881 782.089 350.999L763.811 340.514L798.74 320.421C800.232 319.56 801.47 318.322 802.331 316.831C803.193 315.34 803.646 313.649 803.646 311.927C803.646 310.206 803.193 308.515 802.331 307.024C801.47 305.533 800.232 304.295 798.74 303.433L798.649 303.47ZM770.135 400.756C772.063 399.136 774.527 398.296 777.044 398.4C781.394 398.4 785.068 400.555 785.068 403.094C785.037 403.963 784.662 404.784 784.026 405.378C782.098 406.997 779.634 407.838 777.117 407.734C772.767 407.734 769.093 405.578 769.093 403.039C769.115 402.176 769.476 401.356 770.098 400.756H770.135ZM797.735 318.868L725.116 360.771C721.183 362.986 716.745 364.15 712.23 364.15C707.716 364.15 703.278 362.986 699.344 360.771L626.744 318.868C625.53 318.168 624.521 317.16 623.82 315.947C623.118 314.733 622.749 313.356 622.749 311.955C622.749 310.553 623.118 309.176 623.82 307.963C624.521 306.749 625.53 305.741 626.744 305.041L699.344 263.156C703.262 260.894 707.706 259.703 712.23 259.703C716.755 259.703 721.199 260.894 725.116 263.156L797.735 305.041C798.945 305.745 799.949 306.754 800.647 307.967C801.345 309.18 801.712 310.555 801.712 311.955C801.712 313.354 801.345 314.729 800.647 315.942C799.949 317.155 798.945 318.164 797.735 318.868Z" fill="#2ACAF7"/>
<path d="M439.852 250.461C439.691 250.462 439.533 250.418 439.395 250.333L401.889 228.943C401.786 228.885 401.695 228.806 401.622 228.712C401.549 228.619 401.496 228.511 401.464 228.397C401.433 228.282 401.424 228.163 401.439 228.045C401.454 227.927 401.492 227.814 401.551 227.71C401.61 227.607 401.688 227.517 401.782 227.444C401.876 227.371 401.983 227.317 402.098 227.286C402.212 227.255 402.332 227.246 402.45 227.261C402.568 227.276 402.681 227.314 402.785 227.372L440.401 248.762C440.611 248.881 440.766 249.079 440.831 249.312C440.896 249.544 440.866 249.794 440.748 250.004C440.656 250.157 440.524 250.28 440.365 250.361C440.207 250.441 440.029 250.476 439.852 250.461Z" fill="#2ACAF7"/>
</g>
<path d="M178.112 666.221V680.323C178.112 683.134 177.368 685.896 175.955 688.328C174.543 690.759 172.512 692.774 170.069 694.169L123.205 720.911C119.587 722.979 115.492 724.067 111.324 724.067C107.156 724.067 103.061 722.979 99.4434 720.911L52.597 694.169C50.1494 692.778 48.1142 690.764 46.6983 688.332C45.2824 685.9 44.5365 683.137 44.5364 680.323V665.271L92.6257 697.749C98.1297 701.524 104.649 703.544 111.324 703.544C117.999 703.544 124.518 701.524 130.022 697.749L178.112 666.221Z" fill="url(#paint0_linear)"/>
<path d="M50.5317 654.787L99.3521 626.62C102.992 624.52 107.121 623.414 111.324 623.414C115.527 623.414 119.656 624.52 123.296 626.62L172.117 654.787C173.939 655.833 175.453 657.342 176.506 659.161C177.559 660.979 178.113 663.043 178.113 665.143C178.113 667.244 177.559 669.308 176.506 671.126C175.453 672.945 173.939 674.454 172.117 675.5L123.296 703.685C119.655 705.782 115.527 706.886 111.324 706.886C107.122 706.886 102.993 705.782 99.3521 703.685L50.5317 675.5C48.7092 674.454 47.1951 672.945 46.1423 671.126C45.0895 669.308 44.5352 667.244 44.5352 665.143C44.5352 663.043 45.0895 660.979 46.1423 659.161C47.1951 657.342 48.7092 655.833 50.5317 654.787Z" fill="url(#paint1_linear)"/>
<path d="M50.5317 654.787L99.3521 626.62C102.992 624.52 107.121 623.414 111.324 623.414C115.527 623.414 119.656 624.52 123.296 626.62L172.117 654.787C173.939 655.833 175.453 657.342 176.506 659.161C177.559 660.979 178.113 663.043 178.113 665.143C178.113 667.244 177.559 669.308 176.506 671.126C175.453 672.945 173.939 674.454 172.117 675.5L123.296 703.685C119.655 705.782 115.527 706.886 111.324 706.886C107.122 706.886 102.993 705.782 99.3521 703.685L50.5317 675.5C48.7092 674.454 47.1951 672.945 46.1423 671.126C45.0895 669.308 44.5352 667.244 44.5352 665.143C44.5352 663.043 45.0895 660.979 46.1423 659.161C47.1951 657.342 48.7092 655.833 50.5317 654.787Z" fill="url(#paint2_linear)"/>
<path d="M111.397 701.822C108.084 701.821 104.831 700.945 101.966 699.283L53.0721 671.117C52.0202 670.513 51.1462 669.644 50.5384 668.595C49.9307 667.546 49.6106 666.355 49.6106 665.144C49.6106 663.932 49.9307 662.741 50.5384 661.692C51.1462 660.643 52.0202 659.774 53.0721 659.17L101.893 631.004C104.77 629.379 108.019 628.525 111.324 628.525C114.629 628.525 117.878 629.379 120.755 631.004L169.594 659.17C170.641 659.777 171.511 660.649 172.115 661.697C172.719 662.745 173.037 663.934 173.037 665.144C173.037 666.353 172.719 667.542 172.115 668.59C171.511 669.638 170.641 670.51 169.594 671.117L120.755 699.283C117.913 700.935 114.685 701.81 111.397 701.822ZM111.397 630.31C108.409 630.313 105.474 631.094 102.88 632.575L53.986 660.76C53.2154 661.203 52.5754 661.842 52.1303 662.612C51.6853 663.381 51.451 664.255 51.451 665.144C51.451 666.032 51.6853 666.906 52.1303 667.675C52.5754 668.445 53.2154 669.084 53.986 669.527L102.806 697.639C105.406 699.104 108.34 699.873 111.324 699.873C114.308 699.873 117.242 699.104 119.842 697.639L168.68 669.454C169.446 669.007 170.082 668.367 170.523 667.598C170.965 666.828 171.197 665.957 171.197 665.07C171.197 664.184 170.965 663.312 170.523 662.543C170.082 661.774 169.446 661.134 168.68 660.687L119.842 632.575C117.271 631.102 114.361 630.321 111.397 630.31Z" fill="#2ACAF7"/>
<path d="M111.397 683.702C109.761 683.704 108.154 683.275 106.736 682.46L81.3847 667.847C80.9142 667.574 80.5238 667.182 80.2524 666.711C79.981 666.239 79.8381 665.705 79.8381 665.161C79.8381 664.618 79.981 664.084 80.2524 663.612C80.5238 663.141 80.9142 662.749 81.3847 662.476L106.736 647.863C108.154 647.048 109.761 646.619 111.397 646.621C113.034 646.611 114.644 647.04 116.058 647.863L141.409 662.476C141.88 662.749 142.27 663.141 142.542 663.612C142.813 664.084 142.956 664.618 142.956 665.161C142.956 665.705 142.813 666.239 142.542 666.711C142.27 667.182 141.88 667.574 141.409 667.847L116.058 682.46C114.644 683.283 113.034 683.712 111.397 683.702Z" fill="#2ACAF7"/>
<path d="M122.09 667.664L118.16 669.71C117.693 669.893 117.191 669.969 116.691 669.931C116.191 669.893 115.706 669.742 115.272 669.491L101.874 661.782C101.381 661.49 101.125 661.161 101.125 660.833V659.919C101.128 659.77 101.177 659.625 101.265 659.504C101.354 659.383 101.477 659.292 101.619 659.243L105.53 657.179C105.995 656.992 106.497 656.913 106.997 656.947C107.497 656.982 107.983 657.13 108.418 657.38L109.898 658.239C110.115 658.359 110.37 658.39 110.609 658.325C110.848 658.26 111.052 658.105 111.178 657.892C111.253 657.751 111.291 657.594 111.288 657.435V651.955L117.557 655.024V661.636C117.556 661.958 117.639 662.275 117.8 662.554C117.96 662.833 118.192 663.064 118.471 663.225L121.852 665.18C122.419 665.49 122.638 665.892 122.565 666.258C122.583 666.751 122.73 667.28 122.09 667.664Z" fill="url(#paint3_linear)"/>
<path d="M117.557 654.968V661.58L111.178 657.927C111.253 657.786 111.291 657.629 111.288 657.47V651.99L117.557 654.968Z" fill="#CACEFC"/>
<path d="M139.929 666.476V638.565C139.931 637.581 139.673 636.614 139.182 635.761C138.691 634.908 137.984 634.199 137.133 633.706L97.4878 610.836C97.0948 610.603 96.6494 610.473 96.1926 610.457C95.7358 610.441 95.2824 610.54 94.874 610.745L93.3204 611.604C92.872 611.836 92.4964 612.187 92.2352 612.619C91.974 613.051 91.8372 613.547 91.8399 614.051V641.889C91.8412 642.865 92.0984 643.824 92.5859 644.67C93.0733 645.516 93.774 646.22 94.6181 646.711L134.263 669.69C135.78 670.567 137.06 669.8 138.613 668.832C139.017 668.586 139.351 668.24 139.582 667.827C139.812 667.414 139.932 666.948 139.929 666.476Z" fill="url(#paint4_linear)"/>
<path d="M95.3857 615.295V640.174L115.144 651.663L130.973 635.826L95.3857 615.295Z" fill="#00125C"/>
<path d="M115.144 651.663L134.848 663.079V638.109L130.973 635.826L115.144 651.663Z" fill="#13287B"/>
<path d="M578.893 381.193V538.155C578.894 540.967 578.151 543.729 576.739 546.161C575.326 548.593 573.294 550.608 570.85 552.001L523.986 578.743C520.368 580.811 516.273 581.899 512.105 581.899C507.937 581.899 503.842 580.811 500.224 578.743L453.378 552.001C450.934 550.608 448.902 548.593 447.489 546.161C446.077 543.729 445.334 540.967 445.335 538.155V380.262L493.406 412.684C498.911 416.459 505.429 418.479 512.105 418.479C518.78 418.479 525.299 416.459 530.803 412.684L578.893 381.193Z" fill="url(#paint5_linear)"/>
<path d="M570.85 414.512L523.986 441.254C520.368 443.322 516.273 444.41 512.105 444.41C507.937 444.41 503.842 443.322 500.224 441.254L453.378 414.512C450.935 413.117 448.904 411.102 447.492 408.671C446.08 406.239 445.336 403.478 445.335 400.666V404.52C445.334 407.332 446.077 410.094 447.489 412.526C448.902 414.958 450.934 416.973 453.378 418.366L500.242 445.108C503.86 447.176 507.955 448.264 512.123 448.264C516.291 448.264 520.386 447.176 524.004 445.108L570.868 418.366C573.313 416.973 575.344 414.958 576.757 412.526C578.169 410.094 578.912 407.332 578.911 404.52V400.666C578.909 403.479 578.162 406.242 576.746 408.674C575.331 411.106 573.296 413.12 570.85 414.512Z" fill="#00114E"/>
<path d="M570.85 525.059L523.986 551.801C520.368 553.869 516.273 554.957 512.105 554.957C507.937 554.957 503.842 553.869 500.224 551.801L453.378 525.059C450.935 523.664 448.904 521.649 447.492 519.217C446.08 516.786 445.336 514.024 445.335 511.213V515.067C445.334 517.879 446.077 520.641 447.489 523.073C448.902 525.505 450.934 527.52 453.378 528.913L500.242 555.655C503.86 557.723 507.955 558.811 512.123 558.811C516.291 558.811 520.386 557.723 524.004 555.655L570.868 528.913C573.313 527.52 575.344 525.505 576.757 523.073C578.169 520.641 578.912 517.879 578.911 515.067V511.213C578.909 514.026 578.162 516.789 576.746 519.221C575.331 521.652 573.296 523.667 570.85 525.059Z" fill="#2ACAF7"/>
<path d="M451.367 369.778L500.206 341.593C503.843 339.493 507.969 338.387 512.169 338.387C516.369 338.387 520.495 339.493 524.132 341.593L572.971 369.778C574.788 370.829 576.298 372.339 577.347 374.156C578.396 375.974 578.949 378.036 578.949 380.135C578.949 382.233 578.396 384.295 577.347 386.113C576.298 387.931 574.788 389.441 572.971 390.492L524.132 418.658C520.495 420.759 516.369 421.865 512.169 421.865C507.969 421.865 503.843 420.759 500.206 418.658L451.367 390.492C449.55 389.441 448.04 387.931 446.991 386.113C445.942 384.295 445.389 382.233 445.389 380.135C445.389 378.036 445.942 375.974 446.991 374.156C448.04 372.339 449.55 370.829 451.367 369.778Z" fill="url(#paint6_linear)"/>
<path d="M512.123 416.795C508.807 416.791 505.55 415.922 502.674 414.274L453.853 386.107C452.801 385.504 451.927 384.634 451.319 383.586C450.712 382.537 450.392 381.346 450.392 380.134C450.392 378.922 450.712 377.732 451.319 376.683C451.927 375.634 452.801 374.764 453.853 374.161L502.674 345.976C505.557 344.36 508.808 343.512 512.114 343.512C515.42 343.512 518.671 344.36 521.555 345.976L570.375 374.161C571.427 374.764 572.301 375.634 572.909 376.683C573.517 377.732 573.837 378.922 573.837 380.134C573.837 381.346 573.517 382.537 572.909 383.586C572.301 384.634 571.427 385.504 570.375 386.107L521.555 414.274C518.684 415.92 515.433 416.789 512.123 416.795ZM512.123 345.282C509.127 345.282 506.183 346.069 503.587 347.566L454.767 375.732C453.997 376.179 453.357 376.819 452.913 377.59C452.468 378.361 452.234 379.235 452.234 380.125C452.234 381.015 452.468 381.889 452.913 382.66C453.357 383.431 453.997 384.072 454.767 384.518L503.587 412.685C506.188 414.158 509.125 414.932 512.114 414.932C515.103 414.932 518.041 414.158 520.641 412.685L569.461 384.518C570.231 384.072 570.871 383.431 571.315 382.66C571.76 381.889 571.994 381.015 571.994 380.125C571.994 379.235 571.76 378.361 571.315 377.59C570.871 376.819 570.231 376.179 569.461 375.732L520.641 347.566C518.051 346.071 515.114 345.284 512.123 345.282Z" fill="#2ACAF7"/>
<path d="M490.866 508.637C491.084 508.767 491.332 508.837 491.586 508.839C491.84 508.841 492.089 508.775 492.309 508.648C492.529 508.522 492.711 508.339 492.836 508.119C492.962 507.898 493.026 507.649 493.023 507.395C493.022 506.923 492.899 506.459 492.665 506.05C492.431 505.64 492.095 505.298 491.688 505.057L480.996 498.828V502.883L490.866 508.637Z" fill="#2ACAF7"/>
<path d="M457.783 487.795C457.784 488.269 457.909 488.735 458.146 489.145C458.384 489.556 458.725 489.897 459.136 490.134L481.069 502.92V498.865L460.013 486.59C459.795 486.449 459.544 486.369 459.284 486.359C459.025 486.348 458.768 486.408 458.54 486.531C458.312 486.655 458.121 486.837 457.988 487.06C457.855 487.282 457.784 487.536 457.783 487.795Z" fill="#31047E"/>
<path d="M457.783 515.542C457.783 516.014 457.908 516.477 458.146 516.885C458.383 517.292 458.725 517.629 459.135 517.862L481.069 530.648V526.593L460.013 514.318C459.794 514.177 459.54 514.096 459.28 514.087C459.019 514.077 458.76 514.139 458.532 514.264C458.303 514.39 458.112 514.575 457.981 514.8C457.849 515.025 457.78 515.281 457.783 515.542Z" fill="#31047E"/>
<path d="M490.866 536.383C491.085 536.507 491.332 536.572 491.583 536.571C491.835 536.571 492.082 536.504 492.3 536.379C492.518 536.253 492.699 536.073 492.826 535.856C492.953 535.639 493.021 535.392 493.023 535.141C493.022 534.669 492.899 534.206 492.665 533.796C492.431 533.386 492.095 533.044 491.688 532.803L480.996 526.574V530.629L490.866 536.383Z" fill="#2ACAF7"/>
<path d="M493.023 451.391C493.022 450.919 492.899 450.456 492.665 450.046C492.431 449.636 492.095 449.294 491.688 449.053L480.996 442.824V446.861L490.866 452.633C491.085 452.757 491.332 452.822 491.583 452.821C491.835 452.821 492.082 452.754 492.3 452.629C492.518 452.503 492.699 452.323 492.826 452.106C492.953 451.889 493.021 451.642 493.023 451.391Z" fill="#2ACAF7"/>
<path d="M459.94 430.549C459.722 430.419 459.473 430.35 459.22 430.348C458.966 430.346 458.716 430.411 458.497 430.538C458.277 430.665 458.095 430.847 457.969 431.068C457.844 431.288 457.779 431.538 457.783 431.791C457.783 432.263 457.908 432.726 458.146 433.134C458.383 433.541 458.725 433.879 459.135 434.111L481.069 446.898V442.824L459.94 430.549Z" fill="#31047E"/>
<path d="M490.866 481.037C491.084 481.167 491.332 481.236 491.586 481.238C491.84 481.24 492.089 481.175 492.309 481.048C492.529 480.922 492.711 480.739 492.836 480.518C492.962 480.298 493.026 480.048 493.023 479.795C493.023 479.325 492.899 478.864 492.665 478.457C492.431 478.05 492.094 477.711 491.688 477.475L480.996 471.246V475.283L490.866 481.037Z" fill="#2ACAF7"/>
<path d="M457.783 460.176C457.782 460.651 457.906 461.117 458.144 461.528C458.381 461.938 458.724 462.279 459.136 462.514L481.069 475.301V471.264L460.013 458.971C459.795 458.83 459.544 458.75 459.284 458.739C459.025 458.729 458.768 458.789 458.54 458.912C458.312 459.035 458.121 459.218 457.988 459.44C457.855 459.663 457.784 459.917 457.783 460.176Z" fill="#31047E"/>
<path d="M687.902 444.176V601.138C687.902 603.949 687.158 606.711 685.746 609.142C684.333 611.574 682.303 613.589 679.86 614.984L632.995 641.725C629.378 643.794 625.282 644.882 621.115 644.882C616.947 644.882 612.851 643.794 609.234 641.725L562.351 614.984C559.908 613.589 557.877 611.574 556.465 609.142C555.053 606.711 554.309 603.949 554.309 601.138V443.244L602.398 475.722C607.902 479.496 614.421 481.517 621.096 481.517C627.772 481.517 634.291 479.496 639.795 475.722L687.902 444.176Z" fill="url(#paint7_linear)"/>
<path d="M679.842 477.494L632.977 504.236C629.357 506.296 625.262 507.378 621.096 507.378C616.931 507.378 612.836 506.296 609.216 504.236L562.333 477.494C559.891 476.098 557.862 474.083 556.449 471.652C555.037 469.22 554.293 466.46 554.291 463.648V467.484C554.291 470.296 555.035 473.057 556.447 475.489C557.859 477.921 559.89 479.936 562.333 481.33L609.216 508.072C612.833 510.14 616.929 511.228 621.096 511.228C625.264 511.228 629.36 510.14 632.977 508.072L679.842 481.348C682.285 479.954 684.315 477.939 685.728 475.507C687.14 473.076 687.884 470.314 687.884 467.503V463.648C687.882 466.46 687.137 469.22 685.725 471.652C684.313 474.083 682.284 476.098 679.842 477.494Z" fill="#00114E"/>
<path d="M679.842 588.041L632.977 614.783C629.357 616.842 625.262 617.925 621.097 617.925C616.931 617.925 612.836 616.842 609.216 614.783L562.369 588.041C559.927 586.647 557.896 584.631 556.484 582.2C555.071 579.768 554.327 577.007 554.327 574.195V578.049C554.325 580.861 555.069 583.624 556.481 586.056C557.894 588.487 559.925 590.502 562.369 591.895L609.252 618.637C612.87 620.705 616.965 621.793 621.133 621.793C625.301 621.793 629.396 620.705 633.014 618.637L679.842 591.895C682.286 590.502 684.318 588.487 685.73 586.056C687.143 583.624 687.886 580.861 687.884 578.049V574.195C687.884 577.007 687.14 579.768 685.728 582.2C684.315 584.631 682.285 586.647 679.842 588.041Z" fill="#00114E"/>
<path d="M560.322 432.777L609.143 404.61C612.783 402.51 616.912 401.404 621.115 401.404C625.318 401.404 629.447 402.51 633.087 404.61L681.907 432.777C683.729 433.826 685.243 435.337 686.295 437.157C687.347 438.976 687.901 441.041 687.901 443.143C687.901 445.245 687.347 447.309 686.295 449.129C685.243 450.949 683.729 452.46 681.907 453.509L633.087 481.676C629.447 483.776 625.318 484.881 621.115 484.881C616.912 484.881 612.783 483.776 609.143 481.676L560.322 453.509C558.5 452.46 556.987 450.949 555.934 449.129C554.882 447.309 554.328 445.245 554.328 443.143C554.328 441.041 554.882 438.976 555.934 437.157C556.987 435.337 558.5 433.826 560.322 432.777Z" fill="url(#paint8_linear)"/>
<path d="M621.115 479.777C617.805 479.773 614.553 478.904 611.683 477.256L562.863 449.071C561.815 448.467 560.945 447.597 560.341 446.55C559.736 445.504 559.417 444.316 559.417 443.107C559.417 441.898 559.736 440.711 560.341 439.664C560.945 438.617 561.815 437.748 562.863 437.143L611.683 409.031C614.554 407.417 617.793 406.568 621.087 406.568C624.382 406.568 627.62 407.417 630.491 409.031L679.33 437.216C680.373 437.824 681.238 438.695 681.84 439.741C682.441 440.788 682.757 441.973 682.757 443.18C682.757 444.387 682.441 445.573 681.84 446.619C681.238 447.665 680.373 448.536 679.33 449.144L630.491 477.256C627.638 478.896 624.406 479.765 621.115 479.777ZM621.115 408.264C618.124 408.266 615.187 409.053 612.597 410.547L563.777 438.714C563.007 439.16 562.367 439.801 561.923 440.572C561.478 441.343 561.244 442.217 561.244 443.107C561.244 443.997 561.478 444.871 561.923 445.642C562.367 446.413 563.007 447.054 563.777 447.5L612.597 475.667C615.194 477.14 618.129 477.914 621.115 477.914C624.101 477.914 627.035 477.14 629.632 475.667L678.471 447.5C679.237 447.05 679.871 446.408 680.312 445.638C680.754 444.867 680.986 443.995 680.986 443.107C680.986 442.219 680.754 441.347 680.312 440.577C679.871 439.806 679.237 439.164 678.471 438.714L629.632 410.547C627.044 409.048 624.106 408.261 621.115 408.264Z" fill="#2ACAF7"/>
<path d="M599.876 571.602C600.094 571.726 600.342 571.791 600.593 571.79C600.845 571.789 601.092 571.723 601.31 571.597C601.527 571.472 601.709 571.292 601.836 571.075C601.962 570.858 602.03 570.611 602.032 570.36C602.032 569.886 601.907 569.42 601.669 569.01C601.432 568.6 601.091 568.259 600.68 568.022L590.006 561.793V565.848L599.876 571.602Z" fill="#2ACAF7"/>
<path d="M566.793 550.777C566.793 551.246 566.916 551.707 567.15 552.114C567.384 552.521 567.721 552.86 568.127 553.096L590.061 565.883V561.828L569.004 549.553C568.787 549.409 568.534 549.328 568.274 549.318C568.014 549.307 567.755 549.369 567.527 549.495C567.299 549.621 567.11 549.807 566.981 550.033C566.851 550.259 566.786 550.516 566.793 550.777Z" fill="#31047E"/>
<path d="M566.793 578.524C566.793 578.993 566.916 579.454 567.15 579.862C567.384 580.269 567.721 580.607 568.127 580.844L590.06 593.63V589.593L569.004 577.318C568.788 577.175 568.537 577.094 568.279 577.083C568.02 577.072 567.763 577.132 567.535 577.256C567.308 577.38 567.119 577.563 566.988 577.787C566.857 578.01 566.79 578.265 566.793 578.524Z" fill="#31047E"/>
<path d="M599.876 599.366C600.094 599.49 600.342 599.555 600.593 599.554C600.845 599.553 601.092 599.487 601.31 599.361C601.527 599.236 601.709 599.055 601.836 598.838C601.962 598.621 602.03 598.375 602.032 598.124C602.034 597.649 601.909 597.183 601.672 596.772C601.434 596.361 601.092 596.021 600.68 595.785L590.006 589.557V593.52L599.876 599.366Z" fill="#FF2CC0"/>
<path d="M602.032 514.372C602.034 513.898 601.909 513.431 601.672 513.021C601.434 512.61 601.092 512.27 600.68 512.034L590.006 505.842V509.879L599.876 515.651C600.097 515.776 600.348 515.841 600.602 515.839C600.857 515.836 601.106 515.767 601.325 515.637C601.544 515.507 601.725 515.322 601.849 515.1C601.974 514.878 602.037 514.627 602.032 514.372Z" fill="#FF2CC0"/>
<path d="M568.949 493.532C568.732 493.402 568.483 493.332 568.229 493.33C567.976 493.328 567.726 493.394 567.506 493.52C567.287 493.647 567.104 493.83 566.979 494.05C566.854 494.271 566.789 494.52 566.793 494.774C566.793 495.243 566.916 495.705 567.15 496.112C567.384 496.519 567.721 496.857 568.127 497.094L590.06 509.88V505.843L568.949 493.532Z" fill="#31047E"/>
<path d="M599.876 544.02C600.093 544.15 600.342 544.22 600.596 544.222C600.849 544.224 601.099 544.158 601.319 544.031C601.539 543.905 601.721 543.722 601.846 543.502C601.971 543.281 602.036 543.031 602.032 542.778C602.032 542.306 601.907 541.843 601.67 541.435C601.432 541.028 601.09 540.691 600.68 540.458L590.006 534.211V538.266L599.876 544.02Z" fill="#2ACAF7"/>
<path d="M566.792 523.176C566.793 523.648 566.916 524.112 567.15 524.522C567.384 524.932 567.721 525.274 568.127 525.515L590.06 538.301V534.246L569.004 521.971C568.787 521.835 568.537 521.759 568.281 521.751C568.024 521.743 567.77 521.803 567.545 521.926C567.32 522.049 567.131 522.23 566.999 522.449C566.867 522.669 566.795 522.92 566.792 523.176Z" fill="#31047E"/>
<path d="M469.883 443.044V600.006C469.883 602.817 469.139 605.579 467.726 608.01C466.314 610.442 464.284 612.457 461.841 613.852L414.976 640.593C411.36 642.665 407.264 643.755 403.095 643.755C398.927 643.755 394.831 642.665 391.215 640.593L344.332 613.852C341.889 612.457 339.858 610.442 338.446 608.01C337.033 605.579 336.289 602.817 336.289 600.006V442.094L384.379 474.589C389.883 478.364 396.402 480.384 403.077 480.384C409.752 480.384 416.271 478.364 421.775 474.589L469.883 443.044Z" fill="url(#paint9_linear)"/>
<path d="M461.841 476.36L414.976 503.102C411.357 505.165 407.262 506.25 403.095 506.25C398.929 506.25 394.834 505.165 391.215 503.102L344.332 476.36C341.889 474.961 339.858 472.943 338.446 470.508C337.034 468.074 336.29 465.31 336.289 462.496V466.369C336.289 469.18 337.033 471.942 338.446 474.373C339.858 476.805 341.889 478.82 344.332 480.214L391.215 506.956C394.831 509.028 398.927 510.118 403.095 510.118C407.264 510.118 411.36 509.028 414.976 506.956L461.841 480.269C464.284 478.875 466.314 476.859 467.726 474.428C469.139 471.996 469.883 469.235 469.883 466.423V462.551C469.873 465.355 469.124 468.108 467.712 470.532C466.301 472.956 464.276 474.966 461.841 476.36Z" fill="#00114E"/>
<path d="M461.841 586.908L414.976 613.613C411.357 615.676 407.262 616.761 403.095 616.761C398.929 616.761 394.834 615.676 391.215 613.613L344.332 586.871C341.89 585.475 339.86 583.46 338.448 581.029C337.036 578.597 336.291 575.837 336.289 573.025V576.88C336.289 579.691 337.033 582.453 338.446 584.884C339.858 587.316 341.889 589.331 344.332 590.725L391.215 617.467C394.831 619.539 398.927 620.629 403.095 620.629C407.264 620.629 411.36 619.539 414.976 617.467L461.841 590.725C464.284 589.331 466.314 587.316 467.726 584.884C469.139 582.453 469.883 579.691 469.883 576.88V573.062C469.881 575.873 469.136 578.634 467.724 581.065C466.312 583.496 464.282 585.512 461.841 586.908Z" fill="#00114E"/>
<path d="M342.321 431.609L391.141 403.442C394.781 401.342 398.91 400.236 403.113 400.236C407.316 400.236 411.445 401.342 415.085 403.442L463.906 431.609C465.728 432.658 467.241 434.169 468.294 435.989C469.346 437.808 469.9 439.873 469.9 441.975C469.9 444.077 469.346 446.141 468.294 447.961C467.241 449.781 465.728 451.292 463.906 452.341L415.085 480.508C411.445 482.608 407.316 483.713 403.113 483.713C398.91 483.713 394.781 482.608 391.141 480.508L342.321 452.323C340.498 451.276 338.984 449.767 337.931 447.949C336.879 446.13 336.324 444.067 336.324 441.966C336.324 439.865 336.879 437.801 337.931 435.983C338.984 434.164 340.498 432.656 342.321 431.609Z" fill="url(#paint10_linear)"/>
<path d="M403.113 478.644C399.803 478.642 396.551 477.773 393.682 476.124L344.843 447.939C343.8 447.331 342.935 446.46 342.334 445.414C341.732 444.367 341.416 443.182 341.416 441.975C341.416 440.768 341.732 439.583 342.334 438.536C342.935 437.49 343.8 436.619 344.843 436.011L393.682 407.826C396.56 406.201 399.808 405.348 403.113 405.348C406.418 405.348 409.667 406.201 412.545 407.826L461.365 436.011C462.413 436.615 463.283 437.485 463.888 438.532C464.493 439.578 464.811 440.766 464.811 441.975C464.811 443.184 464.493 444.371 463.888 445.418C463.283 446.465 462.413 447.334 461.365 447.939L412.545 476.124C409.675 477.772 406.423 478.641 403.113 478.644ZM403.113 407.132C400.122 407.128 397.184 407.916 394.596 409.415L345.757 437.582C344.992 438.032 344.357 438.674 343.916 439.444C343.475 440.215 343.243 441.087 343.243 441.975C343.243 442.863 343.475 443.735 343.916 444.505C344.357 445.276 344.992 445.918 345.757 446.368L394.596 474.535C397.196 475.999 400.129 476.768 403.113 476.768C406.098 476.768 409.031 475.999 411.631 474.535L460.506 446.368C461.277 445.922 461.916 445.281 462.36 444.51C462.805 443.739 463.039 442.865 463.039 441.975C463.039 441.085 462.805 440.211 462.36 439.44C461.916 438.669 461.277 438.028 460.506 437.582L411.686 409.415C409.073 407.937 406.116 407.175 403.113 407.205V407.132Z" fill="#2ACAF7"/>
<path d="M381.911 570.486C382.13 570.61 382.377 570.675 382.629 570.674C382.88 570.673 383.127 570.607 383.345 570.482C383.563 570.356 383.744 570.176 383.871 569.959C383.998 569.742 384.066 569.495 384.068 569.244C384.069 568.77 383.945 568.303 383.707 567.893C383.469 567.482 383.127 567.142 382.715 566.906L371.986 560.641V564.677L381.911 570.486Z" fill="#2ACAF7"/>
<path d="M348.773 549.682C348.773 550.153 348.898 550.617 349.136 551.024C349.374 551.432 349.715 551.769 350.126 552.002L372.059 564.788V560.642L351.003 548.367C350.779 548.212 350.515 548.124 350.243 548.114C349.971 548.104 349.702 548.173 349.467 548.311C349.232 548.449 349.042 548.652 348.919 548.895C348.796 549.138 348.746 549.411 348.773 549.682Z" fill="#31047E"/>
<path d="M348.773 577.392C348.773 577.863 348.898 578.326 349.136 578.734C349.373 579.142 349.715 579.479 350.126 579.711L372.059 592.498V588.461L351.003 576.186C350.787 576.038 350.534 575.953 350.272 575.939C350.011 575.926 349.75 575.985 349.52 576.109C349.29 576.234 349.098 576.419 348.966 576.645C348.834 576.872 348.768 577.13 348.773 577.392Z" fill="#31047E"/>
<path d="M381.911 598.233C382.13 598.357 382.377 598.422 382.629 598.421C382.88 598.42 383.127 598.354 383.345 598.228C383.563 598.103 383.744 597.923 383.871 597.705C383.998 597.488 384.066 597.242 384.068 596.991C384.069 596.516 383.945 596.05 383.707 595.639C383.47 595.229 383.127 594.888 382.715 594.653L372.023 588.424V592.461L381.911 598.233Z" fill="#2ACAF7"/>
<path d="M384.031 513.241C384.033 512.766 383.908 512.3 383.67 511.889C383.433 511.479 383.091 511.138 382.679 510.903L371.986 504.674V508.711L381.874 514.483C382.093 514.607 382.34 514.672 382.592 514.671C382.843 514.67 383.09 514.604 383.308 514.478C383.526 514.353 383.708 514.173 383.834 513.956C383.961 513.738 384.029 513.492 384.031 513.241Z" fill="#FF2CC0"/>
<path d="M350.93 492.38C350.71 492.255 350.461 492.19 350.208 492.191C349.955 492.193 349.706 492.261 349.488 492.389C349.27 492.516 349.089 492.699 348.963 492.919C348.838 493.138 348.772 493.387 348.773 493.64C348.773 494.112 348.898 494.575 349.136 494.982C349.373 495.39 349.715 495.727 350.126 495.96L372.059 508.746V504.709L350.93 492.38Z" fill="#31047E"/>
<path d="M381.911 542.887C382.13 543.011 382.377 543.076 382.629 543.075C382.88 543.074 383.127 543.008 383.345 542.883C383.563 542.757 383.744 542.577 383.871 542.36C383.998 542.143 384.066 541.896 384.068 541.645C384.07 541.173 383.945 540.709 383.708 540.301C383.47 539.893 383.127 539.556 382.715 539.325L372.023 533.078V537.133L381.911 542.887Z" fill="#FF2CC0"/>
<path d="M348.773 522.045C348.773 522.52 348.899 522.985 349.136 523.395C349.374 523.806 349.715 524.147 350.126 524.384L372.059 537.17V533.115L351.003 520.84C350.785 520.699 350.534 520.619 350.274 520.609C350.015 520.598 349.758 520.658 349.53 520.781C349.302 520.905 349.111 521.087 348.978 521.31C348.845 521.532 348.774 521.786 348.773 522.045Z" fill="#31047E"/>
<path d="M578.893 506.026V662.933C578.892 665.745 578.148 668.506 576.736 670.938C575.324 673.369 573.293 675.385 570.85 676.779L523.986 703.521C520.368 705.589 516.273 706.677 512.105 706.677C507.937 706.677 503.842 705.589 500.224 703.521L453.378 676.834C450.935 675.439 448.904 673.424 447.492 670.993C446.08 668.561 445.336 665.8 445.335 662.988V505.076L493.406 537.554C498.903 541.348 505.425 543.38 512.105 543.38C518.785 543.38 525.307 541.348 530.803 537.554L578.893 506.026Z" fill="url(#paint11_linear)"/>
<path d="M570.85 539.343L523.986 566.121C520.368 568.189 516.273 569.277 512.105 569.277C507.937 569.277 503.842 568.189 500.224 566.121L453.378 539.343C450.935 537.944 448.904 535.925 447.492 533.491C446.08 531.056 445.336 528.292 445.335 525.479V529.351C445.336 532.162 446.08 534.924 447.492 537.356C448.904 539.787 450.935 541.802 453.378 543.197L500.242 569.939C503.86 572.007 507.955 573.095 512.123 573.095C516.291 573.095 520.386 572.007 524.004 569.939L570.868 543.197C573.311 541.802 575.342 539.787 576.754 537.356C578.167 534.924 578.911 532.162 578.911 529.351V525.479C578.908 528.294 578.161 531.059 576.746 533.494C575.331 535.928 573.297 537.946 570.85 539.343Z" fill="#00114E"/>
<path d="M570.85 649.89L523.986 676.613C520.367 678.678 516.272 679.764 512.105 679.764C507.938 679.764 503.843 678.678 500.224 676.613L453.378 649.89C450.935 648.491 448.904 646.472 447.492 644.038C446.08 641.603 445.336 638.839 445.335 636.025V639.898C445.336 642.709 446.08 645.471 447.492 647.902C448.904 650.334 450.935 652.349 453.378 653.744L500.242 680.486C503.86 682.554 507.955 683.642 512.123 683.642C516.291 683.642 520.386 682.554 524.004 680.486L570.85 653.799C573.293 652.404 575.324 650.389 576.736 647.957C578.148 645.526 578.892 642.764 578.893 639.953V636.08C578.882 638.885 578.134 641.637 576.722 644.061C575.31 646.485 573.285 648.495 570.85 649.89Z" fill="#00114E"/>
<path d="M451.367 494.59L500.206 466.423C503.843 464.323 507.969 463.217 512.169 463.217C516.369 463.217 520.495 464.323 524.132 466.423L572.971 494.59C574.788 495.64 576.298 497.15 577.347 498.968C578.396 500.786 578.949 502.848 578.949 504.947C578.949 507.045 578.396 509.107 577.347 510.925C576.298 512.743 574.788 514.253 572.971 515.304L524.132 543.488C520.495 545.589 516.369 546.695 512.169 546.695C507.969 546.695 503.843 545.589 500.206 543.488L451.367 515.304C449.55 514.253 448.04 512.743 446.991 510.925C445.942 509.107 445.389 507.045 445.389 504.947C445.389 502.848 445.942 500.786 446.991 498.968C448.04 497.15 449.55 495.64 451.367 494.59Z" fill="url(#paint12_linear)"/>
<path d="M512.123 541.625C508.807 541.622 505.55 540.753 502.674 539.105L453.853 510.92C452.801 510.317 451.927 509.447 451.319 508.398C450.712 507.349 450.392 506.159 450.392 504.947C450.392 503.735 450.712 502.544 451.319 501.495C451.927 500.447 452.801 499.577 453.853 498.974L502.674 470.807C505.554 469.181 508.806 468.326 512.114 468.326C515.422 468.326 518.674 469.181 521.555 470.807L570.375 498.974C571.427 499.577 572.301 500.447 572.909 501.495C573.517 502.544 573.837 503.735 573.837 504.947C573.837 506.159 573.517 507.349 572.909 508.398C572.301 509.447 571.427 510.317 570.375 510.92L521.555 539.105C518.684 540.75 515.433 541.619 512.123 541.625ZM512.123 470.113C509.127 470.112 506.183 470.9 503.587 472.396L454.767 500.563C453.997 501.009 453.357 501.65 452.913 502.421C452.468 503.192 452.234 504.066 452.234 504.956C452.234 505.846 452.468 506.72 452.913 507.491C453.357 508.262 453.997 508.903 454.767 509.349L503.587 537.516C506.19 538.98 509.127 539.749 512.114 539.749C515.101 539.749 518.038 538.98 520.641 537.516L569.461 509.349C570.231 508.903 570.871 508.262 571.315 507.491C571.76 506.72 571.994 505.846 571.994 504.956C571.994 504.066 571.76 503.192 571.315 502.421C570.871 501.65 570.231 501.009 569.461 500.563L520.641 472.396C518.051 470.902 515.114 470.115 512.123 470.113Z" fill="#2ACAF7"/>
<path d="M490.866 633.469C491.085 633.593 491.332 633.658 491.583 633.657C491.835 633.656 492.082 633.59 492.3 633.464C492.518 633.339 492.699 633.159 492.826 632.942C492.953 632.725 493.021 632.478 493.023 632.227C493.024 631.755 492.902 631.29 492.667 630.88C492.433 630.47 492.096 630.128 491.688 629.889L480.996 623.66V627.697L490.866 633.469Z" fill="#FF2CC0"/>
<path d="M457.783 612.626C457.783 613.098 457.908 613.561 458.146 613.969C458.383 614.376 458.725 614.714 459.135 614.946L481.069 627.733V623.659L460.013 611.384C459.794 611.234 459.538 611.148 459.273 611.136C459.008 611.124 458.745 611.186 458.513 611.315C458.281 611.444 458.09 611.635 457.961 611.867C457.832 612.099 457.77 612.361 457.783 612.626Z" fill="#31047E"/>
<path d="M457.783 640.355C457.782 640.829 457.906 641.295 458.144 641.706C458.381 642.117 458.724 642.457 459.136 642.693L481.069 655.479V651.442L459.94 639.186C459.726 639.064 459.485 638.999 459.24 638.996C458.994 638.994 458.752 639.054 458.536 639.171C458.32 639.288 458.138 639.458 458.006 639.665C457.874 639.872 457.797 640.11 457.783 640.355Z" fill="#31047E"/>
<path d="M490.866 661.215C491.086 661.34 491.335 661.405 491.588 661.403C491.841 661.402 492.089 661.334 492.308 661.206C492.526 661.078 492.707 660.896 492.833 660.676C492.958 660.456 493.024 660.208 493.023 659.955C493.023 659.485 492.899 659.024 492.665 658.617C492.431 658.21 492.094 657.871 491.688 657.635L480.996 651.406V655.443L490.866 661.215Z" fill="#FF2CC0"/>
<path d="M493.023 576.205C493.023 575.735 492.899 575.274 492.665 574.867C492.431 574.46 492.094 574.121 491.688 573.885L480.996 567.656V571.693L490.866 577.447C491.084 577.577 491.332 577.647 491.586 577.649C491.84 577.651 492.089 577.585 492.309 577.458C492.529 577.332 492.711 577.149 492.836 576.929C492.962 576.708 493.026 576.458 493.023 576.205Z" fill="#2ACAF7"/>
<path d="M459.94 555.362C459.721 555.238 459.474 555.173 459.222 555.174C458.971 555.175 458.724 555.241 458.506 555.367C458.288 555.492 458.107 555.672 457.98 555.889C457.853 556.106 457.785 556.353 457.783 556.604C457.782 557.078 457.906 557.545 458.144 557.955C458.381 558.366 458.724 558.707 459.136 558.942L481.069 571.729V567.692L459.94 555.362Z" fill="#31047E"/>
<path d="M490.866 605.87C491.085 605.994 491.332 606.058 491.583 606.058C491.835 606.057 492.082 605.99 492.3 605.865C492.518 605.739 492.699 605.559 492.826 605.342C492.953 605.125 493.021 604.879 493.023 604.627C493.022 604.156 492.899 603.692 492.665 603.282C492.431 602.872 492.095 602.53 491.688 602.289L480.996 596.061V600.116L490.866 605.87Z" fill="#2ACAF7"/>
<path d="M457.783 585.026C457.784 585.5 457.909 585.965 458.146 586.376C458.384 586.786 458.725 587.127 459.136 587.364L481.069 600.15V596.095L460.013 583.82C459.795 583.679 459.544 583.599 459.284 583.589C459.025 583.579 458.768 583.638 458.54 583.762C458.312 583.885 458.121 584.068 457.988 584.29C457.855 584.512 457.784 584.767 457.783 585.026Z" fill="#31047E"/>
<path d="M621.115 461.802C619.48 461.797 617.874 461.369 616.454 460.56L591.102 445.947C590.628 445.675 590.233 445.283 589.959 444.81C589.684 444.337 589.54 443.8 589.54 443.253C589.54 442.706 589.684 442.169 589.959 441.696C590.233 441.223 590.628 440.83 591.102 440.559L616.454 425.946C617.872 425.132 619.479 424.703 621.115 424.703C622.75 424.703 624.357 425.132 625.776 425.946L651.127 440.559C651.602 440.83 651.996 441.223 652.271 441.696C652.545 442.169 652.69 442.706 652.69 443.253C652.69 443.8 652.545 444.337 652.271 444.81C651.996 445.283 651.602 445.675 651.127 445.947L625.776 460.56C624.355 461.369 622.75 461.797 621.115 461.802Z" fill="#2ACAF7"/>
<path d="M403.113 460.542C401.478 460.54 399.872 460.112 398.452 459.3L373.101 444.687C372.626 444.415 372.232 444.023 371.957 443.55C371.683 443.077 371.539 442.54 371.539 441.993C371.539 441.446 371.683 440.909 371.957 440.436C372.232 439.963 372.626 439.57 373.101 439.298L398.452 424.685C399.872 423.874 401.478 423.446 403.113 423.443C404.748 423.45 406.353 423.878 407.774 424.685L433.126 439.298C433.601 439.57 433.995 439.963 434.269 440.436C434.544 440.909 434.688 441.446 434.688 441.993C434.688 442.54 434.544 443.077 434.269 443.55C433.995 444.023 433.601 444.415 433.126 444.687L407.774 459.3C406.353 460.108 404.748 460.536 403.113 460.542Z" fill="#2ACAF7"/>
<path d="M512.105 398.693C510.47 398.686 508.865 398.258 507.444 397.451L482.093 382.838C481.596 382.573 481.18 382.178 480.89 381.695C480.601 381.213 480.448 380.661 480.448 380.098C480.448 379.535 480.601 378.983 480.89 378.5C481.18 378.017 481.596 377.623 482.093 377.358L507.444 362.745C508.86 361.924 510.468 361.489 512.105 361.484C513.743 361.484 515.352 361.919 516.766 362.745L542.117 377.358C542.614 377.623 543.03 378.017 543.32 378.5C543.609 378.983 543.762 379.535 543.762 380.098C543.762 380.661 543.609 381.213 543.32 381.695C543.03 382.178 542.614 382.573 542.117 382.838L516.766 397.451C515.347 398.262 513.74 398.69 512.105 398.693Z" fill="#2ACAF7"/>
<path d="M512.105 523.525C510.468 523.52 508.86 523.086 507.444 522.264L482.092 507.651C481.622 507.378 481.232 506.987 480.96 506.515C480.689 506.044 480.546 505.51 480.546 504.966C480.546 504.423 480.689 503.888 480.96 503.417C481.232 502.946 481.622 502.554 482.092 502.281L507.444 487.668C508.862 486.853 510.469 486.424 512.105 486.426C513.742 486.415 515.351 486.844 516.766 487.668L542.117 502.281C542.592 502.553 542.987 502.945 543.261 503.418C543.535 503.891 543.68 504.429 543.68 504.975C543.68 505.522 543.535 506.059 543.261 506.532C542.987 507.005 542.592 507.398 542.117 507.67L516.766 522.283C515.35 523.102 513.741 523.531 512.105 523.525Z" fill="#2ACAF7"/>
<path d="M534.571 467.548L536.858 465.262L534.571 462.976L532.283 465.262L534.571 467.548Z" fill="#2ACAF7"/>
<path d="M525.153 483.538L527.44 481.252L525.153 478.966L522.865 481.252L525.153 483.538Z" fill="#2ACAF7"/>
<path d="M494.162 489.901L496.45 487.615L494.162 485.329L491.874 487.615L494.162 489.901Z" fill="#2ACAF7"/>
<path d="M505.967 457.407L508.255 455.121L505.967 452.835L503.679 455.121L505.967 457.407Z" fill="#2ACAF7"/>
<path d="M604.493 397.644L602.206 395.357L599.918 397.644L602.206 399.93L604.493 397.644Z" fill="#2ACAF7"/>
<path d="M628.468 416.294L626.18 414.008L623.892 416.294L626.18 418.58L628.468 416.294Z" fill="#2ACAF7"/>
<path d="M640.269 424.632L637.981 422.346L635.693 424.632L637.981 426.918L640.269 424.632Z" fill="#2ACAF7"/>
<path d="M639.262 387.814L636.975 385.527L634.687 387.814L636.975 390.1L639.262 387.814Z" fill="#2ACAF7"/>
<path d="M495.323 338.386L493.035 336.1L490.747 338.386L493.035 340.672L495.323 338.386Z" fill="#2ACAF7"/>
<path d="M508.245 327.351L505.958 325.064L503.67 327.351L505.958 329.637L508.245 327.351Z" fill="#2ACAF7"/>
<path d="M521.357 355.511L519.069 353.225L516.782 355.511L519.069 357.797L521.357 355.511Z" fill="#2ACAF7"/>
<path d="M533.469 340.685L531.182 338.398L528.894 340.685L531.182 342.971L533.469 340.685Z" fill="#2ACAF7"/>
<path d="M387.531 399.921L385.243 397.635L382.956 399.921L385.243 402.207L387.531 399.921Z" fill="#2ACAF7"/>
<path d="M411.449 415.136L409.162 412.85L406.874 415.136L409.162 417.422L411.449 415.136Z" fill="#2ACAF7"/>
<path d="M418.225 421.86L415.938 419.574L413.65 421.86L415.938 424.147L418.225 421.86Z" fill="#2ACAF7"/>
<path d="M422.282 390.089L419.994 387.803L417.706 390.089L419.994 392.375L422.282 390.089Z" fill="#2ACAF7"/>
<g filter="url(#filter1_d)">
<path d="M543.671 325.975C543.674 325.547 543.565 325.125 543.353 324.753C543.141 324.381 542.835 324.071 542.465 323.856L515.34 308.238C514.337 307.668 513.204 307.366 512.05 307.361C510.902 307.367 509.775 307.669 508.778 308.238L481.709 323.856C481.334 324.068 481.023 324.376 480.807 324.748C480.592 325.121 480.48 325.544 480.484 325.975V380.463C480.48 380.893 480.592 381.317 480.807 381.689C481.023 382.062 481.334 382.37 481.709 382.582L508.778 398.199C509.774 398.771 510.902 399.074 512.05 399.076C513.204 399.072 514.337 398.77 515.34 398.199L542.41 382.582C542.78 382.366 543.086 382.057 543.298 381.685C543.51 381.312 543.62 380.891 543.616 380.463L543.671 325.975Z" fill="url(#paint13_linear)" fill-opacity="0.3"/>
</g>
<g filter="url(#filter2_d)">
<path d="M652.681 388.628C652.683 388.2 652.571 387.78 652.355 387.41C652.14 387.041 651.829 386.736 651.456 386.527L624.386 370.909C623.392 370.335 622.263 370.033 621.115 370.033C619.966 370.033 618.838 370.335 617.843 370.909L590.773 386.527C590.4 386.736 590.09 387.041 589.874 387.41C589.659 387.78 589.546 388.2 589.549 388.628V443.134C589.544 443.562 589.656 443.983 589.872 444.353C590.087 444.723 590.399 445.027 590.773 445.235L617.843 460.871C618.838 461.445 619.966 461.747 621.115 461.747C622.263 461.747 623.392 461.445 624.386 460.871L651.456 445.235C651.831 445.027 652.142 444.723 652.358 444.353C652.573 443.983 652.685 443.562 652.681 443.134V388.628Z" fill="url(#paint14_linear)" fill-opacity="0.3"/>
</g>
<g filter="url(#filter3_d)">
<path d="M434.68 387.441C434.683 387.011 434.572 386.587 434.356 386.215C434.141 385.842 433.83 385.534 433.455 385.322L406.385 369.704C405.391 369.13 404.262 368.828 403.114 368.828C401.965 368.828 400.836 369.13 399.842 369.704L372.772 385.285C372.402 385.501 372.096 385.811 371.884 386.183C371.672 386.555 371.562 386.976 371.566 387.404V441.911C371.562 442.339 371.672 442.76 371.884 443.132C372.096 443.504 372.402 443.814 372.772 444.03L399.86 459.647C400.855 460.221 401.983 460.523 403.132 460.523C404.28 460.523 405.409 460.221 406.404 459.647L433.473 444.03C433.848 443.818 434.159 443.51 434.374 443.137C434.59 442.764 434.701 442.341 434.698 441.911L434.68 387.441Z" fill="url(#paint15_linear)" fill-opacity="0.3"/>
</g>
<g filter="url(#filter4_d)">
<path d="M543.689 450.478C543.69 450.051 543.576 449.631 543.361 449.262C543.146 448.893 542.837 448.588 542.465 448.377L515.34 432.778C514.342 432.204 513.211 431.902 512.059 431.902C510.908 431.902 509.777 432.204 508.778 432.778L481.709 448.414C481.337 448.624 481.027 448.93 480.812 449.299C480.597 449.668 480.484 450.087 480.484 450.515V505.021C480.486 505.448 480.6 505.867 480.815 506.236C481.03 506.604 481.338 506.91 481.709 507.122L508.778 522.74C509.777 523.313 510.908 523.615 512.059 523.615C513.211 523.615 514.342 523.313 515.34 522.74L542.41 507.122C542.781 506.91 543.089 506.604 543.304 506.236C543.519 505.867 543.633 505.448 543.634 505.021L543.689 450.478Z" fill="url(#paint16_linear)" fill-opacity="0.3"/>
</g>
<path d="M778.981 287.926V302.028C778.981 304.84 778.237 307.601 776.825 310.033C775.413 312.464 773.382 314.479 770.939 315.874L724.074 342.616C720.457 344.684 716.361 345.772 712.194 345.772C708.026 345.772 703.931 344.684 700.313 342.616L653.467 315.874C651.019 314.483 648.984 312.469 647.568 310.037C646.152 307.605 645.406 304.842 645.406 302.028V286.977L693.495 319.527C698.999 323.302 705.518 325.322 712.194 325.322C718.869 325.322 725.388 323.302 730.892 319.527L778.981 287.926Z" fill="url(#paint17_linear)"/>
<path d="M651.401 276.491L700.222 248.288C703.862 246.188 707.991 245.082 712.194 245.082C716.397 245.082 720.526 246.188 724.166 248.288L773.059 276.491C774.882 277.538 776.396 279.047 777.449 280.865C778.502 282.683 779.056 284.747 779.056 286.848C779.056 288.949 778.502 291.013 777.449 292.831C776.396 294.649 774.882 296.158 773.059 297.205L724.166 325.372C720.526 327.472 716.397 328.577 712.194 328.577C707.991 328.577 703.862 327.472 700.222 325.372L651.401 297.205C649.583 296.154 648.074 294.644 647.025 292.826C645.975 291.008 645.423 288.947 645.423 286.848C645.423 284.749 645.975 282.688 647.025 280.87C648.074 279.052 649.583 277.542 651.401 276.491Z" fill="url(#paint18_linear)"/>
<path d="M651.401 276.491L700.222 248.288C703.862 246.188 707.991 245.082 712.194 245.082C716.397 245.082 720.526 246.188 724.166 248.288L773.059 276.491C774.882 277.538 776.396 279.047 777.449 280.865C778.502 282.683 779.056 284.747 779.056 286.848C779.056 288.949 778.502 291.013 777.449 292.831C776.396 294.649 774.882 296.158 773.059 297.205L724.166 325.372C720.526 327.472 716.397 328.577 712.194 328.577C707.991 328.577 703.862 327.472 700.222 325.372L651.401 297.205C649.583 296.154 648.074 294.644 647.025 292.826C645.975 291.008 645.423 288.947 645.423 286.848C645.423 284.749 645.975 282.688 647.025 280.87C648.074 279.052 649.583 277.542 651.401 276.491Z" fill="url(#paint19_linear)"/>
<path d="M712.194 323.509C708.883 323.514 705.629 322.644 702.762 320.988L653.942 292.822C652.89 292.219 652.016 291.349 651.408 290.3C650.801 289.251 650.48 288.061 650.48 286.849C650.48 285.637 650.801 284.446 651.408 283.397C652.016 282.349 652.89 281.479 653.942 280.875L702.762 252.709C705.64 251.084 708.889 250.23 712.194 250.23C715.499 250.23 718.748 251.084 721.625 252.709L770.464 280.875C771.511 281.482 772.381 282.354 772.985 283.402C773.589 284.45 773.907 285.639 773.907 286.849C773.907 288.058 773.589 289.247 772.985 290.295C772.381 291.344 771.511 292.215 770.464 292.822L721.625 320.988C718.76 322.647 715.505 323.516 712.194 323.509ZM712.194 252.015C709.206 252.018 706.271 252.799 703.676 254.28L654.856 282.465C654.085 282.908 653.445 283.547 653 284.317C652.555 285.087 652.321 285.96 652.321 286.849C652.321 287.737 652.555 288.611 653 289.38C653.445 290.15 654.085 290.789 654.856 291.232L703.603 319.417C706.203 320.882 709.137 321.651 712.121 321.651C715.105 321.651 718.039 320.882 720.638 319.417L769.477 291.232C770.243 290.785 770.878 290.145 771.32 289.376C771.762 288.607 771.994 287.735 771.994 286.849C771.994 285.962 771.762 285.091 771.32 284.321C770.878 283.552 770.243 282.912 769.477 282.465L720.638 254.28C718.074 252.781 715.164 251.975 712.194 251.942V252.015Z" fill="#2ACAF7"/>
<path d="M712.194 305.407C710.558 305.409 708.951 304.98 707.533 304.165L682.181 289.552C681.711 289.279 681.32 288.887 681.049 288.416C680.778 287.944 680.635 287.41 680.635 286.867C680.635 286.323 680.778 285.789 681.049 285.318C681.32 284.846 681.711 284.455 682.181 284.181L707.533 269.568C708.951 268.753 710.558 268.325 712.194 268.326C713.831 268.316 715.44 268.745 716.855 269.568L742.206 284.181C742.677 284.455 743.067 284.846 743.338 285.318C743.61 285.789 743.753 286.323 743.753 286.867C743.753 287.41 743.61 287.944 743.338 288.416C743.067 288.887 742.677 289.279 742.206 289.552L716.855 304.165C715.44 304.988 713.831 305.417 712.194 305.407Z" fill="#2ACAF7"/>
<path d="M723.398 289.388L719.468 291.452C719 291.627 718.499 291.697 718 291.66C717.502 291.622 717.017 291.476 716.581 291.233L703.183 283.506C702.708 283.232 702.433 282.885 702.433 282.575V281.643C702.439 281.494 702.489 281.35 702.577 281.23C702.665 281.109 702.787 281.018 702.927 280.967L706.838 278.903C707.305 278.721 707.805 278.644 708.305 278.679C708.804 278.714 709.29 278.859 709.726 279.104L711.207 279.963C711.346 280.047 711.505 280.093 711.667 280.096C711.83 280.098 711.991 280.057 712.132 279.977C712.274 279.897 712.391 279.781 712.473 279.64C712.554 279.5 712.597 279.34 712.596 279.177V273.697L718.865 276.766V283.378C718.863 283.705 718.948 284.027 719.112 284.309C719.276 284.592 719.512 284.826 719.797 284.986L723.179 286.922C723.727 287.233 723.947 287.634 723.873 288C723.892 288.475 724.038 289.004 723.398 289.388Z" fill="url(#paint20_linear)"/>
<path d="M718.865 276.692V283.304L712.486 279.651C712.559 279.516 712.597 279.365 712.596 279.212V273.732L718.865 276.692Z" fill="#CACEFC"/>
<path d="M741.237 288.218V260.289C741.252 259.302 741 258.33 740.508 257.475C740.015 256.62 739.301 255.913 738.441 255.43L698.814 232.56C698.41 232.341 697.958 232.227 697.498 232.227C697.038 232.227 696.586 232.341 696.182 232.56L694.628 233.419C694.181 233.653 693.807 234.004 693.546 234.436C693.285 234.867 693.147 235.362 693.148 235.866V263.631C693.151 264.597 693.41 265.545 693.898 266.379C694.385 267.214 695.085 267.904 695.926 268.38L735.571 291.359C737.088 292.236 738.368 291.469 739.921 290.501C740.315 290.262 740.642 289.927 740.872 289.528C741.102 289.129 741.228 288.678 741.237 288.218Z" fill="url(#paint21_linear)"/>
<path d="M696.694 237.018V261.896L716.453 273.386L732.281 257.567L696.694 237.018Z" fill="#00125C"/>
<path d="M716.453 273.387L736.156 284.803V259.833L732.281 257.568L716.453 273.387Z" fill="#13287B"/>
<defs>
<filter id="filter0_d" x="0" y="-11" width="823.646" height="783" filterUnits="userSpaceOnUse" color-interpolation-filters="sRGB">
<feFlood flood-opacity="0" result="BackgroundImageFix"/>
<feColorMatrix in="SourceAlpha" type="matrix" values="0 0 0 0 0 0 0 0 0 0 0 0 0 0 0 0 0 0 127 0"/>
<feOffset/>
<feGaussianBlur stdDeviation="10"/>
<feColorMatrix type="matrix" values="0 0 0 0 0.164706 0 0 0 0 0.792157 0 0 0 0 0.968627 0 0 0 0.5 0"/>
<feBlend mode="normal" in2="BackgroundImageFix" result="effect1_dropShadow"/>
<feBlend mode="normal" in="SourceGraphic" in2="effect1_dropShadow" result="shape"/>
</filter>
<filter id="filter1_d" x="450.484" y="277.361" width="123.187" height="151.715" filterUnits="userSpaceOnUse" color-interpolation-filters="sRGB">
<feFlood flood-opacity="0" result="BackgroundImageFix"/>
<feColorMatrix in="SourceAlpha" type="matrix" values="0 0 0 0 0 0 0 0 0 0 0 0 0 0 0 0 0 0 127 0"/>
<feOffset/>
<feGaussianBlur stdDeviation="15"/>
<feColorMatrix type="matrix" values="0 0 0 0 0.164706 0 0 0 0 0.792157 0 0 0 0 0.968627 0 0 0 0.15 0"/>
<feBlend mode="normal" in2="BackgroundImageFix" result="effect1_dropShadow"/>
<feBlend mode="normal" in="SourceGraphic" in2="effect1_dropShadow" result="shape"/>
</filter>
<filter id="filter2_d" x="559.549" y="340.033" width="123.132" height="151.714" filterUnits="userSpaceOnUse" color-interpolation-filters="sRGB">
<feFlood flood-opacity="0" result="BackgroundImageFix"/>
<feColorMatrix in="SourceAlpha" type="matrix" values="0 0 0 0 0 0 0 0 0 0 0 0 0 0 0 0 0 0 127 0"/>
<feOffset/>
<feGaussianBlur stdDeviation="15"/>
<feColorMatrix type="matrix" values="0 0 0 0 0.164706 0 0 0 0 0.792157 0 0 0 0 0.968627 0 0 0 0.15 0"/>
<feBlend mode="normal" in2="BackgroundImageFix" result="effect1_dropShadow"/>
<feBlend mode="normal" in="SourceGraphic" in2="effect1_dropShadow" result="shape"/>
</filter>
<filter id="filter3_d" x="341.566" y="338.828" width="123.132" height="151.695" filterUnits="userSpaceOnUse" color-interpolation-filters="sRGB">
<feFlood flood-opacity="0" result="BackgroundImageFix"/>
<feColorMatrix in="SourceAlpha" type="matrix" values="0 0 0 0 0 0 0 0 0 0 0 0 0 0 0 0 0 0 127 0"/>
<feOffset/>
<feGaussianBlur stdDeviation="15"/>
<feColorMatrix type="matrix" values="0 0 0 0 0.164706 0 0 0 0 0.792157 0 0 0 0 0.968627 0 0 0 0.15 0"/>
<feBlend mode="normal" in2="BackgroundImageFix" result="effect1_dropShadow"/>
<feBlend mode="normal" in="SourceGraphic" in2="effect1_dropShadow" result="shape"/>
</filter>
<filter id="filter4_d" x="450.484" y="401.902" width="123.205" height="151.713" filterUnits="userSpaceOnUse" color-interpolation-filters="sRGB">
<feFlood flood-opacity="0" result="BackgroundImageFix"/>
<feColorMatrix in="SourceAlpha" type="matrix" values="0 0 0 0 0 0 0 0 0 0 0 0 0 0 0 0 0 0 127 0"/>
<feOffset/>
<feGaussianBlur stdDeviation="15"/>
<feColorMatrix type="matrix" values="0 0 0 0 0.164706 0 0 0 0 0.792157 0 0 0 0 0.968627 0 0 0 0.15 0"/>
<feBlend mode="normal" in2="BackgroundImageFix" result="effect1_dropShadow"/>
<feBlend mode="normal" in="SourceGraphic" in2="effect1_dropShadow" result="shape"/>
</filter>
<linearGradient id="paint0_linear" x1="178.112" y1="694.662" x2="44.5364" y2="694.662" gradientUnits="userSpaceOnUse">
<stop stop-color="#CACEFC"/>
<stop offset="0.11" stop-color="#BABEFB"/>
<stop offset="0.26" stop-color="#A7ACFA"/>
<stop offset="0.38" stop-color="#A0A5FA"/>
<stop offset="0.44" stop-color="#AFB4FB"/>
<stop offset="0.58" stop-color="#D7D9FD"/>
<stop offset="0.69" stop-color="white"/>
</linearGradient>
<linearGradient id="paint1_linear" x1="111.324" y1="623.405" x2="111.324" y2="706.882" gradientUnits="userSpaceOnUse">
<stop stop-color="#0E004F"/>
<stop offset="1" stop-color="#5E45D9"/>
</linearGradient>
<linearGradient id="paint2_linear" x1="23161.6" y1="20408.7" x2="32922.1" y2="20408.7" gradientUnits="userSpaceOnUse">
<stop stop-color="#0E004F"/>
<stop offset="1" stop-color="#5E45D9"/>
</linearGradient>
<linearGradient id="paint3_linear" x1="108.911" y1="667.08" x2="114.938" y2="659.568" gradientUnits="userSpaceOnUse">
<stop stop-color="#CACEFC"/>
<stop offset="0.38" stop-color="#E5E7FE"/>
<stop offset="0.75" stop-color="#F8F9FF"/>
<stop offset="1" stop-color="white"/>
</linearGradient>
<linearGradient id="paint4_linear" x1="1981.75" y1="21214.5" x2="3246.99" y2="21214.5" gradientUnits="userSpaceOnUse">
<stop stop-color="#CACEFC"/>
<stop offset="0.38" stop-color="#E5E7FE"/>
<stop offset="0.75" stop-color="#F8F9FF"/>
<stop offset="1" stop-color="white"/>
</linearGradient>
<linearGradient id="paint5_linear" x1="41283.1" y1="52491.4" x2="31524.1" y2="52491.4" gradientUnits="userSpaceOnUse">
<stop stop-color="#CACEFC"/>
<stop offset="0.11" stop-color="#BABEFB"/>
<stop offset="0.26" stop-color="#A7ACFA"/>
<stop offset="0.38" stop-color="#A0A5FA"/>
<stop offset="0.44" stop-color="#AFB4FB"/>
<stop offset="0.58" stop-color="#D7D9FD"/>
<stop offset="0.69" stop-color="white"/>
</linearGradient>
<linearGradient id="paint6_linear" x1="31524.7" y1="17299.4" x2="41283.9" y2="17299.4" gradientUnits="userSpaceOnUse">
<stop stop-color="#0E004F"/>
<stop offset="1" stop-color="#5E45D9"/>
</linearGradient>
<linearGradient id="paint7_linear" x1="49370.8" y1="59506.9" x2="39607.7" y2="59506.9" gradientUnits="userSpaceOnUse">
<stop stop-color="#CACEFC"/>
<stop offset="0.11" stop-color="#BABEFB"/>
<stop offset="0.26" stop-color="#A7ACFA"/>
<stop offset="0.38" stop-color="#A0A5FA"/>
<stop offset="0.44" stop-color="#AFB4FB"/>
<stop offset="0.58" stop-color="#D7D9FD"/>
<stop offset="0.69" stop-color="white"/>
</linearGradient>
<linearGradient id="paint8_linear" x1="44482.5" y1="18333.1" x2="44482.5" y2="22147.2" gradientUnits="userSpaceOnUse">
<stop stop-color="#0E004F"/>
<stop offset="1" stop-color="#5E45D9"/>
</linearGradient>
<linearGradient id="paint9_linear" x1="33217.7" y1="59387.7" x2="23456" y2="59387.7" gradientUnits="userSpaceOnUse">
<stop stop-color="#CACEFC"/>
<stop offset="0.11" stop-color="#BABEFB"/>
<stop offset="0.26" stop-color="#A7ACFA"/>
<stop offset="0.38" stop-color="#A0A5FA"/>
<stop offset="0.44" stop-color="#AFB4FB"/>
<stop offset="0.58" stop-color="#D7D9FD"/>
<stop offset="0.69" stop-color="white"/>
</linearGradient>
<linearGradient id="paint10_linear" x1="23452.9" y1="20186.8" x2="33213.3" y2="20186.8" gradientUnits="userSpaceOnUse">
<stop stop-color="#0E004F"/>
<stop offset="1" stop-color="#5E45D9"/>
</linearGradient>
<linearGradient id="paint11_linear" x1="41283.1" y1="66384.3" x2="31524.1" y2="66384.3" gradientUnits="userSpaceOnUse">
<stop stop-color="#CACEFC"/>
<stop offset="0.11" stop-color="#BABEFB"/>
<stop offset="0.26" stop-color="#A7ACFA"/>
<stop offset="0.38" stop-color="#A0A5FA"/>
<stop offset="0.44" stop-color="#AFB4FB"/>
<stop offset="0.58" stop-color="#D7D9FD"/>
<stop offset="0.69" stop-color="white"/>
</linearGradient>
<linearGradient id="paint12_linear" x1="36405" y1="21220.8" x2="36405" y2="25035.8" gradientUnits="userSpaceOnUse">
<stop stop-color="#0E004F"/>
<stop offset="1" stop-color="#5E45D9"/>
</linearGradient>
<linearGradient id="paint13_linear" x1="512.105" y1="399.076" x2="512.105" y2="307.361" gradientUnits="userSpaceOnUse">
<stop stop-color="#2ACAF7"/>
<stop offset="0.8" stop-color="#2ACAF7"/>
<stop offset="1" stop-color="#2ACAF7"/>
</linearGradient>
<linearGradient id="paint14_linear" x1="21351.9" y1="23102.2" x2="21351.9" y2="18497.2" gradientUnits="userSpaceOnUse">
<stop stop-color="#2ACAF7"/>
<stop offset="0.8" stop-color="#2ACAF7"/>
<stop offset="1" stop-color="#2ACAF7"/>
</linearGradient>
<linearGradient id="paint15_linear" x1="13604.1" y1="23035.9" x2="13604.1" y2="18431.9" gradientUnits="userSpaceOnUse">
<stop stop-color="#2ACAF7"/>
<stop offset="0.8" stop-color="#2ACAF7"/>
<stop offset="1" stop-color="#2ACAF7"/>
</linearGradient>
<linearGradient id="paint16_linear" x1="17497.8" y1="26268.3" x2="17497.8" y2="21663.4" gradientUnits="userSpaceOnUse">
<stop stop-color="#2ACAF7"/>
<stop offset="0.8" stop-color="#2ACAF7"/>
<stop offset="1" stop-color="#2ACAF7"/>
</linearGradient>
<linearGradient id="paint17_linear" x1="56111.2" y1="10180.5" x2="46349.5" y2="10180.5" gradientUnits="userSpaceOnUse">
<stop stop-color="#CACEFC"/>
<stop offset="0.11" stop-color="#BABEFB"/>
<stop offset="0.26" stop-color="#A7ACFA"/>
<stop offset="0.38" stop-color="#A0A5FA"/>
<stop offset="0.44" stop-color="#AFB4FB"/>
<stop offset="0.58" stop-color="#D7D9FD"/>
<stop offset="0.69" stop-color="white"/>
</linearGradient>
<linearGradient id="paint18_linear" x1="712.24" y1="245.073" x2="712.24" y2="328.574" gradientUnits="userSpaceOnUse">
<stop stop-color="#0E004F"/>
<stop offset="1" stop-color="#5E45D9"/>
</linearGradient>
<linearGradient id="paint19_linear" x1="23771.9" y1="20036" x2="33536.5" y2="20036" gradientUnits="userSpaceOnUse">
<stop stop-color="#0E004F"/>
<stop offset="1" stop-color="#5E45D9"/>
</linearGradient>
<linearGradient id="paint20_linear" x1="8808.87" y1="3026.86" x2="8865.09" y2="2943.01" gradientUnits="userSpaceOnUse">
<stop stop-color="#CACEFC"/>
<stop offset="0.38" stop-color="#E5E7FE"/>
<stop offset="0.75" stop-color="#F8F9FF"/>
<stop offset="1" stop-color="white"/>
</linearGradient>
<linearGradient id="paint21_linear" x1="18403.7" y1="8475.37" x2="19669" y2="8475.37" gradientUnits="userSpaceOnUse">
<stop stop-color="#CACEFC"/>
<stop offset="0.38" stop-color="#E5E7FE"/>
<stop offset="0.75" stop-color="#F8F9FF"/>
<stop offset="1" stop-color="white"/>
</linearGradient>
</defs>
</svg>
