<svg width="131" height="121" viewBox="0 0 131 121" fill="none" xmlns="http://www.w3.org/2000/svg">
<path d="M130.662 63.6186V77.4126C130.662 80.1628 129.934 82.8641 128.553 85.2426C127.171 87.6212 125.185 89.5924 122.795 90.9565L76.9526 117.115C73.4139 119.138 69.4079 120.202 65.3311 120.202C61.2542 120.202 57.2482 119.138 53.7095 117.115L7.88479 90.9565C5.49061 89.5961 3.49975 87.6262 2.11477 85.2471C0.729788 82.8681 0.000122917 80.1649 0 77.4126V62.6895L47.0405 94.53C52.4245 98.2224 58.8012 100.199 65.3311 100.199C71.8609 100.199 78.2375 98.2224 83.6216 94.53L130.662 63.6186Z" fill="url(#paint0_linear)"/>
<path d="M5.84783 52.4349L53.6035 24.8469C57.164 22.7925 61.203 21.7109 65.3144 21.7109C69.4258 21.7109 73.4648 22.7925 77.0254 24.8469L124.853 52.4349C126.635 53.459 128.116 54.9349 129.146 56.7136C130.176 58.4923 130.718 60.511 130.718 62.566C130.718 64.621 130.176 66.6397 129.146 68.4184C128.116 70.1971 126.635 71.6729 124.853 72.6971L77.0254 100.249C73.4648 102.304 69.4258 103.385 65.3144 103.385C61.203 103.385 57.164 102.304 53.6035 100.249L5.84783 72.6971C4.0696 71.6693 2.59317 70.1921 1.56673 68.4139C0.540298 66.6356 0 64.6189 0 62.566C0 60.5131 0.540298 58.4963 1.56673 56.7181C2.59317 54.9398 4.0696 53.4627 5.84783 52.4349Z" fill="url(#paint1_linear)"/>
<path d="M5.84783 52.4349L53.6035 24.8469C57.164 22.7925 61.203 21.7109 65.3144 21.7109C69.4258 21.7109 73.4648 22.7925 77.0254 24.8469L124.853 52.4349C126.635 53.459 128.116 54.9349 129.146 56.7136C130.176 58.4923 130.718 60.511 130.718 62.566C130.718 64.621 130.176 66.6397 129.146 68.4184C128.116 70.1971 126.635 71.6729 124.853 72.6971L77.0254 100.249C73.4648 102.304 69.4258 103.385 65.3144 103.385C61.203 103.385 57.164 102.304 53.6035 100.249L5.84783 72.6971C4.0696 71.6693 2.59317 70.1921 1.56673 68.4139C0.540298 66.6356 0 64.6189 0 62.566C0 60.5131 0.540298 58.4963 1.56673 56.7181C2.59317 54.9398 4.0696 53.4627 5.84783 52.4349Z" fill="url(#paint2_linear)"/>
<path d="M65.3265 98.4264C62.0875 98.4312 58.9049 97.5806 56.1007 95.9606L8.34502 68.4084C7.31606 67.8184 6.46113 66.9674 5.86659 65.9415C5.27206 64.9156 4.95898 63.7511 4.95898 62.5656C4.95898 61.38 5.27206 60.2155 5.86659 59.1896C6.46113 58.1637 7.31606 57.3127 8.34502 56.7228L56.1007 29.1705C58.9155 27.5812 62.0935 26.7461 65.3265 26.7461C68.5594 26.7461 71.7374 27.5812 74.5521 29.1705L122.326 56.7228C123.35 57.3164 124.2 58.1686 124.792 59.1941C125.383 60.2195 125.694 61.3821 125.694 62.5656C125.694 63.749 125.383 64.9116 124.792 65.9371C124.2 66.9625 123.35 67.8147 122.326 68.4084L74.5521 95.9606C71.749 97.5829 68.5657 98.4337 65.3265 98.4264ZM65.3265 28.4915C62.4039 28.4951 59.5326 29.2587 56.9947 30.7071L9.23899 58.2773C8.48517 58.7114 7.85909 59.3363 7.42377 60.0892C6.98846 60.842 6.7593 61.6961 6.7593 62.5656C6.7593 63.435 6.98846 64.2892 7.42377 65.042C7.85909 65.7948 8.48517 66.4197 9.23899 66.8538L56.9232 94.424C59.4661 95.8565 62.3358 96.6091 65.2549 96.6091C68.174 96.6091 71.0438 95.8565 73.5867 94.424L121.36 66.8538C122.11 66.4161 122.731 65.7899 123.163 65.0376C123.595 64.2852 123.822 63.4329 123.822 62.5656C123.822 61.6982 123.595 60.8459 123.163 60.0936C122.731 59.3412 122.11 58.715 121.36 58.2773L73.5867 30.7071C71.0787 29.2411 68.2319 28.4528 65.3265 28.42V28.4915Z" fill="#2ACAF7"/>
<g clip-path="url(#clip0)">
<path d="M69.0538 64.833L67.4257 64.7797L82.267 29.3935L42.1133 3.48857L46.8176 0.914062C50.0873 2.26446 53.527 3.12247 57.0317 3.46194C60.566 3.80687 64.1299 3.6245 67.6142 2.92041C70.3073 7.40815 73.4246 11.6072 76.92 15.4556C80.3152 19.1847 84.0452 22.5705 88.0596 25.5672V45.7106C88.0619 48.2706 87.5677 50.8051 86.6064 53.1635C85.6452 55.522 84.2364 57.6563 82.4637 59.4398C80.691 61.2234 78.5906 62.6198 76.287 63.5463C73.9835 64.4727 71.5237 64.9103 69.0538 64.833Z" fill="#0FB03C"/>
<path d="M64.3495 67.3806L62.7214 67.3273L51.4191 54.1795C45.4159 47.1819 42.1041 38.1427 42.1133 28.7806V3.48828C45.3838 4.83801 48.8229 5.69889 52.3274 6.04504C55.8703 6.388 59.4424 6.20565 62.9357 5.5035C65.6231 9.98551 68.7316 14.1813 72.2157 18.0298C75.6087 21.7612 79.3389 25.1472 83.3553 28.1414V48.2848C83.3553 50.843 82.8594 53.3751 81.897 55.731C80.9346 58.0869 79.5254 60.2185 77.7528 61.9995C75.9802 63.7804 73.8805 65.1744 71.5781 66.0988C69.2757 67.0231 66.8176 67.459 64.3495 67.3806Z" fill="#27E35C"/>
</g>
<defs>
<linearGradient id="paint0_linear" x1="54256.1" y1="9740.39" x2="44707.3" y2="9740.39" gradientUnits="userSpaceOnUse">
<stop stop-color="#CACEFC"/>
<stop offset="0.11" stop-color="#BABEFB"/>
<stop offset="0.26" stop-color="#A7ACFA"/>
<stop offset="0.38" stop-color="#A0A5FA"/>
<stop offset="0.44" stop-color="#AFB4FB"/>
<stop offset="0.58" stop-color="#D7D9FD"/>
<stop offset="0.69" stop-color="white"/>
</linearGradient>
<linearGradient id="paint1_linear" x1="65.3592" y1="21.7021" x2="65.3592" y2="103.382" gradientUnits="userSpaceOnUse">
<stop stop-color="#0E004F"/>
<stop offset="1" stop-color="#5E45D9"/>
</linearGradient>
<linearGradient id="paint2_linear" x1="22622.1" y1="19381" x2="32173.7" y2="19381" gradientUnits="userSpaceOnUse">
<stop stop-color="#0E004F"/>
<stop offset="1" stop-color="#5E45D9"/>
</linearGradient>
<clipPath id="clip0">
<rect width="54.9654" height="80.2198" fill="white" transform="translate(38.623 0.914062)"/>
</clipPath>
</defs>
</svg>
