<svg width="88" height="109" viewBox="0 0 88 109" fill="none" xmlns="http://www.w3.org/2000/svg">
<path d="M82.5604 40.6777L51.734 58.2678C49.3545 59.6282 46.6606 60.3439 43.9192 60.3439C41.1778 60.3439 38.484 59.6282 36.1044 58.2678L5.29003 40.6777C3.68316 39.7605 2.34751 38.4349 1.4185 36.8355C0.48948 35.2361 0.000108205 33.4197 1.94023e-06 31.5703V34.1055C-0.00112389 35.9551 0.487723 37.772 1.41686 39.3716C2.34601 40.9713 3.68233 42.2966 5.29003 43.2129L36.1164 60.803C38.496 62.1634 41.1898 62.879 43.9312 62.879C46.6726 62.879 49.3665 62.1634 51.746 60.803L82.5724 43.2129C84.1801 42.2966 85.5165 40.9713 86.4456 39.3716C87.3747 37.772 87.8636 35.9551 87.8624 34.1055V31.5703C87.8611 33.4208 87.37 35.2381 86.4388 36.8376C85.5076 38.4371 84.1695 39.762 82.5604 40.6777Z" fill="#2ACAF7"/>
<path d="M29.9493 29.8759C30.0926 29.9615 30.2561 30.0072 30.4229 30.0086C30.5898 30.0099 30.754 29.9667 30.8986 29.8834C31.0431 29.8002 31.1628 29.6799 31.2454 29.5349C31.3279 29.39 31.3703 29.2257 31.368 29.0589C31.3677 28.7485 31.2866 28.4435 31.1327 28.1739C30.9789 27.9043 30.7575 27.6793 30.4904 27.521L23.457 23.4238V26.0912L29.9493 29.8759Z" fill="#2ACAF7"/>
<path d="M87.8505 28.158L87.8504 79.3832C87.8503 81.2326 87.361 83.049 86.432 84.6484C85.503 86.2478 84.1673 87.5734 82.5604 88.4906L51.734 106.081C49.3545 107.441 46.6606 108.157 43.9192 108.157C41.1778 108.157 38.484 107.441 36.1044 106.081L5.29003 88.5267C3.68316 87.6094 2.34751 86.2839 1.4185 84.6845C0.489478 83.085 0.000106265 81.2686 0 79.4193L7.52763e-05 27.5332L31.62 48.896C35.2354 51.3917 39.5253 52.7284 43.9193 52.7284C48.3133 52.7284 52.6032 51.3917 56.2186 48.896L87.8505 28.158Z" fill="url(#paint0_linear)"/>
<path d="M82.5604 50.0726L51.734 67.6867C49.3545 69.0471 46.6606 69.7627 43.9192 69.7627C41.1778 69.7627 38.484 69.0471 36.1044 67.6867L5.29003 50.0726C3.68304 49.1524 2.34759 47.8246 1.41872 46.2233C0.489839 44.622 0.000444776 42.804 0 40.9531V43.5003C0.000106265 45.3497 0.489478 47.1661 1.4185 48.7655C2.34751 50.365 3.68316 51.6905 5.29003 52.6078L36.1164 70.1978C38.496 71.5582 41.1898 72.2739 43.9312 72.2739C46.6726 72.2739 49.3665 71.5582 51.746 70.1978L82.5724 52.6078C84.1793 51.6905 85.5149 50.365 86.4439 48.7655C87.373 47.1661 87.8623 45.3497 87.8624 43.5003V40.9531C87.8608 42.8052 87.3696 44.624 86.4385 46.2254C85.5075 47.8268 84.1696 49.1539 82.5604 50.0726Z" fill="#00114E"/>
<path d="M82.5604 73.3734L51.734 90.9515C49.3537 92.3096 46.6602 93.0239 43.9192 93.0239C41.1783 93.0239 38.4847 92.3096 36.1044 90.9515L5.29003 73.3734C3.68304 72.4532 2.34759 71.1254 1.41872 69.5241C0.489839 67.9228 0.000444776 66.1048 0 64.2539V66.8011C0.000106265 68.6505 0.489478 70.4669 1.4185 72.0664C2.34751 73.6658 3.68316 74.9913 5.29003 75.9086L36.1164 93.4987C38.496 94.8591 41.1898 95.5747 43.9312 95.5747C46.6726 95.5747 49.3665 94.8591 51.746 93.4987L82.5604 75.9446C84.1673 75.0274 85.503 73.7018 86.432 72.1024C87.361 70.503 87.8503 68.6865 87.8504 66.8372V64.29C87.8437 66.1347 87.3513 67.9453 86.4227 69.5397C85.4942 71.1341 84.1621 72.4563 82.5604 73.3734Z" fill="#00114E"/>
<path d="M3.96749 20.6362L36.0923 2.10898C38.4844 0.727408 41.1985 0 43.9613 0C46.7241 0 49.4381 0.727408 51.8301 2.10898L83.955 20.6362C85.1507 21.3274 86.1436 22.3207 86.8338 23.5164C87.524 24.7122 87.8873 26.0684 87.8873 27.4488C87.8873 28.8293 87.524 30.1854 86.8338 31.3812C86.1436 32.5769 85.1507 33.5702 83.955 34.2614L51.8301 52.8006C49.4381 54.1822 46.7241 54.9096 43.9613 54.9096C41.1985 54.9096 38.4844 54.1822 36.0923 52.8006L3.96749 34.2614C2.77174 33.5702 1.77894 32.5769 1.08873 31.3812C0.398511 30.1854 0.0351562 28.8293 0.0351563 27.4488C0.0351562 26.0684 0.398511 24.7122 1.08873 23.5164C1.77894 22.3207 2.77174 21.3274 3.96749 20.6362Z" fill="url(#paint1_linear)"/>
<path d="M43.9317 51.5757C41.7507 51.5732 39.6081 51.0016 37.7159 49.9176L5.60308 31.3783C4.91117 30.9816 4.33627 30.4094 3.93648 29.7196C3.53669 29.0297 3.32617 28.2466 3.32617 27.4494C3.32617 26.6522 3.53669 25.8691 3.93648 25.1792C4.33627 24.4894 4.91117 23.9172 5.60308 23.5205L37.7159 4.99322C39.6105 3.92349 41.7496 3.36133 43.9257 3.36133C46.1017 3.36133 48.2409 3.92349 50.1354 4.99322L82.2483 23.5205C82.9402 23.9172 83.5151 24.4894 83.9149 25.1792C84.3147 25.8691 84.5252 26.6522 84.5252 27.4494C84.5252 28.2466 84.3147 29.0297 83.9149 29.7196C83.5151 30.4094 82.9402 30.9816 82.2483 31.3783L50.1354 49.9176C48.247 51.0001 46.1087 51.5716 43.9317 51.5757ZM43.9317 4.53664C41.9607 4.53616 40.0243 5.05414 38.3171 6.03852L6.20422 24.5658C5.69756 24.8593 5.27697 25.2808 4.98461 25.788C4.69224 26.2951 4.53836 26.8701 4.53836 27.4554C4.53836 28.0407 4.69224 28.6157 4.98461 29.1229C5.27697 29.63 5.69756 30.0515 6.20422 30.3451L38.3171 48.8723C40.0292 49.8355 41.9609 50.3415 43.9257 50.3415C45.8905 50.3415 47.8221 49.8355 49.5343 48.8723L81.6471 30.3451C82.1538 30.0515 82.5744 29.63 82.8668 29.1229C83.1591 28.6157 83.313 28.0407 83.313 27.4554C83.313 26.8701 83.1591 26.2951 82.8668 25.788C82.5744 25.2808 82.1538 24.8593 81.6471 24.5658L49.5343 6.03852C47.8308 5.05565 45.8987 4.5377 43.9317 4.53664Z" fill="#2ACAF7"/>
<path d="M31.368 78.0879C31.368 77.7791 31.2869 77.4757 31.1329 77.2079C30.9789 76.9402 30.7574 76.7175 30.4904 76.562L23.457 72.4648V75.1202L29.9493 78.905C30.0926 78.9905 30.2561 79.0363 30.4229 79.0376C30.5898 79.0389 30.754 78.9957 30.8986 78.9124C31.0431 78.8292 31.1628 78.7089 31.2454 78.5639C31.3279 78.419 31.3703 78.2546 31.368 78.0879Z" fill="#2ACAF7"/>
<path d="M9.6062 64.3776C9.46234 64.296 9.29964 64.2534 9.13421 64.2539C8.96879 64.2544 8.80636 64.2981 8.66303 64.3807C8.5197 64.4632 8.40043 64.5818 8.31702 64.7245C8.23362 64.8673 8.18897 65.0294 8.18751 65.1947C8.18664 65.5067 8.26853 65.8134 8.4248 66.0836C8.58108 66.3537 8.80618 66.5777 9.0772 66.7326L23.5045 75.1432V72.4878L9.6062 64.3776Z" fill="#31047E"/>
<path d="M43.9189 39.6684C42.8419 39.6654 41.7846 39.3795 40.853 38.8393L24.1774 29.2273C23.868 29.0476 23.6112 28.79 23.4326 28.48C23.2541 28.1701 23.1602 27.8187 23.1602 27.4611C23.1602 27.1034 23.2541 26.7521 23.4326 26.4421C23.6112 26.1322 23.868 25.8745 24.1774 25.6948L40.853 16.0828C41.7855 15.5463 42.8429 15.2646 43.9189 15.2658C44.9956 15.2588 46.0544 15.5409 46.9846 16.0828L63.6602 25.6948C63.9725 25.8737 64.232 26.1317 64.4125 26.4429C64.5929 26.7541 64.6879 27.1074 64.6879 27.4671C64.6879 27.8267 64.5929 28.18 64.4125 28.4912C64.232 28.8024 63.9725 29.0605 63.6602 29.2393L46.9846 38.8514C46.0532 39.3905 44.9952 39.6724 43.9189 39.6684Z" fill="#2ACAF7"/>
<defs>
<linearGradient id="paint0_linear" x1="26862" y1="43361.2" x2="20442.8" y2="43361.2" gradientUnits="userSpaceOnUse">
<stop stop-color="#CACEFC"/>
<stop offset="0.11" stop-color="#BABEFB"/>
<stop offset="0.26" stop-color="#A7ACFA"/>
<stop offset="0.38" stop-color="#A0A5FA"/>
<stop offset="0.44" stop-color="#AFB4FB"/>
<stop offset="0.58" stop-color="#D7D9FD"/>
<stop offset="0.69" stop-color="white"/>
</linearGradient>
<linearGradient id="paint1_linear" x1="23653.3" y1="13653.8" x2="23653.3" y2="16163.2" gradientUnits="userSpaceOnUse">
<stop stop-color="#0E004F"/>
<stop offset="1" stop-color="#5E45D9"/>
</linearGradient>
</defs>
</svg>
