<svg width="88" height="114" viewBox="0 0 88 114" fill="none" xmlns="http://www.w3.org/2000/svg">
<path d="M0.000831604 36.6795V85.2254C0.000938416 87.0747 0.490295 88.8912 1.41932 90.4906C2.34834 92.0901 3.68398 93.4156 5.29085 94.3329L36.1173 111.923C38.4968 113.283 41.1907 113.999 43.9321 113.999C46.6735 113.999 49.3673 113.283 51.7469 111.923L82.5612 94.3329C84.1712 93.4181 85.5099 92.0934 86.4412 90.4937C87.3725 88.8939 87.8632 87.0762 87.8633 85.2254L87.8633 36.0547L56.2314 57.4175C52.6109 59.9004 48.323 61.2293 43.9321 61.2293C39.5412 61.2293 35.2532 59.9004 31.6328 57.4175L0.000831604 36.6795Z" fill="url(#paint0_linear)"/>
<path d="M5.30287 81.7894L36.1293 99.3675C38.5096 100.726 41.2031 101.44 43.9441 101.44C46.685 101.44 49.3785 100.726 51.7589 99.3675L82.5732 81.7894C84.1802 80.8692 85.5157 79.5414 86.4446 77.9401C87.3734 76.3388 87.8628 74.5208 87.8633 72.6699V75.2172C87.8632 77.0665 87.3738 78.883 86.4448 80.4824C85.5158 82.0818 84.1801 83.4073 82.5732 84.3246L51.7469 101.915C49.3673 103.275 46.6735 103.991 43.9321 103.991C41.1907 103.991 38.4968 103.275 36.1173 101.915L5.30287 84.3606C3.69599 83.4434 2.36033 82.1178 1.43131 80.5184C0.502296 78.919 0.0129623 77.1026 0.0128555 75.2532V72.706C0.0196304 74.5508 0.512001 76.3613 1.44056 77.9557C2.36912 79.5501 3.70116 80.8723 5.30287 81.7894Z" fill="#2ACAF7"/>
<path d="M83.9189 29.1595L51.8061 10.6322C49.4118 9.25071 46.6958 8.52344 43.9312 8.52344C41.1665 8.52344 38.4505 9.25071 36.0562 10.6322L3.9434 29.1595C2.74458 29.8481 1.7487 30.8405 1.05619 32.0366C0.36367 33.2327 -0.000976562 34.5901 -0.000976562 35.972C-0.000976562 37.3539 0.36367 38.7113 1.05619 39.9074C1.7487 41.1035 2.74458 42.0959 3.9434 42.7846L36.0562 61.3238C38.4513 62.7029 41.167 63.4289 43.9312 63.4289C46.6953 63.4289 49.411 62.7029 51.8061 61.3238L83.9189 42.7846C85.1177 42.0959 86.1136 41.1035 86.8061 39.9074C87.4986 38.7113 87.8633 37.3539 87.8633 35.972C87.8633 34.5901 87.4986 33.2327 86.8061 32.0366C86.1136 30.8405 85.1177 29.8481 83.9189 29.1595Z" fill="url(#paint1_linear)"/>
<path d="M83.9189 29.1595L51.8061 10.6322C49.4118 9.25071 46.6958 8.52344 43.9312 8.52344C41.1665 8.52344 38.4505 9.25071 36.0562 10.6322L3.9434 29.1595C2.74458 29.8481 1.7487 30.8405 1.05619 32.0366C0.36367 33.2327 -0.000976562 34.5901 -0.000976562 35.972C-0.000976562 37.3539 0.36367 38.7113 1.05619 39.9074C1.7487 41.1035 2.74458 42.0959 3.9434 42.7846L36.0562 61.3238C38.4513 62.7029 41.167 63.4289 43.9312 63.4289C46.6953 63.4289 49.411 62.7029 51.8061 61.3238L83.9189 42.7846C85.1177 42.0959 86.1136 41.1035 86.8061 39.9074C87.4986 38.7113 87.8633 37.3539 87.8633 35.972C87.8633 34.5901 87.4986 33.2327 86.8061 32.0366C86.1136 30.8405 85.1177 29.8481 83.9189 29.1595Z" fill="url(#paint2_linear)"/>
<path d="M43.8838 60.0975C46.0628 60.0965 48.2029 59.5204 50.0876 58.4274L82.2485 39.9002C82.9404 39.5034 83.5153 38.9313 83.9151 38.2414C84.3149 37.5515 84.5254 36.7684 84.5254 35.9712C84.5254 35.174 84.3149 34.3909 83.9151 33.7011C83.5153 33.0112 82.9404 32.439 82.2485 32.0423L50.1356 13.515C48.2429 12.4463 46.1058 11.8848 43.9319 11.8848C41.7579 11.8848 39.6209 12.4463 37.7281 13.515L5.60328 32.0423C4.91443 32.4415 4.34261 33.0146 3.94512 33.7041C3.54763 34.3936 3.33841 35.1754 3.33841 35.9712C3.33841 36.767 3.54763 37.5488 3.94512 38.2384C4.34261 38.9279 4.91443 39.501 5.60328 39.9002L37.7281 58.4274C39.598 59.5138 41.7209 60.0898 43.8838 60.0975ZM43.8838 13.0585C45.8491 13.0609 47.7799 13.5743 49.4864 14.5483L81.6473 33.0876C82.1542 33.3795 82.5752 33.7998 82.868 34.306C83.1607 34.8122 83.3148 35.3866 83.3148 35.9712C83.3148 36.5559 83.1607 37.1302 82.868 37.6365C82.5752 38.1427 82.1542 38.5629 81.6473 38.8548L49.5345 57.3461C47.8245 58.3093 45.8948 58.8154 43.9319 58.8154C41.969 58.8154 40.0392 58.3093 38.3293 57.3461L6.20442 38.8068C5.70056 38.5124 5.28261 38.0914 4.99216 37.5855C4.7017 37.0795 4.54887 36.5065 4.54887 35.9232C4.54887 35.3399 4.7017 34.7668 4.99216 34.2609C5.28261 33.755 5.70056 33.3339 6.20442 33.0395L38.3293 14.5483C40.0204 13.5793 41.9344 13.0659 43.8838 13.0585Z" fill="#2ACAF7"/>
<path d="M43.8839 48.1797C44.9599 48.1809 46.0172 47.8992 46.9497 47.3627L63.6253 37.7507C63.9347 37.5711 64.1916 37.3134 64.3701 37.0034C64.5486 36.6935 64.6426 36.3421 64.6426 35.9845C64.6426 35.6268 64.5486 35.2755 64.3701 34.9655C64.1916 34.6556 63.9347 34.3979 63.6253 34.2183L46.9497 24.6062C46.0172 24.0698 44.9599 23.788 43.8839 23.7892C42.8072 23.7822 41.7484 24.0644 40.8181 24.6062L24.1425 34.2183C23.8331 34.3979 23.5762 34.6556 23.3977 34.9655C23.2192 35.2755 23.1252 35.6268 23.1252 35.9845C23.1252 36.3421 23.2192 36.6935 23.3977 37.0034C23.5762 37.3134 23.8331 37.5711 24.1425 37.7507L40.8181 47.3627C41.7484 47.9045 42.8072 48.1867 43.8839 48.1797Z" fill="#2ACAF7"/>
<path d="M36.8505 37.6299L39.4354 38.9755C39.7424 39.0962 40.0728 39.1459 40.4017 39.1209C40.7307 39.0959 41.0497 38.997 41.335 38.8314L50.1477 33.761C50.4723 33.5688 50.6406 33.3525 50.6406 33.1362V32.5355C50.6386 32.4371 50.6063 32.3417 50.5483 32.2622C50.4902 32.1827 50.4092 32.1229 50.316 32.0909L47.7431 30.7332C47.4372 30.6099 47.1072 30.5577 46.7781 30.5806C46.449 30.6035 46.1294 30.7009 45.8435 30.8654L44.8697 31.4301C44.7273 31.5091 44.5597 31.5294 44.4025 31.4868C44.2453 31.4442 44.111 31.3419 44.0281 31.2018C43.9788 31.1095 43.9539 31.006 43.956 30.9014V27.2969L39.8322 29.3154V33.6649C39.833 33.8766 39.7778 34.0848 39.6723 34.2684C39.5667 34.4519 39.4145 34.6043 39.231 34.7102L37.0068 35.9958C36.6341 36.2001 36.4898 36.4644 36.5379 36.7047C36.5259 37.0291 36.4297 37.3775 36.8505 37.6299Z" fill="url(#paint3_linear)"/>
<path d="M39.8314 29.2788V33.6283L44.0273 31.2252C43.978 31.1329 43.9532 31.0295 43.9552 30.9248V27.3203L39.8314 29.2788Z" fill="#CACEFC"/>
<path d="M25.1161 36.8488V18.4898C25.1152 17.8426 25.2847 17.2066 25.6076 16.6456C25.9305 16.0846 26.3954 15.6184 26.9556 15.2938L53.033 0.25087C53.2915 0.0974878 53.5845 0.0115925 53.8849 0.00109385C54.1854 -0.00940482 54.4836 0.0558088 54.7522 0.190773L55.7742 0.755484C56.0691 0.908185 56.3161 1.13935 56.488 1.42345C56.6598 1.70755 56.7498 2.03354 56.748 2.3655V20.6765C56.7471 21.3187 56.578 21.9494 56.2573 22.5059C55.9367 23.0624 55.4758 23.5253 54.9206 23.8485L28.8432 38.9635C27.8453 39.5402 27.0037 39.0356 25.9817 38.3988C25.7159 38.237 25.4964 38.0093 25.3447 37.7377C25.1931 37.4661 25.1143 37.1599 25.1161 36.8488Z" fill="url(#paint4_linear)"/>
<path d="M54.416 3.18164V19.5462L41.4194 27.1037L31.0077 16.6866L54.416 3.18164Z" fill="#00125C"/>
<path d="M41.418 27.1045L28.4574 34.6139V18.1894L31.0062 16.6875L41.418 27.1045Z" fill="#13287B"/>
<defs>
<linearGradient id="paint0_linear" x1="0.000831604" y1="55.387" x2="87.8633" y2="55.387" gradientUnits="userSpaceOnUse">
<stop stop-color="#CACEFC"/>
<stop offset="0.11" stop-color="#BABEFB"/>
<stop offset="0.26" stop-color="#A7ACFA"/>
<stop offset="0.38" stop-color="#A0A5FA"/>
<stop offset="0.44" stop-color="#AFB4FB"/>
<stop offset="0.58" stop-color="#D7D9FD"/>
<stop offset="0.69" stop-color="white"/>
</linearGradient>
<linearGradient id="paint1_linear" x1="43.9312" y1="8.51751" x2="43.9312" y2="63.4265" gradientUnits="userSpaceOnUse">
<stop stop-color="#0E004F"/>
<stop offset="1" stop-color="#5E45D9"/>
</linearGradient>
<linearGradient id="paint2_linear" x1="-15117.9" y1="13022.8" x2="-21538.2" y2="13022.8" gradientUnits="userSpaceOnUse">
<stop stop-color="#0E004F"/>
<stop offset="1" stop-color="#5E45D9"/>
</linearGradient>
<linearGradient id="paint3_linear" x1="45.5189" y1="37.2454" x2="41.5545" y2="32.3047" gradientUnits="userSpaceOnUse">
<stop stop-color="#CACEFC"/>
<stop offset="0.38" stop-color="#E5E7FE"/>
<stop offset="0.75" stop-color="#F8F9FF"/>
<stop offset="1" stop-color="white"/>
</linearGradient>
<linearGradient id="paint4_linear" x1="-1186.39" y1="13552.8" x2="-2018.63" y2="13552.8" gradientUnits="userSpaceOnUse">
<stop stop-color="#CACEFC"/>
<stop offset="0.38" stop-color="#E5E7FE"/>
<stop offset="0.75" stop-color="#F8F9FF"/>
<stop offset="1" stop-color="white"/>
</linearGradient>
</defs>
</svg>
