<svg width="131" height="129" viewBox="0 0 131 129" fill="none" xmlns="http://www.w3.org/2000/svg">
<path d="M130.662 71.6186V85.4126C130.662 88.1628 129.934 90.8641 128.553 93.2426C127.171 95.6212 125.185 97.5924 122.795 98.9565L76.9526 125.115C73.4139 127.138 69.4079 128.202 65.3311 128.202C61.2542 128.202 57.2482 127.138 53.7095 125.115L7.88479 98.9565C5.49061 97.5961 3.49975 95.6262 2.11477 93.2471C0.729788 90.8681 0.000122917 88.1649 0 85.4126V70.6895L47.0405 102.53C52.4245 106.222 58.8012 108.199 65.3311 108.199C71.8609 108.199 78.2375 106.222 83.6216 102.53L130.662 71.6186Z" fill="url(#paint0_linear)"/>
<path d="M5.85954 60.4349L53.6152 32.8469C57.1758 30.7925 61.2148 29.7109 65.3262 29.7109C69.4376 29.7109 73.4765 30.7925 77.0371 32.8469L124.864 60.4349C126.647 61.459 128.128 62.9349 129.158 64.7136C130.188 66.4923 130.73 68.511 130.73 70.566C130.73 72.621 130.188 74.6397 129.158 76.4184C128.128 78.1971 126.647 79.6729 124.864 80.6971L77.0371 108.249C73.4765 110.304 69.4376 111.385 65.3262 111.385C61.2148 111.385 57.1758 110.304 53.6152 108.249L5.85954 80.6971C4.08132 79.6693 2.60488 78.1921 1.57845 76.4139C0.552016 74.6356 0.0117188 72.6189 0.0117188 70.566C0.0117188 68.5131 0.552016 66.4963 1.57845 64.7181C2.60488 62.9398 4.08132 61.4627 5.85954 60.4349Z" fill="url(#paint1_linear)"/>
<path d="M5.85954 60.4349L53.6152 32.8469C57.1758 30.7925 61.2148 29.7109 65.3262 29.7109C69.4376 29.7109 73.4765 30.7925 77.0371 32.8469L124.864 60.4349C126.647 61.459 128.128 62.9349 129.158 64.7136C130.188 66.4923 130.73 68.511 130.73 70.566C130.73 72.621 130.188 74.6397 129.158 76.4184C128.128 78.1971 126.647 79.6729 124.864 80.6971L77.0371 108.249C73.4765 110.304 69.4376 111.385 65.3262 111.385C61.2148 111.385 57.1758 110.304 53.6152 108.249L5.85954 80.6971C4.08132 79.6693 2.60488 78.1921 1.57845 76.4139C0.552016 74.6356 0.0117188 72.6189 0.0117188 70.566C0.0117188 68.5131 0.552016 66.4963 1.57845 64.7181C2.60488 62.9398 4.08132 61.4627 5.85954 60.4349Z" fill="url(#paint2_linear)"/>
<path d="M65.3265 106.426C62.0875 106.431 58.9049 105.581 56.1007 103.961L8.34502 76.4084C7.31606 75.8184 6.46113 74.9674 5.86659 73.9415C5.27206 72.9156 4.95898 71.7511 4.95898 70.5656C4.95898 69.38 5.27206 68.2155 5.86659 67.1896C6.46113 66.1637 7.31606 65.3127 8.34502 64.7228L56.1007 37.1705C58.9155 35.5812 62.0935 34.7461 65.3265 34.7461C68.5594 34.7461 71.7374 35.5812 74.5521 37.1705L122.326 64.7228C123.35 65.3164 124.2 66.1686 124.792 67.1941C125.383 68.2195 125.694 69.3821 125.694 70.5656C125.694 71.749 125.383 72.9116 124.792 73.9371C124.2 74.9625 123.35 75.8147 122.326 76.4084L74.5521 103.961C71.749 105.583 68.5657 106.434 65.3265 106.426ZM65.3265 36.4915C62.4039 36.4951 59.5326 37.2587 56.9947 38.7071L9.23899 66.2773C8.48517 66.7114 7.85909 67.3363 7.42377 68.0892C6.98846 68.842 6.7593 69.6961 6.7593 70.5656C6.7593 71.435 6.98846 72.2892 7.42377 73.042C7.85909 73.7948 8.48517 74.4197 9.23899 74.8538L56.9232 102.424C59.4661 103.856 62.3358 104.609 65.2549 104.609C68.174 104.609 71.0438 103.856 73.5867 102.424L121.36 74.8538C122.11 74.4161 122.731 73.7899 123.163 73.0376C123.595 72.2852 123.822 71.4329 123.822 70.5656C123.822 69.6982 123.595 68.8459 123.163 68.0936C122.731 67.3412 122.11 66.715 121.36 66.2773L73.5867 38.7071C71.0787 37.2411 68.2319 36.4528 65.3265 36.42V36.4915Z" fill="#2ACAF7"/>
<path d="M85.5999 59.3487C85.5557 58.5105 85.3148 57.6946 84.8967 56.9668C84.4786 56.239 83.8951 55.6199 83.1934 55.1594C82.9187 54.9545 82.5853 54.8438 82.2426 54.8438C81.8999 54.8438 81.5665 54.9545 81.2918 55.1594L67.9219 62.8695L71.3386 68.8117L84.8572 60.9977C84.9229 60.9752 84.9836 60.9399 85.0354 60.8937C85.2487 60.702 85.4117 60.4609 85.5102 60.1915C85.6086 59.9221 85.6394 59.6327 85.5999 59.3487Z" fill="#2ACAF7"/>
<path d="M71.9625 67.2357C71.9625 68.7213 70.8631 69.4046 69.5261 68.6173C68.8189 68.1601 68.2296 67.5424 67.8062 66.8144C67.3829 66.0865 67.1374 65.2688 67.0898 64.428C67.0898 62.9425 68.1743 62.274 69.5261 63.0464C70.2309 63.5062 70.8184 64.1245 71.2414 64.852C71.6645 65.5794 71.9114 66.3958 71.9625 67.2357Z" fill="#211827"/>
<path d="M73.4629 68.4834C73.3842 67.0384 72.965 65.6326 72.2395 64.3805C71.5141 63.1283 70.5029 62.0654 69.2885 61.2785C68.8215 60.9222 68.2537 60.723 67.6665 60.7097C67.0793 60.6964 66.5029 60.8695 66.0203 61.2042L58.6816 65.4083L64.5199 75.6289L72.0962 71.2465C72.2062 71.1984 72.3108 71.1387 72.4081 71.0683C72.7823 70.7568 73.0741 70.3582 73.258 69.9074C73.4419 69.4567 73.5123 68.9677 73.4629 68.4834Z" fill="white"/>
<path d="M65.7074 72.9707C65.7074 75.615 63.8356 76.6846 61.533 75.3476C60.3142 74.5641 59.2988 73.5023 58.5705 72.2497C57.8422 70.9971 57.4218 69.5895 57.3438 68.1427C57.3438 65.4984 59.2155 64.4288 61.533 65.7658C62.7449 66.5554 63.7542 67.6189 64.4794 68.8705C65.2045 70.1221 65.6252 71.5266 65.7074 72.9707Z" fill="#DFDFDF"/>
<path d="M63.123 72.332C63.0731 71.4898 62.8267 70.6709 62.4037 69.9409C61.9806 69.2109 61.3926 68.59 60.6867 68.1279C60.4108 67.9194 60.0744 67.8066 59.7285 67.8066C59.3827 67.8066 59.0463 67.9194 58.7704 68.1279L45.4004 75.8379L48.8023 81.7801L62.3951 73.9513L62.5734 73.8473C62.7776 73.6556 62.9337 73.4186 63.0292 73.1553C63.1247 72.8921 63.1569 72.61 63.123 72.332Z" fill="#2ACAF7"/>
<path d="M49.4707 80.2199C49.4707 81.7055 48.3862 82.374 47.0344 81.6015C46.3221 81.1436 45.7277 80.5243 45.2993 79.794C44.8709 79.0636 44.6205 78.2426 44.5684 77.3974C44.5684 75.9119 45.6677 75.2285 47.0047 76.0158C47.7194 76.4711 48.3157 77.0897 48.7444 77.8206C49.1732 78.5516 49.4221 79.3739 49.4707 80.2199Z" fill="#0EA0C9"/>
<path d="M62.9756 64.621C63.7286 65.0021 64.5606 65.2007 65.4045 65.2007C66.2484 65.2007 67.0805 65.0021 67.8334 64.621C68.1515 64.4911 68.4189 64.2617 68.5957 63.9671C68.7724 63.6725 68.849 63.3286 68.8139 62.9868V47.5371H61.9506V63.1205C61.9357 63.1891 61.9357 63.26 61.9506 63.3285C62.0059 63.6101 62.1278 63.8744 62.3061 64.0993C62.4844 64.3241 62.714 64.503 62.9756 64.621Z" fill="#2ACAF7"/>
<path d="M59.4669 42.6951V58.5162L26.7402 39.5457V23.7246L59.4669 42.6951Z" fill="#DFDFDF"/>
<path fill-rule="evenodd" clip-rule="evenodd" d="M59.4669 42.6948L100.542 18.9854L67.8158 0L26.7402 23.7243L59.4669 42.6948Z" fill="url(#paint3_linear)"/>
<path d="M100.542 34.8055L59.4668 58.5298V42.6938L100.542 18.9844V34.8055Z" fill="white"/>
<path d="M63.8809 46.1854C63.8627 46.3315 63.8866 46.4799 63.9499 46.6129C64.0132 46.7459 64.1132 46.858 64.2381 46.9361C64.363 47.0142 64.5076 47.0549 64.6549 47.0535C64.8022 47.0521 64.946 47.0086 65.0694 46.9281C65.409 46.7443 65.6947 46.4749 65.898 46.1465C66.1012 45.8181 66.2151 45.4423 66.2281 45.0563C66.2497 44.909 66.2282 44.7585 66.1663 44.6231C66.1044 44.4877 66.0046 44.373 65.879 44.293C65.7535 44.2129 65.6074 44.1709 65.4585 44.1719C65.3096 44.1729 65.1642 44.217 65.0397 44.2987C64.6989 44.4849 64.4127 44.757 64.2094 45.0879C64.0062 45.4189 63.8929 45.7972 63.8809 46.1854Z" fill="#31047E"/>
<path d="M63.8809 51.1619C63.8627 51.3081 63.8866 51.4564 63.9499 51.5894C64.0132 51.7225 64.1132 51.8346 64.2381 51.9127C64.363 51.9907 64.5076 52.0315 64.6549 52.0301C64.8022 52.0286 64.946 51.9851 65.0694 51.9047C65.41 51.7221 65.6965 51.4529 65.8999 51.1243C66.1033 50.7957 66.2165 50.4192 66.2281 50.0329C66.2497 49.8856 66.2282 49.7351 66.1663 49.5997C66.1044 49.4642 66.0046 49.3496 65.879 49.2695C65.7535 49.1895 65.6074 49.1474 65.4585 49.1485C65.3096 49.1495 65.1642 49.1935 65.0397 49.2753C64.6989 49.4615 64.4127 49.7336 64.2094 50.0645C64.0062 50.3954 63.8929 50.7737 63.8809 51.1619Z" fill="#31047E"/>
<path d="M68.7969 43.2005V44.7752L69.9259 44.1364V42.5469L68.7969 43.2005Z" fill="#2ACAF7"/>
<path d="M71.1309 41.8321V43.4217L72.2599 42.7829V41.1934L71.1309 41.8321Z" fill="#2ACAF7"/>
<path d="M73.4609 40.4806V42.0701L74.6048 41.4313V39.8418L73.4609 40.4806Z" fill="#2ACAF7"/>
<path d="M75.8066 39.129V40.7186L76.9357 40.0798V38.4902L75.8066 39.129Z" fill="#2ACAF7"/>
<path d="M78.1406 37.7775V39.367L79.2845 38.7134V37.1387L78.1406 37.7775Z" fill="#2ACAF7"/>
<path d="M80.4883 36.4251V37.9998L81.6173 37.361V35.7715L80.4883 36.4251Z" fill="#2ACAF7"/>
<path d="M82.8203 35.0587V36.6483L83.9493 36.0095V34.4199L82.8203 35.0587Z" fill="#2ACAF7"/>
<path d="M85.1543 33.7071V35.2967L86.2982 34.6579V33.0684L85.1543 33.7071Z" fill="#2ACAF7"/>
<path d="M87.502 32.3556V33.9451L88.631 33.2915V31.7168L87.502 32.3556Z" fill="#2ACAF7"/>
<path d="M68.7969 46.2904V47.865L69.9259 47.2263V45.6367L68.7969 46.2904Z" fill="#2ACAF7"/>
<path d="M71.1309 44.9239V46.5135L72.2599 45.8747V44.2852L71.1309 44.9239Z" fill="#2ACAF7"/>
<path d="M73.4609 43.5704V45.16L74.6048 44.5212V42.9316L73.4609 43.5704Z" fill="#2ACAF7"/>
<path d="M75.8066 42.2208V43.8104L76.9357 43.1716V41.582L75.8066 42.2208Z" fill="#2ACAF7"/>
<path d="M78.1406 40.8665V42.4412L79.2845 41.8024V40.2129L78.1406 40.8665Z" fill="#2ACAF7"/>
<path d="M80.4883 39.5021V41.0916L81.6173 40.4528V38.8633L80.4883 39.5021Z" fill="#2ACAF7"/>
<path d="M82.8203 38.1486V39.7381L83.9493 39.0993V37.5098L82.8203 38.1486Z" fill="#2ACAF7"/>
<path d="M85.1543 36.797V38.3865L86.2982 37.7477V36.1582L85.1543 36.797Z" fill="#2ACAF7"/>
<path d="M87.502 35.4454V37.035L88.631 36.3962V34.8066L87.502 35.4454Z" fill="#2ACAF7"/>
<path d="M97.3189 31.5982L90.7676 35.3715V30.2167L97.3189 26.4434V31.5982Z" fill="#2ACAF7"/>
<path d="M56.5566 14.9668L65.5739 20.1662L66.4059 19.676L57.4034 14.4766L56.5566 14.9668Z" fill="#2ACAF7"/>
<path d="M60.0938 12.916L69.1111 18.1154L69.943 17.6401L60.9405 12.4258L60.0938 12.916Z" fill="#2ACAF7"/>
<path d="M63.6289 10.8809L72.6462 16.0803L73.493 15.5901L64.4757 10.3906L63.6289 10.8809Z" fill="#2ACAF7"/>
<path d="M67.1797 8.83008L76.1821 14.0295L77.0289 13.5541L68.0116 8.33984L67.1797 8.83008Z" fill="#2ACAF7"/>
<path d="M41.9102 23.3894L50.9275 28.5889L51.7594 28.1135L42.7569 22.9141L41.9102 23.3894Z" fill="#2ACAF7"/>
<path d="M45.4434 21.3535L54.4607 26.5529L55.2926 26.0627L46.2901 20.8633L45.4434 21.3535Z" fill="#2ACAF7"/>
<path d="M48.9805 19.3047L57.9978 24.5041L58.8297 24.0287L49.8272 18.8145L48.9805 19.3047Z" fill="#2ACAF7"/>
<path d="M52.5312 17.2695L61.5337 22.469L62.3805 21.9787L53.3632 16.7793L52.5312 17.2695Z" fill="#2ACAF7"/>
<defs>
<linearGradient id="paint0_linear" x1="54256.1" y1="9748.39" x2="44707.3" y2="9748.39" gradientUnits="userSpaceOnUse">
<stop stop-color="#CACEFC"/>
<stop offset="0.11" stop-color="#BABEFB"/>
<stop offset="0.26" stop-color="#A7ACFA"/>
<stop offset="0.38" stop-color="#A0A5FA"/>
<stop offset="0.44" stop-color="#AFB4FB"/>
<stop offset="0.58" stop-color="#D7D9FD"/>
<stop offset="0.69" stop-color="white"/>
</linearGradient>
<linearGradient id="paint1_linear" x1="65.3709" y1="29.7021" x2="65.3709" y2="111.382" gradientUnits="userSpaceOnUse">
<stop stop-color="#0E004F"/>
<stop offset="1" stop-color="#5E45D9"/>
</linearGradient>
<linearGradient id="paint2_linear" x1="22622.1" y1="19389" x2="32173.7" y2="19389" gradientUnits="userSpaceOnUse">
<stop stop-color="#0E004F"/>
<stop offset="1" stop-color="#5E45D9"/>
</linearGradient>
<linearGradient id="paint3_linear" x1="19337.4" y1="10276.6" x2="19337.4" y2="12165.2" gradientUnits="userSpaceOnUse">
<stop stop-color="#0E004F"/>
<stop offset="1" stop-color="#5E45D9"/>
</linearGradient>
</defs>
</svg>
