<svg width="824" height="783" viewBox="0 0 824 783" fill="none" xmlns="http://www.w3.org/2000/svg">
<g filter="url(#filter0_d_92_2502)">
<path d="M479.259 233.88C479.271 235.656 478.805 237.403 477.912 238.939C477.018 240.474 475.729 241.742 474.178 242.611L250.803 369.927C249.542 370.645 248.493 371.684 247.763 372.939C247.034 374.193 246.65 375.618 246.65 377.069C246.65 378.52 247.034 379.945 247.763 381.199C248.493 382.454 249.542 383.493 250.803 384.211L453.195 499.617L452.281 501.207L249.908 385.8C248.364 384.925 247.081 383.657 246.188 382.125C245.295 380.593 244.825 378.851 244.825 377.078C244.825 375.305 245.295 373.564 246.188 372.031C247.081 370.499 248.364 369.231 249.908 368.356L473.301 241.022C474.562 240.304 475.611 239.265 476.341 238.01C477.07 236.756 477.454 235.331 477.454 233.88C477.454 232.429 477.07 231.004 476.341 229.749C475.611 228.495 474.562 227.456 473.301 226.738L110.282 20H113.938L354.914 157.234L356.742 158.276L474.16 225.148C475.714 226.015 477.007 227.282 477.904 228.818C478.801 230.353 479.269 232.102 479.259 233.88Z" fill="#2ACAF7"/>
<path d="M737.966 586.255C722.667 586.255 710.676 578.602 710.658 568.829C710.701 567.053 711.1 565.304 711.832 563.685C712.563 562.066 713.612 560.61 714.917 559.404C719.925 554.38 728.516 551.385 737.892 551.385C752.935 551.385 765.181 559.203 765.2 568.811C765.155 570.586 764.755 572.335 764.023 573.954C763.292 575.572 762.244 577.028 760.941 578.236C755.914 583.278 747.324 586.255 737.966 586.255ZM737.966 553.211C729.192 553.211 720.894 556.079 716.288 560.701C715.168 561.74 714.268 562.994 713.64 564.387C713.012 565.779 712.67 567.284 712.632 568.811C712.632 577.433 724.074 584.428 738.112 584.428C746.867 584.428 755.183 581.561 759.789 576.939C760.906 575.897 761.804 574.643 762.432 573.251C763.059 571.859 763.404 570.355 763.445 568.829C763.354 560.226 751.93 553.23 737.892 553.23L737.966 553.211Z" fill="#2ACAF7"/>
<path d="M737.947 576.262C731.605 576.262 726.633 572.992 726.633 568.846C726.643 568.073 726.81 567.31 727.124 566.603C727.439 565.897 727.893 565.261 728.461 564.736C731.07 562.461 734.451 561.272 737.911 561.411C744.253 561.411 749.207 564.681 749.225 568.828C749.209 569.6 749.039 570.361 748.725 571.066C748.411 571.772 747.96 572.408 747.397 572.937C744.789 575.214 741.407 576.403 737.947 576.262ZM737.947 563.238C734.976 563.119 732.068 564.116 729.795 566.033C729.404 566.389 729.088 566.82 728.865 567.3C728.642 567.78 728.517 568.299 728.498 568.828C728.498 571.531 732.299 574.435 737.984 574.435C740.95 574.555 743.853 573.558 746.118 571.641C746.516 571.289 746.839 570.86 747.065 570.379C747.291 569.899 747.417 569.377 747.434 568.846C747.47 566.161 743.577 563.238 737.911 563.238H737.947Z" fill="#2ACAF7"/>
<path d="M185.606 625.436C163.307 625.436 145.138 613.91 145.12 599.753C145.184 597.153 145.77 594.592 146.844 592.223C147.918 589.854 149.457 587.725 151.371 585.962C158.81 578.51 171.477 574.053 185.496 574.053C207.795 574.053 225.964 585.579 225.982 599.735C225.92 602.336 225.335 604.897 224.261 607.267C223.187 609.636 221.646 611.765 219.731 613.526C212.292 620.96 199.534 625.436 185.606 625.436ZM185.496 575.879C172.044 575.879 159.761 580.135 152.596 587.241C150.855 588.835 149.451 590.763 148.468 592.909C147.486 595.055 146.944 597.376 146.875 599.735C146.875 612.905 164.239 623.609 185.533 623.609C198.985 623.609 211.268 619.353 218.433 612.247C220.174 610.653 221.578 608.726 222.56 606.58C223.543 604.434 224.085 602.112 224.154 599.753C224.136 586.583 206.79 575.879 185.496 575.879Z" fill="#2ACAF7"/>
<path d="M185.569 610.42C176.43 610.42 169.119 605.726 169.119 599.753C169.141 598.658 169.382 597.578 169.828 596.577C170.274 595.577 170.915 594.675 171.714 593.926C175.537 590.601 180.487 588.862 185.551 589.067C194.799 589.067 202.001 593.761 202.001 599.735C201.974 600.832 201.727 601.913 201.275 602.914C200.823 603.915 200.175 604.815 199.369 605.561C195.556 608.878 190.62 610.616 185.569 610.42ZM185.569 590.894C180.997 590.711 176.523 592.25 173.03 595.204C171.759 596.378 171.004 598.007 170.928 599.735C170.928 604.612 177.527 608.594 185.551 608.594C190.123 608.776 194.597 607.238 198.089 604.283C198.72 603.703 199.231 603.004 199.591 602.227C199.952 601.45 200.156 600.609 200.191 599.753C200.191 594.876 193.648 590.894 185.532 590.894H185.569Z" fill="#2ACAF7"/>
<path d="M286.354 705.386C277.105 705.386 269.904 700.692 269.904 694.719C269.926 693.62 270.171 692.538 270.624 691.536C271.076 690.535 271.726 689.635 272.536 688.892C276.355 685.561 281.307 683.822 286.372 684.033C295.602 684.033 302.822 688.727 302.822 694.7C302.803 695.798 302.561 696.88 302.112 697.881C301.663 698.882 301.015 699.783 300.208 700.527C296.381 703.857 291.424 705.596 286.354 705.386ZM286.354 685.859C281.775 685.673 277.294 687.211 273.797 690.17C272.536 691.35 271.788 692.976 271.713 694.7C271.713 699.577 278.311 703.559 286.335 703.559C290.908 703.742 295.382 702.203 298.874 699.249C299.503 698.668 300.01 697.968 300.368 697.191C300.725 696.414 300.926 695.573 300.958 694.719C300.976 689.841 294.396 685.859 286.317 685.859H286.354Z" fill="#2ACAF7"/>
<path d="M300.081 492.22C287.67 492.22 277.946 485.992 277.928 478.028C277.966 476.578 278.294 475.15 278.894 473.829C279.494 472.508 280.352 471.321 281.419 470.337C285.477 466.246 292.386 463.816 300.026 463.816C312.418 463.816 322.16 470.063 322.16 478.028C322.128 479.477 321.804 480.905 321.207 482.226C320.61 483.547 319.753 484.735 318.688 485.718C314.612 489.791 307.666 492.22 300.081 492.22ZM300.081 465.643C293.08 465.643 286.445 467.945 282.753 471.616C281.862 472.436 281.143 473.426 280.637 474.526C280.132 475.627 279.851 476.817 279.81 478.028C279.81 484.731 289.132 490.394 300.135 490.394C307.136 490.394 313.771 488.111 317.445 484.439C318.336 483.619 319.055 482.629 319.56 481.529C320.066 480.428 320.347 479.238 320.387 478.028C320.333 471.324 311.029 465.698 300.026 465.698L300.081 465.643Z" fill="#2ACAF7"/>
<path d="M208.453 762.999C208.254 762.997 208.06 762.929 207.903 762.807C207.745 762.685 207.632 762.515 207.58 762.322C207.528 762.13 207.541 761.926 207.616 761.741C207.691 761.557 207.825 761.402 207.996 761.3L228.595 749.354L218.287 743.344L188.567 760.551C188.431 760.64 188.272 760.684 188.11 760.679C187.951 760.674 187.796 760.63 187.659 760.55C187.521 760.471 187.406 760.358 187.324 760.222C187.262 760.119 187.221 760.005 187.205 759.887C187.188 759.768 187.195 759.647 187.225 759.532C187.256 759.416 187.31 759.307 187.383 759.212C187.457 759.118 187.548 759.039 187.653 758.98L216.459 742.285L206.132 736.312L165.92 759.601C165.779 759.674 165.622 759.711 165.463 759.711C165.301 759.713 165.141 759.672 164.999 759.592C164.858 759.511 164.74 759.395 164.659 759.254C164.546 759.042 164.518 758.795 164.583 758.563C164.648 758.332 164.799 758.134 165.006 758.012L204.286 735.252L178.916 720.639L125.087 751.692C120.894 754.12 116.134 755.398 111.288 755.398C106.441 755.398 101.681 754.12 97.4877 751.692L24.9059 709.752C23.4142 708.891 22.1756 707.653 21.3145 706.162C20.4533 704.671 20 702.98 20 701.259C20 699.537 20.4533 697.846 21.3145 696.355C22.1756 694.864 23.4142 693.626 24.9059 692.765L97.5242 650.88C101.733 648.498 106.487 647.246 111.324 647.246C116.161 647.246 120.915 648.498 125.124 650.88L197.742 692.765C199.234 693.626 200.473 694.864 201.334 696.355C202.195 697.846 202.648 699.537 202.648 701.259C202.648 702.98 202.195 704.671 201.334 706.162C200.473 707.653 199.234 708.891 197.742 709.752L180.853 719.598L247.056 757.957C249.698 759.493 252.7 760.3 255.757 760.295C259.121 760.241 262.402 759.241 265.225 757.409C297.284 739.143 394.797 682.408 394.797 682.408L321.502 640.103C318.371 638.294 315.772 635.693 313.964 632.562C312.157 629.432 311.206 625.881 311.206 622.266C311.206 618.652 312.157 615.101 313.964 611.97C315.772 608.839 318.371 606.238 321.502 604.429L482.202 511.71C491.327 506.455 501.674 503.689 512.205 503.689C522.737 503.689 533.084 506.455 542.209 511.71L702.909 604.429C706.039 606.241 708.638 608.843 710.445 611.976C712.252 615.108 713.203 618.66 713.203 622.275C713.203 625.891 712.252 629.443 710.445 632.575C708.638 635.707 706.039 638.31 702.909 640.121L542.117 732.75C532.994 738.009 522.647 740.778 512.114 740.778C501.581 740.778 491.234 738.009 482.111 732.75L396.424 683.339L265.279 759.473C262.356 761.16 259.04 762.048 255.665 762.048C252.29 762.048 248.974 761.16 246.051 759.473L230.423 750.431L208.91 762.889C208.772 762.969 208.613 763.007 208.453 762.999ZM111.397 648.999C106.874 649.006 102.432 650.196 98.5112 652.451L25.8198 694.354C24.6094 695.056 23.6047 696.063 22.9063 697.275C22.2079 698.486 21.8403 699.86 21.8403 701.259C21.8403 702.657 22.2079 704.031 22.9063 705.243C23.6047 706.454 24.6094 707.462 25.8198 708.163L98.4381 750.066C102.371 752.281 106.809 753.445 111.324 753.445C115.839 753.445 120.277 752.281 124.21 750.066L196.828 708.163C198.039 707.462 199.043 706.454 199.742 705.243C200.44 704.031 200.808 702.657 200.808 701.259C200.808 699.86 200.44 698.486 199.742 697.275C199.043 696.063 198.039 695.056 196.828 694.354L124.192 652.451C120.298 650.212 115.889 649.022 111.397 648.999ZM512.178 505.426C501.947 505.413 491.893 508.09 483.025 513.189L322.325 605.927C319.475 607.579 317.11 609.951 315.466 612.804C313.822 615.657 312.957 618.892 312.957 622.184C312.957 625.476 313.822 628.711 315.466 631.564C317.11 634.417 319.475 636.788 322.325 638.441L483.025 731.16C491.871 736.258 501.903 738.942 512.114 738.942C522.325 738.942 532.357 736.258 541.203 731.16L701.885 638.441C704.739 636.792 707.109 634.422 708.756 631.568C710.404 628.715 711.271 625.478 711.271 622.184C711.271 618.889 710.404 615.653 708.756 612.799C707.109 609.946 704.739 607.576 701.885 605.927L541.203 513.189C532.351 508.1 522.317 505.423 512.105 505.426H512.178Z" fill="#2ACAF7"/>
<path d="M344.496 345.779C344.337 345.778 344.181 345.741 344.039 345.67L318.541 331.057C318.33 330.936 318.176 330.736 318.113 330.501C318.049 330.266 318.082 330.016 318.203 329.805C318.324 329.595 318.524 329.441 318.759 329.377C318.994 329.314 319.244 329.346 319.455 329.468L344.953 344.081C345.163 344.2 345.318 344.397 345.383 344.63C345.448 344.863 345.418 345.112 345.3 345.323C345.217 345.462 345.1 345.578 344.959 345.658C344.818 345.738 344.658 345.78 344.496 345.779Z" fill="#2ACAF7"/>
<path d="M379.663 344.518C379.51 344.519 379.359 344.481 379.224 344.408L336.947 320.297C336.844 320.238 336.753 320.16 336.681 320.066C336.608 319.972 336.554 319.865 336.523 319.75C336.491 319.636 336.483 319.516 336.498 319.399C336.512 319.281 336.55 319.167 336.609 319.064C336.668 318.961 336.746 318.87 336.84 318.797C336.934 318.725 337.041 318.671 337.156 318.64C337.271 318.608 337.39 318.6 337.508 318.614C337.626 318.629 337.74 318.667 337.843 318.726L380.083 342.819C380.255 342.921 380.388 343.076 380.463 343.26C380.539 343.445 380.551 343.649 380.5 343.842C380.448 344.034 380.334 344.205 380.177 344.327C380.019 344.449 379.826 344.516 379.626 344.518H379.663Z" fill="#2ACAF7"/>
<path d="M417.242 346.454C417.081 346.457 416.922 346.412 416.785 346.326L354.055 310.561C353.952 310.502 353.862 310.423 353.789 310.329C353.716 310.236 353.662 310.129 353.631 310.014C353.599 309.9 353.591 309.78 353.606 309.662C353.621 309.544 353.658 309.431 353.717 309.328C353.776 309.224 353.855 309.134 353.948 309.061C354.042 308.988 354.15 308.935 354.264 308.903C354.379 308.872 354.498 308.863 354.616 308.878C354.734 308.893 354.848 308.931 354.951 308.99L417.699 344.737C417.804 344.795 417.896 344.874 417.969 344.969C418.042 345.064 418.096 345.172 418.127 345.288C418.157 345.404 418.164 345.525 418.148 345.644C418.131 345.762 418.09 345.876 418.028 345.979C417.952 346.122 417.839 346.241 417.701 346.325C417.562 346.408 417.404 346.453 417.242 346.454Z" fill="#2ACAF7"/>
<path d="M269.812 357.925C269.651 357.929 269.492 357.884 269.355 357.798L228.943 334.764C228.732 334.643 228.578 334.443 228.514 334.208C228.451 333.973 228.483 333.723 228.605 333.513C228.726 333.302 228.926 333.148 229.161 333.084C229.395 333.021 229.646 333.053 229.857 333.175L270.251 356.208C270.462 356.327 270.616 356.525 270.681 356.758C270.747 356.991 270.717 357.24 270.598 357.451C270.522 357.593 270.409 357.713 270.271 357.796C270.132 357.88 269.974 357.925 269.812 357.925Z" fill="#2ACAF7"/>
<path d="M664.287 692.2C664.128 692.2 663.971 692.163 663.83 692.09L638.332 677.477C638.122 677.358 637.967 677.161 637.902 676.928C637.837 676.695 637.867 676.446 637.985 676.235C638.107 676.028 638.305 675.876 638.537 675.812C638.768 675.747 639.016 675.774 639.228 675.888L664.817 690.501C664.988 690.602 665.121 690.755 665.196 690.938C665.272 691.121 665.286 691.323 665.236 691.515C665.187 691.707 665.077 691.877 664.922 692C664.767 692.124 664.576 692.194 664.379 692.2H664.287Z" fill="#2ACAF7"/>
<path d="M699.454 690.956C699.294 690.95 699.137 690.907 698.997 690.828L656.72 666.735C656.508 666.612 656.353 666.412 656.288 666.176C656.223 665.94 656.254 665.688 656.373 665.475C656.432 665.37 656.511 665.278 656.605 665.205C656.7 665.132 656.809 665.078 656.925 665.047C657.041 665.017 657.161 665.01 657.28 665.027C657.399 665.043 657.513 665.084 657.616 665.146L699.947 689.239C700.158 689.358 700.313 689.555 700.378 689.788C700.443 690.021 700.413 690.27 700.295 690.481C700.211 690.629 700.089 690.752 699.941 690.836C699.793 690.92 699.624 690.961 699.454 690.956Z" fill="#2ACAF7"/>
<path d="M737.015 692.874C736.854 692.875 736.696 692.831 736.558 692.746L673.828 656.999C673.62 656.873 673.468 656.672 673.403 656.438C673.339 656.203 673.366 655.953 673.481 655.739C673.607 655.53 673.809 655.379 674.045 655.317C674.28 655.256 674.531 655.289 674.742 655.41L737.472 691.157C737.681 691.283 737.833 691.483 737.897 691.718C737.962 691.952 737.934 692.203 737.82 692.417C737.735 692.555 737.617 692.67 737.477 692.75C737.336 692.83 737.177 692.873 737.015 692.874Z" fill="#2ACAF7"/>
<path d="M422.762 271.946C422.601 271.947 422.443 271.903 422.305 271.818L359.575 236.071C359.367 235.946 359.215 235.745 359.15 235.51C359.086 235.276 359.114 235.025 359.228 234.811C359.354 234.602 359.556 234.451 359.792 234.39C360.027 234.328 360.278 234.361 360.489 234.482L423.219 270.247C423.428 270.373 423.579 270.575 423.641 270.811C423.702 271.046 423.669 271.296 423.548 271.508C423.466 271.642 423.351 271.754 423.213 271.83C423.075 271.907 422.92 271.947 422.762 271.946Z" fill="#2ACAF7"/>
<path d="M798.649 314.47L726.03 272.567C721.818 270.195 717.065 268.949 712.23 268.949C707.396 268.949 702.643 270.195 698.431 272.567L625.831 314.47C624.334 315.327 623.091 316.564 622.226 318.056C621.362 319.547 620.906 321.24 620.906 322.964C620.906 324.687 621.362 326.381 622.226 327.872C623.091 329.363 624.334 330.6 625.831 331.458L698.431 373.342C702.624 375.77 707.384 377.049 712.23 377.049C717.077 377.049 721.837 375.77 726.03 373.342L761.892 352.665L781.01 363.625C782.259 364.349 783.295 365.388 784.015 366.638C784.735 367.889 785.114 369.306 785.114 370.748C785.114 372.191 784.735 373.608 784.015 374.858C783.295 376.108 782.259 377.148 781.01 377.872L714.57 416.378C713.044 417.26 711.778 418.528 710.897 420.054C710.017 421.58 709.553 423.311 709.553 425.072C709.553 426.834 710.017 428.564 710.897 430.09C711.778 431.617 713.044 432.884 714.57 433.767L785.086 474.336C786.335 475.058 787.372 476.096 788.092 477.345C788.813 478.593 789.192 480.01 789.192 481.451C789.192 482.893 788.813 484.309 788.092 485.558C787.372 486.806 786.335 487.844 785.086 488.566L633.818 576.244L634.732 577.833L734.493 520.057L746.118 526.797L745.661 527.583C745.506 527.843 745.418 528.138 745.405 528.441C745.405 530.085 747.872 531.473 750.888 531.473C752.592 531.547 754.262 530.98 755.567 529.884C755.972 529.509 756.215 528.992 756.244 528.441C756.244 526.797 753.776 525.409 750.87 525.409C750.086 525.41 749.305 525.514 748.549 525.719L748.183 525.829L736.412 518.997L748.786 511.837L769.002 523.546L768.563 524.331C768.401 524.59 768.307 524.885 768.289 525.19C768.289 526.834 770.756 528.222 773.681 528.222C775.381 528.295 777.049 527.736 778.36 526.651C778.564 526.468 778.728 526.246 778.845 525.998C778.961 525.75 779.026 525.481 779.036 525.208C779.036 523.564 776.569 522.176 773.663 522.176C772.884 522.166 772.108 522.271 771.36 522.486L770.976 522.578L750.596 510.778L786.092 490.228C787.617 489.343 788.883 488.073 789.763 486.546C790.643 485.018 791.106 483.287 791.106 481.524C791.106 479.762 790.643 478.03 789.763 476.503C788.883 474.975 787.617 473.705 786.092 472.82L715.575 432.251C714.327 431.529 713.29 430.492 712.569 429.243C711.849 427.994 711.469 426.578 711.469 425.136C711.469 423.695 711.849 422.278 712.569 421.03C713.29 419.781 714.327 418.743 715.575 418.021L748.878 398.751L768.983 410.386L768.362 411.208C767.725 412.044 767.373 413.062 767.357 414.112C767.357 417.766 771.689 420.615 777.209 420.615C780.215 420.729 783.151 419.69 785.415 417.711C785.919 417.243 786.323 416.678 786.602 416.05C786.882 415.423 787.031 414.745 787.042 414.058C787.042 410.404 782.71 407.555 777.19 407.555C775.067 407.54 772.97 408.021 771.067 408.961L770.629 409.199L750.687 397.655L782.089 379.388C783.614 378.506 784.881 377.238 785.761 375.712C786.642 374.186 787.105 372.455 787.105 370.694C787.105 368.932 786.642 367.201 785.761 365.675C784.881 364.149 783.614 362.881 782.089 361.999L763.811 351.514L798.74 331.421C800.232 330.56 801.47 329.322 802.331 327.831C803.193 326.34 803.646 324.649 803.646 322.927C803.646 321.206 803.193 319.515 802.331 318.024C801.47 316.533 800.232 315.295 798.74 314.433L798.649 314.47ZM770.135 411.756C772.063 410.136 774.527 409.296 777.044 409.4C781.394 409.4 785.068 411.555 785.068 414.094C785.037 414.963 784.662 415.784 784.026 416.378C782.098 417.997 779.634 418.838 777.117 418.734C772.767 418.734 769.093 416.578 769.093 414.039C769.115 413.176 769.476 412.356 770.098 411.756H770.135ZM797.735 329.868L725.116 371.771C721.183 373.986 716.745 375.15 712.23 375.15C707.716 375.15 703.278 373.986 699.344 371.771L626.744 329.868C625.53 329.168 624.521 328.16 623.82 326.947C623.118 325.733 622.749 324.356 622.749 322.955C622.749 321.553 623.118 320.176 623.82 318.963C624.521 317.749 625.53 316.741 626.744 316.041L699.344 274.156C703.262 271.894 707.706 270.703 712.23 270.703C716.755 270.703 721.199 271.894 725.116 274.156L797.735 316.041C798.945 316.745 799.949 317.754 800.647 318.967C801.345 320.18 801.712 321.555 801.712 322.955C801.712 324.354 801.345 325.729 800.647 326.942C799.949 328.155 798.945 329.164 797.735 329.868Z" fill="#2ACAF7"/>
<path d="M439.852 261.461C439.691 261.462 439.533 261.418 439.395 261.333L401.889 239.943C401.786 239.885 401.695 239.806 401.622 239.712C401.549 239.619 401.496 239.511 401.464 239.397C401.433 239.282 401.424 239.163 401.439 239.045C401.454 238.927 401.492 238.814 401.551 238.71C401.61 238.607 401.688 238.517 401.782 238.444C401.876 238.371 401.983 238.317 402.098 238.286C402.212 238.255 402.332 238.246 402.45 238.261C402.568 238.276 402.681 238.314 402.785 238.372L440.401 259.762C440.611 259.881 440.766 260.079 440.831 260.312C440.896 260.544 440.866 260.794 440.748 261.004C440.656 261.157 440.524 261.28 440.365 261.361C440.207 261.441 440.029 261.476 439.852 261.461Z" fill="#2ACAF7"/>
</g>
<path d="M178.112 677.221V691.323C178.112 694.134 177.368 696.896 175.955 699.328C174.543 701.759 172.512 703.774 170.069 705.169L123.205 731.911C119.587 733.979 115.492 735.067 111.324 735.067C107.156 735.067 103.061 733.979 99.4434 731.911L52.597 705.169C50.1494 703.778 48.1142 701.764 46.6983 699.332C45.2824 696.9 44.5365 694.137 44.5364 691.323V676.271L92.6257 708.749C98.1297 712.524 104.649 714.544 111.324 714.544C117.999 714.544 124.518 712.524 130.022 708.749L178.112 677.221Z" fill="url(#paint0_linear_92_2502)"/>
<path d="M50.5317 665.787L99.3521 637.62C102.992 635.52 107.121 634.414 111.324 634.414C115.527 634.414 119.656 635.52 123.296 637.62L172.117 665.787C173.939 666.833 175.453 668.342 176.506 670.161C177.559 671.979 178.113 674.043 178.113 676.143C178.113 678.244 177.559 680.308 176.506 682.126C175.453 683.945 173.939 685.454 172.117 686.5L123.296 714.685C119.655 716.782 115.527 717.886 111.324 717.886C107.122 717.886 102.993 716.782 99.3521 714.685L50.5317 686.5C48.7092 685.454 47.1951 683.945 46.1423 682.126C45.0895 680.308 44.5352 678.244 44.5352 676.143C44.5352 674.043 45.0895 671.979 46.1423 670.161C47.1951 668.342 48.7092 666.833 50.5317 665.787Z" fill="url(#paint1_linear_92_2502)"/>
<path d="M50.5317 665.787L99.3521 637.62C102.992 635.52 107.121 634.414 111.324 634.414C115.527 634.414 119.656 635.52 123.296 637.62L172.117 665.787C173.939 666.833 175.453 668.342 176.506 670.161C177.559 671.979 178.113 674.043 178.113 676.143C178.113 678.244 177.559 680.308 176.506 682.126C175.453 683.945 173.939 685.454 172.117 686.5L123.296 714.685C119.655 716.782 115.527 717.886 111.324 717.886C107.122 717.886 102.993 716.782 99.3521 714.685L50.5317 686.5C48.7092 685.454 47.1951 683.945 46.1423 682.126C45.0895 680.308 44.5352 678.244 44.5352 676.143C44.5352 674.043 45.0895 671.979 46.1423 670.161C47.1951 668.342 48.7092 666.833 50.5317 665.787Z" fill="url(#paint2_linear_92_2502)"/>
<path d="M111.397 712.822C108.084 712.821 104.831 711.945 101.966 710.283L53.0721 682.117C52.0202 681.513 51.1462 680.644 50.5384 679.595C49.9307 678.546 49.6106 677.355 49.6106 676.144C49.6106 674.932 49.9307 673.741 50.5384 672.692C51.1462 671.643 52.0202 670.774 53.0721 670.17L101.893 642.004C104.77 640.379 108.019 639.525 111.324 639.525C114.629 639.525 117.878 640.379 120.755 642.004L169.594 670.17C170.641 670.777 171.511 671.649 172.115 672.697C172.719 673.745 173.037 674.934 173.037 676.144C173.037 677.353 172.719 678.542 172.115 679.59C171.511 680.638 170.641 681.51 169.594 682.117L120.755 710.283C117.913 711.935 114.685 712.81 111.397 712.822ZM111.397 641.31C108.409 641.313 105.474 642.094 102.88 643.575L53.986 671.76C53.2154 672.203 52.5754 672.842 52.1303 673.612C51.6853 674.381 51.451 675.255 51.451 676.144C51.451 677.032 51.6853 677.906 52.1303 678.675C52.5754 679.445 53.2154 680.084 53.986 680.527L102.806 708.639C105.406 710.104 108.34 710.873 111.324 710.873C114.308 710.873 117.242 710.104 119.842 708.639L168.68 680.454C169.446 680.007 170.082 679.367 170.523 678.598C170.965 677.828 171.197 676.957 171.197 676.07C171.197 675.184 170.965 674.312 170.523 673.543C170.082 672.774 169.446 672.134 168.68 671.687L119.842 643.575C117.271 642.102 114.361 641.321 111.397 641.31Z" fill="#2ACAF7"/>
<path d="M111.397 694.702C109.761 694.704 108.154 694.275 106.736 693.46L81.3847 678.847C80.9142 678.574 80.5238 678.182 80.2524 677.711C79.981 677.239 79.8381 676.705 79.8381 676.161C79.8381 675.618 79.981 675.084 80.2524 674.612C80.5238 674.141 80.9142 673.749 81.3847 673.476L106.736 658.863C108.154 658.048 109.761 657.619 111.397 657.621C113.034 657.611 114.644 658.04 116.058 658.863L141.409 673.476C141.88 673.749 142.27 674.141 142.542 674.612C142.813 675.084 142.956 675.618 142.956 676.161C142.956 676.705 142.813 677.239 142.542 677.711C142.27 678.182 141.88 678.574 141.409 678.847L116.058 693.46C114.644 694.283 113.034 694.712 111.397 694.702Z" fill="#2ACAF7"/>
<path d="M122.09 678.664L118.16 680.71C117.693 680.893 117.191 680.969 116.691 680.931C116.191 680.893 115.706 680.742 115.272 680.491L101.874 672.782C101.381 672.49 101.125 672.161 101.125 671.833V670.919C101.128 670.77 101.177 670.625 101.265 670.504C101.354 670.383 101.477 670.292 101.619 670.243L105.53 668.179C105.995 667.992 106.497 667.913 106.997 667.947C107.497 667.982 107.983 668.13 108.418 668.38L109.898 669.239C110.115 669.359 110.37 669.39 110.609 669.325C110.848 669.26 111.052 669.105 111.178 668.892C111.253 668.751 111.291 668.594 111.288 668.435V662.955L117.557 666.024V672.636C117.556 672.958 117.639 673.275 117.8 673.554C117.96 673.833 118.192 674.064 118.471 674.225L121.852 676.18C122.419 676.49 122.638 676.892 122.565 677.258C122.583 677.751 122.73 678.28 122.09 678.664Z" fill="url(#paint3_linear_92_2502)"/>
<path d="M117.557 665.968V672.58L111.178 668.927C111.253 668.786 111.291 668.629 111.288 668.47V662.99L117.557 665.968Z" fill="#CACEFC"/>
<path d="M139.929 677.476V649.565C139.931 648.581 139.673 647.614 139.182 646.761C138.691 645.908 137.984 645.199 137.133 644.706L97.4878 621.836C97.0948 621.603 96.6494 621.473 96.1926 621.457C95.7358 621.441 95.2824 621.54 94.874 621.745L93.3204 622.604C92.872 622.836 92.4964 623.187 92.2352 623.619C91.974 624.051 91.8372 624.547 91.8399 625.051V652.889C91.8412 653.865 92.0984 654.824 92.5859 655.67C93.0733 656.516 93.774 657.22 94.6181 657.711L134.263 680.69C135.78 681.567 137.06 680.8 138.613 679.832C139.017 679.586 139.351 679.24 139.582 678.827C139.812 678.414 139.932 677.948 139.929 677.476Z" fill="url(#paint4_linear_92_2502)"/>
<path d="M95.3857 626.295V651.174L115.144 662.663L130.973 646.826L95.3857 626.295Z" fill="#00125C"/>
<path d="M115.144 662.663L134.848 674.079V649.109L130.973 646.826L115.144 662.663Z" fill="#13287B"/>
<path d="M578.893 392.193V549.155C578.894 551.967 578.151 554.729 576.739 557.161C575.326 559.593 573.294 561.608 570.85 563.001L523.986 589.743C520.368 591.811 516.273 592.899 512.105 592.899C507.937 592.899 503.842 591.811 500.224 589.743L453.378 563.001C450.934 561.608 448.902 559.593 447.489 557.161C446.077 554.729 445.334 551.967 445.335 549.155V391.262L493.406 423.684C498.911 427.459 505.429 429.479 512.105 429.479C518.78 429.479 525.299 427.459 530.803 423.684L578.893 392.193Z" fill="url(#paint5_linear_92_2502)"/>
<path d="M570.85 425.512L523.986 452.254C520.368 454.322 516.273 455.41 512.105 455.41C507.937 455.41 503.842 454.322 500.224 452.254L453.378 425.512C450.935 424.117 448.904 422.102 447.492 419.671C446.08 417.239 445.336 414.478 445.335 411.666V415.52C445.334 418.332 446.077 421.094 447.489 423.526C448.902 425.958 450.934 427.973 453.378 429.366L500.242 456.108C503.86 458.176 507.955 459.264 512.123 459.264C516.291 459.264 520.386 458.176 524.004 456.108L570.868 429.366C573.313 427.973 575.344 425.958 576.757 423.526C578.169 421.094 578.912 418.332 578.911 415.52V411.666C578.909 414.479 578.162 417.242 576.746 419.674C575.331 422.106 573.296 424.12 570.85 425.512Z" fill="#00114E"/>
<path d="M570.85 536.059L523.986 562.801C520.368 564.869 516.273 565.957 512.105 565.957C507.937 565.957 503.842 564.869 500.224 562.801L453.378 536.059C450.935 534.664 448.904 532.649 447.492 530.217C446.08 527.786 445.336 525.024 445.335 522.213V526.067C445.334 528.879 446.077 531.641 447.489 534.073C448.902 536.505 450.934 538.52 453.378 539.913L500.242 566.655C503.86 568.723 507.955 569.811 512.123 569.811C516.291 569.811 520.386 568.723 524.004 566.655L570.868 539.913C573.313 538.52 575.344 536.505 576.757 534.073C578.169 531.641 578.912 528.879 578.911 526.067V522.213C578.909 525.026 578.162 527.789 576.746 530.221C575.331 532.652 573.296 534.667 570.85 536.059Z" fill="#2ACAF7"/>
<path d="M451.367 380.778L500.206 352.593C503.843 350.493 507.969 349.387 512.169 349.387C516.369 349.387 520.495 350.493 524.132 352.593L572.971 380.778C574.788 381.829 576.298 383.339 577.347 385.156C578.396 386.974 578.949 389.036 578.949 391.135C578.949 393.233 578.396 395.295 577.347 397.113C576.298 398.931 574.788 400.441 572.971 401.492L524.132 429.658C520.495 431.759 516.369 432.865 512.169 432.865C507.969 432.865 503.843 431.759 500.206 429.658L451.367 401.492C449.55 400.441 448.04 398.931 446.991 397.113C445.942 395.295 445.389 393.233 445.389 391.135C445.389 389.036 445.942 386.974 446.991 385.156C448.04 383.339 449.55 381.829 451.367 380.778Z" fill="url(#paint6_linear_92_2502)"/>
<path d="M512.123 427.795C508.807 427.791 505.55 426.922 502.674 425.274L453.853 397.107C452.801 396.504 451.927 395.634 451.319 394.586C450.712 393.537 450.392 392.346 450.392 391.134C450.392 389.922 450.712 388.732 451.319 387.683C451.927 386.634 452.801 385.764 453.853 385.161L502.674 356.976C505.557 355.36 508.808 354.512 512.114 354.512C515.42 354.512 518.671 355.36 521.555 356.976L570.375 385.161C571.427 385.764 572.301 386.634 572.909 387.683C573.517 388.732 573.837 389.922 573.837 391.134C573.837 392.346 573.517 393.537 572.909 394.586C572.301 395.634 571.427 396.504 570.375 397.107L521.555 425.274C518.684 426.92 515.433 427.789 512.123 427.795ZM512.123 356.282C509.127 356.282 506.183 357.069 503.587 358.566L454.767 386.732C453.997 387.179 453.357 387.819 452.913 388.59C452.468 389.361 452.234 390.235 452.234 391.125C452.234 392.015 452.468 392.889 452.913 393.66C453.357 394.431 453.997 395.072 454.767 395.518L503.587 423.685C506.188 425.158 509.125 425.932 512.114 425.932C515.103 425.932 518.041 425.158 520.641 423.685L569.461 395.518C570.231 395.072 570.871 394.431 571.315 393.66C571.76 392.889 571.994 392.015 571.994 391.125C571.994 390.235 571.76 389.361 571.315 388.59C570.871 387.819 570.231 387.179 569.461 386.732L520.641 358.566C518.051 357.071 515.114 356.284 512.123 356.282Z" fill="#2ACAF7"/>
<path d="M490.866 519.637C491.084 519.767 491.332 519.837 491.586 519.839C491.84 519.841 492.089 519.775 492.309 519.648C492.529 519.522 492.711 519.339 492.836 519.119C492.962 518.898 493.026 518.649 493.023 518.395C493.022 517.923 492.899 517.459 492.665 517.05C492.431 516.64 492.095 516.298 491.688 516.057L480.996 509.828V513.883L490.866 519.637Z" fill="#2ACAF7"/>
<path d="M457.783 498.795C457.784 499.269 457.909 499.735 458.146 500.145C458.384 500.556 458.725 500.897 459.136 501.134L481.069 513.92V509.865L460.013 497.59C459.795 497.449 459.544 497.369 459.284 497.359C459.025 497.348 458.768 497.408 458.54 497.531C458.312 497.655 458.121 497.837 457.988 498.06C457.855 498.282 457.784 498.536 457.783 498.795Z" fill="#31047E"/>
<path d="M457.783 526.542C457.783 527.014 457.908 527.477 458.146 527.885C458.383 528.292 458.725 528.629 459.135 528.862L481.069 541.648V537.593L460.013 525.318C459.794 525.177 459.54 525.096 459.28 525.087C459.019 525.077 458.76 525.139 458.532 525.264C458.303 525.39 458.112 525.575 457.981 525.8C457.849 526.025 457.78 526.281 457.783 526.542Z" fill="#31047E"/>
<path d="M490.866 547.383C491.085 547.507 491.332 547.572 491.583 547.571C491.835 547.571 492.082 547.504 492.3 547.379C492.518 547.253 492.699 547.073 492.826 546.856C492.953 546.639 493.021 546.392 493.023 546.141C493.022 545.669 492.899 545.206 492.665 544.796C492.431 544.386 492.095 544.044 491.688 543.803L480.996 537.574V541.629L490.866 547.383Z" fill="#2ACAF7"/>
<path d="M493.023 462.391C493.022 461.919 492.899 461.456 492.665 461.046C492.431 460.636 492.095 460.294 491.688 460.053L480.996 453.824V457.861L490.866 463.633C491.085 463.757 491.332 463.822 491.583 463.821C491.835 463.821 492.082 463.754 492.3 463.629C492.518 463.503 492.699 463.323 492.826 463.106C492.953 462.889 493.021 462.642 493.023 462.391Z" fill="#2ACAF7"/>
<path d="M459.94 441.549C459.722 441.419 459.473 441.35 459.22 441.348C458.966 441.346 458.716 441.411 458.497 441.538C458.277 441.665 458.095 441.847 457.969 442.068C457.844 442.288 457.779 442.538 457.783 442.791C457.783 443.263 457.908 443.726 458.146 444.134C458.383 444.541 458.725 444.879 459.135 445.111L481.069 457.898V453.824L459.94 441.549Z" fill="#31047E"/>
<path d="M490.866 492.037C491.084 492.167 491.332 492.236 491.586 492.238C491.84 492.24 492.089 492.175 492.309 492.048C492.529 491.922 492.711 491.739 492.836 491.518C492.962 491.298 493.026 491.048 493.023 490.795C493.023 490.325 492.899 489.864 492.665 489.457C492.431 489.05 492.094 488.711 491.688 488.475L480.996 482.246V486.283L490.866 492.037Z" fill="#2ACAF7"/>
<path d="M457.783 471.176C457.782 471.651 457.906 472.117 458.144 472.528C458.381 472.938 458.724 473.279 459.136 473.514L481.069 486.301V482.264L460.013 469.971C459.795 469.83 459.544 469.75 459.284 469.739C459.025 469.729 458.768 469.789 458.54 469.912C458.312 470.035 458.121 470.218 457.988 470.44C457.855 470.663 457.784 470.917 457.783 471.176Z" fill="#31047E"/>
<path d="M687.902 455.176V612.138C687.902 614.949 687.158 617.711 685.746 620.142C684.333 622.574 682.303 624.589 679.86 625.984L632.995 652.725C629.378 654.794 625.282 655.882 621.115 655.882C616.947 655.882 612.851 654.794 609.234 652.725L562.351 625.984C559.908 624.589 557.877 622.574 556.465 620.142C555.053 617.711 554.309 614.949 554.309 612.138V454.244L602.398 486.722C607.902 490.496 614.421 492.517 621.096 492.517C627.772 492.517 634.291 490.496 639.795 486.722L687.902 455.176Z" fill="url(#paint7_linear_92_2502)"/>
<path d="M679.842 488.494L632.977 515.236C629.357 517.296 625.262 518.378 621.096 518.378C616.931 518.378 612.836 517.296 609.216 515.236L562.333 488.494C559.891 487.098 557.862 485.083 556.449 482.652C555.037 480.22 554.293 477.46 554.291 474.648V478.484C554.291 481.296 555.035 484.057 556.447 486.489C557.859 488.921 559.89 490.936 562.333 492.33L609.216 519.072C612.833 521.14 616.929 522.228 621.096 522.228C625.264 522.228 629.36 521.14 632.977 519.072L679.842 492.348C682.285 490.954 684.315 488.939 685.728 486.507C687.14 484.076 687.884 481.314 687.884 478.503V474.648C687.882 477.46 687.137 480.22 685.725 482.652C684.313 485.083 682.284 487.098 679.842 488.494Z" fill="#00114E"/>
<path d="M679.842 599.041L632.977 625.783C629.357 627.842 625.262 628.925 621.097 628.925C616.931 628.925 612.836 627.842 609.216 625.783L562.369 599.041C559.927 597.647 557.896 595.631 556.484 593.2C555.071 590.768 554.327 588.007 554.327 585.195V589.049C554.325 591.861 555.069 594.624 556.481 597.056C557.894 599.487 559.925 601.502 562.369 602.895L609.252 629.637C612.87 631.705 616.965 632.793 621.133 632.793C625.301 632.793 629.396 631.705 633.014 629.637L679.842 602.895C682.286 601.502 684.318 599.487 685.73 597.056C687.143 594.624 687.886 591.861 687.884 589.049V585.195C687.884 588.007 687.14 590.768 685.728 593.2C684.315 595.631 682.285 597.647 679.842 599.041Z" fill="#00114E"/>
<path d="M560.322 443.777L609.143 415.61C612.783 413.51 616.912 412.404 621.115 412.404C625.318 412.404 629.447 413.51 633.087 415.61L681.907 443.777C683.729 444.826 685.243 446.337 686.295 448.157C687.347 449.976 687.901 452.041 687.901 454.143C687.901 456.245 687.347 458.309 686.295 460.129C685.243 461.949 683.729 463.46 681.907 464.509L633.087 492.676C629.447 494.776 625.318 495.881 621.115 495.881C616.912 495.881 612.783 494.776 609.143 492.676L560.322 464.509C558.5 463.46 556.987 461.949 555.934 460.129C554.882 458.309 554.328 456.245 554.328 454.143C554.328 452.041 554.882 449.976 555.934 448.157C556.987 446.337 558.5 444.826 560.322 443.777Z" fill="url(#paint8_linear_92_2502)"/>
<path d="M621.115 490.777C617.805 490.773 614.553 489.904 611.683 488.256L562.863 460.071C561.815 459.467 560.945 458.597 560.341 457.55C559.736 456.504 559.417 455.316 559.417 454.107C559.417 452.898 559.736 451.711 560.341 450.664C560.945 449.617 561.815 448.748 562.863 448.143L611.683 420.031C614.554 418.417 617.793 417.568 621.087 417.568C624.382 417.568 627.62 418.417 630.491 420.031L679.33 448.216C680.373 448.824 681.238 449.695 681.84 450.741C682.441 451.788 682.757 452.973 682.757 454.18C682.757 455.387 682.441 456.573 681.84 457.619C681.238 458.665 680.373 459.536 679.33 460.144L630.491 488.256C627.638 489.896 624.406 490.765 621.115 490.777ZM621.115 419.264C618.124 419.266 615.187 420.053 612.597 421.547L563.777 449.714C563.007 450.16 562.367 450.801 561.923 451.572C561.478 452.343 561.244 453.217 561.244 454.107C561.244 454.997 561.478 455.871 561.923 456.642C562.367 457.413 563.007 458.054 563.777 458.5L612.597 486.667C615.194 488.14 618.129 488.914 621.115 488.914C624.101 488.914 627.035 488.14 629.632 486.667L678.471 458.5C679.237 458.05 679.871 457.408 680.312 456.638C680.754 455.867 680.986 454.995 680.986 454.107C680.986 453.219 680.754 452.347 680.312 451.577C679.871 450.806 679.237 450.164 678.471 449.714L629.632 421.547C627.044 420.048 624.106 419.261 621.115 419.264Z" fill="#2ACAF7"/>
<path d="M599.876 582.602C600.094 582.726 600.342 582.791 600.593 582.79C600.845 582.789 601.092 582.723 601.31 582.597C601.527 582.472 601.709 582.292 601.836 582.075C601.962 581.858 602.03 581.611 602.032 581.36C602.032 580.886 601.907 580.42 601.669 580.01C601.432 579.6 601.091 579.259 600.68 579.022L590.006 572.793V576.848L599.876 582.602Z" fill="#2ACAF7"/>
<path d="M566.793 561.777C566.793 562.246 566.916 562.707 567.15 563.114C567.384 563.521 567.721 563.86 568.127 564.096L590.061 576.883V572.828L569.004 560.553C568.787 560.409 568.534 560.328 568.274 560.318C568.014 560.307 567.755 560.369 567.527 560.495C567.299 560.621 567.11 560.807 566.981 561.033C566.851 561.259 566.786 561.516 566.793 561.777Z" fill="#31047E"/>
<path d="M566.793 589.524C566.793 589.993 566.916 590.454 567.15 590.862C567.384 591.269 567.721 591.607 568.127 591.844L590.06 604.63V600.593L569.004 588.318C568.788 588.175 568.537 588.094 568.279 588.083C568.02 588.072 567.763 588.132 567.535 588.256C567.308 588.38 567.119 588.563 566.988 588.787C566.857 589.01 566.79 589.265 566.793 589.524Z" fill="#31047E"/>
<path d="M599.876 610.366C600.094 610.49 600.342 610.555 600.593 610.554C600.845 610.553 601.092 610.487 601.31 610.361C601.527 610.236 601.709 610.055 601.836 609.838C601.962 609.621 602.03 609.375 602.032 609.124C602.034 608.649 601.909 608.183 601.672 607.772C601.434 607.361 601.092 607.021 600.68 606.785L590.006 600.557V604.52L599.876 610.366Z" fill="#FF2CC0"/>
<path d="M602.032 525.372C602.034 524.898 601.909 524.431 601.672 524.021C601.434 523.61 601.092 523.27 600.68 523.034L590.006 516.842V520.879L599.876 526.651C600.097 526.776 600.348 526.841 600.602 526.839C600.857 526.836 601.106 526.767 601.325 526.637C601.544 526.507 601.725 526.322 601.849 526.1C601.974 525.878 602.037 525.627 602.032 525.372Z" fill="#FF2CC0"/>
<path d="M568.949 504.532C568.732 504.402 568.483 504.332 568.229 504.33C567.976 504.328 567.726 504.394 567.506 504.52C567.287 504.647 567.104 504.83 566.979 505.05C566.854 505.271 566.789 505.52 566.793 505.774C566.793 506.243 566.916 506.705 567.15 507.112C567.384 507.519 567.721 507.857 568.127 508.094L590.06 520.88V516.843L568.949 504.532Z" fill="#31047E"/>
<path d="M599.876 555.02C600.093 555.15 600.342 555.22 600.596 555.222C600.849 555.224 601.099 555.158 601.319 555.031C601.539 554.905 601.721 554.722 601.846 554.502C601.971 554.281 602.036 554.031 602.032 553.778C602.032 553.306 601.907 552.843 601.67 552.435C601.432 552.028 601.09 551.691 600.68 551.458L590.006 545.211V549.266L599.876 555.02Z" fill="#2ACAF7"/>
<path d="M566.792 534.176C566.793 534.648 566.916 535.112 567.15 535.522C567.384 535.932 567.721 536.274 568.127 536.515L590.06 549.301V545.246L569.004 532.971C568.787 532.835 568.537 532.759 568.281 532.751C568.024 532.743 567.77 532.803 567.545 532.926C567.32 533.049 567.131 533.23 566.999 533.449C566.867 533.669 566.795 533.92 566.792 534.176Z" fill="#31047E"/>
<path d="M469.883 454.044V611.006C469.883 613.817 469.139 616.579 467.726 619.01C466.314 621.442 464.284 623.457 461.841 624.852L414.976 651.593C411.36 653.665 407.264 654.755 403.095 654.755C398.927 654.755 394.831 653.665 391.215 651.593L344.332 624.852C341.889 623.457 339.858 621.442 338.446 619.01C337.033 616.579 336.289 613.817 336.289 611.006V453.094L384.379 485.589C389.883 489.364 396.402 491.384 403.077 491.384C409.752 491.384 416.271 489.364 421.775 485.589L469.883 454.044Z" fill="url(#paint9_linear_92_2502)"/>
<path d="M461.841 487.36L414.976 514.102C411.357 516.165 407.262 517.25 403.095 517.25C398.929 517.25 394.834 516.165 391.215 514.102L344.332 487.36C341.889 485.961 339.858 483.943 338.446 481.508C337.034 479.074 336.29 476.31 336.289 473.496V477.369C336.289 480.18 337.033 482.942 338.446 485.373C339.858 487.805 341.889 489.82 344.332 491.214L391.215 517.956C394.831 520.028 398.927 521.118 403.095 521.118C407.264 521.118 411.36 520.028 414.976 517.956L461.841 491.269C464.284 489.875 466.314 487.859 467.726 485.428C469.139 482.996 469.883 480.235 469.883 477.423V473.551C469.873 476.355 469.124 479.108 467.712 481.532C466.301 483.956 464.276 485.966 461.841 487.36Z" fill="#00114E"/>
<path d="M461.841 597.908L414.976 624.613C411.357 626.676 407.262 627.761 403.095 627.761C398.929 627.761 394.834 626.676 391.215 624.613L344.332 597.871C341.89 596.475 339.86 594.46 338.448 592.029C337.036 589.597 336.291 586.837 336.289 584.025V587.88C336.289 590.691 337.033 593.453 338.446 595.884C339.858 598.316 341.889 600.331 344.332 601.725L391.215 628.467C394.831 630.539 398.927 631.629 403.095 631.629C407.264 631.629 411.36 630.539 414.976 628.467L461.841 601.725C464.284 600.331 466.314 598.316 467.726 595.884C469.139 593.453 469.883 590.691 469.883 587.88V584.062C469.881 586.873 469.136 589.634 467.724 592.065C466.312 594.496 464.282 596.512 461.841 597.908Z" fill="#00114E"/>
<path d="M342.321 442.609L391.141 414.442C394.781 412.342 398.91 411.236 403.113 411.236C407.316 411.236 411.445 412.342 415.085 414.442L463.906 442.609C465.728 443.658 467.241 445.169 468.294 446.989C469.346 448.808 469.9 450.873 469.9 452.975C469.9 455.077 469.346 457.141 468.294 458.961C467.241 460.781 465.728 462.292 463.906 463.341L415.085 491.508C411.445 493.608 407.316 494.713 403.113 494.713C398.91 494.713 394.781 493.608 391.141 491.508L342.321 463.323C340.498 462.276 338.984 460.767 337.931 458.949C336.879 457.13 336.324 455.067 336.324 452.966C336.324 450.865 336.879 448.801 337.931 446.983C338.984 445.164 340.498 443.656 342.321 442.609Z" fill="url(#paint10_linear_92_2502)"/>
<path d="M403.113 489.644C399.803 489.642 396.551 488.773 393.682 487.124L344.843 458.939C343.8 458.331 342.935 457.46 342.334 456.414C341.732 455.367 341.416 454.182 341.416 452.975C341.416 451.768 341.732 450.583 342.334 449.536C342.935 448.49 343.8 447.619 344.843 447.011L393.682 418.826C396.56 417.201 399.808 416.348 403.113 416.348C406.418 416.348 409.667 417.201 412.545 418.826L461.365 447.011C462.413 447.615 463.283 448.485 463.888 449.532C464.493 450.578 464.811 451.766 464.811 452.975C464.811 454.184 464.493 455.371 463.888 456.418C463.283 457.465 462.413 458.334 461.365 458.939L412.545 487.124C409.675 488.772 406.423 489.641 403.113 489.644ZM403.113 418.132C400.122 418.128 397.184 418.916 394.596 420.415L345.757 448.582C344.992 449.032 344.357 449.674 343.916 450.444C343.475 451.215 343.243 452.087 343.243 452.975C343.243 453.863 343.475 454.735 343.916 455.505C344.357 456.276 344.992 456.918 345.757 457.368L394.596 485.535C397.196 486.999 400.129 487.768 403.113 487.768C406.098 487.768 409.031 486.999 411.631 485.535L460.506 457.368C461.277 456.922 461.916 456.281 462.36 455.51C462.805 454.739 463.039 453.865 463.039 452.975C463.039 452.085 462.805 451.211 462.36 450.44C461.916 449.669 461.277 449.028 460.506 448.582L411.686 420.415C409.073 418.937 406.116 418.175 403.113 418.205V418.132Z" fill="#2ACAF7"/>
<path d="M381.911 581.486C382.13 581.61 382.377 581.675 382.629 581.674C382.88 581.673 383.127 581.607 383.345 581.482C383.563 581.356 383.744 581.176 383.871 580.959C383.998 580.742 384.066 580.495 384.068 580.244C384.069 579.77 383.945 579.303 383.707 578.893C383.469 578.482 383.127 578.142 382.715 577.906L371.986 571.641V575.677L381.911 581.486Z" fill="#2ACAF7"/>
<path d="M348.773 560.682C348.773 561.153 348.898 561.617 349.136 562.024C349.374 562.432 349.715 562.769 350.126 563.002L372.059 575.788V571.642L351.003 559.367C350.779 559.212 350.515 559.124 350.243 559.114C349.971 559.104 349.702 559.173 349.467 559.311C349.232 559.449 349.042 559.652 348.919 559.895C348.796 560.138 348.746 560.411 348.773 560.682Z" fill="#31047E"/>
<path d="M348.773 588.392C348.773 588.863 348.898 589.326 349.136 589.734C349.373 590.142 349.715 590.479 350.126 590.711L372.059 603.498V599.461L351.003 587.186C350.787 587.038 350.534 586.953 350.272 586.939C350.011 586.926 349.75 586.985 349.52 587.109C349.29 587.234 349.098 587.419 348.966 587.645C348.834 587.872 348.768 588.13 348.773 588.392Z" fill="#31047E"/>
<path d="M381.911 609.233C382.13 609.357 382.377 609.422 382.629 609.421C382.88 609.42 383.127 609.354 383.345 609.228C383.563 609.103 383.744 608.923 383.871 608.705C383.998 608.488 384.066 608.242 384.068 607.991C384.069 607.516 383.945 607.05 383.707 606.639C383.47 606.229 383.127 605.888 382.715 605.653L372.023 599.424V603.461L381.911 609.233Z" fill="#2ACAF7"/>
<path d="M384.031 524.241C384.033 523.766 383.908 523.3 383.67 522.889C383.433 522.479 383.091 522.138 382.679 521.903L371.986 515.674V519.711L381.874 525.483C382.093 525.607 382.34 525.672 382.592 525.671C382.843 525.67 383.09 525.604 383.308 525.478C383.526 525.353 383.708 525.173 383.834 524.956C383.961 524.738 384.029 524.492 384.031 524.241Z" fill="#FF2CC0"/>
<path d="M350.93 503.38C350.71 503.255 350.461 503.19 350.208 503.191C349.955 503.193 349.706 503.261 349.488 503.389C349.27 503.516 349.089 503.699 348.963 503.919C348.838 504.138 348.772 504.387 348.773 504.64C348.773 505.112 348.898 505.575 349.136 505.982C349.373 506.39 349.715 506.727 350.126 506.96L372.059 519.746V515.709L350.93 503.38Z" fill="#31047E"/>
<path d="M381.911 553.887C382.13 554.011 382.377 554.076 382.629 554.075C382.88 554.074 383.127 554.008 383.345 553.883C383.563 553.757 383.744 553.577 383.871 553.36C383.998 553.143 384.066 552.896 384.068 552.645C384.07 552.173 383.945 551.709 383.708 551.301C383.47 550.893 383.127 550.556 382.715 550.325L372.023 544.078V548.133L381.911 553.887Z" fill="#FF2CC0"/>
<path d="M348.773 533.045C348.773 533.52 348.899 533.985 349.136 534.395C349.374 534.806 349.715 535.147 350.126 535.384L372.059 548.17V544.115L351.003 531.84C350.785 531.699 350.534 531.619 350.274 531.609C350.015 531.598 349.758 531.658 349.53 531.781C349.302 531.905 349.111 532.087 348.978 532.31C348.845 532.532 348.774 532.786 348.773 533.045Z" fill="#31047E"/>
<path d="M578.893 517.026V673.933C578.892 676.745 578.148 679.506 576.736 681.938C575.324 684.369 573.293 686.385 570.85 687.779L523.986 714.521C520.368 716.589 516.273 717.677 512.105 717.677C507.937 717.677 503.842 716.589 500.224 714.521L453.378 687.834C450.935 686.439 448.904 684.424 447.492 681.993C446.08 679.561 445.336 676.8 445.335 673.988V516.076L493.406 548.554C498.903 552.348 505.425 554.38 512.105 554.38C518.785 554.38 525.307 552.348 530.803 548.554L578.893 517.026Z" fill="url(#paint11_linear_92_2502)"/>
<path d="M570.85 550.343L523.986 577.121C520.368 579.189 516.273 580.277 512.105 580.277C507.937 580.277 503.842 579.189 500.224 577.121L453.378 550.343C450.935 548.944 448.904 546.925 447.492 544.491C446.08 542.056 445.336 539.292 445.335 536.479V540.351C445.336 543.162 446.08 545.924 447.492 548.356C448.904 550.787 450.935 552.802 453.378 554.197L500.242 580.939C503.86 583.007 507.955 584.095 512.123 584.095C516.291 584.095 520.386 583.007 524.004 580.939L570.868 554.197C573.311 552.802 575.342 550.787 576.754 548.356C578.167 545.924 578.911 543.162 578.911 540.351V536.479C578.908 539.294 578.161 542.059 576.746 544.494C575.331 546.928 573.297 548.946 570.85 550.343Z" fill="#00114E"/>
<path d="M570.85 660.89L523.986 687.613C520.367 689.678 516.272 690.764 512.105 690.764C507.938 690.764 503.843 689.678 500.224 687.613L453.378 660.89C450.935 659.491 448.904 657.472 447.492 655.038C446.08 652.603 445.336 649.839 445.335 647.025V650.898C445.336 653.709 446.08 656.471 447.492 658.902C448.904 661.334 450.935 663.349 453.378 664.744L500.242 691.486C503.86 693.554 507.955 694.642 512.123 694.642C516.291 694.642 520.386 693.554 524.004 691.486L570.85 664.799C573.293 663.404 575.324 661.389 576.736 658.957C578.148 656.526 578.892 653.764 578.893 650.953V647.08C578.882 649.885 578.134 652.637 576.722 655.061C575.31 657.485 573.285 659.495 570.85 660.89Z" fill="#00114E"/>
<path d="M451.367 505.59L500.206 477.423C503.843 475.323 507.969 474.217 512.169 474.217C516.369 474.217 520.495 475.323 524.132 477.423L572.971 505.59C574.788 506.64 576.298 508.15 577.347 509.968C578.396 511.786 578.949 513.848 578.949 515.947C578.949 518.045 578.396 520.107 577.347 521.925C576.298 523.743 574.788 525.253 572.971 526.304L524.132 554.488C520.495 556.589 516.369 557.695 512.169 557.695C507.969 557.695 503.843 556.589 500.206 554.488L451.367 526.304C449.55 525.253 448.04 523.743 446.991 521.925C445.942 520.107 445.389 518.045 445.389 515.947C445.389 513.848 445.942 511.786 446.991 509.968C448.04 508.15 449.55 506.64 451.367 505.59Z" fill="url(#paint12_linear_92_2502)"/>
<path d="M512.123 552.625C508.807 552.622 505.55 551.753 502.674 550.105L453.853 521.92C452.801 521.317 451.927 520.447 451.319 519.398C450.712 518.349 450.392 517.159 450.392 515.947C450.392 514.735 450.712 513.544 451.319 512.495C451.927 511.447 452.801 510.577 453.853 509.974L502.674 481.807C505.554 480.181 508.806 479.326 512.114 479.326C515.422 479.326 518.674 480.181 521.555 481.807L570.375 509.974C571.427 510.577 572.301 511.447 572.909 512.495C573.517 513.544 573.837 514.735 573.837 515.947C573.837 517.159 573.517 518.349 572.909 519.398C572.301 520.447 571.427 521.317 570.375 521.92L521.555 550.105C518.684 551.75 515.433 552.619 512.123 552.625ZM512.123 481.113C509.127 481.112 506.183 481.9 503.587 483.396L454.767 511.563C453.997 512.009 453.357 512.65 452.913 513.421C452.468 514.192 452.234 515.066 452.234 515.956C452.234 516.846 452.468 517.72 452.913 518.491C453.357 519.262 453.997 519.903 454.767 520.349L503.587 548.516C506.19 549.98 509.127 550.749 512.114 550.749C515.101 550.749 518.038 549.98 520.641 548.516L569.461 520.349C570.231 519.903 570.871 519.262 571.315 518.491C571.76 517.72 571.994 516.846 571.994 515.956C571.994 515.066 571.76 514.192 571.315 513.421C570.871 512.65 570.231 512.009 569.461 511.563L520.641 483.396C518.051 481.902 515.114 481.115 512.123 481.113Z" fill="#2ACAF7"/>
<path d="M490.866 644.469C491.085 644.593 491.332 644.658 491.583 644.657C491.835 644.656 492.082 644.59 492.3 644.464C492.518 644.339 492.699 644.159 492.826 643.942C492.953 643.725 493.021 643.478 493.023 643.227C493.024 642.755 492.902 642.29 492.667 641.88C492.433 641.47 492.096 641.128 491.688 640.889L480.996 634.66V638.697L490.866 644.469Z" fill="#FF2CC0"/>
<path d="M457.783 623.626C457.783 624.098 457.908 624.561 458.146 624.969C458.383 625.376 458.725 625.714 459.135 625.946L481.069 638.733V634.659L460.013 622.384C459.794 622.234 459.538 622.148 459.273 622.136C459.008 622.124 458.745 622.186 458.513 622.315C458.281 622.444 458.09 622.635 457.961 622.867C457.832 623.099 457.77 623.361 457.783 623.626Z" fill="#31047E"/>
<path d="M457.783 651.355C457.782 651.829 457.906 652.295 458.144 652.706C458.381 653.117 458.724 653.457 459.136 653.693L481.069 666.479V662.442L459.94 650.186C459.726 650.064 459.485 649.999 459.24 649.996C458.994 649.994 458.752 650.054 458.536 650.171C458.32 650.288 458.138 650.458 458.006 650.665C457.874 650.872 457.797 651.11 457.783 651.355Z" fill="#31047E"/>
<path d="M490.866 672.215C491.086 672.34 491.335 672.405 491.588 672.403C491.841 672.402 492.089 672.334 492.308 672.206C492.526 672.078 492.707 671.896 492.833 671.676C492.958 671.456 493.024 671.208 493.023 670.955C493.023 670.485 492.899 670.024 492.665 669.617C492.431 669.21 492.094 668.871 491.688 668.635L480.996 662.406V666.443L490.866 672.215Z" fill="#FF2CC0"/>
<path d="M493.023 587.205C493.023 586.735 492.899 586.274 492.665 585.867C492.431 585.46 492.094 585.121 491.688 584.885L480.996 578.656V582.693L490.866 588.447C491.084 588.577 491.332 588.647 491.586 588.649C491.84 588.651 492.089 588.585 492.309 588.458C492.529 588.332 492.711 588.149 492.836 587.929C492.962 587.708 493.026 587.458 493.023 587.205Z" fill="#2ACAF7"/>
<path d="M459.94 566.362C459.721 566.238 459.474 566.173 459.222 566.174C458.971 566.175 458.724 566.241 458.506 566.367C458.288 566.492 458.107 566.672 457.98 566.889C457.853 567.106 457.785 567.353 457.783 567.604C457.782 568.078 457.906 568.545 458.144 568.955C458.381 569.366 458.724 569.707 459.136 569.942L481.069 582.729V578.692L459.94 566.362Z" fill="#31047E"/>
<path d="M490.866 616.87C491.085 616.994 491.332 617.058 491.583 617.058C491.835 617.057 492.082 616.99 492.3 616.865C492.518 616.739 492.699 616.559 492.826 616.342C492.953 616.125 493.021 615.879 493.023 615.627C493.022 615.156 492.899 614.692 492.665 614.282C492.431 613.872 492.095 613.53 491.688 613.289L480.996 607.061V611.116L490.866 616.87Z" fill="#2ACAF7"/>
<path d="M457.783 596.026C457.784 596.5 457.909 596.965 458.146 597.376C458.384 597.786 458.725 598.127 459.136 598.364L481.069 611.15V607.095L460.013 594.82C459.795 594.679 459.544 594.599 459.284 594.589C459.025 594.579 458.768 594.638 458.54 594.762C458.312 594.885 458.121 595.068 457.988 595.29C457.855 595.512 457.784 595.767 457.783 596.026Z" fill="#31047E"/>
<path d="M621.115 472.802C619.48 472.797 617.874 472.369 616.454 471.56L591.102 456.947C590.628 456.675 590.233 456.283 589.959 455.81C589.684 455.337 589.54 454.8 589.54 454.253C589.54 453.706 589.684 453.169 589.959 452.696C590.233 452.223 590.628 451.83 591.102 451.559L616.454 436.946C617.872 436.132 619.479 435.703 621.115 435.703C622.75 435.703 624.357 436.132 625.776 436.946L651.127 451.559C651.602 451.83 651.996 452.223 652.271 452.696C652.545 453.169 652.69 453.706 652.69 454.253C652.69 454.8 652.545 455.337 652.271 455.81C651.996 456.283 651.602 456.675 651.127 456.947L625.776 471.56C624.355 472.369 622.75 472.797 621.115 472.802Z" fill="#2ACAF7"/>
<path d="M403.113 471.542C401.478 471.54 399.872 471.112 398.452 470.3L373.101 455.687C372.626 455.415 372.232 455.023 371.957 454.55C371.683 454.077 371.539 453.54 371.539 452.993C371.539 452.446 371.683 451.909 371.957 451.436C372.232 450.963 372.626 450.57 373.101 450.298L398.452 435.685C399.872 434.874 401.478 434.446 403.113 434.443C404.748 434.45 406.353 434.878 407.774 435.685L433.126 450.298C433.601 450.57 433.995 450.963 434.269 451.436C434.544 451.909 434.688 452.446 434.688 452.993C434.688 453.54 434.544 454.077 434.269 454.55C433.995 455.023 433.601 455.415 433.126 455.687L407.774 470.3C406.353 471.108 404.748 471.536 403.113 471.542Z" fill="#2ACAF7"/>
<path d="M512.105 409.693C510.47 409.686 508.865 409.258 507.444 408.451L482.093 393.838C481.596 393.573 481.18 393.178 480.89 392.695C480.601 392.213 480.448 391.661 480.448 391.098C480.448 390.535 480.601 389.983 480.89 389.5C481.18 389.017 481.596 388.623 482.093 388.358L507.444 373.745C508.86 372.924 510.468 372.489 512.105 372.484C513.743 372.484 515.352 372.919 516.766 373.745L542.117 388.358C542.614 388.623 543.03 389.017 543.32 389.5C543.609 389.983 543.762 390.535 543.762 391.098C543.762 391.661 543.609 392.213 543.32 392.695C543.03 393.178 542.614 393.573 542.117 393.838L516.766 408.451C515.347 409.262 513.74 409.69 512.105 409.693Z" fill="#2ACAF7"/>
<path d="M512.105 534.525C510.468 534.52 508.86 534.086 507.444 533.264L482.092 518.651C481.622 518.378 481.232 517.987 480.96 517.515C480.689 517.044 480.546 516.51 480.546 515.966C480.546 515.423 480.689 514.888 480.96 514.417C481.232 513.946 481.622 513.554 482.092 513.281L507.444 498.668C508.862 497.853 510.469 497.424 512.105 497.426C513.742 497.415 515.351 497.844 516.766 498.668L542.117 513.281C542.592 513.553 542.987 513.945 543.261 514.418C543.535 514.891 543.68 515.429 543.68 515.975C543.68 516.522 543.535 517.059 543.261 517.532C542.987 518.005 542.592 518.398 542.117 518.67L516.766 533.283C515.35 534.102 513.741 534.531 512.105 534.525Z" fill="#2ACAF7"/>
<path d="M534.571 478.548L536.858 476.262L534.571 473.976L532.283 476.262L534.571 478.548Z" fill="#2ACAF7"/>
<path d="M525.153 494.538L527.44 492.252L525.153 489.966L522.865 492.252L525.153 494.538Z" fill="#2ACAF7"/>
<path d="M494.162 500.901L496.45 498.615L494.162 496.329L491.874 498.615L494.162 500.901Z" fill="#2ACAF7"/>
<path d="M505.967 468.407L508.255 466.121L505.967 463.835L503.679 466.121L505.967 468.407Z" fill="#2ACAF7"/>
<path d="M604.493 408.644L602.206 406.357L599.918 408.644L602.206 410.93L604.493 408.644Z" fill="#2ACAF7"/>
<path d="M628.468 427.294L626.18 425.008L623.892 427.294L626.18 429.58L628.468 427.294Z" fill="#2ACAF7"/>
<path d="M640.269 435.632L637.981 433.346L635.693 435.632L637.981 437.918L640.269 435.632Z" fill="#2ACAF7"/>
<path d="M639.262 398.814L636.975 396.527L634.687 398.814L636.975 401.1L639.262 398.814Z" fill="#2ACAF7"/>
<path d="M495.323 349.386L493.035 347.1L490.747 349.386L493.035 351.672L495.323 349.386Z" fill="#2ACAF7"/>
<path d="M508.245 338.351L505.958 336.064L503.67 338.351L505.958 340.637L508.245 338.351Z" fill="#2ACAF7"/>
<path d="M521.357 366.511L519.069 364.225L516.782 366.511L519.069 368.797L521.357 366.511Z" fill="#2ACAF7"/>
<path d="M533.469 351.685L531.182 349.398L528.894 351.685L531.182 353.971L533.469 351.685Z" fill="#2ACAF7"/>
<path d="M387.531 410.921L385.243 408.635L382.956 410.921L385.243 413.207L387.531 410.921Z" fill="#2ACAF7"/>
<path d="M411.449 426.136L409.162 423.85L406.874 426.136L409.162 428.422L411.449 426.136Z" fill="#2ACAF7"/>
<path d="M418.225 432.86L415.938 430.574L413.65 432.86L415.938 435.147L418.225 432.86Z" fill="#2ACAF7"/>
<path d="M422.282 401.089L419.994 398.803L417.706 401.089L419.994 403.375L422.282 401.089Z" fill="#2ACAF7"/>
<g filter="url(#filter1_d_92_2502)">
<path d="M543.671 336.975C543.674 336.547 543.565 336.125 543.353 335.753C543.141 335.381 542.835 335.071 542.465 334.856L515.34 319.238C514.337 318.668 513.204 318.366 512.05 318.361C510.902 318.367 509.775 318.669 508.778 319.238L481.709 334.856C481.334 335.068 481.023 335.376 480.807 335.748C480.592 336.121 480.48 336.544 480.484 336.975V391.463C480.48 391.893 480.592 392.317 480.807 392.689C481.023 393.062 481.334 393.37 481.709 393.582L508.778 409.199C509.774 409.771 510.902 410.074 512.05 410.076C513.204 410.072 514.337 409.77 515.34 409.199L542.41 393.582C542.78 393.366 543.086 393.057 543.298 392.685C543.51 392.312 543.62 391.891 543.616 391.463L543.671 336.975Z" fill="url(#paint13_linear_92_2502)" fill-opacity="0.3"/>
</g>
<g filter="url(#filter2_d_92_2502)">
<path d="M652.681 399.628C652.683 399.2 652.571 398.78 652.355 398.41C652.14 398.041 651.829 397.736 651.456 397.527L624.386 381.909C623.392 381.335 622.263 381.033 621.115 381.033C619.966 381.033 618.838 381.335 617.843 381.909L590.773 397.527C590.4 397.736 590.09 398.041 589.874 398.41C589.659 398.78 589.546 399.2 589.549 399.628V454.134C589.544 454.562 589.656 454.983 589.872 455.353C590.087 455.723 590.399 456.027 590.773 456.235L617.843 471.871C618.838 472.445 619.966 472.747 621.115 472.747C622.263 472.747 623.392 472.445 624.386 471.871L651.456 456.235C651.831 456.027 652.142 455.723 652.358 455.353C652.573 454.983 652.685 454.562 652.681 454.134V399.628Z" fill="url(#paint14_linear_92_2502)" fill-opacity="0.3"/>
</g>
<g filter="url(#filter3_d_92_2502)">
<path d="M434.68 398.441C434.683 398.011 434.572 397.587 434.356 397.215C434.141 396.842 433.83 396.534 433.455 396.322L406.385 380.704C405.391 380.13 404.262 379.828 403.114 379.828C401.965 379.828 400.836 380.13 399.842 380.704L372.772 396.285C372.402 396.501 372.096 396.811 371.884 397.183C371.672 397.555 371.562 397.976 371.566 398.404V452.911C371.562 453.339 371.672 453.76 371.884 454.132C372.096 454.504 372.402 454.814 372.772 455.03L399.86 470.647C400.855 471.221 401.983 471.523 403.132 471.523C404.28 471.523 405.409 471.221 406.404 470.647L433.473 455.03C433.848 454.818 434.159 454.51 434.374 454.137C434.59 453.764 434.701 453.341 434.698 452.911L434.68 398.441Z" fill="url(#paint15_linear_92_2502)" fill-opacity="0.3"/>
</g>
<g filter="url(#filter4_d_92_2502)">
<path d="M543.689 461.478C543.69 461.051 543.576 460.631 543.361 460.262C543.146 459.893 542.837 459.588 542.465 459.377L515.34 443.778C514.342 443.204 513.211 442.902 512.059 442.902C510.908 442.902 509.777 443.204 508.778 443.778L481.709 459.414C481.337 459.624 481.027 459.93 480.812 460.299C480.597 460.668 480.484 461.087 480.484 461.515V516.021C480.486 516.448 480.6 516.867 480.815 517.236C481.03 517.604 481.338 517.91 481.709 518.122L508.778 533.74C509.777 534.313 510.908 534.615 512.059 534.615C513.211 534.615 514.342 534.313 515.34 533.74L542.41 518.122C542.781 517.91 543.089 517.604 543.304 517.236C543.519 516.867 543.633 516.448 543.634 516.021L543.689 461.478Z" fill="url(#paint16_linear_92_2502)" fill-opacity="0.3"/>
</g>
<path d="M778.981 298.926V313.028C778.981 315.84 778.237 318.601 776.825 321.033C775.413 323.464 773.382 325.479 770.939 326.874L724.074 353.616C720.457 355.684 716.361 356.772 712.194 356.772C708.026 356.772 703.931 355.684 700.313 353.616L653.467 326.874C651.019 325.483 648.984 323.469 647.568 321.037C646.152 318.605 645.406 315.842 645.406 313.028V297.977L693.495 330.527C698.999 334.302 705.518 336.322 712.194 336.322C718.869 336.322 725.388 334.302 730.892 330.527L778.981 298.926Z" fill="url(#paint17_linear_92_2502)"/>
<path d="M651.401 287.491L700.222 259.288C703.862 257.188 707.991 256.082 712.194 256.082C716.397 256.082 720.526 257.188 724.166 259.288L773.059 287.491C774.882 288.538 776.396 290.047 777.449 291.865C778.502 293.683 779.056 295.747 779.056 297.848C779.056 299.949 778.502 302.013 777.449 303.831C776.396 305.649 774.882 307.158 773.059 308.205L724.166 336.372C720.526 338.472 716.397 339.577 712.194 339.577C707.991 339.577 703.862 338.472 700.222 336.372L651.401 308.205C649.583 307.154 648.074 305.644 647.025 303.826C645.975 302.008 645.423 299.947 645.423 297.848C645.423 295.749 645.975 293.688 647.025 291.87C648.074 290.052 649.583 288.542 651.401 287.491Z" fill="url(#paint18_linear_92_2502)"/>
<path d="M651.401 287.491L700.222 259.288C703.862 257.188 707.991 256.082 712.194 256.082C716.397 256.082 720.526 257.188 724.166 259.288L773.059 287.491C774.882 288.538 776.396 290.047 777.449 291.865C778.502 293.683 779.056 295.747 779.056 297.848C779.056 299.949 778.502 302.013 777.449 303.831C776.396 305.649 774.882 307.158 773.059 308.205L724.166 336.372C720.526 338.472 716.397 339.577 712.194 339.577C707.991 339.577 703.862 338.472 700.222 336.372L651.401 308.205C649.583 307.154 648.074 305.644 647.025 303.826C645.975 302.008 645.423 299.947 645.423 297.848C645.423 295.749 645.975 293.688 647.025 291.87C648.074 290.052 649.583 288.542 651.401 287.491Z" fill="url(#paint19_linear_92_2502)"/>
<path d="M712.194 334.509C708.883 334.514 705.629 333.644 702.762 331.988L653.942 303.822C652.89 303.219 652.016 302.349 651.408 301.3C650.801 300.251 650.48 299.061 650.48 297.849C650.48 296.637 650.801 295.446 651.408 294.397C652.016 293.349 652.89 292.479 653.942 291.875L702.762 263.709C705.64 262.084 708.889 261.23 712.194 261.23C715.499 261.23 718.748 262.084 721.625 263.709L770.464 291.875C771.511 292.482 772.381 293.354 772.985 294.402C773.589 295.45 773.907 296.639 773.907 297.849C773.907 299.058 773.589 300.247 772.985 301.295C772.381 302.344 771.511 303.215 770.464 303.822L721.625 331.988C718.76 333.647 715.505 334.516 712.194 334.509ZM712.194 263.015C709.206 263.018 706.271 263.799 703.676 265.28L654.856 293.465C654.085 293.908 653.445 294.547 653 295.317C652.555 296.087 652.321 296.96 652.321 297.849C652.321 298.737 652.555 299.611 653 300.38C653.445 301.15 654.085 301.789 654.856 302.232L703.603 330.417C706.203 331.882 709.137 332.651 712.121 332.651C715.105 332.651 718.039 331.882 720.638 330.417L769.477 302.232C770.243 301.785 770.878 301.145 771.32 300.376C771.762 299.607 771.994 298.735 771.994 297.849C771.994 296.962 771.762 296.091 771.32 295.321C770.878 294.552 770.243 293.912 769.477 293.465L720.638 265.28C718.074 263.781 715.164 262.975 712.194 262.942V263.015Z" fill="#2ACAF7"/>
<path d="M712.194 316.407C710.558 316.409 708.951 315.98 707.533 315.165L682.181 300.552C681.711 300.279 681.32 299.887 681.049 299.416C680.778 298.944 680.635 298.41 680.635 297.867C680.635 297.323 680.778 296.789 681.049 296.318C681.32 295.846 681.711 295.455 682.181 295.181L707.533 280.568C708.951 279.753 710.558 279.325 712.194 279.326C713.831 279.316 715.44 279.745 716.855 280.568L742.206 295.181C742.677 295.455 743.067 295.846 743.338 296.318C743.61 296.789 743.753 297.323 743.753 297.867C743.753 298.41 743.61 298.944 743.338 299.416C743.067 299.887 742.677 300.279 742.206 300.552L716.855 315.165C715.44 315.988 713.831 316.417 712.194 316.407Z" fill="#2ACAF7"/>
<path d="M723.398 300.388L719.468 302.452C719 302.627 718.499 302.697 718 302.66C717.502 302.622 717.017 302.476 716.581 302.233L703.183 294.506C702.708 294.232 702.433 293.885 702.433 293.575V292.643C702.439 292.494 702.489 292.35 702.577 292.23C702.665 292.109 702.787 292.018 702.927 291.967L706.838 289.903C707.305 289.721 707.805 289.644 708.305 289.679C708.804 289.714 709.29 289.859 709.726 290.104L711.207 290.963C711.346 291.047 711.505 291.093 711.667 291.096C711.83 291.098 711.991 291.057 712.132 290.977C712.274 290.897 712.391 290.781 712.473 290.64C712.554 290.5 712.597 290.34 712.596 290.177V284.697L718.865 287.766V294.378C718.863 294.705 718.948 295.027 719.112 295.309C719.276 295.592 719.512 295.826 719.797 295.986L723.179 297.922C723.727 298.233 723.947 298.634 723.873 299C723.892 299.475 724.038 300.004 723.398 300.388Z" fill="url(#paint20_linear_92_2502)"/>
<path d="M718.865 287.692V294.304L712.486 290.651C712.559 290.516 712.597 290.365 712.596 290.212V284.732L718.865 287.692Z" fill="#CACEFC"/>
<path d="M741.237 299.218V271.289C741.252 270.302 741 269.33 740.508 268.475C740.015 267.62 739.301 266.913 738.441 266.43L698.814 243.56C698.41 243.341 697.958 243.227 697.498 243.227C697.038 243.227 696.586 243.341 696.182 243.56L694.628 244.419C694.181 244.653 693.807 245.004 693.546 245.436C693.285 245.867 693.147 246.362 693.148 246.866V274.631C693.151 275.597 693.41 276.545 693.898 277.379C694.385 278.214 695.085 278.904 695.926 279.38L735.571 302.359C737.088 303.236 738.368 302.469 739.921 301.501C740.315 301.262 740.642 300.927 740.872 300.528C741.102 300.129 741.228 299.678 741.237 299.218Z" fill="url(#paint21_linear_92_2502)"/>
<path d="M696.694 248.018V272.896L716.453 284.386L732.281 268.567L696.694 248.018Z" fill="#00125C"/>
<path d="M716.453 284.387L736.156 295.803V270.833L732.281 268.568L716.453 284.387Z" fill="#13287B"/>
<defs>
<filter id="filter0_d_92_2502" x="0" y="0" width="823.646" height="783" filterUnits="userSpaceOnUse" color-interpolation-filters="sRGB">
<feFlood flood-opacity="0" result="BackgroundImageFix"/>
<feColorMatrix in="SourceAlpha" type="matrix" values="0 0 0 0 0 0 0 0 0 0 0 0 0 0 0 0 0 0 127 0" result="hardAlpha"/>
<feOffset/>
<feGaussianBlur stdDeviation="10"/>
<feColorMatrix type="matrix" values="0 0 0 0 0.164706 0 0 0 0 0.792157 0 0 0 0 0.968627 0 0 0 0.5 0"/>
<feBlend mode="normal" in2="BackgroundImageFix" result="effect1_dropShadow_92_2502"/>
<feBlend mode="normal" in="SourceGraphic" in2="effect1_dropShadow_92_2502" result="shape"/>
</filter>
<filter id="filter1_d_92_2502" x="450.484" y="288.361" width="123.187" height="151.715" filterUnits="userSpaceOnUse" color-interpolation-filters="sRGB">
<feFlood flood-opacity="0" result="BackgroundImageFix"/>
<feColorMatrix in="SourceAlpha" type="matrix" values="0 0 0 0 0 0 0 0 0 0 0 0 0 0 0 0 0 0 127 0" result="hardAlpha"/>
<feOffset/>
<feGaussianBlur stdDeviation="15"/>
<feColorMatrix type="matrix" values="0 0 0 0 0.164706 0 0 0 0 0.792157 0 0 0 0 0.968627 0 0 0 0.15 0"/>
<feBlend mode="normal" in2="BackgroundImageFix" result="effect1_dropShadow_92_2502"/>
<feBlend mode="normal" in="SourceGraphic" in2="effect1_dropShadow_92_2502" result="shape"/>
</filter>
<filter id="filter2_d_92_2502" x="559.549" y="351.033" width="123.132" height="151.713" filterUnits="userSpaceOnUse" color-interpolation-filters="sRGB">
<feFlood flood-opacity="0" result="BackgroundImageFix"/>
<feColorMatrix in="SourceAlpha" type="matrix" values="0 0 0 0 0 0 0 0 0 0 0 0 0 0 0 0 0 0 127 0" result="hardAlpha"/>
<feOffset/>
<feGaussianBlur stdDeviation="15"/>
<feColorMatrix type="matrix" values="0 0 0 0 0.164706 0 0 0 0 0.792157 0 0 0 0 0.968627 0 0 0 0.15 0"/>
<feBlend mode="normal" in2="BackgroundImageFix" result="effect1_dropShadow_92_2502"/>
<feBlend mode="normal" in="SourceGraphic" in2="effect1_dropShadow_92_2502" result="shape"/>
</filter>
<filter id="filter3_d_92_2502" x="341.566" y="349.828" width="123.132" height="151.695" filterUnits="userSpaceOnUse" color-interpolation-filters="sRGB">
<feFlood flood-opacity="0" result="BackgroundImageFix"/>
<feColorMatrix in="SourceAlpha" type="matrix" values="0 0 0 0 0 0 0 0 0 0 0 0 0 0 0 0 0 0 127 0" result="hardAlpha"/>
<feOffset/>
<feGaussianBlur stdDeviation="15"/>
<feColorMatrix type="matrix" values="0 0 0 0 0.164706 0 0 0 0 0.792157 0 0 0 0 0.968627 0 0 0 0.15 0"/>
<feBlend mode="normal" in2="BackgroundImageFix" result="effect1_dropShadow_92_2502"/>
<feBlend mode="normal" in="SourceGraphic" in2="effect1_dropShadow_92_2502" result="shape"/>
</filter>
<filter id="filter4_d_92_2502" x="450.484" y="412.902" width="123.205" height="151.713" filterUnits="userSpaceOnUse" color-interpolation-filters="sRGB">
<feFlood flood-opacity="0" result="BackgroundImageFix"/>
<feColorMatrix in="SourceAlpha" type="matrix" values="0 0 0 0 0 0 0 0 0 0 0 0 0 0 0 0 0 0 127 0" result="hardAlpha"/>
<feOffset/>
<feGaussianBlur stdDeviation="15"/>
<feColorMatrix type="matrix" values="0 0 0 0 0.164706 0 0 0 0 0.792157 0 0 0 0 0.968627 0 0 0 0.15 0"/>
<feBlend mode="normal" in2="BackgroundImageFix" result="effect1_dropShadow_92_2502"/>
<feBlend mode="normal" in="SourceGraphic" in2="effect1_dropShadow_92_2502" result="shape"/>
</filter>
<linearGradient id="paint0_linear_92_2502" x1="178.112" y1="705.662" x2="44.5364" y2="705.662" gradientUnits="userSpaceOnUse">
<stop stop-color="#CACEFC"/>
<stop offset="0.11" stop-color="#BABEFB"/>
<stop offset="0.26" stop-color="#A7ACFA"/>
<stop offset="0.38" stop-color="#A0A5FA"/>
<stop offset="0.44" stop-color="#AFB4FB"/>
<stop offset="0.58" stop-color="#D7D9FD"/>
<stop offset="0.69" stop-color="white"/>
</linearGradient>
<linearGradient id="paint1_linear_92_2502" x1="111.324" y1="634.405" x2="111.324" y2="717.882" gradientUnits="userSpaceOnUse">
<stop stop-color="#0E004F"/>
<stop offset="1" stop-color="#5E45D9"/>
</linearGradient>
<linearGradient id="paint2_linear_92_2502" x1="23161.6" y1="20419.7" x2="32922.1" y2="20419.7" gradientUnits="userSpaceOnUse">
<stop stop-color="#0E004F"/>
<stop offset="1" stop-color="#5E45D9"/>
</linearGradient>
<linearGradient id="paint3_linear_92_2502" x1="108.911" y1="678.08" x2="114.938" y2="670.568" gradientUnits="userSpaceOnUse">
<stop stop-color="#CACEFC"/>
<stop offset="0.38" stop-color="#E5E7FE"/>
<stop offset="0.75" stop-color="#F8F9FF"/>
<stop offset="1" stop-color="white"/>
</linearGradient>
<linearGradient id="paint4_linear_92_2502" x1="1981.75" y1="21225.5" x2="3246.99" y2="21225.5" gradientUnits="userSpaceOnUse">
<stop stop-color="#CACEFC"/>
<stop offset="0.38" stop-color="#E5E7FE"/>
<stop offset="0.75" stop-color="#F8F9FF"/>
<stop offset="1" stop-color="white"/>
</linearGradient>
<linearGradient id="paint5_linear_92_2502" x1="41283.1" y1="52502.4" x2="31524.1" y2="52502.4" gradientUnits="userSpaceOnUse">
<stop stop-color="#CACEFC"/>
<stop offset="0.11" stop-color="#BABEFB"/>
<stop offset="0.26" stop-color="#A7ACFA"/>
<stop offset="0.38" stop-color="#A0A5FA"/>
<stop offset="0.44" stop-color="#AFB4FB"/>
<stop offset="0.58" stop-color="#D7D9FD"/>
<stop offset="0.69" stop-color="white"/>
</linearGradient>
<linearGradient id="paint6_linear_92_2502" x1="31524.7" y1="17310.4" x2="41283.9" y2="17310.4" gradientUnits="userSpaceOnUse">
<stop stop-color="#0E004F"/>
<stop offset="1" stop-color="#5E45D9"/>
</linearGradient>
<linearGradient id="paint7_linear_92_2502" x1="49370.8" y1="59517.9" x2="39607.7" y2="59517.9" gradientUnits="userSpaceOnUse">
<stop stop-color="#CACEFC"/>
<stop offset="0.11" stop-color="#BABEFB"/>
<stop offset="0.26" stop-color="#A7ACFA"/>
<stop offset="0.38" stop-color="#A0A5FA"/>
<stop offset="0.44" stop-color="#AFB4FB"/>
<stop offset="0.58" stop-color="#D7D9FD"/>
<stop offset="0.69" stop-color="white"/>
</linearGradient>
<linearGradient id="paint8_linear_92_2502" x1="44482.5" y1="18344.1" x2="44482.5" y2="22158.2" gradientUnits="userSpaceOnUse">
<stop stop-color="#0E004F"/>
<stop offset="1" stop-color="#5E45D9"/>
</linearGradient>
<linearGradient id="paint9_linear_92_2502" x1="33217.7" y1="59398.7" x2="23456" y2="59398.7" gradientUnits="userSpaceOnUse">
<stop stop-color="#CACEFC"/>
<stop offset="0.11" stop-color="#BABEFB"/>
<stop offset="0.26" stop-color="#A7ACFA"/>
<stop offset="0.38" stop-color="#A0A5FA"/>
<stop offset="0.44" stop-color="#AFB4FB"/>
<stop offset="0.58" stop-color="#D7D9FD"/>
<stop offset="0.69" stop-color="white"/>
</linearGradient>
<linearGradient id="paint10_linear_92_2502" x1="23452.9" y1="20197.8" x2="33213.3" y2="20197.8" gradientUnits="userSpaceOnUse">
<stop stop-color="#0E004F"/>
<stop offset="1" stop-color="#5E45D9"/>
</linearGradient>
<linearGradient id="paint11_linear_92_2502" x1="41283.1" y1="66395.3" x2="31524.1" y2="66395.3" gradientUnits="userSpaceOnUse">
<stop stop-color="#CACEFC"/>
<stop offset="0.11" stop-color="#BABEFB"/>
<stop offset="0.26" stop-color="#A7ACFA"/>
<stop offset="0.38" stop-color="#A0A5FA"/>
<stop offset="0.44" stop-color="#AFB4FB"/>
<stop offset="0.58" stop-color="#D7D9FD"/>
<stop offset="0.69" stop-color="white"/>
</linearGradient>
<linearGradient id="paint12_linear_92_2502" x1="36405" y1="21231.8" x2="36405" y2="25046.8" gradientUnits="userSpaceOnUse">
<stop stop-color="#0E004F"/>
<stop offset="1" stop-color="#5E45D9"/>
</linearGradient>
<linearGradient id="paint13_linear_92_2502" x1="512.105" y1="410.076" x2="512.105" y2="318.361" gradientUnits="userSpaceOnUse">
<stop stop-color="#2ACAF7"/>
<stop offset="0.8" stop-color="#2ACAF7"/>
<stop offset="1" stop-color="#2ACAF7"/>
</linearGradient>
<linearGradient id="paint14_linear_92_2502" x1="21351.9" y1="23113.2" x2="21351.9" y2="18508.2" gradientUnits="userSpaceOnUse">
<stop stop-color="#2ACAF7"/>
<stop offset="0.8" stop-color="#2ACAF7"/>
<stop offset="1" stop-color="#2ACAF7"/>
</linearGradient>
<linearGradient id="paint15_linear_92_2502" x1="13604.1" y1="23046.9" x2="13604.1" y2="18442.9" gradientUnits="userSpaceOnUse">
<stop stop-color="#2ACAF7"/>
<stop offset="0.8" stop-color="#2ACAF7"/>
<stop offset="1" stop-color="#2ACAF7"/>
</linearGradient>
<linearGradient id="paint16_linear_92_2502" x1="17497.8" y1="26279.3" x2="17497.8" y2="21674.4" gradientUnits="userSpaceOnUse">
<stop stop-color="#2ACAF7"/>
<stop offset="0.8" stop-color="#2ACAF7"/>
<stop offset="1" stop-color="#2ACAF7"/>
</linearGradient>
<linearGradient id="paint17_linear_92_2502" x1="56111.2" y1="10191.5" x2="46349.5" y2="10191.5" gradientUnits="userSpaceOnUse">
<stop stop-color="#CACEFC"/>
<stop offset="0.11" stop-color="#BABEFB"/>
<stop offset="0.26" stop-color="#A7ACFA"/>
<stop offset="0.38" stop-color="#A0A5FA"/>
<stop offset="0.44" stop-color="#AFB4FB"/>
<stop offset="0.58" stop-color="#D7D9FD"/>
<stop offset="0.69" stop-color="white"/>
</linearGradient>
<linearGradient id="paint18_linear_92_2502" x1="712.24" y1="256.073" x2="712.24" y2="339.574" gradientUnits="userSpaceOnUse">
<stop stop-color="#0E004F"/>
<stop offset="1" stop-color="#5E45D9"/>
</linearGradient>
<linearGradient id="paint19_linear_92_2502" x1="23771.9" y1="20047" x2="33536.5" y2="20047" gradientUnits="userSpaceOnUse">
<stop stop-color="#0E004F"/>
<stop offset="1" stop-color="#5E45D9"/>
</linearGradient>
<linearGradient id="paint20_linear_92_2502" x1="8808.87" y1="3037.86" x2="8865.09" y2="2954.01" gradientUnits="userSpaceOnUse">
<stop stop-color="#CACEFC"/>
<stop offset="0.38" stop-color="#E5E7FE"/>
<stop offset="0.75" stop-color="#F8F9FF"/>
<stop offset="1" stop-color="white"/>
</linearGradient>
<linearGradient id="paint21_linear_92_2502" x1="18403.7" y1="8486.37" x2="19669" y2="8486.37" gradientUnits="userSpaceOnUse">
<stop stop-color="#CACEFC"/>
<stop offset="0.38" stop-color="#E5E7FE"/>
<stop offset="0.75" stop-color="#F8F9FF"/>
<stop offset="1" stop-color="white"/>
</linearGradient>
</defs>
</svg>
