<svg width="212" height="240" viewBox="0 0 212 240" fill="none" xmlns="http://www.w3.org/2000/svg">
<g clip-path="url(#clip0)">
<path d="M48.6109 155.163C49.4649 153.895 50.4146 152.694 51.4519 151.57C51.6435 152.074 51.7454 152.607 51.753 153.145C51.6665 154.449 51.3611 155.729 50.8496 156.933C48.6267 163.233 47.2532 169.798 46.7649 176.457C43.9602 175.395 40.9116 175.137 37.967 175.715C40.655 168.457 44.2297 161.554 48.6109 155.163Z" fill="url(#paint0_linear)"/>
<path d="M46.7648 176.469C47.4449 176.72 48.1057 177.02 48.7417 177.367C52.3141 179.345 54.9926 182.604 56.2304 186.478C53.1144 192.179 48.8988 197.386 45.4556 202.813C45.0852 203.476 44.6075 204.074 44.0416 204.583C43.7609 204.842 43.4214 205.029 43.052 205.129C42.6826 205.229 42.2945 205.238 41.9207 205.156C41.1876 204.961 41.0043 204.713 40.9126 203.959C40.7049 201.99 40.91 200 41.5149 198.114C42.3528 195.511 46.2542 193.416 45.8091 190.305C45.521 188.34 41.8814 188.847 40.5722 189.498L40.4544 189.563C38.71 190.684 37.1211 192.027 35.7282 193.559C35.2961 193.936 34.851 194.314 34.419 194.652C32.5266 196.078 30.3943 197.158 28.1217 197.841C27.0076 198.265 25.795 198.364 24.6261 198.127C24.0873 197.928 23.6343 197.549 23.3434 197.056C23.0525 196.563 22.9414 195.985 23.0289 195.42C29.5028 191.258 34.4561 185.133 37.1552 177.953C37.404 177.211 37.6789 176.482 37.9669 175.753C40.9091 175.167 43.9576 175.416 46.7648 176.469Z" fill="url(#paint1_linear)"/>
<path d="M40.5068 189.498C39.7344 192.934 38.962 196.383 38.2026 199.82C38.0193 200.601 37.7182 201.512 36.8934 201.694C36.6363 201.74 36.3714 201.717 36.1269 201.625C35.8825 201.533 35.6677 201.377 35.5057 201.173C35.189 200.757 34.9658 200.277 34.851 199.768C34.3888 198.073 34.2337 196.31 34.3928 194.561C34.851 194.223 35.2962 193.845 35.702 193.468C37.1208 191.94 38.7364 190.605 40.5068 189.498Z" fill="#1D2243"/>
<path d="M63.0514 155.619C63.2032 158.86 63.0806 162.108 62.6848 165.329C62.0184 170.858 60.6503 176.281 58.6132 181.469C57.947 183.177 57.173 184.842 56.2959 186.454C55.0581 182.579 52.3797 179.32 48.8072 177.343C48.1712 176.996 47.5105 176.695 46.8303 176.444C47.3186 169.786 48.6921 163.221 50.9151 156.921C51.4265 155.717 51.7319 154.437 51.8184 153.133C51.8108 152.595 51.7089 152.062 51.5173 151.558C52.1332 150.872 52.8126 150.244 53.5466 149.684C55.3533 148.382 58.6525 147.016 60.6163 148.473C62.5801 149.931 62.9467 153.393 63.0514 155.619Z" fill="#7DB1DB"/>
<path d="M83.2394 205.977C86.4862 217.014 86.4208 227.83 86.1327 238.647C83.75 239.102 81.341 239.428 78.8928 239.649C79.2887 232.869 79.1749 226.068 78.5524 219.305C78.4386 215.94 77.6695 212.63 76.2875 209.556C74.3106 205.651 70.815 202.671 67.2278 199.911C68.0365 198.957 69.0068 198.151 70.095 197.529C71.2575 196.891 72.5637 196.557 73.8916 196.557C75.2196 196.557 76.5258 196.891 77.6884 197.529C80.765 199.221 82.2968 202.775 83.2394 205.977Z" fill="#7DB1DB"/>
<path d="M76.2876 209.556C77.6696 212.63 78.4387 215.94 78.5525 219.305C79.1576 226.07 79.2538 232.87 78.8406 239.649C76.8375 239.831 74.8344 239.948 72.8051 239.987C72.5351 228.135 69.1743 216.554 63.0515 206.38C63.693 205.079 64.3607 203.92 65.1462 202.749C65.7582 201.767 66.4362 200.828 67.1755 199.938C70.8151 202.697 74.3107 205.717 76.2876 209.556Z" fill="url(#paint2_linear)"/>
<path d="M63.1039 206.381C69.2267 216.555 72.5875 228.135 72.8575 239.988C67.0506 240.119 61.2448 239.684 55.5236 238.686C55.4467 227.474 58.0445 216.402 63.1039 206.381Z" fill="#FFB46F"/>
<path style="mix-blend-mode:screen" d="M66.547 203.518C61.5736 210.202 58.5478 218.118 57.8015 226.4C61.5982 228.886 66.835 228.729 69.7677 226.4C72.7003 224.07 73.8 219.892 73.1978 215.792C72.5956 211.692 69.388 207.084 66.547 203.518Z" fill="url(#paint3_linear)"/>
<path d="M97.811 137.044C112.369 143.643 123.183 159.952 121.01 174.673C119.817 182.127 116.054 188.937 110.366 193.937C102.891 200.679 92.8884 205.781 81.3543 203.165C79.9412 202.831 78.5542 202.396 77.2041 201.864C80.6254 202.663 84.1885 202.646 87.6019 201.814C91.0152 200.981 94.1818 199.357 96.8422 197.074C103.506 191.178 106.386 181.715 107.028 172.031C107.46 165.224 106.74 157.714 102.707 151.375C97.6801 143.461 88.3978 138.932 79.8749 137.969C75.8314 137.547 71.7491 137.669 67.7385 138.333C72.2493 135.652 77.3605 134.131 82.6108 133.906C87.861 133.681 93.085 134.76 97.811 137.044Z" fill="#7DB1DB"/>
<path d="M102.642 151.453C106.674 157.818 107.394 165.302 106.962 172.109C106.321 181.793 103.44 191.256 96.7766 197.152C94.1161 199.435 90.9496 201.059 87.5363 201.892C84.1229 202.725 80.5597 202.742 77.1385 201.942C68.4933 198.41 61.3805 191.957 57.0552 183.719C52.4045 175.061 51.3471 164.937 54.1095 155.514C56.3733 148.357 61.1685 142.258 67.6075 138.346C71.618 137.682 75.7003 137.56 79.7438 137.982C88.3322 139.01 97.6145 143.539 102.642 151.453ZM80.5817 163.597C81.1209 161.468 81.1762 159.247 80.7437 157.095C80.3111 154.942 79.4015 152.913 78.0811 151.154C77.2618 150.004 76.19 149.055 74.947 148.379C73.7039 147.702 72.3222 147.316 70.9067 147.249C70.8375 144.311 71.2397 141.38 72.098 138.567C70.1459 141.199 68.8818 144.272 68.4192 147.509C64.0857 148.59 60.8388 152.716 59.5165 156.49C59.2033 157.374 58.9967 158.291 58.9012 159.224C58.6541 162.343 59.5931 165.441 61.5327 167.905C62.9581 169.775 65.0456 171.036 67.3718 171.432C67.7776 171.498 68.1966 171.537 68.681 171.563C69.1857 181.712 73.089 191.401 79.77 199.091C74.2426 190.914 71.2893 181.285 71.2863 171.432C73.3991 171.073 75.3762 170.156 77.0112 168.778C78.6461 167.399 79.8792 165.61 80.5817 163.597Z" fill="url(#paint4_linear)"/>
<path d="M78.0812 151.154C79.4016 152.913 80.3112 154.943 80.7437 157.095C81.1763 159.248 81.1209 161.469 80.5818 163.597C79.8647 165.623 78.6101 167.418 76.9507 168.793C75.2913 170.168 73.2889 171.071 71.1555 171.407C71.1584 181.259 74.1118 190.888 79.6391 199.066C72.9581 191.376 69.0549 181.686 68.5501 171.537C68.1312 171.537 67.7123 171.537 67.2409 171.407C64.9662 170.987 62.9309 169.738 61.5328 167.906C59.6042 165.446 58.6702 162.359 58.9144 159.25C59.0099 158.318 59.2165 157.4 59.5297 156.517C60.8389 152.729 64.0988 148.616 68.4323 147.536C68.8949 144.298 70.159 141.226 72.1112 138.594C71.2528 141.406 70.8507 144.337 70.9198 147.275C72.3309 147.341 73.7086 147.724 74.9491 148.396C76.1896 149.068 77.2605 150.011 78.0812 151.154ZM79.8617 160.916C79.9777 159.648 79.8938 158.37 79.613 157.128C79.613 156.998 79.613 156.868 79.5213 156.738C79.4297 156.608 79.4558 156.478 79.4297 156.347C79.4035 156.217 79.3642 156.113 79.3249 156.009C79.2857 155.905 79.1547 155.449 79.05 155.176C79.0317 155.118 79.0099 155.062 78.9845 155.007L78.7882 154.525C78.6441 154.187 78.487 153.874 78.3168 153.549C78.1621 153.258 77.9917 152.976 77.8062 152.703C77.3457 151.99 76.7859 151.346 76.1436 150.79L75.7639 150.477C74.5333 149.522 73.0035 149.029 71.4435 149.085C66.9267 149.228 63.3395 153.445 61.9648 157.376C61.6954 158.129 61.5153 158.911 61.4281 159.706C61.0615 163.779 63.3657 168.817 67.9741 169.506C69.7785 169.79 71.6264 169.593 73.3288 168.934C73.9188 168.7 74.4919 168.426 75.0438 168.114C75.506 167.844 75.9441 167.534 76.353 167.19C77.8271 166.035 78.9248 164.473 79.5082 162.699C79.5908 162.458 79.6521 162.209 79.6915 161.957C79.7814 161.616 79.8384 161.268 79.8617 160.916Z" fill="#7DB1DB"/>
<path d="M79.6128 157.129C79.8937 158.371 79.9776 159.649 79.8616 160.917C79.8399 161.277 79.7829 161.635 79.6914 161.984C79.652 162.236 79.5907 162.484 79.5081 162.726C78.9201 164.49 77.8227 166.042 76.3529 167.19C75.9439 167.535 75.5059 167.844 75.0437 168.114C74.4917 168.427 73.9187 168.701 73.3286 168.934C71.8732 169.487 70.3131 169.714 68.7595 169.598C67.5296 168.565 66.5702 167.251 65.9637 165.768C65.3571 164.286 65.1215 162.679 65.277 161.086C65.3579 160.29 65.5383 159.507 65.8138 158.756C67.123 154.851 70.7626 150.621 75.2925 150.465H75.79L76.1696 150.777C76.812 151.334 77.3718 151.978 77.8323 152.691C78.0156 152.964 78.1858 153.25 78.3429 153.537C78.5 153.823 78.6702 154.174 78.8142 154.513L79.0106 154.994C79.0359 155.049 79.0578 155.106 79.0761 155.164C79.1808 155.437 79.2724 155.71 79.351 155.997C79.4295 156.283 79.351 156.218 79.4557 156.335C79.5605 156.452 79.5343 156.595 79.5474 156.725C79.5605 156.856 79.5867 156.999 79.6128 157.129Z" fill="#C9FFEF"/>
<path d="M75.7639 150.477H75.2664C70.7365 150.633 67.1493 154.838 65.7877 158.768C65.5122 159.52 65.3319 160.302 65.2509 161.098C65.0954 162.691 65.331 164.298 65.9376 165.781C66.5441 167.264 67.5035 168.578 68.7334 169.611C70.287 169.726 71.8472 169.499 73.3026 168.947C71.6002 169.606 69.7523 169.803 67.9479 169.519C63.3657 168.778 61.0615 163.792 61.4019 159.719C61.4891 158.924 61.6692 158.142 61.9386 157.389C63.3133 153.484 66.9005 149.241 71.4173 149.098C72.9846 149.032 74.5245 149.521 75.7639 150.477Z" fill="#5689B3"/>
<path d="M78.1858 160.213C77.9629 160.948 77.5713 161.62 77.0419 162.178C76.5125 162.736 75.8598 163.164 75.1354 163.428C74.3239 163.662 73.4684 163.703 72.6382 163.547C71.808 163.391 71.0264 163.042 70.3568 162.53C69.6363 162.004 69.0574 161.31 68.6715 160.508C68.2855 159.707 68.1044 158.823 68.1442 157.936C67.5464 159.605 67.4196 161.406 67.7776 163.142C68.0657 164.011 68.5288 164.812 69.1389 165.497C69.7489 166.182 70.4929 166.735 71.3256 167.125C72.2264 167.475 73.2145 167.538 74.1528 167.304C75.0911 167.071 75.9333 166.554 76.5624 165.823C77.8192 164.457 77.8062 162.14 78.1858 160.213Z" fill="#A4EDE0"/>
<path d="M74.3369 159.549C75.6461 159.119 77.2565 158.091 76.8244 156.269C76.5804 155.512 76.0841 154.861 75.4176 154.424C74.751 153.986 73.9541 153.787 73.1587 153.861C69.9249 154.355 70.226 160.798 74.3369 159.549Z" fill="#EBFFFC"/>
<path style="mix-blend-mode:screen" d="M90.6104 149.085C91.3808 150.33 91.872 151.726 92.0504 153.177C92.2289 154.628 92.0905 156.1 91.6447 157.493C90.7228 159.994 89.1937 162.229 87.1934 164.001C82.6857 168.366 77.197 171.601 71.1817 173.437C71.1817 172.721 71.1817 172.006 71.1817 171.29C73.3152 170.954 75.3176 170.051 76.977 168.676C78.6364 167.301 79.891 165.506 80.608 163.48C81.1472 161.352 81.2025 159.131 80.77 156.978C80.3374 154.826 79.4279 152.796 78.1075 151.037C77.2882 149.887 76.2164 148.938 74.9733 148.262C73.7302 147.585 72.3486 147.199 70.933 147.132C70.9003 144.903 71.111 142.678 71.5614 140.494C76.269 140.631 80.8768 141.876 85.007 144.126C87.2566 145.295 89.1812 146.999 90.6104 149.085ZM62.8421 175.26C64.8151 175.044 66.7705 174.691 68.6943 174.205C68.6026 173.307 68.5371 172.396 68.511 171.498C68.092 171.498 67.6731 171.498 67.2018 171.368C64.9472 170.949 62.9281 169.715 61.5329 167.906C59.6043 165.446 58.6703 162.359 58.9145 159.25C59.01 158.318 59.2166 157.4 59.5298 156.517C60.839 152.729 64.0989 148.616 68.4324 147.536C68.7911 145.115 69.5849 142.778 70.7759 140.637C68.0111 140.6 65.2689 141.137 62.7243 142.212C58.756 145.878 55.8144 150.507 54.1882 155.645C52.5198 161.13 52.2055 166.934 53.2718 172.565C53.6023 172.952 53.9707 173.305 54.3715 173.62C56.8459 175.533 60.0797 175.572 62.8421 175.26Z" fill="url(#paint5_linear)"/>
<path d="M122.751 226.229C125.181 230.8 128.002 235.154 131.183 239.244C128.747 239.088 126.312 238.854 123.851 238.568C123.107 234.497 122.739 230.366 122.751 226.229Z" fill="#FF8311"/>
<path d="M147.129 224.212C149.865 228.819 152.444 233.479 154.801 238.217C147.016 239.504 139.104 239.854 131.235 239.258C128.054 235.168 125.233 230.813 122.804 226.242V225.656C122.804 221.049 122.895 215.178 125.003 211.339C125.48 210.373 126.229 209.566 127.158 209.016C128.088 208.466 129.159 208.197 130.24 208.241C137.716 208.684 143.686 218.38 147.129 224.212Z" fill="#FFB46F"/>
<path d="M122.751 226.229C122.738 230.371 123.106 234.505 123.851 238.581L119.74 238.047C116.614 226.389 114.831 214.416 114.425 202.357C115.938 210.696 118.747 218.749 122.751 226.229Z" fill="#7DB1DB"/>
<path d="M158.061 237.579C156.987 237.826 155.887 238.034 154.801 238.216C152.444 233.479 149.865 228.819 147.129 224.211C143.686 218.38 137.716 208.683 130.188 208.202C129.107 208.157 128.036 208.427 127.106 208.977C126.176 209.527 125.427 210.334 124.951 211.3C122.843 215.204 122.804 221.035 122.751 225.617V226.203C118.747 218.723 115.938 210.67 114.425 202.332C114.268 197.737 114.346 193.22 114.621 188.704C114.765 186.374 115.734 184.305 117.907 183.615C120.362 183.075 122.931 183.51 125.069 184.825C127.348 186.183 129.428 187.847 131.248 189.771C144.321 203.039 153.58 219.548 158.061 237.579Z" fill="url(#paint6_linear)"/>
<path style="mix-blend-mode:screen" d="M122.084 211.872C123.943 216.154 126.679 220.736 130.869 222.584C132.744 223.463 134.883 223.606 136.859 222.983C138.836 222.36 140.502 221.018 141.525 219.226C144.982 212.991 141.395 204.401 136.812 197.958C133.369 193.116 123.799 181.844 118.117 185.671C116.218 186.973 116.245 189.888 116.585 192.478C117.52 199.162 119.37 205.687 122.084 211.872Z" fill="url(#paint7_linear)"/>
<path d="M95.5722 141.027C83.8852 146.767 70.8132 149.135 57.8408 147.86C59.7847 145.007 62.4004 142.671 65.4604 141.053C70.802 141.443 75.6853 139.998 80.9745 139.165C85.9158 138.231 91.0281 138.883 95.5722 141.027Z" fill="#7DB1DB"/>
<path d="M82.7419 66.68V67.7603C82.4801 74.6718 81.5374 81.9997 81.1709 89.0153C76.8553 89.0199 72.5698 89.7278 68.4846 91.1108C66.3261 85.6756 64.8699 79.9899 64.1512 74.1902C63.5358 68.4372 64.5046 62.2806 68.0788 57.686C70.1473 54.9657 72.9621 53.3908 76.0911 55.2651C78.8634 57.0771 80.9213 59.7851 81.9171 62.9314C82.2966 64.1559 82.5725 65.4098 82.7419 66.68Z" fill="#2ACAF7"/>
<path d="M36.3566 98.3348C34.0357 98.6422 31.7481 99.1607 29.5225 99.8837C27.5818 95.9497 26.0254 91.8395 24.8749 87.6097C23.7781 83.4209 23.965 79.0018 25.4116 74.9193C25.7076 73.9895 26.188 73.1281 26.8244 72.3859C27.4607 71.6437 28.2401 71.0358 29.1167 70.598C29.6136 70.4073 30.1435 70.316 30.6759 70.3294C31.2084 70.3428 31.733 70.4606 32.2195 70.6761C33.0574 79.9694 34.0393 89.3799 36.3566 98.3348Z" fill="#2ACAF7"/>
<path d="M68.4847 91.111C72.5698 89.728 76.8554 89.0201 81.1709 89.0155C81.1709 89.8355 81.0793 90.6555 81.0531 91.4625C75.3886 92.0352 69.7546 92.7857 64.1512 93.7142C58.6039 82.7016 56.3589 70.3354 57.6837 58.0897C57.9224 55.0232 58.7163 52.0248 60.0272 49.2389C60.6979 47.8464 61.6388 46.5994 62.7959 45.5696C63.953 44.5398 65.3035 43.7477 66.7696 43.2386C68.6431 42.7723 70.6061 42.7971 72.4671 43.3103C74.328 43.8236 76.0233 44.808 77.3873 46.1672C80.0872 48.9355 81.8298 52.487 82.3623 56.3065C82.8559 59.7545 82.9875 63.2442 82.7551 66.7193C82.555 65.4508 82.2484 64.2013 81.8386 62.9837C80.8428 59.8374 78.7849 57.1293 76.0126 55.3173C72.8836 53.443 70.0688 55.018 68.0003 57.7383C64.4654 62.3329 63.4966 68.4894 64.0726 74.2424C64.821 80.028 66.3035 85.6959 68.4847 91.111Z" fill="#78E1FF"/>
<path d="M29.5227 99.8843C31.7483 99.1613 34.0359 98.6428 36.3568 98.3354C36.479 98.8214 36.6099 99.3029 36.7495 99.7802C33.2408 100.743 29.7714 101.798 26.2759 102.917C20.9492 94.2104 18.3936 84.1066 18.9443 73.9306C19.116 69.9108 19.9749 65.9495 21.4842 62.2163C21.9352 61.0459 22.6011 59.9689 23.448 59.0405C23.8702 58.576 24.3851 58.2042 24.9599 57.9487C25.5347 57.6933 26.1568 57.5597 26.7865 57.5566C27.6418 57.6489 28.4568 57.9666 29.1473 58.4769C29.8378 58.9872 30.3787 59.6715 30.7141 60.4592C31.3522 62.0386 31.7067 63.717 31.7614 65.4182L32.2328 70.7027C31.7462 70.4872 31.2216 70.3694 30.6892 70.356C30.1567 70.3426 29.6268 70.4339 29.1299 70.6246C28.2534 71.0624 27.474 71.6703 26.8376 72.4125C26.2013 73.1547 25.7209 74.0161 25.4249 74.9459C23.9792 79.0191 23.7878 83.4284 24.875 87.6103C26.0256 91.8401 27.582 95.9503 29.5227 99.8843Z" fill="#78E1FF"/>
<path d="M82.9884 66.3034C83.2208 62.8283 83.0892 59.3386 82.5956 55.8907C82.0631 52.0712 80.3205 48.5196 77.6206 45.7513C76.2539 44.4011 74.559 43.4254 72.7008 42.919C70.8426 42.4127 68.8842 42.393 67.016 42.8618C64.072 43.8957 61.6611 46.0492 60.3129 48.8491C59.002 51.635 58.2081 54.6334 57.9694 57.6999C56.6299 69.9461 58.8613 82.317 64.3976 93.3374C69.9836 92.4176 75.5913 91.6713 81.2209 91.0986C81.2209 90.2917 81.2995 89.4717 81.3388 88.6517C81.7577 81.6621 82.648 74.3342 82.9229 67.3967L82.9884 66.3034ZM36.6031 97.958C34.2858 89.0031 33.3039 79.5926 32.466 70.2993L31.9947 65.0148C31.94 63.3136 31.5855 61.6351 30.9473 60.0557C30.612 59.2681 30.0711 58.5837 29.3806 58.0734C28.6901 57.5632 27.8751 57.2455 27.0197 57.1532C26.3901 57.1563 25.768 57.2898 25.1932 57.5453C24.6184 57.8008 24.1034 58.1726 23.6812 58.637C22.8343 59.5655 22.1684 60.6424 21.7174 61.8129C20.2082 65.546 19.3493 69.5074 19.1776 73.5272C18.6373 83.7172 21.2114 93.8313 26.5615 102.54C30.0178 101.42 33.4872 100.366 37.0352 99.4028C36.8693 98.9255 36.7253 98.444 36.6031 97.958ZM103.189 60.6675C104.499 76.8593 100.453 93.1161 96.0281 108.748C92.7943 111.351 89.3511 114.462 86.1305 117.13C85.6833 125.037 86.9328 132.948 89.7962 140.338C73.5717 144.67 56.7517 146.38 39.9809 145.401C36.7438 138.482 34.0773 131.312 32.0078 123.964C28.2242 122.155 19.8845 116.987 19.8845 116.987C19.8845 116.987 15.3285 103.854 14.124 99.3247C11.4932 89.7243 10.4323 79.7659 10.9819 69.8307C12.1078 53.0922 19.243 36.3017 32.3744 25.7719C45.5057 15.242 64.9868 12.0792 79.807 20.136C94.1428 27.9065 101.906 44.4757 103.189 60.6675Z" fill="url(#paint8_radial)"/>
<path d="M133.814 55.7727C132.701 66.5499 128.852 77.2489 125.278 87.6096C124.27 90.5381 123.275 93.5188 122.359 96.5385C121.637 96.47 120.948 96.2043 120.369 95.7705C117.514 93.8182 116.441 90.46 115.878 86.8807C115.871 86.7376 115.871 86.5942 115.878 86.4512C117.802 82.5464 119.714 78.6416 121.442 74.6718C124.593 67.7664 126.765 60.46 127.896 52.9613C128.773 52.715 129.7 52.7058 130.582 52.9346C131.463 53.1634 132.267 53.6219 132.911 54.2629C133.288 54.7171 133.593 55.2263 133.814 55.7727Z" fill="#FF8311"/>
<path d="M135.294 57.9473C135.109 56.3181 134.667 54.7281 133.984 53.2355C133.625 52.4867 133.127 51.8114 132.518 51.2441C131.923 50.7234 131.23 50.3243 130.48 50.0697C129.73 49.8151 128.936 49.71 128.145 49.7603C126.809 49.802 125.505 50.1732 124.349 50.8406C121.848 52.5056 119.848 54.8131 118.562 57.5178C113.379 67.1486 111.775 78.2874 114.032 88.9772C114.032 89.2375 114.137 89.4848 114.202 89.7321C115.092 93.4546 116.65 96.8388 120.002 98.7651C120.479 99.0469 120.995 99.2575 121.534 99.3899C124.375 100.08 126.286 97.6458 127.975 94.8343C130.563 90.5012 132.545 85.8376 133.867 80.9724C135.902 73.4721 136.388 65.6393 135.294 57.9473ZM127.111 92.6346C125.802 94.7823 124.283 96.6435 122.359 96.5394C121.637 96.471 120.948 96.2052 120.369 95.7715C117.515 93.8191 116.441 90.461 115.878 86.8816C115.871 86.7385 115.871 86.5952 115.878 86.4521C114.617 77.0682 116.455 67.531 121.115 59.2749C122.265 56.9678 124.02 55.0118 126.195 53.613C126.726 53.3127 127.3 53.0933 127.897 52.9622C128.773 52.7159 129.7 52.7067 130.582 52.9355C131.463 53.1643 132.267 53.6229 132.911 54.2638C133.302 54.6986 133.624 55.1902 133.867 55.7216C134.477 57.1765 134.823 58.7279 134.888 60.3032C135.824 71.6286 133.1 82.9555 127.111 92.6346Z" fill="#7DB1DB"/>
<path d="M134.848 60.354C135.789 71.6564 133.083 82.9629 127.124 92.6334C125.815 94.781 124.296 96.6423 122.372 96.5381C123.288 93.5184 124.283 90.5378 125.291 87.6092C128.865 77.1965 132.714 66.5495 133.827 55.7724C134.438 57.2273 134.784 58.7787 134.848 60.354ZM121.075 59.2736C116.415 67.5298 114.578 77.067 115.839 86.4508C117.763 82.5461 119.675 78.6413 121.403 74.6714C124.554 67.7661 126.726 60.4596 127.857 52.9609C127.26 53.0921 126.687 53.3114 126.155 53.6117C123.976 55.0088 122.216 56.9649 121.062 59.2736H121.075Z" fill="#FFB46E"/>
<path d="M36.6578 145.569C35.5974 145.491 34.5238 145.387 33.4765 145.27L24.9404 129.963C29.5026 134.645 33.4406 139.89 36.6578 145.569ZM98.6619 5.60938C106.404 8.23681 113.252 12.9638 118.434 19.2565C123.616 25.5492 126.926 33.1571 127.988 41.2208C128.311 44.0555 128.372 46.9135 128.171 49.7593C128.963 49.709 129.756 49.8141 130.506 50.0687C131.257 50.3233 131.949 50.7224 132.544 51.2431C133.153 51.8103 133.651 52.4857 134.011 53.2345C134.263 49.5095 134.096 45.7681 133.513 42.0799C130.685 24.5605 116.048 9.56621 98.6619 5.60938ZM114.202 89.7311C111.584 95.0806 108.965 100.43 106.884 105.988C103.218 115.737 101.045 126.384 102.864 136.536C108.393 134.547 113.793 132.222 119.033 129.573C117.082 119.655 118.719 109.385 121.534 99.3889C120.995 99.2564 120.479 99.0459 120.002 98.7641C116.65 96.8377 115.092 93.4536 114.202 89.7311Z" fill="#7DB1DB"/>
<path d="M134.613 29.5592C130.607 20.0556 123.659 12.0681 114.778 6.75539C105.889 1.62713 95.3496 -0.143026 85.0985 0.000148707C65.4604 0.31253 44.356 4.90714 29.1692 17.9491C16.9097 28.5781 9.1501 43.4256 7.44941 59.5088C6.14021 72.785 8.58842 87.0765 12.0316 100.183C12.5422 102.188 13.0921 104.166 13.6551 106.106C16.7393 116.756 21.2017 126.964 26.9304 136.472C27.7159 137.773 31.2246 145.036 32.6386 145.179L33.5026 145.27L24.9404 129.964C29.5265 134.645 33.4867 139.895 36.7233 145.583C37.7445 145.661 38.7526 145.739 39.7738 145.791C36.5367 138.872 33.8702 131.702 31.8007 124.354C27.9778 122.532 19.6381 117.364 19.6381 117.364C19.6381 117.364 15.0821 104.231 13.8776 99.7019C11.2468 90.1015 10.1859 80.1431 10.7355 70.2078C11.8614 53.4694 18.9966 36.6789 32.128 26.1491C45.2593 15.6192 64.7403 12.4564 79.5606 20.5132C93.8964 28.3227 101.66 44.8529 102.943 61.0447C104.226 77.2364 100.207 93.4933 95.7817 109.125C92.5479 111.729 89.1047 114.839 85.884 117.508C85.4368 125.414 86.6864 133.325 89.5498 140.715C94.0622 139.535 98.5005 138.142 102.864 136.537C101.045 126.384 103.218 115.711 106.884 105.989C108.992 100.431 111.571 95.0812 114.202 89.7317C114.202 89.4844 114.084 89.2371 114.032 88.9768C111.783 78.2839 113.396 67.145 118.588 57.5174C119.875 54.8127 121.874 52.5052 124.375 50.8402C125.531 50.1728 126.835 49.8016 128.171 49.7599C128.372 46.9141 128.311 44.0561 127.988 41.2215C126.926 33.1577 123.616 25.5499 118.434 19.2571C113.252 12.9644 106.404 8.23743 98.6619 5.61C116.048 9.51476 130.685 24.5611 133.513 42.0545C134.096 45.7427 134.263 49.4841 134.011 53.2091C134.693 54.7016 135.135 56.2917 135.32 57.9209C136.414 65.6129 135.929 73.4457 133.893 80.946C132.571 85.8112 130.589 90.4747 128.001 94.8079C126.312 97.6193 124.401 100.014 121.56 99.3634C118.745 109.36 117.109 119.629 119.059 129.547C121.403 128.376 123.707 127.126 125.972 125.825C125.972 110.726 131.497 96.1355 135.516 81.3755C137.607 74.2431 138.954 66.9155 139.535 59.5088C140.263 49.2807 138.577 39.0251 134.613 29.5592Z" fill="url(#paint9_linear)"/>
<path style="mix-blend-mode:screen" d="M89.5107 1.58797C92.9337 6.00935 94.8136 11.4196 94.8653 16.9988C94.9102 22.5618 93.8606 28.08 91.7756 33.2426C87.0886 45.6598 78.5526 56.3328 68.3932 64.689C58.2337 73.0452 46.477 79.1497 34.3538 84.0046C30.8832 85.5645 27.1915 86.583 23.4088 87.0243C21.5122 87.2284 19.5936 87.0537 17.7658 86.5106C15.938 85.9674 14.2378 85.0668 12.7649 83.8614C5.23698 77.1843 7.38408 62.5804 9.25625 53.9639C11.5994 42.9355 16.7674 32.6955 24.2598 24.2356C40.1012 6.50798 66.3246 -0.559655 89.5107 1.58797Z" fill="url(#paint10_linear)"/>
<path style="mix-blend-mode:screen" d="M60.1318 19.745C61.4707 19.6763 62.809 19.8892 64.0594 20.3698C64.7029 20.6134 65.2673 21.027 65.6918 21.566C66.1163 22.1051 66.3848 22.749 66.4684 23.4285C66.4464 24.1233 66.2382 24.7996 65.8653 25.3877C65.4925 25.9757 64.9685 26.4542 64.3475 26.7736C63.1138 27.4066 61.7888 27.8457 60.4199 28.0752C54.4235 29.3998 48.6331 31.5186 43.2038 34.3749L23.2384 44.7876C22.6623 45.0739 21.9291 45.3733 21.4055 45.0089C20.8818 44.6444 21.0127 43.4079 21.4055 42.653C26.9997 32.8513 36.0702 25.4766 46.8434 21.9707C51.124 20.5246 55.6109 19.773 60.1318 19.745Z" fill="url(#paint11_linear)"/>
<path d="M174.727 129.079L173.418 128.39C164.503 123.529 157.445 115.886 153.334 106.64C153.518 106.132 153.675 105.638 153.832 105.117C150.521 97.3868 145.074 90.748 138.121 85.9708C136.223 84.6693 135.503 82.9512 136.38 80.8556C136.925 79.8351 137.743 78.984 138.743 78.3961C139.743 77.8081 140.887 77.5062 142.049 77.5235C144.364 77.5883 146.622 78.2571 148.595 79.4629C153.33 82.027 157.341 85.7328 160.26 90.2401C160.077 89.9797 163.756 84.2397 164.109 83.5369C167.053 77.6153 168.624 71.1126 168.705 64.5076C168.705 63.0759 168.22 61.0845 168.102 59.2232C167.985 57.3619 168.259 55.4616 169.935 54.5505C170.543 54.278 171.21 54.1637 171.874 54.2184C172.538 54.273 173.178 54.4948 173.732 54.8629C174.84 55.6174 175.758 56.6149 176.416 57.7784C179.089 61.9761 180.642 66.7818 180.929 71.7419C181.215 76.702 180.225 81.6529 178.052 86.127C179.848 86.8904 181.597 87.7597 183.289 88.7302C186.861 80.2676 188.356 71.0811 187.649 61.9305C187.505 59.9521 187.361 57.6352 188.893 56.3597C189.64 55.8505 190.538 55.608 191.442 55.6719C192.345 55.7357 193.2 56.102 193.868 56.7111C195.172 57.9612 196.102 59.5476 196.551 61.2927C198.343 66.8649 198.887 72.7591 198.145 78.5623C197.403 84.3655 195.394 89.9371 192.257 94.8867C193.292 95.7328 194.313 96.6309 195.282 97.4899C198.534 93.7124 201.003 89.3333 202.548 84.6042C203.215 82.5216 204.027 80.0486 206.135 79.3978C206.847 79.2386 207.589 79.2757 208.281 79.5051C208.973 79.7345 209.589 80.1474 210.062 80.6994C210.988 81.8505 211.577 83.2331 211.764 84.6953C212.851 90.9429 209.591 98.6353 207.025 104.219C204.054 110.658 200.185 116.648 195.53 122.012C192.598 125.422 189.495 128.754 186.235 131.891C182.232 131.849 178.293 130.887 174.727 129.079Z" fill="url(#paint12_linear)"/>
<path d="M186.261 131.994C179.364 138.82 171.478 144.58 162.865 149.084C153.361 153.912 136.537 161.188 126.456 154.628C124.328 153.229 122.744 151.149 121.966 148.732C123.856 150.449 126.183 151.62 128.695 152.116C132.469 152.731 136.332 152.526 140.02 151.518C153.862 148.28 166.136 140.345 174.727 129.078C178.292 130.925 182.241 131.923 186.261 131.994Z" fill="#7DB1DB"/>
<path d="M173.365 128.388L174.675 129.078C166.114 140.322 153.885 148.255 140.085 151.517C136.398 152.526 132.535 152.731 128.761 152.116C126.249 151.62 123.922 150.449 122.031 148.732C121.41 146.876 121.447 144.864 122.136 143.031C123.445 139.608 126.928 137.551 129.991 135.495C135.814 131.63 140.988 126.878 145.322 121.412C148.776 116.961 151.457 111.968 153.256 106.639C157.373 115.888 164.44 123.532 173.365 128.388Z" fill="url(#paint13_linear)"/>
<path style="mix-blend-mode:screen" d="M162.027 121.907C158.745 127.136 154.341 131.581 149.132 134.923C147.709 135.932 146.104 136.661 144.406 137.071C143.558 137.269 142.677 137.283 141.823 137.112C140.969 136.942 140.162 136.59 139.457 136.081C139.062 135.788 138.732 135.418 138.484 134.995C138.237 134.571 138.078 134.102 138.017 133.616C137.956 133.13 137.994 132.637 138.129 132.166C138.264 131.695 138.493 131.256 138.802 130.875C139.654 129.758 140.654 128.759 141.774 127.907C147.292 123.118 151.525 117.039 154.094 110.219C155.626 114.757 158.368 118.797 162.027 121.907Z" fill="url(#paint14_linear)"/>
<path d="M159.252 88.7818C159.592 89.2634 159.933 89.745 160.26 90.2396C160.077 89.9793 163.756 84.2393 164.109 83.5364C167.053 77.6148 168.623 71.1121 168.705 64.5072C168.705 63.0754 168.22 61.084 168.102 59.2227C168.039 58.4654 168.083 57.703 168.233 56.958C170.204 63.5641 170.726 70.5137 169.764 77.3375C168.802 84.1614 166.378 90.7005 162.656 96.5132C161.796 93.8249 160.655 91.2336 159.252 88.7818ZM188.932 129.339C183.393 127.704 178.002 125.61 172.815 123.079C168.705 121.061 164.607 118.679 161.831 115.048C159.056 111.416 157.773 106.535 155.914 102.188C152.758 94.8719 147.629 88.5655 141.093 83.9659C139.866 83.1947 138.721 82.3006 137.676 81.2977C137.344 80.9431 137.05 80.5548 136.799 80.1393C136.63 80.3759 136.485 80.6288 136.367 80.8942C135.425 82.9897 136.21 84.6818 138.108 86.0094C145.061 90.7866 150.508 97.4254 153.819 105.156C153.662 105.676 153.505 106.171 153.321 106.679C157.432 115.924 164.489 123.568 173.405 128.428L174.714 129.118C178.279 130.965 182.228 131.963 186.248 132.034C187.164 131.14 188.059 130.242 188.932 129.339ZM182.923 88.5085C183.499 89.1723 184.114 89.8101 184.638 90.5259C187.674 86.1545 189.387 81.0099 189.573 75.7008C189.758 70.4169 189.548 65.1266 188.945 59.8735C188.762 58.5622 188.883 57.2265 189.298 55.9688C189.147 56.052 189.002 56.1478 188.866 56.2551C187.335 57.5567 187.479 59.8475 187.623 61.8259C188.346 70.9917 186.861 80.1969 183.289 88.6777L182.923 88.5085ZM206.135 79.3974C204.027 80.0091 203.215 82.4821 202.548 84.6037C201.03 89.2319 198.625 93.5239 195.465 97.2421C196.377 98.422 196.952 99.8252 197.127 101.303C199.64 99.6462 201.492 97.1697 202.364 94.3005C203.346 91.5151 203.791 88.5736 204.603 85.7361C205.166 83.4428 206.191 81.2866 207.614 79.3974C207.127 79.2869 206.622 79.2869 206.135 79.3974Z" fill="url(#paint15_linear)"/>
<path d="M69.0215 115.151C68.8251 115.633 68.8513 115.906 68.6549 116.453C64.958 114.721 61.0875 113.381 57.1077 112.457C53.1419 111.61 49.0069 112.067 45.3248 113.759C45.022 113.372 44.8028 112.927 44.6811 112.452C44.5595 111.978 44.5379 111.483 44.6178 110.999C46.5146 109.907 48.613 109.206 50.7881 108.938C52.9631 108.67 55.1702 108.839 57.2779 109.437C61.5006 110.639 65.4763 112.573 69.0215 115.151Z" fill="#2ACAF7"/>
</g>
<defs>
<linearGradient id="paint0_linear" x1="38.9987" y1="163.951" x2="50.5184" y2="165.11" gradientUnits="userSpaceOnUse">
<stop stop-color="#C3E7FF"/>
<stop offset="1" stop-color="#A8DDFF"/>
</linearGradient>
<linearGradient id="paint1_linear" x1="21.7851" y1="202.371" x2="61.0847" y2="177.12" gradientUnits="userSpaceOnUse">
<stop stop-color="#347891"/>
<stop offset="1" stop-color="#2C3C52"/>
</linearGradient>
<linearGradient id="paint2_linear" x1="859.943" y1="6440.51" x2="1541.64" y2="7072.46" gradientUnits="userSpaceOnUse">
<stop stop-color="#C3E7FF"/>
<stop offset="1" stop-color="#A8DDFF"/>
</linearGradient>
<linearGradient id="paint3_linear" x1="61.3772" y1="201.071" x2="60.5565" y2="235.978" gradientUnits="userSpaceOnUse">
<stop stop-color="#BCBD99"/>
<stop offset="0.16" stop-color="#9C9D7F"/>
<stop offset="0.74" stop-color="#2C2D24"/>
<stop offset="1"/>
</linearGradient>
<linearGradient id="paint4_linear" x1="2281.59" y1="7418.52" x2="4965.34" y2="9355.21" gradientUnits="userSpaceOnUse">
<stop stop-color="#C3E7FF"/>
<stop offset="1" stop-color="#A8DDFF"/>
</linearGradient>
<linearGradient id="paint5_linear" x1="2963.32" y1="4188.96" x2="3653.85" y2="5224.94" gradientUnits="userSpaceOnUse">
<stop stop-color="#BCBD99"/>
<stop offset="0.16" stop-color="#9C9D7F"/>
<stop offset="0.74" stop-color="#2C2D24"/>
<stop offset="1"/>
</linearGradient>
<linearGradient id="paint6_linear" x1="3780.8" y1="7888.33" x2="5487.37" y2="9796.8" gradientUnits="userSpaceOnUse">
<stop stop-color="#C3E7FF"/>
<stop offset="1" stop-color="#A8DDFF"/>
</linearGradient>
<linearGradient id="paint7_linear" x1="4028.83" y1="5657.97" x2="4322.49" y2="6906.64" gradientUnits="userSpaceOnUse">
<stop stop-color="#BCBD99"/>
<stop offset="0.16" stop-color="#9C9D7F"/>
<stop offset="0.74" stop-color="#2C2D24"/>
<stop offset="1"/>
</linearGradient>
<radialGradient id="paint8_radial" cx="0" cy="0" r="1" gradientUnits="userSpaceOnUse" gradientTransform="translate(2843.43 4841.16) scale(5824.44 8181.35)">
<stop stop-color="#347891"/>
<stop offset="1" stop-color="#0E004F"/>
</radialGradient>
<linearGradient id="paint9_linear" x1="611.789" y1="3996.34" x2="17119.8" y2="12987.9" gradientUnits="userSpaceOnUse">
<stop stop-color="#C4E8FF"/>
<stop offset="1" stop-color="#29A7F8"/>
</linearGradient>
<linearGradient id="paint10_linear" x1="1860.35" y1="-153.391" x2="4720.16" y2="5541.23" gradientUnits="userSpaceOnUse">
<stop stop-color="#99BDBB"/>
<stop offset="0.16" stop-color="#7F989D"/>
<stop offset="0.74" stop-color="#242B2D"/>
<stop offset="1"/>
</linearGradient>
<linearGradient id="paint11_linear" x1="1176.7" y1="368.325" x2="1375.69" y2="908.863" gradientUnits="userSpaceOnUse">
<stop stop-color="#99B9BD"/>
<stop offset="0.16" stop-color="#7F9D9D"/>
<stop offset="0.74" stop-color="#242C2D"/>
<stop offset="1"/>
</linearGradient>
<linearGradient id="paint12_linear" x1="10599.3" y1="3112.7" x2="9505.42" y2="8962.34" gradientUnits="userSpaceOnUse">
<stop stop-color="#1D2243"/>
<stop offset="1" stop-color="#347891"/>
</linearGradient>
<linearGradient id="paint13_linear" x1="7568.3" y1="3524.26" x2="5926.51" y2="5206.27" gradientUnits="userSpaceOnUse">
<stop stop-color="#FFEDC4"/>
<stop offset="1" stop-color="#A8DDFF"/>
</linearGradient>
<linearGradient id="paint14_linear" x1="3310.65" y1="2051.99" x2="3050.97" y2="2826.24" gradientUnits="userSpaceOnUse">
<stop stop-color="#BCBD99"/>
<stop offset="0.16" stop-color="#9C9D7F"/>
<stop offset="0.74" stop-color="#2C2D24"/>
<stop offset="1"/>
</linearGradient>
<linearGradient id="paint15_linear" x1="9839.73" y1="3019.46" x2="8730.67" y2="8731.24" gradientUnits="userSpaceOnUse">
<stop stop-color="#347891"/>
<stop offset="1" stop-color="#2C3C52"/>
</linearGradient>
<clipPath id="clip0">
<rect width="212" height="240" fill="white"/>
</clipPath>
</defs>
</svg>
