<svg width="222" height="240" viewBox="0 0 222 240" fill="none" xmlns="http://www.w3.org/2000/svg">
<g clip-path="url(#clip0)">
<path d="M108.625 157.159C110.023 163.18 109.724 169.471 107.761 175.333C104.999 184.171 100 193.363 91.742 198.083C90.2752 198.923 88.543 199.618 86.9302 200.125C88.0007 199.054 88.8949 197.72 89.5572 196.359C90.3126 194.741 90.7917 193.088 90.9808 191.313C92.7525 190.511 94.5417 189.402 95.9299 188.041C98.3201 185.618 100.187 182.73 101.413 179.556C104.928 170.853 104.928 161.128 101.413 152.426C102.272 151.854 103.31 151.617 104.332 151.759C106.635 152.164 107.97 154.792 108.625 157.159Z" fill="#7DB1DB"/>
<path d="M101.469 152.383C104.983 161.085 104.936 170.906 101.422 179.609C100.195 182.783 98.3131 185.659 95.9229 188.082C94.5346 189.443 92.6236 190.652 90.8519 191.454C91.0617 189.541 90.9609 187.535 90.6209 185.641C89.7014 180.544 87.0769 175.885 83.2207 172.423C86.5099 171.411 89.7381 169.495 92.0821 166.977C93.89 164.994 95.4501 162.799 96.7281 160.44C97.8928 158.361 98.2462 155.89 99.6465 153.903C100.098 153.306 100.764 152.793 101.41 152.414L101.469 152.383Z" fill="url(#paint0_linear)"/>
<path style="mix-blend-mode:screen" d="M97.7752 160.232C95.1228 165.823 90.5411 170.27 84.8711 172.758C87.6992 175.055 89.7546 178.162 90.7604 181.662C96.2571 177.373 98.6128 167.973 97.7752 160.232Z" fill="url(#paint1_linear)"/>
<path d="M130.624 207.536C131.658 218.061 129.604 228.377 127.326 238.706C124.984 239.137 122.641 239.451 120.272 239.66C121.904 233.286 123.067 226.801 123.754 220.258C124.256 217.168 124.118 214.008 123.348 210.974C122.196 207.287 119.422 204.437 116.542 201.822C117.475 200.912 118.538 200.145 119.697 199.547C120.802 198.936 122.045 198.615 123.309 198.615C124.572 198.615 125.815 198.936 126.921 199.547C129.564 201.09 130.323 204.476 130.624 207.536Z" fill="#7DB1DB"/>
<path d="M123.348 210.974C124.118 214.008 124.256 217.168 123.754 220.257C123.067 226.801 121.904 233.286 120.272 239.66C118.335 239.843 116.346 239.948 114.475 239.974C116.467 229.204 115.411 218.092 111.425 207.889C112.263 206.686 113.166 205.522 114.043 204.411C114.811 203.471 115.632 202.576 116.503 201.73C119.435 204.398 122.196 207.287 123.348 210.974Z" fill="url(#paint2_linear)"/>
<path d="M111.425 207.889C115.404 218.08 116.46 229.177 114.475 239.935C109.043 240.049 103.615 239.611 98.2725 238.627C100.446 227.572 104.928 217.098 111.425 207.889Z" fill="#FFB46F"/>
<path style="mix-blend-mode:screen" d="M115.234 205.195C109.381 211.372 105.083 218.852 102.696 227.017C104.374 228.148 106.352 228.752 108.376 228.752C110.4 228.752 112.378 228.148 114.056 227.017C115.636 225.834 116.928 224.309 117.835 222.557C118.741 220.804 119.239 218.869 119.291 216.897C119.461 212.949 117.197 208.595 115.234 205.195Z" fill="url(#paint3_linear)"/>
<path d="M156.943 139.651C170.632 146.189 178.655 162.14 173.656 176.601C170.826 184.233 165.77 190.841 159.142 195.572C150.203 202.214 139 207.222 127.732 204.724C126.364 204.412 125.021 203.996 123.714 203.482C127.341 204.196 131.077 204.144 134.683 203.332C138.289 202.519 141.685 200.963 144.654 198.762C152.585 192.957 157.323 183.661 159.783 174.143C161.51 167.461 162.178 160.113 159.233 153.864C155.569 146.019 146.892 141.652 138.294 140.711C134.129 140.303 129.929 140.426 125.795 141.077C135.336 135.977 146.735 134.84 156.943 139.651Z" fill="#7DB1DB"/>
<path d="M159.194 153.813C162.139 160.062 161.471 167.41 159.744 174.091C157.283 183.61 152.546 192.906 144.615 198.711C141.646 200.911 138.25 202.468 134.644 203.28C131.038 204.093 127.302 204.145 123.675 203.431C119.726 201.836 116.156 199.43 113.196 196.369C110.236 193.308 107.952 189.661 106.492 185.663C104.961 181.134 104.372 176.342 104.759 171.578C105.146 166.814 106.501 162.18 108.743 157.957C112.577 150.743 118.509 144.859 125.756 141.078C129.89 140.427 134.09 140.304 138.254 140.712C146.853 141.601 155.53 146.033 159.194 153.813ZM134.328 165.763C135.281 163.858 135.759 161.752 135.72 159.623C135.681 157.494 135.128 155.406 134.106 153.538C133.447 152.376 132.498 151.403 131.351 150.716C130.204 150.029 128.899 149.65 127.562 149.616C128.067 146.642 129.025 143.762 130.402 141.078C127.966 143.579 126.108 146.582 124.958 149.877C120.312 150.936 116.215 154.976 114.148 158.716C113.673 159.544 113.287 160.421 112.996 161.33C112.566 162.74 112.434 164.224 112.61 165.687C112.786 167.151 113.265 168.561 114.017 169.829C114.6 170.755 115.377 171.545 116.294 172.143C117.211 172.741 118.247 173.134 119.33 173.294C119.736 173.359 120.155 173.385 120.639 173.412C119.142 182.886 121.365 192.572 126.842 200.45C122.665 192.04 121.43 182.474 123.335 173.281C125.602 172.906 127.759 172.038 129.654 170.739C131.549 169.44 133.136 167.741 134.302 165.763H134.328Z" fill="url(#paint4_linear)"/>
<path d="M134.786 159.531C135.081 166.639 128.269 172.488 121.05 171.737C118.799 169.867 118.204 166.298 119.068 163.304C119.306 162.506 119.635 161.738 120.05 161.016C122.196 157.094 126.593 153.014 131.318 152.857H131.828L132.418 153.054C134.504 155.58 134.869 157.82 134.786 159.531Z" fill="#C9FFEF"/>
<path d="M132.244 152.974L131.318 152.871C126.659 153.028 122.157 157.16 120.05 161.03C119.645 161.749 119.324 162.512 119.094 163.305C118.231 166.299 118.909 169.941 121.16 171.758C120.783 171.736 120.435 171.7 120.208 171.664C115.653 170.932 114.291 165.946 115.43 161.958C115.676 161.159 116.005 160.388 116.411 159.657C118.558 155.735 122.955 151.655 127.68 151.511C129.184 151.43 131.08 152.018 132.244 152.974Z" fill="#5689B3"/>
<path d="M132.483 162.441C131.702 163.94 130.362 165.072 128.753 165.592C127.953 165.833 127.106 165.88 126.284 165.727C125.462 165.575 124.689 165.228 124.028 164.716C123.384 164.179 122.909 163.468 122.661 162.667C122.412 161.867 122.401 161.012 122.628 160.205C121.934 161.748 120.992 163.67 121.319 165.33C121.437 166.171 121.761 166.97 122.264 167.655C122.766 168.339 123.431 168.888 124.199 169.253C125.168 169.575 126.208 169.623 127.203 169.392C128.198 169.162 129.111 168.661 129.839 167.945C131.318 166.612 131.737 164.337 132.483 162.441Z" fill="#A4EDE0"/>
<path d="M128.661 161.775C130.166 161.369 131.933 160.363 131.829 158.571C131.7 157.82 131.28 157.151 130.66 156.707C130.04 156.264 129.27 156.084 128.517 156.205C125.115 156.689 124.225 163.017 128.661 161.775Z" fill="#EBFFFC"/>
<path style="mix-blend-mode:screen" d="M147.297 151.485C147.853 152.816 148.095 154.256 148.007 155.696C147.918 157.135 147.501 158.535 146.787 159.788C145.326 162.317 143.351 164.513 140.989 166.234C135.6 170.493 129.423 173.648 122.811 175.517C122.916 174.811 123.047 174.105 123.191 173.398C125.494 173.03 127.686 172.154 129.608 170.833C131.53 169.512 133.134 167.78 134.302 165.763C135.255 163.858 135.732 161.752 135.694 159.623C135.655 157.494 135.101 155.406 134.079 153.538C133.42 152.376 132.471 151.403 131.324 150.716C130.178 150.029 128.872 149.65 127.536 149.616C127.929 147.375 128.561 145.184 129.42 143.078C134.012 143.148 138.513 144.371 142.507 146.634C144.548 147.744 146.215 149.432 147.297 151.485ZM113.977 177.229C116.064 177.011 118.135 176.666 120.181 176.196C120.259 175.307 120.351 174.418 120.495 173.582C120.063 173.582 119.644 173.582 119.186 173.464C118.11 173.293 117.082 172.893 116.175 172.291C115.267 171.689 114.499 170.898 113.925 169.973C113.173 168.705 112.694 167.294 112.518 165.831C112.342 164.368 112.474 162.884 112.904 161.474C113.195 160.565 113.581 159.688 114.056 158.859C116.123 155.12 120.22 151.014 124.866 150.021C125.72 147.574 126.966 145.282 128.556 143.235C125.64 143.219 122.746 143.747 120.023 144.791C115.339 148.313 111.488 152.822 108.742 157.996C106.102 163.112 104.716 168.781 104.698 174.536C104.965 174.921 105.277 175.272 105.627 175.582C107.748 177.504 111.046 177.543 113.977 177.229Z" fill="url(#paint5_linear)"/>
<path d="M156.859 226.666C158.284 231.033 160.171 235.284 162.453 239.271C160.15 239.115 157.767 238.89 155.464 238.616C155.531 234.613 155.974 230.625 156.786 226.705L156.859 226.666Z" fill="#FF8311"/>
<path d="M180.605 224.769C182.332 229.202 183.903 233.699 185.251 238.263C177.701 239.499 170.03 239.837 162.4 239.269C160.118 235.282 158.25 231.072 156.825 226.704L156.943 226.142C157.885 221.697 159.05 216.035 161.825 212.309C162.443 211.389 163.278 210.636 164.258 210.116C165.237 209.596 166.33 209.325 167.439 209.328C174.532 209.786 178.38 219.147 180.605 224.769Z" fill="#FFB46F"/>
<path d="M156.786 226.703C155.978 230.624 155.54 234.612 155.477 238.614L151.629 238.091C150.897 226.594 151.499 215.05 153.422 203.691C153.222 211.497 154.359 219.28 156.786 226.703Z" fill="#7DB1DB"/>
<path d="M188.457 237.647C187.371 237.869 186.285 238.078 185.198 238.261C183.89 233.698 182.28 229.201 180.552 224.768C178.367 219.146 174.519 209.785 167.387 209.327C166.277 209.324 165.185 209.595 164.205 210.115C163.226 210.635 162.39 211.388 161.772 212.308C158.998 216.034 157.886 222.18 156.843 226.829L156.773 226.703C154.341 219.281 153.199 211.499 153.396 203.692C154.142 199.273 155.084 194.879 156.223 190.617C156.426 189.513 156.915 188.481 157.64 187.623C158.366 186.765 159.303 186.112 160.359 185.727C161.483 185.448 162.653 185.407 163.793 185.608C164.934 185.808 166.02 186.245 166.981 186.891C168.903 188.181 170.589 189.791 171.967 191.65C182.228 204.293 187.711 221.356 188.457 237.647Z" fill="url(#paint6_linear)"/>
<path style="mix-blend-mode:screen" d="M158.919 212.872C159.874 217.003 161.615 221.409 165.279 223.201C168.944 224.992 173.629 223.305 176.142 219.958C180.657 213.944 178.89 205.667 175.736 199.457C173.367 194.789 166.366 183.924 160.175 187.611C158.108 188.84 157.558 191.677 157.388 194.149C156.976 200.431 157.492 206.739 158.919 212.872Z" fill="url(#paint7_linear)"/>
<path d="M183.406 65.753C181.469 81.9788 174.245 97.2109 166.85 111.763C163.146 113.75 159.168 116.078 155.477 118.065C153.473 125.781 153.134 133.834 154.483 141.691C137.702 142.77 120.858 141.146 104.594 136.88C102.789 129.419 101.594 121.823 101.021 114.169C97.6576 111.645 90.4334 104.886 90.4334 104.886C90.4334 104.886 88.6274 91.0658 88.3525 86.3588C87.6652 76.3737 88.5932 66.3431 91.1009 56.653C95.5244 40.3619 105.837 25.2736 120.822 17.4288C135.807 9.58394 155.543 10.3423 168.473 21.1943C181.011 31.6803 185.343 49.5273 183.406 65.753Z" fill="url(#paint8_radial)"/>
<path d="M214.736 66.6822C211.504 77.1419 205.575 86.8826 200.066 96.401C198.482 99.016 196.925 101.827 195.42 104.625C194.726 104.415 194.102 104.022 193.614 103.488C191.205 100.99 190.787 97.4732 190.996 93.8253C190.996 93.6815 190.996 93.5508 190.996 93.3939C193.614 89.9421 196.309 86.4642 198.848 82.9341C203.294 76.7086 206.845 69.8914 209.397 62.6813C210.309 62.6151 211.223 62.7964 212.04 63.2061C212.858 63.6158 213.55 64.2385 214.043 65.0086C214.362 65.5259 214.596 66.0909 214.736 66.6822Z" fill="#FF8311"/>
<path d="M215.757 69.0618C215.907 67.4205 215.796 65.7658 215.43 64.1588C215.23 63.3526 214.875 62.5931 214.383 61.923C213.413 60.6482 211.979 59.8071 210.392 59.5827C209.076 59.365 207.727 59.4773 206.465 59.9095C203.674 61.0618 201.249 62.951 199.451 65.3748C192.461 73.8334 188.671 84.4783 188.745 95.4467C188.745 95.7082 188.745 95.9697 188.745 96.2181C188.889 100.062 189.74 103.71 192.671 106.273C193.086 106.638 193.548 106.946 194.046 107.188C196.663 108.43 199.058 106.403 201.283 103.958C204.671 100.22 207.533 96.0363 209.79 91.5243C213.29 84.5211 215.321 76.8773 215.757 69.0618ZM200.864 101.657C199.123 103.514 197.291 105.057 195.42 104.573C194.726 104.363 194.102 103.97 193.614 103.435C191.206 100.938 190.787 97.421 190.996 93.7731C190.996 93.6293 190.996 93.4985 190.996 93.3416C191.602 83.8459 195.276 74.803 201.466 67.5713C203.058 65.5252 205.168 63.9409 207.578 62.9821C208.158 62.7966 208.762 62.6953 209.371 62.6814C210.283 62.6152 211.197 62.7965 212.014 63.2062C212.832 63.6158 213.524 64.2386 214.017 65.0087C214.317 65.5123 214.538 66.0591 214.671 66.6299C214.977 68.1858 215.008 69.7833 214.763 71.3499C213.466 82.6699 208.599 93.2842 200.864 101.657Z" fill="#7DB1DB"/>
<path d="M214.828 71.3502C213.514 82.6779 208.623 93.2931 200.864 101.657C199.123 103.514 197.291 105.057 195.42 104.573C196.925 101.775 198.482 99.0294 200.066 96.3491C205.615 86.8307 211.504 77.0377 214.737 66.6302C215.043 68.1861 215.074 69.7836 214.828 71.3502ZM201.545 67.5716C195.355 74.8032 191.681 83.8461 191.075 93.3419C193.692 89.8902 196.388 86.4123 198.927 82.8821C203.341 76.6683 206.865 69.8692 209.397 62.6816C208.788 62.6956 208.184 62.7969 207.604 62.9824C205.213 63.9492 203.122 65.5329 201.545 67.5716Z" fill="#FFB46E"/>
<path d="M101.649 136.07C100.615 135.783 99.5941 135.469 98.5733 135.142C96.8283 129.563 95.0397 123.972 93.2075 118.367C96.7654 123.884 99.6022 129.834 101.649 136.07ZM190.171 10.252C197.251 14.3621 203.038 20.3698 206.877 27.5952C210.717 34.8206 212.455 42.9753 211.896 51.1367C211.652 53.9919 211.148 56.819 210.391 59.583C211.978 59.8074 213.413 60.6485 214.383 61.9233C214.874 62.5934 215.23 63.3529 215.43 64.1591C216.413 60.5382 216.992 56.8198 217.157 53.0717C217.851 35.3032 206.452 17.5738 190.171 10.252ZM188.758 96.2576C185.133 101.017 181.534 105.789 178.367 110.862C172.844 119.74 168.603 129.82 168.368 140.189C174.191 139.306 179.955 138.075 185.63 136.502C185.63 126.33 189.308 116.523 194.045 107.227C193.548 106.986 193.086 106.678 192.671 106.312C189.766 103.749 188.902 100.102 188.758 96.2576Z" fill="#7DB1DB"/>
<path d="M220.733 41.2352C218.671 31.0858 213.438 21.8521 205.787 14.8634C198.066 8.06455 188.08 4.23365 178.003 2.36396C158.634 -1.19237 137.04 -0.813203 119.568 9.05823C105.425 17.1262 94.8632 30.2428 90.0041 45.7721C86.0779 58.5984 85.6722 73.2291 86.4443 86.7745C86.5621 88.8534 86.7061 90.9192 86.8762 92.9327C87.7959 104.042 90.1538 114.985 93.891 125.489C94.4014 126.927 96.4038 134.785 97.8172 135.203C98.092 135.295 98.3668 135.386 98.6417 135.452C96.8967 129.873 95.1081 124.282 93.2759 118.677C96.8338 124.194 99.6705 130.144 101.717 136.38C102.699 136.668 103.68 136.942 104.662 137.191C102.857 129.73 101.662 122.134 101.089 114.48C97.7256 111.956 90.5014 105.197 90.5014 105.197C90.5014 105.197 88.6953 91.3768 88.4205 86.6699C87.7331 76.6848 88.6611 66.6542 91.1688 56.9641C95.5923 40.673 105.905 25.5847 120.89 17.7399C135.875 9.89501 155.611 10.6533 168.541 21.5054C181.079 31.9652 185.411 49.8514 183.474 66.0772C181.537 82.3029 174.312 97.535 166.918 112.087C163.214 114.075 159.236 116.402 155.545 118.389C153.541 126.105 153.202 134.159 154.551 142.015C159.21 141.728 163.838 141.226 168.436 140.512C168.672 130.143 172.912 120.063 178.435 111.185C181.602 106.112 185.201 101.34 188.826 96.5806C188.826 96.3321 188.826 96.0706 188.826 95.8092C188.753 84.8408 192.542 74.1959 199.532 65.7372C201.329 63.3202 203.749 61.4358 206.533 60.2851C207.795 59.8529 209.144 59.7405 210.46 59.9582C211.217 57.1942 211.72 54.3671 211.965 51.5119C212.524 43.3506 210.785 35.1959 206.946 27.9705C203.106 20.745 197.319 14.7374 190.24 10.6272C206.52 17.9491 217.919 35.613 217.226 53.447C217.061 57.1951 216.481 60.9135 215.498 64.5344C215.864 66.1414 215.975 67.796 215.825 69.4374C215.363 77.2343 213.315 84.8552 209.805 91.8344C207.555 96.374 204.693 100.584 201.299 104.347C199.074 106.792 196.718 108.819 194.061 107.576C189.324 116.873 185.685 126.679 185.646 136.851C188.172 136.145 190.685 135.373 193.145 134.537C196.168 119.644 204.466 106.334 211.323 92.5797C214.788 85.9569 217.56 78.9948 219.595 71.8039C222.356 61.8426 222.746 51.374 220.733 41.2352Z" fill="url(#paint9_linear)"/>
<path style="mix-blend-mode:screen" d="M181.992 4.48486C184.475 9.519 185.247 15.2247 184.191 20.7368C183.144 26.2287 181.037 31.4644 177.987 36.1519C170.92 47.4615 160.437 56.3131 148.816 62.5498C137.194 68.7864 124.447 72.4997 111.569 74.9054C107.851 75.7512 104.025 76.0289 100.223 75.7291C98.3195 75.5579 96.4702 75.0068 94.7841 74.1084C93.0981 73.2101 91.6097 71.9828 90.4072 70.4992C84.4263 62.4583 89.3733 48.4683 92.9068 40.3227C97.39 29.9274 104.469 20.856 113.467 13.9771C132.535 -0.378948 159.665 -2.18326 181.992 4.48486Z" fill="url(#paint10_linear)"/>
<path d="M157.846 89.0527C157.637 89.8503 157.427 90.6348 157.244 91.4323C151.599 90.8919 145.928 90.5258 140.231 90.334C136.978 78.382 137.228 65.7483 140.95 53.934C141.785 50.9572 143.156 48.1571 144.994 45.6707C145.923 44.434 147.086 43.3921 148.418 42.6047C149.749 41.8172 151.223 41.2997 152.755 41.0815C154.687 40.9877 156.61 41.3976 158.336 42.271C160.061 43.1444 161.53 44.4511 162.597 46.063C164.701 49.3202 165.709 53.1632 165.476 57.0327C165.277 60.52 164.716 63.9773 163.801 67.3486C162.649 72.7354 158.919 81.9139 157.846 89.0527ZM113.48 61.3473C113.69 59.5692 113.886 57.8041 114.082 56.039C114.383 54.3526 114.383 52.6262 114.082 50.9398C113.913 50.1021 113.523 49.3247 112.952 48.688C112.382 48.0513 111.651 47.5784 110.836 47.3181C110.216 47.1974 109.577 47.206 108.96 47.3432C108.343 47.4804 107.761 47.7434 107.251 48.1157C106.208 48.8575 105.319 49.7944 104.633 50.8745C102.411 54.2619 100.783 58.0024 99.817 61.9357C97.2732 71.8812 97.7932 82.3622 101.309 92.0076C104.921 91.5892 108.546 91.2362 112.158 90.9747C112.158 90.4648 112.158 89.968 112.067 89.4711C112.054 81.2079 112.551 70.3689 113.48 61.3473Z" fill="#2ACAF7"/>
<path d="M149.392 63.0086C148.64 64.1601 148.021 65.3926 147.546 66.6826C146.726 69.0315 146.087 71.44 145.636 73.8868C144.762 78.1515 144.428 82.509 144.641 86.8569C144.634 88.0696 144.726 89.2808 144.916 90.4786C149.025 90.6878 153.135 90.9885 157.244 91.3808C157.427 90.5832 157.637 89.7987 157.846 89.0012C158.919 81.8624 162.649 72.6839 163.853 67.2971C163.853 67.0487 163.971 66.8002 164.023 66.5649C163.483 64.6653 162.511 62.9159 161.183 61.4527C157.44 57.5303 152.245 58.6939 149.392 63.0086Z" fill="#78E1FF"/>
<path d="M111.386 60.7464C110.802 60.642 110.201 60.6816 109.635 60.8615C109.07 61.0415 108.556 61.3565 108.14 61.7793C107.317 62.6329 106.672 63.6419 106.243 64.7472C104.886 67.7839 103.948 70.9903 103.455 74.2787C102.657 79.5086 102.552 86.5428 104.764 91.6028C107.211 91.3413 109.658 91.1059 112.106 90.936C112.106 90.426 112.106 89.9292 112.014 89.4324C112.014 81.496 112.446 71.1277 113.323 62.3023C112.891 61.5632 112.201 61.0092 111.386 60.7464Z" fill="#78E1FF"/>
<path d="M132.313 94.8457C128.386 96.8091 123.95 97.5211 119.605 96.8854C119.977 101.863 121.602 106.667 124.329 110.849C124.644 111.307 125.049 111.804 125.638 111.83C125.874 111.807 126.104 111.738 126.313 111.626C126.522 111.513 126.706 111.361 126.855 111.176C130.782 107.358 132.535 100.35 132.313 94.8457Z" fill="#2ACAF7"/>
<path style="mix-blend-mode:screen" d="M109.933 30.9873C109.074 31.8291 108.565 32.9637 108.507 34.1645C108.638 35.8903 110.588 36.9886 112.315 36.8709C114.03 36.5917 115.651 35.9008 117.04 34.8574C126.497 29.0056 136.954 24.9497 147.887 22.894C149.274 22.7435 150.613 22.2977 151.813 21.5866C152.398 21.2191 152.844 20.6677 153.081 20.0191C153.318 19.3705 153.332 18.6617 153.121 18.0041C152.559 16.6966 150.897 16.1998 149.457 15.9906C142.132 14.8283 134.63 15.6009 127.697 18.2318C120.763 20.8626 114.639 25.2601 109.933 30.9873Z" fill="url(#paint11_linear)"/>
<path d="M185.748 193.364C187.371 194.365 189.053 195.264 190.787 196.058C189.457 197.452 188.041 198.762 186.547 199.98C183.155 202.958 178.999 204.932 174.545 205.681C169.167 206.308 165.175 202.699 162.675 198.319C162.065 197.39 161.66 196.342 161.486 195.244C161.313 194.146 161.374 193.024 161.668 191.952C162.866 188.767 164.939 185.985 167.648 183.924C167.989 183.637 170.083 182.081 172.15 180.682C175.767 185.794 180.395 190.11 185.748 193.364Z" fill="url(#paint12_linear)"/>
<path d="M201.034 178.681C201.23 179.047 200.249 181.048 200.092 181.453C197.999 186.914 194.836 191.901 190.787 196.123C189.053 195.329 187.371 194.43 185.748 193.43C190.506 189.362 194.4 184.383 197.199 178.786C195.564 172.946 193.236 167.324 190.263 162.037C194.239 167.326 197.838 172.888 201.034 178.681Z" fill="#7DB1DB"/>
<path d="M190.263 161.971C193.236 167.257 195.565 172.88 197.2 178.72C194.4 184.316 190.507 189.296 185.748 193.363C180.394 190.106 175.766 185.785 172.151 180.668C174.245 179.23 176.312 177.948 176.496 178.249C171.924 170.883 169.203 162.521 168.565 153.878C168.408 151.707 170.593 149.955 172.949 149.746C175.305 149.759 177.596 150.519 179.493 151.917C183.627 154.634 187.269 158.034 190.263 161.971Z" fill="url(#paint13_linear)"/>
<path style="mix-blend-mode:screen" d="M185.84 180.511C181.48 171.703 176.09 163.443 169.782 155.904C170.556 164.018 173.296 171.822 177.765 178.641C176.193 179.055 174.738 179.825 173.512 180.89C174.935 183.211 176.863 185.182 179.152 186.656C181.208 184.427 183.445 182.372 185.84 180.511Z" fill="url(#paint14_linear)"/>
<path d="M66.2872 77.7049C66.853 80.8036 68.0812 83.744 69.8881 86.3253C71.6949 88.9066 74.0378 91.0681 76.757 92.6624C72.6074 93.619 68.2874 93.5548 64.1682 92.4753C60.0489 91.3958 56.2536 89.3333 53.1083 86.465C8.87316 101.449 -18.2437 48.509 14.396 25.9028C58.5788 -4.67903 95.2363 45.8941 66.2872 77.7049Z" fill="#FF8311"/>
<path d="M91.0484 191.311C90.8594 193.086 90.3773 194.818 89.6219 196.436C88.9596 197.797 88.075 199.039 87.0045 200.11C80.9974 201.993 74.4276 201.234 69.991 196.017C68.2453 193.882 67.1577 191.286 66.8603 188.545C66.563 185.804 67.0686 183.036 68.3158 180.576C69.472 178.53 71.1043 176.791 73.0746 175.508C75.045 174.224 77.2956 173.434 79.6363 173.202C80.9095 173.028 82.1659 172.748 83.3924 172.365C87.2486 175.827 89.8411 180.473 90.7605 185.571C91.1311 187.46 91.228 189.393 91.0484 191.311Z" fill="url(#paint15_linear)"/>
<path d="M134.079 153.537C135.101 155.406 135.655 157.493 135.694 159.622C135.733 161.751 135.255 163.858 134.302 165.762C133.134 167.779 131.53 169.511 129.608 170.832C127.686 172.153 125.675 173.003 123.372 173.371C121.467 182.565 123.258 191.501 126.864 200.477C121.387 192.599 118.998 183.003 120.495 173.528C120.063 173.528 119.644 173.528 119.186 173.411C118.114 173.246 117.09 172.854 116.182 172.261C115.275 171.668 114.505 170.887 113.925 169.972C113.173 168.704 112.694 167.294 112.518 165.83C112.342 164.367 112.474 162.883 112.904 161.473C113.195 160.564 113.581 159.687 114.056 158.859C116.124 155.119 120.22 151.014 124.866 150.02C126.016 146.725 127.875 143.722 130.31 141.221C128.933 143.905 128.098 146.575 127.593 149.549C128.927 149.557 130.207 150.006 131.365 150.668C132.523 151.33 133.397 152.392 134.079 153.537ZM133.621 155.067C133.292 154.371 132.85 153.735 132.313 153.184C132.208 153.066 132.09 152.975 131.985 152.87C130.807 151.927 129.317 151.46 127.811 151.563C123.151 151.707 118.649 155.851 116.542 159.708C116.136 160.439 115.807 161.21 115.561 162.01C114.422 165.932 115.849 170.9 120.403 171.633C122.289 171.896 124.211 171.699 126.004 171.057C126.66 170.833 127.299 170.562 127.915 170.247C128.449 169.987 128.961 169.685 129.446 169.344C131.148 168.238 132.551 166.729 133.53 164.951C135.019 162.124 135.034 157.89 133.621 155.067Z" fill="#7DB1DB"/>
<path d="M18.86 36.46L19.04 41.89H22.4L22.58 36.46H18.86ZM19.04 59.14L18.86 64.36H22.58L22.4 59.14H19.04ZM24.47 46.33L28.31 44.14C27.87 43.38 27.33 42.67 26.69 42.01C26.07 41.33 25.26 40.78 24.26 40.36C23.28 39.92 22.07 39.7 20.63 39.7C19.19 39.7 17.91 39.97 16.79 40.51C15.67 41.03 14.79 41.72 14.15 42.58C13.51 43.42 13.19 44.35 13.19 45.37C13.19 46.39 13.39 47.27 13.79 48.01C14.19 48.75 14.68 49.38 15.26 49.9C15.84 50.4 16.46 50.82 17.12 51.16C17.78 51.48 18.37 51.74 18.89 51.94C19.71 52.28 20.45 52.59 21.11 52.87C21.77 53.15 22.29 53.47 22.67 53.83C23.05 54.19 23.24 54.64 23.24 55.18C23.24 55.62 23.15 56 22.97 56.32C22.79 56.62 22.51 56.85 22.13 57.01C21.75 57.15 21.26 57.22 20.66 57.22C19.92 57.22 19.26 57.09 18.68 56.83C18.1 56.55 17.56 56.13 17.06 55.57C16.58 55.01 16.09 54.31 15.59 53.47L11.99 56.02C12.43 56.96 13.08 57.83 13.94 58.63C14.8 59.43 15.79 60.08 16.91 60.58C18.05 61.06 19.26 61.3 20.54 61.3C22.2 61.3 23.62 61.06 24.8 60.58C26 60.1 26.93 59.4 27.59 58.48C28.25 57.56 28.58 56.44 28.58 55.12C28.58 54.22 28.43 53.42 28.13 52.72C27.85 52.02 27.46 51.41 26.96 50.89C26.48 50.35 25.92 49.9 25.28 49.54C24.66 49.16 23.99 48.84 23.27 48.58C22.63 48.34 22.02 48.12 21.44 47.92C20.86 47.72 20.34 47.51 19.88 47.29C19.44 47.05 19.09 46.78 18.83 46.48C18.57 46.16 18.44 45.78 18.44 45.34C18.44 44.98 18.52 44.66 18.68 44.38C18.84 44.1 19.09 43.87 19.43 43.69C19.79 43.51 20.24 43.42 20.78 43.42C21.3 43.42 21.78 43.55 22.22 43.81C22.68 44.05 23.09 44.39 23.45 44.83C23.83 45.25 24.17 45.75 24.47 46.33ZM31.6728 46.06L36.8628 44.8V61H41.7828V39.61L31.6728 41.62V46.06ZM51.0158 50.5C51.0158 49.5 51.1058 48.6 51.2858 47.8C51.4658 47 51.7258 46.32 52.0658 45.76C52.4058 45.18 52.8058 44.74 53.2658 44.44C53.7458 44.12 54.2758 43.96 54.8558 43.96C55.3158 43.96 55.7458 44.06 56.1458 44.26C56.5458 44.46 56.8958 44.75 57.1958 45.13C57.5158 45.51 57.7858 45.96 58.0058 46.48C58.2258 47 58.3858 47.6 58.4858 48.28C58.6058 48.96 58.6658 49.7 58.6658 50.5C58.6658 51.48 58.5758 52.38 58.3958 53.2C58.2358 54 57.9858 54.69 57.6458 55.27C57.3058 55.83 56.8958 56.27 56.4158 56.59C55.9558 56.89 55.4358 57.04 54.8558 57.04C54.3758 57.04 53.9358 56.94 53.5358 56.74C53.1558 56.54 52.8058 56.25 52.4858 55.87C52.1858 55.49 51.9258 55.04 51.7058 54.52C51.4858 54 51.3158 53.4 51.1958 52.72C51.0758 52.04 51.0158 51.3 51.0158 50.5ZM46.1258 50.5C46.1258 51.84 46.2558 53.09 46.5158 54.25C46.7958 55.39 47.1958 56.4 47.7158 57.28C48.2358 58.16 48.8558 58.91 49.5758 59.53C50.2958 60.13 51.0958 60.59 51.9758 60.91C52.8558 61.23 53.8158 61.39 54.8558 61.39C56.1958 61.39 57.4058 61.15 58.4858 60.67C59.5658 60.19 60.4858 59.48 61.2458 58.54C62.0058 57.58 62.5858 56.43 62.9858 55.09C63.3858 53.75 63.5858 52.23 63.5858 50.53C63.5858 49.15 63.4558 47.89 63.1958 46.75C62.9358 45.61 62.5558 44.6 62.0558 43.72C61.5558 42.84 60.9558 42.1 60.2558 41.5C59.5558 40.9 58.7458 40.44 57.8258 40.12C56.9258 39.78 55.9458 39.61 54.8858 39.61C53.5658 39.61 52.3658 39.85 51.2858 40.33C50.2258 40.81 49.3058 41.53 48.5258 42.49C47.7658 43.43 47.1758 44.57 46.7558 45.91C46.3358 47.23 46.1258 48.76 46.1258 50.5Z" fill="white"/>
</g>
<defs>
<linearGradient id="paint0_linear" x1="83.4836" y1="171.867" x2="103.939" y2="171.867" gradientUnits="userSpaceOnUse">
<stop stop-color="#FFEDC4"/>
<stop offset="1" stop-color="#A8DDFF"/>
</linearGradient>
<linearGradient id="paint1_linear" x1="73.917" y1="173.922" x2="106.739" y2="169.114" gradientUnits="userSpaceOnUse">
<stop stop-color="#BCBD99"/>
<stop offset="0.16" stop-color="#9C9D7F"/>
<stop offset="0.74" stop-color="#2C2D24"/>
<stop offset="1"/>
</linearGradient>
<linearGradient id="paint2_linear" x1="738.605" y1="6160.85" x2="1368.48" y2="6642.11" gradientUnits="userSpaceOnUse">
<stop stop-color="#C3E7FF"/>
<stop offset="1" stop-color="#A8DDFF"/>
</linearGradient>
<linearGradient id="paint3_linear" x1="1516.51" y1="3859.82" x2="1496.46" y2="4462.54" gradientUnits="userSpaceOnUse">
<stop stop-color="#BCBD99"/>
<stop offset="0.16" stop-color="#9C9D7F"/>
<stop offset="0.74" stop-color="#2C2D24"/>
<stop offset="1"/>
</linearGradient>
<linearGradient id="paint4_linear" x1="2419.81" y1="7270.81" x2="5093.04" y2="9316.77" gradientUnits="userSpaceOnUse">
<stop stop-color="#C3E7FF"/>
<stop offset="1" stop-color="#A8DDFF"/>
</linearGradient>
<linearGradient id="paint5_linear" x1="3973.31" y1="4046.9" x2="4492.18" y2="5065.12" gradientUnits="userSpaceOnUse">
<stop stop-color="#BCBD99"/>
<stop offset="0.16" stop-color="#9C9D7F"/>
<stop offset="0.74" stop-color="#2C2D24"/>
<stop offset="1"/>
</linearGradient>
<linearGradient id="paint6_linear" x1="3095.75" y1="7602.51" x2="4744.77" y2="9139.89" gradientUnits="userSpaceOnUse">
<stop stop-color="#C3E7FF"/>
<stop offset="1" stop-color="#A8DDFF"/>
</linearGradient>
<linearGradient id="paint7_linear" x1="2884.04" y1="5491.73" x2="3172.74" y2="6578" gradientUnits="userSpaceOnUse">
<stop stop-color="#BCBD99"/>
<stop offset="0.16" stop-color="#9C9D7F"/>
<stop offset="0.74" stop-color="#2C2D24"/>
<stop offset="1"/>
</linearGradient>
<radialGradient id="paint8_radial" cx="0" cy="0" r="1" gradientUnits="userSpaceOnUse" gradientTransform="translate(3016.05 4828.42) scale(6020.46 8165.51)">
<stop stop-color="#347891"/>
<stop offset="1" stop-color="#0E004F"/>
</radialGradient>
<linearGradient id="paint9_linear" x1="705.725" y1="3884.39" x2="17200" y2="13356" gradientUnits="userSpaceOnUse">
<stop stop-color="#C4E8FF"/>
<stop offset="1" stop-color="#29A7F8"/>
</linearGradient>
<linearGradient id="paint10_linear" x1="2144.86" y1="-134.374" x2="4276.05" y2="5256.08" gradientUnits="userSpaceOnUse">
<stop stop-color="#99BDBB"/>
<stop offset="0.16" stop-color="#7F989D"/>
<stop offset="0.74" stop-color="#242B2D"/>
<stop offset="1"/>
</linearGradient>
<linearGradient id="paint11_linear" x1="1247.72" y1="308.846" x2="1395.48" y2="778.985" gradientUnits="userSpaceOnUse">
<stop stop-color="#99B9BD"/>
<stop offset="0.16" stop-color="#7F9D9D"/>
<stop offset="0.74" stop-color="#242C2D"/>
<stop offset="1"/>
</linearGradient>
<linearGradient id="paint12_linear" x1="3786" y1="3885.29" x2="4446.84" y2="3885.29" gradientUnits="userSpaceOnUse">
<stop stop-color="#347891"/>
<stop offset="1" stop-color="#2C3C52"/>
</linearGradient>
<linearGradient id="paint13_linear" x1="4186.68" y1="3402.78" x2="2828.93" y2="4191.32" gradientUnits="userSpaceOnUse">
<stop stop-color="#FFEDC4"/>
<stop offset="1" stop-color="#A8DDFF"/>
</linearGradient>
<linearGradient id="paint14_linear" x1="2038.31" y1="4089.37" x2="2498.17" y2="4133.07" gradientUnits="userSpaceOnUse">
<stop stop-color="#BCBD99"/>
<stop offset="0.16" stop-color="#9C9D7F"/>
<stop offset="0.74" stop-color="#2C2D24"/>
<stop offset="1"/>
</linearGradient>
<linearGradient id="paint15_linear" x1="66.8631" y1="186.708" x2="91.1662" y2="186.708" gradientUnits="userSpaceOnUse">
<stop stop-color="#347891"/>
<stop offset="1" stop-color="#2C3C52"/>
</linearGradient>
<clipPath id="clip0">
<rect width="222" height="240" fill="white"/>
</clipPath>
</defs>
</svg>
