<svg width="131" height="124" viewBox="0 0 131 124" fill="none" xmlns="http://www.w3.org/2000/svg">
<path d="M130.662 67.1616V80.9556C130.662 83.7058 129.934 86.4071 128.553 88.7856C127.171 91.1641 125.185 93.1354 122.795 94.4994L76.9526 120.658C73.4139 122.681 69.4079 123.745 65.3311 123.745C61.2542 123.745 57.2482 122.681 53.7095 120.658L7.88479 94.4994C5.49061 93.139 3.49975 91.1691 2.11477 88.7901C0.729788 86.4111 0.000122917 83.7079 0 80.9556V66.2324L47.0405 98.073C52.4245 101.765 58.8012 103.742 65.3311 103.742C71.8609 103.742 78.2375 101.765 83.6216 98.073L130.662 67.1616Z" fill="url(#paint0_linear)"/>
<path d="M5.85954 55.9779L53.6152 28.3898C57.1758 26.3355 61.2148 25.2539 65.3262 25.2539C69.4376 25.2539 73.4765 26.3355 77.0371 28.3898L124.864 55.9779C126.647 57.002 128.128 58.4778 129.158 60.2565C130.188 62.0353 130.73 64.0539 130.73 66.109C130.73 68.164 130.188 70.1826 129.158 71.9614C128.128 73.7401 126.647 75.2159 124.864 76.24L77.0371 103.792C73.4765 105.847 69.4376 106.928 65.3262 106.928C61.2148 106.928 57.1758 105.847 53.6152 103.792L5.85954 76.24C4.08132 75.2123 2.60488 73.7351 1.57845 71.9569C0.552016 70.1786 0.0117188 68.1618 0.0117188 66.109C0.0117188 64.0561 0.552016 62.0393 1.57845 60.261C2.60488 58.4828 4.08132 57.0056 5.85954 55.9779Z" fill="url(#paint1_linear)"/>
<path d="M5.85954 55.9779L53.6152 28.3898C57.1758 26.3355 61.2148 25.2539 65.3262 25.2539C69.4376 25.2539 73.4765 26.3355 77.0371 28.3898L124.864 55.9779C126.647 57.002 128.128 58.4778 129.158 60.2565C130.188 62.0353 130.73 64.0539 130.73 66.109C130.73 68.164 130.188 70.1826 129.158 71.9614C128.128 73.7401 126.647 75.2159 124.864 76.24L77.0371 103.792C73.4765 105.847 69.4376 106.928 65.3262 106.928C61.2148 106.928 57.1758 105.847 53.6152 103.792L5.85954 76.24C4.08132 75.2123 2.60488 73.7351 1.57845 71.9569C0.552016 70.1786 0.0117188 68.1618 0.0117188 66.109C0.0117188 64.0561 0.552016 62.0393 1.57845 60.261C2.60488 58.4828 4.08132 57.0056 5.85954 55.9779Z" fill="url(#paint2_linear)"/>
<path d="M65.3265 101.969C62.0875 101.974 58.9049 101.124 56.1007 99.5036L8.34502 71.9513C7.31606 71.3613 6.46113 70.5104 5.86659 69.4845C5.27206 68.4586 4.95898 67.2941 4.95898 66.1085C4.95898 64.923 5.27206 63.7584 5.86659 62.7325C6.46113 61.7066 7.31606 60.8557 8.34502 60.2657L56.1007 32.7135C58.9155 31.1242 62.0935 30.2891 65.3265 30.2891C68.5594 30.2891 71.7374 31.1242 74.5521 32.7135L122.326 60.2657C123.35 60.8594 124.2 61.7116 124.792 62.737C125.383 63.7625 125.694 64.9251 125.694 66.1085C125.694 67.292 125.383 68.4546 124.792 69.48C124.2 70.5055 123.35 71.3577 122.326 71.9513L74.5521 99.5036C71.749 101.126 68.5657 101.977 65.3265 101.969ZM65.3265 32.0345C62.4039 32.0381 59.5326 32.8016 56.9947 34.2501L9.23899 61.8202C8.48517 62.2544 7.85909 62.8793 7.42377 63.6321C6.98846 64.3849 6.7593 65.2391 6.7593 66.1085C6.7593 66.978 6.98846 67.8321 7.42377 68.5849C7.85909 69.3378 8.48517 69.9627 9.23899 70.3968L56.9232 97.967C59.4661 99.3995 62.3358 100.152 65.2549 100.152C68.174 100.152 71.0438 99.3995 73.5867 97.967L121.36 70.3968C122.11 69.9591 122.731 69.3329 123.163 68.5805C123.595 67.8282 123.822 66.9759 123.822 66.1085C123.822 65.2411 123.595 64.3889 123.163 63.6365C122.731 62.8842 122.11 62.258 121.36 61.8202L73.5867 34.2501C71.0787 32.784 68.2319 31.9958 65.3265 31.963V32.0345Z" fill="#2ACAF7"/>
<g clip-path="url(#clip0)">
<path d="M52.3872 3.75716L52.5622 35.0116C52.5647 36.0879 52.8434 37.1457 53.3716 38.0838C53.8998 39.0219 54.6598 39.8089 55.5792 40.3699L94.1421 63.251C94.6991 63.5714 95.3319 63.7368 95.9746 63.73C96.6173 63.7232 97.2464 63.5445 97.7966 63.2125C98.3468 62.8805 98.7979 62.4073 99.1031 61.842C99.4083 61.2767 99.5564 60.6401 99.532 59.9983L99.357 29.2196C99.3579 27.9736 99.036 26.7486 98.4227 25.6637C97.8093 24.5789 96.9255 23.6712 95.8571 23.0288L57.7771 0.497414C57.2192 0.179092 56.5863 0.0155555 55.9439 0.0237296C55.3014 0.0319037 54.6729 0.211492 54.1232 0.543907C53.5736 0.876322 53.1228 1.34949 52.8176 1.91443C52.5124 2.47937 52.3638 3.11556 52.3872 3.75716Z" fill="#0CABD8"/>
<path d="M51.2661 4.54032C51.2425 3.89951 51.3908 3.26406 51.6957 2.69981C52.0005 2.13557 52.4508 1.66306 52.9999 1.33126C53.549 0.999459 54.1769 0.820441 54.8186 0.812758C55.4602 0.805075 56.0922 0.969007 56.6491 1.28756L62.2491 4.58928L80.449 56.5773L62.0811 45.6649L51.3221 14.7533L51.2661 4.54032Z" fill="#46D6FF"/>
<path d="M62.0832 45.6655L54.4532 41.1537C53.5316 40.5976 52.7698 39.8124 52.2423 38.8745C51.7148 37.9367 51.4395 36.8782 51.4432 35.8024L51.3242 14.7539L62.0832 45.6655Z" fill="#2ACAF7"/>
<path d="M95.2128 24.0714C96.1334 24.6314 96.8948 25.4182 97.4243 26.3563C97.9537 27.2944 98.2335 28.3526 98.2368 29.4297L98.4048 60.789C98.4269 61.43 98.2773 62.0653 97.9716 62.6293C97.6658 63.1932 97.2149 63.6653 96.6655 63.9969C96.1161 64.3285 95.488 64.5074 94.8462 64.5153C94.2045 64.5232 93.5722 64.3597 93.0148 64.0418L80.4148 56.5779L62.2148 4.58984L95.2128 24.0714Z" fill="#2ACAF7"/>
<path d="M93.7429 45.112V43.1954C93.7413 42.9779 93.6846 42.7645 93.5781 42.5749C93.4716 42.3853 93.3188 42.2257 93.1339 42.1111L87.3799 38.7814C87.2691 38.7052 87.1387 38.6626 87.0043 38.6585C86.8699 38.6545 86.7371 38.6892 86.6219 38.7586C86.5067 38.8279 86.414 38.929 86.3547 39.0496C86.2955 39.1703 86.2723 39.3055 86.2879 39.439V41.3766C86.2869 41.5946 86.3424 41.809 86.4492 41.9991C86.5559 42.1892 86.7102 42.3483 86.8969 42.4609L92.6509 45.7696C92.7617 45.8458 92.8921 45.8884 93.0266 45.8925C93.161 45.8965 93.2938 45.8618 93.4089 45.7924C93.5241 45.7231 93.6169 45.622 93.6761 45.5013C93.7354 45.3807 93.7586 45.2455 93.7429 45.112Z" fill="#E8EEFC"/>
<path d="M83.2429 38.9638V37.0751C83.2415 36.8586 83.1848 36.646 83.0782 36.4575C82.9716 36.269 82.8187 36.1108 82.6339 35.9978L76.8799 32.6681C76.7691 32.592 76.6387 32.5493 76.5043 32.5452C76.3699 32.5412 76.2371 32.5759 76.1219 32.6453C76.0067 32.7147 75.914 32.8157 75.8547 32.9364C75.7955 33.057 75.7723 33.1922 75.7879 33.3257V35.2633C75.7869 35.4813 75.8424 35.6958 75.9492 35.8858C76.0559 36.0759 76.2102 36.235 76.3969 36.3476L82.1509 39.6563C82.2642 39.7358 82.3985 39.78 82.5369 39.7832C82.6753 39.7865 82.8115 39.7486 82.9284 39.6745C83.0453 39.6004 83.1375 39.4933 83.1935 39.3668C83.2495 39.2403 83.2667 39.1 83.2429 38.9638Z" fill="#E8EEFC"/>
<path d="M72.7429 32.8143V30.8907C72.7435 30.6738 72.6876 30.4605 72.5809 30.2716C72.4741 30.0828 72.3201 29.9249 72.1339 29.8134L66.3799 26.4767C66.2691 26.4005 66.1387 26.3579 66.0043 26.3538C65.8699 26.3498 65.7371 26.3845 65.6219 26.4539C65.5067 26.5232 65.414 26.6243 65.3547 26.745C65.2955 26.8656 65.2723 27.0008 65.2879 27.1343V29.0789C65.2874 29.2958 65.3432 29.5091 65.45 29.698C65.5567 29.8868 65.7108 30.0447 65.8969 30.1562L71.6509 33.4719C71.7617 33.548 71.8921 33.5907 72.0266 33.5948C72.161 33.5988 72.2937 33.5641 72.4089 33.4947C72.5241 33.4254 72.6169 33.3243 72.6761 33.2036C72.7353 33.083 72.7585 32.9478 72.7429 32.8143Z" fill="#E8EEFC"/>
<path d="M62.249 26.6596V24.7429C62.2501 24.525 62.1945 24.3105 62.0878 24.1205C61.981 23.9304 61.8267 23.7713 61.64 23.6587L55.886 20.329C55.7753 20.255 55.6456 20.2141 55.5124 20.2111C55.3792 20.2082 55.2478 20.2433 55.1339 20.3123C55.0199 20.3814 54.9281 20.4815 54.8691 20.601C54.8102 20.7204 54.7865 20.8542 54.801 20.9865V22.9242C54.8013 23.1419 54.8574 23.3559 54.9641 23.5457C55.0707 23.7355 55.2242 23.8948 55.41 24.0085L61.164 27.3172C61.2748 27.3912 61.4044 27.4321 61.5377 27.4351C61.6709 27.438 61.8022 27.4029 61.9162 27.3338C62.0301 27.2648 62.122 27.1646 62.1809 27.0452C62.2399 26.9258 62.2635 26.792 62.249 26.6596Z" fill="#E8EEFC"/>
<path d="M87.2209 53.9397C88.6209 56.4859 91.0708 57.794 92.6178 56.8637C94.1648 55.9333 94.2488 53.1212 92.8068 50.568C91.5468 48.3296 89.1529 46.5948 87.4169 47.644C85.8839 48.5814 85.7859 51.3934 87.2209 53.9397Z" fill="#E8EEFC"/>
<path d="M74.6832 46.8131V45.6239C74.6891 45.4841 74.6571 45.3452 74.5906 45.2221C74.5241 45.099 74.4255 44.9961 74.3052 44.9244L69.0482 41.8395C68.9778 41.7944 68.8964 41.7696 68.8128 41.7677C68.7292 41.7658 68.6467 41.787 68.5744 41.8289C68.502 41.8709 68.4427 41.9319 68.4028 42.0053C68.3629 42.0788 68.344 42.1618 68.3482 42.2452V43.4484C68.3445 43.5878 68.3775 43.7258 68.4438 43.8486C68.5101 43.9713 68.6075 44.0745 68.7262 44.1479L73.9832 47.2188C74.0536 47.2639 74.1351 47.2887 74.2187 47.2906C74.3023 47.2924 74.3848 47.2713 74.4571 47.2293C74.5294 47.1874 74.5888 47.1264 74.6287 47.0529C74.6686 46.9795 74.6874 46.8965 74.6832 46.8131Z" fill="#E8EEFC"/>
<path d="M67.164 42.3644V41.1683C67.1684 41.0287 67.1358 40.8904 67.0694 40.7676C67.003 40.6447 66.9052 40.5416 66.786 40.4688L55.46 33.8583C55.3896 33.8099 55.3069 33.7826 55.2215 33.7796C55.1362 33.7766 55.0517 33.798 54.9782 33.8414C54.9046 33.8848 54.845 33.9483 54.8063 34.0244C54.7677 34.1005 54.7516 34.1861 54.76 34.271V35.4742C54.757 35.6143 54.791 35.7528 54.8586 35.8756C54.9262 35.9984 55.025 36.1012 55.145 36.1737L66.492 42.7702C66.5614 42.8103 66.6403 42.8311 66.7206 42.8303C66.8008 42.8296 66.8793 42.8073 66.948 42.7658C67.0167 42.7244 67.0729 42.6653 67.1109 42.5947C67.1489 42.5241 67.1672 42.4445 67.164 42.3644Z" fill="#E8EEFC"/>
<path d="M54.8246 15.4314L54.7896 8.2753C54.7843 8.1286 54.8182 7.98312 54.8879 7.85388C54.9575 7.72464 55.0604 7.6163 55.186 7.54004C55.3115 7.46378 55.4551 7.42235 55.602 7.42003C55.7489 7.4177 55.8937 7.45457 56.0216 7.52682L62.5246 11.3532C62.7351 11.4817 62.9096 11.6613 63.032 11.8754C63.1544 12.0894 63.2206 12.3309 63.2246 12.5773L63.2596 19.7124C63.2649 19.8591 63.231 20.0046 63.1613 20.1338C63.0917 20.2631 62.9888 20.3714 62.8632 20.4477C62.7377 20.5239 62.5941 20.5654 62.4472 20.5677C62.3003 20.57 62.1555 20.5331 62.0276 20.4609L55.5316 16.6555C55.3156 16.5326 55.1363 16.3544 55.012 16.1392C54.8878 15.9241 54.8231 15.6798 54.8246 15.4314Z" fill="#E8EEFC"/>
<path d="M54.8097 12.7606V13.1244L57.3017 14.5794V15.9225C57.3016 16.1736 57.3659 16.4205 57.4884 16.6397C57.611 16.8589 57.7877 17.0431 58.0017 17.1746L59.9267 18.2588C60.009 18.3089 60.1034 18.3354 60.1997 18.3354C60.296 18.3354 60.3905 18.3089 60.4727 18.2588C60.5578 18.2073 60.6279 18.1343 60.6758 18.0471C60.7237 17.9599 60.7478 17.8616 60.7457 17.7622V16.601L63.2377 18.056V17.6992L60.7527 16.2372V13.5161L63.2377 14.9711V14.6074L60.7317 13.1524V12.32C60.7312 12.069 60.6666 11.8223 60.5442 11.6032C60.4217 11.3841 60.2453 11.1998 60.0317 11.0678L58.2117 9.99056C58.1157 9.93605 58.0072 9.90714 57.8967 9.90662C57.7901 9.90975 57.6862 9.94113 57.5957 9.99756C57.4997 10.0538 57.4204 10.1347 57.3663 10.2319C57.3121 10.3291 57.285 10.439 57.2877 10.5502V11.1308L54.8027 9.67578V10.0395L57.2947 11.4945V14.2156L54.8097 12.7606ZM57.6097 10.5432C57.6109 10.4868 57.6262 10.4316 57.6544 10.3827C57.6825 10.3338 57.7225 10.2927 57.7707 10.2634C57.8173 10.2357 57.8705 10.221 57.9247 10.221C57.9789 10.221 58.0321 10.2357 58.0787 10.2634L59.9057 11.3406C60.0739 11.4425 60.2127 11.5864 60.3084 11.7581C60.4041 11.9298 60.4535 12.1234 60.4517 12.32V17.7482C60.4542 17.7928 60.4444 17.8373 60.4235 17.8767C60.4025 17.9162 60.3711 17.9491 60.3327 17.972C60.2964 17.9993 60.2522 18.014 60.2067 18.014C60.1627 18.0113 60.1198 17.9994 60.0807 17.979L58.1697 16.9018C58.0002 16.8007 57.8601 16.6573 57.7631 16.4855C57.6661 16.3137 57.6157 16.1197 57.6167 15.9225L57.6097 10.5432Z" fill="#2ACAF7"/>
<path d="M77.1325 58.201C73.5695 56.1794 67.7805 55.9346 63.6295 57.7534C63.2247 57.9327 62.8298 58.1335 62.4465 58.3549L59.5625 60.0128V62.4331C59.5625 63.6433 60.2625 64.8604 61.6625 65.9307C65.0925 68.449 71.5255 68.8967 76.0335 66.924C78.7005 65.7558 80.0864 64.007 80.0724 62.2512V59.705L77.1325 58.201Z" fill="#EC8E41"/>
<path d="M76.0257 64.4679C71.5247 66.4545 65.0847 65.9998 61.6547 63.4746C60.2547 62.4463 59.5547 61.2291 59.5547 60.012V60.5786C59.5547 61.7887 60.2547 63.0059 61.6547 64.0761C65.0847 66.5944 71.5177 67.0421 76.0257 65.0695C78.6926 63.9013 80.0857 62.1525 80.0647 60.3967V59.8301C80.0857 61.5579 78.6926 63.3067 76.0257 64.4679Z" fill="#FFD474"/>
<path d="M80.0153 59.2427C79.9718 59.0206 79.9086 58.8029 79.8263 58.5921C79.5405 57.8965 79.0944 57.2782 78.5243 56.7874C78.3563 56.6405 78.1813 56.4866 77.9853 56.3467C74.5553 53.8144 68.1154 53.3597 63.6004 55.3324C63.3414 55.4443 63.1034 55.5632 62.9004 55.6821C62.1177 56.0836 61.4079 56.6132 60.8004 57.249C60.625 57.4394 60.4613 57.6403 60.3104 57.8506C59.1904 59.4735 59.3724 61.3482 61.0104 62.8941C61.2316 63.1018 61.4653 63.2957 61.7104 63.4747C65.1404 66.007 71.5803 66.4617 76.0953 64.489C76.4161 64.3497 76.7293 64.1932 77.0333 64.0204C79.2733 62.7402 80.3303 60.9635 80.0153 59.2427Z" fill="#FFBC56"/>
<path d="M64.7631 57.3609C64.8681 57.3049 64.9731 57.249 65.0851 57.2C68.5291 55.6961 73.4361 56.0458 76.0541 57.9765C76.8525 58.4942 77.4136 59.3064 77.6151 60.2359C77.7621 59.1866 77.2581 58.1374 76.0471 57.221C73.4291 55.2624 68.5151 54.9126 65.0781 56.4166C64.9661 56.4655 64.8611 56.5215 64.7561 56.5774C62.7471 57.5498 61.7951 58.9838 62.0261 60.3828C62.1871 59.2356 63.1111 58.1304 64.7631 57.3609Z" fill="#EC8E41"/>
<path d="M63.5877 62.6287C66.1147 64.4964 70.7907 64.8742 74.2067 63.5381L74.5567 63.4052C76.4047 62.6008 77.4406 61.4256 77.6157 60.2084C77.421 59.2835 76.8705 58.472 76.0827 57.949C73.4647 56.0183 68.5577 55.6685 65.1137 57.1725C65.0017 57.2215 64.8967 57.2774 64.7917 57.3334C63.1397 58.1308 62.2157 59.2361 62.0547 60.3833C62.2534 61.3028 62.8034 62.1085 63.5877 62.6287Z" fill="#FFD474"/>
<path d="M64.1805 62.6219C60.6805 60.5654 54.8705 60.2576 50.6985 62.0343C50.2904 62.2063 49.8931 62.4025 49.5085 62.6219L46.6035 64.2518V66.6651C46.6035 67.8823 47.3035 69.1065 48.6685 70.1627C52.0705 72.716 58.4685 73.2336 63.0255 71.3099C65.6995 70.1697 67.1135 68.4349 67.1135 66.6721V64.1189L64.1805 62.6219Z" fill="#EC8E41"/>
<path d="M63.0255 68.8831C58.4965 70.8067 52.0705 70.2821 48.6685 67.7359C47.2685 66.6866 46.6035 65.4694 46.6035 64.2383V64.7979C46.6035 66.015 47.3035 67.2392 48.6685 68.2955C52.0705 70.8487 58.4685 71.3664 63.0255 69.4427C65.6995 68.3025 67.1135 66.5677 67.1135 64.8049V64.2453C67.1135 66.0081 65.6995 67.7429 63.0255 68.8831Z" fill="#FFD474"/>
<path d="M67.0742 63.6982C67.0341 63.4739 66.9732 63.2538 66.8922 63.0407C66.6044 62.3424 66.1559 61.7217 65.5832 61.229C65.4152 61.0669 65.2375 60.915 65.0512 60.7743C61.6492 58.214 55.2092 57.6894 50.6802 59.6131C50.4212 59.718 50.1762 59.8369 49.9802 59.9558C49.2 60.3494 48.4904 60.8694 47.8802 61.4948C47.7026 61.6851 47.5366 61.886 47.3833 62.0964C46.2493 63.7052 46.4103 65.5939 48.0132 67.1469C48.2357 67.3554 48.4693 67.5515 48.7132 67.7345C52.1152 70.3017 58.5552 70.8263 63.0842 68.9026C63.4272 68.7558 63.7352 68.6019 64.0292 68.441C66.2832 67.1888 67.3682 65.4261 67.0742 63.6982Z" fill="#FFBC56"/>
<path d="M51.8344 61.6206L52.1634 61.4667C55.6214 60.0047 60.5634 60.4035 63.1254 62.3551C63.9161 62.8847 64.4667 63.7038 64.6584 64.6355C64.8124 63.5932 64.3294 62.537 63.1254 61.5996C60.5284 59.648 55.6214 59.2493 52.1634 60.7112L51.8344 60.8651C49.8184 61.8235 48.8594 63.2435 49.0694 64.6425C49.2444 63.5023 50.1824 62.4041 51.8344 61.6206Z" fill="#EC8E41"/>
<path d="M50.6033 66.9093C53.1163 68.805 57.7853 69.2317 61.2153 67.9306L61.5653 67.7977C63.4203 67.0143 64.4773 65.8461 64.6593 64.6359C64.4676 63.7042 63.917 62.8851 63.1263 62.3555C60.5293 60.4038 55.6223 60.0051 52.1643 61.4671L51.8353 61.621C50.1833 62.4045 49.2453 63.5027 49.0703 64.6429C49.2639 65.5701 49.8145 66.3841 50.6033 66.9093Z" fill="#FFD474"/>
<path d="M64.1831 60.1584C60.6411 58.0599 54.8591 57.794 50.6871 59.5638C50.2741 59.7375 49.8721 59.9361 49.4831 60.1584L46.5781 61.7813V64.2016C46.5781 65.4118 47.2781 66.6359 48.6431 67.6992C52.0451 70.2594 58.4431 70.7701 63.0001 68.8464C65.6741 67.7062 67.0881 65.9714 67.0881 64.2156V61.6764L64.1831 60.1584Z" fill="#EC8E41"/>
<path d="M63.0255 66.4553C58.4965 68.379 52.0705 67.8544 48.6685 65.3081C47.2685 64.2658 46.6035 63.0417 46.6035 61.8105V62.3772C46.6035 63.5873 47.3035 64.8115 48.6685 65.8747C52.0705 68.435 58.4685 68.9456 63.0255 67.0219C65.6995 65.8817 67.1135 64.1469 67.1135 62.3911V61.8245C67.1135 63.5593 65.6995 65.3011 63.0255 66.4553Z" fill="#FFD474"/>
<path d="M67.0727 61.2507C67.0326 61.0287 66.9717 60.8109 66.8907 60.6002C66.6061 59.8922 66.1575 59.2617 65.5817 58.7605C65.4136 58.6007 65.2359 58.4512 65.0497 58.3128C61.6688 55.7665 55.2288 55.2629 50.6998 57.1656C50.4408 57.2775 50.1958 57.3894 49.9998 57.5153C49.2181 57.9065 48.5081 58.4268 47.8998 59.0543C47.7206 59.2407 47.5545 59.4394 47.4028 59.6488C46.2688 61.2577 46.4298 63.1464 48.0328 64.6993C48.2534 64.9099 48.4872 65.1061 48.7328 65.2869C52.0578 67.8542 58.4978 68.3788 63.0267 66.4551C63.3504 66.3196 63.6659 66.1654 63.9717 65.9935C66.2817 64.7413 67.3667 62.9576 67.0727 61.2507Z" fill="#FFBC56"/>
<path d="M51.8344 59.1734L52.1634 59.0265C55.6214 57.5575 60.5634 57.9562 63.1254 59.9149C63.9167 60.4406 64.4678 61.2579 64.6584 62.1883C64.8124 61.146 64.3294 60.0897 63.1254 59.1594C60.5284 57.2007 55.6214 56.802 52.1634 58.271L51.8344 58.4179C49.8184 59.3762 48.8594 60.8032 49.0694 62.2023C49.2444 61.0621 50.1824 59.9568 51.8344 59.1734Z" fill="#EC8E41"/>
<path d="M50.6033 64.4621C53.1163 66.3578 57.7853 66.7845 61.2153 65.4904L61.5653 65.3575C63.4203 64.567 64.4773 63.4058 64.6593 62.1887C64.4688 61.2583 63.9177 60.441 63.1263 59.9152C60.5293 57.9566 55.6223 57.5579 52.1643 59.0269L51.8353 59.1737C50.1833 59.9572 49.2453 61.0624 49.0703 62.2027C49.2663 63.127 49.8166 63.938 50.6033 64.4621Z" fill="#FFD474"/>
<path d="M64.1828 57.7314C60.6408 55.6329 54.8588 55.3671 50.6868 57.1438C50.2787 57.3158 49.8813 57.512 49.4968 57.7314L46.5918 59.3613V61.7746C46.5918 62.9918 47.2918 64.2159 48.6568 65.2722C52.0588 67.8324 58.4568 68.3431 63.0138 66.4194C65.6878 65.2862 67.1017 63.5444 67.1017 61.7886V59.2284L64.1828 57.7314Z" fill="#EC8E41"/>
<path d="M63.0255 63.9916C58.4965 65.9153 52.0705 65.3907 48.6685 62.8374C47.2685 61.7951 46.6035 60.571 46.6035 59.3398V59.8995C46.6035 61.1166 47.3035 62.3408 48.6685 63.397C52.0705 65.9573 58.4685 66.4679 63.0255 64.5442C65.6995 63.411 67.1135 61.6692 67.1135 59.9134V59.3468C67.1135 61.1166 65.6995 62.8514 63.0255 63.9916Z" fill="#FFD474"/>
<path d="M67.0742 58.8022C67.0331 58.5803 66.9722 58.3626 66.8922 58.1516C66.6047 57.4512 66.1562 56.8282 65.5832 56.3329C65.415 56.1731 65.2374 56.0236 65.0512 55.8852C61.6492 53.318 55.2092 52.8003 50.6802 54.717C50.4212 54.8289 50.1762 54.9479 49.9802 55.0668C49.1985 55.4579 48.4885 55.9782 47.8802 56.6057C47.7027 56.7937 47.5367 56.9922 47.3833 57.2003C46.2493 58.8162 46.4103 60.6979 48.0132 62.2508C48.2356 62.4616 48.4692 62.6601 48.7132 62.8454C52.1152 65.4126 58.5552 65.9303 63.0842 64.0066C63.4077 63.8733 63.7232 63.7215 64.0292 63.5519C66.2832 62.2928 67.3682 60.53 67.0742 58.8022Z" fill="#FFBC56"/>
<path d="M51.8344 56.7311L52.1634 56.5773C55.6214 55.1083 60.5634 55.507 63.1254 57.4656C63.9161 57.9952 64.4667 58.8143 64.6584 59.7461C64.8124 58.6968 64.3294 57.6475 63.1254 56.7102C60.5284 54.7515 55.6214 54.3528 52.1634 55.8218L51.8344 55.9757C49.8184 56.927 48.8594 58.354 49.0694 59.7531C49.2444 58.6129 50.1824 57.5146 51.8344 56.7311Z" fill="#EC8E41"/>
<path d="M50.6033 62.0199C53.1163 63.9086 57.7853 64.3423 61.2153 63.0412L61.5653 62.9083C63.4203 62.1178 64.4773 60.9566 64.6593 59.7464C64.4676 58.8147 63.917 57.9956 63.1263 57.466C60.5293 55.5074 55.6223 55.1086 52.1643 56.5776L51.8353 56.7315C50.1833 57.515 49.2453 58.6132 49.0703 59.7534C49.2653 60.6801 49.8156 61.4936 50.6033 62.0199Z" fill="#FFD474"/>
<path d="M64.1831 55.2629C60.6831 53.2273 54.8731 52.9195 50.7011 54.6963C50.284 54.8604 49.8773 55.0496 49.4831 55.2629L46.5781 56.8928V59.3061C46.5781 60.5233 47.2781 61.7474 48.6431 62.8037C52.0451 65.3639 58.4431 65.8816 63.0001 63.9579C65.6741 62.8177 67.0881 61.0829 67.0881 59.3201V56.7809L64.1831 55.2629Z" fill="#EC8E41"/>
<path d="M63.0255 61.5589C58.4965 63.4825 52.0705 62.9579 48.6685 60.4116C47.2685 59.3624 46.6035 58.1452 46.6035 56.9141V57.4737C46.6035 58.6908 47.3035 59.915 48.6685 60.9713C52.0705 63.5315 58.4685 64.0491 63.0255 62.1255C65.6995 60.9852 67.1135 59.2504 67.1135 57.4877V56.9281C67.1135 58.6698 65.6995 60.4047 63.0255 61.5589Z" fill="#FFD474"/>
<path d="M67.0727 56.3532C67.0317 56.1313 66.9708 55.9136 66.8907 55.7026C66.6087 54.9931 66.1597 54.3621 65.5817 53.8629C65.4137 53.7008 65.236 53.549 65.0497 53.4082C61.6688 50.8759 55.2288 50.3653 50.6998 52.275C50.4408 52.3799 50.1958 52.4988 49.9998 52.6177C49.2195 53.0113 48.5099 53.5313 47.8998 54.1567C47.7221 54.347 47.5562 54.5479 47.4028 54.7583C46.2688 56.3671 46.4298 58.2558 48.0328 59.8018C48.2532 60.0146 48.487 60.2132 48.7328 60.3964C52.0578 62.9566 58.4978 63.4812 63.0267 61.5576C63.3697 61.4107 63.6777 61.2568 63.9717 61.0959C66.2817 59.8437 67.3667 58.06 67.0727 56.3532Z" fill="#FFBC56"/>
<path d="M51.8344 54.2827L52.1634 54.1288C55.6214 52.6668 60.5634 53.0656 63.1254 55.0172C63.9161 55.5468 64.4667 56.3659 64.6584 57.2976C64.8124 56.2484 64.3294 55.1991 63.1254 54.2617C60.5284 52.3101 55.6214 51.9114 52.1634 53.3734L51.8344 53.5272C49.8184 54.4856 48.8594 55.9056 49.0694 57.3046C49.2444 56.1644 50.1824 55.0662 51.8344 54.2827Z" fill="#EC8E41"/>
<path d="M50.6033 59.5715C53.1163 61.4671 57.7853 61.8938 61.2153 60.5927L61.5653 60.4598C63.4203 59.6764 64.4773 58.5082 64.6593 57.298C64.4676 56.3663 63.917 55.5472 63.1263 55.0176C60.5293 53.0659 55.6223 52.6672 52.1643 54.1292L51.8353 54.2831C50.1833 55.0666 49.2453 56.1648 49.0703 57.305C49.2639 58.2322 49.8145 59.0462 50.6033 59.5715Z" fill="#FFD474"/>
<path d="M64.1828 52.842C60.6408 50.7434 54.8588 50.4776 50.6868 52.2474C50.2773 52.4188 49.8797 52.6174 49.4968 52.842L46.5918 54.4649V56.8852C46.5918 58.0954 47.2918 59.3195 48.6568 60.3828C52.0588 62.943 58.4568 63.4537 63.0138 61.53C65.6878 60.3898 67.1017 58.655 67.1017 56.8992V54.339L64.1828 52.842Z" fill="#EC8E41"/>
<path d="M63.0255 59.096C58.4965 61.0196 52.0705 60.495 48.6685 57.9488C47.2685 56.9065 46.6035 55.6823 46.6035 54.4512V55.0178C46.6035 56.2279 47.3035 57.4521 48.6685 58.5154C52.0705 61.0756 58.4685 61.5863 63.0255 59.6626C65.6995 58.5224 67.1135 56.7876 67.1135 55.0318V54.4652C67.1135 56.221 65.6995 57.9558 63.0255 59.096Z" fill="#FFD474"/>
<path d="M67.0727 53.9126C67.0317 53.6885 66.9708 53.4684 66.8907 53.2551C66.4857 52.3599 65.8594 51.5823 65.0707 50.9956C61.6688 48.4284 55.2288 47.9038 50.6998 49.8274C50.4408 49.9394 50.1958 50.0513 49.9998 50.1702C49.221 50.5661 48.5117 51.0859 47.8998 51.7091C47.7221 51.8995 47.5562 52.1004 47.4028 52.3107C46.2688 53.9196 46.4298 55.8083 48.0328 57.3612C48.2534 57.5718 48.4872 57.768 48.7328 57.9488C52.1348 60.5161 58.5748 61.0407 63.1037 59.117C63.4274 58.9815 63.7429 58.8273 64.0487 58.6554C66.2817 57.4032 67.3667 55.6404 67.0727 53.9126Z" fill="#FFBC56"/>
<path d="M51.8344 51.8355L52.1634 51.6816C55.6214 50.2196 60.5634 50.6183 63.1254 52.577C63.9167 53.1027 64.4678 53.92 64.6584 54.8504C64.8124 53.8081 64.3294 52.7518 63.1254 51.8215C60.5284 49.8628 55.6214 49.4641 52.1634 50.9331C52.0444 50.9751 51.9464 51.031 51.8344 51.08C49.8184 52.0383 48.8594 53.4653 49.0694 54.8574C49.2444 53.7172 50.1824 52.6189 51.8344 51.8355Z" fill="#EC8E41"/>
<path d="M50.6033 57.1237C53.1163 59.0194 57.7853 59.4461 61.2153 58.152L61.5653 58.0121C63.4203 57.2286 64.4773 56.0674 64.6593 54.8503C64.4688 53.9199 63.9177 53.1026 63.1263 52.5769C60.5293 50.6182 55.6223 50.2195 52.1643 51.6815L51.8353 51.8354C50.1833 52.6188 49.2453 53.7171 49.0703 54.8573C49.2639 55.7845 49.8145 56.5985 50.6033 57.1237Z" fill="#FFD474"/>
<path d="M64.1831 50.3662C60.6411 48.2676 54.8591 48.0018 50.6871 49.7786C50.2743 49.95 49.8722 50.1462 49.4831 50.3662L46.5781 51.9961V54.4094C46.5781 55.6196 47.2781 56.8507 48.6431 57.907C52.0451 60.4672 58.4431 60.9778 63.0001 59.0542C65.6741 57.914 67.0881 56.1792 67.0881 54.4234V51.8911L64.1831 50.3662Z" fill="#EC8E41"/>
<path d="M63.0255 56.6624C58.4965 58.593 52.0705 58.0614 48.6685 55.5152C47.2685 54.4729 46.6035 53.2487 46.6035 52.0176V52.5772C46.6035 53.7874 47.3035 55.0185 48.6685 56.0748C52.0705 58.635 58.4685 59.1457 63.0255 57.222C65.6995 56.0818 67.1135 54.347 67.1135 52.5912V52.0246C67.1135 53.7734 65.6995 55.5152 63.0255 56.6624Z" fill="#FFD474"/>
<path d="M67.0727 51.4632C67.0317 51.2413 66.9708 51.0236 66.8907 50.8126C66.607 50.1021 66.1584 49.4691 65.5817 48.9659C65.4136 48.8062 65.2359 48.6567 65.0497 48.5182C61.6688 45.979 55.2288 45.4683 50.6998 47.378C50.4408 47.4899 50.1958 47.6089 49.9998 47.7278C49.2181 48.1189 48.5081 48.6392 47.8998 49.2667C47.7222 49.4547 47.5563 49.6532 47.4028 49.8613C46.2688 51.4772 46.4298 53.3589 48.0328 54.9118C48.2551 55.1226 48.4888 55.3211 48.7328 55.5064C52.0578 58.0596 58.4978 58.5913 63.0267 56.6606C63.3502 56.5273 63.6658 56.3755 63.9717 56.2059C66.2817 54.9538 67.3667 53.163 67.0727 51.4632Z" fill="#FFBC56"/>
<path d="M51.8344 49.3933L52.1634 49.2394C55.6214 47.7704 60.5634 48.1691 63.1254 50.1277C63.5182 50.3886 63.8558 50.7243 64.1189 51.1156C64.3819 51.5068 64.5652 51.9461 64.6584 52.4082C64.8124 51.3589 64.3294 50.3096 63.1254 49.3723C60.5284 47.4136 55.6214 47.0149 52.1634 48.4839L51.8344 48.6378C49.8184 49.5891 48.8594 51.0161 49.0694 52.4152C49.2444 51.275 50.1824 50.1767 51.8344 49.3933Z" fill="#EC8E41"/>
<path d="M50.6033 54.682C53.1163 56.5707 57.7853 56.9974 61.2153 55.7033L61.5653 55.5704C63.4203 54.7799 64.4773 53.6187 64.6593 52.4086C64.5662 51.9465 64.3828 51.5072 64.1198 51.1159C63.8568 50.7247 63.5192 50.389 63.1263 50.1281C60.5293 48.1695 55.6223 47.7708 52.1643 49.2397L51.8353 49.3936C50.1833 50.1771 49.2453 51.2753 49.0703 52.4155C49.2653 53.3422 49.8156 54.1557 50.6033 54.682Z" fill="#FFD474"/>
<path d="M64.1828 47.9463C60.6408 45.8477 54.8588 45.5819 50.6868 47.3587C50.2787 47.5306 49.8813 47.7268 49.4968 47.9463L46.5918 49.5761V51.9895C46.5918 53.2066 47.2918 54.4308 48.6568 55.4871C52.0588 58.0473 58.4568 58.5649 63.0138 56.6343C65.6878 55.501 67.1017 53.7592 67.1017 52.0035V49.4432L64.1828 47.9463Z" fill="#EC8E41"/>
<path d="M63.0255 54.2073C58.4965 56.131 52.0705 55.6063 48.6685 53.0601C47.2685 52.0108 46.6035 50.7867 46.6035 49.5625V50.1221C46.6035 51.3393 47.3035 52.5634 48.6685 53.6197C52.0705 56.1799 58.4685 56.6976 63.0255 54.7669C65.6995 53.6337 67.1135 51.8989 67.1135 50.1361V49.5695C67.1135 51.3323 65.6995 53.0671 63.0255 54.2073Z" fill="#FFD474"/>
<path d="M67.0742 49.0156C67.0331 48.7937 66.9722 48.576 66.8922 48.365C66.6047 47.6646 66.1562 47.0416 65.5832 46.5463C65.4222 46.3994 65.2472 46.2455 65.0512 46.0986C61.6492 43.5314 55.2092 43.0137 50.6802 44.9374C50.4212 45.0423 50.1762 45.1612 49.9802 45.2802C49.2 45.6737 48.4904 46.1937 47.8802 46.8191C47.7009 47.008 47.5349 47.209 47.3833 47.4207C46.2493 49.0296 46.4103 50.9183 48.0132 52.4642C48.2337 52.6771 48.4675 52.8757 48.7132 53.0588C52.1152 55.626 58.5552 56.1437 63.0842 54.227C63.4272 54.0801 63.7352 53.9262 64.0292 53.7653C66.2832 52.5062 67.3682 50.7434 67.0742 49.0156Z" fill="#FFBC56"/>
<path d="M51.8344 46.9448L52.1634 46.7909C55.6214 45.329 60.5634 45.7277 63.1254 47.6793C63.9161 48.2089 64.4667 49.028 64.6584 49.9598C64.8124 48.9105 64.3294 47.8612 63.1254 46.9239C60.5284 44.9722 55.6214 44.5735 52.1634 46.0355L51.8344 46.1894C49.8184 47.1477 48.8594 48.5677 49.0694 49.9667C49.2444 48.8265 50.1824 47.7283 51.8344 46.9448Z" fill="#EC8E41"/>
<path d="M50.6033 52.2335C53.1163 54.1222 57.7853 54.5559 61.2153 53.2548L61.5653 53.1219C63.4203 52.3385 64.4773 51.1703 64.6593 49.9601C64.4676 49.0284 63.917 48.2093 63.1263 47.6797C60.5293 45.7281 55.6223 45.3293 52.1643 46.7913L51.8353 46.9452C50.1833 47.7287 49.2453 48.8269 49.0703 49.9671C49.2639 50.8943 49.8145 51.7083 50.6033 52.2335Z" fill="#FFD474"/>
<path d="M64.1831 45.4685C60.6831 43.4399 54.8731 43.1391 50.7011 44.9089C50.2842 45.0707 49.8774 45.2576 49.4831 45.4685L46.5781 47.0984V49.5117C46.5781 50.7289 47.2781 51.953 48.6431 53.0093C52.0451 55.5625 58.4431 56.0802 63.0001 54.1565C65.6741 53.0163 67.0881 51.2815 67.0881 49.5187V46.9934L64.1831 45.4685Z" fill="#EC8E41"/>
<path d="M63.0255 51.7639C58.4965 53.6876 52.0705 53.163 48.6685 50.6167C47.2685 49.5674 46.6035 48.3503 46.6035 47.1191V47.6788C46.6035 48.8959 47.3035 50.1201 48.6685 51.1763C52.0705 53.7296 58.4685 54.2472 63.0255 52.3235C65.6995 51.1833 67.1135 49.4485 67.1135 47.6857V47.1261C67.1135 48.8819 65.6995 50.6167 63.0255 51.7639Z" fill="#FFD474"/>
<path d="M67.0727 46.5756C67.0326 46.3513 66.9717 46.1312 66.8907 45.9181C66.4857 45.0229 65.8594 44.2454 65.0707 43.6586C61.6687 41.0914 55.2288 40.5738 50.6998 42.4905C50.4408 42.5954 50.1958 42.7143 49.9998 42.8332C49.2195 43.2267 48.5099 43.7468 47.8998 44.3722C47.7221 44.5625 47.5562 44.7634 47.4028 44.9737C46.2688 46.5826 46.4298 48.4713 48.0328 50.0243C48.2552 50.2328 48.4889 50.4289 48.7328 50.6118C52.0578 53.1651 58.4978 53.7037 63.0267 51.766C63.3697 51.6191 63.6777 51.4653 63.9717 51.3044C66.2817 50.0662 67.3667 48.3034 67.0727 46.5756Z" fill="#FFBC56"/>
<path d="M51.8344 44.4971L52.1634 44.3432C55.6214 42.8812 60.5634 43.2799 63.1254 45.2386C63.9167 45.7643 64.4678 46.5816 64.6584 47.512C64.8124 46.4697 64.3294 45.4135 63.1254 44.4831C60.5284 42.5245 55.6214 42.1257 52.1634 43.5877L51.8344 43.7416C49.8184 44.7 48.8594 46.127 49.0694 47.519C49.2444 46.3788 50.1824 45.2806 51.8344 44.4971Z" fill="#EC8E41"/>
<path d="M50.6033 49.7858C53.1163 51.6815 57.7853 52.1082 61.2153 50.8071L61.5653 50.6742C63.4203 49.8908 64.4773 48.7226 64.6593 47.5124C64.4688 46.582 63.9177 45.7647 63.1263 45.239C60.5293 43.2803 55.6223 42.8816 52.1643 44.3436L51.8353 44.4975C50.1833 45.2809 49.2453 46.3792 49.0703 47.5194C49.2639 48.4466 49.8145 49.2606 50.6033 49.7858Z" fill="#FFD474"/>
<path d="M64.1805 43.0551C60.6805 40.9916 54.8705 40.6908 50.6985 42.4605C50.2903 42.6348 49.8929 42.8333 49.5085 43.0551L46.6035 44.678V47.0983C46.6035 48.3085 47.3035 49.5326 48.6685 50.5959C52.0705 53.1631 58.4965 53.6528 63.0255 51.7641C65.6995 50.6239 67.1135 48.8891 67.1135 47.1333V44.5521L64.1805 43.0551Z" fill="#EC8E41"/>
<path d="M63.0255 49.3089C58.4965 51.2325 52.0705 50.7079 48.6685 48.1616C47.2685 47.1194 46.6035 45.8952 46.6035 44.6641V45.2307C46.6035 46.4408 47.3035 47.665 48.6685 48.7283C52.0705 51.2885 58.4685 51.7991 63.0255 49.8755C65.6995 48.7353 67.1135 47.0005 67.1135 45.2447V44.6781C67.1135 46.4338 65.6995 48.1756 63.0255 49.3089Z" fill="#FFD474"/>
<path d="M67.0742 44.1255C67.0331 43.9037 66.9722 43.6859 66.8922 43.475C66.6047 42.7745 66.1562 42.1515 65.5832 41.6562C65.415 41.4965 65.2374 41.347 65.0512 41.2085C61.6492 38.6413 55.2092 38.1167 50.6802 40.0403C50.4212 40.1523 50.1762 40.2642 49.9802 40.3901C49.1985 40.7812 48.4885 41.3015 47.8802 41.929C47.701 42.1155 47.535 42.3142 47.3833 42.5236C46.2493 44.1395 46.4103 46.0212 48.0132 47.5741C48.2356 47.7849 48.4692 47.9834 48.7132 48.1687C52.1152 50.729 58.5552 51.2536 63.0842 49.3299C63.4077 49.1966 63.7232 49.0448 64.0292 48.8752C66.2832 47.6161 67.3682 45.8533 67.0742 44.1255Z" fill="#FFBC56"/>
<path d="M51.8344 42.0554L52.1634 41.9015C55.6214 40.4325 60.5634 40.8312 63.1254 42.7899C63.9167 43.3156 64.4678 44.1329 64.6584 45.0633C64.8124 44.021 64.3294 42.9647 63.1254 42.0344C60.5284 40.0757 55.6214 39.677 52.1634 41.146L51.8344 41.2999C49.8184 42.2512 48.8594 43.6782 49.0694 45.0773C49.2444 43.9371 50.1824 42.8318 51.8344 42.0554Z" fill="#EC8E41"/>
<path d="M50.6033 47.3441C53.1163 49.2328 57.7853 49.6595 61.2153 48.3654L61.5653 48.2325C63.4203 47.442 64.4773 46.2808 64.6593 45.0637C64.4688 44.1333 63.9177 43.316 63.1263 42.7902C60.5293 40.8316 55.6223 40.4329 52.1643 41.9019L51.8353 42.0557C50.1833 42.8322 49.2453 43.9374 49.0703 45.0777C49.2653 46.0043 49.8156 46.8178 50.6033 47.3441Z" fill="#FFD474"/>
<path d="M64.1805 40.6086C60.6805 38.545 54.8705 38.2442 50.6985 40.021C50.2904 40.1929 49.8931 40.3892 49.5085 40.6086L46.6035 42.2385V44.6518C46.6035 45.869 47.3035 47.0931 48.6685 48.1494C52.0705 50.7096 58.4685 51.2203 63.0255 49.2966C65.6995 48.1634 67.1135 46.4216 67.1135 44.6658V42.1056L64.1805 40.6086Z" fill="#EC8E41"/>
<path d="M63.0255 46.8686C58.4965 48.7923 52.0705 48.2676 48.6685 45.7144C47.2685 44.6721 46.6035 43.4479 46.6035 42.2168V42.7764C46.6035 43.9936 47.3035 45.2177 48.6685 46.274C52.0705 48.8342 58.4685 49.3519 63.0255 47.4212C65.6995 46.288 67.1135 44.5462 67.1135 42.7904V42.2238C67.1135 43.9936 65.6995 45.7284 63.0255 46.8686Z" fill="#FFD474"/>
<path d="M67.0727 41.6772C67.0317 41.4553 66.9708 41.2376 66.8907 41.0266C66.6032 40.3262 66.1548 39.7032 65.5817 39.2079C65.4207 39.061 65.2457 38.9071 65.0497 38.7602C61.6688 36.193 55.2288 35.6753 50.6998 37.592C50.4408 37.7039 50.1958 37.8229 49.9998 37.9418C49.2181 38.3329 48.5081 38.8532 47.8998 39.4807C47.7222 39.6687 47.5563 39.8672 47.4028 40.0753C46.2688 41.6912 46.4298 43.5729 48.0328 45.1258C48.2551 45.3366 48.4888 45.5351 48.7328 45.7204C52.0578 48.2666 58.4978 48.8053 63.0267 46.8676C63.3697 46.7207 63.6777 46.5668 63.9717 46.4059C66.2817 45.1678 67.3667 43.405 67.0727 41.6772Z" fill="#FFBC56"/>
<path d="M51.8344 39.607L52.1634 39.4532C55.6214 37.9842 60.5634 38.3829 63.1254 40.3415C63.9161 40.8711 64.4667 41.6902 64.6584 42.622C64.8124 41.5727 64.3294 40.5234 63.1254 39.5861C60.5284 37.6274 55.6214 37.2357 52.1634 38.6977L51.8344 38.8516C49.8184 39.8029 48.8594 41.2299 49.0694 42.629C49.2444 41.4887 50.1824 40.3905 51.8344 39.607Z" fill="#EC8E41"/>
<path d="M50.6033 44.8949C53.1163 46.7836 57.7853 47.2173 61.2153 45.9162L61.5653 45.7833C63.4203 44.9928 64.4773 43.8316 64.6593 42.6214C64.4676 41.6897 63.917 40.8706 63.1263 40.341C60.5293 38.3824 55.6223 37.9837 52.1643 39.4526L51.8353 39.6065C50.1833 40.39 49.2453 41.4882 49.0703 42.6284C49.2653 43.5551 49.8156 44.3686 50.6033 44.8949Z" fill="#FFD474"/>
<path d="M64.1805 38.159C60.6805 36.1025 54.8705 35.7947 50.6985 37.5715C50.2904 37.7434 49.8931 37.9396 49.5085 38.159L46.6035 39.7889V42.2023C46.6035 43.4194 47.3035 44.6436 48.6685 45.6998C52.0705 48.2671 58.4965 48.7637 63.0255 46.868C65.6995 45.7278 67.1135 43.993 67.1135 42.2302V39.656L64.1805 38.159Z" fill="#EC8E41"/>
<path d="M63.0255 44.4202C58.4965 46.3439 52.0705 45.8192 48.6685 43.273C47.2685 42.2237 46.6035 41.0065 46.6035 39.7754V40.335C46.6035 41.5522 47.3035 42.7763 48.6685 43.8326C52.0705 46.3858 58.4685 46.9035 63.0255 44.9798C65.6995 43.8396 67.1135 42.1048 67.1135 40.342V39.7824C67.1135 41.5452 65.6995 43.28 63.0255 44.4202Z" fill="#FFD474"/>
<path d="M67.0742 39.2368C67.0341 39.0125 66.9732 38.7923 66.8922 38.5793C66.6044 37.881 66.1559 37.2603 65.5832 36.7675C65.4152 36.6054 65.2375 36.4536 65.0512 36.3128C61.6492 33.7526 55.2092 33.228 50.6802 35.1446C50.4212 35.2566 50.1762 35.3755 49.9802 35.4944C49.2 35.8879 48.4904 36.4079 47.8802 37.0333C47.7026 37.2237 47.5366 37.4246 47.3833 37.6349C46.2493 39.2438 46.4103 41.1325 48.0132 42.6854C48.2357 42.8939 48.4693 43.0901 48.7132 43.273C52.1152 45.8402 58.5552 46.3649 63.0842 44.4412C63.4272 44.2943 63.7352 44.1404 64.0292 43.9795C66.2832 42.7274 67.3682 40.9646 67.0742 39.2368Z" fill="#FFBC56"/>
<path d="M51.8344 37.1597L52.1634 37.0058C55.6214 35.5438 60.5634 35.9425 63.1254 37.8942C63.9161 38.4238 64.4667 39.2428 64.6584 40.1746C64.8124 39.1323 64.3294 38.076 63.1254 37.1387C60.5284 35.187 55.6214 34.7883 52.1634 36.2503L51.8344 36.4042C49.8184 37.3625 48.8594 38.7826 49.0694 40.1816C49.2444 39.0414 50.1824 37.9431 51.8344 37.1597Z" fill="#EC8E41"/>
<path d="M50.6033 42.4464C53.1163 44.3421 57.7853 44.7688 61.2153 43.4677L61.5653 43.3348C63.4203 42.5514 64.4773 41.3832 64.6593 40.173C64.4676 39.2413 63.917 38.4222 63.1263 37.8926C60.5293 35.9409 55.6223 35.5422 52.1643 37.0042L51.8353 37.1581C50.1833 37.9416 49.2453 39.0398 49.0703 40.18C49.2639 41.1072 49.8145 41.9212 50.6033 42.4464Z" fill="#FFD474"/>
<path d="M64.1805 35.7323C60.6805 33.6758 54.8705 33.375 50.6985 35.1447C50.2904 35.3167 49.8931 35.5129 49.5085 35.7323L46.6035 37.3622V39.7755C46.6035 40.9927 47.3035 42.2168 48.6685 43.2731C52.0705 45.8264 58.4685 46.344 63.0255 44.4203C65.6995 43.2801 67.1135 41.5453 67.1135 39.7825V37.2293L64.1805 35.7323Z" fill="#EC8E41"/>
<path d="M63.0255 41.971C58.4965 43.8946 52.0705 43.37 48.6685 40.8238C47.2685 39.7745 46.6035 38.5573 46.6035 37.3262V37.8858C46.6035 39.1029 47.3035 40.3271 48.6685 41.3834C52.0705 43.9366 58.4685 44.4542 63.0255 42.5306C65.6995 41.3904 67.1135 39.6556 67.1135 37.8928V37.3332C67.1135 39.1169 65.6995 40.8517 63.0255 41.971Z" fill="#FFD474"/>
<path d="M67.0727 36.8088C67.0326 36.5845 66.9717 36.3643 66.8907 36.1513C66.6029 35.453 66.1545 34.8323 65.5817 34.3395C65.4137 34.1774 65.236 34.0256 65.0497 33.8848C61.6688 31.3246 55.2288 30.779 50.6998 32.7236C50.4408 32.8286 50.1958 32.9475 49.9998 33.0664C49.2195 33.4599 48.5099 33.98 47.8998 34.6054C47.7221 34.7957 47.5562 34.9966 47.4028 35.2069C46.2688 36.8158 46.4298 38.7045 48.0328 40.2574C48.2552 40.466 48.4889 40.6621 48.7328 40.845C52.1348 43.4123 58.5748 43.9369 63.1037 42.0132C63.4467 41.8663 63.7547 41.7124 64.0487 41.5515C66.2817 40.2994 67.3667 38.5366 67.0727 36.8088Z" fill="#FFBC56"/>
<path d="M51.8344 34.7308L52.1634 34.5769C55.6214 33.115 60.5634 33.5137 63.1254 35.4653C63.9222 36.0015 64.4735 36.8317 64.6584 37.7737C64.8124 36.7315 64.3294 35.6752 63.1254 34.7448C60.5284 32.7862 55.6214 32.3875 52.1634 33.8494L51.8344 34.0033C49.8184 34.9617 48.8594 36.3817 49.0694 37.7807C49.2444 36.6125 50.1824 35.5143 51.8344 34.7308Z" fill="#EC8E41"/>
<path d="M50.6033 40.0207C53.1163 41.9164 57.7853 42.3431 61.2153 41.042L61.5653 40.9091C63.4203 40.1256 64.4773 38.9574 64.6593 37.7472C64.4676 36.8155 63.917 35.9964 63.1263 35.4668C60.5293 33.5152 55.6223 33.1164 52.1643 34.5784L51.8353 34.7323C50.1833 35.5158 49.2453 36.614 49.0703 37.7752C49.269 38.6947 49.819 39.5004 50.6033 40.0207Z" fill="#FFD474"/>
<path d="M42.1112 56.5989C38.5552 58.6414 35.4052 63.4961 34.8592 67.994C34.8034 68.4324 34.7777 68.8741 34.7822 69.3161L34.7402 72.6458L36.8402 73.8559C37.8972 74.4575 39.2902 74.4925 40.8932 73.807C44.8132 72.1351 48.4672 66.8118 49.0552 61.9152C49.4052 59.0262 48.6072 56.9346 47.0812 56.0602L44.8762 54.7871L42.1112 56.5989Z" fill="#EC8E41"/>
<path d="M46.9552 60.7397C46.3602 65.6363 42.7062 70.9317 38.7862 72.6315C37.1902 73.331 35.7972 73.2821 34.7402 72.6735L35.2302 72.9533C36.2802 73.5619 37.6802 73.5898 39.2762 72.9113C43.1962 71.2395 46.8502 65.9161 47.4382 61.0195C47.7882 58.1375 46.9902 56.046 45.4642 55.1646L44.9742 54.8848C46.5002 55.7662 47.2982 57.8507 46.9552 60.7397Z" fill="#FFD474"/>
<path d="M44.4702 54.6531C44.2598 54.5727 44.0416 54.5141 43.8192 54.4782C43.0733 54.3769 42.3139 54.4487 41.6002 54.6881C41.3759 54.7529 41.1561 54.8323 40.9422 54.9259C37.0222 56.5907 33.3823 61.9001 32.7593 66.7897C32.7593 67.0625 32.7033 67.3353 32.6963 67.5941C32.6388 68.473 32.7311 69.3553 32.9693 70.2033C33.0411 70.4426 33.13 70.6763 33.2353 70.9029C34.0823 72.7496 35.7623 73.5121 37.9322 72.9035C38.2234 72.8254 38.5087 72.7273 38.7862 72.6097C42.7062 70.9448 46.3742 65.6145 46.9692 60.7179C47.015 60.3699 47.0407 60.0196 47.0462 59.6686C47.1092 57.0664 46.1222 55.2617 44.4702 54.6531Z" fill="#FFBC56"/>
<path d="M35.0696 66.8052C35.0696 66.6863 35.0696 66.5744 35.0696 66.4485C35.5246 62.727 38.3176 58.6698 41.3066 57.4037C42.1596 56.9793 43.1459 56.9089 44.0506 57.2078C43.2246 56.5503 42.0416 56.4314 40.6556 57.026C37.6596 58.2921 34.8666 62.3493 34.4116 66.0707C34.4116 66.1966 34.4116 66.3086 34.4116 66.4275C34.2296 68.6519 34.9856 70.1979 36.3086 70.7085C35.4056 69.995 34.9226 68.6309 35.0696 66.8052Z" fill="#EC8E41"/>
<path d="M39.0382 70.5127C41.9362 69.2816 44.6382 65.4552 45.2262 61.8387C45.2262 61.7128 45.2682 61.5869 45.2822 61.468C45.5272 59.4674 45.0442 57.9704 44.0852 57.2079C43.1805 56.9089 42.1942 56.9793 41.3412 57.4038C38.3522 58.6699 35.5592 62.7271 35.1042 66.4555C35.1042 66.5814 35.1042 66.6934 35.1042 66.8123C34.9572 68.638 35.4402 70.0021 36.3502 70.7156C37.2382 71.0023 38.2033 70.9295 39.0382 70.5127Z" fill="#FFD474"/>
<path d="M80.9129 74.7576C77.3429 72.736 71.5539 72.4982 67.4029 74.3169C66.9971 74.4891 66.604 74.6902 66.2269 74.9185L63.3359 76.5764V78.9897C63.3359 80.2069 64.0359 81.424 65.4359 82.4873C68.8659 85.0125 75.3059 85.4532 79.8069 83.4806C82.4739 82.3194 83.8669 80.5636 83.8529 78.8078V76.2616L80.9129 74.7576Z" fill="#EC8E41"/>
<path d="M79.8069 81.0335C75.2989 83.0061 68.8659 82.5584 65.4359 80.0332C64.0359 79.0049 63.3359 77.7877 63.3359 76.5775V77.1372C63.3359 78.3543 64.0359 79.5715 65.4359 80.6347C68.8729 83.16 75.3059 83.6007 79.8069 81.635C82.4739 80.4668 83.8669 78.7111 83.8529 76.9553V76.3887C83.8599 78.1165 82.4669 79.8653 79.8069 81.0335Z" fill="#FFD474"/>
<path d="M83.781 75.8001C83.7399 75.5782 83.679 75.3605 83.599 75.1495C83.3083 74.4568 82.8602 73.8412 82.29 73.3518C82.122 73.1979 81.947 73.051 81.751 72.9041C78.321 70.3788 71.881 69.9241 67.366 71.8898C67.114 72.0017 66.869 72.1206 66.666 72.2465C65.8833 72.6449 65.1734 73.1723 64.566 73.8064C64.3865 73.9932 64.2226 74.1944 64.076 74.408C62.956 76.0309 63.138 77.9056 64.776 79.4515C64.9935 79.6656 65.2275 79.862 65.476 80.0391C68.906 82.5644 75.346 83.0191 79.861 81.0534C80.197 80.9065 80.505 80.7456 80.799 80.5847C83.081 79.2976 84.103 77.5279 83.781 75.8001Z" fill="#FFBC56"/>
<path d="M68.5359 73.8912L68.8579 73.7373C72.3019 72.2333 77.2159 72.5761 79.8339 74.5067C80.629 75.0296 81.187 75.8434 81.3879 76.7732C81.5349 75.7239 81.0379 74.6746 79.8199 73.7513C77.2019 71.8206 72.2949 71.4778 68.8509 72.9818L68.5289 73.1357C66.5199 74.15 65.5819 75.549 65.8059 76.9481C65.9599 75.8008 66.8909 74.6886 68.5359 73.8912Z" fill="#EC8E41"/>
<path d="M67.3606 79.1939C69.8946 81.0546 74.5636 81.4393 77.9796 80.1033L78.3296 79.9634C80.1776 79.1589 81.2206 77.9837 81.3886 76.7736C81.1877 75.8438 80.6297 75.03 79.8346 74.5071C77.2166 72.5765 72.3026 72.2337 68.8586 73.7377L68.5366 73.8916C66.8916 74.689 65.9606 75.8012 65.8066 76.9414C66.006 77.8682 66.5648 78.6782 67.3606 79.1939Z" fill="#FFD474"/>
</g>
<defs>
<linearGradient id="paint0_linear" x1="54256.1" y1="9743.93" x2="44707.3" y2="9743.93" gradientUnits="userSpaceOnUse">
<stop stop-color="#CACEFC"/>
<stop offset="0.11" stop-color="#BABEFB"/>
<stop offset="0.26" stop-color="#A7ACFA"/>
<stop offset="0.38" stop-color="#A0A5FA"/>
<stop offset="0.44" stop-color="#AFB4FB"/>
<stop offset="0.58" stop-color="#D7D9FD"/>
<stop offset="0.69" stop-color="white"/>
</linearGradient>
<linearGradient id="paint1_linear" x1="65.3709" y1="25.2451" x2="65.3709" y2="106.925" gradientUnits="userSpaceOnUse">
<stop stop-color="#0E004F"/>
<stop offset="1" stop-color="#5E45D9"/>
</linearGradient>
<linearGradient id="paint2_linear" x1="22622.1" y1="19384.5" x2="32173.7" y2="19384.5" gradientUnits="userSpaceOnUse">
<stop stop-color="#0E004F"/>
<stop offset="1" stop-color="#5E45D9"/>
</linearGradient>
<clipPath id="clip0">
<rect width="66.8498" height="84.6765" fill="white" transform="translate(32.6816)"/>
</clipPath>
</defs>
</svg>
