<svg width="131" height="126" viewBox="0 0 131 126" fill="none" xmlns="http://www.w3.org/2000/svg">
<path d="M130.662 69.017V82.811C130.662 85.5613 129.934 88.2626 128.553 90.6411C127.171 93.0196 125.185 94.9908 122.795 96.3549L76.9526 122.513C73.4139 124.537 69.4079 125.601 65.3311 125.601C61.2542 125.601 57.2482 124.537 53.7095 122.513L7.88479 96.3549C5.49061 94.9945 3.49975 93.0246 2.11477 90.6456C0.729788 88.2666 0.000122917 85.5634 0 82.811V68.0879L47.0405 99.9285C52.4245 103.621 58.8012 105.597 65.3311 105.597C71.8609 105.597 78.2375 103.621 83.6216 99.9285L130.662 69.017Z" fill="url(#paint0_linear)"/>
<path d="M5.85954 57.8333L53.6152 30.2453C57.1758 28.1909 61.2148 27.1094 65.3262 27.1094C69.4376 27.1094 73.4765 28.1909 77.0371 30.2453L124.864 57.8333C126.647 58.8575 128.128 60.3333 129.158 62.112C130.188 63.8907 130.73 65.9094 130.73 67.9644C130.73 70.0194 130.188 72.0381 129.158 73.8168C128.128 75.5955 126.647 77.0714 124.864 78.0955L77.0371 105.648C73.4765 107.702 69.4376 108.784 65.3262 108.784C61.2148 108.784 57.1758 107.702 53.6152 105.648L5.85954 78.0955C4.08132 77.0677 2.60488 75.5906 1.57845 73.8123C0.552016 72.0341 0.0117188 70.0173 0.0117188 67.9644C0.0117188 65.9115 0.552016 63.8947 1.57845 62.1165C2.60488 60.3382 4.08132 58.8611 5.85954 57.8333Z" fill="url(#paint1_linear)"/>
<path d="M5.85954 57.8333L53.6152 30.2453C57.1758 28.1909 61.2148 27.1094 65.3262 27.1094C69.4376 27.1094 73.4765 28.1909 77.0371 30.2453L124.864 57.8333C126.647 58.8575 128.128 60.3333 129.158 62.112C130.188 63.8907 130.73 65.9094 130.73 67.9644C130.73 70.0194 130.188 72.0381 129.158 73.8168C128.128 75.5955 126.647 77.0714 124.864 78.0955L77.0371 105.648C73.4765 107.702 69.4376 108.784 65.3262 108.784C61.2148 108.784 57.1758 107.702 53.6152 105.648L5.85954 78.0955C4.08132 77.0677 2.60488 75.5906 1.57845 73.8123C0.552016 72.0341 0.0117188 70.0173 0.0117188 67.9644C0.0117188 65.9115 0.552016 63.8947 1.57845 62.1165C2.60488 60.3382 4.08132 58.8611 5.85954 57.8333Z" fill="url(#paint2_linear)"/>
<path d="M65.3265 103.825C62.0875 103.83 58.9049 102.979 56.1007 101.359L8.34502 73.8068C7.31606 73.2168 6.46113 72.3659 5.86659 71.34C5.27206 70.3141 4.95898 69.1495 4.95898 67.964C4.95898 66.7785 5.27206 65.6139 5.86659 64.588C6.46113 63.5621 7.31606 62.7112 8.34502 62.1212L56.1007 34.5689C58.9155 32.9797 62.0935 32.1445 65.3265 32.1445C68.5594 32.1445 71.7374 32.9797 74.5521 34.5689L122.326 62.1212C123.35 62.7148 124.2 63.5671 124.792 64.5925C125.383 65.6179 125.694 66.7806 125.694 67.964C125.694 69.1474 125.383 70.3101 124.792 71.3355C124.2 72.3609 123.35 73.2132 122.326 73.8068L74.5521 101.359C71.749 102.981 68.5657 103.832 65.3265 103.825ZM65.3265 33.8899C62.4039 33.8935 59.5326 34.6571 56.9947 36.1056L9.23899 63.6757C8.48517 64.1099 7.85909 64.7348 7.42377 65.4876C6.98846 66.2404 6.7593 67.0945 6.7593 67.964C6.7593 68.8335 6.98846 69.6876 7.42377 70.4404C7.85909 71.1932 8.48517 71.8181 9.23899 72.2523L56.9232 99.8224C59.4661 101.255 62.3358 102.008 65.2549 102.008C68.174 102.008 71.0438 101.255 73.5867 99.8224L121.36 72.2523C122.11 71.8145 122.731 71.1883 123.163 70.436C123.595 69.6836 123.822 68.8314 123.822 67.964C123.822 67.0966 123.595 66.2444 123.163 65.492C122.731 64.7397 122.11 64.1135 121.36 63.6757L73.5867 36.1056C71.0787 34.6395 68.2319 33.8513 65.3265 33.8185V33.8899Z" fill="#2ACAF7"/>
<path d="M86.3228 4.86523V18.4414C90.5684 20.8933 93.1348 24.0798 93.1348 27.5716V14.005C93.1348 10.4941 90.5684 7.32668 86.3228 4.86523Z" fill="#2ACAF7"/>
<path d="M81.9141 2.79537V16.3715C76.7063 14.5223 71.2215 13.5737 65.6952 13.5666V0C71.221 0.00406315 76.7057 0.949372 81.9141 2.79537Z" fill="#2ACAF7"/>
<path d="M36.8359 18.6614V32.228C36.8359 27.8871 40.7952 24.0136 47.0156 21.4472V7.87109C40.7952 10.4375 36.8359 14.3109 36.8359 18.6614Z" fill="#F50E38"/>
<path d="M93.1348 12.8613V27.0194C93.1348 30.1392 91.0836 33.03 87.6108 35.3578V21.2093C91.0836 18.8718 93.1348 15.9906 93.1348 12.8613Z" fill="#74E0FF"/>
<path d="M70.1976 69.2456C69.8351 68.0722 68.9192 67.3375 68.1464 67.5474C67.3737 67.7573 67.2782 68.8736 67.4118 70.1043C67.46 70.3217 67.5473 70.5286 67.6694 70.7149C67.8858 71.1094 67.9975 71.5529 67.9938 72.0028C67.9889 72.3717 68.0437 72.739 68.156 73.0905C68.4666 73.8237 69.0523 74.406 69.7874 74.7123C69.9037 74.7729 70.0312 74.8089 70.1619 74.818C70.2927 74.8271 70.424 74.8092 70.5475 74.7653C70.671 74.7215 70.7842 74.6526 70.88 74.5631C70.9757 74.4735 71.052 74.3652 71.104 74.2449C71.3053 73.8454 71.4102 73.4042 71.4102 72.9569C71.4102 72.5095 71.3053 72.0684 71.104 71.6689C70.9513 71.335 70.2644 69.4651 70.1976 69.2456Z" fill="#445393"/>
<path d="M62.0223 67.995C61.7864 68.1974 61.5664 68.4174 61.364 68.6533C60.8665 69.1009 60.2722 69.4274 59.6276 69.6073C58.9566 69.8914 58.2184 69.9775 57.5001 69.8554C57.3927 69.8195 57.295 69.7596 57.2142 69.6803C57.1335 69.601 57.0719 69.5043 57.0342 69.3975C56.9965 69.2908 56.9836 69.1769 56.9966 69.0645C57.0095 68.952 57.0479 68.844 57.1089 68.7487C57.5553 68.1699 58.064 67.642 58.6258 67.1745L59.7039 66.2204C60.1327 65.8563 60.403 65.3397 60.4576 64.7798C60.4576 64.4745 60.5244 64.1978 60.5721 64.1883C61.6597 63.7685 63.2148 63.9975 63.4915 64.5222C63.4915 64.5222 63.7968 66.1441 63.7968 66.5448C63.8094 66.7272 63.7634 66.9088 63.6656 67.0632C63.5678 67.2177 63.4232 67.3369 63.253 67.4035C62.8165 67.5406 62.402 67.7398 62.0223 67.995Z" fill="#445393"/>
<path d="M71.8398 25.502V29.5185C71.8398 30.1196 70.819 69.2929 70.819 69.2929C70.819 70.2469 67.0696 70.3805 67.0791 69.0925L65.8866 40.5569L64.7417 40.1371L64.1788 64.8756C64.1788 66.0682 60.0573 65.7438 60.2291 64.7898L59.6471 32.2185C59.6339 31.6511 59.6883 31.0843 59.8093 30.5298L71.8398 25.502Z" fill="#81A0EA"/>
<path d="M47.1507 23.5069C47.6738 24.212 48.3203 24.8164 49.0588 25.291C49.9174 25.6535 51.3581 26.2451 51.9209 26.4072L52.875 24.2129H52.4266C52.2711 24.1967 52.1177 24.1647 51.9687 24.1175C50.8906 23.8122 49.4977 20.8165 48.8298 21.7229C48.9348 21.6847 46.4352 21.866 47.1507 23.5069Z" fill="#FCBAC0"/>
<path d="M52.0227 23.8503C52.0299 23.8266 52.0421 23.8048 52.0586 23.7863C52.075 23.7678 52.0952 23.753 52.1179 23.7431C52.1405 23.7331 52.165 23.7281 52.1898 23.7285C52.2145 23.7289 52.2389 23.7347 52.2612 23.7454C53.7782 24.5277 56.8979 25.7775 57.6993 26.121C57.7359 26.1377 57.776 26.1457 57.8162 26.1441C57.8565 26.1426 57.8958 26.1317 57.9311 26.1122C57.9663 26.0927 57.9965 26.0652 58.0192 26.032C58.042 25.9987 58.0565 25.9605 58.0618 25.9206C58.3576 24.2129 59.1018 16.9716 59.5406 15.9699C59.7601 15.4547 63.3568 17.296 63.3568 17.296C63.4587 17.4113 63.5365 17.5458 63.5857 17.6916C63.6348 17.8375 63.6543 17.9916 63.643 18.1451C63.643 18.4504 63.8529 18.8416 63.643 19.0133C62.8512 23.0966 61.0385 30.9771 59.2162 31.3301C57.9569 31.5781 53.1008 27.8192 50.8588 26.1877C50.8285 26.1618 50.8042 26.1296 50.7876 26.0933C50.771 26.0571 50.7624 26.0177 50.7624 25.9779C50.7624 25.938 50.771 25.8986 50.7876 25.8624C50.8042 25.8261 50.8285 25.7939 50.8588 25.768C51.3779 25.2181 51.7745 24.5646 52.0227 23.8503Z" fill="#343C6B"/>
<path d="M59.7058 30.0243L59.4101 34.3939C61.0227 35.2967 62.8141 35.8341 64.6574 35.9681C67.739 36.3306 70.0287 35.825 71.3357 34.9472C71.481 34.8481 71.6008 34.7161 71.6853 34.5619C71.7699 34.4077 71.8168 34.2357 71.8223 34.06V33.6211V33.5543L71.8986 31.236V31.0643L71.6696 24.3859L73.8926 19.692C73.8926 17.2782 71.9082 15.8758 69.8665 14.6069C69.7043 14.521 69.5516 14.4161 69.3799 14.3302L69.2368 14.2443L67.5577 13.2903L66.1171 12.4698C65.9644 12.403 64.8005 13.0327 64.6478 12.985C64.2551 12.811 63.8358 12.7046 63.4076 12.6702C62.847 12.6675 62.2915 12.777 61.7738 12.992C61.256 13.2071 60.7865 13.5234 60.3928 13.9225C59.9991 14.3216 59.689 14.7953 59.481 15.3159C59.2729 15.8364 59.1709 16.3933 59.1811 16.9538L59.973 25.1873C60.0555 26.3327 60.0203 27.4836 59.868 28.6219C59.8013 29.0989 59.744 29.5759 59.7058 30.0243Z" fill="#445393"/>
<path d="M63.8736 35.301C66.1538 35.6731 69.7219 34.4042 71.8495 33.641V33.5742L71.9258 31.2559L64.8467 33.2212L63.8736 35.301Z" fill="#343C6B"/>
<path d="M67.6046 30.9402C68.2152 30.8639 69.1693 31.589 69.7036 31.3791L70.4668 29.5759L69.8848 21.123L68.6732 27.9827L67.7191 30.9307L67.6046 30.9402Z" fill="#343C6B"/>
<path d="M68.1572 13.7389V13.6817V8.63477H64.7131V13.4718L64.3983 13.5863C64.1598 13.6817 64.1693 13.9202 64.2742 14.1778C64.4206 14.506 64.6631 14.7821 64.9697 14.9695C65.2764 15.1569 65.6327 15.2468 65.9915 15.2273C66.5179 15.1999 67.0395 15.1135 67.5466 14.9697C67.6689 14.931 67.7821 14.868 67.8795 14.7846C67.9769 14.7012 68.0565 14.5989 68.1135 14.4841C68.1705 14.3692 68.2037 14.244 68.2113 14.116C68.2188 13.9879 68.2004 13.8597 68.1572 13.7389Z" fill="#FCBAC0"/>
<path d="M67.1463 8.58519C66.2781 9.62511 66.0969 10.9131 66.7361 11.4473C67.3753 11.9816 68.4438 11.6572 69.4837 10.4933C70.0488 9.84838 70.4135 9.05265 70.5332 8.20357C70.5332 8.20357 68.0145 7.53574 67.1463 8.58519Z" fill="#445393"/>
<path d="M64.6633 9.30251V13.2714C64.6633 13.6816 65.5124 13.9487 66.1993 13.6625C67.2392 13.2332 68.1074 12.4032 68.1074 11.5159V9.29297L64.6633 9.30251Z" fill="#EF9B9B"/>
<path d="M62.4612 10.5701C63.005 13.3559 64.875 13.6612 66.6495 12.8312C67.2387 12.6053 67.7681 12.2469 68.1966 11.7837C68.6251 11.3205 68.9412 10.7648 69.1205 10.1598C69.2922 9.35842 69.9028 8.59518 69.96 7.92735C70.042 7.40299 70.0138 6.86729 69.877 6.35448C69.7402 5.84167 69.498 5.36302 69.1658 4.94911C68.8336 4.53521 68.4187 4.19515 67.9477 3.95065C67.4766 3.70616 66.9597 3.56261 66.4301 3.52917C61.5835 3.15709 62.2704 9.59694 62.4612 10.5701Z" fill="#FCBAC0"/>
<path d="M70.8374 5.72525C70.637 3.54047 68.0516 1.48927 64.9414 2.30975C63.3004 2.73907 61.8598 2.99667 61.6213 4.21785C61.5439 4.67069 61.5859 5.13588 61.7432 5.56752C61.9005 5.99916 62.1675 6.38236 62.5181 6.6793V6.46941C62.5611 6.29269 62.6674 6.13785 62.8168 6.03414C62.9662 5.93043 63.1484 5.88503 63.329 5.90652C64.2734 5.88489 65.2148 6.02031 66.1148 6.30722C66.3145 6.39603 66.5346 6.42875 66.7514 6.40186C66.9683 6.37496 67.1737 6.28947 67.3456 6.15457L68.0993 5.72525L67.3551 6.59344C67.2532 6.71463 67.1868 6.86165 67.1632 7.01823C67.1396 7.17482 67.1598 7.33487 67.2215 7.4807C67.2215 7.53795 67.2215 7.61427 67.2788 7.68105L69.3872 6.33584C69.4997 6.26634 69.6287 6.22806 69.7609 6.22495C69.8931 6.22183 70.0237 6.254 70.1393 6.31813C70.255 6.38226 70.3514 6.47604 70.4188 6.58983C70.4861 6.70361 70.522 6.83329 70.5226 6.96552V8.32027C70.8354 7.49336 70.9435 6.60299 70.8374 5.72525Z" fill="#343C6B"/>
<path d="M69.3887 6.33501L67.2802 7.63252C67.3444 7.83073 67.386 8.03556 67.4042 8.24311C67.4127 8.33971 67.4427 8.4332 67.492 8.51669C67.5413 8.60018 67.6087 8.67155 67.6893 8.72555C67.7698 8.77955 67.8614 8.81481 67.9574 8.82873C68.0534 8.84265 68.1512 8.83489 68.2438 8.806C68.4608 8.74736 68.6584 8.63213 68.8162 8.47208C69.0834 8.12862 69.5127 8.06184 69.5604 8.31943C69.6706 8.71708 69.6902 9.1344 69.6176 9.54062C70.0405 9.23973 70.371 8.82669 70.5717 8.34805V6.96468C70.5772 6.82486 70.5431 6.68633 70.4734 6.56499C70.4037 6.44364 70.3013 6.34441 70.1777 6.27866C70.0542 6.21292 69.9147 6.18333 69.7751 6.1933C69.6355 6.20326 69.5016 6.25238 69.3887 6.33501Z" fill="#343C6B"/>
<path d="M68.2333 8.58629C67.804 9.20642 67.7754 9.94104 68.1761 10.2177C68.5768 10.4944 69.2541 10.2177 69.693 9.60712C70.1319 8.99653 70.1509 8.26191 69.7502 7.98523C69.3495 7.70856 68.6722 7.95661 68.2333 8.58629Z" fill="#FCBAC0"/>
<path d="M63.8654 35.3001C65.7735 34.5273 71.1925 32.686 72.7953 31.3408C73.53 30.7206 73.5395 19.377 73.5395 19.377C73.5447 19.3093 73.5365 19.2412 73.5153 19.1767C73.4941 19.1122 73.4604 19.0525 73.416 19.0011C73.3717 18.9497 73.3177 18.9075 73.257 18.8771C73.1963 18.8466 73.1302 18.8285 73.0625 18.8236L70.9254 18.6805C70.8582 18.6767 70.7909 18.6863 70.7275 18.7088C70.6641 18.7312 70.6057 18.7662 70.556 18.8115C70.5062 18.8568 70.466 18.9116 70.4377 18.9727C70.4094 19.0337 70.3936 19.0998 70.3911 19.1671C70.3339 20.3215 70.2099 27.62 70.1812 28.9556C70.1764 29.1056 70.1252 29.2504 70.0346 29.37C69.9441 29.4896 69.8186 29.5781 69.6756 29.6235C68.3113 30.0528 65.4682 32.3521 63.2071 33.0962C63.0623 33.147 62.9116 33.179 62.7587 33.1916C61.652 33.3634 59.1524 31.2072 58.9425 32.3044C58.9425 32.3044 56.7387 33.4874 58.0648 34.699C58.8466 35.1195 59.6957 35.4004 60.574 35.529C61.6746 35.5161 62.7736 35.4396 63.8654 35.3001Z" fill="#FCBAC0"/>
<path d="M63.2056 33.0184C63.7971 33.1997 64.2169 34.9265 63.8734 35.4322C63.8734 35.4322 71.3532 33.8008 73.1372 31.5587C74.0054 30.4616 73.9482 23.4684 73.9291 19.6999C73.9297 19.4377 73.8763 19.1781 73.7722 18.9375C73.6681 18.6968 73.5154 18.4802 73.3239 18.3012C73.1323 18.1221 72.9058 17.9845 72.6587 17.8968C72.4116 17.8092 72.149 17.7734 71.8874 17.7918C71.3931 17.8033 70.9215 18.0015 70.5675 18.3467C70.2135 18.6919 70.0033 19.1583 69.9793 19.6522C69.8744 21.9228 69.7122 28.0001 69.6931 28.8969C69.6873 28.953 69.6665 29.0065 69.6329 29.0518C69.5994 29.0972 69.5543 29.1326 69.5023 29.1545C69.1016 29.374 63.2056 33.0184 63.2056 33.0184Z" fill="#445393"/>
<g style="mix-blend-mode:screen">
<path d="M61.5625 24.061V38.2095C54.5693 37.5417 48.492 35.5764 44.3896 32.8478V18.6992C48.5206 21.4278 54.5789 23.3931 61.5625 24.061Z" fill="#2ACAF7"/>
</g>
<g style="mix-blend-mode:multiply">
<g style="mix-blend-mode:screen">
<path d="M67.6048 37.9329V52.0815C73.3638 52.0772 79.0748 51.0333 84.4629 48.9999V34.8418C79.078 36.8878 73.3653 37.9353 67.6048 37.9329Z" fill="#F50E38"/>
</g>
</g>
<path d="M43.3643 43.5996V52.2528C45.6964 53.7439 48.223 54.9061 50.8727 55.7065C53.2469 56.4452 55.6787 56.9845 58.1426 57.3189V48.6561C52.1702 47.8165 46.9993 46.0038 43.3643 43.5996Z" fill="#0041BE"/>
<defs>
<linearGradient id="paint0_linear" x1="54256.1" y1="9745.79" x2="44707.3" y2="9745.79" gradientUnits="userSpaceOnUse">
<stop stop-color="#CACEFC"/>
<stop offset="0.11" stop-color="#BABEFB"/>
<stop offset="0.26" stop-color="#A7ACFA"/>
<stop offset="0.38" stop-color="#A0A5FA"/>
<stop offset="0.44" stop-color="#AFB4FB"/>
<stop offset="0.58" stop-color="#D7D9FD"/>
<stop offset="0.69" stop-color="white"/>
</linearGradient>
<linearGradient id="paint1_linear" x1="65.3709" y1="27.1006" x2="65.3709" y2="108.78" gradientUnits="userSpaceOnUse">
<stop stop-color="#0E004F"/>
<stop offset="1" stop-color="#5E45D9"/>
</linearGradient>
<linearGradient id="paint2_linear" x1="22622.1" y1="19386.4" x2="32173.7" y2="19386.4" gradientUnits="userSpaceOnUse">
<stop stop-color="#0E004F"/>
<stop offset="1" stop-color="#5E45D9"/>
</linearGradient>
</defs>
</svg>
