<svg width="565" height="332" viewBox="0 0 565 332" fill="none" xmlns="http://www.w3.org/2000/svg">
<path fill-rule="evenodd" clip-rule="evenodd" d="M427.699 259.091C421.285 259.77 414.859 260.384 408.477 261.264C407.712 261.368 406.882 263.082 406.59 264.182C404.755 271.181 403.717 278.471 401.175 285.192C397.335 295.356 390.741 304.258 382.129 310.905C372.291 318.668 361.234 324.114 350.028 329.309C341.714 333.157 332.979 332.543 324.432 329.651C323.316 329.276 322.486 328.047 321.526 327.213C322.525 326.365 323.4 325.22 324.548 324.729C329.127 322.788 334.217 321.714 338.303 319.062C342.551 316.319 345.852 312.115 349.542 308.557C357.324 301.086 356.435 292.385 353.433 283.18C351.351 276.744 349.172 270.405 342.972 266.782C340.78 265.488 337.901 264.492 335.45 264.693C322.395 265.76 309.393 267.416 296.345 268.535C288.706 269.182 280.995 269.059 273.33 269.57C265.236 270.107 257.13 271.038 249.024 271.685C246.119 271.918 243.187 271.802 240.282 271.905C223.421 272.507 206.605 272.992 189.783 273.781C175.957 274.428 162.144 275.379 148.338 276.369C143.15 276.744 138.046 277.856 132.877 278.264C129.285 278.555 125.497 278.807 122.073 277.947C119.907 277.41 117.858 275.088 116.457 273.083C110.621 264.719 105.076 256.186 99.4795 247.686C91.0361 234.874 82.6272 222.044 74.2529 209.198C66.3411 197.023 58.4035 184.862 50.7123 172.552C43.7214 161.368 37.0938 149.977 30.2261 138.715C28.8254 136.418 27.243 134.225 25.6218 132.078C24.3248 130.363 24.5582 129.303 26.614 128.604C42.3471 123.174 58.4551 118.891 74.8106 115.789C87.4953 113.428 99.94 109.799 112.527 106.914C120.64 105.051 128.883 103.764 136.963 101.778C152.397 97.9941 167.786 93.7959 183.22 89.9146C196.126 86.6803 209.109 83.6788 222.014 80.4056C236.826 76.6409 251.501 72.2615 266.41 68.9172C283.044 65.1783 299.853 62.1833 316.63 59.0912C335.365 55.6305 354.133 52.3961 372.888 49.1618C389.749 46.2832 406.61 43.6246 423.419 40.7977C434.301 38.9736 445.15 36.9165 456.038 35.157C463.82 33.8633 471.732 33.0418 479.514 31.6575C495.727 28.7789 511.887 25.8356 528.003 22.5625C532.75 21.5922 537.218 19.3281 541.867 17.8274C543.106 17.4263 544.546 17.6462 545.888 17.5816C545.888 19.0758 546.303 20.8159 545.713 22.0256C542.484 28.753 538.904 35.3317 535.577 42.0462C529.213 54.8672 522.91 67.7227 516.667 80.6126C512.841 88.5497 509.105 96.5451 505.597 104.624C501.265 114.619 497.361 124.8 492.99 134.782C488.45 145.132 483.626 155.352 478.859 165.599C474.041 175.948 469.08 186.234 464.307 196.603C461.408 202.904 459.054 209.469 455.922 215.647C451.382 224.6 446.265 233.261 441.57 242.169C439.735 245.649 438.373 249.381 436.843 253.017C436.606 253.594 436.502 254.218 436.538 254.841C436.843 259.162 436.48 259.556 432.109 259.544H427.731C427.731 259.401 427.731 259.265 427.699 259.13V259.091ZM535.194 30.0209L534.364 28.7789C529.254 29.2511 524.099 29.4646 519.034 30.2732C515.37 30.8553 511.9 32.5631 508.21 33.1582C497.14 34.9436 486.019 36.4378 474.91 38.0162C472.964 38.2944 470.954 38.2749 469.021 38.6243C461.674 39.918 454.378 41.5481 447.005 42.6672C437.089 44.1809 426.96 44.8924 417.07 46.7684C404.813 49.0906 392.725 52.3185 380.54 55.0289C368.458 57.7263 356.344 60.3074 344.224 62.856C336.306 64.525 328.394 66.2198 320.43 67.617C306.105 70.1269 291.728 72.3586 277.402 74.8555C272.791 75.6511 268.284 76.9708 263.706 77.9411C253.157 80.1663 242.602 82.3506 232.04 84.4939C225.95 85.7359 219.848 86.9455 213.739 88.0581C208.551 89.0026 203.22 89.5136 198.065 90.7038C191.58 92.1981 185.302 94.3522 178.856 95.9111C170.977 97.8194 163.013 99.3784 155.095 101.151C146.476 103.091 137.89 105.148 129.259 107.031C118.591 109.353 107.826 111.281 97.2228 113.868C84.7326 116.921 72.3722 120.479 59.9664 123.849C55.9651 124.943 51.9833 126.107 48.0145 127.304C42.9562 128.824 37.9757 130.629 32.859 131.897C30.1872 132.543 30.1418 133.475 31.361 135.474C36.0626 143.197 40.5697 151.037 45.4011 158.677C53.222 171.058 61.0883 183.42 69.2205 195.607C77.6899 208.298 86.3993 220.835 95.1605 233.306C102.618 243.902 110.193 254.42 118.02 264.744C120.089 267.461 122.015 271.174 126.269 271.155C133.007 271.116 139.758 271.058 146.47 270.54C155.179 269.861 163.843 268.6 172.546 267.798C192.131 265.98 211.709 264.039 231.32 262.623C244.938 261.639 258.557 261.484 272.175 260.857C292.37 259.925 312.562 258.944 332.752 257.913C340.015 257.538 346.208 259.401 349.905 266.142C352.596 271.032 355.689 275.89 357.259 281.162C359.853 289.811 361.96 298.906 356.033 307.224C352.525 312.154 349.652 317.749 343.77 320.569C340.813 321.986 337.933 323.526 334.315 325.356C344.451 325.435 354.421 322.777 363.167 317.665C372.894 312.089 381.065 304.663 388.082 295.814C396.169 285.612 401.908 274.532 402.959 261.478C403.231 258.133 404.729 257.474 407.388 257.286C413.931 256.82 420.468 256.245 427.018 255.863C429.904 255.688 432.148 254.317 433.341 251.982C437.465 243.967 441.48 235.887 445.202 227.679C448.717 219.916 451.642 211.914 455.13 204.152C460.182 192.884 465.539 181.751 470.694 170.515C476.2 158.554 481.486 146.49 487.115 134.588C494.449 119.063 502.03 103.712 509.501 88.2845C515.162 76.5956 521.064 64.9972 526.362 53.1659C529.825 45.6751 532.302 37.7639 535.194 30.0209Z" fill="white"/>
<path fill-rule="evenodd" clip-rule="evenodd" d="M484.054 21.4429C482.602 17.6263 484.138 16.3002 487.446 15.621C504.307 12.2875 521.135 8.86769 537.932 5.36165C545.149 3.88032 552.335 2.20492 559.533 0.607151C560.344 0.426027 561.167 0.283715 561.985 0.115529C564.468 -0.395499 565.467 0.7624 564.799 3.03292C562.451 10.8924 560.344 18.8554 557.419 26.5014C553.755 36.0751 549.397 45.39 545.234 54.7697C544.903 55.5136 543.781 55.9146 543.022 56.4709C542.555 55.6688 541.537 54.705 541.725 54.0775C543.113 49.1031 544.559 44.1286 546.265 39.2706C549.28 30.8742 552.523 22.562 555.662 14.2303C556.388 12.2896 557.186 10.349 557.86 8.40841C558.091 7.5748 558.258 6.72497 558.359 5.86621C557.471 5.7239 556.518 5.31637 555.694 5.48456C551.213 6.42252 546.764 7.49633 542.303 8.52485C532.575 10.763 522.847 12.9624 513.12 15.2458C504.534 17.2641 495.967 19.4052 487.368 21.4105C486.311 21.6563 485.15 21.4429 484.054 21.4429Z" fill="white"/>
<path fill-rule="evenodd" clip-rule="evenodd" d="M7.02262 123.733C9.77226 127.983 12.0744 131.541 14.3701 135.105C20.5568 144.718 26.776 154.305 32.8589 163.969C33.4036 164.842 33.0859 166.252 33.1702 167.41L32.1002 167.721C31.5035 166.983 30.8615 166.272 30.3103 165.495C24.7634 157.733 19.2274 149.949 13.7022 142.143C10.6413 137.822 7.6776 133.43 4.62316 129.128C3.54017 127.615 2.2302 126.263 1.04992 124.814C-0.64915 122.737 -0.247079 121.114 2.34693 120.344C7.53493 118.778 12.7229 117.265 17.9499 115.906C27.0289 113.565 36.1079 111.469 45.1869 109.062C49.5902 107.885 53.8314 106.106 58.2347 104.922C59.441 104.599 60.952 105.44 62.3203 105.744C61.38 106.637 60.5823 108.002 59.4734 108.331C47.1519 112.083 34.7914 115.693 22.431 119.328C17.5089 120.758 12.5997 122.136 7.02262 123.733Z" fill="white"/>
<path fill-rule="evenodd" clip-rule="evenodd" d="M161.975 290.587C160.678 290.975 159.433 291.654 158.142 291.712C142.98 292.443 127.812 293.077 112.65 293.75C111.818 293.754 110.987 293.823 110.166 293.957C105.951 294.811 105.289 294.313 102.929 290.58C99.3425 284.907 95.4839 279.402 91.7161 273.839C89.0443 269.9 86.2881 266.018 83.7071 262.021C83.2986 261.374 83.6228 260.281 83.6098 259.395C84.3556 259.75 85.3997 259.912 85.8083 260.507C90.8276 267.759 95.7563 275.075 100.724 282.378C100.957 282.727 101.165 283.089 101.372 283.452C104.336 288.866 108.253 291.175 114.991 290.503C126.249 289.371 137.688 289.713 148.992 289.371C152.111 289.28 155.217 288.905 158.33 288.788C159.502 288.836 160.667 288.985 161.813 289.235C161.864 289.688 161.923 290.14 161.975 290.587Z" fill="white"/>
<path fill-rule="evenodd" clip-rule="evenodd" d="M535.195 30.0213C532.302 37.7837 529.812 45.6756 526.44 53.1987C521.129 65.0429 515.227 76.6283 509.579 88.3173C502.108 103.745 494.527 119.121 487.193 134.62C481.564 146.523 476.278 158.555 470.773 170.548C465.585 181.771 460.254 192.903 455.209 204.185C451.7 211.934 448.763 219.936 445.261 227.699C441.538 235.907 437.524 243.987 433.4 252.002C432.206 254.311 429.962 255.682 427.077 255.883C420.527 256.264 413.99 256.84 407.447 257.306C404.788 257.493 403.29 258.153 403.017 261.498C401.967 274.551 396.227 285.632 388.141 295.833C381.124 304.683 372.966 312.109 363.225 317.685C354.479 322.797 344.51 325.455 334.373 325.376C337.973 323.545 340.858 322.006 343.829 320.589C349.71 317.769 352.583 312.18 356.092 307.244C362.019 298.9 359.918 289.798 357.324 281.156C355.754 275.884 352.661 271.026 349.97 266.136C346.299 259.395 340.074 257.532 332.811 257.907C312.616 258.93 292.424 259.911 272.234 260.851C258.616 261.498 244.952 261.633 231.378 262.617C211.768 264.04 192.19 265.98 172.605 267.792C163.902 268.6 155.238 269.855 146.529 270.534C139.817 271.052 133.066 271.11 126.328 271.149C122.074 271.149 120.148 267.455 118.079 264.738C110.251 254.388 102.677 243.896 95.2192 233.3C86.432 220.822 77.7097 208.292 69.2792 195.601C61.0951 183.42 53.2288 171.059 45.3949 158.677C40.5636 151.038 36.0565 143.198 31.3548 135.474C30.1357 133.475 30.1811 132.557 32.8529 131.897C37.9696 130.603 42.95 128.824 48.0084 127.304C51.9772 126.107 55.959 124.943 59.9602 123.85C72.366 120.48 84.7265 116.922 97.2166 113.869C107.82 111.281 118.585 109.341 129.253 107.031C137.884 105.149 146.47 103.079 155.089 101.151C163.007 99.3788 170.971 97.8198 178.85 95.9116C185.296 94.3526 191.599 92.1985 198.059 90.7042C203.214 89.514 208.519 89.003 213.733 88.0585C219.842 86.9459 225.944 85.7363 232.033 84.4943C242.591 82.338 253.146 80.1538 263.7 77.9415C268.278 76.9712 272.779 75.6516 277.396 74.8559C291.721 72.359 306.099 70.1273 320.424 67.6174C328.388 66.2202 336.299 64.5254 344.218 62.8565C356.332 60.3078 368.446 57.7268 380.534 55.0293C392.719 52.3189 404.807 49.091 417.064 46.7688C426.953 44.8929 437.057 44.1813 447.018 42.6676C454.392 41.5485 461.687 39.9378 469.035 38.6247C470.98 38.2754 472.971 38.2948 474.923 38.0166C486.032 36.4382 497.154 34.944 508.224 33.1586C511.894 32.5635 515.357 30.8558 519.047 30.2736C524.112 29.465 529.267 29.2515 534.378 28.7793L535.195 30.0213Z" fill="#FF8311"/>
</svg>
