<svg width="308" height="361" viewBox="0 0 308 361" fill="none" xmlns="http://www.w3.org/2000/svg">
<path d="M210.976 279.597L205.649 304.206L78.9102 229.318L84.2371 204.709L210.976 279.597Z" fill="#B3B3B3"/>
<path d="M90.4149 201.424L84.2383 204.71L210.977 279.598L217.154 276.312L90.4149 201.424Z" fill="#666666"/>
<path d="M217.152 276.312L211.827 300.924L205.65 304.208L210.977 279.599L217.152 276.312Z" fill="#D1D2D3"/>
<path d="M267.849 126.314L262.49 152.657L124.104 73.3683L129.464 47.0254L267.849 126.314Z" fill="#AA7D33"/>
<path d="M136.093 43.4766L129.463 47.0264L267.85 126.315L274.48 122.765L136.093 43.4766Z" fill="#EDA11B"/>
<path d="M274.48 122.766L269.119 149.109L262.49 152.658L267.849 126.315L274.48 122.766Z" fill="#D1D2D3"/>
<path d="M274.48 217.978L269.119 244.323L130.734 165.032L136.093 138.689L274.48 217.978Z" fill="#AA7D33"/>
<path d="M142.724 135.139L136.094 138.688L274.481 217.977L281.109 214.429L142.724 135.139Z" fill="#EDA11B"/>
<path d="M281.108 214.43L275.75 240.773L269.119 244.322L274.48 217.978L281.108 214.43Z" fill="#EDA11B"/>
<path d="M61.7969 198.172V218.486L136.45 175.508V155.193L61.7969 198.172Z" fill="#808080"/>
<path d="M132.042 152.658L136.45 155.194L61.7965 198.173L57.3887 195.635L132.042 152.658Z" fill="#B3B3B3"/>
<path d="M57.3887 195.635V215.948L61.7965 218.486V198.173L57.3887 195.635Z" fill="#6D6D6D"/>
<path d="M276.599 116.061L296.74 289.101L273.311 275.572L253.223 102.221L276.599 116.061Z" fill="#666666"/>
<path d="M281.808 113.887L301.831 286.106L296.741 289.1L276.6 116.06L281.808 113.887Z" fill="#D1D2D3"/>
<path d="M258.713 100.166L281.81 113.886L276.599 116.06L253.223 102.22L258.713 100.166Z" fill="#E8E8E8"/>
<path d="M136.285 34.8112L156.3 206.954L132.882 193.334L112.955 21.0234L136.285 34.8112Z" fill="#666666"/>
<path d="M141.492 32.6367L161.419 204.028L156.298 206.955L136.283 34.8119L141.492 32.6367Z" fill="#D1D2D3"/>
<path d="M118.528 18.9941L141.493 32.6378L136.285 34.8111L112.957 21.0253L118.528 18.9941Z" fill="#E8E8E8"/>
<path d="M277.256 115.738L229.468 327.974L221.787 332.399L269.984 118.342L277.256 115.738Z" fill="#6D6D6D"/>
<path d="M269.984 118.341L221.787 332.399L198.033 319.056L246.296 104.705L269.984 118.341Z" fill="#D1D2D3"/>
<path d="M253.569 102.1L277.257 115.738L269.985 118.341L246.299 104.705L253.569 102.1Z" fill="#E8E8E8"/>
<path d="M129.381 37.2651L80.8481 252.817L57.1621 239.164L105.693 23.627L129.381 37.2651Z" fill="#D1D2D3"/>
<path d="M136.651 34.6621L88.5304 248.379L80.8477 252.817L129.381 37.2655L136.651 34.6621Z" fill="#6D6D6D"/>
<path d="M112.963 21.0254L136.649 34.6616L129.379 37.2651L105.691 23.627L112.963 21.0254Z" fill="#E8E8E8"/>
<path d="M136.417 35.6934L139.21 59.979L131.893 55.7858L136.417 35.6934Z" fill="#AAAAAA"/>
<path d="M230.145 294.694V315.007L304.798 272.028V251.717L230.145 294.694Z" fill="#B3B3B3"/>
<path d="M300.39 249.18L304.798 251.718L230.144 294.695L225.736 292.157L300.39 249.18Z" fill="#808080"/>
<path d="M225.736 292.156V312.467L230.144 315.007V294.694L225.736 292.156Z" fill="#6D6D6D"/>
<path d="M276.797 117.771L279.438 140.333L272.6 136.413L276.797 117.771Z" fill="#AAAAAA"/>
<g style="mix-blend-mode:multiply" opacity="0.5">
<g opacity="0.5" style="mix-blend-mode:multiply">
<path d="M235.353 272.217L241.302 275.601L240.745 277.899L234.621 275.408L210.924 261.817L211.646 258.605L235.353 272.217Z" fill="#E6E6E6"/>
</g>
<g opacity="0.5" style="mix-blend-mode:multiply">
<path d="M229.24 180.457L252.948 194.067L258.898 197.452L258.341 199.749L252.215 197.26L228.518 183.668L229.24 180.457Z" fill="#E6E6E6"/>
</g>
<g opacity="0.5" style="mix-blend-mode:multiply">
<path d="M88.5361 99.8242L112.248 113.41L118.155 116.797L117.639 119.088L111.513 116.617L87.8027 103.084L88.5361 99.8242Z" fill="#E6E6E6"/>
</g>
<g opacity="0.5" style="mix-blend-mode:multiply">
<path d="M70.9392 177.979L94.6533 191.561L100.562 194.955L100.044 197.241L93.9199 194.751L70.2227 181.16L70.9392 177.979Z" fill="#E6E6E6"/>
</g>
</g>
<path d="M89.2526 31.4219L287.389 144.957L280.974 148.754L82.8359 35.2185L89.2526 31.4219Z" fill="#F4B042"/>
<path d="M287.391 144.959L278.858 201.419L272.443 205.214L280.976 148.756L287.391 144.959Z" fill="#D8911E"/>
<path d="M82.8391 35.2188L280.975 148.754L272.443 205.212L74.3066 91.6788L82.8391 35.2188Z" fill="#FFD246"/>
<path d="M272.027 204.975L247.846 191.118L241.281 126.008L265.464 139.865L272.027 204.975Z" fill="white"/>
<path d="M220.242 175.299L196.061 161.444L189.498 96.332L213.679 110.189L220.242 175.299Z" fill="white"/>
<path d="M168.457 145.625L144.276 131.768L137.713 66.6582L161.892 80.517L168.457 145.625Z" fill="white"/>
<path d="M110.107 50.8414L116.67 115.952L92.4888 102.095L85.9258 36.9863L110.107 50.8414Z" fill="white"/>
<path d="M189.498 96.332L204.871 97.6711L228.366 111.133L213.679 110.189L189.498 96.332Z" fill="white"/>
<path d="M241.281 126.008L256.654 127.347L280.149 140.807L265.464 139.865L241.281 126.008Z" fill="white"/>
<path d="M137.713 66.6582L153.084 67.9973L176.579 81.4596L161.892 80.517L137.713 66.6582Z" fill="white"/>
<path d="M85.9258 36.9863L101.297 38.3236L124.792 51.7859L110.107 50.8414L85.9258 36.9863Z" fill="white"/>
<path d="M74.9324 111.461L273.069 224.995L266.654 228.791L68.5176 115.256L74.9324 111.461Z" fill="#C68938"/>
<path d="M273.07 224.994L264.538 281.456L258.123 285.251L266.655 228.791L273.07 224.994Z" fill="#D8911E"/>
<path d="M68.5187 115.256L266.655 228.791L258.123 285.251L59.9863 171.716L68.5187 115.256Z" fill="#FFD246"/>
<path d="M257.709 285.012L233.528 271.155L226.965 206.047L251.146 219.902L257.709 285.012Z" fill="white"/>
<path d="M205.924 255.338L181.743 241.481L175.18 176.371L199.361 190.228L205.924 255.338Z" fill="white"/>
<path d="M154.135 225.664L129.955 211.807L123.391 146.697L147.572 160.554L154.135 225.664Z" fill="white"/>
<path d="M95.7866 130.88L102.35 195.991L78.1684 182.134L71.6055 117.023L95.7866 130.88Z" fill="white"/>
<path d="M175.18 176.371L190.551 177.71L214.046 191.172L199.361 190.228L175.18 176.371Z" fill="white"/>
<path d="M226.965 206.047L242.336 207.384L265.853 220.86L251.146 219.902L226.965 206.047Z" fill="white"/>
<path d="M123.391 146.697L138.764 148.036L162.258 161.499L147.572 160.554L123.391 146.697Z" fill="white"/>
<path d="M71.6055 117.023L86.9785 118.363L110.471 131.825L95.7866 130.88L71.6055 117.023Z" fill="white"/>
<path d="M298.13 263.64C299.057 263.107 299.805 263.539 299.805 264.604C299.805 265.668 299.055 266.964 298.13 267.497C297.205 268.03 296.455 267.598 296.455 266.532C296.455 265.466 297.205 264.172 298.13 263.64Z" fill="#6D6D6D"/>
<path d="M234.517 299.877C235.443 299.344 236.192 299.776 236.192 300.84C236.192 301.904 235.441 303.202 234.517 303.733C233.592 304.264 232.842 303.836 232.842 302.77C232.842 301.704 233.592 300.41 234.517 299.877Z" fill="#6D6D6D"/>
<path d="M268.773 108.891L267.753 117.057L249.521 106.561L268.775 107.825L268.773 108.891Z" fill="#CCCCCC"/>
<path d="M254.008 81.4729C255.338 81.3532 260.614 81.3925 261.956 81.4468C263.269 81.4973 264.726 81.9443 266.27 82.8308C271.925 86.0869 276.509 94.0057 276.509 100.516C276.509 104.969 274.361 107.603 271.197 107.782C270.747 107.808 269.831 107.82 268.779 107.825V108.891C268.774 109.116 268.709 109.335 268.592 109.527C268.321 109.942 267.955 110.287 267.525 110.534C267.096 110.782 266.613 110.925 266.118 110.952C265.486 110.952 265.114 110.644 265.099 110.193V107.816C264.456 107.816 263.921 107.807 263.612 107.801C262.263 107.778 260.751 107.331 259.151 106.411C253.496 103.155 248.912 95.2363 248.912 88.7259C248.901 84.3681 250.953 81.7516 254.008 81.4729Z" fill="#CECECE"/>
<path d="M269.296 106.877C271.464 106.101 272.859 103.769 272.859 100.23C272.859 94.0283 268.596 86.4854 263.335 83.3826C261.902 82.5391 261.138 82.0304 261.956 82.0641C263.173 82.1127 264.53 82.5391 265.964 83.3826C271.216 86.4854 275.487 94.0283 275.487 100.23C275.487 104.474 273.491 106.982 270.547 107.15C269.8 107.195 268.862 107.03 269.296 106.877Z" fill="#EAEAEA"/>
<path d="M258.552 84.2878C263.502 87.1381 267.517 94.0712 267.517 99.7719C267.517 105.472 263.502 107.784 258.552 104.934C253.602 102.084 249.586 95.1504 249.586 89.4479C249.586 83.7454 253.6 81.4375 258.552 84.2878Z" fill="#EDA11B"/>
<path d="M257.611 88.8578C260.593 90.5765 263.013 94.7548 263.013 98.1905C263.013 101.626 260.593 103.018 257.611 101.301C254.629 99.5838 252.207 95.4037 252.207 91.9699C252.207 88.5361 254.627 87.1408 257.611 88.8578Z" fill="#F7BD61"/>
<path d="M258.552 84.2874C253.6 81.4371 249.586 83.7469 249.586 89.4476C249.586 95.1482 253.6 102.083 258.552 104.933C263.503 107.784 267.517 105.472 267.517 99.7715C267.517 94.0709 263.502 87.1378 258.552 84.2874ZM258.552 104.26C253.922 101.595 250.171 95.1145 250.171 89.7861C250.171 84.4576 253.922 82.3049 258.552 84.9607C263.181 87.6165 266.932 94.1064 266.932 99.4349C266.932 104.763 263.181 106.923 258.552 104.26Z" fill="#808080"/>
<path d="M127.619 27.4982L126.597 35.662L108.365 25.1641L127.621 26.4302L127.619 27.4982Z" fill="#CCCCCC"/>
<path d="M112.854 0.0784686C114.183 -0.0430997 119.46 -8.32012e-05 120.793 0.0522847C122.106 0.100912 123.562 0.54978 125.107 1.43629C130.762 4.69245 135.347 12.6112 135.347 19.1217C135.347 23.5748 133.201 26.2101 130.035 26.3877C129.585 26.4139 128.669 26.4251 127.617 26.4307V27.4931C127.61 27.7169 127.545 27.9352 127.429 28.1271C127.158 28.5417 126.792 28.8868 126.362 29.1344C125.932 29.382 125.449 29.5251 124.953 29.5522C124.321 29.5522 123.95 29.2436 123.935 28.7929V26.4214L122.446 26.4064C121.097 26.384 119.587 25.937 117.987 25.0168C112.33 21.7606 107.746 13.8419 107.746 7.33142C107.744 2.97367 109.798 0.359011 112.854 0.0784686Z" fill="#CECECE"/>
<path d="M128.141 25.4826C130.311 24.7064 131.705 22.3742 131.705 18.8356C131.705 12.6319 127.441 5.09089 122.18 1.98996C120.739 1.14459 119.976 0.635877 120.794 0.669542C122.013 0.718169 123.369 1.14459 124.802 1.98996C130.054 5.09089 134.327 12.6319 134.327 18.8356C134.327 23.0774 132.331 25.5873 129.386 25.7556C128.647 25.8099 127.709 25.6359 128.141 25.4826Z" fill="#EAEAEA"/>
<path d="M117.395 2.89252C122.347 5.74283 126.361 12.676 126.361 18.3766C126.361 24.0772 122.347 26.3889 117.395 23.5386C112.444 20.6883 108.428 13.7551 108.428 8.0545C108.428 2.35388 112.442 0.0422149 117.395 2.89252Z" fill="#EDA11B"/>
<path d="M116.455 7.46199C119.439 9.18078 121.858 13.359 121.858 16.7928C121.858 20.2267 119.439 21.6219 116.455 19.905C113.47 18.1881 111.051 14.008 111.051 10.5723C111.051 7.13656 113.478 5.74507 116.455 7.46199Z" fill="#F7BD61"/>
<path d="M117.395 2.89286C112.442 0.0425504 108.428 2.35235 108.428 8.05484C108.428 13.7573 112.442 20.6886 117.395 23.5389C122.349 26.3892 126.361 24.0776 126.361 18.3769C126.361 12.6763 122.347 5.74317 117.395 2.89286ZM117.395 22.8656C112.766 20.2005 109.015 13.7199 109.015 8.39149C109.015 3.06306 112.766 0.910361 117.395 3.56616C122.024 6.22196 125.776 12.7175 125.776 18.0403C125.776 23.3631 122.024 25.5289 117.395 22.8656Z" fill="#808080"/>
<g opacity="0.25" style="mix-blend-mode:multiply">
<path d="M223.595 269.084L218.921 311.15L203.407 322.078L198.033 319.058L199.485 224.451L223.595 269.084Z" fill="#5D1B43"/>
</g>
<path d="M153.787 204.176L194.945 227.674L214.381 273.133L210.095 311.15L183.26 330.188L142.104 306.688L122.668 261.229L126.952 223.213L153.787 204.176Z" fill="#FF2F2F"/>
<path d="M130.276 226.692L126.326 261.736L144.228 303.602L182.056 325.202L206.77 307.662L210.72 272.619L192.819 230.76L154.992 209.16L130.276 226.692ZM132.167 228.764L155.613 212.134L191.641 232.707L208.621 272.417L204.87 305.599L181.424 322.232L145.396 301.659L128.427 261.947L132.167 228.764Z" fill="white"/>
<path d="M158.33 200.949L153.789 204.175L194.947 227.674L199.486 224.451L158.33 200.949Z" fill="#FF4A4A"/>
<path d="M199.484 224.451L194.945 227.674L214.381 273.133L218.92 269.908L199.484 224.451Z" fill="#EA2323"/>
<path d="M218.921 269.908L214.637 307.925L210.096 311.15L214.382 273.133L218.921 269.908Z" fill="#CD1B1B"/>
<path d="M157.475 264.76L156.763 271.075L155.586 270.404L154.954 276.015L148.752 272.473L149.386 266.862L140.275 261.66L140.898 256.132L149.303 237.68L158.681 243.034L156.299 264.084L157.475 264.76ZM146.769 258.649L150.096 260.55L151.784 245.557L146.769 258.649Z" fill="white"/>
<path d="M159.409 267.915L160.872 254.933C161.261 251.498 162.218 249.301 163.744 248.342C165.269 247.383 167.305 247.633 169.851 249.09C172.416 250.557 174.268 252.529 175.409 255.008C176.549 257.487 176.924 260.445 176.534 263.884L175.069 276.866C174.951 278.132 174.652 279.375 174.18 280.556C173.751 281.566 173.24 282.314 172.648 282.8C172.075 283.283 171.388 283.612 170.652 283.756C169.906 283.901 169.138 283.88 168.401 283.694C167.582 283.486 166.797 283.163 166.068 282.737C165.256 282.271 164.501 281.714 163.817 281.076C163.065 280.369 162.398 279.578 161.829 278.717C161.202 277.785 160.682 276.786 160.278 275.738C159.836 274.571 159.543 273.352 159.407 272.112C159.244 270.717 159.244 269.309 159.409 267.915ZM168.622 273.948L170.265 259.371C170.305 259.012 170.335 258.724 170.354 258.507C170.372 258.221 170.372 257.933 170.354 257.647C170.342 257.344 170.294 257.043 170.213 256.751C170.128 256.489 170.001 256.242 169.838 256.02C169.657 255.769 169.424 255.561 169.155 255.41C168.939 255.27 168.683 255.205 168.425 255.223C168.24 255.242 168.068 255.328 167.943 255.466C167.797 255.654 167.69 255.87 167.63 256.1C167.548 256.344 167.485 256.594 167.443 256.848C167.413 257.06 167.377 257.344 167.338 257.705L165.694 272.28C165.596 272.977 165.686 273.687 165.955 274.337C166.217 274.934 166.529 275.335 166.893 275.54C167.056 275.64 167.246 275.688 167.438 275.678C167.629 275.667 167.813 275.598 167.964 275.48C168.313 275.227 168.536 274.721 168.622 273.948Z" fill="white"/>
<path d="M193.444 285.298L192.731 291.613L191.555 290.941L190.923 296.552L184.72 293.012L185.352 287.401L176.244 282.201L176.876 276.671L185.272 258.217L194.65 263.57L192.275 284.625L193.444 285.298ZM182.738 279.186L186.067 281.085L187.755 266.096L182.738 279.186Z" fill="white"/>
<path d="M283.195 172.723L286.702 202.849L266.944 221.294L264.639 200.739L272.443 205.213L278.858 201.418L283.195 172.723Z" fill="#AAAAAA"/>
<path d="M292.616 253.656L270.967 255.338L272.139 265.445L292.616 253.656Z" fill="#AAAAAA"/>
<path d="M147.792 133.785L148.734 141.881L125.438 128.961L124.449 120.41L147.792 133.785Z" fill="#AAAAAA"/>
</svg>
