<svg width="622" height="24" viewBox="0 0 622 24" fill="none" xmlns="http://www.w3.org/2000/svg">
<path d="M268.782 10.042L271.232 16.58H273.08L268.782 6.71L264.47 16.58H266.332L268.782 10.042ZM272.422 17V18.54H273.99V15.516H263.56V18.54H265.142V17H272.422ZM275.083 13.78C275.083 14.4333 275.233 15.0167 275.531 15.53C275.839 16.034 276.255 16.4307 276.777 16.72C277.309 17 277.902 17.14 278.555 17.14C279.218 17.14 279.811 17 280.333 16.72C280.856 16.4307 281.267 16.034 281.565 15.53C281.873 15.0167 282.027 14.4333 282.027 13.78C282.027 13.1173 281.873 12.534 281.565 12.03C281.267 11.526 280.856 11.134 280.333 10.854C279.811 10.5647 279.218 10.42 278.555 10.42C277.902 10.42 277.309 10.5647 276.777 10.854C276.255 11.134 275.839 11.526 275.531 12.03C275.233 12.534 275.083 13.1173 275.083 13.78ZM276.637 13.78C276.637 13.3787 276.721 13.0287 276.889 12.73C277.057 12.422 277.286 12.184 277.575 12.016C277.865 11.8387 278.191 11.75 278.555 11.75C278.919 11.75 279.246 11.8387 279.535 12.016C279.825 12.184 280.053 12.422 280.221 12.73C280.389 13.0287 280.473 13.3787 280.473 13.78C280.473 14.1813 280.389 14.536 280.221 14.844C280.053 15.1427 279.825 15.3807 279.535 15.558C279.246 15.726 278.919 15.81 278.555 15.81C278.191 15.81 277.865 15.726 277.575 15.558C277.286 15.3807 277.057 15.1427 276.889 14.844C276.721 14.536 276.637 14.1813 276.637 13.78ZM286.528 11.75C286.892 11.75 287.219 11.8387 287.508 12.016C287.797 12.184 288.026 12.422 288.194 12.73C288.362 13.0287 288.446 13.3787 288.446 13.78C288.446 14.1813 288.362 14.536 288.194 14.844C288.026 15.1427 287.797 15.3807 287.508 15.558C287.219 15.726 286.892 15.81 286.528 15.81C286.164 15.81 285.833 15.726 285.534 15.558C285.245 15.3807 285.016 15.1427 284.848 14.844C284.68 14.536 284.596 14.1813 284.596 13.78L282.986 12.94C282.986 13.864 283.14 14.6387 283.448 15.264C283.756 15.8893 284.176 16.3607 284.708 16.678C285.249 16.986 285.856 17.14 286.528 17.14C287.209 17.14 287.807 16.9953 288.32 16.706C288.843 16.4167 289.253 16.02 289.552 15.516C289.851 15.0027 290 14.424 290 13.78C290 13.1267 289.851 12.548 289.552 12.044C289.263 11.54 288.861 11.1433 288.348 10.854C287.835 10.5647 287.251 10.42 286.598 10.42L286.528 11.75ZM283.91 13.78H284.596C284.596 13.4533 284.652 13.164 284.764 12.912C284.885 12.66 285.039 12.45 285.226 12.282C285.413 12.1047 285.618 11.974 285.842 11.89C286.075 11.7967 286.304 11.75 286.528 11.75L286.598 10.42C286.197 10.42 285.828 10.4993 285.492 10.658C285.165 10.8073 284.881 11.0267 284.638 11.316C284.405 11.6053 284.223 11.96 284.092 12.38C283.971 12.7907 283.91 13.2573 283.91 13.78ZM282.986 12.94L284.456 13.71L284.316 12.24C284.316 11.8853 284.349 11.54 284.414 11.204C284.479 10.868 284.596 10.5507 284.764 10.252C284.932 9.944 285.156 9.66867 285.436 9.426C285.725 9.18333 286.085 8.98733 286.514 8.838C287.027 8.66067 287.485 8.43667 287.886 8.166C288.297 7.89533 288.628 7.58267 288.88 7.228C289.132 6.87333 289.281 6.49067 289.328 6.08H287.844C287.779 6.416 287.583 6.72867 287.256 7.018C286.939 7.298 286.463 7.55467 285.828 7.788C285.268 7.99333 284.806 8.25467 284.442 8.572C284.078 8.88933 283.789 9.26267 283.574 9.692C283.359 10.1213 283.205 10.6067 283.112 11.148C283.028 11.6893 282.986 12.2867 282.986 12.94ZM292.398 15.096C292.398 14.872 292.45 14.6807 292.552 14.522C292.664 14.354 292.828 14.228 293.042 14.144C293.266 14.0507 293.537 14.004 293.854 14.004C294.246 14.004 294.592 14.0553 294.89 14.158C295.189 14.2513 295.483 14.4053 295.772 14.62V13.822C295.698 13.7287 295.562 13.6213 295.366 13.5C295.17 13.3787 294.923 13.2713 294.624 13.178C294.335 13.0847 294.004 13.038 293.63 13.038C293.07 13.038 292.58 13.122 292.16 13.29C291.75 13.458 291.432 13.7007 291.208 14.018C290.984 14.326 290.872 14.704 290.872 15.152C290.872 15.5813 290.97 15.9453 291.166 16.244C291.372 16.5427 291.642 16.7667 291.978 16.916C292.324 17.0653 292.706 17.14 293.126 17.14C293.574 17.14 293.98 17.0653 294.344 16.916C294.708 16.7573 294.998 16.5333 295.212 16.244C295.427 15.9453 295.534 15.5907 295.534 15.18L295.31 14.452C295.31 14.8253 295.236 15.1287 295.086 15.362C294.937 15.586 294.732 15.7493 294.47 15.852C294.209 15.9453 293.915 15.992 293.588 15.992C293.374 15.992 293.173 15.9593 292.986 15.894C292.809 15.8287 292.664 15.7307 292.552 15.6C292.45 15.46 292.398 15.292 292.398 15.096ZM292.062 12.268C292.165 12.1933 292.31 12.1093 292.496 12.016C292.692 11.9133 292.921 11.8247 293.182 11.75C293.444 11.6753 293.728 11.638 294.036 11.638C294.27 11.638 294.48 11.6753 294.666 11.75C294.862 11.8247 295.016 11.932 295.128 12.072C295.25 12.2027 295.31 12.3707 295.31 12.576V17H296.794V12.408C296.794 12.0907 296.729 11.8107 296.598 11.568C296.468 11.316 296.281 11.106 296.038 10.938C295.805 10.7607 295.52 10.63 295.184 10.546C294.858 10.4527 294.498 10.406 294.106 10.406C293.528 10.406 293.014 10.49 292.566 10.658C292.128 10.826 291.759 10.9987 291.46 11.176L292.062 12.268ZM299.522 13.64V14.298H301.384C301.571 14.298 301.729 14.3213 301.86 14.368C301.991 14.4053 302.098 14.4613 302.182 14.536C302.275 14.6013 302.341 14.6807 302.378 14.774C302.425 14.8673 302.448 14.97 302.448 15.082C302.448 15.2967 302.359 15.4833 302.182 15.642C302.014 15.8007 301.748 15.88 301.384 15.88H299.522V17H301.846C302.583 17 303.111 16.832 303.428 16.496C303.755 16.1507 303.918 15.7353 303.918 15.25C303.918 14.83 303.815 14.5033 303.61 14.27C303.405 14.0367 303.125 13.8733 302.77 13.78C302.415 13.6867 302.014 13.64 301.566 13.64H299.522ZM299.522 13.92H301.426C301.827 13.92 302.191 13.864 302.518 13.752C302.854 13.6307 303.125 13.4533 303.33 13.22C303.535 12.9773 303.638 12.674 303.638 12.31C303.638 11.89 303.535 11.554 303.33 11.302C303.125 11.0407 302.854 10.854 302.518 10.742C302.191 10.6207 301.827 10.56 301.426 10.56H299.522V11.68H301.244C301.431 11.68 301.594 11.7127 301.734 11.778C301.874 11.8433 301.981 11.932 302.056 12.044C302.131 12.1467 302.168 12.2727 302.168 12.422C302.168 12.534 302.145 12.6367 302.098 12.73C302.061 12.8233 302 12.9073 301.916 12.982C301.832 13.0473 301.734 13.0987 301.622 13.136C301.51 13.1733 301.384 13.192 301.244 13.192H299.522V13.92ZM298.64 10.56V17H300.124V10.56H298.64ZM311.134 11.96L311.204 10.07L305.408 15.6L305.338 17.49L311.134 11.96ZM306.836 10.56H305.338V17.49L306.836 15.782V10.56ZM311.204 10.07L309.72 11.778V17H311.204V10.07ZM312.289 10.56V11.89H316.363V10.56H312.289ZM313.591 10.84V17H315.075V10.84H313.591ZM317.424 10.56V17H318.95V10.56H317.424ZM318.488 14.032H320.336C320.56 14.032 320.746 14.0693 320.896 14.144C321.054 14.2093 321.171 14.3073 321.246 14.438C321.33 14.5593 321.372 14.7087 321.372 14.886C321.372 15.0633 321.33 15.2173 321.246 15.348C321.171 15.4787 321.054 15.5813 320.896 15.656C320.746 15.7213 320.56 15.754 320.336 15.754H318.488V17H320.49C320.938 17 321.339 16.9207 321.694 16.762C322.048 16.6033 322.328 16.3653 322.534 16.048C322.739 15.7307 322.842 15.3433 322.842 14.886C322.842 14.4193 322.739 14.0413 322.534 13.752C322.328 13.4533 322.048 13.234 321.694 13.094C321.339 12.954 320.938 12.884 320.49 12.884H318.488V14.032ZM329.655 13.64V14.298H331.517C331.703 14.298 331.862 14.3213 331.993 14.368C332.123 14.4053 332.231 14.4613 332.315 14.536C332.408 14.6013 332.473 14.6807 332.511 14.774C332.557 14.8673 332.581 14.97 332.581 15.082C332.581 15.2967 332.492 15.4833 332.315 15.642C332.147 15.8007 331.881 15.88 331.517 15.88H329.655V17H331.979C332.716 17 333.243 16.832 333.561 16.496C333.887 16.1507 334.051 15.7353 334.051 15.25C334.051 14.83 333.948 14.5033 333.743 14.27C333.537 14.0367 333.257 13.8733 332.903 13.78C332.548 13.6867 332.147 13.64 331.699 13.64H329.655ZM329.655 13.92H331.559C331.96 13.92 332.324 13.864 332.651 13.752C332.987 13.6307 333.257 13.4533 333.463 13.22C333.668 12.9773 333.771 12.674 333.771 12.31C333.771 11.89 333.668 11.554 333.463 11.302C333.257 11.0407 332.987 10.854 332.651 10.742C332.324 10.6207 331.96 10.56 331.559 10.56H329.655V11.68H331.377C331.563 11.68 331.727 11.7127 331.867 11.778C332.007 11.8433 332.114 11.932 332.189 12.044C332.263 12.1467 332.301 12.2727 332.301 12.422C332.301 12.534 332.277 12.6367 332.231 12.73C332.193 12.8233 332.133 12.9073 332.049 12.982C331.965 13.0473 331.867 13.0987 331.755 13.136C331.643 13.1733 331.517 13.192 331.377 13.192H329.655V13.92ZM328.773 10.56V17H330.257V10.56H328.773ZM345.464 11.96L345.534 10.07L339.738 15.6L339.668 17.49L345.464 11.96ZM341.166 10.56H339.668V17.49L341.166 15.782V10.56ZM345.534 10.07L344.05 11.778V17H345.534V10.07ZM350.077 13.78C350.627 13.7893 351.089 13.7287 351.463 13.598C351.836 13.458 352.116 13.2667 352.303 13.024C352.499 12.7813 352.597 12.506 352.597 12.198C352.597 11.862 352.489 11.5633 352.275 11.302C352.069 11.0313 351.785 10.8167 351.421 10.658C351.066 10.4993 350.66 10.42 350.203 10.42C349.717 10.42 349.283 10.5133 348.901 10.7C348.527 10.8867 348.233 11.1433 348.019 11.47C347.804 11.7873 347.697 12.1467 347.697 12.548H349.153C349.153 12.3987 349.19 12.2587 349.265 12.128C349.349 11.988 349.47 11.8713 349.629 11.778C349.787 11.6847 349.983 11.638 350.217 11.638C350.413 11.638 350.576 11.666 350.707 11.722C350.847 11.778 350.954 11.862 351.029 11.974C351.103 12.0767 351.141 12.2027 351.141 12.352C351.141 12.5573 351.057 12.7347 350.889 12.884C350.721 13.0333 350.45 13.108 350.077 13.108V13.78ZM350.175 17.14C350.679 17.14 351.136 17.0607 351.547 16.902C351.957 16.734 352.279 16.496 352.513 16.188C352.755 15.88 352.877 15.5207 352.877 15.11C352.877 14.718 352.765 14.3913 352.541 14.13C352.317 13.8687 351.995 13.6727 351.575 13.542C351.155 13.4113 350.655 13.3507 350.077 13.36V14.102C350.366 14.102 350.609 14.1393 350.805 14.214C351.01 14.2887 351.164 14.396 351.267 14.536C351.369 14.676 351.421 14.844 351.421 15.04C351.421 15.2267 351.369 15.39 351.267 15.53C351.164 15.6607 351.019 15.7633 350.833 15.838C350.655 15.9127 350.436 15.95 350.175 15.95C349.773 15.95 349.47 15.8473 349.265 15.642C349.069 15.4367 348.938 15.1893 348.873 14.9H347.389C347.463 15.5533 347.739 16.09 348.215 16.51C348.7 16.93 349.353 17.14 350.175 17.14ZM357.54 11.75C357.904 11.75 358.23 11.8387 358.52 12.016C358.809 12.184 359.038 12.422 359.206 12.73C359.374 13.0287 359.458 13.3787 359.458 13.78C359.458 14.1813 359.374 14.536 359.206 14.844C359.038 15.1427 358.809 15.3807 358.52 15.558C358.23 15.726 357.904 15.81 357.54 15.81C357.176 15.81 356.844 15.726 356.546 15.558C356.256 15.3807 356.028 15.1427 355.86 14.844C355.692 14.536 355.608 14.1813 355.608 13.78L353.998 12.94C353.998 13.864 354.152 14.6387 354.46 15.264C354.768 15.8893 355.188 16.3607 355.72 16.678C356.261 16.986 356.868 17.14 357.54 17.14C358.221 17.14 358.818 16.9953 359.332 16.706C359.854 16.4167 360.265 16.02 360.564 15.516C360.862 15.0027 361.012 14.424 361.012 13.78C361.012 13.1267 360.862 12.548 360.564 12.044C360.274 11.54 359.873 11.1433 359.36 10.854C358.846 10.5647 358.263 10.42 357.61 10.42L357.54 11.75ZM354.922 13.78H355.608C355.608 13.4533 355.664 13.164 355.776 12.912C355.897 12.66 356.051 12.45 356.238 12.282C356.424 12.1047 356.63 11.974 356.854 11.89C357.087 11.7967 357.316 11.75 357.54 11.75L357.61 10.42C357.208 10.42 356.84 10.4993 356.504 10.658C356.177 10.8073 355.892 11.0267 355.65 11.316C355.416 11.6053 355.234 11.96 355.104 12.38C354.982 12.7907 354.922 13.2573 354.922 13.78ZM353.998 12.94L355.468 13.71L355.328 12.24C355.328 11.8853 355.36 11.54 355.426 11.204C355.491 10.868 355.608 10.5507 355.776 10.252C355.944 9.944 356.168 9.66867 356.448 9.426C356.737 9.18333 357.096 8.98733 357.526 8.838C358.039 8.66067 358.496 8.43667 358.898 8.166C359.308 7.89533 359.64 7.58267 359.892 7.228C360.144 6.87333 360.293 6.49067 360.34 6.08H358.856C358.79 6.416 358.594 6.72867 358.268 7.018C357.95 7.298 357.474 7.55467 356.84 7.788C356.28 7.99333 355.818 8.25467 355.454 8.572C355.09 8.88933 354.8 9.26267 354.586 9.692C354.371 10.1213 354.217 10.6067 354.124 11.148C354.04 11.6893 353.998 12.2867 353.998 12.94ZM363.928 20.08V10.56H362.402V20.08H363.928ZM369.262 13.78C369.262 13.0613 369.118 12.45 368.828 11.946C368.539 11.442 368.156 11.0593 367.68 10.798C367.204 10.5273 366.686 10.392 366.126 10.392C365.716 10.392 365.342 10.4713 365.006 10.63C364.68 10.7887 364.395 11.0173 364.152 11.316C363.919 11.6053 363.737 11.96 363.606 12.38C363.485 12.7907 363.424 13.2573 363.424 13.78C363.424 14.3027 363.485 14.774 363.606 15.194C363.737 15.6047 363.919 15.9593 364.152 16.258C364.395 16.5473 364.68 16.7713 365.006 16.93C365.342 17.0887 365.716 17.168 366.126 17.168C366.686 17.168 367.204 17.0373 367.68 16.776C368.156 16.5053 368.539 16.118 368.828 15.614C369.118 15.11 369.262 14.4987 369.262 13.78ZM367.694 13.78C367.694 14.2093 367.606 14.5733 367.428 14.872C367.251 15.1707 367.018 15.3993 366.728 15.558C366.439 15.7167 366.117 15.796 365.762 15.796C365.548 15.796 365.328 15.754 365.104 15.67C364.89 15.5767 364.694 15.446 364.516 15.278C364.339 15.11 364.194 14.9 364.082 14.648C363.98 14.396 363.928 14.1067 363.928 13.78C363.928 13.4533 363.98 13.164 364.082 12.912C364.194 12.66 364.339 12.45 364.516 12.282C364.694 12.114 364.89 11.988 365.104 11.904C365.328 11.8107 365.548 11.764 365.762 11.764C366.117 11.764 366.439 11.8433 366.728 12.002C367.018 12.1607 367.251 12.3893 367.428 12.688C367.606 12.9867 367.694 13.3507 367.694 13.78ZM371.641 15.096C371.641 14.872 371.692 14.6807 371.795 14.522C371.907 14.354 372.07 14.228 372.285 14.144C372.509 14.0507 372.779 14.004 373.097 14.004C373.489 14.004 373.834 14.0553 374.133 14.158C374.431 14.2513 374.725 14.4053 375.015 14.62V13.822C374.94 13.7287 374.805 13.6213 374.609 13.5C374.413 13.3787 374.165 13.2713 373.867 13.178C373.577 13.0847 373.246 13.038 372.873 13.038C372.313 13.038 371.823 13.122 371.403 13.29C370.992 13.458 370.675 13.7007 370.451 14.018C370.227 14.326 370.115 14.704 370.115 15.152C370.115 15.5813 370.213 15.9453 370.409 16.244C370.614 16.5427 370.885 16.7667 371.221 16.916C371.566 17.0653 371.949 17.14 372.369 17.14C372.817 17.14 373.223 17.0653 373.587 16.916C373.951 16.7573 374.24 16.5333 374.455 16.244C374.669 15.9453 374.777 15.5907 374.777 15.18L374.553 14.452C374.553 14.8253 374.478 15.1287 374.329 15.362C374.179 15.586 373.974 15.7493 373.713 15.852C373.451 15.9453 373.157 15.992 372.831 15.992C372.616 15.992 372.415 15.9593 372.229 15.894C372.051 15.8287 371.907 15.7307 371.795 15.6C371.692 15.46 371.641 15.292 371.641 15.096ZM371.305 12.268C371.407 12.1933 371.552 12.1093 371.739 12.016C371.935 11.9133 372.163 11.8247 372.425 11.75C372.686 11.6753 372.971 11.638 373.279 11.638C373.512 11.638 373.722 11.6753 373.909 11.75C374.105 11.8247 374.259 11.932 374.371 12.072C374.492 12.2027 374.553 12.3707 374.553 12.576V17H376.037V12.408C376.037 12.0907 375.971 11.8107 375.841 11.568C375.71 11.316 375.523 11.106 375.281 10.938C375.047 10.7607 374.763 10.63 374.427 10.546C374.1 10.4527 373.741 10.406 373.349 10.406C372.77 10.406 372.257 10.49 371.809 10.658C371.37 10.826 371.001 10.9987 370.703 11.176L371.305 12.268ZM378.456 14.242H383.384V12.968H378.456V14.242ZM382.572 10.56V17H384.056V10.56H382.572ZM377.798 10.56V17H379.282V10.56H377.798ZM386.645 14.242H391.573V12.968H386.645V14.242ZM390.761 10.56V17H392.245V10.56H390.761ZM385.987 10.56V17H387.471V10.56H385.987ZM393.687 13.78C393.687 14.4333 393.836 15.0167 394.135 15.53C394.443 16.034 394.858 16.4307 395.381 16.72C395.913 17 396.506 17.14 397.159 17.14C397.822 17.14 398.414 17 398.937 16.72C399.46 16.4307 399.87 16.034 400.169 15.53C400.477 15.0167 400.631 14.4333 400.631 13.78C400.631 13.1173 400.477 12.534 400.169 12.03C399.87 11.526 399.46 11.134 398.937 10.854C398.414 10.5647 397.822 10.42 397.159 10.42C396.506 10.42 395.913 10.5647 395.381 10.854C394.858 11.134 394.443 11.526 394.135 12.03C393.836 12.534 393.687 13.1173 393.687 13.78ZM395.241 13.78C395.241 13.3787 395.325 13.0287 395.493 12.73C395.661 12.422 395.89 12.184 396.179 12.016C396.468 11.8387 396.795 11.75 397.159 11.75C397.523 11.75 397.85 11.8387 398.139 12.016C398.428 12.184 398.657 12.422 398.825 12.73C398.993 13.0287 399.077 13.3787 399.077 13.78C399.077 14.1813 398.993 14.536 398.825 14.844C398.657 15.1427 398.428 15.3807 398.139 15.558C397.85 15.726 397.523 15.81 397.159 15.81C396.795 15.81 396.468 15.726 396.179 15.558C395.89 15.3807 395.661 15.1427 395.493 14.844C395.325 14.536 395.241 14.1813 395.241 13.78ZM402.472 14.13H408.142C408.151 14.0553 408.156 13.9807 408.156 13.906C408.156 13.8313 408.156 13.766 408.156 13.71C408.156 13.0287 408.025 12.4453 407.764 11.96C407.502 11.4653 407.129 11.0873 406.644 10.826C406.168 10.5553 405.598 10.42 404.936 10.42C404.329 10.42 403.792 10.532 403.326 10.756C402.859 10.98 402.481 11.2927 402.192 11.694C401.912 12.0953 401.725 12.562 401.632 13.094C401.613 13.206 401.599 13.318 401.59 13.43C401.58 13.542 401.576 13.6587 401.576 13.78C401.576 14.424 401.711 15.0027 401.982 15.516C402.252 16.02 402.635 16.4167 403.13 16.706C403.624 16.9953 404.203 17.14 404.866 17.14C405.444 17.14 405.934 17.07 406.336 16.93C406.737 16.7807 407.078 16.5753 407.358 16.314C407.638 16.0433 407.885 15.7353 408.1 15.39L406.784 14.872C406.662 15.0773 406.513 15.2593 406.336 15.418C406.158 15.5673 405.953 15.684 405.72 15.768C405.486 15.852 405.225 15.894 404.936 15.894C404.572 15.894 404.25 15.8193 403.97 15.67C403.699 15.5113 403.489 15.2733 403.34 14.956C403.19 14.6387 403.116 14.2467 403.116 13.78L403.144 13.388C403.144 13.0053 403.223 12.6787 403.382 12.408C403.54 12.1373 403.75 11.932 404.012 11.792C404.282 11.6427 404.586 11.568 404.922 11.568C405.248 11.568 405.524 11.6333 405.748 11.764C405.972 11.8853 406.144 12.058 406.266 12.282C406.396 12.506 406.48 12.772 406.518 13.08H402.472V14.13Z" fill="white"/>
<path d="M34.324 12.1C34.324 11.5773 34.4127 11.106 34.59 10.686C34.7673 10.2567 35.01 9.89267 35.318 9.594C35.6353 9.286 35.9947 9.05267 36.396 8.894C36.7973 8.726 37.222 8.642 37.67 8.642C38.1367 8.642 38.5567 8.70267 38.93 8.824C39.3127 8.94533 39.6533 9.11333 39.952 9.328C40.2507 9.53333 40.512 9.77133 40.736 10.042V8.068C40.3347 7.732 39.8913 7.47533 39.406 7.298C38.93 7.12067 38.3327 7.032 37.614 7.032C36.8953 7.032 36.228 7.158 35.612 7.41C34.996 7.65267 34.4547 7.998 33.988 8.446C33.5307 8.894 33.1713 9.43067 32.91 10.056C32.658 10.672 32.532 11.3533 32.532 12.1C32.532 12.8467 32.658 13.5327 32.91 14.158C33.1713 14.774 33.5307 15.306 33.988 15.754C34.4547 16.202 34.996 16.552 35.612 16.804C36.228 17.0467 36.8953 17.168 37.614 17.168C38.3327 17.168 38.93 17.0793 39.406 16.902C39.8913 16.7247 40.3347 16.468 40.736 16.132V14.158C40.512 14.4193 40.2507 14.6573 39.952 14.872C39.6533 15.0867 39.3127 15.2547 38.93 15.376C38.5567 15.4973 38.1367 15.558 37.67 15.558C37.222 15.558 36.7973 15.4787 36.396 15.32C35.9947 15.152 35.6353 14.9187 35.318 14.62C35.01 14.312 34.7673 13.948 34.59 13.528C34.4127 13.0987 34.324 12.6227 34.324 12.1ZM44.1157 20.08V10.56H42.5897V20.08H44.1157ZM49.4497 13.78C49.4497 13.0613 49.305 12.45 49.0157 11.946C48.7264 11.442 48.3437 11.0593 47.8677 10.798C47.3917 10.5273 46.8737 10.392 46.3137 10.392C45.903 10.392 45.5297 10.4713 45.1937 10.63C44.867 10.7887 44.5824 11.0173 44.3397 11.316C44.1064 11.6053 43.9244 11.96 43.7937 12.38C43.6724 12.7907 43.6117 13.2573 43.6117 13.78C43.6117 14.3027 43.6724 14.774 43.7937 15.194C43.9244 15.6047 44.1064 15.9593 44.3397 16.258C44.5824 16.5473 44.867 16.7713 45.1937 16.93C45.5297 17.0887 45.903 17.168 46.3137 17.168C46.8737 17.168 47.3917 17.0373 47.8677 16.776C48.3437 16.5053 48.7264 16.118 49.0157 15.614C49.305 15.11 49.4497 14.4987 49.4497 13.78ZM47.8817 13.78C47.8817 14.2093 47.793 14.5733 47.6157 14.872C47.4384 15.1707 47.205 15.3993 46.9157 15.558C46.6264 15.7167 46.3044 15.796 45.9497 15.796C45.735 15.796 45.5157 15.754 45.2917 15.67C45.077 15.5767 44.881 15.446 44.7037 15.278C44.5264 15.11 44.3817 14.9 44.2697 14.648C44.167 14.396 44.1157 14.1067 44.1157 13.78C44.1157 13.4533 44.167 13.164 44.2697 12.912C44.3817 12.66 44.5264 12.45 44.7037 12.282C44.881 12.114 45.077 11.988 45.2917 11.904C45.5157 11.8107 45.735 11.764 45.9497 11.764C46.3044 11.764 46.6264 11.8433 46.9157 12.002C47.205 12.1607 47.4384 12.3893 47.6157 12.688C47.793 12.9867 47.8817 13.3507 47.8817 13.78ZM51.8282 15.096C51.8282 14.872 51.8795 14.6807 51.9822 14.522C52.0942 14.354 52.2575 14.228 52.4722 14.144C52.6962 14.0507 52.9668 14.004 53.2842 14.004C53.6762 14.004 54.0215 14.0553 54.3202 14.158C54.6188 14.2513 54.9128 14.4053 55.2022 14.62V13.822C55.1275 13.7287 54.9922 13.6213 54.7962 13.5C54.6002 13.3787 54.3528 13.2713 54.0542 13.178C53.7648 13.0847 53.4335 13.038 53.0602 13.038C52.5002 13.038 52.0102 13.122 51.5902 13.29C51.1795 13.458 50.8622 13.7007 50.6382 14.018C50.4142 14.326 50.3022 14.704 50.3022 15.152C50.3022 15.5813 50.4002 15.9453 50.5962 16.244C50.8015 16.5427 51.0722 16.7667 51.4082 16.916C51.7535 17.0653 52.1362 17.14 52.5562 17.14C53.0042 17.14 53.4102 17.0653 53.7742 16.916C54.1382 16.7573 54.4275 16.5333 54.6422 16.244C54.8568 15.9453 54.9642 15.5907 54.9642 15.18L54.7402 14.452C54.7402 14.8253 54.6655 15.1287 54.5162 15.362C54.3668 15.586 54.1615 15.7493 53.9002 15.852C53.6388 15.9453 53.3448 15.992 53.0182 15.992C52.8035 15.992 52.6028 15.9593 52.4162 15.894C52.2388 15.8287 52.0942 15.7307 51.9822 15.6C51.8795 15.46 51.8282 15.292 51.8282 15.096ZM51.4922 12.268C51.5948 12.1933 51.7395 12.1093 51.9262 12.016C52.1222 11.9133 52.3508 11.8247 52.6122 11.75C52.8735 11.6753 53.1582 11.638 53.4662 11.638C53.6995 11.638 53.9095 11.6753 54.0962 11.75C54.2922 11.8247 54.4462 11.932 54.5582 12.072C54.6795 12.2027 54.7402 12.3707 54.7402 12.576V17H56.2242V12.408C56.2242 12.0907 56.1588 11.8107 56.0282 11.568C55.8975 11.316 55.7108 11.106 55.4682 10.938C55.2348 10.7607 54.9502 10.63 54.6142 10.546C54.2875 10.4527 53.9282 10.406 53.5362 10.406C52.9575 10.406 52.4442 10.49 51.9962 10.658C51.5575 10.826 51.1888 10.9987 50.8902 11.176L51.4922 12.268ZM58.9515 13.64V14.298H60.8135C61.0002 14.298 61.1589 14.3213 61.2895 14.368C61.4202 14.4053 61.5275 14.4613 61.6115 14.536C61.7049 14.6013 61.7702 14.6807 61.8075 14.774C61.8542 14.8673 61.8775 14.97 61.8775 15.082C61.8775 15.2967 61.7889 15.4833 61.6115 15.642C61.4435 15.8007 61.1775 15.88 60.8135 15.88H58.9515V17H61.2755C62.0129 17 62.5402 16.832 62.8575 16.496C63.1842 16.1507 63.3475 15.7353 63.3475 15.25C63.3475 14.83 63.2449 14.5033 63.0395 14.27C62.8342 14.0367 62.5542 13.8733 62.1995 13.78C61.8449 13.6867 61.4435 13.64 60.9955 13.64H58.9515ZM58.9515 13.92H60.8555C61.2569 13.92 61.6209 13.864 61.9475 13.752C62.2835 13.6307 62.5542 13.4533 62.7595 13.22C62.9649 12.9773 63.0675 12.674 63.0675 12.31C63.0675 11.89 62.9649 11.554 62.7595 11.302C62.5542 11.0407 62.2835 10.854 61.9475 10.742C61.6209 10.6207 61.2569 10.56 60.8555 10.56H58.9515V11.68H60.6735C60.8602 11.68 61.0235 11.7127 61.1635 11.778C61.3035 11.8433 61.4109 11.932 61.4855 12.044C61.5602 12.1467 61.5975 12.2727 61.5975 12.422C61.5975 12.534 61.5742 12.6367 61.5275 12.73C61.4902 12.8233 61.4295 12.9073 61.3455 12.982C61.2615 13.0473 61.1635 13.0987 61.0515 13.136C60.9395 13.1733 60.8135 13.192 60.6735 13.192H58.9515V13.92ZM58.0695 10.56V17H59.5535V10.56H58.0695ZM65.3838 14.242H70.3118V12.968H65.3838V14.242ZM69.4998 10.56V17H70.9838V10.56H69.4998ZM64.7258 10.56V17H66.2098V10.56H64.7258ZM78.7532 11.96L78.8232 10.07L73.0272 15.6L72.9572 17.49L78.7532 11.96ZM74.4552 10.56H72.9572V17.49L74.4552 15.782V10.56ZM78.8232 10.07L77.3392 11.778V17H78.8232V10.07ZM79.9079 10.56V11.89H83.9819V10.56H79.9079ZM81.2099 10.84V17H82.6939V10.84H81.2099ZM85.0428 10.56V17H86.5688V10.56H85.0428ZM86.1068 14.032H87.9548C88.1788 14.032 88.3655 14.0693 88.5148 14.144C88.6735 14.2093 88.7902 14.3073 88.8648 14.438C88.9488 14.5593 88.9908 14.7087 88.9908 14.886C88.9908 15.0633 88.9488 15.2173 88.8648 15.348C88.7902 15.4787 88.6735 15.5813 88.5148 15.656C88.3655 15.7213 88.1788 15.754 87.9548 15.754H86.1068V17H88.1088C88.5568 17 88.9582 16.9207 89.3128 16.762C89.6675 16.6033 89.9475 16.3653 90.1528 16.048C90.3582 15.7307 90.4608 15.3433 90.4608 14.886C90.4608 14.4193 90.3582 14.0413 90.1528 13.752C89.9475 13.4533 89.6675 13.234 89.3128 13.094C88.9582 12.954 88.5568 12.884 88.1088 12.884H86.1068V14.032ZM97.3158 13.78C97.3158 13.3787 97.4045 13.024 97.5818 12.716C97.7591 12.408 97.9971 12.1653 98.2958 11.988C98.6038 11.8107 98.9445 11.722 99.3178 11.722C99.6165 11.722 99.9058 11.7687 100.186 11.862C100.466 11.9553 100.713 12.086 100.928 12.254C101.152 12.4127 101.315 12.5993 101.418 12.814V11.134C101.194 10.9193 100.89 10.7467 100.508 10.616C100.125 10.4853 99.7051 10.42 99.2478 10.42C98.5851 10.42 97.9878 10.5647 97.4558 10.854C96.9331 11.134 96.5178 11.526 96.2098 12.03C95.9111 12.534 95.7618 13.1173 95.7618 13.78C95.7618 14.4333 95.9111 15.0167 96.2098 15.53C96.5178 16.034 96.9331 16.4307 97.4558 16.72C97.9878 17 98.5851 17.14 99.2478 17.14C99.7051 17.14 100.125 17.0793 100.508 16.958C100.89 16.8273 101.194 16.6453 101.418 16.412V14.746C101.315 14.9513 101.156 15.138 100.942 15.306C100.727 15.474 100.48 15.6047 100.2 15.698C99.9198 15.7913 99.6258 15.838 99.3178 15.838C98.9445 15.838 98.6038 15.754 98.2958 15.586C97.9971 15.4087 97.7591 15.166 97.5818 14.858C97.4045 14.5407 97.3158 14.1813 97.3158 13.78ZM107.23 10.56V17H108.714V10.56H107.23ZM111.08 10.56L108.308 13.22L111.374 17H113.208L110.156 13.22L112.928 10.56H111.08ZM113.509 13.78C113.509 14.4333 113.659 15.0167 113.957 15.53C114.265 16.034 114.681 16.4307 115.203 16.72C115.735 17 116.328 17.14 116.981 17.14C117.644 17.14 118.237 17 118.759 16.72C119.282 16.4307 119.693 16.034 119.991 15.53C120.299 15.0167 120.453 14.4333 120.453 13.78C120.453 13.1173 120.299 12.534 119.991 12.03C119.693 11.526 119.282 11.134 118.759 10.854C118.237 10.5647 117.644 10.42 116.981 10.42C116.328 10.42 115.735 10.5647 115.203 10.854C114.681 11.134 114.265 11.526 113.957 12.03C113.659 12.534 113.509 13.1173 113.509 13.78ZM115.063 13.78C115.063 13.3787 115.147 13.0287 115.315 12.73C115.483 12.422 115.712 12.184 116.001 12.016C116.291 11.8387 116.617 11.75 116.981 11.75C117.345 11.75 117.672 11.8387 117.961 12.016C118.251 12.184 118.479 12.422 118.647 12.73C118.815 13.0287 118.899 13.3787 118.899 13.78C118.899 14.1813 118.815 14.536 118.647 14.844C118.479 15.1427 118.251 15.3807 117.961 15.558C117.672 15.726 117.345 15.81 116.981 15.81C116.617 15.81 116.291 15.726 116.001 15.558C115.712 15.3807 115.483 15.1427 115.315 14.844C115.147 14.536 115.063 14.1813 115.063 13.78ZM122.546 14.242H127.474V12.968H122.546V14.242ZM126.662 10.56V17H128.146V10.56H126.662ZM121.888 10.56V17H123.372V10.56H121.888ZM130.021 10.56V17H131.505V10.56H130.021ZM133.871 10.56L131.099 13.22L134.165 17H135.999L132.947 13.22L135.719 10.56H133.871ZM142.898 10.56H141.274L139.258 15.614L139.972 15.656L137.914 10.56H136.178L138.782 16.244L137.088 20.08H138.698L142.898 10.56ZM145.274 20.08V10.56H143.748V20.08H145.274ZM150.608 13.78C150.608 13.0613 150.463 12.45 150.174 11.946C149.885 11.442 149.502 11.0593 149.026 10.798C148.55 10.5273 148.032 10.392 147.472 10.392C147.061 10.392 146.688 10.4713 146.352 10.63C146.025 10.7887 145.741 11.0173 145.498 11.316C145.265 11.6053 145.083 11.96 144.952 12.38C144.831 12.7907 144.77 13.2573 144.77 13.78C144.77 14.3027 144.831 14.774 144.952 15.194C145.083 15.6047 145.265 15.9593 145.498 16.258C145.741 16.5473 146.025 16.7713 146.352 16.93C146.688 17.0887 147.061 17.168 147.472 17.168C148.032 17.168 148.55 17.0373 149.026 16.776C149.502 16.5053 149.885 16.118 150.174 15.614C150.463 15.11 150.608 14.4987 150.608 13.78ZM149.04 13.78C149.04 14.2093 148.951 14.5733 148.774 14.872C148.597 15.1707 148.363 15.3993 148.074 15.558C147.785 15.7167 147.463 15.796 147.108 15.796C146.893 15.796 146.674 15.754 146.45 15.67C146.235 15.5767 146.039 15.446 145.862 15.278C145.685 15.11 145.54 14.9 145.428 14.648C145.325 14.396 145.274 14.1067 145.274 13.78C145.274 13.4533 145.325 13.164 145.428 12.912C145.54 12.66 145.685 12.45 145.862 12.282C146.039 12.114 146.235 11.988 146.45 11.904C146.674 11.8107 146.893 11.764 147.108 11.764C147.463 11.764 147.785 11.8433 148.074 12.002C148.363 12.1607 148.597 12.3893 148.774 12.688C148.951 12.9867 149.04 13.3507 149.04 13.78ZM152.44 14.13H158.11C158.12 14.0553 158.124 13.9807 158.124 13.906C158.124 13.8313 158.124 13.766 158.124 13.71C158.124 13.0287 157.994 12.4453 157.732 11.96C157.471 11.4653 157.098 11.0873 156.612 10.826C156.136 10.5553 155.567 10.42 154.904 10.42C154.298 10.42 153.761 10.532 153.294 10.756C152.828 10.98 152.45 11.2927 152.16 11.694C151.88 12.0953 151.694 12.562 151.6 13.094C151.582 13.206 151.568 13.318 151.558 13.43C151.549 13.542 151.544 13.6587 151.544 13.78C151.544 14.424 151.68 15.0027 151.95 15.516C152.221 16.02 152.604 16.4167 153.098 16.706C153.593 16.9953 154.172 17.14 154.834 17.14C155.413 17.14 155.903 17.07 156.304 16.93C156.706 16.7807 157.046 16.5753 157.326 16.314C157.606 16.0433 157.854 15.7353 158.068 15.39L156.752 14.872C156.631 15.0773 156.482 15.2593 156.304 15.418C156.127 15.5673 155.922 15.684 155.688 15.768C155.455 15.852 155.194 15.894 154.904 15.894C154.54 15.894 154.218 15.8193 153.938 15.67C153.668 15.5113 153.458 15.2733 153.308 14.956C153.159 14.6387 153.084 14.2467 153.084 13.78L153.112 13.388C153.112 13.0053 153.192 12.6787 153.35 12.408C153.509 12.1373 153.719 11.932 153.98 11.792C154.251 11.6427 154.554 11.568 154.89 11.568C155.217 11.568 155.492 11.6333 155.716 11.764C155.94 11.8853 156.113 12.058 156.234 12.282C156.365 12.506 156.449 12.772 156.486 13.08H152.44V14.13ZM160.239 14.242H165.167V12.968H160.239V14.242ZM164.355 10.56V17H165.839V10.56H164.355ZM159.581 10.56V17H161.065V10.56H159.581ZM166.875 10.56V11.89H170.949V10.56H166.875ZM168.177 10.84V17H169.661V10.84H168.177ZM172.934 15.096C172.934 14.872 172.985 14.6807 173.088 14.522C173.2 14.354 173.363 14.228 173.578 14.144C173.802 14.0507 174.072 14.004 174.39 14.004C174.782 14.004 175.127 14.0553 175.426 14.158C175.724 14.2513 176.018 14.4053 176.308 14.62V13.822C176.233 13.7287 176.098 13.6213 175.902 13.5C175.706 13.3787 175.458 13.2713 175.16 13.178C174.87 13.0847 174.539 13.038 174.166 13.038C173.606 13.038 173.116 13.122 172.696 13.29C172.285 13.458 171.968 13.7007 171.744 14.018C171.52 14.326 171.408 14.704 171.408 15.152C171.408 15.5813 171.506 15.9453 171.702 16.244C171.907 16.5427 172.178 16.7667 172.514 16.916C172.859 17.0653 173.242 17.14 173.662 17.14C174.11 17.14 174.516 17.0653 174.88 16.916C175.244 16.7573 175.533 16.5333 175.748 16.244C175.962 15.9453 176.07 15.5907 176.07 15.18L175.846 14.452C175.846 14.8253 175.771 15.1287 175.622 15.362C175.472 15.586 175.267 15.7493 175.006 15.852C174.744 15.9453 174.45 15.992 174.124 15.992C173.909 15.992 173.708 15.9593 173.522 15.894C173.344 15.8287 173.2 15.7307 173.088 15.6C172.985 15.46 172.934 15.292 172.934 15.096ZM172.598 12.268C172.7 12.1933 172.845 12.1093 173.032 12.016C173.228 11.9133 173.456 11.8247 173.718 11.75C173.979 11.6753 174.264 11.638 174.572 11.638C174.805 11.638 175.015 11.6753 175.202 11.75C175.398 11.8247 175.552 11.932 175.664 12.072C175.785 12.2027 175.846 12.3707 175.846 12.576V17H177.33V12.408C177.33 12.0907 177.264 11.8107 177.134 11.568C177.003 11.316 176.816 11.106 176.574 10.938C176.34 10.7607 176.056 10.63 175.72 10.546C175.393 10.4527 175.034 10.406 174.642 10.406C174.063 10.406 173.55 10.49 173.102 10.658C172.663 10.826 172.294 10.9987 171.996 11.176L172.598 12.268ZM185.223 17H186.833L185.041 10.07L184.243 12.17L185.223 17ZM182.073 15.684L182.493 17.434L185.181 12.562L185.041 10.07L182.073 15.684ZM182.493 17.434L182.913 15.684L179.987 10.07L179.847 12.562L182.493 17.434ZM178.195 17H179.805L180.785 12.17L179.987 10.07L178.195 17ZM193.706 11.96L193.776 10.07L187.98 15.6L187.91 17.49L193.706 11.96ZM189.408 10.56H187.91V17.49L189.408 15.782V10.56ZM193.776 10.07L192.292 11.778V17H193.776V10.07Z" fill="white"/>
<g clip-path="url(#clip0_92_3022)">
<path d="M247.5 3C250.538 3 253 5.5 253 9C253 16 245.5 20 243 21.5C240.5 20 233 16 233 9C233 5.5 235.5 3 238.5 3C240.36 3 242 4 243 5C244 4 245.64 3 247.5 3ZM243.934 18.604C244.815 18.048 245.61 17.495 246.354 16.903C249.335 14.533 251 11.943 251 9C251 6.64 249.463 5 247.5 5C246.424 5 245.26 5.57 244.414 6.414L243 7.828L241.586 6.414C240.74 5.57 239.576 5 238.5 5C236.56 5 235 6.656 235 9C235 11.944 236.666 14.533 239.645 16.903C240.39 17.495 241.185 18.048 242.066 18.603C242.365 18.792 242.661 18.973 243 19.175C243.339 18.973 243.635 18.792 243.934 18.604Z" fill="white"/>
</g>
<g clip-path="url(#clip1_92_3022)">
<path d="M450 10C448.9 10 448 10.9 448 12C448 13.1 448.9 14 450 14C451.1 14 452 13.1 452 12C452 10.9 451.1 10 450 10ZM464 10C462.9 10 462 10.9 462 12C462 13.1 462.9 14 464 14C465.1 14 466 13.1 466 12C466 10.9 465.1 10 464 10ZM457 10C455.9 10 455 10.9 455 12C455 13.1 455.9 14 457 14C458.1 14 459 13.1 459 12C459 10.9 458.1 10 457 10Z" fill="white"/>
</g>
<path d="M479.324 12.1C479.324 11.5773 479.413 11.106 479.59 10.686C479.767 10.2567 480.01 9.89267 480.318 9.594C480.635 9.286 480.995 9.05267 481.396 8.894C481.797 8.726 482.222 8.642 482.67 8.642C483.137 8.642 483.557 8.70267 483.93 8.824C484.313 8.94533 484.653 9.11333 484.952 9.328C485.251 9.53333 485.512 9.77133 485.736 10.042V8.068C485.335 7.732 484.891 7.47533 484.406 7.298C483.93 7.12067 483.333 7.032 482.614 7.032C481.895 7.032 481.228 7.158 480.612 7.41C479.996 7.65267 479.455 7.998 478.988 8.446C478.531 8.894 478.171 9.43067 477.91 10.056C477.658 10.672 477.532 11.3533 477.532 12.1C477.532 12.8467 477.658 13.5327 477.91 14.158C478.171 14.774 478.531 15.306 478.988 15.754C479.455 16.202 479.996 16.552 480.612 16.804C481.228 17.0467 481.895 17.168 482.614 17.168C483.333 17.168 483.93 17.0793 484.406 16.902C484.891 16.7247 485.335 16.468 485.736 16.132V14.158C485.512 14.4193 485.251 14.6573 484.952 14.872C484.653 15.0867 484.313 15.2547 483.93 15.376C483.557 15.4973 483.137 15.558 482.67 15.558C482.222 15.558 481.797 15.4787 481.396 15.32C480.995 15.152 480.635 14.9187 480.318 14.62C480.01 14.312 479.767 13.948 479.59 13.528C479.413 13.0987 479.324 12.6227 479.324 12.1ZM493.778 17H495.388L493.596 10.07L492.798 12.17L493.778 17ZM490.628 15.684L491.048 17.434L493.736 12.562L493.596 10.07L490.628 15.684ZM491.048 17.434L491.468 15.684L488.542 10.07L488.402 12.562L491.048 17.434ZM486.75 17H488.36L489.34 12.17L488.542 10.07L486.75 17ZM495.933 13.78C495.933 14.4333 496.082 15.0167 496.381 15.53C496.689 16.034 497.104 16.4307 497.627 16.72C498.159 17 498.752 17.14 499.405 17.14C500.068 17.14 500.66 17 501.183 16.72C501.706 16.4307 502.116 16.034 502.415 15.53C502.723 15.0167 502.877 14.4333 502.877 13.78C502.877 13.1173 502.723 12.534 502.415 12.03C502.116 11.526 501.706 11.134 501.183 10.854C500.66 10.5647 500.068 10.42 499.405 10.42C498.752 10.42 498.159 10.5647 497.627 10.854C497.104 11.134 496.689 11.526 496.381 12.03C496.082 12.534 495.933 13.1173 495.933 13.78ZM497.487 13.78C497.487 13.3787 497.571 13.0287 497.739 12.73C497.907 12.422 498.136 12.184 498.425 12.016C498.714 11.8387 499.041 11.75 499.405 11.75C499.769 11.75 500.096 11.8387 500.385 12.016C500.674 12.184 500.903 12.422 501.071 12.73C501.239 13.0287 501.323 13.3787 501.323 13.78C501.323 14.1813 501.239 14.536 501.071 14.844C500.903 15.1427 500.674 15.3807 500.385 15.558C500.096 15.726 499.769 15.81 499.405 15.81C499.041 15.81 498.714 15.726 498.425 15.558C498.136 15.3807 497.907 15.1427 497.739 14.844C497.571 14.536 497.487 14.1813 497.487 13.78ZM503.416 10.56V11.89H507.49V10.56H503.416ZM504.718 10.84V17H506.202V10.84H504.718ZM509.993 20.08V10.56H508.467V20.08H509.993ZM515.327 13.78C515.327 13.0613 515.182 12.45 514.893 11.946C514.603 11.442 514.221 11.0593 513.745 10.798C513.269 10.5273 512.751 10.392 512.191 10.392C511.78 10.392 511.407 10.4713 511.071 10.63C510.744 10.7887 510.459 11.0173 510.217 11.316C509.983 11.6053 509.801 11.96 509.671 12.38C509.549 12.7907 509.489 13.2573 509.489 13.78C509.489 14.3027 509.549 14.774 509.671 15.194C509.801 15.6047 509.983 15.9593 510.217 16.258C510.459 16.5473 510.744 16.7713 511.071 16.93C511.407 17.0887 511.78 17.168 512.191 17.168C512.751 17.168 513.269 17.0373 513.745 16.776C514.221 16.5053 514.603 16.118 514.893 15.614C515.182 15.11 515.327 14.4987 515.327 13.78ZM513.759 13.78C513.759 14.2093 513.67 14.5733 513.493 14.872C513.315 15.1707 513.082 15.3993 512.793 15.558C512.503 15.7167 512.181 15.796 511.827 15.796C511.612 15.796 511.393 15.754 511.169 15.67C510.954 15.5767 510.758 15.446 510.581 15.278C510.403 15.11 510.259 14.9 510.147 14.648C510.044 14.396 509.993 14.1067 509.993 13.78C509.993 13.4533 510.044 13.164 510.147 12.912C510.259 12.66 510.403 12.45 510.581 12.282C510.758 12.114 510.954 11.988 511.169 11.904C511.393 11.8107 511.612 11.764 511.827 11.764C512.181 11.764 512.503 11.8433 512.793 12.002C513.082 12.1607 513.315 12.3893 513.493 12.688C513.67 12.9867 513.759 13.3507 513.759 13.78ZM517.159 14.13H522.829C522.838 14.0553 522.843 13.9807 522.843 13.906C522.843 13.8313 522.843 13.766 522.843 13.71C522.843 13.0287 522.712 12.4453 522.451 11.96C522.19 11.4653 521.816 11.0873 521.331 10.826C520.855 10.5553 520.286 10.42 519.623 10.42C519.016 10.42 518.48 10.532 518.013 10.756C517.546 10.98 517.168 11.2927 516.879 11.694C516.599 12.0953 516.412 12.562 516.319 13.094C516.3 13.206 516.286 13.318 516.277 13.43C516.268 13.542 516.263 13.6587 516.263 13.78C516.263 14.424 516.398 15.0027 516.669 15.516C516.94 16.02 517.322 16.4167 517.817 16.706C518.312 16.9953 518.89 17.14 519.553 17.14C520.132 17.14 520.622 17.07 521.023 16.93C521.424 16.7807 521.765 16.5753 522.045 16.314C522.325 16.0433 522.572 15.7353 522.787 15.39L521.471 14.872C521.35 15.0773 521.2 15.2593 521.023 15.418C520.846 15.5673 520.64 15.684 520.407 15.768C520.174 15.852 519.912 15.894 519.623 15.894C519.259 15.894 518.937 15.8193 518.657 15.67C518.386 15.5113 518.176 15.2733 518.027 14.956C517.878 14.6387 517.803 14.2467 517.803 13.78L517.831 13.388C517.831 13.0053 517.91 12.6787 518.069 12.408C518.228 12.1373 518.438 11.932 518.699 11.792C518.97 11.6427 519.273 11.568 519.609 11.568C519.936 11.568 520.211 11.6333 520.435 11.764C520.659 11.8853 520.832 12.058 520.953 12.282C521.084 12.506 521.168 12.772 521.205 13.08H517.159V14.13ZM523.404 10.56V11.89H527.478V10.56H523.404ZM524.706 10.84V17H526.19V10.84H524.706ZM528.539 10.56V17H530.065V10.56H528.539ZM529.603 14.032H531.451C531.675 14.032 531.862 14.0693 532.011 14.144C532.17 14.2093 532.286 14.3073 532.361 14.438C532.445 14.5593 532.487 14.7087 532.487 14.886C532.487 15.0633 532.445 15.2173 532.361 15.348C532.286 15.4787 532.17 15.5813 532.011 15.656C531.862 15.7213 531.675 15.754 531.451 15.754H529.603V17H531.605C532.053 17 532.454 16.9207 532.809 16.762C533.164 16.6033 533.444 16.3653 533.649 16.048C533.854 15.7307 533.957 15.3433 533.957 14.886C533.957 14.4193 533.854 14.0413 533.649 13.752C533.444 13.4533 533.164 13.234 532.809 13.094C532.454 12.954 532.053 12.884 531.605 12.884H529.603V14.032ZM545.502 10.56H539.804V17H541.288V11.918H544.018V17H545.502V10.56ZM546.943 13.78C546.943 14.4333 547.092 15.0167 547.391 15.53C547.699 16.034 548.114 16.4307 548.637 16.72C549.169 17 549.761 17.14 550.415 17.14C551.077 17.14 551.67 17 552.193 16.72C552.715 16.4307 553.126 16.034 553.425 15.53C553.733 15.0167 553.887 14.4333 553.887 13.78C553.887 13.1173 553.733 12.534 553.425 12.03C553.126 11.526 552.715 11.134 552.193 10.854C551.67 10.5647 551.077 10.42 550.415 10.42C549.761 10.42 549.169 10.5647 548.637 10.854C548.114 11.134 547.699 11.526 547.391 12.03C547.092 12.534 546.943 13.1173 546.943 13.78ZM548.497 13.78C548.497 13.3787 548.581 13.0287 548.749 12.73C548.917 12.422 549.145 12.184 549.435 12.016C549.724 11.8387 550.051 11.75 550.415 11.75C550.779 11.75 551.105 11.8387 551.395 12.016C551.684 12.184 551.913 12.422 552.081 12.73C552.249 13.0287 552.333 13.3787 552.333 13.78C552.333 14.1813 552.249 14.536 552.081 14.844C551.913 15.1427 551.684 15.3807 551.395 15.558C551.105 15.726 550.779 15.81 550.415 15.81C550.051 15.81 549.724 15.726 549.435 15.558C549.145 15.3807 548.917 15.1427 548.749 14.844C548.581 14.536 548.497 14.1813 548.497 13.78ZM558.348 12.744L560.098 16.58L561.666 16.412L558.348 10.07L555.03 16.412L556.598 16.58L558.348 12.744ZM561.008 17V18.26H562.478V15.698H554.218V18.26H555.758V17H561.008ZM565.541 20.08V10.56H564.015V20.08H565.541ZM570.875 13.78C570.875 13.0613 570.731 12.45 570.441 11.946C570.152 11.442 569.769 11.0593 569.293 10.798C568.817 10.5273 568.299 10.392 567.739 10.392C567.329 10.392 566.955 10.4713 566.619 10.63C566.293 10.7887 566.008 11.0173 565.765 11.316C565.532 11.6053 565.35 11.96 565.219 12.38C565.098 12.7907 565.037 13.2573 565.037 13.78C565.037 14.3027 565.098 14.774 565.219 15.194C565.35 15.6047 565.532 15.9593 565.765 16.258C566.008 16.5473 566.293 16.7713 566.619 16.93C566.955 17.0887 567.329 17.168 567.739 17.168C568.299 17.168 568.817 17.0373 569.293 16.776C569.769 16.5053 570.152 16.118 570.441 15.614C570.731 15.11 570.875 14.4987 570.875 13.78ZM569.307 13.78C569.307 14.2093 569.219 14.5733 569.041 14.872C568.864 15.1707 568.631 15.3993 568.341 15.558C568.052 15.7167 567.73 15.796 567.375 15.796C567.161 15.796 566.941 15.754 566.717 15.67C566.503 15.5767 566.307 15.446 566.129 15.278C565.952 15.11 565.807 14.9 565.695 14.648C565.593 14.396 565.541 14.1067 565.541 13.78C565.541 13.4533 565.593 13.164 565.695 12.912C565.807 12.66 565.952 12.45 566.129 12.282C566.307 12.114 566.503 11.988 566.717 11.904C566.941 11.8107 567.161 11.764 567.375 11.764C567.73 11.764 568.052 11.8433 568.341 12.002C568.631 12.1607 568.864 12.3893 569.041 12.688C569.219 12.9867 569.307 13.3507 569.307 13.78ZM571.812 13.78C571.812 14.4333 571.961 15.0167 572.26 15.53C572.568 16.034 572.983 16.4307 573.506 16.72C574.038 17 574.631 17.14 575.284 17.14C575.947 17.14 576.539 17 577.062 16.72C577.585 16.4307 577.995 16.034 578.294 15.53C578.602 15.0167 578.756 14.4333 578.756 13.78C578.756 13.1173 578.602 12.534 578.294 12.03C577.995 11.526 577.585 11.134 577.062 10.854C576.539 10.5647 575.947 10.42 575.284 10.42C574.631 10.42 574.038 10.5647 573.506 10.854C572.983 11.134 572.568 11.526 572.26 12.03C571.961 12.534 571.812 13.1173 571.812 13.78ZM573.366 13.78C573.366 13.3787 573.45 13.0287 573.618 12.73C573.786 12.422 574.015 12.184 574.304 12.016C574.593 11.8387 574.92 11.75 575.284 11.75C575.648 11.75 575.975 11.8387 576.264 12.016C576.553 12.184 576.782 12.422 576.95 12.73C577.118 13.0287 577.202 13.3787 577.202 13.78C577.202 14.1813 577.118 14.536 576.95 14.844C576.782 15.1427 576.553 15.3807 576.264 15.558C575.975 15.726 575.648 15.81 575.284 15.81C574.92 15.81 574.593 15.726 574.304 15.558C574.015 15.3807 573.786 15.1427 573.618 14.844C573.45 14.536 573.366 14.1813 573.366 13.78ZM583.257 11.75C583.621 11.75 583.947 11.8387 584.237 12.016C584.526 12.184 584.755 12.422 584.923 12.73C585.091 13.0287 585.175 13.3787 585.175 13.78C585.175 14.1813 585.091 14.536 584.923 14.844C584.755 15.1427 584.526 15.3807 584.237 15.558C583.947 15.726 583.621 15.81 583.257 15.81C582.893 15.81 582.561 15.726 582.263 15.558C581.973 15.3807 581.745 15.1427 581.577 14.844C581.409 14.536 581.325 14.1813 581.325 13.78L579.715 12.94C579.715 13.864 579.869 14.6387 580.177 15.264C580.485 15.8893 580.905 16.3607 581.437 16.678C581.978 16.986 582.585 17.14 583.257 17.14C583.938 17.14 584.535 16.9953 585.049 16.706C585.571 16.4167 585.982 16.02 586.281 15.516C586.579 15.0027 586.729 14.424 586.729 13.78C586.729 13.1267 586.579 12.548 586.281 12.044C585.991 11.54 585.59 11.1433 585.077 10.854C584.563 10.5647 583.98 10.42 583.327 10.42L583.257 11.75ZM580.639 13.78H581.325C581.325 13.4533 581.381 13.164 581.493 12.912C581.614 12.66 581.768 12.45 581.955 12.282C582.141 12.1047 582.347 11.974 582.571 11.89C582.804 11.7967 583.033 11.75 583.257 11.75L583.327 10.42C582.925 10.42 582.557 10.4993 582.221 10.658C581.894 10.8073 581.609 11.0267 581.367 11.316C581.133 11.6053 580.951 11.96 580.821 12.38C580.699 12.7907 580.639 13.2573 580.639 13.78ZM579.715 12.94L581.185 13.71L581.045 12.24C581.045 11.8853 581.077 11.54 581.143 11.204C581.208 10.868 581.325 10.5507 581.493 10.252C581.661 9.944 581.885 9.66867 582.165 9.426C582.454 9.18333 582.813 8.98733 583.243 8.838C583.756 8.66067 584.213 8.43667 584.615 8.166C585.025 7.89533 585.357 7.58267 585.609 7.228C585.861 6.87333 586.01 6.49067 586.057 6.08H584.573C584.507 6.416 584.311 6.72867 583.985 7.018C583.667 7.298 583.191 7.55467 582.557 7.788C581.997 7.99333 581.535 8.25467 581.171 8.572C580.807 8.88933 580.517 9.26267 580.303 9.692C580.088 10.1213 579.934 10.6067 579.841 11.148C579.757 11.6893 579.715 12.2867 579.715 12.94ZM588.833 14.242H593.761V12.968H588.833V14.242ZM592.949 10.56V17H594.433V10.56H592.949ZM588.175 10.56V17H589.659V10.56H588.175ZM595.874 13.78C595.874 14.4333 596.024 15.0167 596.322 15.53C596.63 16.034 597.046 16.4307 597.568 16.72C598.1 17 598.693 17.14 599.346 17.14C600.009 17.14 600.602 17 601.124 16.72C601.647 16.4307 602.058 16.034 602.356 15.53C602.664 15.0167 602.818 14.4333 602.818 13.78C602.818 13.1173 602.664 12.534 602.356 12.03C602.058 11.526 601.647 11.134 601.124 10.854C600.602 10.5647 600.009 10.42 599.346 10.42C598.693 10.42 598.1 10.5647 597.568 10.854C597.046 11.134 596.63 11.526 596.322 12.03C596.024 12.534 595.874 13.1173 595.874 13.78ZM597.428 13.78C597.428 13.3787 597.512 13.0287 597.68 12.73C597.848 12.422 598.077 12.184 598.366 12.016C598.656 11.8387 598.982 11.75 599.346 11.75C599.71 11.75 600.037 11.8387 600.326 12.016C600.616 12.184 600.844 12.422 601.012 12.73C601.18 13.0287 601.264 13.3787 601.264 13.78C601.264 14.1813 601.18 14.536 601.012 14.844C600.844 15.1427 600.616 15.3807 600.326 15.558C600.037 15.726 599.71 15.81 599.346 15.81C598.982 15.81 598.656 15.726 598.366 15.558C598.077 15.3807 597.848 15.1427 597.68 14.844C597.512 14.536 597.428 14.1813 597.428 13.78ZM605.261 13.78C605.261 13.3787 605.35 13.024 605.527 12.716C605.704 12.408 605.942 12.1653 606.241 11.988C606.549 11.8107 606.89 11.722 607.263 11.722C607.562 11.722 607.851 11.7687 608.131 11.862C608.411 11.9553 608.658 12.086 608.873 12.254C609.097 12.4127 609.26 12.5993 609.363 12.814V11.134C609.139 10.9193 608.836 10.7467 608.453 10.616C608.07 10.4853 607.65 10.42 607.193 10.42C606.53 10.42 605.933 10.5647 605.401 10.854C604.878 11.134 604.463 11.526 604.155 12.03C603.856 12.534 603.707 13.1173 603.707 13.78C603.707 14.4333 603.856 15.0167 604.155 15.53C604.463 16.034 604.878 16.4307 605.401 16.72C605.933 17 606.53 17.14 607.193 17.14C607.65 17.14 608.07 17.0793 608.453 16.958C608.836 16.8273 609.139 16.6453 609.363 16.412V14.746C609.26 14.9513 609.102 15.138 608.887 15.306C608.672 15.474 608.425 15.6047 608.145 15.698C607.865 15.7913 607.571 15.838 607.263 15.838C606.89 15.838 606.549 15.754 606.241 15.586C605.942 15.4087 605.704 15.166 605.527 14.858C605.35 14.5407 605.261 14.1813 605.261 13.78ZM610.138 10.56V11.89H614.212V10.56H610.138ZM611.44 10.84V17H612.924V10.84H611.44ZM621.083 11.96L621.153 10.07L615.357 15.6L615.287 17.49L621.083 11.96ZM616.785 10.56H615.287V17.49L616.785 15.782V10.56ZM621.153 10.07L619.669 11.778V17H621.153V10.07Z" fill="white"/>
<g clip-path="url(#clip2_92_3022)">
<path d="M13 2V3.278L18 4.946L21.632 3.736L22.265 5.632L19.233 6.643L22.329 15.155C21.237 16.292 19.7 17 18 17C16.299 17 14.763 16.292 13.671 15.155L16.765 6.643L13 5.387V19H17V21H7.00002V19H11V5.387L7.23202 6.643L10.328 15.155C9.23702 16.292 7.70002 17 6.00002 17C4.29902 17 2.76302 16.292 1.67102 15.155L4.76502 6.643L1.73502 5.633L2.36802 3.735L6.00002 4.945L11 3.278V2H13ZM18 9.103L16.042 14.489C16.629 14.82 17.299 15 18 15C18.7 15 19.37 14.82 19.958 14.49L18 9.102V9.103ZM6.00002 9.103L4.04202 14.489C4.62902 14.82 5.29902 15 6.00002 15C6.70002 15 7.37002 14.82 7.95802 14.49L6.00002 9.102V9.103Z" fill="white"/>
</g>
<defs>
<clipPath id="clip0_92_3022">
<rect width="24" height="24" fill="white" transform="translate(231)"/>
</clipPath>
<clipPath id="clip1_92_3022">
<rect width="24" height="24" fill="white" transform="translate(445)"/>
</clipPath>
<clipPath id="clip2_92_3022">
<rect width="24" height="24" fill="white"/>
</clipPath>
</defs>
</svg>
