<svg width="36" height="36" viewBox="0 0 36 36" fill="none" xmlns="http://www.w3.org/2000/svg">
<path fill-rule="evenodd" clip-rule="evenodd" d="M18 0C8.05888 0 0 8.05888 0 18C0 27.9411 8.05888 36 18 36C27.9411 36 36 27.9411 36 18C36 8.05888 27.9411 0 18 0ZM22.2697 6H24.3012C24.5484 6 24.5657 6.17253 24.5074 6.33671C24.4992 6.35969 24.3632 6.72994 24.1375 7.3448C23.0446 10.3217 19.8465 19.0324 18.847 21.8249V29.7664C18.847 29.9126 18.7596 30 18.6431 30H16.7648C16.619 30 16.5607 29.9126 16.5607 29.7664V21.762C15.5162 19.1342 13.3595 13.4386 12.2214 10.433C11.7827 9.27437 11.4954 8.51548 11.4814 8.48615C11.4191 8.35423 11.5284 8.14138 11.7225 8.14138H13.7055C13.9686 8.14138 14.0377 8.32802 14.0772 8.47809C14.1132 8.61541 14.7499 10.4124 15.4065 12.2654C16.0554 14.0968 16.7237 15.9828 16.8505 16.3751L17.9009 19.243L17.902 19.2389C18.0257 18.7714 18.5306 16.8636 18.6858 16.3215C18.8126 15.8785 19.8734 12.6203 20.7521 9.92126C21.3951 7.94632 21.9406 6.27071 21.9515 6.21631C21.9776 6.08814 22.0898 6 22.2697 6Z" fill="white"/>
</svg>
