<svg width="36" height="36" viewBox="0 0 36 36" fill="none" xmlns="http://www.w3.org/2000/svg">
<path fill-rule="evenodd" clip-rule="evenodd" d="M18 0C8.05888 0 0 8.05888 0 18C0 27.9411 8.05888 36 18 36C27.9411 36 36 27.9411 36 18C36 8.05888 27.9411 0 18 0ZM19.2018 19.0523V29.9999L14.796 30V19.0524H11.1119V14.786H14.7961V11.6396C14.7961 7.98818 17.0262 6 20.2835 6C21.8437 6 23.1847 6.11613 23.5756 6.16793V9.98377L21.3163 9.98482C19.5449 9.98482 19.2018 10.8267 19.2018 12.0619V14.7859H23.4267L22.8765 19.0523H19.2018Z" fill="white"/>
</svg>
