<svg width="36" height="36" viewBox="0 0 36 36" fill="none" xmlns="http://www.w3.org/2000/svg">
<path fill-rule="evenodd" clip-rule="evenodd" d="M18 0C8.05888 0 0 8.05888 0 18C0 27.9411 8.05888 36 18 36C27.9411 36 36 27.9411 36 18C36 8.05888 27.9411 0 18 0ZM26.8219 14.6719V14.1094C27.6938 13.4906 28.425 12.7031 28.9875 11.8031C28.2 12.1687 27.3562 12.3938 26.4562 12.5062C27.3562 11.9438 28.0594 11.1 28.3969 10.0594C27.525 10.5656 26.5969 10.9312 25.5844 11.1281C24.7969 10.2844 23.6437 9.75 22.3781 9.75C19.9312 9.75 17.9625 11.7188 17.9625 14.1656C17.9625 14.5031 17.9906 14.8687 18.075 15.1781C14.4187 14.9812 11.1562 13.2375 8.99063 10.5656C8.625 11.2125 8.4 11.9719 8.4 12.7875C8.4 14.3344 9.1875 15.6844 10.3687 16.4719C9.6375 16.4438 8.9625 16.2469 8.37187 15.9094V15.9656C8.37187 18.1031 9.89062 19.875 11.9156 20.2687C11.55 20.3813 11.1562 20.4375 10.7625 20.4375C10.4531 20.4375 10.2 20.4094 9.91875 20.3531C10.4531 22.0969 12.0844 23.3906 14.025 23.4187C12.5062 24.6 10.5938 25.3031 8.54062 25.3031C8.20312 25.3031 7.8375 25.275 7.5 25.2469C9.46875 26.4844 11.775 27.2156 14.2781 27.2156C22.3781 27.2156 26.8219 20.4937 26.8219 14.6719Z" fill="white"/>
</svg>
