<svg width="31" height="24" viewBox="0 0 31 24" fill="none" xmlns="http://www.w3.org/2000/svg">
<g opacity="0.4" clip-path="url(#clip0_80_8343)">
<path d="M30.3681 23.6628V23.7252H30.426C30.4387 23.7252 30.4497 23.7222 30.4576 23.7173C30.4649 23.7125 30.4692 23.704 30.4692 23.6937C30.4692 23.6834 30.4649 23.6755 30.4576 23.6706C30.4497 23.6652 30.4387 23.6628 30.426 23.6628H30.3681ZM30.4266 23.6191C30.4564 23.6191 30.4796 23.6258 30.496 23.6391C30.5124 23.6525 30.5204 23.6706 30.5204 23.6937C30.5204 23.7131 30.5143 23.7288 30.5009 23.7416C30.4881 23.7537 30.4698 23.7616 30.4454 23.7646L30.5222 23.8525H30.4625L30.3912 23.7652H30.3681V23.8525H30.3181V23.6191H30.4266ZM30.4113 23.9331C30.4387 23.9331 30.4643 23.9277 30.4875 23.9174C30.5112 23.9071 30.5319 23.8931 30.5496 23.8755C30.5673 23.858 30.5813 23.8373 30.5916 23.8131C30.6014 23.7895 30.6069 23.764 30.6069 23.7367C30.6069 23.7094 30.6014 23.684 30.5916 23.6603C30.5813 23.6367 30.5673 23.6155 30.5496 23.5979C30.5319 23.5803 30.5112 23.5664 30.4875 23.5561C30.4643 23.5464 30.4387 23.5415 30.4113 23.5415C30.3839 23.5415 30.3577 23.5464 30.334 23.5561C30.3096 23.5664 30.2883 23.5803 30.2706 23.5979C30.253 23.6155 30.239 23.6367 30.2292 23.6603C30.2189 23.684 30.214 23.7094 30.214 23.7367C30.214 23.764 30.2189 23.7895 30.2292 23.8131C30.239 23.8373 30.253 23.858 30.2706 23.8755C30.2883 23.8931 30.3096 23.9071 30.334 23.9174C30.3577 23.9277 30.3839 23.9331 30.4113 23.9331ZM30.4113 23.4851C30.4473 23.4851 30.4802 23.4918 30.5118 23.5051C30.5429 23.5179 30.5697 23.5361 30.5935 23.5591C30.6166 23.5815 30.6349 23.6082 30.6483 23.6391C30.6617 23.6694 30.6684 23.7022 30.6684 23.7367C30.6684 23.7713 30.6617 23.804 30.6483 23.8343C30.6349 23.8646 30.6166 23.8913 30.5935 23.9143C30.5697 23.9368 30.5429 23.9549 30.5118 23.9683C30.4802 23.9816 30.4473 23.9883 30.4113 23.9883C30.3748 23.9883 30.3413 23.9816 30.3096 23.9683C30.2779 23.9549 30.2505 23.9368 30.2274 23.9143C30.2042 23.8913 30.186 23.8646 30.1726 23.8343C30.1592 23.804 30.1525 23.7713 30.1525 23.7367C30.1525 23.7022 30.1592 23.6694 30.1726 23.6391C30.186 23.6082 30.2042 23.5815 30.2274 23.5591C30.2505 23.5361 30.2779 23.5179 30.3096 23.5051C30.3413 23.4918 30.3748 23.4851 30.4113 23.4851ZM6.68051 22.5862C6.68051 22.1412 6.97348 21.7757 7.45223 21.7757C7.90965 21.7757 8.21846 22.1255 8.21846 22.5862C8.21846 23.0469 7.90965 23.3966 7.45223 23.3966C6.97348 23.3966 6.68051 23.0311 6.68051 22.5862ZM8.73985 22.5862V21.3204H8.18679V21.6278C8.01137 21.3999 7.7452 21.2568 7.3834 21.2568C6.67015 21.2568 6.11101 21.8133 6.11101 22.5862C6.11101 23.3597 6.67015 23.9155 7.3834 23.9155C7.7452 23.9155 8.01137 23.7725 8.18679 23.5446V23.8519H8.73985V22.5862ZM27.4292 22.5862C27.4292 22.1412 27.7222 21.7757 28.2009 21.7757C28.659 21.7757 28.9672 22.1255 28.9672 22.5862C28.9672 23.0469 28.659 23.3966 28.2009 23.3966C27.7222 23.3966 27.4292 23.0311 27.4292 22.5862ZM29.4892 22.5862V20.3039H28.9355V21.6278C28.7601 21.3999 28.4939 21.2568 28.1321 21.2568C27.4189 21.2568 26.8597 21.8133 26.8597 22.5862C26.8597 23.3597 27.4189 23.9155 28.1321 23.9155C28.4939 23.9155 28.7601 23.7725 28.9355 23.5446V23.8519H29.4892V22.5862ZM15.6049 21.7496C15.9612 21.7496 16.1903 21.9721 16.2487 22.3637H14.9288C14.9879 21.9982 15.2108 21.7496 15.6049 21.7496ZM15.6159 21.2568C14.8704 21.2568 14.349 21.7969 14.349 22.5862C14.349 23.3912 14.8917 23.9155 15.653 23.9155C16.0362 23.9155 16.387 23.8204 16.6958 23.5609L16.4248 23.153C16.2116 23.3221 15.9399 23.4179 15.6847 23.4179C15.3284 23.4179 15.0037 23.2536 14.924 22.7977H16.8128C16.8182 22.7292 16.8237 22.6601 16.8237 22.5862C16.8182 21.7969 16.3285 21.2568 15.6159 21.2568ZM22.294 22.5862C22.294 22.1412 22.5869 21.7757 23.0657 21.7757C23.5231 21.7757 23.8319 22.1255 23.8319 22.5862C23.8319 23.0469 23.5231 23.3966 23.0657 23.3966C22.5869 23.3966 22.294 23.0311 22.294 22.5862ZM24.3533 22.5862V21.3204H23.8003V21.6278C23.6242 21.3999 23.3587 21.2568 22.9969 21.2568C22.2836 21.2568 21.7245 21.8133 21.7245 22.5862C21.7245 23.3597 22.2836 23.9155 22.9969 23.9155C23.3587 23.9155 23.6242 23.7725 23.8003 23.5446V23.8519H24.3533V22.5862ZM19.1705 22.5862C19.1705 23.3542 19.7078 23.9155 20.5276 23.9155C20.9107 23.9155 21.1659 23.8307 21.4425 23.6137L21.1769 23.1687C20.9692 23.3172 20.7511 23.3966 20.5112 23.3966C20.0696 23.3912 19.7449 23.0735 19.7449 22.5862C19.7449 22.0988 20.0696 21.7811 20.5112 21.7757C20.7511 21.7757 20.9692 21.8551 21.1769 22.0036L21.4425 21.5587C21.1659 21.3417 20.9107 21.2568 20.5276 21.2568C19.7078 21.2568 19.1705 21.8181 19.1705 22.5862ZM26.3012 21.2568C25.982 21.2568 25.7743 21.4053 25.6306 21.6278V21.3204H25.0824V23.8519H25.6361V22.4328C25.6361 22.0139 25.817 21.7811 26.1788 21.7811C26.2908 21.7811 26.4078 21.7969 26.5247 21.8448L26.6953 21.3259C26.5728 21.278 26.4133 21.2568 26.3012 21.2568ZM11.4753 21.5217C11.2091 21.3471 10.8424 21.2568 10.438 21.2568C9.79358 21.2568 9.37879 21.5641 9.37879 22.0673C9.37879 22.4801 9.68759 22.7347 10.2565 22.8141L10.5178 22.8511C10.8211 22.8935 10.9643 22.9729 10.9643 23.116C10.9643 23.3118 10.762 23.4233 10.3844 23.4233C10.0013 23.4233 9.72475 23.3015 9.53837 23.1584L9.27768 23.587C9.581 23.8095 9.96412 23.9155 10.3789 23.9155C11.1135 23.9155 11.5392 23.5712 11.5392 23.0893C11.5392 22.6444 11.2042 22.4116 10.6506 22.3322L10.3899 22.2946C10.1505 22.2631 9.95864 22.2158 9.95864 22.0461C9.95864 21.8606 10.1395 21.7496 10.4429 21.7496C10.7675 21.7496 11.0818 21.8715 11.2359 21.9666L11.4753 21.5217ZM18.6114 21.2568C18.2922 21.2568 18.0845 21.4053 17.9414 21.6278V21.3204H17.3932V23.8519H17.9463V22.4328C17.9463 22.0139 18.1272 21.7811 18.489 21.7811C18.601 21.7811 18.718 21.7969 18.8349 21.8448L19.0055 21.3259C18.8831 21.278 18.7235 21.2568 18.6114 21.2568ZM13.8915 21.3204H12.987V20.5524H12.4279V21.3204H11.912V21.8236H12.4279V22.9784C12.4279 23.5658 12.6569 23.9155 13.3111 23.9155C13.5511 23.9155 13.8276 23.8416 14.003 23.7197L13.8434 23.2481C13.6784 23.3433 13.4975 23.3912 13.3537 23.3912C13.0772 23.3912 12.987 23.2215 12.987 22.9675V21.8236H13.8915V21.3204ZM5.62191 23.8519V22.2631C5.62191 21.6648 5.23879 21.2622 4.62117 21.2568C4.29652 21.2513 3.96152 21.352 3.72702 21.7072C3.5516 21.4265 3.27508 21.2568 2.88647 21.2568C2.61482 21.2568 2.34926 21.3362 2.14156 21.6326V21.3204H1.58789V23.8519H2.14643V22.4486C2.14643 22.0091 2.39128 21.7757 2.76953 21.7757C3.13681 21.7757 3.32258 22.0139 3.32258 22.4431V23.8519H3.88173V22.4486C3.88173 22.0091 4.13694 21.7757 4.50422 21.7757C4.88186 21.7757 5.06276 22.0139 5.06276 22.4431V23.8519H5.62191Z" fill="white"/>
<path d="M30.7094 15.4336V15.0638H30.6125L30.5005 15.3178L30.389 15.0638H30.2916V15.4336H30.3604V15.1547L30.4651 15.3954H30.5364L30.6412 15.1541V15.4336H30.7094ZM30.0948 15.4336V15.1269H30.2191V15.0644H29.9023V15.1269H30.0266V15.4336H30.0948Z" fill="white"/>
<path d="M19.6985 17.0255H11.3164V2.0332H19.6985V17.0255Z" fill="white"/>
<path d="M11.8525 9.52774C11.8525 6.48649 13.2832 3.77742 15.5113 2.0316C13.882 0.754961 11.8257 -0.00701904 9.59091 -0.00701904C4.30034 -0.00701904 0.0117188 4.26177 0.0117188 9.52774C0.0117188 14.7937 4.30034 19.0625 9.59091 19.0625C11.8257 19.0625 13.882 18.3005 15.5113 17.0239C13.2832 15.2781 11.8525 12.569 11.8525 9.52774Z" fill="white"/>
<path d="M31.0021 9.52774C31.0021 14.7937 26.7135 19.0625 21.4229 19.0625C19.1882 19.0625 17.1319 18.3005 15.502 17.0239C17.7306 15.2781 19.1614 12.569 19.1614 9.52774C19.1614 6.48649 17.7306 3.77742 15.502 2.0316C17.1319 0.754961 19.1882 -0.00701904 21.4229 -0.00701904C26.7135 -0.00701904 31.0021 4.26177 31.0021 9.52774Z" fill="white"/>
</g>
<defs>
<clipPath id="clip0_80_8343">
<rect width="31" height="24" fill="white"/>
</clipPath>
</defs>
</svg>
