<svg width="44" height="22" viewBox="0 0 44 22" fill="none" xmlns="http://www.w3.org/2000/svg">
<g clip-path="url(#clip0_80_8207)">
<path d="M21.373 13.4789H22.0554V15.0083H22.5485L23.4332 13.4789H24.1792L23.1173 15.2739V15.2864L24.2425 17.2452H23.4713L22.561 15.6019H22.0684V17.2452H21.3856V13.4785H21.373V13.4789ZM25.7719 14.4776C26.5929 14.4776 27.2632 15.0716 27.2632 15.893C27.2632 16.7274 26.6059 17.3089 25.7844 17.3089C24.9626 17.3089 24.3053 16.7274 24.3053 15.893C24.2928 15.059 24.95 14.4776 25.7719 14.4776ZM27.7939 14.5404H28.4386V16.6642H29.2856V14.5408H29.9299V16.6642H30.7769V14.5408H31.4215V17.2452H27.819V14.5404H27.7939ZM33.3304 14.4776C34.1012 14.4776 34.531 15.0464 34.531 15.7543C34.5289 15.8432 34.5205 15.9318 34.5059 16.0195H32.6477C32.6858 16.487 33.0523 16.74 33.4569 16.74C33.7347 16.74 34.0128 16.6135 34.2277 16.4493L34.4933 16.9298C34.2152 17.1694 33.7979 17.3214 33.4063 17.3214C32.5086 17.3214 31.9527 16.6768 31.9527 15.9056C31.9527 15.059 32.5212 14.4776 33.3304 14.4776ZM34.8469 16.6768C35.1757 16.6261 35.4157 16.3483 35.4157 15.3874V14.5408H37.3879V17.2452H36.7177V15.0837H36.0604V15.387C36.0604 16.5624 35.7445 17.2452 34.8469 17.2704V16.6764V16.6768ZM39.3089 14.4776C40.0797 14.4776 40.5095 15.0464 40.5095 15.7543C40.5074 15.8432 40.499 15.9318 40.4844 16.0195H38.6262C38.6643 16.487 39.0308 16.74 39.4354 16.74C39.7132 16.74 39.9913 16.6135 40.2062 16.4493L40.4718 16.9298C40.1937 17.1694 39.7764 17.3214 39.3848 17.3214C38.4875 17.3214 37.9312 16.6768 37.9312 15.9056C37.9312 15.059 38.5 14.4776 39.3089 14.4776ZM41.0658 14.5404H41.7356V15.5772H42.0644L42.7217 14.5408H43.4673L42.6078 15.8298V15.8427L43.5683 17.2452H42.7849L42.077 16.146H41.7234V17.2452H41.0528V14.5404H41.0654H41.0658ZM25.7719 16.7274C26.2142 16.7274 26.5808 16.3861 26.5808 15.8804C26.5808 15.3874 26.2142 15.0334 25.7715 15.0334C25.3295 15.0334 24.9755 15.3752 24.9755 15.8804C24.9755 16.3861 25.3291 16.7274 25.7719 16.7274ZM33.8486 15.552C33.8486 15.1981 33.6082 14.9832 33.3049 14.9832C32.9639 14.9832 32.7109 15.2106 32.6477 15.552H33.8486ZM39.8271 15.552C39.8271 15.1981 39.5871 14.9832 39.2838 14.9832C38.942 14.9832 38.6894 15.2106 38.6262 15.552H39.8271Z" fill="#839ADA"/>
<path d="M30.8158 5.27614V11.6593C30.8164 11.6826 30.8122 11.7059 30.8035 11.7276C30.7948 11.7493 30.7818 11.769 30.7652 11.7855C30.7487 11.802 30.729 11.815 30.7073 11.8237C30.6856 11.8324 30.6624 11.8366 30.639 11.8361H29.3371C29.3137 11.8366 29.2905 11.8324 29.2688 11.8237C29.2471 11.815 29.2274 11.802 29.2109 11.7855C29.1944 11.769 29.1814 11.7493 29.1727 11.7276C29.164 11.7059 29.1598 11.6826 29.1603 11.6593V5.27614C29.1598 5.25278 29.164 5.22955 29.1727 5.20785C29.1814 5.18616 29.1944 5.16646 29.2109 5.14994C29.2274 5.13341 29.2471 5.12041 29.2688 5.11172C29.2905 5.10302 29.3137 5.09882 29.3371 5.09935H30.639C30.6624 5.09882 30.6856 5.10302 30.7073 5.11172C30.729 5.12041 30.7487 5.13341 30.7652 5.14994C30.7818 5.16646 30.7948 5.18616 30.8035 5.20785C30.8122 5.22955 30.8164 5.25278 30.8158 5.27614ZM40.9782 5.09935C41.0289 5.09935 41.0922 5.1245 41.155 5.17517C41.1931 5.21289 41.1931 5.27614 41.1806 5.32682L39.0316 11.7225C39.0186 11.7556 38.996 11.7841 38.9668 11.8044C38.9376 11.8247 38.903 11.8358 38.8674 11.8365H37.7046C37.6287 11.8365 37.5655 11.7984 37.5404 11.7225L36.2883 7.99392L35.0371 11.7221C35.024 11.7552 35.0015 11.7837 34.9722 11.804C34.943 11.8243 34.9084 11.8354 34.8729 11.8361H33.71C33.6342 11.8361 33.5709 11.7984 33.5458 11.7221L31.3969 5.32642C31.3843 5.27614 31.3843 5.22546 31.422 5.17517C31.4475 5.1245 31.5108 5.09935 31.5611 5.09935H33.0146C33.0905 5.09935 33.1537 5.14964 33.1792 5.22546L34.3291 9.00475L35.5934 5.22546C35.6064 5.19236 35.629 5.16388 35.6582 5.1436C35.6874 5.12332 35.722 5.11216 35.7576 5.11153H36.7814C36.8572 5.11153 36.9204 5.14964 36.9456 5.22546L38.2098 9.00475L39.3601 5.22546C39.3704 5.18966 39.3919 5.1581 39.4214 5.13541C39.451 5.11271 39.487 5.10008 39.5243 5.09935H40.9779H40.9782ZM43.1775 5.09935C43.2659 5.09935 43.3417 5.17517 43.3542 5.27614V11.6593C43.3548 11.6826 43.3506 11.7059 43.3419 11.7276C43.3332 11.7493 43.3202 11.769 43.3037 11.7855C43.2871 11.802 43.2674 11.815 43.2457 11.8237C43.2241 11.8324 43.2008 11.8366 43.1775 11.8361H41.8755C41.8522 11.8366 41.8289 11.8324 41.8073 11.8237C41.7856 11.815 41.7659 11.802 41.7493 11.7855C41.7328 11.769 41.7198 11.7493 41.7111 11.7276C41.7024 11.7059 41.6982 11.6826 41.6987 11.6593V5.27614C41.6982 5.25278 41.7024 5.22955 41.7111 5.20785C41.7198 5.18616 41.7328 5.16646 41.7493 5.14994C41.7659 5.13341 41.7856 5.12041 41.8073 5.11172C41.8289 5.10302 41.8522 5.09882 41.8755 5.09935H43.1775ZM28.4017 11.609C28.4775 11.6974 28.4143 11.8235 28.3004 11.8235H26.7077C26.6764 11.8243 26.6452 11.8179 26.6167 11.8048C26.5883 11.7916 26.5632 11.7721 26.5435 11.7477L26.2783 11.4192C25.722 11.7728 25.0644 11.9881 24.3694 11.9881C22.4232 11.9881 20.8431 10.408 20.8431 8.46142C20.8431 6.51482 22.4232 4.93475 24.3694 4.93475C26.316 4.93475 27.8961 6.51482 27.8961 8.46142C27.8961 9.15678 27.6938 9.81403 27.3398 10.3699L28.4017 11.6086V11.609ZM15.0917 14.7055C15.4205 14.832 15.547 15.3246 15.5722 15.5395C15.6229 15.9316 15.5093 16.0832 15.3828 16.0832C15.2563 16.0832 15.0791 15.9316 14.8898 15.6283C14.7 15.3246 14.6242 14.9836 14.7256 14.8065C14.7884 14.6925 14.9275 14.6422 15.0921 14.7055H15.0917ZM13.1706 16.1339C13.373 16.1339 13.6004 16.2223 13.8027 16.3991C14.1944 16.7279 14.3084 17.107 14.106 17.3852C13.9921 17.5242 13.8027 17.6126 13.5879 17.6126C13.373 17.6126 13.1455 17.5368 12.9939 17.3977C12.6399 17.0945 12.5389 16.5885 12.766 16.3107C12.8548 16.1968 12.9939 16.1339 13.1706 16.1339ZM8.74707 19.7867C3.9436 19.7867 0.0507812 15.8935 0.0507812 11.0904C0.0507812 6.28735 3.944 2.39453 8.74667 2.39453C13.5497 2.39453 17.443 6.28775 17.443 11.0904C17.443 12.7208 16.988 14.2506 16.2172 15.5525C16.1917 15.5902 16.1285 15.5776 16.1159 15.527C15.8126 13.391 14.5107 12.2152 12.6147 11.8616C12.4501 11.8361 12.425 11.7351 12.6399 11.71C13.2213 11.6593 14.0428 11.6719 14.4726 11.7477C14.4977 11.5328 14.5107 11.3053 14.5107 11.0779C14.5107 7.90514 11.932 5.32642 8.75925 5.32642C5.58692 5.32642 3.00821 7.90514 3.00821 11.0779C3.00821 14.2506 5.58692 16.8293 8.75964 16.8293H9.02482C8.93473 16.3161 8.89656 15.7952 8.91089 15.2744C8.92385 14.9204 8.99967 14.8697 9.15132 15.1479C9.94764 16.5256 11.0854 17.7643 13.3097 18.2573C15.1298 18.662 16.9499 19.1295 18.9091 21.6194C19.0859 21.8343 18.8207 22.0617 18.6184 21.885C16.6215 20.1151 14.8014 19.5337 13.1455 19.5337C11.2873 19.5467 10.0235 19.7867 8.74667 19.7867H8.74707ZM25.2416 10.1931L24.5462 9.34614C24.4708 9.25775 24.534 9.11867 24.6476 9.11867H26.1137C26.1895 8.91635 26.2276 8.68889 26.2276 8.46142C26.2276 7.4125 25.4439 6.50225 24.3694 6.50225C23.2954 6.50225 22.5112 7.4125 22.5112 8.46142C22.5112 9.51035 23.2954 10.408 24.3694 10.408C24.6727 10.4206 24.9764 10.3322 25.2416 10.1931Z" fill="#839ADA"/>
</g>
<defs>
<clipPath id="clip0_80_8207">
<rect width="43.6071" height="22" fill="white"/>
</clipPath>
</defs>
</svg>
