<svg width="118" height="26" viewBox="0 0 118 26" fill="none" xmlns="http://www.w3.org/2000/svg">
<g clip-path="url(#clip0_92_2445)">
<path d="M1.66838 18.9054L14.5251 12.6458L27.4582 18.9118C27.6348 18.9988 27.8306 19.0391 28.0271 19.029C28.2237 19.0189 28.4143 18.9586 28.5809 18.8539C28.7476 18.7492 28.8846 18.6035 28.979 18.4309C29.0734 18.2582 29.122 18.0643 29.1203 17.8675V15.6005C29.1234 15.1692 29.0058 14.7456 28.7807 14.3776C28.5557 14.0096 28.2321 13.7119 27.8467 13.5182L14.5633 7.00391L1.31178 13.3718C0.920152 13.5613 0.589581 13.8569 0.357677 14.2251C0.125773 14.5932 0.00184748 15.019 0 15.4541L0 17.8675C0.000512156 18.0639 0.0509563 18.257 0.146593 18.4287C0.242231 18.6003 0.379922 18.7447 0.546732 18.8485C0.713541 18.9523 0.903995 19.012 1.1002 19.0219C1.2964 19.0319 1.49192 18.9918 1.66838 18.9054Z" fill="white"/>
<path d="M1.66838 25.8782L14.5251 19.6186L27.4582 25.8782C27.6348 25.9652 27.8306 26.0055 28.0271 25.9954C28.2237 25.9852 28.4143 25.9249 28.5809 25.8202C28.7476 25.7155 28.8846 25.5699 28.979 25.3973C29.0734 25.2246 29.122 25.0306 29.1202 24.8339V22.5669C29.1227 22.1357 29.0047 21.7124 28.7798 21.3445C28.5548 20.9767 28.2316 20.6789 27.8467 20.4846L14.5633 13.9512L1.31178 20.319C0.915284 20.5092 0.581259 20.8085 0.348907 21.1819C0.116555 21.5552 -0.00448305 21.9871 -2.0093e-06 22.4268V24.8339C-0.000570922 25.0309 0.0490843 25.2247 0.144274 25.3972C0.239464 25.5697 0.377046 25.715 0.544028 25.8196C0.711009 25.9241 0.901878 25.9843 1.09861 25.9946C1.29534 26.0048 1.49143 25.9648 1.66838 25.8782Z" fill="white"/>
<path d="M1.66822 11.927L14.5249 5.6674L27.4581 11.9334C27.6348 12.0185 27.8302 12.0574 28.026 12.0464C28.2218 12.0355 28.4117 11.975 28.5777 11.8706C28.7438 11.7663 28.8807 11.6215 28.9755 11.4498C29.0704 11.2781 29.1201 11.0852 29.1201 10.8891V8.62209C29.1232 8.19074 29.0056 7.76712 28.7806 7.39914C28.5555 7.03115 28.232 6.73348 27.8465 6.5398L14.5632 0L1.31162 6.36787C0.915607 6.55865 0.582011 6.85812 0.349747 7.23132C0.117483 7.60452 -0.00387256 8.03607 -0.000161506 8.47563V10.8827C-0.000730419 11.0797 0.0489248 11.2736 0.144115 11.446C0.239305 11.6185 0.376887 11.7639 0.543868 11.8684C0.71085 11.9729 0.901718 12.0332 1.09845 12.0434C1.29518 12.0537 1.49127 12.0136 1.66822 11.927Z" fill="white"/>
<path d="M1.66838 18.9055L14.5251 12.6459L14.5633 6.97852L1.31178 13.3719C0.920152 13.5614 0.589581 13.857 0.357677 14.2251C0.125773 14.5933 0.00184748 15.0191 0 15.4541L0 17.8676C0.000512156 18.064 0.0509563 18.2571 0.146593 18.4287C0.242231 18.6003 0.379922 18.7448 0.546732 18.8486C0.713541 18.9524 0.903995 19.012 1.1002 19.022C1.2964 19.032 1.49192 18.9919 1.66838 18.9055Z" fill="white"/>
<path d="M1.66838 25.8782L14.5251 19.6186L14.5633 13.9512L1.31178 20.319C0.915284 20.5092 0.581259 20.8085 0.348907 21.1819C0.116555 21.5552 -0.00448305 21.9871 -2.00929e-06 22.4268V24.8339C-0.000570922 25.0309 0.0490843 25.2247 0.144274 25.3972C0.239464 25.5697 0.377046 25.715 0.544028 25.8196C0.711009 25.9241 0.901878 25.9843 1.09861 25.9946C1.29534 26.0048 1.49143 25.9648 1.66838 25.8782Z" fill="white"/>
<path d="M9.55164 2.42625V0.904326C9.55081 0.784202 9.52622 0.665428 9.47929 0.554848C9.43236 0.444267 9.36401 0.344065 9.27818 0.260015C9.19236 0.175964 9.09075 0.109726 8.97921 0.0651164C8.86767 0.0205065 8.74841 -0.00159359 8.6283 8.93752e-05H5.90922C5.67616 8.93752e-05 5.45264 0.0926733 5.28784 0.257474C5.12304 0.422274 5.03045 0.645792 5.03045 0.878855V4.59769L1.31162 6.36796C0.915607 6.55874 0.582011 6.85821 0.349747 7.23141C0.117483 7.60461 -0.00387256 8.03616 -0.000161506 8.47572V10.8828C-0.000730419 11.0798 0.0489248 11.2737 0.144115 11.4461C0.239304 11.6186 0.376887 11.764 0.543868 11.8685C0.71085 11.973 0.901718 12.0332 1.09845 12.0435C1.29518 12.0538 1.49127 12.0137 1.66822 11.9271L14.5249 5.66749L14.5631 8.93752e-05L9.55164 2.42625Z" fill="white"/>
<path d="M43.3014 13.6266L44.8616 7.72991C45.2818 6.12521 46.6509 5.31649 48.9752 5.31649H52.312C52.3844 5.31514 52.4562 5.32986 52.5223 5.35959C52.5883 5.38932 52.647 5.43332 52.694 5.48842C52.7921 5.59862 52.8445 5.7421 52.8405 5.8896V13.6266C52.8421 13.7028 52.8277 13.7785 52.7981 13.8487C52.7684 13.9189 52.7243 13.9821 52.6686 14.0341C52.5578 14.1417 52.409 14.2012 52.2546 14.1997H51.083C51.0064 14.2015 50.9302 14.1877 50.859 14.1593C50.7879 14.1308 50.7233 14.0882 50.669 14.0341C50.6131 13.9799 50.5695 13.9143 50.5409 13.8418C50.5124 13.7694 50.4996 13.6916 50.5035 13.6138V12.0537H46.116L45.6957 13.6202C45.6559 13.7877 45.5562 13.9349 45.4156 14.0341C45.2849 14.1379 45.1239 14.196 44.9571 14.1997H43.7281C43.6571 14.2035 43.5863 14.1898 43.5219 14.1598C43.4575 14.1299 43.4015 14.0845 43.3587 14.0277C43.3023 13.9551 43.273 13.865 43.276 13.773C43.2817 13.7238 43.2902 13.6749 43.3014 13.6266ZM46.5872 10.3025H50.5098V7.06765H48.746C48.3688 7.05854 48.0002 7.1805 47.703 7.41274C47.4057 7.64497 47.1982 7.97311 47.1158 8.34123L46.5872 10.3025Z" fill="white"/>
<path d="M53.8466 6.48206V5.90258C53.844 5.82493 53.8573 5.74756 53.8858 5.67528C53.9143 5.60299 53.9574 5.53734 54.0123 5.4824C54.0673 5.42746 54.1329 5.3844 54.2052 5.3559C54.2775 5.32741 54.3548 5.31407 54.4325 5.31674H62.2968C62.3745 5.31407 62.4518 5.32741 62.5241 5.3559C62.5964 5.3844 62.662 5.42746 62.717 5.4824C62.7719 5.53734 62.815 5.60299 62.8435 5.67528C62.872 5.74756 62.8853 5.82493 62.8827 5.90258V6.48206C62.885 6.55968 62.8715 6.63695 62.843 6.7092C62.8146 6.78145 62.7717 6.84715 62.7171 6.90234C62.6044 7.01089 62.4533 7.07041 62.2968 7.0679H59.5332V13.6268C59.5348 13.703 59.5203 13.7787 59.4907 13.8489C59.4611 13.9192 59.417 13.9824 59.3612 14.0343C59.3075 14.0874 59.2439 14.1294 59.174 14.1578C59.104 14.1862 59.0292 14.2005 58.9537 14.1999H57.782C57.7055 14.201 57.6295 14.1869 57.5585 14.1585C57.4874 14.1301 57.4227 14.0879 57.3681 14.0343C57.3123 13.9824 57.2682 13.9192 57.2386 13.8489C57.209 13.7787 57.1945 13.703 57.1961 13.6268V7.0679H54.4325C54.276 7.07041 54.1249 7.01089 54.0122 6.90234C53.9576 6.84715 53.9147 6.78145 53.8863 6.7092C53.8578 6.63695 53.8443 6.55968 53.8466 6.48206Z" fill="white"/>
<path d="M62.6534 13.6266L64.2072 7.72991C64.6275 6.12521 65.9965 5.31649 68.3208 5.31649H71.6576C71.73 5.31514 71.8018 5.32986 71.8679 5.35959C71.934 5.38932 71.9926 5.43332 72.0397 5.48842C72.1395 5.59799 72.1941 5.74135 72.1925 5.8896V13.6266C72.1941 13.7028 72.1797 13.7785 72.15 13.8487C72.1204 13.9189 72.0763 13.9821 72.0205 14.0341C71.9054 14.1388 71.7559 14.1977 71.6003 14.1997H70.435C70.3578 14.2014 70.2811 14.1875 70.2096 14.1586C70.1381 14.1297 70.0732 14.0865 70.019 14.0316C69.9647 13.9768 69.9222 13.9114 69.8941 13.8396C69.866 13.7677 69.8529 13.6909 69.8555 13.6138V12.0537H65.468L65.0477 13.6202C65.0079 13.7877 64.9082 13.9349 64.7675 14.0341C64.6369 14.1379 64.4759 14.196 64.3091 14.1997H63.0801C63.01 14.2036 62.9401 14.1899 62.8767 14.1599C62.8133 14.1298 62.7584 14.0844 62.7171 14.0277C62.6563 13.9571 62.6245 13.8661 62.6279 13.773C62.6307 13.7234 62.6392 13.6742 62.6534 13.6266ZM65.9392 10.3025H69.8555V7.06765H68.0979C67.7241 7.06207 67.359 7.18078 67.06 7.40515C66.7662 7.63379 66.5576 7.95446 66.4678 8.31576L65.9392 10.3025Z" fill="white"/>
<path d="M73.3323 10.6736V9.93491C73.3298 9.88419 73.3382 9.83353 73.3568 9.78631C73.3755 9.73909 73.404 9.6964 73.4405 9.66109C73.4753 9.62572 73.517 9.59787 73.563 9.57925C73.609 9.56063 73.6584 9.55164 73.708 9.55284H78.3756C78.4797 9.5506 78.5803 9.5895 78.6558 9.66109C78.6911 9.69731 78.7188 9.74015 78.7374 9.78716C78.756 9.83416 78.765 9.88438 78.7641 9.93491V10.6736C78.7658 10.7242 78.757 10.7746 78.7384 10.8217C78.7198 10.8689 78.6917 10.9116 78.6558 10.9474C78.6181 10.982 78.574 11.0088 78.5259 11.0263C78.4778 11.0438 78.4268 11.0516 78.3756 11.0493H73.708C73.6578 11.0515 73.6078 11.0436 73.5608 11.0261C73.5137 11.0086 73.4707 10.9818 73.4342 10.9474C73.3991 10.9113 73.372 10.8683 73.3544 10.8212C73.3369 10.7741 73.3294 10.7238 73.3323 10.6736Z" fill="white"/>
<path d="M78.4011 14.0102C78.3951 13.9787 78.3951 13.9463 78.4011 13.9147C78.4084 13.8015 78.4532 13.6939 78.5285 13.6091L81.6487 9.62915L78.7068 5.89758C78.6323 5.81221 78.5876 5.70493 78.5794 5.59193C78.5733 5.55824 78.5733 5.52373 78.5794 5.49004C78.6054 5.42937 78.6507 5.379 78.7083 5.34675C78.7659 5.31451 78.8325 5.3022 78.8978 5.31174H80.2351C80.45 5.3161 80.6608 5.3715 80.8502 5.47336C81.0395 5.57522 81.2019 5.72062 81.324 5.89758L83.0178 8.05629L84.6926 5.90395C84.8133 5.72711 84.9745 5.58168 85.1628 5.47978C85.3511 5.37787 85.561 5.32244 85.7751 5.31811H87.106C87.1722 5.30817 87.2398 5.32024 87.2985 5.35245C87.3571 5.38466 87.4036 5.43523 87.4308 5.49641C87.437 5.53008 87.437 5.56462 87.4308 5.59829C87.4256 5.71199 87.3805 5.82021 87.3034 5.90395L84.3614 9.63552L87.4817 13.6154C87.5602 13.6989 87.6074 13.8068 87.6154 13.9211C87.6228 13.9525 87.6228 13.9852 87.6154 14.0166C87.5893 14.079 87.5433 14.1309 87.4845 14.1643C87.4258 14.1978 87.3576 14.2107 87.2907 14.2013H85.9662C85.7532 14.1959 85.5445 14.14 85.3574 14.0382C85.1703 13.9363 85.0101 13.7914 84.89 13.6154L82.9796 11.2084L81.0693 13.6154C80.9492 13.7914 80.789 13.9363 80.6018 14.0382C80.4147 14.14 80.2061 14.1959 79.9931 14.2013H78.6749C78.6159 14.1986 78.5588 14.1793 78.5103 14.1455C78.4619 14.1116 78.424 14.0648 78.4011 14.0102Z" fill="white"/>
<path d="M88.6789 13.6266L90.2326 7.72991C90.6529 6.12521 92.0284 5.31649 94.3463 5.31649H97.683C97.7555 5.31514 97.8273 5.32986 97.8934 5.35959C97.9594 5.38932 98.0181 5.43332 98.0651 5.48842C98.165 5.59799 98.2196 5.74135 98.2179 5.8896V13.6266C98.2193 13.7691 98.1644 13.9064 98.0651 14.0086C97.9543 14.1162 97.8056 14.1757 97.6512 14.1742H96.4859C96.4082 14.1769 96.3308 14.1635 96.2586 14.135C96.1863 14.1065 96.1206 14.0635 96.0657 14.0085C96.0107 13.9536 95.9677 13.8879 95.9392 13.8157C95.9107 13.7434 95.8974 13.666 95.9 13.5883V12.0537H91.5126L91.0604 13.6202C91.018 13.7865 90.9189 13.9329 90.7803 14.0341C90.6476 14.1388 90.4843 14.1969 90.3154 14.1997H89.0928C89.0218 14.2041 88.9508 14.1907 88.8863 14.1606C88.8217 14.1306 88.7658 14.0849 88.7234 14.0277C88.6652 13.9557 88.6337 13.8657 88.6343 13.773C88.6465 13.7234 88.6614 13.6745 88.6789 13.6266ZM91.9647 10.3025H95.8809V7.06765H94.1234C93.7471 7.06213 93.3803 7.18543 93.0838 7.41708C92.7873 7.64874 92.5789 7.97483 92.4932 8.34123L91.9647 10.3025Z" fill="white"/>
<path d="M99.2304 6.48231V5.90284C99.2265 5.82504 99.2393 5.74731 99.2678 5.67483C99.2964 5.60236 99.3401 5.53681 99.396 5.48256C99.4509 5.42762 99.5166 5.38458 99.5889 5.35609C99.6612 5.32761 99.7386 5.3143 99.8163 5.31699H107.674C107.752 5.31343 107.83 5.32609 107.903 5.35419C107.977 5.38229 108.043 5.4252 108.099 5.48024C108.154 5.53528 108.198 5.60124 108.227 5.67397C108.256 5.7467 108.269 5.82463 108.266 5.90284V6.48231C108.269 6.55993 108.255 6.63721 108.227 6.70945C108.198 6.7817 108.155 6.84741 108.101 6.90259C107.986 7.01211 107.833 7.07166 107.674 7.06816H104.917V13.6271C104.919 13.7033 104.904 13.779 104.874 13.8492C104.845 13.9194 104.801 13.9826 104.745 14.0346C104.69 14.0882 104.626 14.1304 104.555 14.1588C104.484 14.1872 104.408 14.2013 104.331 14.2002H103.159C103.084 14.2008 103.009 14.1865 102.939 14.158C102.869 14.1296 102.806 14.0877 102.752 14.0346C102.696 13.9826 102.652 13.9194 102.622 13.8492C102.593 13.779 102.578 13.7033 102.58 13.6271V7.06816H99.8163C99.6598 7.07066 99.5087 7.01114 99.396 6.90259C99.3401 6.84834 99.2964 6.78279 99.2678 6.71032C99.2393 6.63784 99.2265 6.56011 99.2304 6.48231Z" fill="white"/>
<path d="M108.043 13.6266L109.597 7.72991C110.018 6.12521 111.387 5.31649 113.711 5.31649H117.048C117.12 5.31514 117.192 5.32986 117.258 5.35959C117.324 5.38932 117.383 5.43332 117.43 5.48842C117.53 5.59799 117.584 5.74135 117.583 5.8896V13.6266C117.583 13.7032 117.567 13.779 117.537 13.8492C117.506 13.9194 117.461 13.9824 117.404 14.0341C117.293 14.1417 117.145 14.2012 116.99 14.1997H115.825C115.748 14.2015 115.672 14.1877 115.601 14.1593C115.53 14.1308 115.465 14.0882 115.411 14.0341C115.355 13.9799 115.312 13.9143 115.283 13.8418C115.254 13.7694 115.242 13.6916 115.246 13.6138V12.0537H110.858L110.438 13.6202C110.394 13.7774 110.297 13.9146 110.164 14.0086C110.033 14.1124 109.872 14.1705 109.705 14.1742H108.476C108.406 14.178 108.335 14.1644 108.27 14.1344C108.206 14.1044 108.15 14.059 108.107 14.0023C108.051 13.9296 108.021 13.8395 108.024 13.7475C108.027 13.7067 108.033 13.6662 108.043 13.6266ZM111.323 10.3025H115.258V7.06765H113.501C113.124 7.05854 112.755 7.1805 112.458 7.41274C112.16 7.64497 111.953 7.97311 111.871 8.34123L111.323 10.3025Z" fill="white"/>
<path d="M33.4885 13.6276V5.88429C33.4868 5.80429 33.5011 5.72474 33.5307 5.65037C33.5602 5.57599 33.6043 5.5083 33.6605 5.45128C33.7142 5.39598 33.7785 5.35222 33.8497 5.32265C33.9209 5.29309 33.9973 5.27836 34.0744 5.27934H37.5703C39.3725 5.27934 40.6779 5.64231 41.4993 6.36188C42.3208 7.08145 42.7283 8.20856 42.7283 9.74322C42.7283 11.2779 42.3208 12.405 41.4993 13.1246C40.6779 13.8441 39.3533 14.2007 37.5703 14.2007H34.0744C33.92 14.2022 33.7712 14.1427 33.6605 14.0352C33.6054 13.9827 33.5617 13.9194 33.5321 13.8493C33.5025 13.7792 33.4877 13.7037 33.4885 13.6276ZM35.8319 12.4368H37.4876C38.5956 12.4368 39.3533 12.2246 39.7609 11.8C40.2352 11.2148 40.4635 10.4682 40.3977 9.71775C40.4632 8.96541 40.235 8.2169 39.7609 7.62909C39.3597 7.22154 38.6019 6.9923 37.4876 6.9923H35.8319V12.4368Z" fill="white"/>
<path d="M46.4853 20.3134V17.1932C46.484 17.1627 46.489 17.1323 46.5 17.1038C46.5109 17.0753 46.5276 17.0494 46.549 17.0276C46.5712 17.0046 46.5979 16.9865 46.6275 16.9744C46.6572 16.9623 46.689 16.9566 46.7209 16.9576H47.1858C47.2168 16.9563 47.2478 16.9619 47.2764 16.974C47.3051 16.9861 47.3306 17.0044 47.3513 17.0276C47.3736 17.0491 47.3912 17.0748 47.4033 17.1032C47.4153 17.1317 47.4215 17.1623 47.4214 17.1932V18.3394H49.1343V17.1932C49.1359 17.1312 49.1613 17.0722 49.2051 17.0283C49.249 16.9845 49.308 16.9592 49.3699 16.9576H49.8284C49.8605 16.9553 49.8927 16.9604 49.9226 16.9726C49.9524 16.9847 49.979 17.0035 50.0004 17.0276C50.0226 17.0491 50.0403 17.0748 50.0523 17.1032C50.0643 17.1317 50.0705 17.1623 50.0704 17.1932V20.3134C50.0705 20.3443 50.0643 20.3749 50.0523 20.4034C50.0403 20.4318 50.0226 20.4575 50.0004 20.479C49.9539 20.5231 49.8925 20.5481 49.8284 20.549H49.3699C49.3391 20.5491 49.3085 20.543 49.28 20.5309C49.2516 20.5189 49.2258 20.5012 49.2044 20.479C49.1809 20.4599 49.1624 20.4355 49.1502 20.4078C49.138 20.3801 49.1326 20.35 49.1343 20.3198V19.0462H47.4405V20.3198C47.4408 20.3498 47.4348 20.3795 47.4227 20.407C47.4106 20.4344 47.3928 20.459 47.3704 20.479C47.349 20.5012 47.3233 20.5189 47.2948 20.5309C47.2664 20.543 47.2358 20.5491 47.2049 20.549H46.74C46.7091 20.5491 46.6785 20.543 46.6501 20.5309C46.6216 20.5189 46.5959 20.5012 46.5745 20.479C46.5478 20.4602 46.5258 20.4355 46.5103 20.4067C46.4949 20.378 46.4863 20.346 46.4853 20.3134Z" fill="white"/>
<path d="M51.1084 20.1794C50.9254 19.9953 50.7849 19.7733 50.6969 19.529C50.6089 19.2848 50.5755 19.0242 50.599 18.7657C50.5755 18.5071 50.6089 18.2466 50.6969 18.0023C50.7849 17.7581 50.9254 17.5361 51.1084 17.352C51.5336 17.0256 52.0639 16.867 52.5985 16.9063C53.1349 16.8678 53.667 17.0263 54.0949 17.352C54.2758 17.5374 54.4144 17.7598 54.5012 18.0038C54.588 18.2478 54.6211 18.5077 54.598 18.7657C54.6252 19.0213 54.5973 19.2798 54.516 19.5237C54.4347 19.7676 54.3019 19.9912 54.1268 20.1794C53.6988 20.5051 53.1668 20.6636 52.6303 20.6251C52.0851 20.6724 51.542 20.5134 51.1084 20.1794ZM51.7834 17.8742C51.6001 18.1337 51.5124 18.4488 51.5351 18.7657C51.5113 19.0827 51.5992 19.3981 51.7834 19.6572C52.0123 19.8478 52.3007 19.9522 52.5985 19.9522C52.8963 19.9522 53.1847 19.8478 53.4136 19.6572C53.5978 19.3981 53.6857 19.0827 53.6619 18.7657C53.6846 18.4488 53.5969 18.1337 53.4136 17.8742C53.1847 17.6836 52.8963 17.5792 52.5985 17.5792C52.3007 17.5792 52.0123 17.6836 51.7834 17.8742Z" fill="white"/>
<path d="M54.9037 19.6329C54.9006 19.5933 54.9072 19.5536 54.9227 19.517C54.9382 19.4804 54.9622 19.4481 54.9928 19.4228C55.0412 19.3879 55.0988 19.368 55.1584 19.3655H55.4577C55.5304 19.3655 55.6015 19.3873 55.6617 19.4282C55.7219 19.4691 55.7684 19.5271 55.7952 19.5947C55.8716 19.7666 56.0499 19.8494 56.3237 19.8494H57.1897C57.4827 19.8494 57.6291 19.7539 57.6291 19.5629C57.6253 19.5173 57.6098 19.4734 57.5841 19.4355C57.5585 19.3976 57.5236 19.3669 57.4827 19.3464C57.3615 19.2777 57.2305 19.2283 57.0942 19.1999L56.5657 19.0725L55.9862 18.9261C55.8038 18.8869 55.6265 18.8271 55.4577 18.7478C55.3128 18.6841 55.1844 18.5882 55.082 18.4676C54.9855 18.3343 54.9341 18.1737 54.9355 18.0091C54.9279 17.8614 54.9564 17.714 55.0185 17.5797C55.0807 17.4455 55.1746 17.3284 55.2921 17.2386C55.6627 17.0266 56.0894 16.9332 56.5147 16.9711H57.1515C57.478 16.9677 57.7985 17.0584 58.0749 17.2322C58.1918 17.2944 58.2907 17.3857 58.3621 17.4972C58.4335 17.6087 58.4749 17.7368 58.4824 17.869C58.4854 17.9086 58.4789 17.9484 58.4634 17.9849C58.4479 18.0215 58.4238 18.0538 58.3933 18.0792C58.3467 18.1182 58.2884 18.1406 58.2277 18.1428H57.9475C57.8738 18.1433 57.8018 18.1208 57.7413 18.0786C57.6809 18.0364 57.635 17.9766 57.61 17.9072C57.5563 17.8179 57.4777 17.7462 57.3838 17.7009C57.2899 17.6557 57.1848 17.6388 57.0815 17.6525H56.3301C56.0372 17.6525 55.8907 17.748 55.8907 17.9391C55.8907 18.0409 55.9862 18.1237 56.1772 18.1683L56.8522 18.3466L57.6355 18.5567C57.8855 18.6172 58.1171 18.7374 58.3105 18.907C58.4027 18.9844 58.4755 19.0823 58.523 19.1928C58.5706 19.3034 58.5916 19.4236 58.5843 19.5438C58.5925 19.6916 58.5642 19.8391 58.5021 19.9735C58.4399 20.1078 58.3457 20.2248 58.2277 20.3143C57.8571 20.5263 57.4304 20.6196 57.0051 20.5817H56.2537C55.9283 20.5854 55.6091 20.4923 55.3367 20.3143C55.2076 20.2531 55.0985 20.1566 55.0219 20.0361C54.9453 19.9155 54.9043 19.7758 54.9037 19.6329Z" fill="white"/>
<path d="M58.769 17.4541V17.193C58.7684 17.1611 58.7743 17.1294 58.7863 17.0998C58.7984 17.0703 58.8163 17.0435 58.839 17.021C58.8605 16.9993 58.8864 16.9824 58.915 16.9715C58.9435 16.9605 58.974 16.9557 59.0046 16.9574H62.1885C62.219 16.9557 62.2496 16.9605 62.2781 16.9715C62.3066 16.9824 62.3325 16.9993 62.3541 17.021C62.3747 17.0442 62.39 17.0716 62.3988 17.1013C62.4076 17.131 62.4097 17.1623 62.405 17.193V17.4286C62.4063 17.4596 62.4007 17.4906 62.3886 17.5192C62.3765 17.5479 62.3582 17.5734 62.335 17.5941C62.3134 17.6158 62.2875 17.6327 62.259 17.6437C62.2305 17.6547 62.1999 17.6595 62.1694 17.6578H61.055V20.2941C61.0554 20.3241 61.0493 20.3539 61.0372 20.3813C61.0252 20.4088 61.0073 20.4333 60.985 20.4533C60.9635 20.4755 60.9378 20.4932 60.9093 20.5052C60.8809 20.5173 60.8503 20.5234 60.8194 20.5234H60.3482C60.3173 20.5234 60.2867 20.5173 60.2583 20.5052C60.2298 20.4932 60.2041 20.4755 60.1826 20.4533C60.1603 20.4333 60.1424 20.4088 60.1304 20.3813C60.1183 20.3539 60.1122 20.3241 60.1126 20.2941V17.6833H59.0046C58.974 17.685 58.9435 17.6802 58.915 17.6692C58.8864 17.6582 58.8605 17.6413 58.839 17.6196C58.8168 17.5982 58.7991 17.5724 58.7871 17.544C58.775 17.5155 58.7689 17.4849 58.769 17.4541Z" fill="white"/>
<path d="M62.8062 20.3198V17.1932C62.8078 17.1312 62.8332 17.0722 62.877 17.0283C62.9209 16.9845 62.9799 16.9592 63.0418 16.9576H63.5003C63.5324 16.9553 63.5646 16.9604 63.5945 16.9726C63.6243 16.9847 63.6509 17.0035 63.6723 17.0276C63.6945 17.0491 63.7122 17.0748 63.7242 17.1032C63.7362 17.1317 63.7424 17.1623 63.7423 17.1932V20.3134C63.7424 20.3443 63.7362 20.3749 63.7242 20.4034C63.7122 20.4318 63.6945 20.4575 63.6723 20.479C63.6262 20.5237 63.5645 20.5488 63.5003 20.549H63.0418C63.011 20.5491 62.9804 20.543 62.9519 20.5309C62.9235 20.5189 62.8977 20.5012 62.8763 20.479C62.8528 20.4599 62.8343 20.4355 62.8221 20.4078C62.8099 20.3801 62.8045 20.35 62.8062 20.3198Z" fill="white"/>
<path d="M64.4555 20.3131V17.1928C64.4542 17.1623 64.4592 17.1319 64.4702 17.1034C64.4811 17.075 64.4978 17.049 64.5192 17.0273C64.5399 17.0041 64.5655 16.9858 64.5941 16.9736C64.6227 16.9615 64.6537 16.9559 64.6848 16.9572H65.4234C65.4932 16.9581 65.5607 16.9828 65.6145 17.0273C65.6771 17.0723 65.7311 17.1284 65.7737 17.1928L67.2892 19.5044V17.1928C67.2879 17.1623 67.2929 17.1319 67.3039 17.1034C67.3148 17.075 67.3315 17.049 67.3529 17.0273C67.3735 17.0061 67.3983 16.9894 67.4257 16.9784C67.4531 16.9675 67.4826 16.9624 67.5121 16.9636H67.926C67.9555 16.9624 67.985 16.9675 68.0124 16.9784C68.0398 16.9894 68.0646 17.0061 68.0852 17.0273C68.1071 17.05 68.124 17.077 68.135 17.1066C68.1459 17.1362 68.1507 17.1677 68.1489 17.1992V20.3131C68.1502 20.3436 68.1452 20.374 68.1342 20.4025C68.1233 20.4309 68.1066 20.4569 68.0852 20.4786C68.0411 20.5224 67.9818 20.5475 67.9196 20.5487H67.1045C67.0334 20.5449 66.9648 20.5206 66.9071 20.4786C66.8432 20.435 66.789 20.3787 66.7479 20.3131L65.3916 18.1798V20.3131C65.3917 20.344 65.3855 20.3746 65.3735 20.403C65.3614 20.4315 65.3438 20.4572 65.3215 20.4786C65.2754 20.5233 65.2138 20.5484 65.1496 20.5487H64.6975C64.6334 20.5478 64.572 20.5228 64.5256 20.4786C64.5024 20.4579 64.4841 20.4324 64.4719 20.4037C64.4598 20.3751 64.4542 20.3441 64.4555 20.3131Z" fill="white"/>
<path d="M68.6646 18.7666C68.6438 18.5202 68.6738 18.2721 68.7526 18.0377C68.8315 17.8033 68.9576 17.5876 69.1231 17.4039C69.512 17.0841 70.0093 16.9267 70.5113 16.9645H71.0653C71.4141 16.9592 71.7576 17.0495 72.0587 17.2256C72.1824 17.2825 72.2885 17.3716 72.3658 17.4837C72.4431 17.5957 72.4888 17.7265 72.4981 17.8624C72.5011 17.902 72.4946 17.9417 72.4791 17.9783C72.4636 18.0148 72.4395 18.0472 72.4089 18.0725C72.3609 18.109 72.3035 18.1311 72.2434 18.1362H71.9568C71.8846 18.1336 71.8148 18.1099 71.7559 18.068C71.6971 18.0261 71.6518 17.9679 71.6257 17.9006C71.5365 17.7286 71.3264 17.6459 70.9889 17.6459H70.5495C70.4166 17.6288 70.2817 17.641 70.154 17.6817C70.0264 17.7225 69.9093 17.7906 69.8108 17.8815C69.6506 18.1402 69.5812 18.4449 69.6134 18.7475C69.5852 19.0455 69.6473 19.345 69.7917 19.6072C69.8696 19.6967 69.9687 19.7653 70.08 19.8064C70.1913 19.8476 70.3111 19.8601 70.4285 19.8428H70.9379C71.1404 19.865 71.3441 19.813 71.5111 19.6963C71.5699 19.641 71.6163 19.5738 71.647 19.4991C71.6778 19.4244 71.6922 19.344 71.6894 19.2633H71.129C71.067 19.2617 71.008 19.2363 70.9642 19.1925C70.9203 19.1487 70.895 19.0897 70.8934 19.0277V18.8494C70.8921 18.8183 70.8977 18.7874 70.9098 18.7587C70.9219 18.7301 70.9402 18.7045 70.9634 18.6838C70.9849 18.6616 71.0106 18.6439 71.039 18.6319C71.0675 18.6199 71.0981 18.6137 71.129 18.6138H72.4026C72.4334 18.6137 72.464 18.6199 72.4925 18.6319C72.5209 18.6439 72.5467 18.6616 72.5681 18.6838C72.5898 18.7054 72.6067 18.7312 72.6177 18.7598C72.6287 18.7883 72.6335 18.8189 72.6318 18.8494V19.1041C72.6456 19.3019 72.6157 19.5003 72.5441 19.6851C72.4726 19.87 72.3612 20.0369 72.2179 20.1739C71.8686 20.4465 71.4309 20.5803 70.9889 20.5496H70.4285C70.1971 20.5658 69.9648 20.5346 69.7458 20.4579C69.5268 20.3813 69.3258 20.2608 69.1549 20.1039C68.9888 19.9245 68.8598 19.714 68.7757 19.4844C68.6915 19.2548 68.6538 19.0109 68.6646 18.7666Z" fill="white"/>
<path d="M75.1408 20.1294C74.9762 19.9451 74.8507 19.7293 74.7719 19.495C74.6931 19.2608 74.6626 19.013 74.6823 18.7667C74.6607 18.5197 74.691 18.271 74.771 18.0363C74.8511 17.8017 74.9792 17.5863 75.1471 17.404C75.5383 17.0838 76.0376 16.9265 76.5417 16.9646H77.1021C77.4594 16.9576 77.8104 17.0598 78.1082 17.2575C78.2454 17.3404 78.358 17.4585 78.4341 17.5996C78.5103 17.7407 78.5472 17.8996 78.5412 18.0599C78.5454 18.0996 78.5394 18.1397 78.5238 18.1764C78.5082 18.2132 78.4835 18.2454 78.452 18.27C78.4022 18.3076 78.3424 18.3298 78.2801 18.3337H77.9745C77.8927 18.3297 77.814 18.3015 77.7483 18.2528C77.6825 18.204 77.6327 18.1369 77.6051 18.0599C77.5543 17.9352 77.4653 17.8298 77.3509 17.7589C77.2365 17.688 77.1026 17.6551 76.9683 17.6651H76.5289C76.3961 17.648 76.2611 17.6602 76.1335 17.7009C76.0059 17.7416 75.8887 17.8098 75.7903 17.9007C75.6291 18.159 75.5596 18.464 75.5929 18.7667C75.5606 19.0673 75.6301 19.37 75.7903 19.6264C75.8887 19.7172 76.0059 19.7854 76.1335 19.8261C76.2611 19.8668 76.3961 19.879 76.5289 19.862H77.0511C77.1846 19.8724 77.318 19.8405 77.4323 19.7707C77.5467 19.701 77.6361 19.597 77.6879 19.4735C77.7116 19.3965 77.7587 19.3288 77.8226 19.2798C77.8864 19.2307 77.964 19.2027 78.0445 19.1997H78.3247H78.4202C78.4613 19.2171 78.4967 19.2458 78.5221 19.2825C78.5616 19.3308 78.582 19.392 78.5794 19.4544C78.5822 19.6141 78.5438 19.7718 78.468 19.9123C78.3922 20.0529 78.2814 20.1715 78.1464 20.2568C77.8509 20.4543 77.502 20.5566 77.1466 20.5497H76.5417C76.0379 20.5961 75.5358 20.4455 75.1408 20.1294Z" fill="white"/>
<path d="M79.3309 20.1794C79.1489 19.9945 79.0091 19.7724 78.9212 19.5284C78.8332 19.2843 78.7992 19.0241 78.8214 18.7657C78.7992 18.5072 78.8332 18.247 78.9212 18.003C79.0091 17.759 79.1489 17.5369 79.3309 17.352C79.7588 17.0263 80.2909 16.8678 80.8273 16.9063C81.3619 16.867 81.8922 17.0256 82.3174 17.352C82.5004 17.5361 82.6409 17.7581 82.7289 18.0023C82.8169 18.2466 82.8503 18.5071 82.8268 18.7657C82.8503 19.0242 82.8169 19.2848 82.7289 19.529C82.6409 19.7733 82.5004 19.9953 82.3174 20.1794C81.8922 20.5057 81.3619 20.6644 80.8273 20.6251C80.2909 20.6636 79.7588 20.5051 79.3309 20.1794ZM80.0122 17.8742C79.8289 18.1337 79.7412 18.4488 79.7639 18.7657C79.7401 19.0827 79.828 19.3981 80.0122 19.6572C80.2411 19.8478 80.5295 19.9522 80.8273 19.9522C81.1251 19.9522 81.4135 19.8478 81.6424 19.6572C81.8266 19.3981 81.9145 19.0827 81.8907 18.7657C81.9134 18.4488 81.8257 18.1337 81.6424 17.8742C81.4135 17.6836 81.1251 17.5792 80.8273 17.5792C80.5295 17.5792 80.2411 17.6836 80.0122 17.8742Z" fill="white"/>
<path d="M83.3362 20.3067V17.2247C83.3339 17.1926 83.3391 17.1604 83.3512 17.1305C83.3634 17.1007 83.3822 17.0741 83.4063 17.0527C83.4263 17.0288 83.4518 17.0099 83.4806 16.9978C83.5094 16.9856 83.5407 16.9804 83.5718 16.9827H84.5907C84.6589 16.9816 84.725 17.0067 84.7754 17.0527C84.8301 17.0944 84.8703 17.1524 84.89 17.2183L85.635 19.3388L86.3737 17.1928C86.3934 17.1269 86.4335 17.0689 86.4883 17.0273C86.5413 16.9813 86.6092 16.9564 86.6793 16.9572H87.6982C87.7293 16.9559 87.7602 16.9615 87.7888 16.9736C87.8175 16.9858 87.8431 17.0041 87.8638 17.0273C87.8856 17.05 87.9026 17.077 87.9135 17.1066C87.9245 17.1362 87.9292 17.1677 87.9274 17.1992V20.2812C87.9297 20.3134 87.9246 20.3456 87.9124 20.3754C87.9003 20.4052 87.8815 20.4318 87.8574 20.4532C87.8359 20.4754 87.8102 20.4931 87.7818 20.5051C87.7533 20.5171 87.7227 20.5233 87.6918 20.5232H87.2397C87.1755 20.523 87.1139 20.4979 87.0678 20.4532C87.0451 20.4308 87.0271 20.404 87.0151 20.3744C87.0031 20.3448 86.9972 20.3132 86.9977 20.2812V17.8806L86.119 20.3258C86.096 20.3884 86.0536 20.4419 85.998 20.4786C85.9459 20.5218 85.8809 20.5464 85.8133 20.5487H85.4631C85.3953 20.5474 85.33 20.5227 85.2784 20.4786C85.2228 20.4419 85.1804 20.3884 85.1574 20.3258L84.2787 17.8806V20.3067C84.2792 20.3386 84.2733 20.3703 84.2613 20.3999C84.2492 20.4294 84.2313 20.4562 84.2086 20.4786C84.1872 20.5009 84.1614 20.5185 84.133 20.5306C84.1045 20.5426 84.0739 20.5488 84.043 20.5487H83.5846C83.5204 20.5487 83.4588 20.5232 83.4135 20.4778C83.3681 20.4324 83.3426 20.3709 83.3426 20.3067H83.3362Z" fill="white"/>
<path d="M88.6025 20.3131V17.1928C88.6012 17.1623 88.6062 17.1319 88.6172 17.1034C88.6281 17.075 88.6448 17.049 88.6662 17.0273C88.6869 17.0041 88.7125 16.9858 88.7411 16.9736C88.7697 16.9615 88.8007 16.9559 88.8317 16.9572H90.7421C91.7419 16.9572 92.2449 17.4157 92.2449 18.339C92.2449 19.2624 91.7355 19.74 90.7294 19.74H89.5386V20.3003C89.5399 20.3314 89.5343 20.3624 89.5222 20.391C89.51 20.4196 89.4917 20.4452 89.4685 20.4659C89.4473 20.4884 89.4216 20.5063 89.3931 20.5184C89.3646 20.5304 89.3339 20.5364 89.303 20.536H88.8381C88.8072 20.536 88.7766 20.5299 88.7482 20.5178C88.7197 20.5058 88.694 20.4881 88.6725 20.4659C88.651 20.4466 88.6336 20.4231 88.6216 20.3968C88.6095 20.3705 88.603 20.342 88.6025 20.3131ZM89.5386 19.0395H90.4237C90.6448 19.0523 90.8652 19.0038 91.0605 18.8994C91.1934 18.753 91.267 18.5623 91.267 18.3645C91.267 18.1667 91.1934 17.9761 91.0605 17.8296C90.8652 17.7252 90.6448 17.6767 90.4237 17.6895H89.5131L89.5386 19.0395Z" fill="white"/>
<path d="M92.3977 20.3195L93.0345 17.9507C93.2064 17.3139 93.754 16.9828 94.6837 16.9828H96.0274C96.0566 16.981 96.0859 16.9864 96.1125 16.9986C96.1392 17.0109 96.1624 17.0295 96.1802 17.0528C96.2206 17.096 96.2434 17.1528 96.2439 17.212V20.3195C96.2442 20.3495 96.2382 20.3792 96.2261 20.4067C96.214 20.4342 96.1962 20.4587 96.1738 20.4787C96.1277 20.5234 96.0661 20.5485 96.0019 20.5488H95.5179C95.4559 20.5472 95.3969 20.5218 95.3531 20.478C95.3093 20.4341 95.2839 20.3751 95.2823 20.3131V19.6764H93.5248L93.3529 20.3131C93.3465 20.3481 93.333 20.3814 93.3133 20.4109C93.2936 20.4405 93.268 20.4657 93.2382 20.4851C93.1847 20.5248 93.1202 20.547 93.0536 20.5488H92.5632C92.5349 20.5501 92.5068 20.5443 92.4812 20.5321C92.4557 20.5199 92.4335 20.5016 92.4168 20.4787C92.3914 20.4509 92.3778 20.4144 92.3786 20.3768C92.3786 20.3768 92.3913 20.3386 92.3977 20.3195ZM93.7158 18.9823H95.2887V17.7087H94.5818C94.4317 17.7051 94.2851 17.7547 94.1679 17.8488C94.0494 17.9386 93.9661 18.067 93.9323 18.2118L93.7158 18.9823Z" fill="white"/>
<path d="M96.938 20.3131V17.1928C96.9379 17.1619 96.9441 17.1313 96.9561 17.1029C96.9681 17.0744 96.9858 17.0487 97.008 17.0273C97.0287 17.0041 97.0543 16.9858 97.083 16.9736C97.1116 16.9615 97.1425 16.9559 97.1736 16.9572H97.9123C97.9801 16.9585 98.0454 16.9832 98.0969 17.0273C98.1609 17.0709 98.2151 17.1272 98.2561 17.1928L99.7781 19.5044V17.1928C99.7768 17.1623 99.7818 17.1319 99.7927 17.1034C99.8037 17.075 99.8204 17.049 99.8417 17.0273C99.8623 17.0061 99.8871 16.9894 99.9146 16.9784C99.942 16.9675 99.9714 16.9624 100.001 16.9636H100.408C100.438 16.962 100.468 16.9669 100.495 16.9779C100.523 16.9889 100.547 17.0057 100.568 17.0273C100.603 17.0749 100.619 17.134 100.612 17.1928V20.3131C100.611 20.3751 100.585 20.4341 100.541 20.4779C100.498 20.5217 100.439 20.5471 100.377 20.5487H99.5934C99.5221 20.5456 99.4533 20.5212 99.396 20.4786C99.3306 20.4368 99.276 20.3801 99.2368 20.3131L97.8804 18.1798V20.3131C97.8805 20.3446 97.8737 20.3757 97.8605 20.4043C97.8473 20.4329 97.828 20.4583 97.804 20.4786C97.7826 20.5009 97.7568 20.5185 97.7284 20.5306C97.6999 20.5426 97.6694 20.5488 97.6385 20.5487H97.1863C97.1202 20.5488 97.0564 20.5237 97.008 20.4786C96.9858 20.4572 96.9681 20.4315 96.9561 20.403C96.9441 20.3746 96.9379 20.344 96.938 20.3131Z" fill="white"/>
<path d="M101.058 17.0538C101.058 17.0092 101.115 16.9837 101.179 16.9837H101.65C101.737 16.9806 101.823 17.0008 101.899 17.0423C101.975 17.0837 102.039 17.1449 102.083 17.2193L102.892 18.4674L103.694 17.1939C103.738 17.1189 103.802 17.0574 103.878 17.0159C103.954 16.9743 104.041 16.9544 104.127 16.9582H104.599C104.624 16.9545 104.651 16.9594 104.674 16.972C104.697 16.9846 104.715 17.0044 104.726 17.0283C104.726 17.0283 104.726 17.0283 104.726 17.0729C104.722 17.1163 104.706 17.158 104.681 17.1939L103.35 19.2507V20.295C103.351 20.325 103.345 20.3547 103.333 20.3822C103.321 20.4097 103.303 20.4342 103.28 20.4542C103.259 20.4767 103.233 20.4946 103.205 20.5067C103.176 20.5187 103.146 20.5247 103.115 20.5242H102.65C102.619 20.5243 102.588 20.5182 102.56 20.5061C102.532 20.4941 102.506 20.4764 102.484 20.4542C102.461 20.4351 102.442 20.4107 102.43 20.383C102.418 20.3554 102.413 20.3252 102.414 20.295V19.2761L101.09 17.1939C101.067 17.1576 101.053 17.1159 101.052 17.0729C101.053 17.0663 101.055 17.0599 101.058 17.0538Z" fill="white"/>
</g>
<defs>
<clipPath id="clip0_92_2445">
<rect width="117.583" height="26" fill="white"/>
</clipPath>
</defs>
</svg>
