<svg width="29" height="22" viewBox="0 0 29 22" fill="none" xmlns="http://www.w3.org/2000/svg">
<g clip-path="url(#clip0_80_8145)">
<path d="M27.8389 21.6918V21.7491H27.8919C27.9036 21.7491 27.9137 21.7463 27.921 21.7418C27.9277 21.7374 27.9316 21.7296 27.9316 21.7202C27.9316 21.7107 27.9277 21.7035 27.921 21.6991C27.9137 21.6941 27.9036 21.6918 27.8919 21.6918H27.8389ZM27.8925 21.6518C27.9198 21.6518 27.9411 21.6579 27.9561 21.6702C27.9712 21.6824 27.9785 21.6991 27.9785 21.7202C27.9785 21.738 27.9729 21.7524 27.9606 21.7641C27.9489 21.7752 27.9321 21.7824 27.9098 21.7852L27.9801 21.8658H27.9254L27.8601 21.7857H27.8389V21.8658H27.7931V21.6518H27.8925ZM27.8785 21.9397C27.9036 21.9397 27.9271 21.9347 27.9483 21.9252C27.9701 21.9158 27.9891 21.903 28.0053 21.8869C28.0215 21.8708 28.0343 21.8519 28.0438 21.8296C28.0527 21.808 28.0577 21.7846 28.0577 21.7596C28.0577 21.7346 28.0527 21.7113 28.0438 21.6896C28.0343 21.6679 28.0215 21.6485 28.0053 21.6324C27.9891 21.6163 27.9701 21.6035 27.9483 21.594C27.9271 21.5851 27.9036 21.5807 27.8785 21.5807C27.8534 21.5807 27.8294 21.5851 27.8076 21.594C27.7853 21.6035 27.7657 21.6163 27.7495 21.6324C27.7334 21.6485 27.7205 21.6679 27.7116 21.6896C27.7021 21.7113 27.6976 21.7346 27.6976 21.7596C27.6976 21.7846 27.7021 21.808 27.7116 21.8296C27.7205 21.8519 27.7334 21.8708 27.7495 21.8869C27.7657 21.903 27.7853 21.9158 27.8076 21.9252C27.8294 21.9347 27.8534 21.9397 27.8785 21.9397ZM27.8785 21.529C27.9115 21.529 27.9416 21.5351 27.9706 21.5474C27.9991 21.559 28.0237 21.5757 28.0455 21.5968C28.0667 21.6174 28.0834 21.6418 28.0957 21.6702C28.108 21.698 28.1141 21.728 28.1141 21.7596C28.1141 21.7913 28.108 21.8213 28.0957 21.8491C28.0834 21.8769 28.0667 21.9013 28.0455 21.9224C28.0237 21.943 27.9991 21.9597 27.9706 21.9719C27.9416 21.9841 27.9115 21.9902 27.8785 21.9902C27.845 21.9902 27.8143 21.9841 27.7853 21.9719C27.7562 21.9597 27.7311 21.943 27.7099 21.9224C27.6887 21.9013 27.6719 21.8769 27.6597 21.8491C27.6474 21.8213 27.6412 21.7913 27.6412 21.7596C27.6412 21.728 27.6474 21.698 27.6597 21.6702C27.6719 21.6418 27.6887 21.6174 27.7099 21.5968C27.7311 21.5757 27.7562 21.559 27.7853 21.5474C27.8143 21.5351 27.845 21.529 27.8785 21.529ZM6.12526 20.705C6.12526 20.2971 6.39382 19.962 6.83267 19.962C7.25198 19.962 7.53506 20.2827 7.53506 20.705C7.53506 21.1273 7.25198 21.4479 6.83267 21.4479C6.39382 21.4479 6.12526 21.1128 6.12526 20.705ZM8.01299 20.705V19.5447H7.50602V19.8264C7.34522 19.6175 7.10123 19.4864 6.76958 19.4864C6.11577 19.4864 5.60322 19.9965 5.60322 20.705C5.60322 21.414 6.11577 21.9236 6.76958 21.9236C7.10123 21.9236 7.34522 21.7924 7.50602 21.5835V21.8652H8.01299V20.705ZM25.1449 20.705C25.1449 20.2971 25.4135 19.962 25.8523 19.962C26.2722 19.962 26.5547 20.2827 26.5547 20.705C26.5547 21.1273 26.2722 21.4479 25.8523 21.4479C25.4135 21.4479 25.1449 21.1128 25.1449 20.705ZM27.0332 20.705V18.6129H26.5257V19.8264C26.3649 19.6175 26.1209 19.4864 25.7892 19.4864C25.1354 19.4864 24.6229 19.9965 24.6229 20.705C24.6229 21.414 25.1354 21.9236 25.7892 21.9236C26.1209 21.9236 26.3649 21.7924 26.5257 21.5835V21.8652H27.0332V20.705ZM14.306 19.9381C14.6326 19.9381 14.8425 20.1421 14.8961 20.501H13.6862C13.7404 20.166 13.9447 19.9381 14.306 19.9381ZM14.316 19.4864C13.6326 19.4864 13.1547 19.9815 13.1547 20.705C13.1547 21.4429 13.6522 21.9236 14.3501 21.9236C14.7013 21.9236 15.0229 21.8363 15.306 21.5985L15.0575 21.2245C14.8621 21.3795 14.6131 21.4673 14.3791 21.4673C14.0525 21.4673 13.7549 21.3168 13.6818 20.8989H15.4132C15.4182 20.8361 15.4232 20.7728 15.4232 20.705C15.4182 19.9815 14.9693 19.4864 14.316 19.4864ZM20.4376 20.705C20.4376 20.2971 20.7062 19.962 21.145 19.962C21.5643 19.962 21.8474 20.2827 21.8474 20.705C21.8474 21.1273 21.5643 21.4479 21.145 21.4479C20.7062 21.4479 20.4376 21.1128 20.4376 20.705ZM22.3253 20.705V19.5447H21.8184V19.8264C21.657 19.6175 21.4136 19.4864 21.0819 19.4864C20.4281 19.4864 19.9156 19.9965 19.9156 20.705C19.9156 21.414 20.4281 21.9236 21.0819 21.9236C21.4136 21.9236 21.657 21.7924 21.8184 21.5835V21.8652H22.3253V20.705ZM17.5745 20.705C17.5745 21.409 18.0669 21.9236 18.8184 21.9236C19.1696 21.9236 19.4036 21.8458 19.6571 21.6468L19.4136 21.239C19.2232 21.3751 19.0233 21.4479 18.8034 21.4479C18.3986 21.4429 18.101 21.1517 18.101 20.705C18.101 20.2582 18.3986 19.967 18.8034 19.962C19.0233 19.962 19.2232 20.0348 19.4136 20.171L19.6571 19.7631C19.4036 19.5642 19.1696 19.4864 18.8184 19.4864C18.0669 19.4864 17.5745 20.0009 17.5745 20.705ZM24.1109 19.4864C23.8183 19.4864 23.6279 19.6225 23.4962 19.8264V19.5447H22.9937V21.8652H23.5012V20.5644C23.5012 20.1804 23.667 19.967 23.9987 19.967C24.1014 19.967 24.2086 19.9815 24.3158 20.0254L24.4721 19.5497C24.3599 19.5058 24.2136 19.4864 24.1109 19.4864ZM10.5205 19.7292C10.2765 19.5692 9.94036 19.4864 9.56963 19.4864C8.97891 19.4864 8.59868 19.7681 8.59868 20.2293C8.59868 20.6077 8.88176 20.8411 9.40324 20.9139L9.64277 20.9478C9.92082 20.9867 10.052 21.0595 10.052 21.1906C10.052 21.3701 9.86666 21.4723 9.5205 21.4723C9.1693 21.4723 8.91582 21.3607 8.74497 21.2295L8.506 21.6224C8.78405 21.8263 9.13524 21.9236 9.51547 21.9236C10.1888 21.9236 10.5791 21.6079 10.5791 21.1662C10.5791 20.7583 10.272 20.5449 9.76449 20.4721L9.52552 20.4377C9.30609 20.4088 9.13022 20.3654 9.13022 20.2099C9.13022 20.0398 9.29604 19.9381 9.57409 19.9381C9.87169 19.9381 10.1598 20.0498 10.301 20.1371L10.5205 19.7292ZM17.0619 19.4864C16.7693 19.4864 16.579 19.6225 16.4477 19.8264V19.5447H15.9452V21.8652H16.4522V20.5644C16.4522 20.1804 16.618 19.967 16.9497 19.967C17.0524 19.967 17.1596 19.9815 17.2668 20.0254L17.4232 19.5497C17.3109 19.5058 17.1646 19.4864 17.0619 19.4864ZM12.7354 19.5447H11.9063V18.8407H11.3937V19.5447H10.9208V20.0059H11.3937V21.0645C11.3937 21.6029 11.6036 21.9236 12.2033 21.9236C12.4233 21.9236 12.6768 21.8558 12.8376 21.7441L12.6913 21.3118C12.54 21.399 12.3741 21.4429 12.2424 21.4429C11.9889 21.4429 11.9063 21.2873 11.9063 21.0545V20.0059H12.7354V19.5447ZM5.15488 21.8652V20.4088C5.15488 19.8603 4.80369 19.4914 4.23754 19.4864C3.93994 19.4814 3.63286 19.5736 3.4179 19.8992C3.2571 19.642 3.00362 19.4864 2.6474 19.4864C2.39838 19.4864 2.15495 19.5592 1.96456 19.8309V19.5447H1.45703V21.8652H1.96902V20.5788C1.96902 20.176 2.19347 19.962 2.5402 19.962C2.87687 19.962 3.04717 20.1804 3.04717 20.5738V21.8652H3.55972V20.5788C3.55972 20.176 3.79366 19.962 4.13033 19.962C4.4765 19.962 4.64233 20.1804 4.64233 20.5738V21.8652H5.15488Z" fill="#839ADA"/>
<path d="M28.1519 14.1465V13.8075H28.0631L27.9604 14.0403L27.8582 13.8075H27.7689V14.1465H27.832V13.8909L27.928 14.1115H27.9933L28.0894 13.8903V14.1465H28.1519ZM27.5885 14.1465V13.8653H27.7024V13.8081H27.4121V13.8653H27.526V14.1465H27.5885Z" fill="#839ADA"/>
<path d="M18.0566 15.6062H10.373V1.86328H18.0566V15.6062Z" fill="#839ADA"/>
<path d="M10.8657 8.73246C10.8657 5.94464 12.1773 3.46134 14.2197 1.86099C12.7261 0.690744 10.8412 -0.00773621 8.79264 -0.00773621C3.94295 -0.00773621 0.0117188 3.90532 0.0117188 8.73246C0.0117188 13.5596 3.94295 17.4727 8.79264 17.4727C10.8412 17.4727 12.7261 16.7742 14.2197 15.6039C12.1773 14.0036 10.8657 11.5203 10.8657 8.73246Z" fill="#839ADA"/>
<path d="M28.4194 8.73246C28.4194 13.5596 24.4882 17.4727 19.6385 17.4727C17.59 17.4727 15.705 16.7742 14.2109 15.6039C16.2539 14.0036 17.5654 11.5203 17.5654 8.73246C17.5654 5.94464 16.2539 3.46134 14.2109 1.86099C15.705 0.690744 17.59 -0.00773621 19.6385 -0.00773621C24.4882 -0.00773621 28.4194 3.90532 28.4194 8.73246Z" fill="#839ADA"/>
</g>
<defs>
<clipPath id="clip0_80_8145">
<rect width="28.4167" height="22" fill="white"/>
</clipPath>
</defs>
</svg>
