<svg width="74" height="73" viewBox="0 0 74 73" fill="none" xmlns="http://www.w3.org/2000/svg">
<g clip-path="url(#clip0_1401_648)">
<path d="M28.8228 1.43256C29.8061 1.17893 30.7446 0.945325 31.6785 0.694262C33.5479 0.192137 35.4562 -0.0128356 37.3866 0.000619325C41.7279 0.031537 45.8114 1.07186 49.5443 3.27388C55.9456 7.04984 59.8681 12.5901 61.3474 19.8257C61.5598 20.866 61.3711 21.8866 61.1994 22.9017C60.3519 27.9078 58.085 32.1885 54.4432 35.7566C54.2966 35.9 54.1452 36.0386 53.9949 36.1783C53.979 36.1932 53.9564 36.2006 53.8934 36.2355C54.0408 35.734 54.1813 35.2668 54.3154 34.7976C54.8874 32.7908 55.2004 30.7448 55.2808 28.6601C55.4216 24.9924 54.8443 21.4403 53.4578 18.0393C53.0801 17.1124 52.5618 16.2129 51.9583 15.4113C50.5285 13.5108 49.1191 11.5761 47.5037 9.83529C43.5026 5.52257 38.5081 2.92176 32.6915 1.89576C31.438 1.67447 30.1604 1.58887 28.8228 1.43256ZM48.9061 24.859C44.6631 17.0423 38.2742 12.1206 29.4459 10.5249C20.6211 8.92981 12.9094 11.3179 6.17225 17.1241C6.48672 16.565 6.7798 15.9928 7.11971 15.4494C10.8711 9.45111 16.211 5.61103 23.2013 4.24636C30.2327 2.87396 36.7744 4.25494 42.6948 8.29428C43.2717 8.68819 43.7272 9.28851 44.1613 9.85161C46.6164 13.0378 48.1604 16.6177 48.6919 20.5943C48.8671 21.9055 48.8645 23.2401 48.9399 24.5638C48.9446 24.6489 48.9209 24.735 48.9061 24.8587V24.859ZM36.5314 20.0295C28.1363 17.5075 20.1289 18.3683 12.8276 23.3746C5.53232 28.377 1.87372 35.4732 1.32397 44.2558C1.25374 44.0448 1.19593 43.875 1.14043 43.7041C1.08118 43.5209 1.01904 43.3377 0.966724 43.1522C0.296163 40.7761 -0.0778491 38.3525 0.0204229 35.8883C0.268993 29.6483 2.52058 24.2177 6.90495 19.7012C10.1043 16.4059 13.96 14.197 18.4325 13.0599C19.1525 12.8767 19.8835 12.6866 20.6194 12.6285C21.2732 12.5767 21.9475 12.6643 22.6027 12.7579C27.2889 13.4295 31.4146 15.3149 34.9527 18.4344C35.5229 18.9371 36.0253 19.5145 36.5314 20.029V20.0295ZM56.5942 6.48817C59.2822 7.78643 61.6193 9.51839 63.6417 11.664C66.9714 15.1958 69.0819 19.3476 69.8646 24.1132C70.9422 30.6769 69.584 36.7342 65.708 42.1823C65.2028 42.892 64.4172 43.4322 63.6917 43.9561C60.4005 46.333 56.7138 47.7443 52.6694 48.2004C51.4479 48.3384 50.2114 48.3449 48.9821 48.3713C56.7679 44.1997 61.828 37.9706 63.414 29.3034C64.9987 20.6427 62.4899 13.0613 56.5942 6.48817ZM24.8416 24.966C17.0793 29.0958 12.0229 35.3091 10.4396 43.9684C8.85941 52.6073 11.3419 60.1818 17.1891 66.7203L17.1313 66.8039C16.0844 66.1621 14.9985 65.5738 13.9973 64.8687C8.97213 61.3289 5.66095 56.5925 4.29236 50.6363C2.65931 43.5289 3.98888 36.9412 8.2166 30.952C8.3588 30.7505 8.54725 30.5742 8.73859 30.415C12.316 27.4337 16.4272 25.6474 21.0668 25.0943C22.3143 24.946 23.5785 24.9394 24.8355 24.8679L24.8413 24.966H24.8416ZM44.5269 71.5778C43.839 71.7682 43.1549 71.9737 42.4618 72.1461C40.2458 72.6986 37.9864 72.9477 35.7117 72.8114C27.2871 72.3061 20.7278 68.5476 16.0784 61.5728C14.2748 58.8672 13.1444 55.8745 12.638 52.6743C12.5203 51.9317 12.6414 51.1347 12.7516 50.3766C13.3519 46.2405 14.9633 42.5235 17.6004 39.2614C18.308 38.3869 19.128 37.6011 19.898 36.776C19.95 36.7205 20.0165 36.6787 20.0905 36.6191C17.5221 45.005 18.3976 52.9354 23.4566 60.1658C28.5158 67.3965 35.6845 71.0227 44.5272 71.5778H44.5269ZM25.0463 48.2407C29.2407 55.971 35.5215 60.9605 44.2475 62.5275C52.9763 64.0952 60.6259 61.6238 67.2671 55.8379C66.9604 56.3875 66.674 56.9492 66.3433 57.484C62.8246 63.1771 57.8278 66.9556 51.2753 68.5342C44.0827 70.267 37.384 68.9979 31.2675 64.8395C30.9793 64.6437 30.7171 64.3921 30.4923 64.1252C27.732 60.8534 25.9992 57.1152 25.3099 52.9027C25.0685 51.4295 24.9812 49.9492 25.0226 48.4597C25.024 48.4036 25.0341 48.3475 25.0463 48.2407ZM72.7917 28.6275C73.0842 29.8951 73.4218 31.1547 73.6588 32.4321C74.045 34.5096 74.0796 36.6126 73.8713 38.7101C73.5371 42.0721 72.5446 45.2409 70.85 48.1798C68.0718 52.9978 64.1007 56.4963 58.9446 58.6697C57.2191 59.3971 55.4299 59.9368 53.574 60.1807C52.8405 60.2771 52.0644 60.1689 51.3207 60.0633C47.6878 59.548 44.3561 58.252 41.3346 56.1843C39.9748 55.2541 38.7187 54.1835 37.5872 52.9906C37.528 52.9279 37.4762 52.8581 37.4207 52.7908C45.8724 55.3306 53.8784 54.4732 61.1806 49.4691C68.4758 44.4708 72.1396 37.378 72.6856 28.6598L72.7917 28.6275ZM27.0894 47.1918C28.6511 48.5974 30.3469 49.8101 32.1733 50.8481C32.2857 50.9122 32.3794 51.0273 32.4525 51.1373C34.6919 54.5182 37.5655 57.2389 41.0842 59.2904C41.1473 59.327 41.2074 59.3691 41.2478 59.4344C34.8711 57.2363 30.1561 53.1481 27.0897 47.1918H27.0894ZM46.8687 25.6067C46.3638 25.1865 45.884 24.7307 45.3484 24.3526C44.2391 23.5696 43.0988 22.8302 41.9753 22.0672C41.8279 21.967 41.6704 21.8554 41.575 21.7122C39.3538 18.3628 36.5111 15.6581 33.0349 13.6072C32.9586 13.562 32.8846 13.5119 32.8343 13.434C39.1567 15.624 43.835 19.6817 46.8687 25.6067ZM60.4959 31.8246C58.246 38.1192 54.151 42.7729 48.1497 45.7939C48.2067 45.7207 48.2581 45.6431 48.3202 45.5749C49.618 44.155 50.7424 42.612 51.708 40.9533C51.7962 40.8022 51.9234 40.6527 52.069 40.5583C55.4912 38.3311 58.2457 35.4755 60.3242 31.9806C60.3531 31.9322 60.3869 31.8867 60.4201 31.8412C60.4242 31.8355 60.4375 31.8369 60.4959 31.8243V31.8246ZM25.8405 27.0221C25.1246 27.9296 24.3832 28.8233 23.6959 29.756C23.2106 30.4138 22.8062 31.1301 22.3484 31.8091C22.2131 32.0095 22.0455 32.2114 21.8461 32.3428C18.5193 34.5356 15.8214 37.3194 13.7753 40.7206C13.7193 40.8142 13.6554 40.9029 13.558 41.0501C15.3248 35.3904 19.9387 29.8181 25.8408 27.0221H25.8405ZM17.214 23.4791C23.2542 20.5692 29.4659 20.1675 35.8423 22.2066C33.9994 22.306 32.1768 22.5496 30.394 23.0185C29.787 23.178 29.2214 23.176 28.6118 23.0635C24.8523 22.3715 21.1154 22.4944 17.4099 23.4451C17.3464 23.4614 17.2793 23.468 17.214 23.4791ZM22.2478 37.3689C22.3894 38.5277 22.5082 39.71 22.6883 40.8832C22.8045 41.6435 22.9935 42.395 23.1837 43.1419C23.2672 43.4708 23.2791 43.7774 23.2106 44.1078C22.725 46.4458 22.5342 48.8104 22.7759 51.1851C22.9363 52.7602 23.2392 54.3209 23.4456 55.6759C22.7325 54.5293 21.2853 50.7471 21.0347 46.7684C20.8315 43.5467 21.2232 40.4068 22.2478 37.3689ZM50.4808 16.8877C53.3992 22.9819 53.8079 29.1517 51.7823 35.4752C51.6138 34.1912 51.4577 32.9016 51.2693 31.6168C51.1904 31.08 51.0849 30.5389 50.9146 30.0248C50.7279 29.4608 50.7629 28.9246 50.8742 28.3587C51.4002 25.6746 51.4887 22.9739 51.088 20.2666C50.9256 19.1698 50.6978 18.0823 50.4811 16.8877H50.4808ZM38.1343 50.6222C40.2368 50.5455 42.2915 50.1774 44.3278 49.6652C44.5943 49.5983 44.9117 49.6956 45.1995 49.7505C49.0532 50.4863 52.8778 50.3509 56.6751 49.3827C56.7393 49.3661 56.8043 49.3535 56.8731 49.3718C50.8005 52.2726 44.5532 52.676 38.1343 50.6225V50.6222Z" fill="white"/>
</g>
<defs>
<clipPath id="clip0_1401_648">
<rect width="74" height="73" fill="white"/>
</clipPath>
</defs>
</svg>
