<svg width="126" height="53" viewBox="0 0 126 53" fill="none" xmlns="http://www.w3.org/2000/svg">
<g clip-path="url(#clip0_1401_663)">
<path d="M13.1726 4.16285C11.5957 0.624954 7.69827 -0.977581 4.05913 0.677387C0.415545 2.33463 -0.925185 6.46977 0.720666 10.0099L16.001 44.0052C18.4041 49.3325 20.9363 52.125 25.689 52.125C30.7669 52.125 32.9807 49.0841 35.3815 44.0052C35.3815 44.0052 48.7087 14.3024 48.8423 13.9924C48.9782 13.6778 49.4058 12.7181 50.7621 12.7272C51.9091 12.734 52.8734 13.6709 52.8734 14.9293V43.9755C52.8734 48.4526 55.2988 52.125 59.9668 52.125C64.6304 52.125 67.1516 48.4526 67.1516 43.9755V20.2065C67.1516 15.6222 70.3609 12.6474 74.7349 12.6474C79.109 12.6474 82.0199 15.7294 82.0199 20.2065V43.9755C82.0199 48.4526 84.4541 52.125 89.1133 52.125C93.7769 52.125 96.3114 48.4526 96.3114 43.9755V20.2065C96.3114 15.6222 99.5073 12.6474 103.884 12.6474C108.251 12.6474 111.173 15.7294 111.173 20.2065V43.9755C111.173 48.4526 113.605 52.125 118.269 52.125C122.93 52.125 125.46 48.4526 125.46 43.9755V16.9239C125.46 6.98268 117.65 0.0185928 108.251 0.0185928C98.8637 0.0185928 92.9841 6.66582 92.9841 6.66582C89.8594 2.51928 85.5521 0.02771 78.2627 0.02771C70.5702 0.02771 63.8376 6.66582 63.8376 6.66582C60.7107 2.51928 55.3878 0.02771 50.9803 0.02771C44.1631 0.02771 38.7489 3.09601 35.4461 10.826L25.689 34.3672L13.1726 4.16285Z" fill="white"/>
</g>
<defs>
<clipPath id="clip0_1401_663">
<rect width="126" height="53" fill="white"/>
</clipPath>
</defs>
</svg>
