<svg width="182" height="40" viewBox="0 0 182 40" fill="none" xmlns="http://www.w3.org/2000/svg">
<g clip-path="url(#clip0_1401_688)">
<path d="M16.9044 19.6947L5.63348 8.44141L-0.000976562 14.0681L5.63545 19.6947L0.000996392 25.3214L5.63644 30.949L16.9073 19.6937L16.9044 19.6947Z" fill="white"/>
<path d="M33.8072 19.6943L14.0856 0L8.45117 5.62667L22.5383 19.6943L8.45117 33.762L14.0866 39.3886L33.8082 19.6943H33.8072Z" fill="white"/>
<path d="M41.5625 31.7052H42.1601L43.4291 37.0591L45.2948 31.7052H45.7267L47.6427 36.9419L48.9384 31.7052H49.5152L47.9819 37.7947H47.3705L45.5127 32.6052L43.6855 37.7947H43.0515L41.5625 31.7052ZM54.2237 34.3373H58.1336C58.1138 32.9193 57.4965 32.2103 56.2866 32.2103C54.9771 32.2103 54.2898 32.9193 54.2228 34.3275L54.2237 34.3373ZM56.2837 31.6884C57.891 31.6884 58.6996 32.6042 58.6996 34.4555C58.6996 34.5835 58.6897 34.7214 58.6798 34.8691H54.2228C54.2228 36.4643 55.0313 37.2521 56.6584 37.2521C57.3191 37.2521 57.9206 37.1536 58.4333 36.9567V37.4786C57.9107 37.6755 57.319 37.7641 56.6485 37.7641C54.6271 37.7641 53.6114 36.7203 53.6114 34.6426C53.6114 32.6633 54.489 31.6687 56.2639 31.6687L56.2837 31.6884ZM63.9455 37.0453C64.547 37.1536 65.0894 37.2127 65.5725 37.2127C67.101 37.2127 67.8701 36.3264 67.8701 34.554C67.8701 33.0178 67.1601 32.2497 65.7599 32.2497C65.2175 32.2497 64.616 32.3482 63.9455 32.555V37.0453ZM63.3539 29.463H63.9455V31.9543C64.6456 31.7574 65.257 31.6589 65.7697 31.6589C67.5545 31.6589 68.4519 32.6338 68.4519 34.5835C68.4519 36.6908 67.5151 37.7444 65.6317 37.7444C64.7837 37.7444 64.0244 37.6657 63.3637 37.4983L63.3539 29.463ZM83.3515 37.577C82.8684 37.6853 82.3457 37.7444 81.7837 37.7444C79.8016 37.7444 78.8156 36.6908 78.8156 34.5835C78.8156 32.6338 79.8016 31.6549 81.7837 31.6549C82.3359 31.6549 82.8684 31.714 83.3515 31.8292V32.3511C82.8289 32.233 82.326 32.1739 81.833 32.1739C80.2454 32.1739 79.4565 32.9755 79.4565 34.5766C79.4565 36.3392 80.2454 37.2156 81.833 37.2156C82.3161 37.2156 82.819 37.1566 83.3417 37.0482L83.3515 37.577ZM90.3625 37.2816C91.8022 37.2816 92.5221 36.4151 92.5221 34.6721C92.5221 32.9686 91.8022 32.1168 90.3625 32.1168C88.9229 32.1168 88.203 32.9666 88.203 34.6721C88.203 36.4151 88.9229 37.2816 90.3625 37.2816ZM87.6114 34.7017C87.6114 32.6338 88.5284 31.5998 90.3625 31.5998C92.1967 31.5998 93.1038 32.6338 93.1038 34.7017C93.1038 36.7597 92.1868 37.7937 90.3527 37.7937C88.5284 37.7937 87.6114 36.7597 87.6015 34.6918L87.6114 34.7017ZM97.7779 37.7385V31.653H98.2019L98.2808 32.4309C99.0302 31.909 99.7599 31.653 100.49 31.653C101.919 31.653 102.629 32.293 102.629 33.5732V37.7385H102.042V33.6027C102.042 32.6968 101.509 32.2438 100.454 32.2438C99.7441 32.2438 99.0538 32.5028 98.3735 33.0158V37.7887L97.7779 37.7385ZM107.56 30.6584H107.974L108.082 31.6431H109.847V32.165H108.132V36.0054C108.132 36.806 108.41 37.2068 108.98 37.2068H109.843V37.7287H108.995C108.038 37.7287 107.56 37.1822 107.56 36.0872V30.6584ZM114.258 37.7316V31.6461H114.677L114.746 32.6505C115.338 31.9809 115.996 31.6461 116.718 31.6461V32.1325C116.018 32.1325 115.393 32.487 114.845 33.196V37.7356L114.258 37.7316ZM123.448 37.2688C124.888 37.2688 125.605 36.3964 125.605 34.6593C125.605 32.9558 124.892 32.104 123.455 32.104C122.016 32.104 121.306 32.9508 121.306 34.6564C121.306 36.3944 122.026 37.2619 123.465 37.2619L123.448 37.2688ZM120.72 34.682C120.72 32.6141 121.637 31.5801 123.463 31.5801C125.289 31.5801 126.207 32.6141 126.207 34.682C126.207 36.7499 125.29 37.7838 123.461 37.7838C121.637 37.7838 120.72 36.7499 120.715 34.682H120.72ZM131.584 37.7247H130.992V29.4531H131.581L131.584 37.7247ZM143.212 36.8346C143.808 37.0473 144.356 37.1497 144.855 37.1497C146.374 37.1497 147.133 36.2782 147.133 34.5254C147.133 32.9695 146.374 32.1916 144.865 32.1916C144.342 32.1916 143.787 32.2409 143.208 32.3393L143.212 36.8346ZM142.621 31.8913C143.295 31.7288 144.045 31.6451 144.879 31.6451C146.766 31.6451 147.709 32.6101 147.709 34.5402C147.709 36.6672 146.762 37.7346 144.859 37.7346C144.391 37.7346 143.841 37.6361 143.212 37.4392V39.9305H142.621V31.8913ZM154.419 34.7716C153.256 34.7716 152.677 35.198 152.677 36.0478C152.677 36.8611 153.166 37.2668 154.136 37.2668C154.856 37.2668 155.534 37.0699 156.182 36.676V34.8897C155.559 34.8129 154.972 34.7735 154.423 34.7735L154.419 34.7716ZM152.093 36.0675C152.093 34.8563 152.872 34.2526 154.43 34.2526C154.982 34.2526 155.564 34.29 156.195 34.3678V33.6195C156.195 32.6879 155.633 32.2212 154.499 32.2212C153.858 32.2212 153.217 32.3177 152.586 32.5117V31.9898C153.227 31.7948 153.858 31.6983 154.509 31.6983C156.037 31.6983 156.797 32.3285 156.797 33.5889V37.7838H156.442L156.313 37.1733C155.584 37.577 154.864 37.774 154.174 37.774C152.813 37.774 152.132 37.193 152.132 36.0507L152.093 36.0675ZM161.776 37.774V31.6884H162.2L162.279 32.4664C163.029 31.9445 163.768 31.6884 164.488 31.6884C165.918 31.6884 166.638 32.3285 166.638 33.6086V37.774H166.056V33.5889C166.056 32.683 165.523 32.23 164.468 32.23C163.762 32.23 163.068 32.4861 162.384 32.9981V37.774H161.776ZM171.894 34.3176H175.808C175.779 32.8996 175.167 32.1906 173.964 32.1906C172.653 32.1906 171.972 32.8996 171.903 34.3078L171.894 34.3176ZM173.974 31.6687C175.586 31.6687 176.39 32.5944 176.39 34.4358C176.39 34.5638 176.386 34.7017 176.38 34.8494H171.913C171.913 36.4446 172.727 37.2422 174.359 37.2422C175.029 37.2422 175.621 37.1438 176.139 36.9468V37.4687C175.62 37.6558 175.027 37.7543 174.357 37.7543C172.335 37.7543 171.323 36.7105 171.323 34.6426C171.323 32.6535 172.208 31.6589 173.975 31.6589L173.974 31.6687ZM181.773 37.7444H181.181V29.4728H181.773V37.7444Z" fill="white"/>
<path d="M52.019 23.4496V16.8717C52.019 16.0997 51.7153 15.5659 51.1069 15.2705C50.4985 14.9751 49.5785 14.8274 48.3459 14.8274H45.4892V25.3481H48.2256C49.6653 25.3481 50.6573 25.2349 51.2035 25.0133C51.7459 24.7917 52.018 24.2698 52.018 23.4476L52.019 23.4496ZM55.7622 16.9445V23.4496C55.7622 25.2565 55.2198 26.4805 54.1352 27.1226C53.0505 27.7626 51.1375 28.0827 48.3962 28.0827H41.75V12.0909H48.3764C51.0191 12.0909 52.9124 12.4286 54.0563 13.1012C55.2001 13.7757 55.772 15.0568 55.772 16.9445H55.7622ZM62.3295 28.0817H58.819V16.1568H62.3196L62.3295 28.0817ZM62.3295 14.7526H58.819V11.8477H62.3196L62.3295 14.7526ZM73.1862 18.8933H71.9832C71.0267 18.8933 70.297 19.0459 69.8138 19.3492C69.3306 19.6545 69.0841 20.1764 69.0841 20.9149V28.0836H65.5727V16.1607H68.9096V18.2562C68.9263 17.6654 69.2576 17.1267 69.9055 16.6413C70.5563 16.1587 71.2298 15.9155 71.9349 15.9155H73.1842L73.1862 18.8933ZM82.5737 21.037V19.3118C82.5737 18.9337 82.4257 18.6422 82.1299 18.4374C81.8341 18.2325 81.3016 18.1301 80.5325 18.1301C79.6844 18.1301 79.1125 18.2325 78.8167 18.4374C78.5209 18.6442 78.373 18.9347 78.373 19.3118V21.035L82.5737 21.037ZM85.9165 23.0823H78.3828V24.1655C78.3828 24.8351 78.6195 25.3274 79.0829 25.6327C79.5464 25.9281 80.424 26.0857 81.7059 26.0857C82.8596 26.0857 84.1514 25.9084 85.5911 25.5638V27.8483C84.1218 28.1536 82.6032 28.3111 81.0354 28.3111C76.9234 28.3111 74.8724 27.0211 74.8724 24.4412V20.1577C74.8724 18.6314 75.3556 17.5383 76.3121 16.8786C77.2686 16.2188 78.6984 15.8938 80.6114 15.8938C82.406 15.8938 83.7372 16.1991 84.6198 16.8293C85.5013 17.4497 85.9411 18.5624 85.9411 20.1577L85.9165 23.0823ZM98.2819 27.9074C96.8718 28.1831 95.5603 28.321 94.3474 28.321C93.7558 28.321 93.2825 28.3111 92.9373 28.2914C92.5824 28.2717 92.1386 28.2225 91.6061 28.1536C91.0737 28.0748 90.6398 27.9468 90.3144 27.7695C89.989 27.5824 89.6636 27.3559 89.3283 27.0704C89.0029 26.7848 88.7564 26.3909 88.5986 25.9084C88.4408 25.416 88.3619 24.8449 88.3619 24.195V20.2266C88.3619 19.6358 88.431 19.1139 88.5651 18.6609C88.7031 18.2079 88.8708 17.8337 89.068 17.5285C89.2701 17.2232 89.5511 16.9672 89.9101 16.7506C90.2749 16.5339 90.6003 16.3764 90.906 16.268C91.2117 16.1597 91.6061 16.0711 92.0992 16.012C92.5922 15.9431 92.9965 15.9037 93.3219 15.8938C93.6473 15.884 94.0812 15.8742 94.6038 15.8742C95.4814 15.8742 96.6647 16.0219 98.134 16.3173V18.6806C96.4724 18.2867 95.2053 18.0898 94.3435 18.0898C92.7263 18.0898 91.9177 18.6511 91.9177 19.7638V24.1556C91.9177 25.4161 92.8052 26.0561 94.5802 26.0561C95.4183 26.0561 96.6588 25.869 98.3075 25.5145L98.2819 27.9074ZM108.074 28.2028C107.403 28.2816 106.762 28.321 106.131 28.321C105.589 28.321 105.115 28.2914 104.701 28.252C104.297 28.2126 103.873 28.1142 103.429 27.9566C102.995 27.7991 102.63 27.5923 102.354 27.3362C102.078 27.0802 101.842 26.7159 101.664 26.2531C101.487 25.7804 101.388 25.229 101.388 24.5889V18.3556H99.0313V16.14H101.388V12.6935H104.898V16.14H108.073V18.3556H104.878V23.9685C104.878 24.7858 104.996 25.3471 105.236 25.6327C105.472 25.9183 106.005 26.066 106.817 26.066C107.089 26.066 107.505 26.0266 108.066 25.9379L108.074 28.2028Z" fill="white"/>
<path d="M120.409 21.3054L118.441 15.2947H118.346L116.379 21.3113L120.409 21.3054ZM126.412 28.0802H122.618L121.226 23.8676H115.536L114.167 28.0822H110.472L116.233 12.0904H120.794L126.412 28.0802ZM136.085 24.5086V19.7032C136.085 19.1124 135.93 18.7028 135.617 18.4723C135.304 18.2429 134.637 18.1277 133.613 18.1277C132.541 18.1277 131.877 18.234 131.621 18.4467C131.365 18.6614 131.237 19.1213 131.237 19.8273V24.3865C131.237 25.0433 131.365 25.4894 131.619 25.7287C131.874 25.968 132.475 26.0862 133.419 26.0862C134.555 26.0862 135.282 25.9838 135.604 25.7789C135.919 25.5741 136.077 25.1507 136.077 24.5086H136.085ZM139.578 28.0832H136.186V26.7262C135.91 27.1694 135.663 27.4943 135.436 27.6991C135.209 27.9039 134.874 28.0605 134.421 28.1669C133.967 28.2752 133.326 28.3284 132.498 28.3284C130.516 28.3284 129.214 28.0723 128.603 27.5642C127.991 27.062 127.686 25.9296 127.686 24.167V19.5092C127.686 18.17 128.05 17.2346 128.8 16.7028C129.539 16.1809 130.713 15.915 132.31 15.915C133.464 15.915 134.273 16.0234 134.736 16.2498C135.2 16.4763 135.633 16.8899 136.038 17.5004V10.8438H139.538L139.578 28.0832ZM160.67 28.0832H157.169V19.8293C157.169 19.1075 157.081 18.6437 156.913 18.4379C156.745 18.2331 156.282 18.1306 155.533 18.1306C154.566 18.1306 153.984 18.239 153.767 18.4458C153.55 18.6525 153.442 19.1154 153.442 19.8441V28.096H149.932V19.8441C149.932 19.1252 149.843 18.6624 149.675 18.4556C149.508 18.2587 149.044 18.1503 148.295 18.1503C147.328 18.1503 146.747 18.2587 146.53 18.4655C146.313 18.6722 146.204 19.1351 146.204 19.8637V28.1157H142.694V16.1602H146.194V17.6137C146.411 16.4812 147.565 15.9141 149.626 15.9141C150.73 15.9141 151.559 16.0618 152.111 16.3572C152.663 16.6526 153.038 17.0957 153.225 17.6865C153.412 17.08 153.777 16.6329 154.32 16.3454C154.852 16.0578 155.7 15.9141 156.844 15.9141C158.363 15.9141 159.378 16.1898 159.881 16.7392C160.384 17.2907 160.64 18.1572 160.64 19.3389L160.67 28.0832ZM167.415 28.0832H163.904V16.1583H167.405L167.415 28.0832ZM167.415 14.7541H163.904V11.8472H167.405L167.415 14.7541ZM181.861 28.0832H178.36V19.8037C178.36 19.1469 178.252 18.7038 178.035 18.4743C177.818 18.2439 177.295 18.1297 176.487 18.1297C175.481 18.1297 174.84 18.238 174.564 18.4615C174.288 18.6821 174.16 19.1311 174.16 19.8037V28.0822H170.649V16.1573H174.1V17.6107C174.367 16.4783 175.609 15.9111 177.818 15.9111C179.356 15.9111 180.411 16.1937 180.983 16.7609C181.555 17.3281 181.841 18.1858 181.841 19.335L181.861 28.0832Z" fill="white"/>
</g>
<defs>
<clipPath id="clip0_1401_688">
<rect width="181.887" height="40" fill="white"/>
</clipPath>
</defs>
</svg>
