<svg width="183" height="40" viewBox="0 0 183 40" fill="none" xmlns="http://www.w3.org/2000/svg">
<g clip-path="url(#clip0_1401_694)">
<path d="M15.2282 10.37H26.052L24.3757 16.799C24.1197 17.695 23.6407 18.4146 22.9389 18.9581C22.2363 19.5025 21.422 19.7739 20.4965 19.7739H15.4676C14.318 19.7739 13.3039 20.1095 12.4262 20.7814C11.5475 21.4531 10.9334 22.3645 10.5821 23.516C10.3586 24.3798 10.3347 25.1954 10.5105 25.9629C10.6858 26.7307 10.9969 27.4107 11.4444 28.0019C11.8912 28.5941 12.4658 29.0658 13.1687 29.4176C13.8705 29.7699 14.637 29.9451 15.4676 29.9451H18.5327C19.1074 29.9451 19.5782 30.1776 19.9455 30.6407C20.3123 31.1048 20.4163 31.6243 20.257 32.2L18.3413 39.3008H14.9887C12.6898 39.3008 10.5742 38.797 8.64276 37.7896C6.7104 36.7819 5.10596 35.447 3.82943 33.7833C2.55194 32.1207 1.68155 30.2256 1.21921 28.0982C0.755921 25.9713 0.811957 23.7882 1.38668 21.5489L1.57842 20.8292C1.99286 19.2941 2.63943 17.8786 3.5178 16.5833C4.39585 15.2877 5.43355 14.1844 6.6309 13.2727C7.82825 12.3611 9.16129 11.6497 10.6302 11.1378C12.0985 10.6265 13.6311 10.37 15.2282 10.37Z" fill="white"/>
<path d="M20.6875 39.3008L30.1226 3.89294C30.3775 2.99783 30.8565 2.27816 31.5594 1.73392C32.2612 1.19033 33.0754 0.918297 34.002 0.918297H44.0118C46.3107 0.918297 48.4254 1.42207 50.3577 2.4296C52.289 3.43715 53.8936 4.77317 55.1711 6.43578C56.4476 8.09918 57.3263 9.99447 57.8052 12.1212C58.2842 14.2489 58.2197 16.4317 57.6135 18.6702L57.4221 19.3899C57.0067 20.9252 56.3684 22.3405 55.5063 23.6359C54.6441 24.9313 53.6145 26.0432 52.4172 26.9704C51.2198 27.8985 49.8861 28.6181 48.4179 29.1294C46.949 29.6415 45.4164 29.8972 43.8202 29.8972H35.1514L36.8756 23.42C37.1307 22.5564 37.6097 21.8532 38.3124 21.309C39.0144 20.7656 39.8284 20.4934 40.7549 20.4934H43.5329C44.6822 20.4934 45.712 20.1417 46.6219 19.4378C47.532 18.7346 48.1307 17.8231 48.4179 16.7031C48.6409 15.9039 48.6649 15.1198 48.4899 14.3522C48.3141 13.5845 48.0026 12.9053 47.5558 12.3131C47.1083 11.7217 46.5336 11.2419 45.8318 10.8738C45.129 10.5064 44.3629 10.322 43.5329 10.322H38.1688L31.1761 36.3743C30.9202 37.2377 30.4412 37.9417 29.7393 38.4852C29.0368 39.0294 28.2383 39.3008 27.3446 39.3008H20.6875Z" fill="white"/>
<path d="M80.4112 20.3964L80.5549 19.8686C80.6186 19.6131 80.579 19.3972 80.4351 19.2209C80.2914 19.0457 80.0919 18.9571 79.8365 18.9571H64.271C63.6006 18.9571 62.9935 18.8133 62.451 18.5252C61.9079 18.2374 61.461 17.8617 61.1103 17.3978C60.7584 16.9346 60.519 16.3985 60.3919 15.7905C60.2637 15.1833 60.2795 14.5595 60.4395 13.9193L61.3973 10.273H82.4706C83.7797 10.273 84.9771 10.5609 86.0627 11.1368C87.1478 11.7124 88.0506 12.4642 88.769 13.3916C89.4874 14.3196 89.9818 15.3827 90.2534 16.5821C90.5244 17.7816 90.5003 19.0215 90.1817 20.3004L86.3979 34.4062C86.0151 35.8455 85.2405 37.0133 84.0752 37.9086C82.9093 38.8045 81.5764 39.252 80.0759 39.252L64.5104 39.204C63.1373 39.204 61.8763 38.9084 60.727 38.3162C59.5774 37.725 58.6355 36.9415 57.9011 35.9655C57.1664 34.9902 56.656 33.8707 56.3685 32.607C56.0814 31.3437 56.1135 30.0565 56.4643 28.7446L56.656 28.0249C56.879 27.13 57.2547 26.2979 57.7814 25.5302C58.3083 24.7624 58.9225 24.1072 59.6254 23.5629C60.3272 23.0194 61.1103 22.5959 61.9721 22.2917C62.8342 21.988 63.7445 21.8357 64.7023 21.8357H77.777L76.8191 25.4343C76.5634 26.2979 76.0845 27.0017 75.3823 27.5451C74.6799 28.0895 73.8813 28.3608 72.9876 28.3608H67.1446C66.6015 28.3608 66.2504 28.6331 66.0911 29.1765C65.9953 29.5289 66.059 29.8407 66.2825 30.1121C66.5057 30.3842 66.7929 30.5198 67.1446 30.5198H76.5797C76.9307 30.5198 77.2339 30.4238 77.4898 30.2321C77.7449 30.04 77.9043 29.7844 77.9688 29.4643L78.0645 29.0804L80.4112 20.3964Z" fill="white"/>
<path d="M108.285 10.37C110.615 10.37 112.746 10.8738 114.678 11.8813C116.61 12.8888 118.214 14.2249 119.492 15.8875C120.768 17.551 121.639 19.4545 122.102 21.5969C122.564 23.7402 122.493 25.9317 121.887 28.17L119.492 37.1899C119.332 37.8299 118.989 38.3412 118.462 38.7252C117.935 39.109 117.352 39.3008 116.714 39.3008H111.541C110.935 39.3008 110.456 39.0694 110.105 38.6053C109.753 38.142 109.657 37.6215 109.817 37.046L112.691 26.1549C112.914 25.3556 112.938 24.5717 112.762 23.8039C112.587 23.0362 112.275 22.357 111.829 21.7648C111.381 21.1734 110.807 20.6936 110.105 20.3254C109.402 19.9581 108.635 19.7739 107.806 19.7739H102.442L97.7956 37.1899C97.636 37.8299 97.2929 38.3412 96.7661 38.7252C96.2391 39.109 95.6404 39.3008 94.9701 39.3008H89.8454C89.2707 39.3008 88.7993 39.0694 88.4326 38.6053C88.066 38.142 87.9618 37.6215 88.1211 37.046L95.2095 10.37H108.285Z" fill="white"/>
<path d="M136.495 19.5098C136.112 19.8142 135.84 20.2055 135.68 20.6853L133.525 28.8416C133.397 29.29 133.478 29.7052 133.765 30.089C134.052 30.473 134.435 30.6647 134.914 30.6647H154.742L153.21 36.3743C152.954 37.2377 152.475 37.9417 151.773 38.4852C151.07 39.0294 150.272 39.3008 149.378 39.3008H131.322C130.013 39.3008 128.815 39.0212 127.73 38.4612C126.644 37.9021 125.742 37.1502 125.024 36.2062C124.306 35.2633 123.81 34.1913 123.54 32.9918C123.269 31.7924 123.308 30.5688 123.659 29.3213L126.581 18.4303C126.9 17.2475 127.395 16.1597 128.065 15.1678C128.736 14.1767 129.526 13.329 130.436 12.625C131.346 11.9218 132.367 11.3702 133.501 10.9697C134.634 10.5702 135.808 10.37 137.022 10.37H149.809C151.118 10.37 152.316 10.6579 153.401 11.2336C154.486 11.8093 155.389 12.5613 156.107 13.4886C156.826 14.4166 157.312 15.488 157.568 16.7031C157.823 17.919 157.791 19.15 157.472 20.3974L156.61 23.6599C156.227 25.0994 155.453 26.2589 154.287 27.1385C153.121 28.0184 151.804 28.4579 150.336 28.4579H135.872L136.83 24.9074C137.053 24.0437 137.516 23.3405 138.219 22.7963C138.921 22.2527 139.735 21.9807 140.662 21.9807H146.505C147.047 21.9807 147.398 21.7093 147.558 21.1651L147.75 20.4454C147.846 20.0937 147.781 19.7737 147.558 19.4858C147.334 19.198 147.047 19.054 146.696 19.054H137.788C137.309 19.054 136.878 19.2063 136.495 19.5098Z" fill="white"/>
<path d="M154.692 39.3008L164.319 3.07731C164.478 2.43792 164.822 1.91832 165.349 1.51802C165.875 1.11852 166.474 0.918297 167.145 0.918297H172.269C172.875 0.918297 173.363 1.15067 173.73 1.61398C174.097 2.07809 174.201 2.59753 174.041 3.17327L166.857 29.8972C166.506 31.3051 165.939 32.5838 165.157 33.7355C164.374 34.8868 163.449 35.8705 162.379 36.686C161.309 37.5016 160.12 38.142 158.811 38.6051C157.502 39.0694 156.129 39.3008 154.692 39.3008Z" fill="white"/>
<path d="M178.514 4.07052H178.986C179.219 4.07052 179.406 4.01006 179.547 3.889C179.688 3.76809 179.759 3.61424 179.759 3.42761C179.759 3.20899 179.696 3.05242 179.571 2.95758C179.446 2.86291 179.248 2.81541 178.977 2.81541H178.514V4.07052ZM180.409 3.41018C180.409 3.64351 180.347 3.84966 180.224 4.02893C180.1 4.20821 179.926 4.34159 179.702 4.42907L180.741 6.15644H180.008L179.104 4.60835H178.514V6.15644H177.868V2.26014H179.008C179.491 2.26014 179.845 2.35482 180.071 2.54433C180.296 2.73401 180.409 3.02251 180.409 3.41018ZM176.253 4.20613C176.253 4.71054 176.38 5.18201 176.633 5.62069C176.886 6.05969 177.232 6.40513 177.67 6.65717C178.108 6.90938 178.577 7.0354 179.078 7.0354C179.584 7.0354 180.054 6.90858 180.488 6.65494C180.921 6.40129 181.265 6.05809 181.52 5.62517C181.775 5.19224 181.902 4.71934 181.902 4.20613C181.902 3.69884 181.775 3.22802 181.522 2.79366C181.269 2.3593 180.926 2.01465 180.494 1.75941C180.062 1.50433 179.59 1.37671 179.078 1.37671C178.571 1.37671 178.101 1.50353 177.668 1.75717C177.234 2.01082 176.89 2.35418 176.635 2.7871C176.381 3.22002 176.253 3.69309 176.253 4.20613ZM175.795 4.20613C175.795 3.62304 175.941 3.07641 176.231 2.56624C176.522 2.05607 176.923 1.65386 177.432 1.35927C177.941 1.06485 178.49 0.917554 179.078 0.917554C179.66 0.917554 180.205 1.06341 180.715 1.35495C181.224 1.6465 181.625 2.04744 181.919 2.55745C182.213 3.06761 182.36 3.61728 182.36 4.20613C182.36 4.78043 182.219 5.31986 181.937 5.82411C181.655 6.32852 181.259 6.73234 180.75 7.0354C180.24 7.33878 179.683 7.49023 179.078 7.49023C178.475 7.49023 177.919 7.33926 177.41 7.03764C176.901 6.73586 176.504 6.33284 176.221 5.82843C175.937 5.32418 175.795 4.78331 175.795 4.20613Z" fill="white"/>
<path fill-rule="evenodd" clip-rule="evenodd" d="M21.4847 36.9049C21.8114 35.7154 23.8965 27.8934 26.1182 19.5228C28.34 11.1522 30.3134 3.90324 30.5036 3.41405C30.6939 2.92486 31.2983 2.20395 31.8468 1.81202C32.7558 1.16244 33.2883 1.08939 37.8678 0.986042C46.5769 0.789502 49.8332 1.61902 53.4233 4.94875C57.2391 8.48772 58.7315 13.4629 57.4623 18.4142C55.9711 24.2314 51.9779 28.2384 46.5016 29.4124C45.5694 29.6123 42.6751 29.7758 40.0699 29.7758H35.3331L36.2535 26.3838C37.6239 21.3331 38.0075 20.9818 42.4788 20.6836C45.5627 20.4779 46.9485 19.7917 47.9751 17.962C49.3844 15.45 48.6469 12.6502 46.1279 10.9496C45.1248 10.2724 44.7414 10.2186 41.5061 10.3012L37.9782 10.3912L34.4396 23.5279C32.4934 30.7531 30.7222 36.9875 30.5037 37.3822C29.7654 38.7156 28.5249 39.0676 24.5643 39.0676H20.8906L21.4847 36.9049Z" fill="white"/>
<path fill-rule="evenodd" clip-rule="evenodd" d="M62.4276 38.7744C60.2027 38.0776 58.2427 36.4118 57.1166 34.2609C56.2476 32.6011 56.3159 29.1247 57.2581 27.0517C58.2096 24.9582 59.3465 23.779 61.3103 22.849C62.8453 22.1221 63.2025 22.0916 70.2113 22.0885L77.5132 22.0854L77.2954 23.1267C76.903 25.0036 75.961 26.7781 74.9893 27.4712C74.1684 28.0568 73.5075 28.1647 70.2655 28.2427C67.0854 28.3192 66.441 28.421 66.1437 28.8941C65.8871 29.3024 65.8872 29.6071 66.144 30.0155C66.4509 30.5035 67.1395 30.5876 71.4581 30.6642C74.1869 30.7126 76.7684 30.6194 77.1947 30.457C77.8786 30.1966 78.132 29.5526 79.3457 24.992C80.1024 22.1487 80.6404 19.6106 80.5413 19.3518C80.3891 18.9546 79.0474 18.8814 71.9224 18.8814C63.668 18.8814 63.4602 18.8654 62.4017 18.1508C60.4735 16.8491 60.1563 15.2217 61.1545 11.7523L61.5002 10.5508H72.8432C83.7327 10.5508 84.2437 10.5779 85.6284 11.23C88.3153 12.4951 90.2561 15.4561 90.2561 18.2899C90.2561 19.7274 86.2198 34.7818 85.5027 36.0187C85.1976 36.5449 84.3311 37.41 83.5772 37.9411L82.2063 38.9068L72.7178 38.9661C67.4991 38.9988 62.8686 38.9125 62.4276 38.7744H62.4276Z" fill="white"/>
<path fill-rule="evenodd" clip-rule="evenodd" d="M88.7209 38.6827C88.5098 38.4712 88.3415 37.9306 88.3468 37.4812C88.3522 37.0318 89.9156 30.8247 91.8212 23.6877L95.2859 10.7112L102.575 10.625C110.784 10.5278 112.52 10.7889 115.479 12.5655C119.778 15.147 122.555 20.415 122.167 25.2513C121.925 28.2622 119.343 37.5132 118.513 38.3451C117.853 39.0055 117.495 39.0672 114.323 39.0672C110.616 39.0672 110.086 38.8742 110.086 37.522C110.086 37.0951 110.749 34.2079 111.559 31.1061C113.173 24.9283 113.243 23.5066 112.023 21.7897C110.8 20.0692 109.706 19.7008 105.79 19.6912L102.294 19.6826L100.454 26.5713C99.442 30.3601 98.3644 34.3922 98.0592 35.5314C97.754 36.6706 97.1754 37.9322 96.7734 38.3349C96.1019 39.0077 95.7604 39.0672 92.5736 39.0672C90.302 39.0672 88.9722 38.9345 88.7209 38.6827Z" fill="white"/>
<path fill-rule="evenodd" clip-rule="evenodd" d="M128.681 38.6282C126.049 37.6743 123.53 34.2799 123.522 31.679C123.518 30.2061 126.53 18.8916 127.488 16.784C128.558 14.427 130.012 12.9441 132.416 11.7588L134.54 10.7109H143.183C152.754 10.7109 153.091 10.7726 155.219 12.9081C157.478 15.1768 157.952 18.1006 156.76 22.4122C155.989 25.2009 155.002 26.6444 153.259 27.5352C152.113 28.1208 151.368 28.1731 144.162 28.1731C137.879 28.1731 136.313 28.0888 136.313 27.7506C136.313 26.525 137.368 24.0358 138.245 23.1939C139.212 22.2647 139.31 22.2434 143.13 22.1373C145.274 22.0778 147.208 21.8799 147.428 21.6976C148.012 21.2128 147.935 19.3118 147.322 19.0758C147.043 18.9688 144.612 18.8813 141.92 18.8813C137.724 18.8813 136.928 18.9615 136.357 19.442C135.898 19.8283 135.34 21.3128 134.563 24.2129C133.346 28.7545 133.224 29.7567 133.818 30.3519C134.101 30.6348 136.894 30.7364 144.395 30.7364C153.953 30.7364 154.577 30.7713 154.419 31.2971C154.327 31.6055 153.971 32.8872 153.628 34.1453C152.873 36.9192 152.557 37.5405 151.465 38.4013C150.647 39.0455 150.284 39.0661 140.188 39.0426C132.852 39.0254 129.437 38.9025 128.681 38.6282Z" fill="white"/>
<path fill-rule="evenodd" clip-rule="evenodd" d="M155.008 38.7129C155.094 38.4675 157.261 30.3551 159.822 20.6852C162.384 11.0154 164.631 2.82076 164.815 2.47503C165.342 1.48936 167.096 0.939453 169.712 0.939453C172.178 0.939453 173.572 1.33318 173.871 2.11362C174.101 2.7131 166.528 30.7915 165.696 32.4251C164.646 34.4867 162.395 36.6512 160.15 37.7582C157.842 38.8965 154.739 39.4726 155.008 38.7129Z" fill="white"/>
<path fill-rule="evenodd" clip-rule="evenodd" d="M16.0518 15.0365V10.5508H20.8494C24.4747 10.5508 25.6469 10.6486 25.6463 10.9513C25.6458 11.1716 25.2843 12.7215 24.8429 14.3957C24.1762 16.9239 23.8521 17.6159 22.9293 18.4808C21.8459 19.4964 21.7469 19.5222 18.935 19.5222H16.0518V15.0365Z" fill="white"/>
<path fill-rule="evenodd" clip-rule="evenodd" d="M177.876 4.20715V2.26367H178.503C178.872 2.26367 179.171 2.26672 179.229 2.27109C179.523 2.29302 179.747 2.35118 179.93 2.45295C180.164 2.58282 180.319 2.8079 180.377 3.10266C180.398 3.20626 180.409 3.35081 180.404 3.46039C180.387 3.87514 180.162 4.20948 179.781 4.38828C179.736 4.40937 179.701 4.42982 179.702 4.43371C179.704 4.4376 179.936 4.82471 180.218 5.29394L180.732 6.14708L180.376 6.14893C180.181 6.14994 180.018 6.14953 180.014 6.14803C180.01 6.14653 179.805 5.79925 179.558 5.37632L179.109 4.60735L178.811 4.60727L178.512 4.60718V5.37891V6.15063H178.194H177.876V4.20716V4.20715ZM179.064 4.06907C179.267 4.05444 179.409 4.00414 179.536 3.90168C179.697 3.77155 179.772 3.5974 179.761 3.37934C179.746 3.08238 179.619 2.92179 179.344 2.85168C179.223 2.82081 179.151 2.81514 178.825 2.81094L178.512 2.80692V3.44154V4.07617L178.74 4.0761C178.865 4.07607 179.011 4.07291 179.064 4.06907V4.06907Z" fill="white"/>
<path fill-rule="evenodd" clip-rule="evenodd" d="M178.902 7.48208C178.188 7.44595 177.537 7.18853 176.964 6.71519C176.377 6.23025 175.962 5.49685 175.841 4.72812C175.801 4.47791 175.79 4.1274 175.815 3.88914C175.875 3.299 176.08 2.75639 176.426 2.27194C176.598 2.03117 176.847 1.77468 177.078 1.60015L177.117 1.57031L177.574 1.57214L178.03 1.57396L177.937 1.61586C177.367 1.87252 176.898 2.30478 176.596 2.85191C176.41 3.18884 176.301 3.54525 176.263 3.93516C176.252 4.05561 176.252 4.35578 176.263 4.47678C176.296 4.82125 176.387 5.13694 176.543 5.45383C176.813 5.99971 177.212 6.41392 177.747 6.70279C178.16 6.92523 178.6 7.03578 179.074 7.03611C179.745 7.03657 180.347 6.8197 180.879 6.38554C180.978 6.30476 181.172 6.11047 181.255 6.00961C181.685 5.48305 181.904 4.87611 181.904 4.20755C181.904 3.75984 181.81 3.35749 181.614 2.96094C181.349 2.42535 180.945 2.00452 180.417 1.71285C180.346 1.67353 180.169 1.58869 180.13 1.57521C180.124 1.57319 180.326 1.57129 180.578 1.57098L181.036 1.57042L181.073 1.59697C181.213 1.69936 181.414 1.88745 181.545 2.03937C181.786 2.31665 181.998 2.66785 182.137 3.01737C182.234 3.26246 182.308 3.57132 182.34 3.86436C182.357 4.02313 182.357 4.3872 182.34 4.54281C182.268 5.20701 182.011 5.81354 181.587 6.32468C181.502 6.42696 181.322 6.60616 181.212 6.69948C180.549 7.25805 179.76 7.52542 178.902 7.48208L178.902 7.48208Z" fill="white"/>
</g>
<defs>
<clipPath id="clip0_1401_694">
<rect width="182.951" height="40" fill="white"/>
</clipPath>
</defs>
</svg>
