<svg width="93" height="24" viewBox="0 0 93 24" fill="none" xmlns="http://www.w3.org/2000/svg">
<g clip-path="url(#clip0_92_2478)">
<path d="M13.0039 18.4222C13.4278 18.3568 13.8614 18.4293 14.2409 18.6292C14.8547 18.9518 15.5556 19.0697 16.2411 18.9656C16.9267 18.8615 17.561 18.5409 18.0513 18.0506C18.5416 17.5602 18.8623 16.926 18.9664 16.2404C19.0705 15.5548 18.9526 14.854 18.6299 14.2402C18.4301 13.8607 18.3575 13.427 18.4229 13.0032C18.5812 11.9917 18.4984 10.9572 18.1812 9.98378C17.8639 9.01039 17.3212 8.12571 16.5973 7.40179C15.8734 6.67787 14.9887 6.13519 14.0153 5.81794C13.0419 5.50069 12.0074 5.41786 10.9959 5.57618C10.5721 5.6416 10.1384 5.56903 9.75891 5.36918C9.14504 5.04627 8.44396 4.92823 7.7582 5.03232C7.07243 5.1364 6.43795 5.45716 5.94754 5.94768C5.45714 6.4382 5.13652 7.07275 5.03259 7.75854C4.92866 8.44433 5.04686 9.14538 5.36991 9.75918C5.56976 10.1387 5.64233 10.5723 5.57691 10.9962C5.41859 12.0076 5.50143 13.0422 5.81867 14.0156C6.13592 14.989 6.6786 15.8736 7.40252 16.5976C8.12644 17.3215 9.01113 17.8642 9.98451 18.1814C10.9579 18.4987 11.9925 18.5815 13.0039 18.4232V18.4222ZM11.9999 20.4992C10.7728 20.4994 9.56013 20.2339 8.44534 19.721C7.33054 19.208 6.34004 18.4598 5.54189 17.5277C4.74375 16.5955 4.15689 15.5017 3.82167 14.3212C3.48644 13.1407 3.41079 11.9017 3.59991 10.6892C3.07865 9.69769 2.88817 8.56547 3.05632 7.45799C3.22448 6.35052 3.74244 5.32587 4.53452 4.53379C5.3266 3.74171 6.35125 3.22374 7.45873 3.05559C8.5662 2.88744 9.69842 3.07791 10.6899 3.59918C12.0122 3.39263 13.3646 3.50124 14.637 3.91616C15.9094 4.33108 17.0658 5.04059 18.0122 5.98693C18.9585 6.93328 19.668 8.08971 20.0829 9.3621C20.4979 10.6345 20.6065 11.9869 20.3999 13.3092C20.9212 14.3007 21.1117 15.4329 20.9435 16.5404C20.7754 17.6478 20.2574 18.6725 19.4653 19.4646C18.6732 20.2566 17.6486 20.7746 16.5411 20.9428C15.4336 21.1109 14.3014 20.9204 13.3099 20.3992C12.8829 20.4652 12.4449 20.4992 11.9999 20.4992ZM12.0529 16.9992C9.24991 16.9992 7.99991 15.6192 7.99991 14.5852C7.99991 14.0532 8.38991 13.6832 8.92791 13.6832C10.1279 13.6832 9.81491 15.4082 12.0529 15.4082C13.1959 15.4082 13.8289 14.7842 13.8289 14.1472C13.8289 13.7632 13.6409 13.3392 12.8859 13.1512L10.3959 12.5282C8.38991 12.0242 8.02591 10.9362 8.02591 9.91618C8.02591 7.79618 10.0179 6.99918 11.8899 6.99918C13.6099 6.99918 15.6459 7.95518 15.6459 9.22718C15.6459 9.77218 15.1659 10.0902 14.6339 10.0902C13.6109 10.0902 13.7989 8.67218 11.7339 8.67218C10.7109 8.67218 10.1379 9.13418 10.1379 9.79818C10.1379 10.4612 10.9409 10.6742 11.6399 10.8332L13.4759 11.2422C15.4899 11.6942 15.9999 12.8752 15.9999 13.9882C15.9999 15.7122 14.6749 16.9992 12.0149 16.9992H12.0529Z" fill="white"/>
</g>
<path d="M32.602 17.434C32.6207 17.994 32.7607 18.484 33.022 18.904C33.2927 19.3333 33.6753 19.6693 34.17 19.912C34.6647 20.1547 35.262 20.276 35.962 20.276C36.55 20.276 37.096 20.1547 37.6 19.912C38.104 19.6693 38.51 19.2913 38.818 18.778C39.1353 18.274 39.294 17.6347 39.294 16.86V10.56H37.81V16.86C37.81 17.3453 37.7167 17.742 37.53 18.05C37.3527 18.358 37.1193 18.5867 36.83 18.736C36.5407 18.8853 36.2373 18.96 35.92 18.96C35.556 18.96 35.2387 18.89 34.968 18.75C34.7067 18.6193 34.5013 18.4373 34.352 18.204C34.2027 17.98 34.1233 17.7233 34.114 17.434H32.602ZM32.476 13.752C32.476 14.452 32.6207 15.0493 32.91 15.544C33.1993 16.0387 33.582 16.4167 34.058 16.678C34.534 16.9393 35.052 17.07 35.612 17.07C36.0133 17.07 36.382 16.9953 36.718 16.846C37.054 16.6967 37.3433 16.482 37.586 16.202C37.8287 15.9127 38.0153 15.5627 38.146 15.152C38.286 14.7413 38.356 14.2747 38.356 13.752C38.356 13.2293 38.286 12.7627 38.146 12.352C38.0153 11.9413 37.8287 11.5913 37.586 11.302C37.3433 11.0127 37.054 10.7933 36.718 10.644C36.382 10.4947 36.0133 10.42 35.612 10.42C35.052 10.42 34.534 10.5507 34.058 10.812C33.582 11.0733 33.1993 11.4513 32.91 11.946C32.6207 12.4407 32.476 13.0427 32.476 13.752ZM34.044 13.752C34.044 13.3227 34.1327 12.9587 34.31 12.66C34.4873 12.3613 34.7207 12.1327 35.01 11.974C35.3087 11.8153 35.6307 11.736 35.976 11.736C36.1907 11.736 36.4053 11.7827 36.62 11.876C36.844 11.96 37.0447 12.086 37.222 12.254C37.3993 12.422 37.5393 12.632 37.642 12.884C37.754 13.136 37.81 13.4253 37.81 13.752C37.81 14.0787 37.754 14.368 37.642 14.62C37.5393 14.872 37.3993 15.082 37.222 15.25C37.0447 15.418 36.844 15.544 36.62 15.628C36.4053 15.712 36.1907 15.754 35.976 15.754C35.6307 15.754 35.3087 15.6793 35.01 15.53C34.7207 15.3713 34.4873 15.1427 34.31 14.844C34.1327 14.5453 34.044 14.1813 34.044 13.752ZM42.7231 14.48V10.56H41.1691V14.648C41.1691 15.1613 41.2531 15.6047 41.4211 15.978C41.5985 16.3513 41.8551 16.6407 42.1911 16.846C42.5271 17.042 42.9331 17.14 43.4091 17.14C43.8571 17.14 44.2398 17.0467 44.5571 16.86C44.8838 16.664 45.1498 16.3793 45.3551 16.006V17H46.8671V10.56H45.3551V14.48C45.3551 14.7693 45.2945 15.0213 45.1731 15.236C45.0518 15.4507 44.8838 15.6187 44.6691 15.74C44.4545 15.8613 44.2025 15.922 43.9131 15.922C43.6425 15.922 43.4185 15.866 43.2411 15.754C43.0638 15.642 42.9331 15.4787 42.8491 15.264C42.7651 15.04 42.7231 14.7787 42.7231 14.48ZM50.296 10.56H48.798V17H50.296V10.56ZM52.214 12.184L52.956 10.896C52.8067 10.728 52.6294 10.6067 52.424 10.532C52.2187 10.4573 51.9994 10.42 51.766 10.42C51.4394 10.42 51.122 10.5367 50.814 10.77C50.5154 11.0033 50.268 11.3207 50.072 11.722C49.8854 12.114 49.792 12.5667 49.792 13.08L50.296 13.374C50.296 13.066 50.3334 12.7953 50.408 12.562C50.4827 12.3287 50.5947 12.1513 50.744 12.03C50.9027 11.8993 51.108 11.834 51.36 11.834C51.5467 11.834 51.7007 11.8667 51.822 11.932C51.9434 11.988 52.074 12.072 52.214 12.184ZM58.1237 13.08V17H59.6777V12.912C59.6777 12.3893 59.589 11.946 59.4117 11.582C59.2437 11.2087 58.9917 10.924 58.6557 10.728C58.329 10.5227 57.923 10.42 57.4377 10.42C56.999 10.42 56.6163 10.5133 56.2897 10.7C55.963 10.8867 55.697 11.1713 55.4917 11.554V10.56H53.9797V17H55.4917V13.08C55.4917 12.7907 55.5523 12.5387 55.6737 12.324C55.795 12.1093 55.963 11.9413 56.1777 11.82C56.4017 11.6987 56.6537 11.638 56.9337 11.638C57.2043 11.638 57.4283 11.694 57.6057 11.806C57.783 11.918 57.9137 12.0813 57.9977 12.296C58.0817 12.5013 58.1237 12.7627 58.1237 13.08ZM61.5526 7.998C61.5526 8.25933 61.6459 8.47867 61.8326 8.656C62.0192 8.83333 62.2432 8.922 62.5046 8.922C62.7752 8.922 62.9992 8.83333 63.1766 8.656C63.3632 8.47867 63.4566 8.25933 63.4566 7.998C63.4566 7.73667 63.3632 7.51733 63.1766 7.34C62.9992 7.16267 62.7752 7.074 62.5046 7.074C62.2432 7.074 62.0192 7.16267 61.8326 7.34C61.6459 7.51733 61.5526 7.73667 61.5526 7.998ZM61.7626 10.56V17H63.2466V10.56H61.7626ZM65.2713 6.08V17H66.7553V6.08H65.2713ZM69.1213 10.56L66.3493 13.22L69.4153 17H71.2493L68.1973 13.22L70.9693 10.56H69.1213ZM71.3493 14.354H74.2193V12.996H71.3493V14.354ZM80.0834 6.08V17H81.6094V6.08H80.0834ZM74.7494 13.78C74.7494 14.48 74.8941 15.082 75.1834 15.586C75.4728 16.09 75.8554 16.4773 76.3314 16.748C76.8074 17.0093 77.3254 17.14 77.8854 17.14C78.2868 17.14 78.6554 17.0653 78.9914 16.916C79.3274 16.7573 79.6168 16.5333 79.8594 16.244C80.1021 15.9547 80.2888 15.6047 80.4194 15.194C80.5594 14.774 80.6294 14.3027 80.6294 13.78C80.6294 13.2573 80.5594 12.7907 80.4194 12.38C80.2888 11.96 80.1021 11.6053 79.8594 11.316C79.6168 11.0267 79.3274 10.8073 78.9914 10.658C78.6554 10.4993 78.2868 10.42 77.8854 10.42C77.3254 10.42 76.8074 10.5553 76.3314 10.826C75.8554 11.0873 75.4728 11.47 75.1834 11.974C74.8941 12.4687 74.7494 13.0707 74.7494 13.78ZM76.3174 13.78C76.3174 13.3507 76.4061 12.9867 76.5834 12.688C76.7608 12.38 76.9941 12.1467 77.2834 11.988C77.5821 11.82 77.9041 11.736 78.2494 11.736C78.4641 11.736 78.6788 11.7827 78.8934 11.876C79.1174 11.96 79.3181 12.0907 79.4954 12.268C79.6728 12.436 79.8128 12.6507 79.9154 12.912C80.0274 13.164 80.0834 13.4533 80.0834 13.78C80.0834 14.1067 80.0274 14.4007 79.9154 14.662C79.8128 14.914 79.6728 15.1287 79.4954 15.306C79.3181 15.474 79.1174 15.6047 78.8934 15.698C78.6788 15.782 78.4641 15.824 78.2494 15.824C77.9041 15.824 77.5821 15.7447 77.2834 15.586C76.9941 15.418 76.7608 15.1847 76.5834 14.886C76.4061 14.578 76.3174 14.2093 76.3174 13.78ZM82.5739 10.56V11.89H86.2279V10.56H82.5739ZM83.6519 8.32V17H85.1499V8.32H83.6519ZM90.9807 10.56L89.5807 12.576L88.1807 10.56H86.4447L88.7687 13.682L86.3047 17H88.0407L89.5807 14.788L91.1207 17H92.8147L90.3647 13.682L92.6747 10.56H90.9807Z" fill="white"/>
<defs>
<clipPath id="clip0_92_2478">
<rect width="24" height="24" fill="white"/>
</clipPath>
</defs>
</svg>
