<svg width="89" height="24" viewBox="0 0 89 24" fill="none" xmlns="http://www.w3.org/2000/svg">
<path d="M37.81 6.08V17H39.336V6.08H37.81ZM32.476 13.78C32.476 14.48 32.6207 15.082 32.91 15.586C33.1993 16.09 33.582 16.4773 34.058 16.748C34.534 17.0093 35.052 17.14 35.612 17.14C36.0133 17.14 36.382 17.0653 36.718 16.916C37.054 16.7573 37.3433 16.5333 37.586 16.244C37.8287 15.9547 38.0153 15.6047 38.146 15.194C38.286 14.774 38.356 14.3027 38.356 13.78C38.356 13.2573 38.286 12.7907 38.146 12.38C38.0153 11.96 37.8287 11.6053 37.586 11.316C37.3433 11.0267 37.054 10.8073 36.718 10.658C36.382 10.4993 36.0133 10.42 35.612 10.42C35.052 10.42 34.534 10.5553 34.058 10.826C33.582 11.0873 33.1993 11.47 32.91 11.974C32.6207 12.4687 32.476 13.0707 32.476 13.78ZM34.044 13.78C34.044 13.3507 34.1327 12.9867 34.31 12.688C34.4873 12.38 34.7207 12.1467 35.01 11.988C35.3087 11.82 35.6307 11.736 35.976 11.736C36.1907 11.736 36.4053 11.7827 36.62 11.876C36.844 11.96 37.0447 12.0907 37.222 12.268C37.3993 12.436 37.5393 12.6507 37.642 12.912C37.754 13.164 37.81 13.4533 37.81 13.78C37.81 14.1067 37.754 14.4007 37.642 14.662C37.5393 14.914 37.3993 15.1287 37.222 15.306C37.0447 15.474 36.844 15.6047 36.62 15.698C36.4053 15.782 36.1907 15.824 35.976 15.824C35.6307 15.824 35.3087 15.7447 35.01 15.586C34.7207 15.418 34.4873 15.1847 34.31 14.886C34.1327 14.578 34.044 14.2093 34.044 13.78ZM42.1485 14.998C42.1485 14.7927 42.1951 14.62 42.2885 14.48C42.3818 14.34 42.5265 14.2327 42.7225 14.158C42.9278 14.074 43.1891 14.032 43.5065 14.032C43.8705 14.032 44.2158 14.0787 44.5425 14.172C44.8691 14.2653 45.1771 14.4147 45.4665 14.62V13.85C45.3825 13.7473 45.2378 13.6353 45.0325 13.514C44.8271 13.3833 44.5658 13.2713 44.2485 13.178C43.9405 13.0847 43.5718 13.038 43.1425 13.038C42.6105 13.038 42.1578 13.122 41.7845 13.29C41.4111 13.458 41.1218 13.696 40.9165 14.004C40.7205 14.3027 40.6225 14.662 40.6225 15.082C40.6225 15.5207 40.7251 15.894 40.9305 16.202C41.1358 16.51 41.4111 16.7433 41.7565 16.902C42.1018 17.0607 42.4751 17.14 42.8765 17.14C43.2498 17.14 43.6138 17.0747 43.9685 16.944C44.3325 16.804 44.6311 16.5987 44.8645 16.328C45.1071 16.048 45.2285 15.7027 45.2285 15.292L45.0045 14.452C45.0045 14.7787 44.9298 15.0587 44.7805 15.292C44.6311 15.5253 44.4305 15.7027 44.1785 15.824C43.9265 15.9453 43.6511 16.006 43.3525 16.006C43.1191 16.006 42.9091 15.9687 42.7225 15.894C42.5451 15.81 42.4051 15.6933 42.3025 15.544C42.1998 15.3947 42.1485 15.2127 42.1485 14.998ZM41.6725 12.24C41.7658 12.1747 41.9058 12.0953 42.0925 12.002C42.2885 11.9087 42.5171 11.8247 42.7785 11.75C43.0398 11.6753 43.3245 11.638 43.6325 11.638C43.8285 11.638 44.0105 11.6567 44.1785 11.694C44.3465 11.7313 44.4911 11.792 44.6125 11.876C44.7431 11.96 44.8411 12.072 44.9065 12.212C44.9718 12.3427 45.0045 12.506 45.0045 12.702V17H46.4885V12.408C46.4885 11.9787 46.3718 11.6193 46.1385 11.33C45.9051 11.0313 45.5831 10.8027 45.1725 10.644C44.7711 10.4853 44.3045 10.406 43.7725 10.406C43.1751 10.406 42.6478 10.49 42.1905 10.658C41.7331 10.826 41.3551 10.9987 41.0565 11.176L41.6725 12.24ZM47.3552 10.56V11.89H51.0092V10.56H47.3552ZM48.4332 8.32V17H49.9312V8.32H48.4332ZM53.0039 14.998C53.0039 14.7927 53.0506 14.62 53.1439 14.48C53.2373 14.34 53.3819 14.2327 53.5779 14.158C53.7833 14.074 54.0446 14.032 54.3619 14.032C54.7259 14.032 55.0713 14.0787 55.3979 14.172C55.7246 14.2653 56.0326 14.4147 56.3219 14.62V13.85C56.2379 13.7473 56.0933 13.6353 55.8879 13.514C55.6826 13.3833 55.4213 13.2713 55.1039 13.178C54.7959 13.0847 54.4273 13.038 53.9979 13.038C53.4659 13.038 53.0133 13.122 52.6399 13.29C52.2666 13.458 51.9773 13.696 51.7719 14.004C51.5759 14.3027 51.4779 14.662 51.4779 15.082C51.4779 15.5207 51.5806 15.894 51.7859 16.202C51.9913 16.51 52.2666 16.7433 52.6119 16.902C52.9573 17.0607 53.3306 17.14 53.7319 17.14C54.1053 17.14 54.4693 17.0747 54.8239 16.944C55.1879 16.804 55.4866 16.5987 55.7199 16.328C55.9626 16.048 56.0839 15.7027 56.0839 15.292L55.8599 14.452C55.8599 14.7787 55.7853 15.0587 55.6359 15.292C55.4866 15.5253 55.2859 15.7027 55.0339 15.824C54.7819 15.9453 54.5066 16.006 54.2079 16.006C53.9746 16.006 53.7646 15.9687 53.5779 15.894C53.4006 15.81 53.2606 15.6933 53.1579 15.544C53.0553 15.3947 53.0039 15.2127 53.0039 14.998ZM52.5279 12.24C52.6213 12.1747 52.7613 12.0953 52.9479 12.002C53.1439 11.9087 53.3726 11.8247 53.6339 11.75C53.8953 11.6753 54.1799 11.638 54.4879 11.638C54.6839 11.638 54.8659 11.6567 55.0339 11.694C55.2019 11.7313 55.3466 11.792 55.4679 11.876C55.5986 11.96 55.6966 12.072 55.7619 12.212C55.8273 12.3427 55.8599 12.506 55.8599 12.702V17H57.3439V12.408C57.3439 11.9787 57.2273 11.6193 56.9939 11.33C56.7606 11.0313 56.4386 10.8027 56.0279 10.644C55.6266 10.4853 55.1599 10.406 54.6279 10.406C54.0306 10.406 53.5033 10.49 53.0459 10.658C52.5886 10.826 52.2106 10.9987 51.9119 11.176L52.5279 12.24ZM58.1406 18.974H65.3086V17.98H58.1406V18.974ZM69.9807 10.56L68.5807 12.576L67.1807 10.56H65.4447L67.7687 13.682L65.3047 17H67.0407L68.5807 14.788L70.1207 17H71.8147L69.3647 13.682L71.6747 10.56H69.9807ZM73.7168 14.998C73.7168 14.7927 73.7635 14.62 73.8568 14.48C73.9502 14.34 74.0948 14.2327 74.2908 14.158C74.4962 14.074 74.7575 14.032 75.0748 14.032C75.4388 14.032 75.7842 14.0787 76.1108 14.172C76.4375 14.2653 76.7455 14.4147 77.0348 14.62V13.85C76.9508 13.7473 76.8062 13.6353 76.6008 13.514C76.3955 13.3833 76.1342 13.2713 75.8168 13.178C75.5088 13.0847 75.1402 13.038 74.7108 13.038C74.1788 13.038 73.7262 13.122 73.3528 13.29C72.9795 13.458 72.6902 13.696 72.4848 14.004C72.2888 14.3027 72.1908 14.662 72.1908 15.082C72.1908 15.5207 72.2935 15.894 72.4988 16.202C72.7042 16.51 72.9795 16.7433 73.3248 16.902C73.6702 17.0607 74.0435 17.14 74.4448 17.14C74.8182 17.14 75.1822 17.0747 75.5368 16.944C75.9008 16.804 76.1995 16.5987 76.4328 16.328C76.6755 16.048 76.7968 15.7027 76.7968 15.292L76.5728 14.452C76.5728 14.7787 76.4982 15.0587 76.3488 15.292C76.1995 15.5253 75.9988 15.7027 75.7468 15.824C75.4948 15.9453 75.2195 16.006 74.9208 16.006C74.6875 16.006 74.4775 15.9687 74.2908 15.894C74.1135 15.81 73.9735 15.6933 73.8708 15.544C73.7682 15.3947 73.7168 15.2127 73.7168 14.998ZM73.2408 12.24C73.3342 12.1747 73.4742 12.0953 73.6608 12.002C73.8568 11.9087 74.0855 11.8247 74.3468 11.75C74.6082 11.6753 74.8928 11.638 75.2008 11.638C75.3968 11.638 75.5788 11.6567 75.7468 11.694C75.9148 11.7313 76.0595 11.792 76.1808 11.876C76.3115 11.96 76.4095 12.072 76.4748 12.212C76.5402 12.3427 76.5728 12.506 76.5728 12.702V17H78.0568V12.408C78.0568 11.9787 77.9402 11.6193 77.7068 11.33C77.4735 11.0313 77.1515 10.8027 76.7408 10.644C76.3395 10.4853 75.8728 10.406 75.3408 10.406C74.7435 10.406 74.2162 10.49 73.7588 10.658C73.3015 10.826 72.9235 10.9987 72.6248 11.176L73.2408 12.24ZM78.9235 10.56V11.89H82.5775V10.56H78.9235ZM80.0015 8.32V17H81.4995V8.32H80.0015ZM84.5723 14.998C84.5723 14.7927 84.619 14.62 84.7123 14.48C84.8056 14.34 84.9503 14.2327 85.1463 14.158C85.3516 14.074 85.613 14.032 85.9303 14.032C86.2943 14.032 86.6396 14.0787 86.9663 14.172C87.293 14.2653 87.601 14.4147 87.8903 14.62V13.85C87.8063 13.7473 87.6616 13.6353 87.4563 13.514C87.251 13.3833 86.9896 13.2713 86.6723 13.178C86.3643 13.0847 85.9956 13.038 85.5663 13.038C85.0343 13.038 84.5816 13.122 84.2083 13.29C83.835 13.458 83.5456 13.696 83.3403 14.004C83.1443 14.3027 83.0463 14.662 83.0463 15.082C83.0463 15.5207 83.149 15.894 83.3543 16.202C83.5596 16.51 83.835 16.7433 84.1803 16.902C84.5256 17.0607 84.899 17.14 85.3003 17.14C85.6736 17.14 86.0376 17.0747 86.3923 16.944C86.7563 16.804 87.055 16.5987 87.2883 16.328C87.531 16.048 87.6523 15.7027 87.6523 15.292L87.4283 14.452C87.4283 14.7787 87.3536 15.0587 87.2043 15.292C87.055 15.5253 86.8543 15.7027 86.6023 15.824C86.3503 15.9453 86.075 16.006 85.7763 16.006C85.543 16.006 85.333 15.9687 85.1463 15.894C84.969 15.81 84.829 15.6933 84.7263 15.544C84.6236 15.3947 84.5723 15.2127 84.5723 14.998ZM84.0963 12.24C84.1896 12.1747 84.3296 12.0953 84.5163 12.002C84.7123 11.9087 84.941 11.8247 85.2023 11.75C85.4636 11.6753 85.7483 11.638 86.0563 11.638C86.2523 11.638 86.4343 11.6567 86.6023 11.694C86.7703 11.7313 86.915 11.792 87.0363 11.876C87.167 11.96 87.265 12.072 87.3303 12.212C87.3956 12.3427 87.4283 12.506 87.4283 12.702V17H88.9123V12.408C88.9123 11.9787 88.7956 11.6193 88.5623 11.33C88.329 11.0313 88.007 10.8027 87.5963 10.644C87.195 10.4853 86.7283 10.406 86.1963 10.406C85.599 10.406 85.0716 10.49 84.6143 10.658C84.157 10.826 83.779 10.9987 83.4803 11.176L84.0963 12.24Z" fill="white"/>
<g clip-path="url(#clip0_92_2667)">
<path d="M12 20C14.1217 20 16.1566 19.1571 17.6569 17.6569C19.1571 16.1566 20 14.1217 20 12C20 9.87827 19.1571 7.84344 17.6569 6.34315C16.1566 4.84285 14.1217 4 12 4C9.87827 4 7.84344 4.84285 6.34315 6.34315C4.84285 7.84344 4 9.87827 4 12C4 14.1217 4.84285 16.1566 6.34315 17.6569C7.84344 19.1571 9.87827 20 12 20ZM12 22C6.477 22 2 17.523 2 12C2 6.477 6.477 2 12 2C17.523 2 22 6.477 22 12C22 17.523 17.523 22 12 22ZM8.89 13.17L6.392 12.391C5.852 12.226 5.849 11.854 6.513 11.587L16.246 7.827C16.811 7.597 17.131 7.888 16.948 8.617L15.291 16.437C15.175 16.994 14.84 17.127 14.375 16.87L11.824 14.982L10.635 16.13C10.513 16.248 10.414 16.349 10.226 16.374C10.039 16.4 9.885 16.344 9.772 16.034L8.902 13.163L8.89 13.171V13.17Z" fill="white"/>
</g>
<defs>
<clipPath id="clip0_92_2667">
<rect width="24" height="24" fill="white"/>
</clipPath>
</defs>
</svg>
