<svg width="349" height="228" viewBox="0 0 349 228" fill="none" xmlns="http://www.w3.org/2000/svg">
<g clip-path="url(#clip0)">
<path d="M196.863 23.1699L202.944 25.8258L192.523 26.2693L196.863 23.1699Z" stroke="#2ACAF7" stroke-width="0.5" stroke-linecap="round" stroke-linejoin="round"/>
<path d="M179.495 21.8398L183.834 26.2698L172.543 21.8398H179.495Z" stroke="#2ACAF7" stroke-width="0.5" stroke-linecap="round" stroke-linejoin="round"/>
<path d="M150.394 26.2683L151.265 29.3676L145.184 24.4941L150.394 26.2683Z" stroke="#2ACAF7" stroke-width="0.5" stroke-linecap="round" stroke-linejoin="round"/>
<path d="M145.184 24.4941L151.265 29.3676L139.541 29.8112L145.184 24.4941Z" stroke="#2ACAF7" stroke-width="0.5" stroke-linecap="round" stroke-linejoin="round"/>
<path d="M130.419 29.3678L130.852 24.0508L119.561 29.3678H130.419Z" stroke="#2ACAF7" stroke-width="0.5" stroke-linecap="round" stroke-linejoin="round"/>
<path d="M119.56 29.3691H130.419L118.262 35.1297L119.56 29.3691Z" stroke="#2ACAF7" stroke-width="0.5" stroke-linecap="round" stroke-linejoin="round"/>
<path d="M113.484 36.4542L118.262 35.1289L112.613 42.6582L113.484 36.4542Z" stroke="#2ACAF7" stroke-width="0.5" stroke-linecap="round" stroke-linejoin="round"/>
<path d="M93.5039 41.7716L100.018 46.2016L95.2406 37.7852L93.5039 41.7716Z" stroke="#2ACAF7" stroke-width="0.5" stroke-linecap="round" stroke-linejoin="round"/>
<path d="M93.5039 41.7721L95.2406 37.7857L88.7266 36.4551L93.5039 41.7721Z" stroke="#2ACAF7" stroke-width="0.5" stroke-linecap="round" stroke-linejoin="round"/>
<path d="M79.1723 37.7857L88.727 36.4551L78.3066 43.5462L79.1723 37.7857Z" stroke="#2ACAF7" stroke-width="0.5" stroke-linecap="round" stroke-linejoin="round"/>
<path d="M88.7269 36.4551L93.5043 41.7721L78.3066 43.5462L88.7269 36.4551Z" stroke="#2ACAF7" stroke-width="0.5" stroke-linecap="round" stroke-linejoin="round"/>
<path d="M70.4883 51.9613L78.3062 43.5449L81.3414 50.6307L70.4883 51.9613Z" stroke="#2ACAF7" stroke-width="0.5" stroke-linecap="round" stroke-linejoin="round"/>
<path d="M78.3066 43.5456L93.5043 41.7715L81.3419 50.6314L78.3066 43.5456Z" stroke="#2ACAF7" stroke-width="0.5" stroke-linecap="round" stroke-linejoin="round"/>
<path d="M81.3418 50.6314L93.5042 41.7715L84.3824 54.6179L81.3418 50.6314Z" stroke="#2ACAF7" stroke-width="0.5" stroke-linecap="round" stroke-linejoin="round"/>
<path d="M93.5046 41.7715L100.019 46.2015L84.3828 54.6179L93.5046 41.7715Z" stroke="#2ACAF7" stroke-width="0.5" stroke-linecap="round" stroke-linejoin="round"/>
<path d="M37.4805 99.805L50.0757 95.375L38.7843 108.221L37.4805 99.805Z" stroke="#2ACAF7" stroke-width="0.5" stroke-linecap="round" stroke-linejoin="round"/>
<path d="M12.2891 142.774L16.6335 138.344L15.3297 144.542L12.2891 142.774Z" stroke="#2ACAF7" stroke-width="0.5" stroke-linecap="round" stroke-linejoin="round"/>
<path d="M7.51758 160.488L8.38326 154.732L13.1606 166.248L7.51758 160.488Z" stroke="#2ACAF7" stroke-width="0.5" stroke-linecap="round" stroke-linejoin="round"/>
<path d="M0.564453 183.969L6.64563 180.869L2.73936 189.286L0.564453 183.969Z" stroke="#2ACAF7" stroke-width="0.5" stroke-linecap="round" stroke-linejoin="round"/>
<path d="M0.132812 192.385L2.74056 189.285L12.728 192.828L0.132812 192.385Z" stroke="#2ACAF7" stroke-width="0.5" stroke-linecap="round" stroke-linejoin="round"/>
<path d="M2.74023 189.286L6.64651 180.869L12.7277 192.828L2.74023 189.286Z" stroke="#2ACAF7" stroke-width="0.5" stroke-linecap="round" stroke-linejoin="round"/>
<path d="M6.64648 180.868L10.5528 179.094L12.7277 192.827L6.64648 180.868Z" stroke="#2ACAF7" stroke-width="0.5" stroke-linecap="round" stroke-linejoin="round"/>
<path d="M10.5527 179.094L12.7276 192.827L21.4112 185.298L10.5527 179.094Z" stroke="#2ACAF7" stroke-width="0.5" stroke-linecap="round" stroke-linejoin="round"/>
<path d="M10.5527 179.095L11.8566 172.896H19.6745L10.5527 179.095Z" stroke="#2ACAF7" stroke-width="0.5" stroke-linecap="round" stroke-linejoin="round"/>
<path d="M10.5527 179.095L21.4112 185.299L19.6745 172.896L10.5527 179.095Z" stroke="#2ACAF7" stroke-width="0.5" stroke-linecap="round" stroke-linejoin="round"/>
<path d="M11.8574 172.896L13.1613 166.248L19.6753 172.896H11.8574Z" stroke="#2ACAF7" stroke-width="0.5" stroke-linecap="round" stroke-linejoin="round"/>
<path d="M13.1602 166.25L19.6742 172.897L27.4921 163.594L13.1602 166.25Z" stroke="#2ACAF7" stroke-width="0.5" stroke-linecap="round" stroke-linejoin="round"/>
<path d="M62.6719 192.385L63.1047 187.068L71.3555 195.485L62.6719 192.385Z" stroke="#2ACAF7" stroke-width="0.5" stroke-linecap="round" stroke-linejoin="round"/>
<path d="M63.1035 187.067L67.0151 177.32L71.3543 195.484L63.1035 187.067Z" stroke="#2ACAF7" stroke-width="0.5" stroke-linecap="round" stroke-linejoin="round"/>
<path d="M69.6172 203.019L71.3539 195.484L79.1718 208.774L69.6172 203.019Z" stroke="#2ACAF7" stroke-width="0.5" stroke-linecap="round" stroke-linejoin="round"/>
<path d="M79.1719 208.773L84.8202 220.289L95.2405 220.733L79.1719 208.773Z" stroke="#2ACAF7" stroke-width="0.5" stroke-linecap="round" stroke-linejoin="round"/>
<path d="M133.027 214.091L144.319 218.078L149.529 211.436L133.027 214.091Z" stroke="#2ACAF7" stroke-width="0.5" stroke-linecap="round" stroke-linejoin="round"/>
<path d="M160.82 199.027L167.767 191.941L167.334 185.299L160.82 199.027Z" stroke="#2ACAF7" stroke-width="0.5" stroke-linecap="round" stroke-linejoin="round"/>
<path d="M191.221 175.553L192.525 181.757L198.168 185.743L191.221 175.553Z" stroke="#2ACAF7" stroke-width="0.5" stroke-linecap="round" stroke-linejoin="round"/>
<path d="M205.119 194.602L211.633 198.144L215.107 196.37L205.119 194.602Z" stroke="#2ACAF7" stroke-width="0.5" stroke-linecap="round" stroke-linejoin="round"/>
<path d="M218.58 210.105L222.486 199.471L225.965 214.535L218.58 210.105Z" stroke="#2ACAF7" stroke-width="0.5" stroke-linecap="round" stroke-linejoin="round"/>
<path d="M225.965 214.535L229.438 222.064L228.567 227.382L225.965 214.535Z" stroke="#2ACAF7" stroke-width="0.5" stroke-linecap="round" stroke-linejoin="round"/>
<path d="M228.566 227.381L229.437 222.064L235.513 227.825L228.566 227.381Z" stroke="#2ACAF7" stroke-width="0.5" stroke-linecap="round" stroke-linejoin="round"/>
<path d="M229.439 222.063L235.515 227.824L242.035 220.732L229.439 222.063Z" stroke="#2ACAF7" stroke-width="0.5" stroke-linecap="round" stroke-linejoin="round"/>
<path d="M222.486 199.471L225.965 214.535L233.778 210.992L222.486 199.471Z" stroke="#2ACAF7" stroke-width="0.5" stroke-linecap="round" stroke-linejoin="round"/>
<path d="M225.965 214.535L229.438 222.064L233.777 210.992L225.965 214.535Z" stroke="#2ACAF7" stroke-width="0.5" stroke-linecap="round" stroke-linejoin="round"/>
<path d="M229.439 222.064L242.035 220.734L233.779 210.992L229.439 222.064Z" stroke="#2ACAF7" stroke-width="0.5" stroke-linecap="round" stroke-linejoin="round"/>
<path d="M222.486 199.471L233.778 210.992L235.953 202.575L222.486 199.471Z" stroke="#2ACAF7" stroke-width="0.5" stroke-linecap="round" stroke-linejoin="round"/>
<path d="M235.951 202.576L241.594 195.484L242.032 199.914L235.951 202.576Z" stroke="#2ACAF7" stroke-width="0.5" stroke-linecap="round" stroke-linejoin="round"/>
<path d="M258.535 151.629L265.482 153.403L269.388 151.629H258.535Z" stroke="#2ACAF7" stroke-width="0.5" stroke-linecap="round" stroke-linejoin="round"/>
<path d="M289.369 174.221L291.972 168.461L295.45 168.904L289.369 174.221Z" stroke="#2ACAF7" stroke-width="0.5" stroke-linecap="round" stroke-linejoin="round"/>
<path d="M311.518 168.023L311.95 174.666L319.335 170.679L311.518 168.023Z" stroke="#2ACAF7" stroke-width="0.5" stroke-linecap="round" stroke-linejoin="round"/>
<path d="M311.951 174.664L317.161 183.524L319.336 170.678L311.951 174.664Z" stroke="#2ACAF7" stroke-width="0.5" stroke-linecap="round" stroke-linejoin="round"/>
<path d="M317.162 183.524L325.413 179.094L319.337 170.678L317.162 183.524Z" stroke="#2ACAF7" stroke-width="0.5" stroke-linecap="round" stroke-linejoin="round"/>
<path d="M319.336 170.678L325.412 179.095L323.675 162.262L319.336 170.678Z" stroke="#2ACAF7" stroke-width="0.5" stroke-linecap="round" stroke-linejoin="round"/>
<path d="M306.309 166.248L311.519 168.022L316.296 159.605L306.309 166.248Z" stroke="#2ACAF7" stroke-width="0.5" stroke-linecap="round" stroke-linejoin="round"/>
<path d="M311.518 168.022L319.335 170.678L316.295 159.605L311.518 168.022Z" stroke="#2ACAF7" stroke-width="0.5" stroke-linecap="round" stroke-linejoin="round"/>
<path d="M319.336 170.678L323.675 162.261L316.295 159.605L319.336 170.678Z" stroke="#2ACAF7" stroke-width="0.5" stroke-linecap="round" stroke-linejoin="round"/>
<path d="M306.309 166.249L316.296 159.607V152.516L306.309 166.249Z" stroke="#2ACAF7" stroke-width="0.5" stroke-linecap="round" stroke-linejoin="round"/>
<path d="M316.295 159.607L323.675 162.263L316.295 152.516V159.607Z" stroke="#2ACAF7" stroke-width="0.5" stroke-linecap="round" stroke-linejoin="round"/>
<path d="M329.756 136.568L332.796 142.773L341.48 132.582L329.756 136.568Z" stroke="#2ACAF7" stroke-width="0.5" stroke-linecap="round" stroke-linejoin="round"/>
<path d="M332.797 142.773L337.141 145.428L341.48 132.582L332.797 142.773Z" stroke="#2ACAF7" stroke-width="0.5" stroke-linecap="round" stroke-linejoin="round"/>
<path d="M337.141 145.428L344.953 145.872L341.48 132.582L337.141 145.428Z" stroke="#2ACAF7" stroke-width="0.5" stroke-linecap="round" stroke-linejoin="round"/>
<path d="M344.954 145.872L348.866 136.568L341.48 132.582L344.954 145.872Z" stroke="#2ACAF7" stroke-width="0.5" stroke-linecap="round" stroke-linejoin="round"/>
<path d="M342.784 94.043L348.865 99.8035L337.141 102.016L342.784 94.043Z" stroke="#2ACAF7" stroke-width="0.5" stroke-linecap="round" stroke-linejoin="round"/>
<path d="M346.257 115.749L348.432 109.107L337.141 102.016L346.257 115.749Z" stroke="#2ACAF7" stroke-width="0.5" stroke-linecap="round" stroke-linejoin="round"/>
<path d="M348.432 109.108L348.865 99.8047L337.141 102.017L348.432 109.108Z" stroke="#2ACAF7" stroke-width="0.5" stroke-linecap="round" stroke-linejoin="round"/>
<path d="M332.796 102.903L337.141 102.016L328.885 108.663L332.796 102.903Z" stroke="#2ACAF7" stroke-width="0.5" stroke-linecap="round" stroke-linejoin="round"/>
<path d="M337.141 102.016L346.257 115.749L328.885 108.663L337.141 102.016Z" stroke="#2ACAF7" stroke-width="0.5" stroke-linecap="round" stroke-linejoin="round"/>
<path d="M302.829 93.1562L303.7 102.46L291.971 89.6133L302.829 93.1562Z" stroke="#2ACAF7" stroke-width="0.5" stroke-linecap="round" stroke-linejoin="round"/>
<path d="M282.416 51.9618L285.895 46.6448L286.328 42.2148L282.416 51.9618Z" stroke="#2ACAF7" stroke-width="0.5" stroke-linecap="round" stroke-linejoin="round"/>
<path d="M282.415 51.962L286.327 42.215L277.205 30.6992L282.415 51.962Z" stroke="#2ACAF7" stroke-width="0.5" stroke-linecap="round" stroke-linejoin="round"/>
<path d="M252.453 16.9655L257.23 18.2961L247.676 15.1914L252.453 16.9655Z" stroke="#2ACAF7" stroke-width="0.5" stroke-linecap="round" stroke-linejoin="round"/>
<path d="M218.579 9.87891L224.222 12.9783L214.234 12.5347L218.579 9.87891Z" stroke="#2ACAF7" stroke-width="0.5" stroke-linecap="round" stroke-linejoin="round"/>
<path d="M205.551 16.9659L214.234 12.5359L206.416 6.77539L205.551 16.9659Z" stroke="#2ACAF7" stroke-width="0.5" stroke-linecap="round" stroke-linejoin="round"/>
<path d="M208.593 1.90625L213.803 6.33621L206.418 6.7744L208.593 1.90625Z" stroke="#2ACAF7" stroke-width="0.5" stroke-linecap="round" stroke-linejoin="round"/>
<path d="M213.803 6.33594L214.236 12.5347L206.418 6.77413L213.803 6.33594Z" stroke="#2ACAF7" stroke-width="0.5" stroke-linecap="round" stroke-linejoin="round"/>
<path d="M206.418 6.77509L208.593 1.90694L204.682 0.132812L206.418 6.77509Z" stroke="#2ACAF7" stroke-width="0.5" stroke-linecap="round" stroke-linejoin="round"/>
<path d="M202.079 0.132812H204.681L200.342 3.67572L202.079 0.132812Z" stroke="#2ACAF7" stroke-width="0.5" stroke-linecap="round" stroke-linejoin="round"/>
<path d="M204.681 0.132812L206.418 6.77509L200.342 3.67572L204.681 0.132812Z" stroke="#2ACAF7" stroke-width="0.5" stroke-linecap="round" stroke-linejoin="round"/>
<path d="M189.045 16.9647L194.26 18.2953L192.524 9.87891L189.045 16.9647Z" stroke="#2ACAF7" stroke-width="0.5" stroke-linecap="round" stroke-linejoin="round"/>
<path d="M192.523 9.87908L194.26 18.2955L199.47 9.43555L192.523 9.87908Z" stroke="#2ACAF7" stroke-width="0.5" stroke-linecap="round" stroke-linejoin="round"/>
<path d="M192.523 9.87918L194.693 5.44922L199.47 9.43565L192.523 9.87918Z" stroke="#2ACAF7" stroke-width="0.5" stroke-linecap="round" stroke-linejoin="round"/>
<path d="M194.26 18.2955L205.551 16.9649L199.47 9.43555L194.26 18.2955Z" stroke="#2ACAF7" stroke-width="0.5" stroke-linecap="round" stroke-linejoin="round"/>
<path d="M194.693 5.4499L200.342 3.67578L199.471 9.43634L194.693 5.4499Z" stroke="#2ACAF7" stroke-width="0.5" stroke-linecap="round" stroke-linejoin="round"/>
<path d="M200.342 3.67578L206.418 6.77515L199.471 9.43634L200.342 3.67578Z" stroke="#2ACAF7" stroke-width="0.5" stroke-linecap="round" stroke-linejoin="round"/>
<path d="M205.552 16.9659L206.418 6.77539L199.471 9.43658L205.552 16.9659Z" stroke="#2ACAF7" stroke-width="0.5" stroke-linecap="round" stroke-linejoin="round"/>
<path d="M202.943 25.8248L205.551 16.9648L214.235 19.626L202.943 25.8248Z" stroke="#2ACAF7" stroke-width="0.5" stroke-linecap="round" stroke-linejoin="round"/>
<path d="M205.551 16.9651L214.234 12.5352V19.6263L205.551 16.9651Z" stroke="#2ACAF7" stroke-width="0.5" stroke-linecap="round" stroke-linejoin="round"/>
<path d="M214.234 12.5352L224.222 12.9787L214.234 19.6263V12.5352Z" stroke="#2ACAF7" stroke-width="0.5" stroke-linecap="round" stroke-linejoin="round"/>
<path d="M224.222 12.9785L228.999 17.852L214.234 19.6261L224.222 12.9785Z" stroke="#2ACAF7" stroke-width="0.5" stroke-linecap="round" stroke-linejoin="round"/>
<path d="M214.234 19.6276L228.999 17.8535V24.4958L214.234 19.6276Z" stroke="#2ACAF7" stroke-width="0.5" stroke-linecap="round" stroke-linejoin="round"/>
<path d="M229 17.8533L237.256 14.7539L229 24.4956V17.8533Z" stroke="#2ACAF7" stroke-width="0.5" stroke-linecap="round" stroke-linejoin="round"/>
<path d="M229 24.4956L237.256 14.7539L248.109 30.2561L229 24.4956Z" stroke="#2ACAF7" stroke-width="0.5" stroke-linecap="round" stroke-linejoin="round"/>
<path d="M237.256 14.7539L247.676 15.1921L248.109 30.2561L237.256 14.7539Z" stroke="#2ACAF7" stroke-width="0.5" stroke-linecap="round" stroke-linejoin="round"/>
<path d="M247.676 15.1914L252.453 16.9655L248.109 30.2554L247.676 15.1914Z" stroke="#2ACAF7" stroke-width="0.5" stroke-linecap="round" stroke-linejoin="round"/>
<path d="M252.454 16.9648L257.231 18.2954L248.109 30.2547L252.454 16.9648Z" stroke="#2ACAF7" stroke-width="0.5" stroke-linecap="round" stroke-linejoin="round"/>
<path d="M257.231 18.2969L262.008 21.8398L248.109 30.2562L257.231 18.2969Z" stroke="#2ACAF7" stroke-width="0.5" stroke-linecap="round" stroke-linejoin="round"/>
<path d="M248.109 30.2562L262.008 21.8398L261.576 42.6591L248.109 30.2562Z" stroke="#2ACAF7" stroke-width="0.5" stroke-linecap="round" stroke-linejoin="round"/>
<path d="M262.009 21.8398L271.996 26.7133L261.576 42.6591L262.009 21.8398Z" stroke="#2ACAF7" stroke-width="0.5" stroke-linecap="round" stroke-linejoin="round"/>
<path d="M271.996 26.7129L277.207 30.6993L261.576 42.6586L271.996 26.7129Z" stroke="#2ACAF7" stroke-width="0.5" stroke-linecap="round" stroke-linejoin="round"/>
<path d="M277.207 30.6992L282.417 51.962L261.576 42.6585L277.207 30.6992Z" stroke="#2ACAF7" stroke-width="0.5" stroke-linecap="round" stroke-linejoin="round"/>
<path d="M278.943 58.6039L282.417 51.9617L261.576 42.6582L278.943 58.6039Z" stroke="#2ACAF7" stroke-width="0.5" stroke-linecap="round" stroke-linejoin="round"/>
<path d="M261.575 42.6582L278.942 58.6039L258.102 57.2787L261.575 42.6582Z" stroke="#2ACAF7" stroke-width="0.5" stroke-linecap="round" stroke-linejoin="round"/>
<path d="M274.165 67.0209L278.942 58.6045L258.102 57.2793L274.165 67.0209Z" stroke="#2ACAF7" stroke-width="0.5" stroke-linecap="round" stroke-linejoin="round"/>
<path d="M229 24.4941L248.109 30.2547L239.426 47.0875L229 24.4941Z" stroke="#2ACAF7" stroke-width="0.5" stroke-linecap="round" stroke-linejoin="round"/>
<path d="M248.109 30.2559L261.576 42.6587L239.426 47.0887L248.109 30.2559Z" stroke="#2ACAF7" stroke-width="0.5" stroke-linecap="round" stroke-linejoin="round"/>
<path d="M258.102 57.2787L261.576 42.6582L239.426 47.0882L258.102 57.2787Z" stroke="#2ACAF7" stroke-width="0.5" stroke-linecap="round" stroke-linejoin="round"/>
<path d="M202.943 25.8257L214.235 19.627L222.485 34.6856L202.943 25.8257Z" stroke="#2ACAF7" stroke-width="0.5" stroke-linecap="round" stroke-linejoin="round"/>
<path d="M214.234 19.627L228.999 24.4951L222.485 34.6856L214.234 19.627Z" stroke="#2ACAF7" stroke-width="0.5" stroke-linecap="round" stroke-linejoin="round"/>
<path d="M214.668 48.8625L239.426 47.0884L222.486 34.6855L214.668 48.8625Z" stroke="#2ACAF7" stroke-width="0.5" stroke-linecap="round" stroke-linejoin="round"/>
<path d="M229 24.4941L239.426 47.0875L222.486 34.6847L229 24.4941Z" stroke="#2ACAF7" stroke-width="0.5" stroke-linecap="round" stroke-linejoin="round"/>
<path d="M183.836 26.2695H192.525L198.606 40.4465L183.836 26.2695Z" stroke="#2ACAF7" stroke-width="0.5" stroke-linecap="round" stroke-linejoin="round"/>
<path d="M192.523 26.2697L202.944 25.8262L198.605 40.4467L192.523 26.2697Z" stroke="#2ACAF7" stroke-width="0.5" stroke-linecap="round" stroke-linejoin="round"/>
<path d="M202.945 25.8262L222.487 34.6861L198.605 40.4467L202.945 25.8262Z" stroke="#2ACAF7" stroke-width="0.5" stroke-linecap="round" stroke-linejoin="round"/>
<path d="M214.669 48.8625L222.487 34.6855L198.605 40.4461L214.669 48.8625Z" stroke="#2ACAF7" stroke-width="0.5" stroke-linecap="round" stroke-linejoin="round"/>
<path d="M164.727 28.0439L172.544 21.8398L175.585 40.8903L164.727 28.0439Z" stroke="#2ACAF7" stroke-width="0.5" stroke-linecap="round" stroke-linejoin="round"/>
<path d="M172.543 21.8398L183.834 26.2698L175.584 40.8903L172.543 21.8398Z" stroke="#2ACAF7" stroke-width="0.5" stroke-linecap="round" stroke-linejoin="round"/>
<path d="M183.835 26.2695L198.605 40.4465L175.584 40.89L183.835 26.2695Z" stroke="#2ACAF7" stroke-width="0.5" stroke-linecap="round" stroke-linejoin="round"/>
<path d="M175.584 40.8888L198.605 40.4453L185.571 59.9339L175.584 40.8888Z" stroke="#2ACAF7" stroke-width="0.5" stroke-linecap="round" stroke-linejoin="round"/>
<path d="M185.572 59.934L198.606 40.4453L205.553 62.1516L185.572 59.934Z" stroke="#2ACAF7" stroke-width="0.5" stroke-linecap="round" stroke-linejoin="round"/>
<path d="M198.605 40.4453L214.669 48.8617L205.552 62.1516L198.605 40.4453Z" stroke="#2ACAF7" stroke-width="0.5" stroke-linecap="round" stroke-linejoin="round"/>
<path d="M205.551 62.1512L214.667 48.8613L229.87 60.8206L205.551 62.1512Z" stroke="#2ACAF7" stroke-width="0.5" stroke-linecap="round" stroke-linejoin="round"/>
<path d="M205.551 62.1529L226.397 78.5421L229.87 60.8223L205.551 62.1529Z" stroke="#2ACAF7" stroke-width="0.5" stroke-linecap="round" stroke-linejoin="round"/>
<path d="M214.668 48.862L239.426 47.0879L229.871 60.8213L214.668 48.862Z" stroke="#2ACAF7" stroke-width="0.5" stroke-linecap="round" stroke-linejoin="round"/>
<path d="M226.398 78.5421L229.872 60.8223L244.637 70.1257L226.398 78.5421Z" stroke="#2ACAF7" stroke-width="0.5" stroke-linecap="round" stroke-linejoin="round"/>
<path d="M229.871 60.8213L239.426 47.0879L244.636 70.1248L229.871 60.8213Z" stroke="#2ACAF7" stroke-width="0.5" stroke-linecap="round" stroke-linejoin="round"/>
<path d="M239.426 47.0879L258.102 57.2784L244.636 70.1248L239.426 47.0879Z" stroke="#2ACAF7" stroke-width="0.5" stroke-linecap="round" stroke-linejoin="round"/>
<path d="M258.101 57.2793L274.164 67.0209L244.635 70.1257L258.101 57.2793Z" stroke="#2ACAF7" stroke-width="0.5" stroke-linecap="round" stroke-linejoin="round"/>
<path d="M274.164 67.0215L274.603 78.0991L244.635 70.1262L274.164 67.0215Z" stroke="#2ACAF7" stroke-width="0.5" stroke-linecap="round" stroke-linejoin="round"/>
<path d="M244.635 70.125L274.603 78.0979L257.23 91.3878L244.635 70.125Z" stroke="#2ACAF7" stroke-width="0.5" stroke-linecap="round" stroke-linejoin="round"/>
<path d="M273.734 87.4011L274.605 78.0977L257.232 91.3876L273.734 87.4011Z" stroke="#2ACAF7" stroke-width="0.5" stroke-linecap="round" stroke-linejoin="round"/>
<path d="M226.398 78.5414L244.637 70.125L242.467 97.143L226.398 78.5414Z" stroke="#2ACAF7" stroke-width="0.5" stroke-linecap="round" stroke-linejoin="round"/>
<path d="M244.636 70.125L257.232 91.3878L242.467 97.143L244.636 70.125Z" stroke="#2ACAF7" stroke-width="0.5" stroke-linecap="round" stroke-linejoin="round"/>
<path d="M257.232 91.3888L273.734 87.4023L273.301 106.447L257.232 91.3888Z" stroke="#2ACAF7" stroke-width="0.5" stroke-linecap="round" stroke-linejoin="round"/>
<path d="M273.734 87.4009L280.68 86.0703L273.301 106.446L273.734 87.4009Z" stroke="#2ACAF7" stroke-width="0.5" stroke-linecap="round" stroke-linejoin="round"/>
<path d="M280.68 86.0703L291.972 89.6132L273.301 106.446L280.68 86.0703Z" stroke="#2ACAF7" stroke-width="0.5" stroke-linecap="round" stroke-linejoin="round"/>
<path d="M273.301 106.446L291.972 89.6133L296.316 116.193L273.301 106.446Z" stroke="#2ACAF7" stroke-width="0.5" stroke-linecap="round" stroke-linejoin="round"/>
<path d="M291.971 89.6133L303.7 102.46L296.315 116.193L291.971 89.6133Z" stroke="#2ACAF7" stroke-width="0.5" stroke-linecap="round" stroke-linejoin="round"/>
<path d="M303.7 102.461L314.12 107.334L296.314 116.194L303.7 102.461Z" stroke="#2ACAF7" stroke-width="0.5" stroke-linecap="round" stroke-linejoin="round"/>
<path d="M296.314 116.194L314.12 107.334L313.254 121.954L296.314 116.194Z" stroke="#2ACAF7" stroke-width="0.5" stroke-linecap="round" stroke-linejoin="round"/>
<path d="M314.12 107.334L321.072 110.877L313.254 121.954L314.12 107.334Z" stroke="#2ACAF7" stroke-width="0.5" stroke-linecap="round" stroke-linejoin="round"/>
<path d="M320.201 139.67L329.755 136.57L313.254 121.955L320.201 139.67Z" stroke="#2ACAF7" stroke-width="0.5" stroke-linecap="round" stroke-linejoin="round"/>
<path d="M313.254 121.955L321.072 110.877L332.796 120.624L313.254 121.955Z" stroke="#2ACAF7" stroke-width="0.5" stroke-linecap="round" stroke-linejoin="round"/>
<path d="M313.254 121.954L329.755 136.569L332.796 120.623L313.254 121.954Z" stroke="#2ACAF7" stroke-width="0.5" stroke-linecap="round" stroke-linejoin="round"/>
<path d="M321.072 110.876L328.885 108.664L332.796 120.623L321.072 110.876Z" stroke="#2ACAF7" stroke-width="0.5" stroke-linecap="round" stroke-linejoin="round"/>
<path d="M328.885 108.664L346.257 115.75L332.796 120.623L328.885 108.664Z" stroke="#2ACAF7" stroke-width="0.5" stroke-linecap="round" stroke-linejoin="round"/>
<path d="M329.756 136.569L341.48 132.582L332.796 120.623L329.756 136.569Z" stroke="#2ACAF7" stroke-width="0.5" stroke-linecap="round" stroke-linejoin="round"/>
<path d="M341.48 132.582L344.954 125.94L332.797 120.623L341.48 132.582Z" stroke="#2ACAF7" stroke-width="0.5" stroke-linecap="round" stroke-linejoin="round"/>
<path d="M344.954 125.94L346.258 120.18L332.797 120.623L344.954 125.94Z" stroke="#2ACAF7" stroke-width="0.5" stroke-linecap="round" stroke-linejoin="round"/>
<path d="M346.258 120.18V115.75L332.797 120.623L346.258 120.18Z" stroke="#2ACAF7" stroke-width="0.5" stroke-linecap="round" stroke-linejoin="round"/>
<path d="M296.314 116.193L313.254 121.954L302.828 134.795L296.314 116.193Z" stroke="#2ACAF7" stroke-width="0.5" stroke-linecap="round" stroke-linejoin="round"/>
<path d="M313.256 121.955L320.203 139.67L302.83 134.796L313.256 121.955Z" stroke="#2ACAF7" stroke-width="0.5" stroke-linecap="round" stroke-linejoin="round"/>
<path d="M316.729 146.76L320.203 139.668L302.83 134.795L316.729 146.76Z" stroke="#2ACAF7" stroke-width="0.5" stroke-linecap="round" stroke-linejoin="round"/>
<path d="M291.971 168.46L295.449 168.904L291.971 151.189V168.46Z" stroke="#2ACAF7" stroke-width="0.5" stroke-linecap="round" stroke-linejoin="round"/>
<path d="M295.449 168.904L306.308 166.248L291.971 151.189L295.449 168.904Z" stroke="#2ACAF7" stroke-width="0.5" stroke-linecap="round" stroke-linejoin="round"/>
<path d="M302.829 134.795L316.728 146.76L291.971 151.19L302.829 134.795Z" stroke="#2ACAF7" stroke-width="0.5" stroke-linecap="round" stroke-linejoin="round"/>
<path d="M306.308 166.248L316.295 152.515L291.971 151.189L306.308 166.248Z" stroke="#2ACAF7" stroke-width="0.5" stroke-linecap="round" stroke-linejoin="round"/>
<path d="M316.295 152.515L316.728 146.76L291.971 151.19L316.295 152.515Z" stroke="#2ACAF7" stroke-width="0.5" stroke-linecap="round" stroke-linejoin="round"/>
<path d="M269.389 151.629L270.26 163.594L279.814 159.607L269.389 151.629Z" stroke="#2ACAF7" stroke-width="0.5" stroke-linecap="round" stroke-linejoin="round"/>
<path d="M269.389 151.629L275.903 148.529L279.814 159.607L269.389 151.629Z" stroke="#2ACAF7" stroke-width="0.5" stroke-linecap="round" stroke-linejoin="round"/>
<path d="M270.26 163.592L273.733 168.022L279.814 159.605L270.26 163.592Z" stroke="#2ACAF7" stroke-width="0.5" stroke-linecap="round" stroke-linejoin="round"/>
<path d="M273.732 168.022L276.773 174.221L279.814 159.605L273.732 168.022Z" stroke="#2ACAF7" stroke-width="0.5" stroke-linecap="round" stroke-linejoin="round"/>
<path d="M275.902 148.529L291.971 151.19L279.814 159.607L275.902 148.529Z" stroke="#2ACAF7" stroke-width="0.5" stroke-linecap="round" stroke-linejoin="round"/>
<path d="M276.773 174.221H289.369L279.814 159.605L276.773 174.221Z" stroke="#2ACAF7" stroke-width="0.5" stroke-linecap="round" stroke-linejoin="round"/>
<path d="M289.367 174.221L291.97 168.46L279.812 159.605L289.367 174.221Z" stroke="#2ACAF7" stroke-width="0.5" stroke-linecap="round" stroke-linejoin="round"/>
<path d="M291.97 151.189V168.46L279.812 159.606L291.97 151.189Z" stroke="#2ACAF7" stroke-width="0.5" stroke-linecap="round" stroke-linejoin="round"/>
<path d="M273.301 106.447L296.316 116.194L285.463 130.371L273.301 106.447Z" stroke="#2ACAF7" stroke-width="0.5" stroke-linecap="round" stroke-linejoin="round"/>
<path d="M275.902 148.529L291.971 151.19L285.462 130.371L275.902 148.529Z" stroke="#2ACAF7" stroke-width="0.5" stroke-linecap="round" stroke-linejoin="round"/>
<path d="M291.972 151.19L302.83 134.796L285.463 130.371L291.972 151.19Z" stroke="#2ACAF7" stroke-width="0.5" stroke-linecap="round" stroke-linejoin="round"/>
<path d="M296.316 116.193L302.83 134.795L285.463 130.37L296.316 116.193Z" stroke="#2ACAF7" stroke-width="0.5" stroke-linecap="round" stroke-linejoin="round"/>
<path d="M258.535 151.628H269.388L267.219 126.379L258.535 151.628Z" stroke="#2ACAF7" stroke-width="0.5" stroke-linecap="round" stroke-linejoin="round"/>
<path d="M269.388 151.628L275.902 148.529L267.219 126.379L269.388 151.628Z" stroke="#2ACAF7" stroke-width="0.5" stroke-linecap="round" stroke-linejoin="round"/>
<path d="M273.3 106.447L285.462 130.371L267.219 126.379L273.3 106.447Z" stroke="#2ACAF7" stroke-width="0.5" stroke-linecap="round" stroke-linejoin="round"/>
<path d="M275.902 148.529L285.462 130.371L267.219 126.379L275.902 148.529Z" stroke="#2ACAF7" stroke-width="0.5" stroke-linecap="round" stroke-linejoin="round"/>
<path d="M258.535 151.628L267.218 126.379L250.717 137.9L258.535 151.628Z" stroke="#2ACAF7" stroke-width="0.5" stroke-linecap="round" stroke-linejoin="round"/>
<path d="M250.717 137.9L258.535 151.628L239.426 154.733L250.717 137.9Z" stroke="#2ACAF7" stroke-width="0.5" stroke-linecap="round" stroke-linejoin="round"/>
<path d="M256.36 160.932L258.535 151.629L239.426 154.734L256.36 160.932Z" stroke="#2ACAF7" stroke-width="0.5" stroke-linecap="round" stroke-linejoin="round"/>
<path d="M239.427 154.732L256.361 160.931L238.123 172.896L239.427 154.732Z" stroke="#2ACAF7" stroke-width="0.5" stroke-linecap="round" stroke-linejoin="round"/>
<path d="M241.596 195.484L248.111 189.729L238.123 172.896L241.596 195.484Z" stroke="#2ACAF7" stroke-width="0.5" stroke-linecap="round" stroke-linejoin="round"/>
<path d="M248.111 189.729L252.455 183.525L238.123 172.896L248.111 189.729Z" stroke="#2ACAF7" stroke-width="0.5" stroke-linecap="round" stroke-linejoin="round"/>
<path d="M252.455 183.525L256.799 174.222L238.123 172.896L252.455 183.525Z" stroke="#2ACAF7" stroke-width="0.5" stroke-linecap="round" stroke-linejoin="round"/>
<path d="M256.361 160.932L256.799 174.222L238.123 172.896L256.361 160.932Z" stroke="#2ACAF7" stroke-width="0.5" stroke-linecap="round" stroke-linejoin="round"/>
<path d="M215.107 196.371L222.487 199.47L226.399 189.729L215.107 196.371Z" stroke="#2ACAF7" stroke-width="0.5" stroke-linecap="round" stroke-linejoin="round"/>
<path d="M222.486 199.47L235.953 202.575L226.398 189.729L222.486 199.47Z" stroke="#2ACAF7" stroke-width="0.5" stroke-linecap="round" stroke-linejoin="round"/>
<path d="M235.953 202.575L241.596 195.484L226.398 189.729L235.953 202.575Z" stroke="#2ACAF7" stroke-width="0.5" stroke-linecap="round" stroke-linejoin="round"/>
<path d="M238.123 172.896L241.596 195.484L226.398 189.729L238.123 172.896Z" stroke="#2ACAF7" stroke-width="0.5" stroke-linecap="round" stroke-linejoin="round"/>
<path d="M191.221 175.552L192.525 165.805L211.196 175.995L191.221 175.552Z" stroke="#2ACAF7" stroke-width="0.5" stroke-linecap="round" stroke-linejoin="round"/>
<path d="M191.221 175.553L198.168 185.743L211.196 175.996L191.221 175.553Z" stroke="#2ACAF7" stroke-width="0.5" stroke-linecap="round" stroke-linejoin="round"/>
<path d="M198.166 185.743L205.118 194.603L211.194 175.996L198.166 185.743Z" stroke="#2ACAF7" stroke-width="0.5" stroke-linecap="round" stroke-linejoin="round"/>
<path d="M205.119 194.603L215.107 196.372L211.195 175.996L205.119 194.603Z" stroke="#2ACAF7" stroke-width="0.5" stroke-linecap="round" stroke-linejoin="round"/>
<path d="M215.107 196.372L226.398 189.73L211.195 175.996L215.107 196.372Z" stroke="#2ACAF7" stroke-width="0.5" stroke-linecap="round" stroke-linejoin="round"/>
<path d="M211.195 175.996L226.398 189.729L222.054 168.461L211.195 175.996Z" stroke="#2ACAF7" stroke-width="0.5" stroke-linecap="round" stroke-linejoin="round"/>
<path d="M226.397 189.729L238.121 172.896L222.053 168.461L226.397 189.729Z" stroke="#2ACAF7" stroke-width="0.5" stroke-linecap="round" stroke-linejoin="round"/>
<path d="M238.121 172.896L239.425 154.732L222.053 168.461L238.121 172.896Z" stroke="#2ACAF7" stroke-width="0.5" stroke-linecap="round" stroke-linejoin="round"/>
<path d="M191.221 156.063L192.525 165.805L208.16 153.846L191.221 156.063Z" stroke="#2ACAF7" stroke-width="0.5" stroke-linecap="round" stroke-linejoin="round"/>
<path d="M192.523 165.805L211.195 175.996L208.159 153.846L192.523 165.805Z" stroke="#2ACAF7" stroke-width="0.5" stroke-linecap="round" stroke-linejoin="round"/>
<path d="M211.195 175.996L222.054 168.461L208.16 153.846L211.195 175.996Z" stroke="#2ACAF7" stroke-width="0.5" stroke-linecap="round" stroke-linejoin="round"/>
<path d="M208.16 153.846L222.054 168.461L228.568 144.986L208.16 153.846Z" stroke="#2ACAF7" stroke-width="0.5" stroke-linecap="round" stroke-linejoin="round"/>
<path d="M222.053 168.461L239.425 154.733L228.567 144.986L222.053 168.461Z" stroke="#2ACAF7" stroke-width="0.5" stroke-linecap="round" stroke-linejoin="round"/>
<path d="M239.425 154.733L250.716 137.9L228.566 144.986L239.425 154.733Z" stroke="#2ACAF7" stroke-width="0.5" stroke-linecap="round" stroke-linejoin="round"/>
<path d="M228.566 144.985L250.716 137.9L232.911 131.252L228.566 144.985Z" stroke="#2ACAF7" stroke-width="0.5" stroke-linecap="round" stroke-linejoin="round"/>
<path d="M232.912 131.253L250.717 137.9L249.414 114.863L232.912 131.253Z" stroke="#2ACAF7" stroke-width="0.5" stroke-linecap="round" stroke-linejoin="round"/>
<path d="M242.467 97.1439L257.232 91.3887L249.414 114.864L242.467 97.1439Z" stroke="#2ACAF7" stroke-width="0.5" stroke-linecap="round" stroke-linejoin="round"/>
<path d="M250.718 137.9L267.219 126.379L249.414 114.863L250.718 137.9Z" stroke="#2ACAF7" stroke-width="0.5" stroke-linecap="round" stroke-linejoin="round"/>
<path d="M257.232 91.3887L273.301 106.447L249.414 114.864L257.232 91.3887Z" stroke="#2ACAF7" stroke-width="0.5" stroke-linecap="round" stroke-linejoin="round"/>
<path d="M267.219 126.379L273.301 106.447L249.414 114.864L267.219 126.379Z" stroke="#2ACAF7" stroke-width="0.5" stroke-linecap="round" stroke-linejoin="round"/>
<path d="M226.398 78.541L242.467 97.1426L229.001 93.1562L226.398 78.541Z" stroke="#2ACAF7" stroke-width="0.5" stroke-linecap="round" stroke-linejoin="round"/>
<path d="M229 93.1562L242.466 97.1427L230.737 111.763L229 93.1562Z" stroke="#2ACAF7" stroke-width="0.5" stroke-linecap="round" stroke-linejoin="round"/>
<path d="M232.911 131.252L249.413 114.863L230.736 111.764L232.911 131.252Z" stroke="#2ACAF7" stroke-width="0.5" stroke-linecap="round" stroke-linejoin="round"/>
<path d="M242.466 97.1426L249.413 114.862L230.736 111.763L242.466 97.1426Z" stroke="#2ACAF7" stroke-width="0.5" stroke-linecap="round" stroke-linejoin="round"/>
<path d="M228.999 93.1562L230.736 111.763L209.457 108.664L228.999 93.1562Z" stroke="#2ACAF7" stroke-width="0.5" stroke-linecap="round" stroke-linejoin="round"/>
<path d="M209.457 108.663L228.999 93.1557L211.194 90.9434L209.457 108.663Z" stroke="#2ACAF7" stroke-width="0.5" stroke-linecap="round" stroke-linejoin="round"/>
<path d="M226.398 78.541L229.001 93.1562L211.195 90.9438L226.398 78.541Z" stroke="#2ACAF7" stroke-width="0.5" stroke-linecap="round" stroke-linejoin="round"/>
<path d="M185.572 59.9355L205.553 62.1532L198.606 78.986L185.572 59.9355Z" stroke="#2ACAF7" stroke-width="0.5" stroke-linecap="round" stroke-linejoin="round"/>
<path d="M205.552 62.1523L226.398 78.5416L198.605 78.9851L205.552 62.1523Z" stroke="#2ACAF7" stroke-width="0.5" stroke-linecap="round" stroke-linejoin="round"/>
<path d="M211.195 90.9439L226.398 78.541L198.605 78.9845L211.195 90.9439Z" stroke="#2ACAF7" stroke-width="0.5" stroke-linecap="round" stroke-linejoin="round"/>
<path d="M185.571 59.9355L198.604 78.986L173.414 76.7683L185.571 59.9355Z" stroke="#2ACAF7" stroke-width="0.5" stroke-linecap="round" stroke-linejoin="round"/>
<path d="M173.414 76.7683L185.571 59.9355L166.029 56.3926L173.414 76.7683Z" stroke="#2ACAF7" stroke-width="0.5" stroke-linecap="round" stroke-linejoin="round"/>
<path d="M175.584 40.8906L185.571 59.9357L166.029 56.3928L175.584 40.8906Z" stroke="#2ACAF7" stroke-width="0.5" stroke-linecap="round" stroke-linejoin="round"/>
<path d="M139.541 29.8127L151.265 29.3691L153.435 46.2019L139.541 29.8127Z" stroke="#2ACAF7" stroke-width="0.5" stroke-linecap="round" stroke-linejoin="round"/>
<path d="M151.264 29.3682L164.725 28.043L153.433 46.201L151.264 29.3682Z" stroke="#2ACAF7" stroke-width="0.5" stroke-linecap="round" stroke-linejoin="round"/>
<path d="M164.725 28.043L175.583 40.8893L153.434 46.201L164.725 28.043Z" stroke="#2ACAF7" stroke-width="0.5" stroke-linecap="round" stroke-linejoin="round"/>
<path d="M166.029 56.3928L175.583 40.8906L153.434 46.2023L166.029 56.3928Z" stroke="#2ACAF7" stroke-width="0.5" stroke-linecap="round" stroke-linejoin="round"/>
<path d="M112.613 42.6582L118.262 35.1289L130.419 50.6311L112.613 42.6582Z" stroke="#2ACAF7" stroke-width="0.5" stroke-linecap="round" stroke-linejoin="round"/>
<path d="M118.262 35.1297L130.419 29.3691V50.6319L118.262 35.1297Z" stroke="#2ACAF7" stroke-width="0.5" stroke-linecap="round" stroke-linejoin="round"/>
<path d="M130.418 29.3691L139.54 29.8127L130.418 50.6319V29.3691Z" stroke="#2ACAF7" stroke-width="0.5" stroke-linecap="round" stroke-linejoin="round"/>
<path d="M139.54 29.8125L153.433 46.2018L130.418 50.6317L139.54 29.8125Z" stroke="#2ACAF7" stroke-width="0.5" stroke-linecap="round" stroke-linejoin="round"/>
<path d="M100.018 46.2004L104.795 44.4316L110.005 60.3774L100.018 46.2004Z" stroke="#2ACAF7" stroke-width="0.5" stroke-linecap="round" stroke-linejoin="round"/>
<path d="M104.795 44.4323L112.613 42.6582L110.005 60.3781L104.795 44.4323Z" stroke="#2ACAF7" stroke-width="0.5" stroke-linecap="round" stroke-linejoin="round"/>
<path d="M112.614 42.6582L130.419 50.6311L110.006 60.3781L112.614 42.6582Z" stroke="#2ACAF7" stroke-width="0.5" stroke-linecap="round" stroke-linejoin="round"/>
<path d="M70.4883 71.4509L77.4352 64.8086L93.9366 72.3379L70.4883 71.4509Z" stroke="#2ACAF7" stroke-width="0.5" stroke-linecap="round" stroke-linejoin="round"/>
<path d="M77.4355 64.8073L78.7394 59.4902L93.937 72.3366L77.4355 64.8073Z" stroke="#2ACAF7" stroke-width="0.5" stroke-linecap="round" stroke-linejoin="round"/>
<path d="M78.7402 59.4907L84.3832 54.6172L93.9378 72.337L78.7402 59.4907Z" stroke="#2ACAF7" stroke-width="0.5" stroke-linecap="round" stroke-linejoin="round"/>
<path d="M84.3828 54.6176L100.019 46.2012L93.9374 72.3374L84.3828 54.6176Z" stroke="#2ACAF7" stroke-width="0.5" stroke-linecap="round" stroke-linejoin="round"/>
<path d="M100.019 46.2012L110.006 60.3781L93.9375 72.3374L100.019 46.2012Z" stroke="#2ACAF7" stroke-width="0.5" stroke-linecap="round" stroke-linejoin="round"/>
<path d="M110.006 60.3778L130.419 50.6309L129.553 71.0066L110.006 60.3778Z" stroke="#2ACAF7" stroke-width="0.5" stroke-linecap="round" stroke-linejoin="round"/>
<path d="M129.553 71.0066L130.418 50.6309L151.697 68.3507L129.553 71.0066Z" stroke="#2ACAF7" stroke-width="0.5" stroke-linecap="round" stroke-linejoin="round"/>
<path d="M130.418 50.6311L153.433 46.2012L151.697 68.351L130.418 50.6311Z" stroke="#2ACAF7" stroke-width="0.5" stroke-linecap="round" stroke-linejoin="round"/>
<path d="M153.434 46.2012L166.029 56.3917L151.697 68.351L153.434 46.2012Z" stroke="#2ACAF7" stroke-width="0.5" stroke-linecap="round" stroke-linejoin="round"/>
<path d="M166.029 56.3926L173.414 76.7683L151.697 68.3519L166.029 56.3926Z" stroke="#2ACAF7" stroke-width="0.5" stroke-linecap="round" stroke-linejoin="round"/>
<path d="M129.553 71.0074L151.697 68.3516L142.143 90.0579L129.553 71.0074Z" stroke="#2ACAF7" stroke-width="0.5" stroke-linecap="round" stroke-linejoin="round"/>
<path d="M142.143 90.0579L151.697 68.3516L168.199 96.2566L142.143 90.0579Z" stroke="#2ACAF7" stroke-width="0.5" stroke-linecap="round" stroke-linejoin="round"/>
<path d="M151.697 68.3516L173.414 76.768L168.199 96.2566L151.697 68.3516Z" stroke="#2ACAF7" stroke-width="0.5" stroke-linecap="round" stroke-linejoin="round"/>
<path d="M173.415 76.7676L198.605 78.9852L168.199 96.2562L173.415 76.7676Z" stroke="#2ACAF7" stroke-width="0.5" stroke-linecap="round" stroke-linejoin="round"/>
<path d="M168.199 96.2554L198.605 78.9844L185.139 109.545L168.199 96.2554Z" stroke="#2ACAF7" stroke-width="0.5" stroke-linecap="round" stroke-linejoin="round"/>
<path d="M198.605 78.9844L211.195 90.9437L185.139 109.545L198.605 78.9844Z" stroke="#2ACAF7" stroke-width="0.5" stroke-linecap="round" stroke-linejoin="round"/>
<path d="M209.458 108.663L211.195 90.9434L185.139 109.545L209.458 108.663Z" stroke="#2ACAF7" stroke-width="0.5" stroke-linecap="round" stroke-linejoin="round"/>
<path d="M184.268 158.718L191.22 156.062L188.179 136.568L184.268 158.718Z" stroke="#2ACAF7" stroke-width="0.5" stroke-linecap="round" stroke-linejoin="round"/>
<path d="M191.22 156.062L208.16 153.845L188.18 136.568L191.22 156.062Z" stroke="#2ACAF7" stroke-width="0.5" stroke-linecap="round" stroke-linejoin="round"/>
<path d="M185.139 109.547L188.179 136.57L209.458 127.71L185.139 109.547Z" stroke="#2ACAF7" stroke-width="0.5" stroke-linecap="round" stroke-linejoin="round"/>
<path d="M185.139 109.546L209.458 108.664V127.709L185.139 109.546Z" stroke="#2ACAF7" stroke-width="0.5" stroke-linecap="round" stroke-linejoin="round"/>
<path d="M188.18 136.569L208.16 153.845L209.458 127.709L188.18 136.569Z" stroke="#2ACAF7" stroke-width="0.5" stroke-linecap="round" stroke-linejoin="round"/>
<path d="M208.16 153.845L228.568 144.985L209.459 127.709L208.16 153.845Z" stroke="#2ACAF7" stroke-width="0.5" stroke-linecap="round" stroke-linejoin="round"/>
<path d="M209.457 108.664L230.736 111.763L209.457 127.709V108.664Z" stroke="#2ACAF7" stroke-width="0.5" stroke-linecap="round" stroke-linejoin="round"/>
<path d="M228.566 144.985L232.911 131.252L209.457 127.709L228.566 144.985Z" stroke="#2ACAF7" stroke-width="0.5" stroke-linecap="round" stroke-linejoin="round"/>
<path d="M230.736 111.764L232.911 131.252L209.457 127.709L230.736 111.764Z" stroke="#2ACAF7" stroke-width="0.5" stroke-linecap="round" stroke-linejoin="round"/>
<path d="M172.544 172.453L180.795 164.924L165.164 148.973L172.544 172.453Z" stroke="#2ACAF7" stroke-width="0.5" stroke-linecap="round" stroke-linejoin="round"/>
<path d="M180.795 164.924L184.268 158.72L165.164 148.973L180.795 164.924Z" stroke="#2ACAF7" stroke-width="0.5" stroke-linecap="round" stroke-linejoin="round"/>
<path d="M184.268 158.718L188.18 136.568L165.164 148.971L184.268 158.718Z" stroke="#2ACAF7" stroke-width="0.5" stroke-linecap="round" stroke-linejoin="round"/>
<path d="M163.86 178.208L172.544 172.452L149.096 165.805L163.86 178.208Z" stroke="#2ACAF7" stroke-width="0.5" stroke-linecap="round" stroke-linejoin="round"/>
<path d="M165.164 148.973L172.544 172.453L149.096 165.805L165.164 148.973Z" stroke="#2ACAF7" stroke-width="0.5" stroke-linecap="round" stroke-linejoin="round"/>
<path d="M133.027 214.092L149.529 211.436L144.752 187.512L133.027 214.092Z" stroke="#2ACAF7" stroke-width="0.5" stroke-linecap="round" stroke-linejoin="round"/>
<path d="M149.094 165.805L163.859 178.208L144.75 187.511L149.094 165.805Z" stroke="#2ACAF7" stroke-width="0.5" stroke-linecap="round" stroke-linejoin="round"/>
<path d="M149.527 211.436L156.041 208.774L144.75 187.512L149.527 211.436Z" stroke="#2ACAF7" stroke-width="0.5" stroke-linecap="round" stroke-linejoin="round"/>
<path d="M156.041 208.774L160.819 199.028L144.75 187.512L156.041 208.774Z" stroke="#2ACAF7" stroke-width="0.5" stroke-linecap="round" stroke-linejoin="round"/>
<path d="M160.819 199.027L167.333 185.299L144.75 187.511L160.819 199.027Z" stroke="#2ACAF7" stroke-width="0.5" stroke-linecap="round" stroke-linejoin="round"/>
<path d="M163.859 178.207L167.333 185.298L144.75 187.511L163.859 178.207Z" stroke="#2ACAF7" stroke-width="0.5" stroke-linecap="round" stroke-linejoin="round"/>
<path d="M123.904 208.773L133.026 214.09L126.074 194.602L123.904 208.773Z" stroke="#2ACAF7" stroke-width="0.5" stroke-linecap="round" stroke-linejoin="round"/>
<path d="M133.026 214.092L144.751 187.512L126.074 194.603L133.026 214.092Z" stroke="#2ACAF7" stroke-width="0.5" stroke-linecap="round" stroke-linejoin="round"/>
<path d="M79.1719 208.774L95.2405 220.733L102.193 200.801L79.1719 208.774Z" stroke="#2ACAF7" stroke-width="0.5" stroke-linecap="round" stroke-linejoin="round"/>
<path d="M95.2402 220.733L102.625 217.634L102.192 200.801L95.2402 220.733Z" stroke="#2ACAF7" stroke-width="0.5" stroke-linecap="round" stroke-linejoin="round"/>
<path d="M102.626 217.634L110.444 218.964L102.193 200.801L102.626 217.634Z" stroke="#2ACAF7" stroke-width="0.5" stroke-linecap="round" stroke-linejoin="round"/>
<path d="M110.444 218.964L119.128 213.204L102.193 200.801L110.444 218.964Z" stroke="#2ACAF7" stroke-width="0.5" stroke-linecap="round" stroke-linejoin="round"/>
<path d="M119.128 213.204L123.905 208.774L102.193 200.801L119.128 213.204Z" stroke="#2ACAF7" stroke-width="0.5" stroke-linecap="round" stroke-linejoin="round"/>
<path d="M123.905 208.773L126.075 194.602L102.193 200.8L123.905 208.773Z" stroke="#2ACAF7" stroke-width="0.5" stroke-linecap="round" stroke-linejoin="round"/>
<path d="M67.0156 177.32L71.3547 195.484L81.7804 192.828L67.0156 177.32Z" stroke="#2ACAF7" stroke-width="0.5" stroke-linecap="round" stroke-linejoin="round"/>
<path d="M71.3555 195.484L79.1734 208.774L81.7811 192.828L71.3555 195.484Z" stroke="#2ACAF7" stroke-width="0.5" stroke-linecap="round" stroke-linejoin="round"/>
<path d="M79.1719 208.774L102.193 200.801L81.7796 192.828L79.1719 208.774Z" stroke="#2ACAF7" stroke-width="0.5" stroke-linecap="round" stroke-linejoin="round"/>
<path d="M61.7988 167.136L62.6699 160.488L79.6042 172.453L61.7988 167.136Z" stroke="#2ACAF7" stroke-width="0.5" stroke-linecap="round" stroke-linejoin="round"/>
<path d="M61.7988 167.137L67.0143 177.322L79.6042 172.454L61.7988 167.137Z" stroke="#2ACAF7" stroke-width="0.5" stroke-linecap="round" stroke-linejoin="round"/>
<path d="M67.0156 177.321L81.7804 192.829L79.6055 172.453L67.0156 177.321Z" stroke="#2ACAF7" stroke-width="0.5" stroke-linecap="round" stroke-linejoin="round"/>
<path d="M62.6719 160.488L79.6062 172.453L79.1734 145.43L62.6719 160.488Z" stroke="#2ACAF7" stroke-width="0.5" stroke-linecap="round" stroke-linejoin="round"/>
<path d="M41.3906 156.508H54.8515L55.2844 141L41.3906 156.508Z" stroke="#2ACAF7" stroke-width="0.5" stroke-linecap="round" stroke-linejoin="round"/>
<path d="M54.8535 156.508L62.6714 160.489L55.2864 141L54.8535 156.508Z" stroke="#2ACAF7" stroke-width="0.5" stroke-linecap="round" stroke-linejoin="round"/>
<path d="M62.6702 160.489L79.1717 145.43L55.2852 141L62.6702 160.489Z" stroke="#2ACAF7" stroke-width="0.5" stroke-linecap="round" stroke-linejoin="round"/>
<path d="M16.6348 138.343L24.0198 130.809L34.4401 140.556L16.6348 138.343Z" stroke="#2ACAF7" stroke-width="0.5" stroke-linecap="round" stroke-linejoin="round"/>
<path d="M24.0195 130.81L32.2703 125.498L34.4398 140.557L24.0195 130.81Z" stroke="#2ACAF7" stroke-width="0.5" stroke-linecap="round" stroke-linejoin="round"/>
<path d="M32.2695 125.498L37.4797 121.512L34.4391 140.557L32.2695 125.498Z" stroke="#2ACAF7" stroke-width="0.5" stroke-linecap="round" stroke-linejoin="round"/>
<path d="M37.48 121.512L55.2854 141L34.4395 140.557L37.48 121.512Z" stroke="#2ACAF7" stroke-width="0.5" stroke-linecap="round" stroke-linejoin="round"/>
<path d="M41.3917 156.506L55.2854 140.998L34.4395 140.555L41.3917 156.506Z" stroke="#2ACAF7" stroke-width="0.5" stroke-linecap="round" stroke-linejoin="round"/>
<path d="M8.38477 154.733L13.1621 166.249L23.1495 152.959L8.38477 154.733Z" stroke="#2ACAF7" stroke-width="0.5" stroke-linecap="round" stroke-linejoin="round"/>
<path d="M8.38477 154.733L15.3316 144.543L23.1495 152.959L8.38477 154.733Z" stroke="#2ACAF7" stroke-width="0.5" stroke-linecap="round" stroke-linejoin="round"/>
<path d="M13.1602 166.249L27.4921 163.593L23.1476 152.959L13.1602 166.249Z" stroke="#2ACAF7" stroke-width="0.5" stroke-linecap="round" stroke-linejoin="round"/>
<path d="M15.3301 144.542L16.634 138.344L23.148 152.959L15.3301 144.542Z" stroke="#2ACAF7" stroke-width="0.5" stroke-linecap="round" stroke-linejoin="round"/>
<path d="M16.6348 138.344L34.4401 140.556L23.1488 152.959L16.6348 138.344Z" stroke="#2ACAF7" stroke-width="0.5" stroke-linecap="round" stroke-linejoin="round"/>
<path d="M27.4929 163.593L33.1412 163.15L23.1484 152.959L27.4929 163.593Z" stroke="#2ACAF7" stroke-width="0.5" stroke-linecap="round" stroke-linejoin="round"/>
<path d="M33.1412 163.15L41.392 156.507L23.1484 152.959L33.1412 163.15Z" stroke="#2ACAF7" stroke-width="0.5" stroke-linecap="round" stroke-linejoin="round"/>
<path d="M34.4398 140.555L41.392 156.506L23.1484 152.958L34.4398 140.555Z" stroke="#2ACAF7" stroke-width="0.5" stroke-linecap="round" stroke-linejoin="round"/>
<path d="M36.6152 117.081L37.4809 121.511L52.6839 115.75L36.6152 117.081Z" stroke="#2ACAF7" stroke-width="0.5" stroke-linecap="round" stroke-linejoin="round"/>
<path d="M36.6152 117.081L38.7848 108.221L52.6839 115.75L36.6152 117.081Z" stroke="#2ACAF7" stroke-width="0.5" stroke-linecap="round" stroke-linejoin="round"/>
<path d="M37.4805 121.511L55.2858 140.999L52.6834 115.75L37.4805 121.511Z" stroke="#2ACAF7" stroke-width="0.5" stroke-linecap="round" stroke-linejoin="round"/>
<path d="M38.7832 108.221L50.0745 95.375L52.6823 115.751L38.7832 108.221Z" stroke="#2ACAF7" stroke-width="0.5" stroke-linecap="round" stroke-linejoin="round"/>
<path d="M50.0742 95.375L52.682 115.751L63.5405 96.7003L50.0742 95.375Z" stroke="#2ACAF7" stroke-width="0.5" stroke-linecap="round" stroke-linejoin="round"/>
<path d="M50.0742 95.3733L56.1554 90.9434L63.5405 96.6986L50.0742 95.3733Z" stroke="#2ACAF7" stroke-width="0.5" stroke-linecap="round" stroke-linejoin="round"/>
<path d="M56.1562 86.957V90.9435L63.5413 96.6987L56.1562 86.957Z" stroke="#2ACAF7" stroke-width="0.5" stroke-linecap="round" stroke-linejoin="round"/>
<path d="M56.1562 86.9582L61.3664 80.3105L63.5413 96.6998L56.1562 86.9582Z" stroke="#2ACAF7" stroke-width="0.5" stroke-linecap="round" stroke-linejoin="round"/>
<path d="M61.3672 80.3105L63.5421 96.6998L82.646 90.9446L61.3672 80.3105Z" stroke="#2ACAF7" stroke-width="0.5" stroke-linecap="round" stroke-linejoin="round"/>
<path d="M61.3672 80.3111L70.489 71.4512L82.646 90.9452L61.3672 80.3111Z" stroke="#2ACAF7" stroke-width="0.5" stroke-linecap="round" stroke-linejoin="round"/>
<path d="M70.4883 71.4512L93.9366 72.3382L82.6453 90.9452L70.4883 71.4512Z" stroke="#2ACAF7" stroke-width="0.5" stroke-linecap="round" stroke-linejoin="round"/>
<path d="M82.6465 90.9448L93.9378 72.3379L96.9784 92.7136L82.6465 90.9448Z" stroke="#2ACAF7" stroke-width="0.5" stroke-linecap="round" stroke-linejoin="round"/>
<path d="M93.9375 72.3379L96.9781 92.7136L119.128 84.2972L93.9375 72.3379Z" stroke="#2ACAF7" stroke-width="0.5" stroke-linecap="round" stroke-linejoin="round"/>
<path d="M93.9375 72.3382L110.006 60.3789L119.128 84.2975L93.9375 72.3382Z" stroke="#2ACAF7" stroke-width="0.5" stroke-linecap="round" stroke-linejoin="round"/>
<path d="M110.006 60.3789L129.553 71.0076L119.128 84.2975L110.006 60.3789Z" stroke="#2ACAF7" stroke-width="0.5" stroke-linecap="round" stroke-linejoin="round"/>
<path d="M129.553 71.0078L142.142 90.0583L119.127 84.2977L129.553 71.0078Z" stroke="#2ACAF7" stroke-width="0.5" stroke-linecap="round" stroke-linejoin="round"/>
<path d="M96.9766 92.7133L119.126 84.2969L123.904 101.13L96.9766 92.7133Z" stroke="#2ACAF7" stroke-width="0.5" stroke-linecap="round" stroke-linejoin="round"/>
<path d="M119.127 84.2969L142.142 90.0574L123.904 101.13L119.127 84.2969Z" stroke="#2ACAF7" stroke-width="0.5" stroke-linecap="round" stroke-linejoin="round"/>
<path d="M142.143 90.0566L168.199 96.2554L171.677 116.193L142.143 90.0566Z" stroke="#2ACAF7" stroke-width="0.5" stroke-linecap="round" stroke-linejoin="round"/>
<path d="M165.164 148.972L188.18 136.569L171.678 116.193L165.164 148.972Z" stroke="#2ACAF7" stroke-width="0.5" stroke-linecap="round" stroke-linejoin="round"/>
<path d="M168.199 96.2559L185.139 109.546L171.678 116.193L168.199 96.2559Z" stroke="#2ACAF7" stroke-width="0.5" stroke-linecap="round" stroke-linejoin="round"/>
<path d="M185.139 109.547L188.179 136.57L171.678 116.194L185.139 109.547Z" stroke="#2ACAF7" stroke-width="0.5" stroke-linecap="round" stroke-linejoin="round"/>
<path d="M123.904 101.129L142.143 90.0566L130.418 124.166L123.904 101.129Z" stroke="#2ACAF7" stroke-width="0.5" stroke-linecap="round" stroke-linejoin="round"/>
<path d="M142.142 90.0566L171.677 116.193L130.418 124.166L142.142 90.0566Z" stroke="#2ACAF7" stroke-width="0.5" stroke-linecap="round" stroke-linejoin="round"/>
<path d="M130.418 124.166L171.677 116.193L143.879 137.456L130.418 124.166Z" stroke="#2ACAF7" stroke-width="0.5" stroke-linecap="round" stroke-linejoin="round"/>
<path d="M149.094 165.806L165.163 148.973L143.879 137.457L149.094 165.806Z" stroke="#2ACAF7" stroke-width="0.5" stroke-linecap="round" stroke-linejoin="round"/>
<path d="M165.163 148.972L171.677 116.193L143.879 137.456L165.163 148.972Z" stroke="#2ACAF7" stroke-width="0.5" stroke-linecap="round" stroke-linejoin="round"/>
<path d="M130.418 124.166L143.879 137.456L129.553 149.415L130.418 124.166Z" stroke="#2ACAF7" stroke-width="0.5" stroke-linecap="round" stroke-linejoin="round"/>
<path d="M143.879 137.457L149.095 165.806L129.553 149.416L143.879 137.457Z" stroke="#2ACAF7" stroke-width="0.5" stroke-linecap="round" stroke-linejoin="round"/>
<path d="M126.074 194.603L144.75 187.512L123.033 172.896L126.074 194.603Z" stroke="#2ACAF7" stroke-width="0.5" stroke-linecap="round" stroke-linejoin="round"/>
<path d="M129.553 149.416L149.095 165.805L123.033 172.896L129.553 149.416Z" stroke="#2ACAF7" stroke-width="0.5" stroke-linecap="round" stroke-linejoin="round"/>
<path d="M144.75 187.511L149.095 165.805L123.033 172.896L144.75 187.511Z" stroke="#2ACAF7" stroke-width="0.5" stroke-linecap="round" stroke-linejoin="round"/>
<path d="M79.6055 172.453L81.7804 192.829L105.229 175.552L79.6055 172.453Z" stroke="#2ACAF7" stroke-width="0.5" stroke-linecap="round" stroke-linejoin="round"/>
<path d="M81.7812 192.829L102.194 200.802L105.23 175.553L81.7812 192.829Z" stroke="#2ACAF7" stroke-width="0.5" stroke-linecap="round" stroke-linejoin="round"/>
<path d="M102.193 200.802L126.075 194.603L105.229 175.553L102.193 200.802Z" stroke="#2ACAF7" stroke-width="0.5" stroke-linecap="round" stroke-linejoin="round"/>
<path d="M123.034 172.896L126.074 194.603L105.229 175.552L123.034 172.896Z" stroke="#2ACAF7" stroke-width="0.5" stroke-linecap="round" stroke-linejoin="round"/>
<path d="M79.1719 145.43L79.6047 172.453L98.7139 162.706L79.1719 145.43Z" stroke="#2ACAF7" stroke-width="0.5" stroke-linecap="round" stroke-linejoin="round"/>
<path d="M79.6055 172.452L105.229 175.551L98.7147 162.705L79.6055 172.452Z" stroke="#2ACAF7" stroke-width="0.5" stroke-linecap="round" stroke-linejoin="round"/>
<path d="M105.229 175.551L123.034 172.896L98.7148 162.705L105.229 175.551Z" stroke="#2ACAF7" stroke-width="0.5" stroke-linecap="round" stroke-linejoin="round"/>
<path d="M98.7148 162.706L123.034 172.897L116.087 144.986L98.7148 162.706Z" stroke="#2ACAF7" stroke-width="0.5" stroke-linecap="round" stroke-linejoin="round"/>
<path d="M123.033 172.897L129.552 149.416L116.086 144.986L123.033 172.897Z" stroke="#2ACAF7" stroke-width="0.5" stroke-linecap="round" stroke-linejoin="round"/>
<path d="M129.552 149.415L130.418 124.166L116.086 144.985L129.552 149.415Z" stroke="#2ACAF7" stroke-width="0.5" stroke-linecap="round" stroke-linejoin="round"/>
<path d="M79.1719 145.428L98.7139 162.705L96.5444 140.111L79.1719 145.428Z" stroke="#2ACAF7" stroke-width="0.5" stroke-linecap="round" stroke-linejoin="round"/>
<path d="M98.7145 162.705L116.087 144.985L96.5449 140.111L98.7145 162.705Z" stroke="#2ACAF7" stroke-width="0.5" stroke-linecap="round" stroke-linejoin="round"/>
<path d="M55.2852 141L79.1717 145.43L75.6983 138.344L55.2852 141Z" stroke="#2ACAF7" stroke-width="0.5" stroke-linecap="round" stroke-linejoin="round"/>
<path d="M79.1727 145.43L96.5452 140.113L75.6992 138.344L79.1727 145.43Z" stroke="#2ACAF7" stroke-width="0.5" stroke-linecap="round" stroke-linejoin="round"/>
<path d="M52.6836 115.75L55.286 140.999L77.003 121.067L52.6836 115.75Z" stroke="#2ACAF7" stroke-width="0.5" stroke-linecap="round" stroke-linejoin="round"/>
<path d="M52.6836 115.75L63.5421 96.6992L77.003 121.067L52.6836 115.75Z" stroke="#2ACAF7" stroke-width="0.5" stroke-linecap="round" stroke-linejoin="round"/>
<path d="M55.2852 140.999L75.6983 138.343L77.0021 121.066L55.2852 140.999Z" stroke="#2ACAF7" stroke-width="0.5" stroke-linecap="round" stroke-linejoin="round"/>
<path d="M63.541 96.6986L82.6449 90.9434L77.0019 121.066L63.541 96.6986Z" stroke="#2ACAF7" stroke-width="0.5" stroke-linecap="round" stroke-linejoin="round"/>
<path d="M75.6992 138.343L96.5452 140.112L77.0031 121.066L75.6992 138.343Z" stroke="#2ACAF7" stroke-width="0.5" stroke-linecap="round" stroke-linejoin="round"/>
<path d="M96.5449 140.112L116.087 144.986L107.403 115.75L96.5449 140.112Z" stroke="#2ACAF7" stroke-width="0.5" stroke-linecap="round" stroke-linejoin="round"/>
<path d="M96.9766 92.7129L123.904 101.129L107.402 115.75L96.9766 92.7129Z" stroke="#2ACAF7" stroke-width="0.5" stroke-linecap="round" stroke-linejoin="round"/>
<path d="M116.086 144.986L130.418 124.166L107.402 115.75L116.086 144.986Z" stroke="#2ACAF7" stroke-width="0.5" stroke-linecap="round" stroke-linejoin="round"/>
<path d="M123.904 101.129L130.418 124.166L107.402 115.749L123.904 101.129Z" stroke="#2ACAF7" stroke-width="0.5" stroke-linecap="round" stroke-linejoin="round"/>
<path d="M77.002 121.066L82.6449 90.9434L92.1996 108.663L77.002 121.066Z" stroke="#2ACAF7" stroke-width="0.5" stroke-linecap="round" stroke-linejoin="round"/>
<path d="M77.002 121.067L96.544 140.112L92.1996 108.664L77.002 121.067Z" stroke="#2ACAF7" stroke-width="0.5" stroke-linecap="round" stroke-linejoin="round"/>
<path d="M82.6465 90.9434L96.9784 92.7121L92.2011 108.663L82.6465 90.9434Z" stroke="#2ACAF7" stroke-width="0.5" stroke-linecap="round" stroke-linejoin="round"/>
<path d="M96.5456 140.112L107.404 115.75L92.2012 108.664L96.5456 140.112Z" stroke="#2ACAF7" stroke-width="0.5" stroke-linecap="round" stroke-linejoin="round"/>
<path d="M96.9785 92.7129L107.404 115.75L92.2012 108.664L96.9785 92.7129Z" stroke="#2ACAF7" stroke-width="0.5" stroke-linecap="round" stroke-linejoin="round"/>
</g>
<defs>
<clipPath id="clip0">
<rect width="349" height="227.959" fill="white"/>
</clipPath>
</defs>
</svg>
