<svg width="349" height="166" viewBox="0 0 349 166" fill="none" xmlns="http://www.w3.org/2000/svg">
<g clip-path="url(#clip0)">
<path d="M167.991 15.487L167.061 11.7665L174.268 8.04883L167.991 15.487Z" stroke="#2ACAF7" stroke-width="0.5" stroke-linecap="round" stroke-linejoin="round"/>
<path d="M194.492 4.7959L200.072 0.144531L207.977 6.65473L194.492 4.7959Z" stroke="#2ACAF7" stroke-width="0.5" stroke-linecap="round" stroke-linejoin="round"/>
<path d="M200.072 0.144531H204.721L207.977 6.65473L200.072 0.144531Z" stroke="#2ACAF7" stroke-width="0.5" stroke-linecap="round" stroke-linejoin="round"/>
<path d="M207.979 6.65473V0.144531L216.348 7.11871L207.979 6.65473Z" stroke="#2ACAF7" stroke-width="0.5" stroke-linecap="round" stroke-linejoin="round"/>
<path d="M236.338 16.8828H245.638L242.848 21.9982L236.338 16.8828Z" stroke="#2ACAF7" stroke-width="0.5" stroke-linecap="round" stroke-linejoin="round"/>
<path d="M242.85 21.998L251.219 25.7157L254.939 33.6207L242.85 21.998Z" stroke="#2ACAF7" stroke-width="0.5" stroke-linecap="round" stroke-linejoin="round"/>
<path d="M254.939 33.6211L264.236 35.0159L267.026 39.2004L254.939 33.6211Z" stroke="#2ACAF7" stroke-width="0.5" stroke-linecap="round" stroke-linejoin="round"/>
<path d="M272.141 40.1299L274.93 35.4785H284.23L272.141 40.1299Z" stroke="#2ACAF7" stroke-width="0.5" stroke-linecap="round" stroke-linejoin="round"/>
<path d="M274.93 35.4783H284.23L286.552 32.2246L274.93 35.4783Z" stroke="#2ACAF7" stroke-width="0.5" stroke-linecap="round" stroke-linejoin="round"/>
<path d="M284.23 35.4783L286.553 32.2246L295.389 35.4783H284.23Z" stroke="#2ACAF7" stroke-width="0.5" stroke-linecap="round" stroke-linejoin="round"/>
<path d="M307.475 39.2003L316.774 38.7363L314.916 46.6385L307.475 39.2003Z" stroke="#2ACAF7" stroke-width="0.5" stroke-linecap="round" stroke-linejoin="round"/>
<path d="M324.682 49.8945L333.515 55.9379L329.794 63.8429L324.682 49.8945Z" stroke="#2ACAF7" stroke-width="0.5" stroke-linecap="round" stroke-linejoin="round"/>
<path d="M314.916 46.6387L324.68 49.8952V67.0972L314.916 46.6387Z" stroke="#2ACAF7" stroke-width="0.5" stroke-linecap="round" stroke-linejoin="round"/>
<path d="M324.682 49.8945L329.794 63.8429L324.682 67.0965V49.8945Z" stroke="#2ACAF7" stroke-width="0.5" stroke-linecap="round" stroke-linejoin="round"/>
<path d="M324.682 67.0974L329.794 63.8438L325.146 74.0716L324.682 67.0974Z" stroke="#2ACAF7" stroke-width="0.5" stroke-linecap="round" stroke-linejoin="round"/>
<path d="M322.354 86.1608L330.259 83.3711L334.443 91.2761L322.354 86.1608Z" stroke="#2ACAF7" stroke-width="0.5" stroke-linecap="round" stroke-linejoin="round"/>
<path d="M330.26 83.3711L336.303 87.0916L334.444 91.2761L330.26 83.3711Z" stroke="#2ACAF7" stroke-width="0.5" stroke-linecap="round" stroke-linejoin="round"/>
<path d="M341.418 103.365L345.602 103.829L344.208 108.478L341.418 103.365Z" stroke="#2ACAF7" stroke-width="0.5" stroke-linecap="round" stroke-linejoin="round"/>
<path d="M346.529 131.258L348.855 125.215L341.881 133.12L346.529 131.258Z" stroke="#2ACAF7" stroke-width="0.5" stroke-linecap="round" stroke-linejoin="round"/>
<path d="M333.977 140.095L341.882 133.121L331.188 139.628L333.977 140.095Z" stroke="#2ACAF7" stroke-width="0.5" stroke-linecap="round" stroke-linejoin="round"/>
<path d="M328.398 145.211L331.188 139.629L321.424 146.606L328.398 145.211Z" stroke="#2ACAF7" stroke-width="0.5" stroke-linecap="round" stroke-linejoin="round"/>
<path d="M320.029 157.763V150.789L308.406 155.902L320.029 157.763Z" stroke="#2ACAF7" stroke-width="0.5" stroke-linecap="round" stroke-linejoin="round"/>
<path d="M304.223 158.692L308.408 155.902L297.713 153.576L304.223 158.692Z" stroke="#2ACAF7" stroke-width="0.5" stroke-linecap="round" stroke-linejoin="round"/>
<path d="M294.923 154.974L297.713 153.576L289.811 155.438L294.923 154.974Z" stroke="#2ACAF7" stroke-width="0.5" stroke-linecap="round" stroke-linejoin="round"/>
<path d="M280.045 164.739L284.229 161.949L274.93 163.344L280.045 164.739Z" stroke="#2ACAF7" stroke-width="0.5" stroke-linecap="round" stroke-linejoin="round"/>
<path d="M284.23 161.948L286.088 158.691L274.93 163.343L284.23 161.948Z" stroke="#2ACAF7" stroke-width="0.5" stroke-linecap="round" stroke-linejoin="round"/>
<path d="M272.139 165.203L274.929 163.344L265.629 162.877L272.139 165.203Z" stroke="#2ACAF7" stroke-width="0.5" stroke-linecap="round" stroke-linejoin="round"/>
<path d="M261.446 163.806L265.63 162.876L260.051 160.553L261.446 163.806Z" stroke="#2ACAF7" stroke-width="0.5" stroke-linecap="round" stroke-linejoin="round"/>
<path d="M247.963 150.79L253.078 153.577L244.709 146.139L247.963 150.79Z" stroke="#2ACAF7" stroke-width="0.5" stroke-linecap="round" stroke-linejoin="round"/>
<path d="M227.971 137.305L232.619 139.164L226.576 132.656L227.971 137.305Z" stroke="#2ACAF7" stroke-width="0.5" stroke-linecap="round" stroke-linejoin="round"/>
<path d="M209.372 133.584L214.484 132.656L206.115 130.33L209.372 133.584Z" stroke="#2ACAF7" stroke-width="0.5" stroke-linecap="round" stroke-linejoin="round"/>
<path d="M206.116 130.33L209.372 133.584L198.678 130.33H206.116Z" stroke="#2ACAF7" stroke-width="0.5" stroke-linecap="round" stroke-linejoin="round"/>
<path d="M198.677 130.331H206.115L196.352 124.752L198.677 130.331Z" stroke="#2ACAF7" stroke-width="0.5" stroke-linecap="round" stroke-linejoin="round"/>
<path d="M192.168 120.566L196.352 124.751L193.563 115.918L192.168 120.566Z" stroke="#2ACAF7" stroke-width="0.5" stroke-linecap="round" stroke-linejoin="round"/>
<path d="M192.168 120.568L193.563 115.92L187.52 113.127L192.168 120.568Z" stroke="#2ACAF7" stroke-width="0.5" stroke-linecap="round" stroke-linejoin="round"/>
<path d="M167.061 125.679L173.571 123.357L160.551 122.426L167.061 125.679Z" stroke="#2ACAF7" stroke-width="0.5" stroke-linecap="round" stroke-linejoin="round"/>
<path d="M173.571 123.357L176.361 120.104L160.551 122.426L173.571 123.357Z" stroke="#2ACAF7" stroke-width="0.5" stroke-linecap="round" stroke-linejoin="round"/>
<path d="M152.648 125.68L160.55 122.426L147.068 121.031L152.648 125.68Z" stroke="#2ACAF7" stroke-width="0.5" stroke-linecap="round" stroke-linejoin="round"/>
<path d="M134.98 121.031L140.559 120.103L134.516 117.311L134.98 121.031Z" stroke="#2ACAF7" stroke-width="0.5" stroke-linecap="round" stroke-linejoin="round"/>
<path d="M102.898 121.962L106.152 118.705L99.6445 120.103L102.898 121.962Z" stroke="#2ACAF7" stroke-width="0.5" stroke-linecap="round" stroke-linejoin="round"/>
<path d="M99.6448 120.103L106.152 118.706L98.25 116.383L99.6448 120.103Z" stroke="#2ACAF7" stroke-width="0.5" stroke-linecap="round" stroke-linejoin="round"/>
<path d="M91.7387 117.778L95.4592 114.988L85.2285 118.242L91.7387 117.778Z" stroke="#2ACAF7" stroke-width="0.5" stroke-linecap="round" stroke-linejoin="round"/>
<path d="M81.9752 118.705L85.2289 118.241L79.1855 116.846L81.9752 118.705Z" stroke="#2ACAF7" stroke-width="0.5" stroke-linecap="round" stroke-linejoin="round"/>
<path d="M11.3031 137.769L13.1619 132.656L5.25977 137.769H11.3031Z" stroke="#2ACAF7" stroke-width="0.5" stroke-linecap="round" stroke-linejoin="round"/>
<path d="M5.26044 137.77L13.1626 132.657L2.00391 131.26L5.26044 137.77Z" stroke="#2ACAF7" stroke-width="0.5" stroke-linecap="round" stroke-linejoin="round"/>
<path d="M2.00219 131.259L13.1609 132.656L1.07422 127.074L2.00219 131.259Z" stroke="#2ACAF7" stroke-width="0.5" stroke-linecap="round" stroke-linejoin="round"/>
<path d="M13.1609 132.656L19.2071 127.541L1.07422 127.074L13.1609 132.656Z" stroke="#2ACAF7" stroke-width="0.5" stroke-linecap="round" stroke-linejoin="round"/>
<path d="M4.33008 86.16L4.79406 93.5981L10.3734 82.4395L4.33008 86.16Z" stroke="#2ACAF7" stroke-width="0.5" stroke-linecap="round" stroke-linejoin="round"/>
<path d="M21.5312 55.0094L22.4621 61.0527L28.0414 47.5684L21.5312 55.0094Z" stroke="#2ACAF7" stroke-width="0.5" stroke-linecap="round" stroke-linejoin="round"/>
<path d="M59.6582 29.8991L78.7191 22.4609L76.8602 28.9711L59.6582 29.8991Z" stroke="#2ACAF7" stroke-width="0.5" stroke-linecap="round" stroke-linejoin="round"/>
<path d="M97.3203 48.5L103.83 51.2897L101.041 57.7999L97.3203 48.5Z" stroke="#2ACAF7" stroke-width="0.5" stroke-linecap="round" stroke-linejoin="round"/>
<path d="M101.039 57.7993L103.829 51.2891L104.293 54.5427L101.039 57.7993Z" stroke="#2ACAF7" stroke-width="0.5" stroke-linecap="round" stroke-linejoin="round"/>
<path d="M101.039 57.7995L108.013 63.8429L104.293 54.543L101.039 57.7995Z" stroke="#2ACAF7" stroke-width="0.5" stroke-linecap="round" stroke-linejoin="round"/>
<path d="M116.848 73.14L121.188 71.748L124.286 76.8605L116.848 73.14Z" stroke="#2ACAF7" stroke-width="0.5" stroke-linecap="round" stroke-linejoin="round"/>
<path d="M163.807 28.0418L167.991 15.4883L162.412 20.1397L163.807 28.0418Z" stroke="#2ACAF7" stroke-width="0.5" stroke-linecap="round" stroke-linejoin="round"/>
<path d="M163.807 14.0918L167.991 15.4866L162.412 20.138L163.807 14.0918Z" stroke="#2ACAF7" stroke-width="0.5" stroke-linecap="round" stroke-linejoin="round"/>
<path d="M134.049 78.7222L139.164 76.3965L150.787 79.1862L134.049 78.7222Z" stroke="#2ACAF7" stroke-width="0.5" stroke-linecap="round" stroke-linejoin="round"/>
<path d="M139.164 76.3965L148.464 71.748L150.787 79.1862L139.164 76.3965Z" stroke="#2ACAF7" stroke-width="0.5" stroke-linecap="round" stroke-linejoin="round"/>
<path d="M148.463 71.7493L157.296 66.1699L150.786 79.1874L148.463 71.7493Z" stroke="#2ACAF7" stroke-width="0.5" stroke-linecap="round" stroke-linejoin="round"/>
<path d="M163.807 28.0405L164.735 36.8735L187.519 25.7148L163.807 28.0405Z" stroke="#2ACAF7" stroke-width="0.5" stroke-linecap="round" stroke-linejoin="round"/>
<path d="M163.807 28.0418L167.991 15.4883L187.519 25.7161L163.807 28.0418Z" stroke="#2ACAF7" stroke-width="0.5" stroke-linecap="round" stroke-linejoin="round"/>
<path d="M167.992 15.487L174.269 8.04883L187.52 25.7148L167.992 15.487Z" stroke="#2ACAF7" stroke-width="0.5" stroke-linecap="round" stroke-linejoin="round"/>
<path d="M174.27 8.04883H181.477L187.52 25.7148L174.27 8.04883Z" stroke="#2ACAF7" stroke-width="0.5" stroke-linecap="round" stroke-linejoin="round"/>
<path d="M181.475 8.04827L188.449 6.18945L187.518 25.7143L181.475 8.04827Z" stroke="#2ACAF7" stroke-width="0.5" stroke-linecap="round" stroke-linejoin="round"/>
<path d="M188.45 6.19171L194.494 4.79688L187.52 25.7165L188.45 6.19171Z" stroke="#2ACAF7" stroke-width="0.5" stroke-linecap="round" stroke-linejoin="round"/>
<path d="M194.494 4.79688L207.978 6.6557L187.52 25.7165L194.494 4.79688Z" stroke="#2ACAF7" stroke-width="0.5" stroke-linecap="round" stroke-linejoin="round"/>
<path d="M187.52 25.7151L207.978 6.6543L213.091 23.3923L187.52 25.7151Z" stroke="#2ACAF7" stroke-width="0.5" stroke-linecap="round" stroke-linejoin="round"/>
<path d="M207.979 6.6543L216.348 7.11828L213.091 23.3923L207.979 6.6543Z" stroke="#2ACAF7" stroke-width="0.5" stroke-linecap="round" stroke-linejoin="round"/>
<path d="M216.346 7.11914L222.39 8.04999L213.09 23.3932L216.346 7.11914Z" stroke="#2ACAF7" stroke-width="0.5" stroke-linecap="round" stroke-linejoin="round"/>
<path d="M222.39 8.04883L227.969 11.7665L213.09 23.392L222.39 8.04883Z" stroke="#2ACAF7" stroke-width="0.5" stroke-linecap="round" stroke-linejoin="round"/>
<path d="M227.969 11.7676L236.338 16.8829L213.09 23.3931L227.969 11.7676Z" stroke="#2ACAF7" stroke-width="0.5" stroke-linecap="round" stroke-linejoin="round"/>
<path d="M213.09 23.393L236.338 16.8828L239.128 48.5L213.09 23.393Z" stroke="#2ACAF7" stroke-width="0.5" stroke-linecap="round" stroke-linejoin="round"/>
<path d="M236.338 16.8828L242.848 21.9982L239.128 48.5L236.338 16.8828Z" stroke="#2ACAF7" stroke-width="0.5" stroke-linecap="round" stroke-linejoin="round"/>
<path d="M242.849 21.998L254.939 33.6207L239.129 48.4999L242.849 21.998Z" stroke="#2ACAF7" stroke-width="0.5" stroke-linecap="round" stroke-linejoin="round"/>
<path d="M239.129 48.5003L254.939 33.6211L263.305 55.0105L239.129 48.5003Z" stroke="#2ACAF7" stroke-width="0.5" stroke-linecap="round" stroke-linejoin="round"/>
<path d="M254.939 33.6211L267.026 39.2004L263.306 55.0105L254.939 33.6211Z" stroke="#2ACAF7" stroke-width="0.5" stroke-linecap="round" stroke-linejoin="round"/>
<path d="M267.025 39.2012L272.141 40.132L263.305 55.0112L267.025 39.2012Z" stroke="#2ACAF7" stroke-width="0.5" stroke-linecap="round" stroke-linejoin="round"/>
<path d="M263.305 55.0101L272.141 40.1309L295.389 50.3587L263.305 55.0101Z" stroke="#2ACAF7" stroke-width="0.5" stroke-linecap="round" stroke-linejoin="round"/>
<path d="M272.141 40.1299L284.23 35.4785L295.389 50.3577L272.141 40.1299Z" stroke="#2ACAF7" stroke-width="0.5" stroke-linecap="round" stroke-linejoin="round"/>
<path d="M284.23 35.4785H295.389V50.3577L284.23 35.4785Z" stroke="#2ACAF7" stroke-width="0.5" stroke-linecap="round" stroke-linejoin="round"/>
<path d="M295.389 35.4785L307.475 39.199L295.389 50.3577V35.4785Z" stroke="#2ACAF7" stroke-width="0.5" stroke-linecap="round" stroke-linejoin="round"/>
<path d="M307.475 39.2012L314.916 46.6393L295.389 50.3599L307.475 39.2012Z" stroke="#2ACAF7" stroke-width="0.5" stroke-linecap="round" stroke-linejoin="round"/>
<path d="M263.305 55.0107L295.389 50.3594L294.458 73.6076L263.305 55.0107Z" stroke="#2ACAF7" stroke-width="0.5" stroke-linecap="round" stroke-linejoin="round"/>
<path d="M295.388 50.3592L314.916 46.6387L294.457 73.6074L295.388 50.3592Z" stroke="#2ACAF7" stroke-width="0.5" stroke-linecap="round" stroke-linejoin="round"/>
<path d="M314.916 46.6387L324.679 67.0972L294.457 73.6074L314.916 46.6387Z" stroke="#2ACAF7" stroke-width="0.5" stroke-linecap="round" stroke-linejoin="round"/>
<path d="M323.749 81.5125L325.143 74.0714L294.457 73.6074L323.749 81.5125Z" stroke="#2ACAF7" stroke-width="0.5" stroke-linecap="round" stroke-linejoin="round"/>
<path d="M324.679 67.0957L325.143 74.0699L294.457 73.6059L324.679 67.0957Z" stroke="#2ACAF7" stroke-width="0.5" stroke-linecap="round" stroke-linejoin="round"/>
<path d="M294.457 73.6074L323.749 81.5125L310.264 94.066L294.457 73.6074Z" stroke="#2ACAF7" stroke-width="0.5" stroke-linecap="round" stroke-linejoin="round"/>
<path d="M322.355 86.1602L323.75 81.5117L310.266 94.0652L322.355 86.1602Z" stroke="#2ACAF7" stroke-width="0.5" stroke-linecap="round" stroke-linejoin="round"/>
<path d="M322.355 86.1602L334.445 91.2755L310.266 94.0652L322.355 86.1602Z" stroke="#2ACAF7" stroke-width="0.5" stroke-linecap="round" stroke-linejoin="round"/>
<path d="M334.445 91.2754L337.698 96.3879L310.266 94.0651L334.445 91.2754Z" stroke="#2ACAF7" stroke-width="0.5" stroke-linecap="round" stroke-linejoin="round"/>
<path d="M310.266 94.0645L337.698 96.3873L325.145 117.31L310.266 94.0645Z" stroke="#2ACAF7" stroke-width="0.5" stroke-linecap="round" stroke-linejoin="round"/>
<path d="M331.188 139.628L341.883 133.121L325.145 117.311L331.188 139.628Z" stroke="#2ACAF7" stroke-width="0.5" stroke-linecap="round" stroke-linejoin="round"/>
<path d="M337.698 96.3887L341.419 103.366L325.145 117.311L337.698 96.3887Z" stroke="#2ACAF7" stroke-width="0.5" stroke-linecap="round" stroke-linejoin="round"/>
<path d="M341.419 103.365L344.208 108.478L325.145 117.311L341.419 103.365Z" stroke="#2ACAF7" stroke-width="0.5" stroke-linecap="round" stroke-linejoin="round"/>
<path d="M341.883 133.121L348.857 125.216L325.145 117.311L341.883 133.121Z" stroke="#2ACAF7" stroke-width="0.5" stroke-linecap="round" stroke-linejoin="round"/>
<path d="M344.208 108.479L347.926 113.594L325.145 117.312L344.208 108.479Z" stroke="#2ACAF7" stroke-width="0.5" stroke-linecap="round" stroke-linejoin="round"/>
<path d="M347.926 113.594L348.857 125.216L325.145 117.311L347.926 113.594Z" stroke="#2ACAF7" stroke-width="0.5" stroke-linecap="round" stroke-linejoin="round"/>
<path d="M297.713 153.577L308.408 155.903L309.802 135.447L297.713 153.577Z" stroke="#2ACAF7" stroke-width="0.5" stroke-linecap="round" stroke-linejoin="round"/>
<path d="M308.406 155.903L320.029 150.79L309.801 135.447L308.406 155.903Z" stroke="#2ACAF7" stroke-width="0.5" stroke-linecap="round" stroke-linejoin="round"/>
<path d="M320.029 150.79L321.423 146.606L309.801 135.447L320.029 150.79Z" stroke="#2ACAF7" stroke-width="0.5" stroke-linecap="round" stroke-linejoin="round"/>
<path d="M321.423 146.606L331.187 139.629L309.801 135.447L321.423 146.606Z" stroke="#2ACAF7" stroke-width="0.5" stroke-linecap="round" stroke-linejoin="round"/>
<path d="M325.144 117.311L331.187 139.628L309.801 135.446L325.144 117.311Z" stroke="#2ACAF7" stroke-width="0.5" stroke-linecap="round" stroke-linejoin="round"/>
<path d="M289.81 155.439L297.712 153.577L282.836 135.447L289.81 155.439Z" stroke="#2ACAF7" stroke-width="0.5" stroke-linecap="round" stroke-linejoin="round"/>
<path d="M297.712 153.577L309.802 135.447H282.836L297.712 153.577Z" stroke="#2ACAF7" stroke-width="0.5" stroke-linecap="round" stroke-linejoin="round"/>
<path d="M253.076 153.577L254.24 158.692L270.281 149.859L253.076 153.577Z" stroke="#2ACAF7" stroke-width="0.5" stroke-linecap="round" stroke-linejoin="round"/>
<path d="M254.242 158.692L260.052 160.554L270.283 149.859L254.242 158.692Z" stroke="#2ACAF7" stroke-width="0.5" stroke-linecap="round" stroke-linejoin="round"/>
<path d="M260.051 160.554L265.63 162.877L270.281 149.859L260.051 160.554Z" stroke="#2ACAF7" stroke-width="0.5" stroke-linecap="round" stroke-linejoin="round"/>
<path d="M265.629 162.877L274.929 163.344L270.28 149.859L265.629 162.877Z" stroke="#2ACAF7" stroke-width="0.5" stroke-linecap="round" stroke-linejoin="round"/>
<path d="M274.93 163.344L286.088 158.692L270.281 149.859L274.93 163.344Z" stroke="#2ACAF7" stroke-width="0.5" stroke-linecap="round" stroke-linejoin="round"/>
<path d="M282.835 135.447L289.809 155.439L270.281 149.86L282.835 135.447Z" stroke="#2ACAF7" stroke-width="0.5" stroke-linecap="round" stroke-linejoin="round"/>
<path d="M286.088 158.692L289.809 155.439L270.281 149.859L286.088 158.692Z" stroke="#2ACAF7" stroke-width="0.5" stroke-linecap="round" stroke-linejoin="round"/>
<path d="M226.576 132.656L232.619 139.164L247.963 127.541L226.576 132.656Z" stroke="#2ACAF7" stroke-width="0.5" stroke-linecap="round" stroke-linejoin="round"/>
<path d="M232.617 139.164L235.874 142.42L247.96 127.541L232.617 139.164Z" stroke="#2ACAF7" stroke-width="0.5" stroke-linecap="round" stroke-linejoin="round"/>
<path d="M235.875 142.42L244.708 146.138L247.962 127.541L235.875 142.42Z" stroke="#2ACAF7" stroke-width="0.5" stroke-linecap="round" stroke-linejoin="round"/>
<path d="M244.709 146.138L253.078 153.576L247.963 127.541L244.709 146.138Z" stroke="#2ACAF7" stroke-width="0.5" stroke-linecap="round" stroke-linejoin="round"/>
<path d="M253.076 153.576L270.281 149.858L247.961 127.541L253.076 153.576Z" stroke="#2ACAF7" stroke-width="0.5" stroke-linecap="round" stroke-linejoin="round"/>
<path d="M214.484 132.657L220.531 132.19L227.969 120.104L214.484 132.657Z" stroke="#2ACAF7" stroke-width="0.5" stroke-linecap="round" stroke-linejoin="round"/>
<path d="M220.531 132.19L226.575 132.657L227.969 120.104L220.531 132.19Z" stroke="#2ACAF7" stroke-width="0.5" stroke-linecap="round" stroke-linejoin="round"/>
<path d="M226.576 132.657L247.963 127.542L227.971 120.104L226.576 132.657Z" stroke="#2ACAF7" stroke-width="0.5" stroke-linecap="round" stroke-linejoin="round"/>
<path d="M206.115 130.332L214.484 132.658L216.346 108.479L206.115 130.332Z" stroke="#2ACAF7" stroke-width="0.5" stroke-linecap="round" stroke-linejoin="round"/>
<path d="M214.484 132.658L227.969 120.104L216.346 108.479L214.484 132.658Z" stroke="#2ACAF7" stroke-width="0.5" stroke-linecap="round" stroke-linejoin="round"/>
<path d="M187.52 113.127L193.563 115.919L200.073 109.873L187.52 113.127Z" stroke="#2ACAF7" stroke-width="0.5" stroke-linecap="round" stroke-linejoin="round"/>
<path d="M193.562 115.919L196.352 124.752L200.073 109.873L193.562 115.919Z" stroke="#2ACAF7" stroke-width="0.5" stroke-linecap="round" stroke-linejoin="round"/>
<path d="M196.352 124.752L206.115 130.332L200.072 109.873L196.352 124.752Z" stroke="#2ACAF7" stroke-width="0.5" stroke-linecap="round" stroke-linejoin="round"/>
<path d="M206.116 130.332L216.346 108.479L200.072 109.873L206.116 130.332Z" stroke="#2ACAF7" stroke-width="0.5" stroke-linecap="round" stroke-linejoin="round"/>
<path d="M157.297 66.1689L162.876 61.9844L187.519 89.4142L157.297 66.1689Z" stroke="#2ACAF7" stroke-width="0.5" stroke-linecap="round" stroke-linejoin="round"/>
<path d="M181.01 116.847L187.52 113.126V89.4141L181.01 116.847Z" stroke="#2ACAF7" stroke-width="0.5" stroke-linecap="round" stroke-linejoin="round"/>
<path d="M187.52 113.126L200.073 109.873L187.52 89.4141V113.126Z" stroke="#2ACAF7" stroke-width="0.5" stroke-linecap="round" stroke-linejoin="round"/>
<path d="M150.787 79.1874L157.297 66.1699L159.156 96.3894L150.787 79.1874Z" stroke="#2ACAF7" stroke-width="0.5" stroke-linecap="round" stroke-linejoin="round"/>
<path d="M157.297 66.1699L187.519 89.4153L159.156 96.3894L157.297 66.1699Z" stroke="#2ACAF7" stroke-width="0.5" stroke-linecap="round" stroke-linejoin="round"/>
<path d="M160.551 122.427L176.361 120.104L159.156 96.3887L160.551 122.427Z" stroke="#2ACAF7" stroke-width="0.5" stroke-linecap="round" stroke-linejoin="round"/>
<path d="M176.361 120.104L181.01 116.847L159.156 96.3887L176.361 120.104Z" stroke="#2ACAF7" stroke-width="0.5" stroke-linecap="round" stroke-linejoin="round"/>
<path d="M181.01 116.847L187.52 89.4141L159.156 96.3882L181.01 116.847Z" stroke="#2ACAF7" stroke-width="0.5" stroke-linecap="round" stroke-linejoin="round"/>
<path d="M134.516 117.311L140.559 120.103L149.859 107.547L134.516 117.311Z" stroke="#2ACAF7" stroke-width="0.5" stroke-linecap="round" stroke-linejoin="round"/>
<path d="M140.559 120.103L147.069 121.031L149.858 107.547L140.559 120.103Z" stroke="#2ACAF7" stroke-width="0.5" stroke-linecap="round" stroke-linejoin="round"/>
<path d="M147.068 121.031L160.55 122.426L149.858 107.547L147.068 121.031Z" stroke="#2ACAF7" stroke-width="0.5" stroke-linecap="round" stroke-linejoin="round"/>
<path d="M150.787 79.1855L159.156 96.3876L149.859 107.546L150.787 79.1855Z" stroke="#2ACAF7" stroke-width="0.5" stroke-linecap="round" stroke-linejoin="round"/>
<path d="M159.156 96.3887L160.551 122.427L149.859 107.547L159.156 96.3887Z" stroke="#2ACAF7" stroke-width="0.5" stroke-linecap="round" stroke-linejoin="round"/>
<path d="M117.777 117.777L123.357 120.103L129.4 99.6445L117.777 117.777Z" stroke="#2ACAF7" stroke-width="0.5" stroke-linecap="round" stroke-linejoin="round"/>
<path d="M123.357 120.103L134.516 117.311L129.401 99.6445L123.357 120.103Z" stroke="#2ACAF7" stroke-width="0.5" stroke-linecap="round" stroke-linejoin="round"/>
<path d="M124.285 76.8613L134.049 78.723L129.4 99.6456L124.285 76.8613Z" stroke="#2ACAF7" stroke-width="0.5" stroke-linecap="round" stroke-linejoin="round"/>
<path d="M134.049 78.7227L150.787 79.1866L129.4 99.6452L134.049 78.7227Z" stroke="#2ACAF7" stroke-width="0.5" stroke-linecap="round" stroke-linejoin="round"/>
<path d="M134.516 117.311L149.859 107.547L129.4 99.6445L134.516 117.311Z" stroke="#2ACAF7" stroke-width="0.5" stroke-linecap="round" stroke-linejoin="round"/>
<path d="M149.859 107.546L150.787 79.1855L129.4 99.6441L149.859 107.546Z" stroke="#2ACAF7" stroke-width="0.5" stroke-linecap="round" stroke-linejoin="round"/>
<path d="M95.4609 114.987L98.2506 116.382L109.409 100.572L95.4609 114.987Z" stroke="#2ACAF7" stroke-width="0.5" stroke-linecap="round" stroke-linejoin="round"/>
<path d="M98.25 116.382L106.152 118.705L109.409 100.572L98.25 116.382Z" stroke="#2ACAF7" stroke-width="0.5" stroke-linecap="round" stroke-linejoin="round"/>
<path d="M106.152 118.705L117.778 117.777L109.409 100.572L106.152 118.705Z" stroke="#2ACAF7" stroke-width="0.5" stroke-linecap="round" stroke-linejoin="round"/>
<path d="M111.267 69.4219L116.846 73.1395L109.408 100.572L111.267 69.4219Z" stroke="#2ACAF7" stroke-width="0.5" stroke-linecap="round" stroke-linejoin="round"/>
<path d="M116.846 73.1406L124.285 76.8612L109.408 100.573L116.846 73.1406Z" stroke="#2ACAF7" stroke-width="0.5" stroke-linecap="round" stroke-linejoin="round"/>
<path d="M117.777 117.777L129.4 99.6445L109.408 100.573L117.777 117.777Z" stroke="#2ACAF7" stroke-width="0.5" stroke-linecap="round" stroke-linejoin="round"/>
<path d="M124.285 76.8613L129.4 99.6456L109.408 100.574L124.285 76.8613Z" stroke="#2ACAF7" stroke-width="0.5" stroke-linecap="round" stroke-linejoin="round"/>
<path d="M71.748 114.988L79.1862 116.847L81.509 98.25L71.748 114.988Z" stroke="#2ACAF7" stroke-width="0.5" stroke-linecap="round" stroke-linejoin="round"/>
<path d="M79.1855 116.847L85.2289 118.242L81.5084 98.25L79.1855 116.847Z" stroke="#2ACAF7" stroke-width="0.5" stroke-linecap="round" stroke-linejoin="round"/>
<path d="M85.2303 118.242L95.461 114.988L81.5098 98.25L85.2303 118.242Z" stroke="#2ACAF7" stroke-width="0.5" stroke-linecap="round" stroke-linejoin="round"/>
<path d="M95.461 114.988L109.409 100.573L81.5098 98.25L95.461 114.988Z" stroke="#2ACAF7" stroke-width="0.5" stroke-linecap="round" stroke-linejoin="round"/>
<path d="M109.409 100.572L111.268 69.4219L81.5098 98.2495L109.409 100.572Z" stroke="#2ACAF7" stroke-width="0.5" stroke-linecap="round" stroke-linejoin="round"/>
<path d="M52.2188 114.057H59.6598L61.0546 94.5293L52.2188 114.057Z" stroke="#2ACAF7" stroke-width="0.5" stroke-linecap="round" stroke-linejoin="round"/>
<path d="M59.6582 114.057L67.0964 115.919L61.053 94.5293L59.6582 114.057Z" stroke="#2ACAF7" stroke-width="0.5" stroke-linecap="round" stroke-linejoin="round"/>
<path d="M67.0961 115.919L71.7474 114.988L61.0527 94.5293L67.0961 115.919Z" stroke="#2ACAF7" stroke-width="0.5" stroke-linecap="round" stroke-linejoin="round"/>
<path d="M71.7474 114.988L81.5084 98.2498L61.0527 94.5293L71.7474 114.988Z" stroke="#2ACAF7" stroke-width="0.5" stroke-linecap="round" stroke-linejoin="round"/>
<path d="M42.9207 118.241L49.428 114.987L35.0156 94.0645L42.9207 118.241Z" stroke="#2ACAF7" stroke-width="0.5" stroke-linecap="round" stroke-linejoin="round"/>
<path d="M49.428 114.987L52.2176 114.056L35.0156 94.0645L49.428 114.987Z" stroke="#2ACAF7" stroke-width="0.5" stroke-linecap="round" stroke-linejoin="round"/>
<path d="M52.2176 114.056L61.0535 94.5284L35.0156 94.0645L52.2176 114.056Z" stroke="#2ACAF7" stroke-width="0.5" stroke-linecap="round" stroke-linejoin="round"/>
<path d="M24.7886 123.821L30.3679 121.962L22.4629 106.152L24.7886 123.821Z" stroke="#2ACAF7" stroke-width="0.5" stroke-linecap="round" stroke-linejoin="round"/>
<path d="M30.3679 121.962H35.0164L22.4629 106.152L30.3679 121.962Z" stroke="#2ACAF7" stroke-width="0.5" stroke-linecap="round" stroke-linejoin="round"/>
<path d="M35.0164 94.0645L42.9214 118.241L22.4629 106.151L35.0164 94.0645Z" stroke="#2ACAF7" stroke-width="0.5" stroke-linecap="round" stroke-linejoin="round"/>
<path d="M35.0164 121.962L42.9214 118.242L22.4629 106.152L35.0164 121.962Z" stroke="#2ACAF7" stroke-width="0.5" stroke-linecap="round" stroke-linejoin="round"/>
<path d="M0.144531 119.171L1.07538 127.074L9.90838 112.197L0.144531 119.171Z" stroke="#2ACAF7" stroke-width="0.5" stroke-linecap="round" stroke-linejoin="round"/>
<path d="M0.144531 119.171L2.47022 113.125L9.90838 112.197L0.144531 119.171Z" stroke="#2ACAF7" stroke-width="0.5" stroke-linecap="round" stroke-linejoin="round"/>
<path d="M1.07422 127.074L19.2071 127.54L9.90722 112.197L1.07422 127.074Z" stroke="#2ACAF7" stroke-width="0.5" stroke-linecap="round" stroke-linejoin="round"/>
<path d="M2.4707 107.547V113.126L9.90887 112.198L2.4707 107.547Z" stroke="#2ACAF7" stroke-width="0.5" stroke-linecap="round" stroke-linejoin="round"/>
<path d="M2.4707 107.548L3.86554 100.109L9.90887 112.199L2.4707 107.548Z" stroke="#2ACAF7" stroke-width="0.5" stroke-linecap="round" stroke-linejoin="round"/>
<path d="M3.86523 100.109L22.4621 106.153L9.90856 112.199L3.86523 100.109Z" stroke="#2ACAF7" stroke-width="0.5" stroke-linecap="round" stroke-linejoin="round"/>
<path d="M19.2081 127.54L24.7874 123.82L9.9082 112.197L19.2081 127.54Z" stroke="#2ACAF7" stroke-width="0.5" stroke-linecap="round" stroke-linejoin="round"/>
<path d="M22.4617 106.152L24.7874 123.821L9.9082 112.199L22.4617 106.152Z" stroke="#2ACAF7" stroke-width="0.5" stroke-linecap="round" stroke-linejoin="round"/>
<path d="M3.86523 100.108L4.7932 93.5974L21.9981 90.3438L3.86523 100.108Z" stroke="#2ACAF7" stroke-width="0.5" stroke-linecap="round" stroke-linejoin="round"/>
<path d="M3.86523 100.108L22.4621 106.151L21.9981 90.3438L3.86523 100.108Z" stroke="#2ACAF7" stroke-width="0.5" stroke-linecap="round" stroke-linejoin="round"/>
<path d="M4.79297 93.5981L10.3723 82.4395L21.9979 90.3445L4.79297 93.5981Z" stroke="#2ACAF7" stroke-width="0.5" stroke-linecap="round" stroke-linejoin="round"/>
<path d="M10.373 82.4406L18.2781 77.3281L21.9986 90.3456L10.373 82.4406Z" stroke="#2ACAF7" stroke-width="0.5" stroke-linecap="round" stroke-linejoin="round"/>
<path d="M22.462 106.151L35.0156 94.0643L21.998 90.3438L22.462 106.151Z" stroke="#2ACAF7" stroke-width="0.5" stroke-linecap="round" stroke-linejoin="round"/>
<path d="M35.0156 94.0654L61.0535 94.5294L42.4538 76.3965L35.0156 94.0654Z" stroke="#2ACAF7" stroke-width="0.5" stroke-linecap="round" stroke-linejoin="round"/>
<path d="M18.2773 77.3275L21.531 71.2812L42.4535 76.3966L18.2773 77.3275Z" stroke="#2ACAF7" stroke-width="0.5" stroke-linecap="round" stroke-linejoin="round"/>
<path d="M18.2773 77.3273L21.9979 90.3448L42.4535 76.3965L18.2773 77.3273Z" stroke="#2ACAF7" stroke-width="0.5" stroke-linecap="round" stroke-linejoin="round"/>
<path d="M21.5312 71.2806L22.4621 61.0527L42.4538 76.3959L21.5312 71.2806Z" stroke="#2ACAF7" stroke-width="0.5" stroke-linecap="round" stroke-linejoin="round"/>
<path d="M21.998 90.3449L35.0156 94.0654L42.4537 76.3965L21.998 90.3449Z" stroke="#2ACAF7" stroke-width="0.5" stroke-linecap="round" stroke-linejoin="round"/>
<path d="M28.041 47.568L35.0152 35.9453L41.9894 56.4039L28.041 47.568Z" stroke="#2ACAF7" stroke-width="0.5" stroke-linecap="round" stroke-linejoin="round"/>
<path d="M35.0156 35.9467L44.7795 34.0879L41.9898 56.4053L35.0156 35.9467Z" stroke="#2ACAF7" stroke-width="0.5" stroke-linecap="round" stroke-linejoin="round"/>
<path d="M44.7799 34.0879H49.4284L41.9902 56.4053L44.7799 34.0879Z" stroke="#2ACAF7" stroke-width="0.5" stroke-linecap="round" stroke-linejoin="round"/>
<path d="M22.4629 61.0527L28.0422 47.5684L41.9906 56.4042L22.4629 61.0527Z" stroke="#2ACAF7" stroke-width="0.5" stroke-linecap="round" stroke-linejoin="round"/>
<path d="M22.4629 61.0528L42.4546 76.396L41.9906 56.4043L22.4629 61.0528Z" stroke="#2ACAF7" stroke-width="0.5" stroke-linecap="round" stroke-linejoin="round"/>
<path d="M41.9902 56.4053L49.4284 34.0879L66.1664 39.2004L41.9902 56.4053Z" stroke="#2ACAF7" stroke-width="0.5" stroke-linecap="round" stroke-linejoin="round"/>
<path d="M49.4277 34.0878L59.6585 29.9004L66.1658 39.2003L49.4277 34.0878Z" stroke="#2ACAF7" stroke-width="0.5" stroke-linecap="round" stroke-linejoin="round"/>
<path d="M59.6582 29.9006L76.8602 28.9727L66.1655 39.2005L59.6582 29.9006Z" stroke="#2ACAF7" stroke-width="0.5" stroke-linecap="round" stroke-linejoin="round"/>
<path d="M76.8607 28.9727L82.9069 36.8748L66.166 39.2005L76.8607 28.9727Z" stroke="#2ACAF7" stroke-width="0.5" stroke-linecap="round" stroke-linejoin="round"/>
<path d="M66.166 39.2007L82.9069 36.875L82.4401 61.9849L66.166 39.2007Z" stroke="#2ACAF7" stroke-width="0.5" stroke-linecap="round" stroke-linejoin="round"/>
<path d="M81.5098 98.2501L111.268 69.4225L82.4406 61.9844L81.5098 98.2501Z" stroke="#2ACAF7" stroke-width="0.5" stroke-linecap="round" stroke-linejoin="round"/>
<path d="M82.9063 36.875L90.3445 41.5264L82.4395 61.9849L82.9063 36.875Z" stroke="#2ACAF7" stroke-width="0.5" stroke-linecap="round" stroke-linejoin="round"/>
<path d="M90.3445 41.5254L97.3187 48.4996L82.4395 61.9839L90.3445 41.5254Z" stroke="#2ACAF7" stroke-width="0.5" stroke-linecap="round" stroke-linejoin="round"/>
<path d="M97.3187 48.5L101.039 57.7999L82.4395 61.9844L97.3187 48.5Z" stroke="#2ACAF7" stroke-width="0.5" stroke-linecap="round" stroke-linejoin="round"/>
<path d="M101.039 57.8008L108.013 63.8441L82.4395 61.9853L101.039 57.8008Z" stroke="#2ACAF7" stroke-width="0.5" stroke-linecap="round" stroke-linejoin="round"/>
<path d="M108.013 63.8432L111.267 69.4225L82.4395 61.9844L108.013 63.8432Z" stroke="#2ACAF7" stroke-width="0.5" stroke-linecap="round" stroke-linejoin="round"/>
<path d="M41.9902 56.4043L42.4542 76.396L63.3768 69.8858L41.9902 56.4043Z" stroke="#2ACAF7" stroke-width="0.5" stroke-linecap="round" stroke-linejoin="round"/>
<path d="M41.9902 56.4061L66.1664 39.2012L63.3768 69.8876L41.9902 56.4061Z" stroke="#2ACAF7" stroke-width="0.5" stroke-linecap="round" stroke-linejoin="round"/>
<path d="M42.4531 76.3969L61.0529 94.5298L63.3757 69.8867L42.4531 76.3969Z" stroke="#2ACAF7" stroke-width="0.5" stroke-linecap="round" stroke-linejoin="round"/>
<path d="M61.0527 94.5298L81.5084 98.2503L63.3755 69.8867L61.0527 94.5298Z" stroke="#2ACAF7" stroke-width="0.5" stroke-linecap="round" stroke-linejoin="round"/>
<path d="M66.1666 39.2012L82.4407 61.9854L63.377 69.8876L66.1666 39.2012Z" stroke="#2ACAF7" stroke-width="0.5" stroke-linecap="round" stroke-linejoin="round"/>
<path d="M81.5098 98.2501L82.4407 61.9844L63.377 69.8865L81.5098 98.2501Z" stroke="#2ACAF7" stroke-width="0.5" stroke-linecap="round" stroke-linejoin="round"/>
<path d="M204.258 62.4484L239.129 48.5L245.172 68.4917L204.258 62.4484Z" stroke="#2ACAF7" stroke-width="0.5" stroke-linecap="round" stroke-linejoin="round"/>
<path d="M239.129 48.5L263.305 55.0102L245.172 68.4917L239.129 48.5Z" stroke="#2ACAF7" stroke-width="0.5" stroke-linecap="round" stroke-linejoin="round"/>
<path d="M252.146 88.9498L263.305 55.0098L245.172 68.4913L252.146 88.9498Z" stroke="#2ACAF7" stroke-width="0.5" stroke-linecap="round" stroke-linejoin="round"/>
<path d="M187.52 89.4143L200.073 109.873L212.163 88.4863L187.52 89.4143Z" stroke="#2ACAF7" stroke-width="0.5" stroke-linecap="round" stroke-linejoin="round"/>
<path d="M187.52 89.4131L204.258 62.4473L212.163 88.4852L187.52 89.4131Z" stroke="#2ACAF7" stroke-width="0.5" stroke-linecap="round" stroke-linejoin="round"/>
<path d="M200.072 109.873L216.346 108.478L212.162 88.4863L200.072 109.873Z" stroke="#2ACAF7" stroke-width="0.5" stroke-linecap="round" stroke-linejoin="round"/>
<path d="M204.258 62.4473L245.172 68.4906L212.163 88.4852L204.258 62.4473Z" stroke="#2ACAF7" stroke-width="0.5" stroke-linecap="round" stroke-linejoin="round"/>
<path d="M216.347 108.478L252.145 88.9503L212.162 88.4863L216.347 108.478Z" stroke="#2ACAF7" stroke-width="0.5" stroke-linecap="round" stroke-linejoin="round"/>
<path d="M245.171 68.4922L252.145 88.9507L212.162 88.4868L245.171 68.4922Z" stroke="#2ACAF7" stroke-width="0.5" stroke-linecap="round" stroke-linejoin="round"/>
<path d="M216.346 108.477L227.968 120.103L255.401 97.3184L216.346 108.477Z" stroke="#2ACAF7" stroke-width="0.5" stroke-linecap="round" stroke-linejoin="round"/>
<path d="M216.346 108.477L252.145 88.9492L255.401 97.3182L216.346 108.477Z" stroke="#2ACAF7" stroke-width="0.5" stroke-linecap="round" stroke-linejoin="round"/>
<path d="M227.971 120.103L247.962 127.541L255.403 97.3184L227.971 120.103Z" stroke="#2ACAF7" stroke-width="0.5" stroke-linecap="round" stroke-linejoin="round"/>
<path d="M252.146 88.9496L255.403 97.3187L281.441 82.4395L252.146 88.9496Z" stroke="#2ACAF7" stroke-width="0.5" stroke-linecap="round" stroke-linejoin="round"/>
<path d="M252.146 88.9498L263.305 55.0098L281.441 82.4396L252.146 88.9498Z" stroke="#2ACAF7" stroke-width="0.5" stroke-linecap="round" stroke-linejoin="round"/>
<path d="M255.402 97.3187L279.579 111.267L281.44 82.4395L255.402 97.3187Z" stroke="#2ACAF7" stroke-width="0.5" stroke-linecap="round" stroke-linejoin="round"/>
<path d="M263.305 55.0098L294.458 73.6066L281.44 82.4396L263.305 55.0098Z" stroke="#2ACAF7" stroke-width="0.5" stroke-linecap="round" stroke-linejoin="round"/>
<path d="M294.457 73.6074L310.264 94.066L281.439 82.4404L294.457 73.6074Z" stroke="#2ACAF7" stroke-width="0.5" stroke-linecap="round" stroke-linejoin="round"/>
<path d="M279.58 111.267L281.442 82.4395L293.528 108.477L279.58 111.267Z" stroke="#2ACAF7" stroke-width="0.5" stroke-linecap="round" stroke-linejoin="round"/>
<path d="M279.58 111.268L282.837 135.447L293.528 108.479L279.58 111.268Z" stroke="#2ACAF7" stroke-width="0.5" stroke-linecap="round" stroke-linejoin="round"/>
<path d="M281.439 82.4395L310.264 94.065L293.526 108.477L281.439 82.4395Z" stroke="#2ACAF7" stroke-width="0.5" stroke-linecap="round" stroke-linejoin="round"/>
<path d="M282.836 135.447H309.802L293.528 108.479L282.836 135.447Z" stroke="#2ACAF7" stroke-width="0.5" stroke-linecap="round" stroke-linejoin="round"/>
<path d="M309.801 135.447L325.145 117.312L293.527 108.479L309.801 135.447Z" stroke="#2ACAF7" stroke-width="0.5" stroke-linecap="round" stroke-linejoin="round"/>
<path d="M310.265 94.0645L325.145 117.31L293.527 108.477L310.265 94.0645Z" stroke="#2ACAF7" stroke-width="0.5" stroke-linecap="round" stroke-linejoin="round"/>
<path d="M247.961 127.541L255.402 97.3184L267.956 117.31L247.961 127.541Z" stroke="#2ACAF7" stroke-width="0.5" stroke-linecap="round" stroke-linejoin="round"/>
<path d="M247.961 127.541L270.281 149.859L267.955 117.311L247.961 127.541Z" stroke="#2ACAF7" stroke-width="0.5" stroke-linecap="round" stroke-linejoin="round"/>
<path d="M255.402 97.3184L279.579 111.267L267.956 117.31L255.402 97.3184Z" stroke="#2ACAF7" stroke-width="0.5" stroke-linecap="round" stroke-linejoin="round"/>
<path d="M270.283 149.859L282.836 135.446L267.957 117.311L270.283 149.859Z" stroke="#2ACAF7" stroke-width="0.5" stroke-linecap="round" stroke-linejoin="round"/>
<path d="M279.58 111.268L282.836 135.447L267.957 117.311L279.58 111.268Z" stroke="#2ACAF7" stroke-width="0.5" stroke-linecap="round" stroke-linejoin="round"/>
<path d="M187.52 25.7154L213.091 23.3926L208.442 43.8482L187.52 25.7154Z" stroke="#2ACAF7" stroke-width="0.5" stroke-linecap="round" stroke-linejoin="round"/>
<path d="M204.258 62.4474L239.129 48.499L208.442 43.8477L204.258 62.4474Z" stroke="#2ACAF7" stroke-width="0.5" stroke-linecap="round" stroke-linejoin="round"/>
<path d="M213.092 23.3926L239.13 48.4996L208.443 43.8482L213.092 23.3926Z" stroke="#2ACAF7" stroke-width="0.5" stroke-linecap="round" stroke-linejoin="round"/>
<path d="M162.877 61.9847L165.667 55.9385L182.871 47.1055L162.877 61.9847Z" stroke="#2ACAF7" stroke-width="0.5" stroke-linecap="round" stroke-linejoin="round"/>
<path d="M162.877 61.9847L187.52 89.4145L182.872 47.1055L162.877 61.9847Z" stroke="#2ACAF7" stroke-width="0.5" stroke-linecap="round" stroke-linejoin="round"/>
<path d="M164.736 36.875L166.131 44.78L182.872 47.1057L164.736 36.875Z" stroke="#2ACAF7" stroke-width="0.5" stroke-linecap="round" stroke-linejoin="round"/>
<path d="M164.736 36.8735L187.521 25.7148L182.872 47.1042L164.736 36.8735Z" stroke="#2ACAF7" stroke-width="0.5" stroke-linecap="round" stroke-linejoin="round"/>
<path d="M165.666 55.938L166.13 44.7793L182.871 47.105L165.666 55.938Z" stroke="#2ACAF7" stroke-width="0.5" stroke-linecap="round" stroke-linejoin="round"/>
<path d="M187.52 25.7148L208.442 43.8477L182.871 47.1042L187.52 25.7148Z" stroke="#2ACAF7" stroke-width="0.5" stroke-linecap="round" stroke-linejoin="round"/>
<path d="M187.52 89.4145L204.258 62.4487L182.871 47.1055L187.52 89.4145Z" stroke="#2ACAF7" stroke-width="0.5" stroke-linecap="round" stroke-linejoin="round"/>
<path d="M204.258 62.4474L208.442 43.8477L182.871 47.1042L204.258 62.4474Z" stroke="#2ACAF7" stroke-width="0.5" stroke-linecap="round" stroke-linejoin="round"/>
</g>
<defs>
<clipPath id="clip0">
<rect width="349" height="165.346" fill="white"/>
</clipPath>
</defs>
</svg>
