<svg width="349" height="194" viewBox="0 0 349 194" fill="none" xmlns="http://www.w3.org/2000/svg">
<g clip-path="url(#clip0)">
<path d="M10 159H4.5L1 155.5M10 159L1 155.5M10 159V153.5M1 155.5L10 153.5M1 155.5L0 149M10 153.5L0 149M10 153.5L0.5 144.5M10 153.5L14 148.5L9 142M0 149L0.5 144.5M0.5 144.5L9 142M0.5 144.5L3 135M9 142L3 135M9 142L14.5 141M3 135L14.5 141M3 135H19L14.5 141" stroke="#2ACAF7" stroke-width="0.5"/>
<path d="M184.74 33.6016L194.543 42.3548L199.272 33.9526L184.74 33.6016Z" stroke="#2ACAF7" stroke-width="0.5" stroke-linecap="round" stroke-linejoin="round"/>
<path d="M194.543 42.3553L199.272 33.9531L209.075 47.6094L194.543 42.3553Z" stroke="#2ACAF7" stroke-width="0.5" stroke-linecap="round" stroke-linejoin="round"/>
<path d="M199.271 33.9531L213.803 39.0299L209.074 47.6094L199.271 33.9531Z" stroke="#2ACAF7" stroke-width="0.5" stroke-linecap="round" stroke-linejoin="round"/>
<path d="M213.806 39.0293L216.606 41.3053L209.076 47.6088L213.806 39.0293Z" stroke="#2ACAF7" stroke-width="0.5" stroke-linecap="round" stroke-linejoin="round"/>
<path d="M209.076 47.6081L216.606 41.3047L220.456 50.4089L209.076 47.6081Z" stroke="#2ACAF7" stroke-width="0.5" stroke-linecap="round" stroke-linejoin="round"/>
<path d="M209.076 47.6094L220.456 50.4101L218.882 60.039L209.076 47.6094Z" stroke="#2ACAF7" stroke-width="0.5" stroke-linecap="round" stroke-linejoin="round"/>
<path d="M194.544 42.3555L209.076 47.6096L193.668 51.9844L194.544 42.3555Z" stroke="#2ACAF7" stroke-width="0.5" stroke-linecap="round" stroke-linejoin="round"/>
<path d="M173.711 34.1299L184.74 33.6016L179.837 45.5065L173.711 34.1299Z" stroke="#2ACAF7" stroke-width="0.5" stroke-linecap="round" stroke-linejoin="round"/>
<path d="M184.741 33.6016L194.544 42.3548L179.838 45.5065L184.741 33.6016Z" stroke="#2ACAF7" stroke-width="0.5" stroke-linecap="round" stroke-linejoin="round"/>
<path d="M193.668 51.9844L194.544 42.3555L179.838 45.5072L193.668 51.9844Z" stroke="#2ACAF7" stroke-width="0.5" stroke-linecap="round" stroke-linejoin="round"/>
<path d="M173.712 34.1289L179.838 45.5055L166.359 39.9041L173.712 34.1289Z" stroke="#2ACAF7" stroke-width="0.5" stroke-linecap="round" stroke-linejoin="round"/>
<path d="M98.0762 98.0278L100.352 85.9492L108.758 91.5507L98.0762 98.0278Z" stroke="#2ACAF7" stroke-width="0.5" stroke-linecap="round" stroke-linejoin="round"/>
<path d="M98.0762 98.0279L103.153 100.13L108.758 91.5508L98.0762 98.0279Z" stroke="#2ACAF7" stroke-width="0.5" stroke-linecap="round" stroke-linejoin="round"/>
<path d="M103.154 100.13L105.257 101.357L108.759 91.5508L103.154 100.13Z" stroke="#2ACAF7" stroke-width="0.5" stroke-linecap="round" stroke-linejoin="round"/>
<path d="M105.256 101.357L108.759 91.5508L115.934 98.7299L105.256 101.357Z" stroke="#2ACAF7" stroke-width="0.5" stroke-linecap="round" stroke-linejoin="round"/>
<path d="M157.953 101.706L163.906 104.511L167.057 94.1797L157.953 101.706Z" stroke="#2ACAF7" stroke-width="0.5" stroke-linecap="round" stroke-linejoin="round"/>
<path d="M163.906 104.511H165.835L167.058 94.1797L163.906 104.511Z" stroke="#2ACAF7" stroke-width="0.5" stroke-linecap="round" stroke-linejoin="round"/>
<path d="M165.834 104.511L167.933 104.333L167.057 94.1797L165.834 104.511Z" stroke="#2ACAF7" stroke-width="0.5" stroke-linecap="round" stroke-linejoin="round"/>
<path d="M167.057 94.1797L167.932 104.333L176.161 98.5545L167.057 94.1797Z" stroke="#2ACAF7" stroke-width="0.5" stroke-linecap="round" stroke-linejoin="round"/>
<path d="M176.162 98.5538L180.714 107.311L194.02 96.4551L176.162 98.5538Z" stroke="#2ACAF7" stroke-width="0.5" stroke-linecap="round" stroke-linejoin="round"/>
<path d="M180.713 107.311L183.687 108.711L194.018 96.4551L180.713 107.311Z" stroke="#2ACAF7" stroke-width="0.5" stroke-linecap="round" stroke-linejoin="round"/>
<path d="M183.689 108.711L191.046 111.161L194.02 96.4551L183.689 108.711Z" stroke="#2ACAF7" stroke-width="0.5" stroke-linecap="round" stroke-linejoin="round"/>
<path d="M191.045 111.161L194.197 110.81L194.019 96.4551L191.045 111.161Z" stroke="#2ACAF7" stroke-width="0.5" stroke-linecap="round" stroke-linejoin="round"/>
<path d="M194.018 96.4551L194.195 110.81L200.846 105.035L194.018 96.4551Z" stroke="#2ACAF7" stroke-width="0.5" stroke-linecap="round" stroke-linejoin="round"/>
<path d="M211.352 105.733L225.71 104.51L217.481 96.6289L211.352 105.733Z" stroke="#2ACAF7" stroke-width="0.5" stroke-linecap="round" stroke-linejoin="round"/>
<path d="M194.018 96.4566L200.846 105.036L205.749 94.8789L194.018 96.4566Z" stroke="#2ACAF7" stroke-width="0.5" stroke-linecap="round" stroke-linejoin="round"/>
<path d="M200.846 105.036L211.35 105.734L205.749 94.8789L200.846 105.036Z" stroke="#2ACAF7" stroke-width="0.5" stroke-linecap="round" stroke-linejoin="round"/>
<path d="M209.075 84.9023L217.481 96.63L205.75 94.8786L209.075 84.9023Z" stroke="#2ACAF7" stroke-width="0.5" stroke-linecap="round" stroke-linejoin="round"/>
<path d="M211.351 105.734L217.481 96.6303L205.75 94.8789L211.351 105.734Z" stroke="#2ACAF7" stroke-width="0.5" stroke-linecap="round" stroke-linejoin="round"/>
<path d="M194.018 96.4557L205.749 94.878L196.818 84.5508L194.018 96.4557Z" stroke="#2ACAF7" stroke-width="0.5" stroke-linecap="round" stroke-linejoin="round"/>
<path d="M205.751 94.878L209.076 84.9018L196.82 84.5508L205.751 94.878Z" stroke="#2ACAF7" stroke-width="0.5" stroke-linecap="round" stroke-linejoin="round"/>
<path d="M176.162 98.5544L194.02 96.4557L186.667 89.9785L176.162 98.5544Z" stroke="#2ACAF7" stroke-width="0.5" stroke-linecap="round" stroke-linejoin="round"/>
<path d="M194.019 96.4557L196.82 84.5508L186.666 89.9786L194.019 96.4557Z" stroke="#2ACAF7" stroke-width="0.5" stroke-linecap="round" stroke-linejoin="round"/>
<path d="M167.057 94.1786L176.161 98.5534L177.561 88.0488L167.057 94.1786Z" stroke="#2ACAF7" stroke-width="0.5" stroke-linecap="round" stroke-linejoin="round"/>
<path d="M176.162 98.5534L186.667 89.9775L177.562 88.0488L176.162 98.5534Z" stroke="#2ACAF7" stroke-width="0.5" stroke-linecap="round" stroke-linejoin="round"/>
<path d="M167.059 94.1786L177.563 88.0489L165.658 82.6211L167.059 94.1786Z" stroke="#2ACAF7" stroke-width="0.5" stroke-linecap="round" stroke-linejoin="round"/>
<path d="M157.953 101.704L167.057 94.178L153.752 90.3242L157.953 101.704Z" stroke="#2ACAF7" stroke-width="0.5" stroke-linecap="round" stroke-linejoin="round"/>
<path d="M165.657 82.6211L167.057 94.1786L153.752 90.3249L165.657 82.6211Z" stroke="#2ACAF7" stroke-width="0.5" stroke-linecap="round" stroke-linejoin="round"/>
<path d="M153.752 90.3242L157.953 101.704L149.551 101.18L153.752 90.3242Z" stroke="#2ACAF7" stroke-width="0.5" stroke-linecap="round" stroke-linejoin="round"/>
<path d="M134.668 102.057L149.551 101.181L137.646 95.4023L134.668 102.057Z" stroke="#2ACAF7" stroke-width="0.5" stroke-linecap="round" stroke-linejoin="round"/>
<path d="M149.551 101.18L153.753 90.3242L137.646 95.401L149.551 101.18Z" stroke="#2ACAF7" stroke-width="0.5" stroke-linecap="round" stroke-linejoin="round"/>
<path d="M108.76 91.5508L115.935 98.7299L122.763 92.2528L108.76 91.5508Z" stroke="#2ACAF7" stroke-width="0.5" stroke-linecap="round" stroke-linejoin="round"/>
<path d="M115.934 98.7311L119.787 105.382L122.762 92.2539L115.934 98.7311Z" stroke="#2ACAF7" stroke-width="0.5" stroke-linecap="round" stroke-linejoin="round"/>
<path d="M119.789 105.382L134.668 102.056L122.763 92.2539L119.789 105.382Z" stroke="#2ACAF7" stroke-width="0.5" stroke-linecap="round" stroke-linejoin="round"/>
<path d="M134.667 102.056L137.645 95.402L122.762 92.2539L134.667 102.056Z" stroke="#2ACAF7" stroke-width="0.5" stroke-linecap="round" stroke-linejoin="round"/>
<path d="M100.354 85.9493L108.759 91.5508L114.187 84.7227L100.354 85.9493Z" stroke="#2ACAF7" stroke-width="0.5" stroke-linecap="round" stroke-linejoin="round"/>
<path d="M108.76 91.5508L122.763 92.2528L114.188 84.7227L108.76 91.5508Z" stroke="#2ACAF7" stroke-width="0.5" stroke-linecap="round" stroke-linejoin="round"/>
<path d="M94.9238 78.2461L100.352 85.9499L106.304 75.4453L94.9238 78.2461Z" stroke="#2ACAF7" stroke-width="0.5" stroke-linecap="round" stroke-linejoin="round"/>
<path d="M100.354 85.9499L114.187 84.7232L106.306 75.4453L100.354 85.9499Z" stroke="#2ACAF7" stroke-width="0.5" stroke-linecap="round" stroke-linejoin="round"/>
<path d="M94.9238 78.2468L106.304 75.446L99.6532 69.1426L94.9238 78.2468Z" stroke="#2ACAF7" stroke-width="0.5" stroke-linecap="round" stroke-linejoin="round"/>
<path d="M97.7285 48.4843L99.4763 37.4551L109.456 43.5812L97.7285 48.4843Z" stroke="#2ACAF7" stroke-width="0.5" stroke-linecap="round" stroke-linejoin="round"/>
<path d="M99.4766 37.4563L106.131 28.7031L109.456 43.5825L99.4766 37.4563Z" stroke="#2ACAF7" stroke-width="0.5" stroke-linecap="round" stroke-linejoin="round"/>
<path d="M106.131 28.7031L109.456 43.5825L115.409 35.354L106.131 28.7031Z" stroke="#2ACAF7" stroke-width="0.5" stroke-linecap="round" stroke-linejoin="round"/>
<path d="M130.818 31.8501L145.875 28L136.246 44.9817L130.818 31.8501Z" stroke="#2ACAF7" stroke-width="0.5" stroke-linecap="round" stroke-linejoin="round"/>
<path d="M109.457 43.582L115.409 35.3535L122.589 45.6844L109.457 43.582Z" stroke="#2ACAF7" stroke-width="0.5" stroke-linecap="round" stroke-linejoin="round"/>
<path d="M115.41 35.3543L130.818 31.8516L122.589 45.6852L115.41 35.3543Z" stroke="#2ACAF7" stroke-width="0.5" stroke-linecap="round" stroke-linejoin="round"/>
<path d="M130.818 31.8516L136.246 44.9832L122.59 45.6852L130.818 31.8516Z" stroke="#2ACAF7" stroke-width="0.5" stroke-linecap="round" stroke-linejoin="round"/>
<path d="M109.457 43.582L122.589 45.6844L120.313 56.0116L109.457 43.582Z" stroke="#2ACAF7" stroke-width="0.5" stroke-linecap="round" stroke-linejoin="round"/>
<path d="M99.6543 69.1431L106.305 75.4465L117.685 65.293L99.6543 69.1431Z" stroke="#2ACAF7" stroke-width="0.5" stroke-linecap="round" stroke-linejoin="round"/>
<path d="M93 57.7623L97.7294 48.4844L107.532 56.1882L93 57.7623Z" stroke="#2ACAF7" stroke-width="0.5" stroke-linecap="round" stroke-linejoin="round"/>
<path d="M93 57.7616L99.6545 69.1418L107.532 56.1875L93 57.7616Z" stroke="#2ACAF7" stroke-width="0.5" stroke-linecap="round" stroke-linejoin="round"/>
<path d="M97.7285 48.4851L109.456 43.582L107.531 56.189L97.7285 48.4851Z" stroke="#2ACAF7" stroke-width="0.5" stroke-linecap="round" stroke-linejoin="round"/>
<path d="M99.6543 69.1418L117.685 65.2917L107.532 56.1875L99.6543 69.1418Z" stroke="#2ACAF7" stroke-width="0.5" stroke-linecap="round" stroke-linejoin="round"/>
<path d="M109.456 43.582L120.312 56.0117L107.531 56.189L109.456 43.582Z" stroke="#2ACAF7" stroke-width="0.5" stroke-linecap="round" stroke-linejoin="round"/>
<path d="M117.685 65.2932L120.312 56.0117L107.531 56.189L117.685 65.2932Z" stroke="#2ACAF7" stroke-width="0.5" stroke-linecap="round" stroke-linejoin="round"/>
<path d="M106.305 75.4453L114.186 84.7232L121.014 79.8237L106.305 75.4453Z" stroke="#2ACAF7" stroke-width="0.5" stroke-linecap="round" stroke-linejoin="round"/>
<path d="M106.305 75.4465L117.685 65.293L121.014 79.8249L106.305 75.4465Z" stroke="#2ACAF7" stroke-width="0.5" stroke-linecap="round" stroke-linejoin="round"/>
<path d="M114.188 84.7237L122.763 92.2538L121.016 79.8242L114.188 84.7237Z" stroke="#2ACAF7" stroke-width="0.5" stroke-linecap="round" stroke-linejoin="round"/>
<path d="M121.016 79.8242L122.763 92.2538L136.246 87.1734L121.016 79.8242Z" stroke="#2ACAF7" stroke-width="0.5" stroke-linecap="round" stroke-linejoin="round"/>
<path d="M121.016 79.8242L135.895 81.7493L136.246 87.1734L121.016 79.8242Z" stroke="#2ACAF7" stroke-width="0.5" stroke-linecap="round" stroke-linejoin="round"/>
<path d="M122.762 92.2542L137.645 95.4023L136.244 87.1738L122.762 92.2542Z" stroke="#2ACAF7" stroke-width="0.5" stroke-linecap="round" stroke-linejoin="round"/>
<path d="M137.646 95.4023L153.752 90.3256L136.246 87.1738L137.646 95.4023Z" stroke="#2ACAF7" stroke-width="0.5" stroke-linecap="round" stroke-linejoin="round"/>
<path d="M135.895 81.7483L136.246 87.1725L149.2 80.6953L135.895 81.7483Z" stroke="#2ACAF7" stroke-width="0.5" stroke-linecap="round" stroke-linejoin="round"/>
<path d="M136.246 87.1725L153.752 90.3242L149.2 80.6953L136.246 87.1725Z" stroke="#2ACAF7" stroke-width="0.5" stroke-linecap="round" stroke-linejoin="round"/>
<path d="M153.753 90.3242L165.658 82.6204L149.201 80.6953L153.753 90.3242Z" stroke="#2ACAF7" stroke-width="0.5" stroke-linecap="round" stroke-linejoin="round"/>
<path d="M135.895 81.7494L149.2 80.6964L146.399 70.3691L135.895 81.7494Z" stroke="#2ACAF7" stroke-width="0.5" stroke-linecap="round" stroke-linejoin="round"/>
<path d="M117.686 65.2932L120.313 56.0117L137.819 60.5638L117.686 65.2932Z" stroke="#2ACAF7" stroke-width="0.5" stroke-linecap="round" stroke-linejoin="round"/>
<path d="M117.686 65.2919L121.015 79.8239L137.819 60.5625L117.686 65.2919Z" stroke="#2ACAF7" stroke-width="0.5" stroke-linecap="round" stroke-linejoin="round"/>
<path d="M121.016 79.8239L135.895 81.7489L137.82 60.5625L121.016 79.8239Z" stroke="#2ACAF7" stroke-width="0.5" stroke-linecap="round" stroke-linejoin="round"/>
<path d="M135.895 81.7489L146.399 70.3687L137.82 60.5625L135.895 81.7489Z" stroke="#2ACAF7" stroke-width="0.5" stroke-linecap="round" stroke-linejoin="round"/>
<path d="M120.312 56.0109L122.589 45.6836L136.943 50.0584L120.312 56.0109Z" stroke="#2ACAF7" stroke-width="0.5" stroke-linecap="round" stroke-linejoin="round"/>
<path d="M120.312 56.0111L137.819 60.5632L136.943 50.0586L120.312 56.0111Z" stroke="#2ACAF7" stroke-width="0.5" stroke-linecap="round" stroke-linejoin="round"/>
<path d="M122.59 45.6825L136.246 44.9805L136.945 50.0573L122.59 45.6825Z" stroke="#2ACAF7" stroke-width="0.5" stroke-linecap="round" stroke-linejoin="round"/>
<path d="M136.246 44.9825L136.944 50.0593L150.952 39.5547L136.246 44.9825Z" stroke="#2ACAF7" stroke-width="0.5" stroke-linecap="round" stroke-linejoin="round"/>
<path d="M136.246 44.9817L145.875 28L150.952 39.5539L136.246 44.9817Z" stroke="#2ACAF7" stroke-width="0.5" stroke-linecap="round" stroke-linejoin="round"/>
<path d="M136.943 50.0593L154.276 47.7832L150.951 39.5547L136.943 50.0593Z" stroke="#2ACAF7" stroke-width="0.5" stroke-linecap="round" stroke-linejoin="round"/>
<path d="M154.277 47.7832L166.359 39.9057L150.951 39.5547L154.277 47.7832Z" stroke="#2ACAF7" stroke-width="0.5" stroke-linecap="round" stroke-linejoin="round"/>
<path d="M154.277 47.7838L166.36 39.9062L163.559 49.3615L154.277 47.7838Z" stroke="#2ACAF7" stroke-width="0.5" stroke-linecap="round" stroke-linejoin="round"/>
<path d="M166.359 39.9062L179.838 45.5077L163.559 49.3615L166.359 39.9062Z" stroke="#2ACAF7" stroke-width="0.5" stroke-linecap="round" stroke-linejoin="round"/>
<path d="M163.559 49.3615L179.838 45.5078L176.513 53.5626L163.559 49.3615Z" stroke="#2ACAF7" stroke-width="0.5" stroke-linecap="round" stroke-linejoin="round"/>
<path d="M179.839 45.5078L193.669 51.985L176.514 53.5626L179.839 45.5078Z" stroke="#2ACAF7" stroke-width="0.5" stroke-linecap="round" stroke-linejoin="round"/>
<path d="M154.277 47.7812L163.559 49.3589L157.78 62.3132L154.277 47.7812Z" stroke="#2ACAF7" stroke-width="0.5" stroke-linecap="round" stroke-linejoin="round"/>
<path d="M136.943 50.0586L137.819 60.5632L149.377 61.7898L136.943 50.0586Z" stroke="#2ACAF7" stroke-width="0.5" stroke-linecap="round" stroke-linejoin="round"/>
<path d="M136.943 50.0573L154.276 47.7812L149.377 61.7886L136.943 50.0573Z" stroke="#2ACAF7" stroke-width="0.5" stroke-linecap="round" stroke-linejoin="round"/>
<path d="M137.82 60.5625L146.4 70.3687L149.378 61.7892L137.82 60.5625Z" stroke="#2ACAF7" stroke-width="0.5" stroke-linecap="round" stroke-linejoin="round"/>
<path d="M146.4 70.3686L157.781 62.3137L149.378 61.7891L146.4 70.3686Z" stroke="#2ACAF7" stroke-width="0.5" stroke-linecap="round" stroke-linejoin="round"/>
<path d="M154.276 47.7812L157.779 62.3132L149.377 61.7886L154.276 47.7812Z" stroke="#2ACAF7" stroke-width="0.5" stroke-linecap="round" stroke-linejoin="round"/>
<path d="M146.4 70.3691L149.201 80.6964L161.982 72.9962L146.4 70.3691Z" stroke="#2ACAF7" stroke-width="0.5" stroke-linecap="round" stroke-linejoin="round"/>
<path d="M146.4 70.3693L157.781 62.3145L161.982 72.9963L146.4 70.3693Z" stroke="#2ACAF7" stroke-width="0.5" stroke-linecap="round" stroke-linejoin="round"/>
<path d="M149.201 80.6963L165.658 82.6214L161.982 72.9961L149.201 80.6963Z" stroke="#2ACAF7" stroke-width="0.5" stroke-linecap="round" stroke-linejoin="round"/>
<path d="M161.98 72.9961L165.657 82.6214L174.236 75.0948L161.98 72.9961Z" stroke="#2ACAF7" stroke-width="0.5" stroke-linecap="round" stroke-linejoin="round"/>
<path d="M165.658 82.6203L177.563 88.0481L174.238 75.0938L165.658 82.6203Z" stroke="#2ACAF7" stroke-width="0.5" stroke-linecap="round" stroke-linejoin="round"/>
<path d="M157.779 62.3136L161.98 72.9955L171.258 61.6152L157.779 62.3136Z" stroke="#2ACAF7" stroke-width="0.5" stroke-linecap="round" stroke-linejoin="round"/>
<path d="M157.779 62.3137L163.558 49.3594L171.258 61.6153L157.779 62.3137Z" stroke="#2ACAF7" stroke-width="0.5" stroke-linecap="round" stroke-linejoin="round"/>
<path d="M161.98 72.9955L174.236 75.0942L171.258 61.6152L161.98 72.9955Z" stroke="#2ACAF7" stroke-width="0.5" stroke-linecap="round" stroke-linejoin="round"/>
<path d="M163.559 49.3594L176.513 53.5605L171.259 61.6153L163.559 49.3594Z" stroke="#2ACAF7" stroke-width="0.5" stroke-linecap="round" stroke-linejoin="round"/>
<path d="M171.26 61.6152L174.238 75.0942L188.068 64.065L171.26 61.6152Z" stroke="#2ACAF7" stroke-width="0.5" stroke-linecap="round" stroke-linejoin="round"/>
<path d="M171.26 61.6173L176.514 53.5625L188.068 64.0671L171.26 61.6173Z" stroke="#2ACAF7" stroke-width="0.5" stroke-linecap="round" stroke-linejoin="round"/>
<path d="M176.514 53.5621L193.669 51.9844L188.068 64.0666L176.514 53.5621Z" stroke="#2ACAF7" stroke-width="0.5" stroke-linecap="round" stroke-linejoin="round"/>
<path d="M188.066 64.0666L193.668 51.9844L200.322 58.4651L188.066 64.0666Z" stroke="#2ACAF7" stroke-width="0.5" stroke-linecap="round" stroke-linejoin="round"/>
<path d="M193.668 51.9842L209.076 47.6094L200.322 58.4649L193.668 51.9842Z" stroke="#2ACAF7" stroke-width="0.5" stroke-linecap="round" stroke-linejoin="round"/>
<path d="M209.075 47.6094L218.882 60.039L200.322 58.4649L209.075 47.6094Z" stroke="#2ACAF7" stroke-width="0.5" stroke-linecap="round" stroke-linejoin="round"/>
<path d="M174.236 75.0938L177.562 88.0481L188.591 77.8945L174.236 75.0938Z" stroke="#2ACAF7" stroke-width="0.5" stroke-linecap="round" stroke-linejoin="round"/>
<path d="M174.236 75.0957L188.066 64.0664L188.591 77.8964L174.236 75.0957Z" stroke="#2ACAF7" stroke-width="0.5" stroke-linecap="round" stroke-linejoin="round"/>
<path d="M177.562 88.0481L186.667 89.9768L188.592 77.8945L177.562 88.0481Z" stroke="#2ACAF7" stroke-width="0.5" stroke-linecap="round" stroke-linejoin="round"/>
<path d="M186.666 89.9768L196.82 84.549L188.591 77.8945L186.666 89.9768Z" stroke="#2ACAF7" stroke-width="0.5" stroke-linecap="round" stroke-linejoin="round"/>
<path d="M188.066 64.0664L188.591 77.8964L201.024 72.2949L188.066 64.0664Z" stroke="#2ACAF7" stroke-width="0.5" stroke-linecap="round" stroke-linejoin="round"/>
<path d="M188.066 64.0663L200.322 58.4648L201.024 72.2948L188.066 64.0663Z" stroke="#2ACAF7" stroke-width="0.5" stroke-linecap="round" stroke-linejoin="round"/>
<path d="M188.59 77.8944L196.818 84.5489L201.023 72.293L188.59 77.8944Z" stroke="#2ACAF7" stroke-width="0.5" stroke-linecap="round" stroke-linejoin="round"/>
<path d="M196.82 84.5489L209.076 84.8999L201.025 72.293L196.82 84.5489Z" stroke="#2ACAF7" stroke-width="0.5" stroke-linecap="round" stroke-linejoin="round"/>
<path d="M200.322 58.4648L201.024 72.2948L212.929 66.6934L200.322 58.4648Z" stroke="#2ACAF7" stroke-width="0.5" stroke-linecap="round" stroke-linejoin="round"/>
<path d="M200.322 58.4648L218.882 60.0389L212.929 66.6934L200.322 58.4648Z" stroke="#2ACAF7" stroke-width="0.5" stroke-linecap="round" stroke-linejoin="round"/>
<path d="M201.023 72.2929L209.075 84.8998L212.928 66.6914L201.023 72.2929Z" stroke="#2ACAF7" stroke-width="0.5" stroke-linecap="round" stroke-linejoin="round"/>
<path d="M209.076 84.8998L212.93 66.6914L219.407 73.8669L209.076 84.8998Z" stroke="#2ACAF7" stroke-width="0.5" stroke-linecap="round" stroke-linejoin="round"/>
<path d="M209.076 84.9013L217.482 96.629L227.636 84.373L209.076 84.9013Z" stroke="#2ACAF7" stroke-width="0.5" stroke-linecap="round" stroke-linejoin="round"/>
<path d="M209.076 84.9001L219.407 73.8672L227.636 84.3718L209.076 84.9001Z" stroke="#2ACAF7" stroke-width="0.5" stroke-linecap="round" stroke-linejoin="round"/>
<path d="M86.7656 43.6992L98 48.5L90.2683 56.4798L86.7656 43.6992Z" stroke="#2ACAF7" stroke-width="0.5" stroke-linecap="round" stroke-linejoin="round"/>
<path d="M77.8356 39.8496L86.7661 43.6997L76.0879 49.4785L77.8356 39.8496Z" stroke="#2ACAF7" stroke-width="0.5" stroke-linecap="round" stroke-linejoin="round"/>
<path d="M86.7661 43.6992L90.2689 56.4798L76.0879 49.478L86.7661 43.6992Z" stroke="#2ACAF7" stroke-width="0.5" stroke-linecap="round" stroke-linejoin="round"/>
<path d="M13.0605 103.926L16.5597 107.077L24.2635 102.525L13.0605 103.926Z" stroke="#2ACAF7" stroke-width="0.5" stroke-linecap="round" stroke-linejoin="round"/>
<path d="M13.0605 103.926L18.8357 94.8223L24.2635 102.526L13.0605 103.926Z" stroke="#2ACAF7" stroke-width="0.5" stroke-linecap="round" stroke-linejoin="round"/>
<path d="M16.5586 107.077L19.1856 109.705L24.2624 102.525L16.5586 107.077Z" stroke="#2ACAF7" stroke-width="0.5" stroke-linecap="round" stroke-linejoin="round"/>
<path d="M19.1875 109.705L21.9882 114.604L24.2643 102.525L19.1875 109.705Z" stroke="#2ACAF7" stroke-width="0.5" stroke-linecap="round" stroke-linejoin="round"/>
<path d="M21.9863 114.604L24.2624 102.525L32.6682 108.127L21.9863 114.604Z" stroke="#2ACAF7" stroke-width="0.5" stroke-linecap="round" stroke-linejoin="round"/>
<path d="M89.5671 99.1973L93.5 106.901H77.6621L89.5671 99.1973Z" stroke="#2ACAF7" stroke-width="0.5" stroke-linecap="round" stroke-linejoin="round"/>
<path d="M100.5 106.5L93.5 107L98 98L100.5 106.5ZM100.5 106.5L105 101L108 108M100.5 106.5L108 108M108 108L116 99" stroke="#2ACAF7" stroke-width="0.5"/>
<path d="M152.5 130.5L149 133L157.5 139M152.5 130.5L157.5 139M152.5 130.5L164 133.5M157.5 139L164 133.5M157.5 139L167 144M164 133.5L167 144M164 133.5L169 128M164 133.5L162.5 132L169 128M164 133.5L175 130.5M164 133.5L175.5 139M167 144L175.5 139M167 144L173 146.5M169 128L175 130.5M175 130.5L175.5 139M175 130.5L182.5 136.5M175.5 139L182.5 136.5M175.5 139L173 146.5M182.5 136.5L173 146.5" stroke="#2ACAF7" stroke-width="0.5"/>
<path d="M24.2637 102.526L32.6695 108.127L38.0973 101.299L24.2637 102.526Z" stroke="#2ACAF7" stroke-width="0.5" stroke-linecap="round" stroke-linejoin="round"/>
<path d="M32.6699 108.127L46.6736 108.829L38.0977 101.299L32.6699 108.127Z" stroke="#2ACAF7" stroke-width="0.5" stroke-linecap="round" stroke-linejoin="round"/>
<path d="M18.834 94.8222L24.2618 102.526L30.2142 92.0215L18.834 94.8222Z" stroke="#2ACAF7" stroke-width="0.5" stroke-linecap="round" stroke-linejoin="round"/>
<path d="M24.2637 102.526L38.0973 101.299L30.2161 92.0215L24.2637 102.526Z" stroke="#2ACAF7" stroke-width="0.5" stroke-linecap="round" stroke-linejoin="round"/>
<path d="M18.834 94.823L30.2142 92.0222L23.5634 85.7188L18.834 94.823Z" stroke="#2ACAF7" stroke-width="0.5" stroke-linecap="round" stroke-linejoin="round"/>
<path d="M36 46L33.3672 60.1567L39.3197 51.9282L36 46Z" stroke="#2ACAF7" stroke-width="0.5" stroke-linecap="round" stroke-linejoin="round"/>
<path d="M36 46.001L41.0703 37.9219L39.3189 51.9292L36 46.001Z" stroke="#2ACAF7" stroke-width="0.5" stroke-linecap="round" stroke-linejoin="round"/>
<path d="M39.3203 51.9292L41.0717 37.9219L54.728 48.4264L39.3203 51.9292Z" stroke="#2ACAF7" stroke-width="0.5" stroke-linecap="round" stroke-linejoin="round"/>
<path d="M41.0723 37.9219L59.4544 38.6239L54.7286 48.4264L41.0723 37.9219Z" stroke="#2ACAF7" stroke-width="0.5" stroke-linecap="round" stroke-linejoin="round"/>
<path d="M54.7285 48.4256L59.4543 38.623L69.7852 44.5755L54.7285 48.4256Z" stroke="#2ACAF7" stroke-width="0.5" stroke-linecap="round" stroke-linejoin="round"/>
<path d="M76.0886 49.4785L77.8364 39.8496L69.7852 44.5754L76.0886 49.4785Z" stroke="#2ACAF7" stroke-width="0.5" stroke-linecap="round" stroke-linejoin="round"/>
<path d="M54.7285 48.4263L69.7852 44.5762L60.1563 61.5579L54.7285 48.4263Z" stroke="#2ACAF7" stroke-width="0.5" stroke-linecap="round" stroke-linejoin="round"/>
<path d="M33.3672 60.1582L39.3197 51.9297L46.4988 62.2606L33.3672 60.1582Z" stroke="#2ACAF7" stroke-width="0.5" stroke-linecap="round" stroke-linejoin="round"/>
<path d="M39.3203 51.9285L54.728 48.4258L46.4995 62.2594L39.3203 51.9285Z" stroke="#2ACAF7" stroke-width="0.5" stroke-linecap="round" stroke-linejoin="round"/>
<path d="M54.7285 48.4258L60.1563 61.5574L46.5 62.2594L54.7285 48.4258Z" stroke="#2ACAF7" stroke-width="0.5" stroke-linecap="round" stroke-linejoin="round"/>
<path d="M33.3672 60.1562L46.4988 62.2586L44.2227 72.5859L33.3672 60.1562Z" stroke="#2ACAF7" stroke-width="0.5" stroke-linecap="round" stroke-linejoin="round"/>
<path d="M23.5645 85.7173L30.2153 92.0208L41.5955 81.8672L23.5645 85.7173Z" stroke="#2ACAF7" stroke-width="0.5" stroke-linecap="round" stroke-linejoin="round"/>
<path d="M19 75.5L23.5646 85.718L31.4421 72.7637L19 75.5Z" stroke="#2ACAF7" stroke-width="0.5" stroke-linecap="round" stroke-linejoin="round"/>
<path d="M23.5645 85.718L41.5955 81.8679L31.442 72.7637L23.5645 85.718Z" stroke="#2ACAF7" stroke-width="0.5" stroke-linecap="round" stroke-linejoin="round"/>
<path d="M33.3665 60.1562L44.222 72.5859L31.4414 72.7632L33.3665 60.1562Z" stroke="#2ACAF7" stroke-width="0.5" stroke-linecap="round" stroke-linejoin="round"/>
<path d="M41.595 81.8674L44.222 72.5859L31.4414 72.7632L41.595 81.8674Z" stroke="#2ACAF7" stroke-width="0.5" stroke-linecap="round" stroke-linejoin="round"/>
<path d="M30.2148 92.0215L38.096 101.299L44.9241 96.3999L30.2148 92.0215Z" stroke="#2ACAF7" stroke-width="0.5" stroke-linecap="round" stroke-linejoin="round"/>
<path d="M30.2148 92.0208L41.5951 81.8672L44.9241 96.3992L30.2148 92.0208Z" stroke="#2ACAF7" stroke-width="0.5" stroke-linecap="round" stroke-linejoin="round"/>
<path d="M38.0977 101.3L46.6736 108.83L44.9258 96.4004L38.0977 101.3Z" stroke="#2ACAF7" stroke-width="0.5" stroke-linecap="round" stroke-linejoin="round"/>
<path d="M44.9258 96.4004L46.6735 108.83L60.1561 103.75L44.9258 96.4004Z" stroke="#2ACAF7" stroke-width="0.5" stroke-linecap="round" stroke-linejoin="round"/>
<path d="M44.9258 96.4004L59.8051 98.3254L60.1561 103.75L44.9258 96.4004Z" stroke="#2ACAF7" stroke-width="0.5" stroke-linecap="round" stroke-linejoin="round"/>
<path d="M46.6719 108.83L61.5548 111.978L60.1545 103.75L46.6719 108.83Z" stroke="#2ACAF7" stroke-width="0.5" stroke-linecap="round" stroke-linejoin="round"/>
<path d="M61.5566 111.978L77.6626 106.902L60.1562 103.75L61.5566 111.978Z" stroke="#2ACAF7" stroke-width="0.5" stroke-linecap="round" stroke-linejoin="round"/>
<path d="M59.8047 98.3245L60.1557 103.749L73.11 97.2715L59.8047 98.3245Z" stroke="#2ACAF7" stroke-width="0.5" stroke-linecap="round" stroke-linejoin="round"/>
<path d="M60.1562 103.749L77.6626 106.9L73.1106 97.2715L60.1562 103.749Z" stroke="#2ACAF7" stroke-width="0.5" stroke-linecap="round" stroke-linejoin="round"/>
<path d="M77.6634 106.9L89.5683 99.1965L73.1113 97.2715L77.6634 106.9Z" stroke="#2ACAF7" stroke-width="0.5" stroke-linecap="round" stroke-linejoin="round"/>
<path d="M59.8047 98.3256L73.11 97.2726L70.3093 86.9453L59.8047 98.3256Z" stroke="#2ACAF7" stroke-width="0.5" stroke-linecap="round" stroke-linejoin="round"/>
<path d="M41.5957 81.8674L44.2228 72.5859L61.7292 77.138L41.5957 81.8674Z" stroke="#2ACAF7" stroke-width="0.5" stroke-linecap="round" stroke-linejoin="round"/>
<path d="M41.5957 81.8681L44.9247 96.4001L61.7292 77.1387L41.5957 81.8681Z" stroke="#2ACAF7" stroke-width="0.5" stroke-linecap="round" stroke-linejoin="round"/>
<path d="M44.9258 96.4001L59.8051 98.3251L61.7302 77.1387L44.9258 96.4001Z" stroke="#2ACAF7" stroke-width="0.5" stroke-linecap="round" stroke-linejoin="round"/>
<path d="M59.8047 98.3251L70.3093 86.9449L61.7297 77.1387L59.8047 98.3251Z" stroke="#2ACAF7" stroke-width="0.5" stroke-linecap="round" stroke-linejoin="round"/>
<path d="M44.2227 72.587L46.4987 62.2598L60.8534 66.6346L44.2227 72.587Z" stroke="#2ACAF7" stroke-width="0.5" stroke-linecap="round" stroke-linejoin="round"/>
<path d="M44.2227 72.5872L61.7291 77.1393L60.8534 66.6348L44.2227 72.5872Z" stroke="#2ACAF7" stroke-width="0.5" stroke-linecap="round" stroke-linejoin="round"/>
<path d="M46.5 62.2586L60.1563 61.5566L60.8547 66.6334L46.5 62.2586Z" stroke="#2ACAF7" stroke-width="0.5" stroke-linecap="round" stroke-linejoin="round"/>
<path d="M60.1562 61.5567L60.8546 66.6335L74.8619 56.1289L60.1562 61.5567Z" stroke="#2ACAF7" stroke-width="0.5" stroke-linecap="round" stroke-linejoin="round"/>
<path d="M60.1562 61.5579L69.7851 44.5762L74.8619 56.1301L60.1562 61.5579Z" stroke="#2ACAF7" stroke-width="0.5" stroke-linecap="round" stroke-linejoin="round"/>
<path d="M60.8535 66.6335L78.1862 64.3574L74.8608 56.1289L60.8535 66.6335Z" stroke="#2ACAF7" stroke-width="0.5" stroke-linecap="round" stroke-linejoin="round"/>
<path d="M69.7852 44.5762L76.0886 49.4793L74.862 56.1301L69.7852 44.5762Z" stroke="#2ACAF7" stroke-width="0.5" stroke-linecap="round" stroke-linejoin="round"/>
<path d="M76.088 49.4785L90.269 56.4804L74.8613 56.1294L76.088 49.4785Z" stroke="#2ACAF7" stroke-width="0.5" stroke-linecap="round" stroke-linejoin="round"/>
<path d="M78.1867 64.3574L90.269 56.4799L74.8613 56.1289L78.1867 64.3574Z" stroke="#2ACAF7" stroke-width="0.5" stroke-linecap="round" stroke-linejoin="round"/>
<path d="M78.1875 64.358L90.2697 56.4805L87.469 65.9357L78.1875 64.358Z" stroke="#2ACAF7" stroke-width="0.5" stroke-linecap="round" stroke-linejoin="round"/>
<path d="M90.2695 56.4805L103.748 62.0819L87.4688 65.9357L90.2695 56.4805Z" stroke="#2ACAF7" stroke-width="0.5" stroke-linecap="round" stroke-linejoin="round"/>
<path d="M87.4688 65.9358L103.748 62.082L100.423 70.1369L87.4688 65.9358Z" stroke="#2ACAF7" stroke-width="0.5" stroke-linecap="round" stroke-linejoin="round"/>
<path d="M78.1875 64.3574L87.469 65.9351L81.6902 78.8894L78.1875 64.3574Z" stroke="#2ACAF7" stroke-width="0.5" stroke-linecap="round" stroke-linejoin="round"/>
<path d="M60.8535 66.6348L61.7292 77.1393L73.2868 78.366L60.8535 66.6348Z" stroke="#2ACAF7" stroke-width="0.5" stroke-linecap="round" stroke-linejoin="round"/>
<path d="M60.8535 66.6335L78.1862 64.3574L73.2868 78.3647L60.8535 66.6335Z" stroke="#2ACAF7" stroke-width="0.5" stroke-linecap="round" stroke-linejoin="round"/>
<path d="M61.7305 77.1387L70.31 86.9449L73.288 78.3654L61.7305 77.1387Z" stroke="#2ACAF7" stroke-width="0.5" stroke-linecap="round" stroke-linejoin="round"/>
<path d="M70.3105 86.9448L81.6908 78.8899L73.2886 78.3652L70.3105 86.9448Z" stroke="#2ACAF7" stroke-width="0.5" stroke-linecap="round" stroke-linejoin="round"/>
<path d="M78.1866 64.3574L81.6893 78.8894L73.2871 78.3647L78.1866 64.3574Z" stroke="#2ACAF7" stroke-width="0.5" stroke-linecap="round" stroke-linejoin="round"/>
<path d="M70.3105 86.9453L73.1113 97.2726L85.8919 89.5724L70.3105 86.9453Z" stroke="#2ACAF7" stroke-width="0.5" stroke-linecap="round" stroke-linejoin="round"/>
<path d="M70.3105 86.9454L81.6908 78.8906L85.8919 89.5725L70.3105 86.9454Z" stroke="#2ACAF7" stroke-width="0.5" stroke-linecap="round" stroke-linejoin="round"/>
<path d="M73.1113 97.2725L89.5683 99.1975L85.8919 89.5723L73.1113 97.2725Z" stroke="#2ACAF7" stroke-width="0.5" stroke-linecap="round" stroke-linejoin="round"/>
<path d="M85.8906 89.5723L89.567 99.1975L98 98.001L85.8906 89.5723Z" stroke="#2ACAF7" stroke-width="0.5" stroke-linecap="round" stroke-linejoin="round"/>
<path d="M81.6895 78.8898L85.8906 89.5717L95.1684 78.1914L81.6895 78.8898Z" stroke="#2ACAF7" stroke-width="0.5" stroke-linecap="round" stroke-linejoin="round"/>
<path d="M81.6895 78.8899L87.4682 65.9355L95.1684 78.1915L81.6895 78.8899Z" stroke="#2ACAF7" stroke-width="0.5" stroke-linecap="round" stroke-linejoin="round"/>
<path d="M85.8906 89.5717L98 98.001L95.1685 78.1914L85.8906 89.5717Z" stroke="#2ACAF7" stroke-width="0.5" stroke-linecap="round" stroke-linejoin="round"/>
<path d="M87.4688 65.9355L100.423 70.1367L95.169 78.1915L87.4688 65.9355Z" stroke="#2ACAF7" stroke-width="0.5" stroke-linecap="round" stroke-linejoin="round"/>
<path d="M304.319 84.9944L304.844 82.541L300.643 86.5684L304.319 84.9944Z" stroke="#2ACAF7" stroke-width="0.5" stroke-linecap="round" stroke-linejoin="round"/>
<path d="M296.264 91.293L296.615 92.5196L296.264 94.7957V91.293Z" stroke="#2ACAF7" stroke-width="0.5" stroke-linecap="round" stroke-linejoin="round"/>
<path d="M310.5 67.5L301.514 63.6348L306.417 69.2362L310.5 67.5ZM310.5 67.5L309 75" stroke="#2ACAF7" stroke-width="0.5" stroke-linecap="round" stroke-linejoin="round"/>
<path d="M297.664 87.6179L300.642 86.5685L298.189 78.5137L297.664 87.6179Z" stroke="#2ACAF7" stroke-width="0.5" stroke-linecap="round" stroke-linejoin="round"/>
<path d="M300.641 86.5685L304.842 82.5411L298.188 78.5137L300.641 86.5685Z" stroke="#2ACAF7" stroke-width="0.5" stroke-linecap="round" stroke-linejoin="round"/>
<path d="M304.842 82.5411L306.593 81.3144L298.188 78.5137L304.842 82.5411Z" stroke="#2ACAF7" stroke-width="0.5" stroke-linecap="round" stroke-linejoin="round"/>
<path d="M306.416 69.2344L309.217 75.1868L298.188 78.5123L306.416 69.2344Z" stroke="#2ACAF7" stroke-width="0.5" stroke-linecap="round" stroke-linejoin="round"/>
<path d="M306.593 81.3155L308.869 77.8164L298.188 78.5148L306.593 81.3155Z" stroke="#2ACAF7" stroke-width="0.5" stroke-linecap="round" stroke-linejoin="round"/>
<path d="M308.869 77.8146L309.217 75.1875L298.188 78.5129L308.869 77.8146Z" stroke="#2ACAF7" stroke-width="0.5" stroke-linecap="round" stroke-linejoin="round"/>
<path d="M296.264 91.295L297.664 87.6186L289.262 85.8672L296.264 91.295Z" stroke="#2ACAF7" stroke-width="0.5" stroke-linecap="round" stroke-linejoin="round"/>
<path d="M297.664 87.6179L298.189 78.5137L289.262 85.8665L297.664 87.6179Z" stroke="#2ACAF7" stroke-width="0.5" stroke-linecap="round" stroke-linejoin="round"/>
<path d="M289.262 85.8672L296.264 91.295L287.861 91.646L289.262 85.8672Z" stroke="#2ACAF7" stroke-width="0.5" stroke-linecap="round" stroke-linejoin="round"/>
<path d="M296.264 94.7957V91.293L287.861 91.644L296.264 94.7957Z" stroke="#2ACAF7" stroke-width="0.5" stroke-linecap="round" stroke-linejoin="round"/>
<path d="M287.861 91.6445L296.264 94.7963L288.386 99.5221L287.861 91.6445Z" stroke="#2ACAF7" stroke-width="0.5" stroke-linecap="round" stroke-linejoin="round"/>
<path d="M287.861 91.6445L288.386 99.5221L279.455 93.0449L287.861 91.6445Z" stroke="#2ACAF7" stroke-width="0.5" stroke-linecap="round" stroke-linejoin="round"/>
<path d="M279.456 93.045L287.862 91.6447L278.754 82.1895L279.456 93.045Z" stroke="#2ACAF7" stroke-width="0.5" stroke-linecap="round" stroke-linejoin="round"/>
<path d="M287.862 91.6447L289.262 85.8659L278.754 82.1895L287.862 91.6447Z" stroke="#2ACAF7" stroke-width="0.5" stroke-linecap="round" stroke-linejoin="round"/>
<path d="M278.754 82.19L289.262 85.8664L287.333 72.9121L278.754 82.19Z" stroke="#2ACAF7" stroke-width="0.5" stroke-linecap="round" stroke-linejoin="round"/>
<path d="M289.261 85.8664L298.188 78.5136L287.332 72.9121L289.261 85.8664Z" stroke="#2ACAF7" stroke-width="0.5" stroke-linecap="round" stroke-linejoin="round"/>
<path d="M287.332 72.9122L298.188 78.5137L299.765 68.8848L287.332 72.9122Z" stroke="#2ACAF7" stroke-width="0.5" stroke-linecap="round" stroke-linejoin="round"/>
<path d="M291.361 57.1523L301.515 63.6331L299.767 68.8836L291.361 57.1523Z" stroke="#2ACAF7" stroke-width="0.5" stroke-linecap="round" stroke-linejoin="round"/>
<path d="M298.188 78.5137L306.416 69.2358L299.765 68.8848L298.188 78.5137Z" stroke="#2ACAF7" stroke-width="0.5" stroke-linecap="round" stroke-linejoin="round"/>
<path d="M301.513 63.6328L306.416 69.2343L299.766 68.8833L301.513 63.6328Z" stroke="#2ACAF7" stroke-width="0.5" stroke-linecap="round" stroke-linejoin="round"/>
<path d="M276.48 55.0546L284.883 52.2539L285.407 67.6616L276.48 55.0546Z" stroke="#2ACAF7" stroke-width="0.5" stroke-linecap="round" stroke-linejoin="round"/>
<path d="M278.754 82.1885L287.333 72.9106L285.408 67.6602L278.754 82.1885Z" stroke="#2ACAF7" stroke-width="0.5" stroke-linecap="round" stroke-linejoin="round"/>
<path d="M284.883 52.2539L291.36 57.1534L285.408 67.6616L284.883 52.2539Z" stroke="#2ACAF7" stroke-width="0.5" stroke-linecap="round" stroke-linejoin="round"/>
<path d="M287.333 72.9106L299.766 68.8832L285.408 67.6602L287.333 72.9106Z" stroke="#2ACAF7" stroke-width="0.5" stroke-linecap="round" stroke-linejoin="round"/>
<path d="M291.361 57.1523L299.766 68.8836L285.408 67.6605L291.361 57.1523Z" stroke="#2ACAF7" stroke-width="0.5" stroke-linecap="round" stroke-linejoin="round"/>
<path d="M276.481 55.0547L285.407 67.6616L273.854 65.3856L276.481 55.0547Z" stroke="#2ACAF7" stroke-width="0.5" stroke-linecap="round" stroke-linejoin="round"/>
<path d="M278.753 82.1892L285.407 67.6608L273.854 65.3848L278.753 82.1892Z" stroke="#2ACAF7" stroke-width="0.5" stroke-linecap="round" stroke-linejoin="round"/>
<path d="M255 54.5L267.5 48.5L264.923 61.181L255 54.5Z" stroke="#2ACAF7" stroke-width="0.5" stroke-linecap="round" stroke-linejoin="round"/>
<path d="M267.5 48.5L276.479 55.0548L264.922 61.181L267.5 48.5Z" stroke="#2ACAF7" stroke-width="0.5" stroke-linecap="round" stroke-linejoin="round"/>
<path d="M273.852 65.3856L276.479 55.0547L264.922 61.1808L273.852 65.3856Z" stroke="#2ACAF7" stroke-width="0.5" stroke-linecap="round" stroke-linejoin="round"/>
<path d="M255 54.5L264.922 61.1811L252.844 66.2579L255 54.5Z" stroke="#2ACAF7" stroke-width="0.5" stroke-linecap="round" stroke-linejoin="round"/>
<path d="M243.389 55.5796L255 54.5L252.844 66.2579L243.389 55.5796Z" stroke="#2ACAF7" stroke-width="0.5" stroke-linecap="round" stroke-linejoin="round"/>
<path d="M232.01 52.7773L243.39 55.5781L241.816 65.207L232.01 52.7773Z" stroke="#2ACAF7" stroke-width="0.5" stroke-linecap="round" stroke-linejoin="round"/>
<path d="M243.388 55.5781L252.844 66.2564L241.814 65.207L243.388 55.5781Z" stroke="#2ACAF7" stroke-width="0.5" stroke-linecap="round" stroke-linejoin="round"/>
<path d="M232.009 90.0703L240.415 101.798L228.684 100.047L232.009 90.0703Z" stroke="#2ACAF7" stroke-width="0.5" stroke-linecap="round" stroke-linejoin="round"/>
<path d="M225.5 104.5L228.682 100.048L222 91L225.5 104.5Z" stroke="#2ACAF7" stroke-width="0.5" stroke-linecap="round" stroke-linejoin="round"/>
<path d="M228.684 100.048L232.01 90.0717L227.5 84.5L228.684 100.048Z" stroke="#2ACAF7" stroke-width="0.5" stroke-linecap="round" stroke-linejoin="round"/>
<path d="M219 59.999L232.009 52.7773L223.256 63.6329L219 59.999Z" stroke="#2ACAF7" stroke-width="0.5" stroke-linecap="round" stroke-linejoin="round"/>
<path d="M232.009 52.7773L241.815 65.207L223.256 63.6329L232.009 52.7773Z" stroke="#2ACAF7" stroke-width="0.5" stroke-linecap="round" stroke-linejoin="round"/>
<path d="M223.256 63.6328L219.5 73.999L235.863 71.8613L223.256 63.6328Z" stroke="#2ACAF7" stroke-width="0.5" stroke-linecap="round" stroke-linejoin="round"/>
<path d="M223.256 63.6328L241.815 65.2069L235.863 71.8613L223.256 63.6328Z" stroke="#2ACAF7" stroke-width="0.5" stroke-linecap="round" stroke-linejoin="round"/>
<path d="M232.01 90.0717L235.863 71.8633L242.341 79.0388L232.01 90.0717Z" stroke="#2ACAF7" stroke-width="0.5" stroke-linecap="round" stroke-linejoin="round"/>
<path d="M235.863 71.8615L241.816 65.207L242.34 79.037L235.863 71.8615Z" stroke="#2ACAF7" stroke-width="0.5" stroke-linecap="round" stroke-linejoin="round"/>
<path d="M241.814 65.207L252.844 66.2564L242.339 79.037L241.814 65.207Z" stroke="#2ACAF7" stroke-width="0.5" stroke-linecap="round" stroke-linejoin="round"/>
<path d="M242.34 79.0384L252.844 66.2578L255.996 77.2907L242.34 79.0384Z" stroke="#2ACAF7" stroke-width="0.5" stroke-linecap="round" stroke-linejoin="round"/>
<path d="M252.844 66.2565L264.922 61.1797L255.995 77.2893L252.844 66.2565Z" stroke="#2ACAF7" stroke-width="0.5" stroke-linecap="round" stroke-linejoin="round"/>
<path d="M255.996 77.2893L264.923 61.1797L269.301 77.2893H255.996Z" stroke="#2ACAF7" stroke-width="0.5" stroke-linecap="round" stroke-linejoin="round"/>
<path d="M264.922 61.1797L273.852 65.3844L269.3 77.2893L264.922 61.1797Z" stroke="#2ACAF7" stroke-width="0.5" stroke-linecap="round" stroke-linejoin="round"/>
<path d="M273.853 65.3848L278.752 82.1892L269.301 77.2897L273.853 65.3848Z" stroke="#2ACAF7" stroke-width="0.5" stroke-linecap="round" stroke-linejoin="round"/>
<path d="M255.996 77.2891H269.301L263.523 87.4426L255.996 77.2891Z" stroke="#2ACAF7" stroke-width="0.5" stroke-linecap="round" stroke-linejoin="round"/>
<path d="M268.074 97.7762L279.454 93.0468L263.521 87.4453L268.074 97.7762Z" stroke="#2ACAF7" stroke-width="0.5" stroke-linecap="round" stroke-linejoin="round"/>
<path d="M269.3 77.2891L278.752 82.1885L263.521 87.4426L269.3 77.2891Z" stroke="#2ACAF7" stroke-width="0.5" stroke-linecap="round" stroke-linejoin="round"/>
<path d="M278.752 82.1895L279.454 93.045L263.521 87.4436L278.752 82.1895Z" stroke="#2ACAF7" stroke-width="0.5" stroke-linecap="round" stroke-linejoin="round"/>
<path d="M255.996 77.2891L263.523 87.4426L250.568 89.5414L255.996 77.2891Z" stroke="#2ACAF7" stroke-width="0.5" stroke-linecap="round" stroke-linejoin="round"/>
<path d="M232.01 90.0713L240.416 101.799L250.569 89.543L232.01 90.0713Z" stroke="#2ACAF7" stroke-width="0.5" stroke-linecap="round" stroke-linejoin="round"/>
<path d="M232.01 90.0719L242.341 79.0391L250.569 89.5436L232.01 90.0719Z" stroke="#2ACAF7" stroke-width="0.5" stroke-linecap="round" stroke-linejoin="round"/>
<path d="M242.34 79.0368L255.996 77.2891L250.568 89.5414L242.34 79.0368Z" stroke="#2ACAF7" stroke-width="0.5" stroke-linecap="round" stroke-linejoin="round"/>
<path d="M263.522 87.4453L268.074 97.7762L251.443 96.9005L263.522 87.4453Z" stroke="#2ACAF7" stroke-width="0.5" stroke-linecap="round" stroke-linejoin="round"/>
<path d="M240.414 101.799L250.568 89.543L251.443 96.8994L240.414 101.799Z" stroke="#2ACAF7" stroke-width="0.5" stroke-linecap="round" stroke-linejoin="round"/>
<path d="M250.568 89.5441L263.523 87.4453L251.444 96.9005L250.568 89.5441Z" stroke="#2ACAF7" stroke-width="0.5" stroke-linecap="round" stroke-linejoin="round"/>
<path d="M31.5 73L25 66" stroke="#2ACAF7" stroke-width="0.5"/>
<path d="M19 75.5L25 66L36 46" stroke="#2ACAF7" stroke-width="0.5"/>
<path d="M41 38L44 28.5M44 28.5L59.5 38.5M44 28.5L57.5 22M59.5 38.5L57.5 22M59.5 38.5L71 28.5M57.5 22L71 28.5M57.5 22L74.5 12M71 28.5L69.5 44.5M71 28.5L78 40M71 28.5L72.5909 21M71 28.5H81.5M78 40L81.5 28.5M78 40L87 44M74.5 12H83M74.5 12L72.5909 21M83 12L72.5909 21M83 12L93.5 18M72.5909 21L93.5 18M72.5909 21L81.5 28.5M93.5 18L81.5 28.5M93.5 18L99.5 28M93.5 18L106 28.5M93.5 18L107.5 18.5M81.5 28.5L93.5 42.5M81.5 28.5L87 44M81.5 28.5L99.5 28M93.5 42.5L87 44M93.5 42.5L99.5 28M93.5 42.5L99.5 37.5V28M99.5 28L106 28.5M106 28.5L107.5 18.5M107.5 18.5L115.5 35.5L120.3 23.5M107.5 18.5L120.5 23M107.5 18.5L117 12.5M120.5 23L117 12.5M120.5 23L130.5 32M120.5 23L131.5 20.5M120.5 23L120.3 23.5M117 12.5L127 6.5M130.5 32L131.5 20.5M130.5 32L145 28.1333M131.5 20.5L127 6.5M131.5 20.5L145.5 28M131.5 20.5L142 8.5M127 6.5L120.3 23.5M127 6.5L142 8.5M127 6.5L142.5 0M145.5 28L142 8.5M145.5 28L158.5 13M145.5 28L145 28.1333M145.5 28L161 24M142 8.5L142.5 0M142 8.5L153 2.5M142 8.5L158.5 13M142.5 0L153 2.5M153 2.5L160 3.5L158.5 13M153 2.5L158.5 13M158.5 13L172 21M145 28.1333L166.5 40M166.5 40L161 24M166.5 40L173.5 34M161 24L172 21M161 24L173.5 34M172 21L173.5 34M172 21L178 18.5L181.5 21M172 21H181.5M173.5 34L181.5 21M173.5 34L183.5 28M173.5 34H193M181.5 21L183.5 28M183.5 28L189.5 23.5M189.5 23.5L193 34M189.5 23.5L198 25M193 34L198 25M198 25L207 30M198 25L199.5 34M207 30L199.5 34M207 30L208.5 33M199.5 34L208.5 33M208.5 33L213.5 39M208.5 33L219 30M213.5 39L219 30M213.5 39L232.5 38M219 30L232.5 38M232.5 38L220.5 50.5M232.5 38L235.5 44.5M220.5 50.5L235.5 44.5M220.5 50.5L232 52.5L235.5 44.5M235.5 44.5L243.5 55.5L245.5 51.5M235.5 44.5L245.5 51.5M245.5 51.5L255 54.5" stroke="#2ACAF7" stroke-width="0.5"/>
<path d="M288.5 99.5L297.5 98.5L296 95M296 95L304 96M296 95L300.75 91.5M304 96L305.5 88M304 96L309 95M305.5 88L300.75 91.5M305.5 88L297.5 87.5L300.75 91.5M305.5 88L304.5 85M305.5 88L309 95M305.5 88L314 92.5M309 95L313 96.5L314 92.5M309 95L314 92.5" stroke="#2ACAF7" stroke-width="0.5"/>
<path d="M157.636 122.462L158 119L154 124L157.636 122.462Z" stroke="#2ACAF7" stroke-width="0.5" stroke-linecap="round" stroke-linejoin="round"/>
<path d="M154 124L157.5 122.5L155 129L154 124Z" stroke="#2ACAF7" stroke-width="0.5" stroke-linecap="round" stroke-linejoin="round"/>
<path d="M154.236 124L155 129L151 128.124L154.236 124Z" stroke="#2ACAF7" stroke-width="0.5" stroke-linecap="round" stroke-linejoin="round"/>
<path d="M146.5 130L151 128.272L144 126.5L146.5 130Z" stroke="#2ACAF7" stroke-width="0.5" stroke-linecap="round" stroke-linejoin="round"/>
<path d="M150.532 128L154 124L144 126.5L150.532 128Z" stroke="#2ACAF7" stroke-width="0.5" stroke-linecap="round" stroke-linejoin="round"/>
<path d="M122 120L119 125V119.5L122 120Z" stroke="#2ACAF7" stroke-width="0.5" stroke-linecap="round" stroke-linejoin="round"/>
<path d="M118.925 119.452L122 120L117 116L118.925 119.452Z" stroke="#2ACAF7" stroke-width="0.5" stroke-linecap="round" stroke-linejoin="round"/>
<path d="M108 108.002L111.922 110L118 106L108 108.002Z" stroke="#2ACAF7" stroke-width="0.5" stroke-linecap="round" stroke-linejoin="round"/>
<path d="M112 110.054L114.128 113L118 106L112 110.054Z" stroke="#2ACAF7" stroke-width="0.5" stroke-linecap="round" stroke-linejoin="round"/>
<path d="M114 113.237L116.798 114L118 106L114 113.237Z" stroke="#2ACAF7" stroke-width="0.5" stroke-linecap="round" stroke-linejoin="round"/>
<path d="M117 113.883L117.563 116L131 113L117 113.883Z" stroke="#2ACAF7" stroke-width="0.5" stroke-linecap="round" stroke-linejoin="round"/>
<path d="M117 114L118.123 106L131 113.048L117 114Z" stroke="#2ACAF7" stroke-width="0.5" stroke-linecap="round" stroke-linejoin="round"/>
<path d="M117 116.049L122.053 120L131 113L117 116.049Z" stroke="#2ACAF7" stroke-width="0.5" stroke-linecap="round" stroke-linejoin="round"/>
<path d="M122 120.021L124.155 122L131 113L122 120.021Z" stroke="#2ACAF7" stroke-width="0.5" stroke-linecap="round" stroke-linejoin="round"/>
<path d="M124.186 122L131.24 113L136 122H124.186Z" stroke="#2ACAF7" stroke-width="0.5" stroke-linecap="round" stroke-linejoin="round"/>
<path d="M130 127V134L136 122L130 127Z" stroke="#2ACAF7" stroke-width="0.5" stroke-linecap="round" stroke-linejoin="round"/>
<path d="M130 134L136.5 132L135.668 122L130 134Z" stroke="#2ACAF7" stroke-width="0.5" stroke-linecap="round" stroke-linejoin="round"/>
<path d="M136.5 132L140.5 126.5L136 122L136.5 132Z" stroke="#2ACAF7" stroke-width="0.5" stroke-linecap="round" stroke-linejoin="round"/>
<path d="M140.5 126.547H144L136 122L140.5 126.547Z" stroke="#2ACAF7" stroke-width="0.5" stroke-linecap="round" stroke-linejoin="round"/>
<path d="M144 126.5L154 123.941L144 117V126.5Z" stroke="#2ACAF7" stroke-width="0.5" stroke-linecap="round" stroke-linejoin="round"/>
<path d="M144 117.2L154 124L149 111L144 117.2Z" stroke="#2ACAF7" stroke-width="0.5" stroke-linecap="round" stroke-linejoin="round"/>
<path d="M153.957 124L158 118.8L149 111L153.957 124Z" stroke="#2ACAF7" stroke-width="0.5" stroke-linecap="round" stroke-linejoin="round"/>
<path d="M158.188 119L164 104.5L149 111.341L158.188 119Z" stroke="#2ACAF7" stroke-width="0.5" stroke-linecap="round" stroke-linejoin="round"/>
<path d="M149 111L164 104.5L158 102L149 111Z" stroke="#2ACAF7" stroke-width="0.5" stroke-linecap="round" stroke-linejoin="round"/>
<path d="M149 111L158 102L150.897 101L149 111Z" stroke="#2ACAF7" stroke-width="0.5" stroke-linecap="round" stroke-linejoin="round"/>
<path d="M118 105.73L130.988 113L134 102L118 105.73Z" stroke="#2ACAF7" stroke-width="0.5" stroke-linecap="round" stroke-linejoin="round"/>
<path d="M131 112.501L144 117L134.249 102L131 112.501Z" stroke="#2ACAF7" stroke-width="0.5" stroke-linecap="round" stroke-linejoin="round"/>
<path d="M144 117L149 111.188L134 102L144 117Z" stroke="#2ACAF7" stroke-width="0.5" stroke-linecap="round" stroke-linejoin="round"/>
<path d="M149 111L151 101L134 101.926L149 111Z" stroke="#2ACAF7" stroke-width="0.5" stroke-linecap="round" stroke-linejoin="round"/>
<path d="M19 75.5L15 86M15 86L23.5 85.5L13 92.5M15 86L13 92.5M13 92.5L10.5 100.5M13 92.5L19 95L10.5 100.5M10.5 100.5L8.5 105M10.5 100.5L13 104M8.5 105L13 104M8.5 105L9 114M13 104L9 114M9 114L19 109.5L15.5 123.5M9 114L3 120M9 114L15.5 123.5M3 120L15.5 123.5M3 120L0 127M15.5 123.5L22 114.5M15.5 123.5L7.75 125.25M15.5 123.5L15 131.5M15.5 123.5L22.5 127M22 114.5L22.5 127M22 114.5L26.5 119.5M22 114.5L34 115M22 114.5L31.5 119.5M0 127L3 134.5M0 127L7.75 125.25M3 134.5L7.75 125.25M3 134.5L18.5 135L15 131.5M7.75 125.25L15 131.5M15 131.5L29.5 130.5M29.5 130.5L22.5 127M29.5 130.5L26.5 123M22.5 127L26.5 123M26.5 123V119.5M26.5 123L22.5 122L26.5 119.5M26.5 119.5H31.5M31 109L34 115M34 115L31.5 119.5M38.5 108.5L44.5 113L50.5 109.5" stroke="#2ACAF7" stroke-width="0.5"/>
<path d="M328 23L338 25.4786L336.617 34L328 23Z" stroke="#2ACAF7" stroke-width="0.5" stroke-linecap="round" stroke-linejoin="round"/>
<path d="M338 25.5L347 35L336.5 34L338 25.5Z" stroke="#2ACAF7" stroke-width="0.5" stroke-linecap="round" stroke-linejoin="round"/>
<path d="M295 35L297 47.5L310 38L295 35Z" stroke="#2ACAF7" stroke-width="0.5" stroke-linecap="round" stroke-linejoin="round"/>
<path d="M295 35L299 29.5L310 38L295 35Z" stroke="#2ACAF7" stroke-width="0.5" stroke-linecap="round" stroke-linejoin="round"/>
<path d="M299 29.5L315 27L310 38L299 29.5Z" stroke="#2ACAF7" stroke-width="0.5" stroke-linecap="round" stroke-linejoin="round"/>
<path d="M310 38L315.027 27L321 32.9003L310 38Z" stroke="#2ACAF7" stroke-width="0.5" stroke-linecap="round" stroke-linejoin="round"/>
<path d="M315 27.03L328 23L320.615 33L315 27.03Z" stroke="#2ACAF7" stroke-width="0.5" stroke-linecap="round" stroke-linejoin="round"/>
<path d="M328 23L336.5 34L321 32.607L328 23Z" stroke="#2ACAF7" stroke-width="0.5" stroke-linecap="round" stroke-linejoin="round"/>
<path d="M297 47.5L300.012 59L310 50.3782L297 47.5Z" stroke="#2ACAF7" stroke-width="0.5" stroke-linecap="round" stroke-linejoin="round"/>
<path d="M297 47.5699L309.525 38L310 50L297 47.5699Z" stroke="#2ACAF7" stroke-width="0.5" stroke-linecap="round" stroke-linejoin="round"/>
<path d="M300 58.4037L308.255 60L310 50L300 58.4037Z" stroke="#2ACAF7" stroke-width="0.5" stroke-linecap="round" stroke-linejoin="round"/>
<path d="M308 60L317.5 56L309.706 50L308 60Z" stroke="#2ACAF7" stroke-width="0.5" stroke-linecap="round" stroke-linejoin="round"/>
<path d="M310 38L310.445 50L321 45.1397L310 38Z" stroke="#2ACAF7" stroke-width="0.5" stroke-linecap="round" stroke-linejoin="round"/>
<path d="M310 37.8603L320.404 33L321 45L310 37.8603Z" stroke="#2ACAF7" stroke-width="0.5" stroke-linecap="round" stroke-linejoin="round"/>
<path d="M310 50.0275L317.5 56L321 45L310 50.0275Z" stroke="#2ACAF7" stroke-width="0.5" stroke-linecap="round" stroke-linejoin="round"/>
<path d="M317.5 56H328.001L320.774 45L317.5 56Z" stroke="#2ACAF7" stroke-width="0.5" stroke-linecap="round" stroke-linejoin="round"/>
<path d="M321 33V45.1193L332 40L321 33Z" stroke="#2ACAF7" stroke-width="0.5" stroke-linecap="round" stroke-linejoin="round"/>
<path d="M321 33L336.5 34L331.868 40L321 33Z" stroke="#2ACAF7" stroke-width="0.5" stroke-linecap="round" stroke-linejoin="round"/>
<path d="M321 44.9221L328 56L332 40L321 44.9221Z" stroke="#2ACAF7" stroke-width="0.5" stroke-linecap="round" stroke-linejoin="round"/>
<path d="M328 56L332 40L337 46.3052L328 56Z" stroke="#2ACAF7" stroke-width="0.5" stroke-linecap="round" stroke-linejoin="round"/>
<path d="M332 39.7739L336.595 34L337 46L332 39.7739Z" stroke="#2ACAF7" stroke-width="0.5" stroke-linecap="round" stroke-linejoin="round"/>
<path d="M336.5 34L347 34.9105L337 46L336.5 34Z" stroke="#2ACAF7" stroke-width="0.5" stroke-linecap="round" stroke-linejoin="round"/>
<path d="M337 46L346.5 35.5L349 44.4958L337 46Z" stroke="#2ACAF7" stroke-width="0.5" stroke-linecap="round" stroke-linejoin="round"/>
<path d="M328 56L336.906 46L344 55.5212L328 56Z" stroke="#2ACAF7" stroke-width="0.5" stroke-linecap="round" stroke-linejoin="round"/>
<path d="M337 46.4265L349 45L344.231 55L337 46.4265Z" stroke="#2ACAF7" stroke-width="0.5" stroke-linecap="round" stroke-linejoin="round"/>
<path d="M308 60L318 63M318 63L317.5 56L326.5 58.5M318 63L326.5 58.5M326.5 58.5L333 56" stroke="#2ACAF7" stroke-width="0.5"/>
<path d="M78 158L84 160.866L80.5748 165L78 158Z" stroke="#2ACAF7" stroke-width="0.5" stroke-linecap="round" stroke-linejoin="round"/>
<path d="M105 144.5L113 144.866L109.575 149L105 144.5Z" stroke="#2ACAF7" stroke-width="0.5" stroke-linecap="round" stroke-linejoin="round"/>
<path d="M226 10.5L239 11.5L233.862 18L226 10.5Z" stroke="#2ACAF7" stroke-width="0.5" stroke-linecap="round" stroke-linejoin="round"/>
<path d="M96 184L100 185L97.5 189L96 184Z" stroke="#2ACAF7" stroke-width="0.5" stroke-linecap="round" stroke-linejoin="round"/>
<path d="M78 167.142L84 170L80.2529 165L78 167.142Z" stroke="#2ACAF7" stroke-width="0.5" stroke-linecap="round" stroke-linejoin="round"/>
<path d="M104 151L113 154L110 149L104 151Z" stroke="#2ACAF7" stroke-width="0.5" stroke-linecap="round" stroke-linejoin="round"/>
<path d="M225 21L239.5 25.5L233.5 18.5L225 21Z" stroke="#2ACAF7" stroke-width="0.5" stroke-linecap="round" stroke-linejoin="round"/>
<path d="M96 190.5L100 192.5L97.5019 189L96 190.5Z" stroke="#2ACAF7" stroke-width="0.5" stroke-linecap="round" stroke-linejoin="round"/>
<path d="M77.9972 158L81 165L76 163.094L77.9972 158Z" stroke="#2ACAF7" stroke-width="0.5" stroke-linecap="round" stroke-linejoin="round"/>
<path d="M105 144.5L110 149L100.5 147.5L105 144.5Z" stroke="#2ACAF7" stroke-width="0.5" stroke-linecap="round" stroke-linejoin="round"/>
<path d="M226 10.5L234 18L219.5 15.5L226 10.5Z" stroke="#2ACAF7" stroke-width="0.5" stroke-linecap="round" stroke-linejoin="round"/>
<path d="M96 184L97.5 189L94 187.5L96 184Z" stroke="#2ACAF7" stroke-width="0.5" stroke-linecap="round" stroke-linejoin="round"/>
<path d="M78.9959 167L81 165L76 163L78.9959 167Z" stroke="#2ACAF7" stroke-width="0.5" stroke-linecap="round" stroke-linejoin="round"/>
<path d="M104 151L110 149L100.5 147.5L104 151Z" stroke="#2ACAF7" stroke-width="0.5" stroke-linecap="round" stroke-linejoin="round"/>
<path d="M225 21L234 18.1429L219.5 15.5L225 21Z" stroke="#2ACAF7" stroke-width="0.5" stroke-linecap="round" stroke-linejoin="round"/>
<path d="M96 190.5L97.5 189L94 187.5L96 190.5Z" stroke="#2ACAF7" stroke-width="0.5" stroke-linecap="round" stroke-linejoin="round"/>
<path d="M81 165.058L84.5 170L88 164L81 165.058Z" stroke="#2ACAF7" stroke-width="0.5" stroke-linecap="round" stroke-linejoin="round"/>
<path d="M110 149.058L113.5 154L117 148L110 149.058Z" stroke="#2ACAF7" stroke-width="0.5" stroke-linecap="round" stroke-linejoin="round"/>
<path d="M233.5 18L239.5 25L245 16L233.5 18Z" stroke="#2ACAF7" stroke-width="0.5" stroke-linecap="round" stroke-linejoin="round"/>
<path d="M81 165L85.1942 162L88 164.308L81 165Z" stroke="#2ACAF7" stroke-width="0.5" stroke-linecap="round" stroke-linejoin="round"/>
<path d="M84 160.667L90 159L86.8287 164L84 160.667Z" stroke="#2ACAF7" stroke-width="0.5" stroke-linecap="round" stroke-linejoin="round"/>
<path d="M113 145L118.5 143L117 148.5L113 145Z" stroke="#2ACAF7" stroke-width="0.5" stroke-linecap="round" stroke-linejoin="round"/>
<path d="M239 11.5L247 9L244.5 16L239 11.5Z" stroke="#2ACAF7" stroke-width="0.5" stroke-linecap="round" stroke-linejoin="round"/>
<path d="M100 185L105 186L101.5 188.5L100 185Z" stroke="#2ACAF7" stroke-width="0.5" stroke-linecap="round" stroke-linejoin="round"/>
<path d="M97.5 189L101.5 188.5L105 189.5M105 189.5L103.5 193M105 189.5V186" stroke="#2ACAF7" stroke-width="0.5"/>
<path d="M90.5694 159L98 165L88 164.001L90.5694 159Z" stroke="#2ACAF7" stroke-width="0.5" stroke-linecap="round" stroke-linejoin="round"/>
<path d="M118.5 143L130 151L117 148.001L118.5 143Z" stroke="#2ACAF7" stroke-width="0.5" stroke-linecap="round" stroke-linejoin="round"/>
<path d="M247.191 9L263.999 21L244.5 16L247.191 9Z" stroke="#2ACAF7" stroke-width="0.5" stroke-linecap="round" stroke-linejoin="round"/>
<path d="M95.7141 170L98 165.058L88 164L95.7141 170Z" stroke="#2ACAF7" stroke-width="0.5" stroke-linecap="round" stroke-linejoin="round"/>
<path d="M130 155.5V151L117 148L130 155.5Z" stroke="#2ACAF7" stroke-width="0.5" stroke-linecap="round" stroke-linejoin="round"/>
<path d="M264 28V21L245 16L264 28Z" stroke="#2ACAF7" stroke-width="0.5" stroke-linecap="round" stroke-linejoin="round"/>
<path d="M84 169.95L87.16 164L90 171L84 169.95Z" stroke="#2ACAF7" stroke-width="0.5" stroke-linecap="round" stroke-linejoin="round"/>
<path d="M113 153.95L117 148L119.5 155L113 153.95Z" stroke="#2ACAF7" stroke-width="0.5" stroke-linecap="round" stroke-linejoin="round"/>
<path d="M239 25.3506L244.5 16.5L248 27L239 25.3506Z" stroke="#2ACAF7" stroke-width="0.5" stroke-linecap="round" stroke-linejoin="round"/>
<path d="M100 192.5L101.5 188.5L103.5 193L100 192.5Z" stroke="#2ACAF7" stroke-width="0.5" stroke-linecap="round" stroke-linejoin="round"/>
<path d="M88 164L96 169.95L90.6646 171L88 164Z" stroke="#2ACAF7" stroke-width="0.5" stroke-linecap="round" stroke-linejoin="round"/>
<path d="M117 148L125 152.5L119.665 155L117 148Z" stroke="#2ACAF7" stroke-width="0.5" stroke-linecap="round" stroke-linejoin="round"/>
<path d="M244.5 16L264 28L248 27L244.5 16Z" stroke="#2ACAF7" stroke-width="0.5" stroke-linecap="round" stroke-linejoin="round"/>
<path d="M89.9105 183.379L89.6623 180.905L86.9373 180.16L89.9105 183.379Z" stroke="#2ACAF7" stroke-width="0.5" stroke-linecap="round" stroke-linejoin="round"/>
<path d="M86.9375 180.16L89.6625 180.905L90.1563 177.192L86.9375 180.16Z" stroke="#2ACAF7" stroke-width="0.5" stroke-linecap="round" stroke-linejoin="round"/>
<path d="M90.1562 177.191L92.1367 176.199L95.3555 174.464L90.1562 177.191Z" stroke="#2ACAF7" stroke-width="0.5" stroke-linecap="round" stroke-linejoin="round"/>
<path d="M92.1367 176.199L95.3555 174.464L96.965 176.821L92.1367 176.199Z" stroke="#2ACAF7" stroke-width="0.5" stroke-linecap="round" stroke-linejoin="round"/>
<path d="M89.91 183.379L89.6619 180.905L93.7455 179.543L89.91 183.379Z" stroke="#2ACAF7" stroke-width="0.5" stroke-linecap="round" stroke-linejoin="round"/>
<path d="M89.6621 180.906L90.156 177.194L93.7458 179.545L89.6621 180.906Z" stroke="#2ACAF7" stroke-width="0.5" stroke-linecap="round" stroke-linejoin="round"/>
<path d="M90.1562 177.191L92.1367 176.199L93.7461 179.543L90.1562 177.191Z" stroke="#2ACAF7" stroke-width="0.5" stroke-linecap="round" stroke-linejoin="round"/>
<path d="M92.1369 176.199L96.9651 176.821L93.7463 179.543L92.1369 176.199Z" stroke="#2ACAF7" stroke-width="0.5" stroke-linecap="round" stroke-linejoin="round"/>
<path d="M131.861 162.678L126.433 163.928L128.403 168.03L131.861 162.678Z" stroke="#2ACAF7" stroke-width="0.5" stroke-linecap="round" stroke-linejoin="round"/>
<path d="M194.354 151.281L188.776 152.566L190.8 156.781L194.354 151.281Z" stroke="#2ACAF7" stroke-width="0.5" stroke-linecap="round" stroke-linejoin="round"/>
<path d="M130.101 170.188L125.685 171.501L129.03 168.177L130.101 170.188Z" stroke="#2ACAF7" stroke-width="0.5" stroke-linecap="round" stroke-linejoin="round"/>
<path d="M192.544 158.999L188.006 160.349L191.443 156.933L192.544 158.999Z" stroke="#2ACAF7" stroke-width="0.5" stroke-linecap="round" stroke-linejoin="round"/>
<path d="M132.253 162.768L128.545 168.062L132.812 167.384L132.253 162.768Z" stroke="#2ACAF7" stroke-width="0.5" stroke-linecap="round" stroke-linejoin="round"/>
<path d="M194.755 151.375L190.945 156.814L195.33 156.118L194.755 151.375Z" stroke="#2ACAF7" stroke-width="0.5" stroke-linecap="round" stroke-linejoin="round"/>
<path d="M129.648 170.376L128.429 168.55L132.666 168.002L129.648 170.376Z" stroke="#2ACAF7" stroke-width="0.5" stroke-linecap="round" stroke-linejoin="round"/>
<path d="M192.079 159.191L190.826 157.315L195.18 156.752L192.079 159.191Z" stroke="#2ACAF7" stroke-width="0.5" stroke-linecap="round" stroke-linejoin="round"/>
<path d="M128.57 167.949L125.196 171.387L123.903 165.949L128.57 167.949Z" stroke="#2ACAF7" stroke-width="0.5" stroke-linecap="round" stroke-linejoin="round"/>
<path d="M190.971 156.697L187.504 160.23L186.176 154.642L190.971 156.697Z" stroke="#2ACAF7" stroke-width="0.5" stroke-linecap="round" stroke-linejoin="round"/>
<path d="M128.544 168.061L126.312 164.457L123.834 166.247L128.544 168.061Z" stroke="#2ACAF7" stroke-width="0.5" stroke-linecap="round" stroke-linejoin="round"/>
<path d="M190.945 156.814L188.651 153.11L186.105 154.949L190.945 156.814Z" stroke="#2ACAF7" stroke-width="0.5" stroke-linecap="round" stroke-linejoin="round"/>
<path d="M126.459 163.808L122.869 161.597L124.015 165.974L126.459 163.808Z" stroke="#2ACAF7" stroke-width="0.5" stroke-linecap="round" stroke-linejoin="round"/>
<path d="M188.803 152.443L185.114 150.171L186.291 154.669L188.803 152.443Z" stroke="#2ACAF7" stroke-width="0.5" stroke-linecap="round" stroke-linejoin="round"/>
<path d="M122.565 161.527L114.913 164.869L123.865 166.112L122.565 161.527Z" stroke="#2ACAF7" stroke-width="0.5" stroke-linecap="round" stroke-linejoin="round"/>
<path d="M184.8 150.098L177 153.5L186.136 154.81L184.8 150.098Z" stroke="#2ACAF7" stroke-width="0.5" stroke-linecap="round" stroke-linejoin="round"/>
<path d="M116.004 169.233L114.94 164.754L123.904 165.949L116.004 169.233Z" stroke="#2ACAF7" stroke-width="0.5" stroke-linecap="round" stroke-linejoin="round"/>
<path d="M177 157.499L176.967 153.413L186.178 154.641L177 157.499Z" stroke="#2ACAF7" stroke-width="0.5" stroke-linecap="round" stroke-linejoin="round"/>
<path d="M125.854 170.771L124.26 166.032L120.815 170.36L125.854 170.771Z" stroke="#2ACAF7" stroke-width="0.5" stroke-linecap="round" stroke-linejoin="round"/>
<path d="M188.181 159.598L186.543 154.728L183.003 159.175L188.181 159.598Z" stroke="#2ACAF7" stroke-width="0.5" stroke-linecap="round" stroke-linejoin="round"/>
<path d="M123.904 165.949L116.119 168.49L120.493 170.285L123.904 165.949Z" stroke="#2ACAF7" stroke-width="0.5" stroke-linecap="round" stroke-linejoin="round"/>
<path d="M186.178 154.641L177 157.499L182.673 159.096L186.178 154.641Z" stroke="#2ACAF7" stroke-width="0.5" stroke-linecap="round" stroke-linejoin="round"/>
<path d="M143.832 162.139L146.189 164.247L142.882 167.175L143.832 162.139Z" stroke="#2ACAF7" stroke-width="0.5" stroke-linecap="round" stroke-linejoin="round"/>
<path d="M141.34 167.909L143.414 170.672L142.884 167.175L141.34 167.909Z" stroke="#2ACAF7" stroke-width="0.5" stroke-linecap="round" stroke-linejoin="round"/>
<path d="M143.57 162.026L142.767 167.126L140.608 164.559L143.57 162.026Z" stroke="#2ACAF7" stroke-width="0.5" stroke-linecap="round" stroke-linejoin="round"/>
<path d="M141.19 167.533L142.966 166.667L140.807 164.1L141.19 167.533Z" stroke="#2ACAF7" stroke-width="0.5" stroke-linecap="round" stroke-linejoin="round"/>
<path d="M146.189 164.246L149.521 166.62L146.101 167.476L146.189 164.246Z" stroke="#2ACAF7" stroke-width="0.5" stroke-linecap="round" stroke-linejoin="round"/>
<path d="M142.937 166.732L146.045 167.607L148.275 169.505M148.275 169.505L145.983 171.783M148.275 169.505L149.465 166.751" stroke="#2ACAF7" stroke-width="0.5"/>
<path d="M143.59 170.264L146.18 167.51L146.167 171.862L143.59 170.264Z" stroke="#2ACAF7" stroke-width="0.5" stroke-linecap="round" stroke-linejoin="round"/>
<path d="M83.5 115.5L92 123L76 117.522L83.5 115.5Z" stroke="#2ACAF7" stroke-width="0.5" stroke-linecap="round" stroke-linejoin="round"/>
<path d="M41 115L43.509 126L48 119.917L41 115Z" stroke="#2ACAF7" stroke-width="0.5" stroke-linecap="round" stroke-linejoin="round"/>
<path d="M60 116.947L72 114L65 131L60 116.947Z" stroke="#2ACAF7" stroke-width="0.5" stroke-linecap="round" stroke-linejoin="round"/>
<path d="M48 119.785L60 117L53.5914 128L48 119.785Z" stroke="#2ACAF7" stroke-width="0.5" stroke-linecap="round" stroke-linejoin="round"/>
<path d="M60.0254 117L65 131.5L54 128L60.0254 117Z" stroke="#2ACAF7" stroke-width="0.5" stroke-linecap="round" stroke-linejoin="round"/>
<path d="M44 126L54 127.691L52.2667 136L44 126Z" stroke="#2ACAF7" stroke-width="0.5" stroke-linecap="round" stroke-linejoin="round"/>
<path d="M37 139.5L42.5 147.5L50 143L37 139.5Z" stroke="#2ACAF7" stroke-width="0.5" stroke-linecap="round" stroke-linejoin="round"/>
<path d="M37 139.5L50 143.028L42.1164 136L37 139.5Z" stroke="#2ACAF7" stroke-width="0.5" stroke-linecap="round" stroke-linejoin="round"/>
<path d="M43.5062 126L52 135.859L42 136L43.5062 126Z" stroke="#2ACAF7" stroke-width="0.5" stroke-linecap="round" stroke-linejoin="round"/>
<path d="M49.9445 143L52 136L42 136.134L49.9445 143Z" stroke="#2ACAF7" stroke-width="0.5" stroke-linecap="round" stroke-linejoin="round"/>
<path d="M42.5 147.5L49.5105 143L51.5 157.5L42.5 147.5Z" stroke="#2ACAF7" stroke-width="0.5" stroke-linecap="round" stroke-linejoin="round"/>
<path d="M63.5 155L74 154.26L71.895 147L63.5 155Z" stroke="#2ACAF7" stroke-width="0.5" stroke-linecap="round" stroke-linejoin="round"/>
<path d="M50 143L51.9572 136L65 139.433L50 143Z" stroke="#2ACAF7" stroke-width="0.5" stroke-linecap="round" stroke-linejoin="round"/>
<path d="M50 142.683L51.5 157.5L65 139L50 142.683Z" stroke="#2ACAF7" stroke-width="0.5" stroke-linecap="round" stroke-linejoin="round"/>
<path d="M51.5 157.5L64 155L65 139L51.5 157.5Z" stroke="#2ACAF7" stroke-width="0.5" stroke-linecap="round" stroke-linejoin="round"/>
<path d="M52 136L53.7792 128L65 131.389L52 136Z" stroke="#2ACAF7" stroke-width="0.5" stroke-linecap="round" stroke-linejoin="round"/>
<path d="M65 131L78 129.267L75.5058 123L65 131Z" stroke="#2ACAF7" stroke-width="0.5" stroke-linecap="round" stroke-linejoin="round"/>
<path d="M72 114L76 117.819L75.2216 123L72 114Z" stroke="#2ACAF7" stroke-width="0.5" stroke-linecap="round" stroke-linejoin="round"/>
<path d="M77.5899 129L92 123H75L77.5899 129Z" stroke="#2ACAF7" stroke-width="0.5" stroke-linecap="round" stroke-linejoin="round"/>
<path d="M78 128.832L92 123L85.5 130L78 128.832Z" stroke="#2ACAF7" stroke-width="0.5" stroke-linecap="round" stroke-linejoin="round"/>
<path d="M78 129L85.5 130L80.6417 140L78 129Z" stroke="#2ACAF7" stroke-width="0.5" stroke-linecap="round" stroke-linejoin="round"/>
<path d="M65 131L65.6339 139.059L74 140L65 131Z" stroke="#2ACAF7" stroke-width="0.5" stroke-linecap="round" stroke-linejoin="round"/>
<path d="M65 139L71.681 147L74 140.001L65 139Z" stroke="#2ACAF7" stroke-width="0.5" stroke-linecap="round" stroke-linejoin="round"/>
<path d="M72 147L81 140.428L74.3552 140L72 147Z" stroke="#2ACAF7" stroke-width="0.5" stroke-linecap="round" stroke-linejoin="round"/>
<path d="M78.0818 129L81 140L74 139.603L78.0818 129Z" stroke="#2ACAF7" stroke-width="0.5" stroke-linecap="round" stroke-linejoin="round"/>
<path d="M72 147L74.157 154L84 148.781L72 147Z" stroke="#2ACAF7" stroke-width="0.5" stroke-linecap="round" stroke-linejoin="round"/>
<path d="M72 146.787L80.7645 140L84 149L72 146.787Z" stroke="#2ACAF7" stroke-width="0.5" stroke-linecap="round" stroke-linejoin="round"/>
<path d="M81 140.552L84.1168 149L91 140L81 140.552Z" stroke="#2ACAF7" stroke-width="0.5" stroke-linecap="round" stroke-linejoin="round"/>
<path d="M81 140L85.5 130L93.5 134.5L81 140Z" stroke="#2ACAF7" stroke-width="0.5" stroke-linecap="round" stroke-linejoin="round"/>
<path d="M164 104.5L172 114.5M172 114.5L168 104.5L180.5 107M172 114.5L180.5 107M172 114.5L159 116.5L173 122.5M172 114.5L173 122.5M180.5 107L173 122.5M180.5 107L184.5 120M173 122.5H157.5L171 127.5M173 122.5L171 127.5M173 122.5L180.5 130.5M173 122.5L184.5 128M173 122.5L184.5 120M171 127.5L180.5 130.5M180.5 130.5L184.5 128M184.5 128V120M184.5 128L193.5 124L184.5 120" stroke="#2ACAF7" stroke-width="0.5"/>
<path d="M184.5 120L191 111M191 111L201 105M191 111L190.5 110.833M191 111L193.5 124L203.5 116M180.5 107.5L190.5 110.833M201 105L203.5 116M201 105L222.5 107.5M203.5 116L190.5 110.833M203.5 116L222.5 107.5M222.5 107.5L225.5 104.5L231 106M222.5 107.5L231 106M231 106L240.5 102M231 106L228.5 100" stroke="#2ACAF7" stroke-width="0.5"/>
<path d="M169.256 156L171.613 158.108L168.5 160.5L169.256 156Z" stroke="#2ACAF7" stroke-width="0.5" stroke-linecap="round" stroke-linejoin="round"/>
<path d="M171.613 158.109L174.945 160.483L171.525 161.339L171.613 158.109Z" stroke="#2ACAF7" stroke-width="0.5" stroke-linecap="round" stroke-linejoin="round"/>
<path d="M168.361 160.595L171.468 161.471L173.699 163.368L174.889 160.614" stroke="#2ACAF7" stroke-width="0.5"/>
</g>
<defs>
<clipPath id="clip0">
<rect width="349" height="193.186" fill="white"/>
</clipPath>
</defs>
</svg>
