<svg width="349" height="464" viewBox="0 0 349 464" fill="none" xmlns="http://www.w3.org/2000/svg">
<path d="M157.4 22.0393L159.732 9.66602L165.173 26.6793L157.4 22.0393Z" stroke="#2ACAF7" stroke-width="0.5" stroke-linecap="round" stroke-linejoin="round"/>
<path d="M186.158 36.7334L200.149 29.7734L197.04 42.1468L186.158 36.7334Z" stroke="#2ACAF7" stroke-width="0.5" stroke-linecap="round" stroke-linejoin="round"/>
<path d="M186.158 36.7344L197.04 42.1477L187.713 50.6544L186.158 36.7344Z" stroke="#2ACAF7" stroke-width="0.5" stroke-linecap="round" stroke-linejoin="round"/>
<path d="M193.154 60.7061L204.036 53.7461L212.586 59.1594L193.154 60.7061Z" stroke="#2ACAF7" stroke-width="0.5" stroke-linecap="round" stroke-linejoin="round"/>
<path d="M250.674 25.9057L264.665 28.2257L275.547 22.0391L250.674 25.9057Z" stroke="#2ACAF7" stroke-width="0.5" stroke-linecap="round" stroke-linejoin="round"/>
<path d="M264.664 28.2257L281.764 35.1857L275.546 22.0391L264.664 28.2257Z" stroke="#2ACAF7" stroke-width="0.5" stroke-linecap="round" stroke-linejoin="round"/>
<path d="M275.547 22.04L280.988 14.3066L293.424 32.0933L275.547 22.04Z" stroke="#2ACAF7" stroke-width="0.5" stroke-linecap="round" stroke-linejoin="round"/>
<path d="M275.547 22.0391L281.765 35.1857L293.424 32.0924L275.547 22.0391Z" stroke="#2ACAF7" stroke-width="0.5" stroke-linecap="round" stroke-linejoin="round"/>
<path d="M247.564 33.6399L264.665 28.2266L284.097 46.7866L247.564 33.6399Z" stroke="#2ACAF7" stroke-width="0.5" stroke-linecap="round" stroke-linejoin="round"/>
<path d="M264.664 28.2266L281.764 35.1866L284.096 46.7866L264.664 28.2266Z" stroke="#2ACAF7" stroke-width="0.5" stroke-linecap="round" stroke-linejoin="round"/>
<path d="M284.098 46.7866L297.311 42.9199L299.643 62.2533L284.098 46.7866Z" stroke="#2ACAF7" stroke-width="0.5" stroke-linecap="round" stroke-linejoin="round"/>
<path d="M297.311 42.9199L309.747 56.0666L299.642 62.2533L297.311 42.9199Z" stroke="#2ACAF7" stroke-width="0.5" stroke-linecap="round" stroke-linejoin="round"/>
<path d="M299.643 62.2531L309.747 56.0664L312.856 67.6664L299.643 62.2531Z" stroke="#2ACAF7" stroke-width="0.5" stroke-linecap="round" stroke-linejoin="round"/>
<path d="M313.633 121.027L332.288 138.041L328.401 146.547L313.633 121.027Z" stroke="#2ACAF7" stroke-width="0.5" stroke-linecap="round" stroke-linejoin="round"/>
<path d="M328.402 146.547L338.507 165.107L334.621 182.12L328.402 146.547Z" stroke="#2ACAF7" stroke-width="0.5" stroke-linecap="round" stroke-linejoin="round"/>
<path d="M334.621 182.119L340.839 195.266V201.452L334.621 182.119Z" stroke="#2ACAF7" stroke-width="0.5" stroke-linecap="round" stroke-linejoin="round"/>
<path d="M332.289 240.893L340.839 201.453L348.612 223.106L332.289 240.893Z" stroke="#2ACAF7" stroke-width="0.5" stroke-linecap="round" stroke-linejoin="round"/>
<path d="M332.289 240.894L344.726 244.761L348.612 223.107L332.289 240.894Z" stroke="#2ACAF7" stroke-width="0.5" stroke-linecap="round" stroke-linejoin="round"/>
<path d="M340.838 201.453L347.833 210.733L348.611 223.106L340.838 201.453Z" stroke="#2ACAF7" stroke-width="0.5" stroke-linecap="round" stroke-linejoin="round"/>
<path d="M332.288 240.893L340.838 201.453L320.629 241.666L332.288 240.893Z" stroke="#2ACAF7" stroke-width="0.5" stroke-linecap="round" stroke-linejoin="round"/>
<path d="M249.896 288.84L260.001 275.693L243.678 280.333L249.896 288.84Z" stroke="#2ACAF7" stroke-width="0.5" stroke-linecap="round" stroke-linejoin="round"/>
<path d="M243.678 280.334L249.896 288.841L247.564 295.027L243.678 280.334Z" stroke="#2ACAF7" stroke-width="0.5" stroke-linecap="round" stroke-linejoin="round"/>
<path d="M247.564 295.027L257.669 303.534L253.005 313.587L247.564 295.027Z" stroke="#2ACAF7" stroke-width="0.5" stroke-linecap="round" stroke-linejoin="round"/>
<path d="M290.314 353.027L303.528 364.627L300.419 380.867L290.314 353.027Z" stroke="#2ACAF7" stroke-width="0.5" stroke-linecap="round" stroke-linejoin="round"/>
<path d="M303.529 364.627L312.856 386.28L300.42 380.867L303.529 364.627Z" stroke="#2ACAF7" stroke-width="0.5" stroke-linecap="round" stroke-linejoin="round"/>
<path d="M273.215 441.186L280.21 428.039L284.097 451.239L273.215 441.186Z" stroke="#2ACAF7" stroke-width="0.5" stroke-linecap="round" stroke-linejoin="round"/>
<path d="M272.437 414.119L280.21 428.039L263.109 440.412L272.437 414.119Z" stroke="#2ACAF7" stroke-width="0.5" stroke-linecap="round" stroke-linejoin="round"/>
<path d="M273.214 441.186L280.21 428.039L263.109 440.412L273.214 441.186Z" stroke="#2ACAF7" stroke-width="0.5" stroke-linecap="round" stroke-linejoin="round"/>
<path d="M273.214 441.187L284.096 451.241L263.109 440.414L273.214 441.187Z" stroke="#2ACAF7" stroke-width="0.5" stroke-linecap="round" stroke-linejoin="round"/>
<path d="M263.11 440.412L272.438 414.119L249.896 434.999L263.11 440.412Z" stroke="#2ACAF7" stroke-width="0.5" stroke-linecap="round" stroke-linejoin="round"/>
<path d="M249.896 435L263.11 440.413L246.01 443.507L249.896 435Z" stroke="#2ACAF7" stroke-width="0.5" stroke-linecap="round" stroke-linejoin="round"/>
<path d="M246.01 443.507L249.896 435L225.023 448.147L246.01 443.507Z" stroke="#2ACAF7" stroke-width="0.5" stroke-linecap="round" stroke-linejoin="round"/>
<path d="M200.927 458.973L211.809 455.88L191.6 449.693L200.927 458.973Z" stroke="#2ACAF7" stroke-width="0.5" stroke-linecap="round" stroke-linejoin="round"/>
<path d="M178.386 448.146L191.6 449.693L165.949 463.613L178.386 448.146Z" stroke="#2ACAF7" stroke-width="0.5" stroke-linecap="round" stroke-linejoin="round"/>
<path d="M165.95 463.613L178.387 448.146H151.182L165.95 463.613Z" stroke="#2ACAF7" stroke-width="0.5" stroke-linecap="round" stroke-linejoin="round"/>
<path d="M90.5527 441.187L102.212 434.227L98.3256 445.827L90.5527 441.187Z" stroke="#2ACAF7" stroke-width="0.5" stroke-linecap="round" stroke-linejoin="round"/>
<path d="M102.213 434.227L120.867 438.093L98.3262 445.827L102.213 434.227Z" stroke="#2ACAF7" stroke-width="0.5" stroke-linecap="round" stroke-linejoin="round"/>
<path d="M90.5536 441.188L98.3265 445.828L77.3398 445.054L90.5536 441.188Z" stroke="#2ACAF7" stroke-width="0.5" stroke-linecap="round" stroke-linejoin="round"/>
<path d="M57.1309 445.827L77.3402 445.054L59.4627 424.947L57.1309 445.827Z" stroke="#2ACAF7" stroke-width="0.5" stroke-linecap="round" stroke-linejoin="round"/>
<path d="M32.2574 342.973L54.0214 349.159L27.5938 346.066L32.2574 342.973Z" stroke="#2ACAF7" stroke-width="0.5" stroke-linecap="round" stroke-linejoin="round"/>
<path d="M27.5927 346.066L32.2564 342.973L14.3789 327.506L27.5927 346.066Z" stroke="#2ACAF7" stroke-width="0.5" stroke-linecap="round" stroke-linejoin="round"/>
<path d="M14.3789 327.507L32.2564 342.974L19.8199 308.947L14.3789 327.507Z" stroke="#2ACAF7" stroke-width="0.5" stroke-linecap="round" stroke-linejoin="round"/>
<path d="M32.2568 342.974L54.0208 349.161L19.8203 308.947L32.2568 342.974Z" stroke="#2ACAF7" stroke-width="0.5" stroke-linecap="round" stroke-linejoin="round"/>
<path d="M4.27539 291.933L19.821 308.947L16.7119 274.92L4.27539 291.933Z" stroke="#2ACAF7" stroke-width="0.5" stroke-linecap="round" stroke-linejoin="round"/>
<path d="M0.388672 230.841L5.82965 244.761L13.6025 223.881L0.388672 230.841Z" stroke="#2ACAF7" stroke-width="0.5" stroke-linecap="round" stroke-linejoin="round"/>
<path d="M0.388672 230.84L13.6025 223.88L15.157 206.094L0.388672 230.84Z" stroke="#2ACAF7" stroke-width="0.5" stroke-linecap="round" stroke-linejoin="round"/>
<path d="M8.16211 182.894L15.1577 206.094L40.808 179.027L8.16211 182.894Z" stroke="#2ACAF7" stroke-width="0.5" stroke-linecap="round" stroke-linejoin="round"/>
<path d="M37.6992 168.2L40.8083 179.026L50.913 155.826L37.6992 168.2Z" stroke="#2ACAF7" stroke-width="0.5" stroke-linecap="round" stroke-linejoin="round"/>
<path d="M37.6992 140.361L50.913 155.828L50.1357 137.268L37.6992 140.361Z" stroke="#2ACAF7" stroke-width="0.5" stroke-linecap="round" stroke-linejoin="round"/>
<path d="M37.6992 140.361L50.1357 137.267L57.1313 120.254L37.6992 140.361Z" stroke="#2ACAF7" stroke-width="0.5" stroke-linecap="round" stroke-linejoin="round"/>
<path d="M57.1305 120.254L63.3488 91.6404L52.4668 90.0938L57.1305 120.254Z" stroke="#2ACAF7" stroke-width="0.5" stroke-linecap="round" stroke-linejoin="round"/>
<path d="M52.4668 90.0934L63.3488 91.6401L60.2396 73.0801L52.4668 90.0934Z" stroke="#2ACAF7" stroke-width="0.5" stroke-linecap="round" stroke-linejoin="round"/>
<path d="M60.2402 73.08L63.3494 91.64L90.5543 72.3066L60.2402 73.08Z" stroke="#2ACAF7" stroke-width="0.5" stroke-linecap="round" stroke-linejoin="round"/>
<path d="M57.1309 120.254L63.3491 91.6403L90.554 89.3203L57.1309 120.254Z" stroke="#2ACAF7" stroke-width="0.5" stroke-linecap="round" stroke-linejoin="round"/>
<path d="M63.3496 91.64L90.5545 72.3066V89.32L63.3496 91.64Z" stroke="#2ACAF7" stroke-width="0.5" stroke-linecap="round" stroke-linejoin="round"/>
<path d="M57.1309 120.254L90.554 89.3203L95.995 90.867L57.1309 120.254Z" stroke="#2ACAF7" stroke-width="0.5" stroke-linecap="round" stroke-linejoin="round"/>
<path d="M90.5527 89.32V72.3066L100.657 78.4933L90.5527 89.32Z" stroke="#2ACAF7" stroke-width="0.5" stroke-linecap="round" stroke-linejoin="round"/>
<path d="M90.5527 89.3208L95.9937 90.8674L100.657 78.4941L90.5527 89.3208Z" stroke="#2ACAF7" stroke-width="0.5" stroke-linecap="round" stroke-linejoin="round"/>
<path d="M95.9941 90.8674L100.658 78.4941L108.431 86.2275L95.9941 90.8674Z" stroke="#2ACAF7" stroke-width="0.5" stroke-linecap="round" stroke-linejoin="round"/>
<path d="M100.658 78.4941L108.431 86.2275V63.8008L100.658 78.4941Z" stroke="#2ACAF7" stroke-width="0.5" stroke-linecap="round" stroke-linejoin="round"/>
<path d="M108.432 86.2275V63.8008L131.75 64.5741L108.432 86.2275Z" stroke="#2ACAF7" stroke-width="0.5" stroke-linecap="round" stroke-linejoin="round"/>
<path d="M108.432 86.2275L131.75 64.5742L146.518 79.2675L108.432 86.2275Z" stroke="#2ACAF7" stroke-width="0.5" stroke-linecap="round" stroke-linejoin="round"/>
<path d="M108.432 63.7994L131.75 64.5728L122.423 53.7461L108.432 63.7994Z" stroke="#2ACAF7" stroke-width="0.5" stroke-linecap="round" stroke-linejoin="round"/>
<path d="M122.421 34.4136V53.747L114.648 31.3203L122.421 34.4136Z" stroke="#2ACAF7" stroke-width="0.5" stroke-linecap="round" stroke-linejoin="round"/>
<path d="M114.648 31.3201L115.426 0.386719L124.753 25.1334L114.648 31.3201Z" stroke="#2ACAF7" stroke-width="0.5" stroke-linecap="round" stroke-linejoin="round"/>
<path d="M114.648 31.3195L122.421 34.4128L124.753 25.1328L114.648 31.3195Z" stroke="#2ACAF7" stroke-width="0.5" stroke-linecap="round" stroke-linejoin="round"/>
<path d="M115.428 0.386719L130.973 2.70672L124.755 25.1334L115.428 0.386719Z" stroke="#2ACAF7" stroke-width="0.5" stroke-linecap="round" stroke-linejoin="round"/>
<path d="M122.422 34.414L124.754 25.134L141.077 19.7207L122.422 34.414Z" stroke="#2ACAF7" stroke-width="0.5" stroke-linecap="round" stroke-linejoin="round"/>
<path d="M124.754 25.1337L130.972 2.70703L141.077 19.7204L124.754 25.1337Z" stroke="#2ACAF7" stroke-width="0.5" stroke-linecap="round" stroke-linejoin="round"/>
<path d="M130.973 2.70703L141.077 6.5737V19.7204L130.973 2.70703Z" stroke="#2ACAF7" stroke-width="0.5" stroke-linecap="round" stroke-linejoin="round"/>
<path d="M141.076 6.57422L159.731 9.66755L141.076 19.7209V6.57422Z" stroke="#2ACAF7" stroke-width="0.5" stroke-linecap="round" stroke-linejoin="round"/>
<path d="M157.399 22.0393L159.731 9.66602L141.076 19.7193L157.399 22.0393Z" stroke="#2ACAF7" stroke-width="0.5" stroke-linecap="round" stroke-linejoin="round"/>
<path d="M122.422 53.7474V34.4141L144.186 52.2007L122.422 53.7474Z" stroke="#2ACAF7" stroke-width="0.5" stroke-linecap="round" stroke-linejoin="round"/>
<path d="M122.422 34.414L141.077 19.7207L144.186 52.2007L122.422 34.414Z" stroke="#2ACAF7" stroke-width="0.5" stroke-linecap="round" stroke-linejoin="round"/>
<path d="M122.422 53.7459L131.749 64.5725L144.186 52.1992L122.422 53.7459Z" stroke="#2ACAF7" stroke-width="0.5" stroke-linecap="round" stroke-linejoin="round"/>
<path d="M131.75 64.5726L146.518 79.2659L144.187 52.1992L131.75 64.5726Z" stroke="#2ACAF7" stroke-width="0.5" stroke-linecap="round" stroke-linejoin="round"/>
<path d="M141.076 19.7207L157.399 22.0407L144.185 52.2007L141.076 19.7207Z" stroke="#2ACAF7" stroke-width="0.5" stroke-linecap="round" stroke-linejoin="round"/>
<path d="M157.399 22.0391L165.172 26.6791L144.186 52.1991L157.399 22.0391Z" stroke="#2ACAF7" stroke-width="0.5" stroke-linecap="round" stroke-linejoin="round"/>
<path d="M144.186 52.1997L165.172 26.6797L169.059 46.7864L144.186 52.1997Z" stroke="#2ACAF7" stroke-width="0.5" stroke-linecap="round" stroke-linejoin="round"/>
<path d="M165.172 26.6797L172.167 28.2264L169.058 46.7864L165.172 26.6797Z" stroke="#2ACAF7" stroke-width="0.5" stroke-linecap="round" stroke-linejoin="round"/>
<path d="M172.168 28.2266L186.159 36.7332L169.059 46.7866L172.168 28.2266Z" stroke="#2ACAF7" stroke-width="0.5" stroke-linecap="round" stroke-linejoin="round"/>
<path d="M186.159 36.7344L187.713 50.6544L169.059 46.7877L186.159 36.7344Z" stroke="#2ACAF7" stroke-width="0.5" stroke-linecap="round" stroke-linejoin="round"/>
<path d="M169.059 46.7871L187.713 50.6538L178.386 75.4004L169.059 46.7871Z" stroke="#2ACAF7" stroke-width="0.5" stroke-linecap="round" stroke-linejoin="round"/>
<path d="M187.714 50.6543L193.155 60.7076L178.387 75.401L187.714 50.6543Z" stroke="#2ACAF7" stroke-width="0.5" stroke-linecap="round" stroke-linejoin="round"/>
<path d="M144.186 52.1992L146.517 79.2659L159.731 76.9459L144.186 52.1992Z" stroke="#2ACAF7" stroke-width="0.5" stroke-linecap="round" stroke-linejoin="round"/>
<path d="M144.186 52.2004L169.059 46.7871L159.731 76.9471L144.186 52.2004Z" stroke="#2ACAF7" stroke-width="0.5" stroke-linecap="round" stroke-linejoin="round"/>
<path d="M169.06 46.7871L178.387 75.4004L159.732 76.9471L169.06 46.7871Z" stroke="#2ACAF7" stroke-width="0.5" stroke-linecap="round" stroke-linejoin="round"/>
<path d="M313.634 121.027L328.402 146.547L277.879 150.414L313.634 121.027Z" stroke="#2ACAF7" stroke-width="0.5" stroke-linecap="round" stroke-linejoin="round"/>
<path d="M293.424 261.001L307.415 250.947L301.197 237.801L293.424 261.001Z" stroke="#2ACAF7" stroke-width="0.5" stroke-linecap="round" stroke-linejoin="round"/>
<path d="M307.416 250.947L320.629 241.667L301.197 237.801L307.416 250.947Z" stroke="#2ACAF7" stroke-width="0.5" stroke-linecap="round" stroke-linejoin="round"/>
<path d="M320.629 241.666L340.839 201.453L301.197 237.8L320.629 241.666Z" stroke="#2ACAF7" stroke-width="0.5" stroke-linecap="round" stroke-linejoin="round"/>
<path d="M247.564 295.027L253.005 313.587L195.486 329.827L247.564 295.027Z" stroke="#2ACAF7" stroke-width="0.5" stroke-linecap="round" stroke-linejoin="round"/>
<path d="M253.005 313.586L263.11 330.599L195.486 329.826L253.005 313.586Z" stroke="#2ACAF7" stroke-width="0.5" stroke-linecap="round" stroke-linejoin="round"/>
<path d="M225.023 448.148L249.896 435.001L221.137 412.574L225.023 448.148Z" stroke="#2ACAF7" stroke-width="0.5" stroke-linecap="round" stroke-linejoin="round"/>
<path d="M249.896 435.001L272.437 414.121L221.137 412.574L249.896 435.001Z" stroke="#2ACAF7" stroke-width="0.5" stroke-linecap="round" stroke-linejoin="round"/>
<path d="M16.7109 274.92L19.8201 308.947L109.985 295.027L16.7109 274.92Z" stroke="#2ACAF7" stroke-width="0.5" stroke-linecap="round" stroke-linejoin="round"/>
<path d="M19.8203 308.947L54.0208 349.161L109.985 295.027L19.8203 308.947Z" stroke="#2ACAF7" stroke-width="0.5" stroke-linecap="round" stroke-linejoin="round"/>
<path d="M54.0215 349.161L63.3489 354.574L109.986 295.027L54.0215 349.161Z" stroke="#2ACAF7" stroke-width="0.5" stroke-linecap="round" stroke-linejoin="round"/>
<path d="M5.83008 244.76L12.8256 260.226L40.8078 243.986L5.83008 244.76Z" stroke="#2ACAF7" stroke-width="0.5" stroke-linecap="round" stroke-linejoin="round"/>
<path d="M5.83008 244.761L13.6029 223.881L40.8078 243.988L5.83008 244.761Z" stroke="#2ACAF7" stroke-width="0.5" stroke-linecap="round" stroke-linejoin="round"/>
<path d="M12.8262 260.226L16.7126 274.92L40.8084 243.986L12.8262 260.226Z" stroke="#2ACAF7" stroke-width="0.5" stroke-linecap="round" stroke-linejoin="round"/>
<path d="M16.7109 274.92L109.985 295.026L40.8067 243.986L16.7109 274.92Z" stroke="#2ACAF7" stroke-width="0.5" stroke-linecap="round" stroke-linejoin="round"/>
<path d="M13.6016 223.88L15.1561 206.094L32.2563 223.107L13.6016 223.88Z" stroke="#2ACAF7" stroke-width="0.5" stroke-linecap="round" stroke-linejoin="round"/>
<path d="M13.6016 223.881L40.8065 243.987L32.2564 223.107L13.6016 223.881Z" stroke="#2ACAF7" stroke-width="0.5" stroke-linecap="round" stroke-linejoin="round"/>
<path d="M15.1562 206.094L40.8066 179.027L32.2565 223.107L15.1562 206.094Z" stroke="#2ACAF7" stroke-width="0.5" stroke-linecap="round" stroke-linejoin="round"/>
<path d="M212.588 59.1594L214.92 53.7461L236.684 61.4794L212.588 59.1594Z" stroke="#2ACAF7" stroke-width="0.5" stroke-linecap="round" stroke-linejoin="round"/>
<path d="M214.918 53.7468L221.914 44.4668L236.682 61.4801L214.918 53.7468Z" stroke="#2ACAF7" stroke-width="0.5" stroke-linecap="round" stroke-linejoin="round"/>
<path d="M221.914 44.4667L237.46 43.6934L236.682 61.48L221.914 44.4667Z" stroke="#2ACAF7" stroke-width="0.5" stroke-linecap="round" stroke-linejoin="round"/>
<path d="M237.459 43.694L247.564 33.6406L236.682 61.4806L237.459 43.694Z" stroke="#2ACAF7" stroke-width="0.5" stroke-linecap="round" stroke-linejoin="round"/>
<path d="M247.564 33.6406L284.096 46.7873L236.682 61.4806L247.564 33.6406Z" stroke="#2ACAF7" stroke-width="0.5" stroke-linecap="round" stroke-linejoin="round"/>
<path d="M251.45 87.0004L284.096 46.7871L236.682 61.4804L251.45 87.0004Z" stroke="#2ACAF7" stroke-width="0.5" stroke-linecap="round" stroke-linejoin="round"/>
<path d="M251.451 87.0004L284.097 46.7871L274.77 91.6404L251.451 87.0004Z" stroke="#2ACAF7" stroke-width="0.5" stroke-linecap="round" stroke-linejoin="round"/>
<path d="M277.879 150.414L313.634 121.027L274.77 91.6406L277.879 150.414Z" stroke="#2ACAF7" stroke-width="0.5" stroke-linecap="round" stroke-linejoin="round"/>
<path d="M284.097 46.7871L299.643 62.2538L274.77 91.6404L284.097 46.7871Z" stroke="#2ACAF7" stroke-width="0.5" stroke-linecap="round" stroke-linejoin="round"/>
<path d="M299.643 62.2539L312.856 67.6672L274.77 91.6406L299.643 62.2539Z" stroke="#2ACAF7" stroke-width="0.5" stroke-linecap="round" stroke-linejoin="round"/>
<path d="M312.856 67.666L322.184 88.546L274.77 91.6394L312.856 67.666Z" stroke="#2ACAF7" stroke-width="0.5" stroke-linecap="round" stroke-linejoin="round"/>
<path d="M313.634 121.027L322.184 105.561L274.77 91.6406L313.634 121.027Z" stroke="#2ACAF7" stroke-width="0.5" stroke-linecap="round" stroke-linejoin="round"/>
<path d="M322.184 88.5469V105.56L274.77 91.6402L322.184 88.5469Z" stroke="#2ACAF7" stroke-width="0.5" stroke-linecap="round" stroke-linejoin="round"/>
<path d="M251.45 87L274.769 91.64L238.236 117.16L251.45 87Z" stroke="#2ACAF7" stroke-width="0.5" stroke-linecap="round" stroke-linejoin="round"/>
<path d="M274.769 91.6406L277.878 150.414L238.236 117.161L274.769 91.6406Z" stroke="#2ACAF7" stroke-width="0.5" stroke-linecap="round" stroke-linejoin="round"/>
<path d="M159.732 76.9471L178.387 75.4004L199.374 97.8271L159.732 76.9471Z" stroke="#2ACAF7" stroke-width="0.5" stroke-linecap="round" stroke-linejoin="round"/>
<path d="M178.387 75.4004L193.155 60.707L199.373 97.827L178.387 75.4004Z" stroke="#2ACAF7" stroke-width="0.5" stroke-linecap="round" stroke-linejoin="round"/>
<path d="M193.154 60.7068L212.586 59.1602L199.373 97.8268L193.154 60.7068Z" stroke="#2ACAF7" stroke-width="0.5" stroke-linecap="round" stroke-linejoin="round"/>
<path d="M212.587 59.1602L236.683 61.4802L199.373 97.8268L212.587 59.1602Z" stroke="#2ACAF7" stroke-width="0.5" stroke-linecap="round" stroke-linejoin="round"/>
<path d="M236.683 61.4805L251.451 87.0005L199.373 97.8271L236.683 61.4805Z" stroke="#2ACAF7" stroke-width="0.5" stroke-linecap="round" stroke-linejoin="round"/>
<path d="M238.237 117.16L251.451 87L199.373 97.8267L238.237 117.16Z" stroke="#2ACAF7" stroke-width="0.5" stroke-linecap="round" stroke-linejoin="round"/>
<path d="M199.373 97.8262L238.237 117.159L202.482 134.946L199.373 97.8262Z" stroke="#2ACAF7" stroke-width="0.5" stroke-linecap="round" stroke-linejoin="round"/>
<path d="M95.9941 90.8666L108.431 86.2266L129.417 118.707L95.9941 90.8666Z" stroke="#2ACAF7" stroke-width="0.5" stroke-linecap="round" stroke-linejoin="round"/>
<path d="M108.432 86.2276L146.518 79.2676L129.418 118.708L108.432 86.2276Z" stroke="#2ACAF7" stroke-width="0.5" stroke-linecap="round" stroke-linejoin="round"/>
<path d="M141.077 155.827L202.483 134.947L129.418 118.707L141.077 155.827Z" stroke="#2ACAF7" stroke-width="0.5" stroke-linecap="round" stroke-linejoin="round"/>
<path d="M146.518 79.2673L159.732 76.9473L129.418 118.707L146.518 79.2673Z" stroke="#2ACAF7" stroke-width="0.5" stroke-linecap="round" stroke-linejoin="round"/>
<path d="M159.732 76.9473L199.373 97.8273L129.418 118.707L159.732 76.9473Z" stroke="#2ACAF7" stroke-width="0.5" stroke-linecap="round" stroke-linejoin="round"/>
<path d="M199.373 97.8262L202.483 134.946L129.418 118.706L199.373 97.8262Z" stroke="#2ACAF7" stroke-width="0.5" stroke-linecap="round" stroke-linejoin="round"/>
<path d="M95.9954 90.8672L129.419 118.707L87.4453 151.961L95.9954 90.8672Z" stroke="#2ACAF7" stroke-width="0.5" stroke-linecap="round" stroke-linejoin="round"/>
<path d="M129.419 118.707L141.078 155.827L87.4453 151.96L129.419 118.707Z" stroke="#2ACAF7" stroke-width="0.5" stroke-linecap="round" stroke-linejoin="round"/>
<path d="M40.8066 179.028L50.9113 155.828L87.4436 151.961L40.8066 179.028Z" stroke="#2ACAF7" stroke-width="0.5" stroke-linecap="round" stroke-linejoin="round"/>
<path d="M50.1348 137.268L50.912 155.828L87.4443 151.961L50.1348 137.268Z" stroke="#2ACAF7" stroke-width="0.5" stroke-linecap="round" stroke-linejoin="round"/>
<path d="M50.1348 137.267L57.1303 120.254L87.4443 151.961L50.1348 137.267Z" stroke="#2ACAF7" stroke-width="0.5" stroke-linecap="round" stroke-linejoin="round"/>
<path d="M57.1309 120.254L95.995 90.8672L87.4449 151.961L57.1309 120.254Z" stroke="#2ACAF7" stroke-width="0.5" stroke-linecap="round" stroke-linejoin="round"/>
<path d="M87.4453 151.961L141.078 155.828L99.8818 192.174L87.4453 151.961Z" stroke="#2ACAF7" stroke-width="0.5" stroke-linecap="round" stroke-linejoin="round"/>
<path d="M40.8066 179.028L87.4436 151.961L99.8801 192.174L40.8066 179.028Z" stroke="#2ACAF7" stroke-width="0.5" stroke-linecap="round" stroke-linejoin="round"/>
<path d="M32.2578 223.107L40.8079 179.027L84.3358 229.294L32.2578 223.107Z" stroke="#2ACAF7" stroke-width="0.5" stroke-linecap="round" stroke-linejoin="round"/>
<path d="M32.2578 223.107L40.8079 243.987L84.3358 229.294L32.2578 223.107Z" stroke="#2ACAF7" stroke-width="0.5" stroke-linecap="round" stroke-linejoin="round"/>
<path d="M40.8066 179.027L99.8801 192.174L84.3345 229.294L40.8066 179.027Z" stroke="#2ACAF7" stroke-width="0.5" stroke-linecap="round" stroke-linejoin="round"/>
<path d="M40.8066 243.986L109.985 295.026L84.3345 229.293L40.8066 243.986Z" stroke="#2ACAF7" stroke-width="0.5" stroke-linecap="round" stroke-linejoin="round"/>
<path d="M84.3359 229.294L99.8816 192.174L123.977 240.894L84.3359 229.294Z" stroke="#2ACAF7" stroke-width="0.5" stroke-linecap="round" stroke-linejoin="round"/>
<path d="M84.3359 229.293L109.986 295.026L123.977 240.893L84.3359 229.293Z" stroke="#2ACAF7" stroke-width="0.5" stroke-linecap="round" stroke-linejoin="round"/>
<path d="M99.8809 192.172L123.977 240.892L172.168 182.119L99.8809 192.172Z" stroke="#2ACAF7" stroke-width="0.5" stroke-linecap="round" stroke-linejoin="round"/>
<path d="M99.8809 192.173L141.077 155.826L172.168 182.119L99.8809 192.173Z" stroke="#2ACAF7" stroke-width="0.5" stroke-linecap="round" stroke-linejoin="round"/>
<path d="M141.076 155.827L202.482 134.947L172.167 182.121L141.076 155.827Z" stroke="#2ACAF7" stroke-width="0.5" stroke-linecap="round" stroke-linejoin="round"/>
<path d="M172.168 182.121L202.482 134.947L221.914 175.161L172.168 182.121Z" stroke="#2ACAF7" stroke-width="0.5" stroke-linecap="round" stroke-linejoin="round"/>
<path d="M202.482 134.947L238.237 117.16L221.914 175.16L202.482 134.947Z" stroke="#2ACAF7" stroke-width="0.5" stroke-linecap="round" stroke-linejoin="round"/>
<path d="M238.237 117.16L277.878 150.414L221.914 175.16L238.237 117.16Z" stroke="#2ACAF7" stroke-width="0.5" stroke-linecap="round" stroke-linejoin="round"/>
<path d="M243.679 280.334L260.002 275.694L237.461 235.48L243.679 280.334Z" stroke="#2ACAF7" stroke-width="0.5" stroke-linecap="round" stroke-linejoin="round"/>
<path d="M260.002 275.694L274.77 273.374L237.461 235.48L260.002 275.694Z" stroke="#2ACAF7" stroke-width="0.5" stroke-linecap="round" stroke-linejoin="round"/>
<path d="M274.771 273.374L293.425 261L237.461 235.48L274.771 273.374Z" stroke="#2ACAF7" stroke-width="0.5" stroke-linecap="round" stroke-linejoin="round"/>
<path d="M293.425 261.001L301.198 237.8L237.461 235.48L293.425 261.001Z" stroke="#2ACAF7" stroke-width="0.5" stroke-linecap="round" stroke-linejoin="round"/>
<path d="M123.977 240.892L172.168 182.119L178.386 240.892H123.977Z" stroke="#2ACAF7" stroke-width="0.5" stroke-linecap="round" stroke-linejoin="round"/>
<path d="M172.168 182.12L221.914 175.16L178.386 240.893L172.168 182.12Z" stroke="#2ACAF7" stroke-width="0.5" stroke-linecap="round" stroke-linejoin="round"/>
<path d="M221.915 175.16L237.46 235.48L178.387 240.893L221.915 175.16Z" stroke="#2ACAF7" stroke-width="0.5" stroke-linecap="round" stroke-linejoin="round"/>
<path d="M178.387 240.894L237.46 235.48L206.369 266.414L178.387 240.894Z" stroke="#2ACAF7" stroke-width="0.5" stroke-linecap="round" stroke-linejoin="round"/>
<path d="M195.486 329.827L247.564 295.027L206.368 266.414L195.486 329.827Z" stroke="#2ACAF7" stroke-width="0.5" stroke-linecap="round" stroke-linejoin="round"/>
<path d="M237.46 235.48L243.679 280.334L206.369 266.414L237.46 235.48Z" stroke="#2ACAF7" stroke-width="0.5" stroke-linecap="round" stroke-linejoin="round"/>
<path d="M243.679 280.334L247.565 295.027L206.369 266.414L243.679 280.334Z" stroke="#2ACAF7" stroke-width="0.5" stroke-linecap="round" stroke-linejoin="round"/>
<path d="M195.487 329.827L206.369 266.414L154.291 312.041L195.487 329.827Z" stroke="#2ACAF7" stroke-width="0.5" stroke-linecap="round" stroke-linejoin="round"/>
<path d="M109.984 295.027L154.289 312.041L111.539 344.521L109.984 295.027Z" stroke="#2ACAF7" stroke-width="0.5" stroke-linecap="round" stroke-linejoin="round"/>
<path d="M63.3496 354.573L85.1135 361.533L111.541 344.52L63.3496 354.573Z" stroke="#2ACAF7" stroke-width="0.5" stroke-linecap="round" stroke-linejoin="round"/>
<path d="M63.3496 354.574L109.987 295.027L111.541 344.521L63.3496 354.574Z" stroke="#2ACAF7" stroke-width="0.5" stroke-linecap="round" stroke-linejoin="round"/>
<path d="M85.1133 361.533L111.541 344.52L112.318 394.786L85.1133 361.533Z" stroke="#2ACAF7" stroke-width="0.5" stroke-linecap="round" stroke-linejoin="round"/>
<path d="M102.213 434.227L120.868 438.094L112.318 394.787L102.213 434.227Z" stroke="#2ACAF7" stroke-width="0.5" stroke-linecap="round" stroke-linejoin="round"/>
<path d="M71.1211 383.187L85.1122 361.533L112.317 394.786L71.1211 383.187Z" stroke="#2ACAF7" stroke-width="0.5" stroke-linecap="round" stroke-linejoin="round"/>
<path d="M77.3398 445.054L90.5537 441.187L86.6672 408.707L77.3398 445.054Z" stroke="#2ACAF7" stroke-width="0.5" stroke-linecap="round" stroke-linejoin="round"/>
<path d="M90.5544 441.187L102.214 434.227L86.668 408.707L90.5544 441.187Z" stroke="#2ACAF7" stroke-width="0.5" stroke-linecap="round" stroke-linejoin="round"/>
<path d="M102.214 434.227L112.318 394.787L86.668 408.707L102.214 434.227Z" stroke="#2ACAF7" stroke-width="0.5" stroke-linecap="round" stroke-linejoin="round"/>
<path d="M59.4629 424.947L77.3404 445.054L86.6678 408.707L59.4629 424.947Z" stroke="#2ACAF7" stroke-width="0.5" stroke-linecap="round" stroke-linejoin="round"/>
<path d="M59.4629 424.947L66.4584 407.16L86.6678 408.707L59.4629 424.947Z" stroke="#2ACAF7" stroke-width="0.5" stroke-linecap="round" stroke-linejoin="round"/>
<path d="M66.457 407.161L71.1207 383.188L86.6664 408.707L66.457 407.161Z" stroke="#2ACAF7" stroke-width="0.5" stroke-linecap="round" stroke-linejoin="round"/>
<path d="M71.1211 383.188L112.317 394.787L86.6667 408.707L71.1211 383.188Z" stroke="#2ACAF7" stroke-width="0.5" stroke-linecap="round" stroke-linejoin="round"/>
<path d="M112.316 394.787L120.867 438.094L157.399 405.614L112.316 394.787Z" stroke="#2ACAF7" stroke-width="0.5" stroke-linecap="round" stroke-linejoin="round"/>
<path d="M120.867 438.093L151.181 448.147L157.4 405.613L120.867 438.093Z" stroke="#2ACAF7" stroke-width="0.5" stroke-linecap="round" stroke-linejoin="round"/>
<path d="M151.182 448.147H178.387L157.4 405.613L151.182 448.147Z" stroke="#2ACAF7" stroke-width="0.5" stroke-linecap="round" stroke-linejoin="round"/>
<path d="M111.541 344.52L112.318 394.786L165.174 362.306L111.541 344.52Z" stroke="#2ACAF7" stroke-width="0.5" stroke-linecap="round" stroke-linejoin="round"/>
<path d="M111.541 344.519L154.292 312.039L165.174 362.306L111.541 344.519Z" stroke="#2ACAF7" stroke-width="0.5" stroke-linecap="round" stroke-linejoin="round"/>
<path d="M112.316 394.787L157.399 405.613L165.172 362.307L112.316 394.787Z" stroke="#2ACAF7" stroke-width="0.5" stroke-linecap="round" stroke-linejoin="round"/>
<path d="M154.291 312.039L195.487 329.826L165.173 362.306L154.291 312.039Z" stroke="#2ACAF7" stroke-width="0.5" stroke-linecap="round" stroke-linejoin="round"/>
<path d="M195.486 329.826L221.136 412.573L165.172 362.306L195.486 329.826Z" stroke="#2ACAF7" stroke-width="0.5" stroke-linecap="round" stroke-linejoin="round"/>
<path d="M157.4 405.613L165.173 362.307L192.378 421.08L157.4 405.613Z" stroke="#2ACAF7" stroke-width="0.5" stroke-linecap="round" stroke-linejoin="round"/>
<path d="M157.4 405.613L178.387 448.147L192.378 421.08L157.4 405.613Z" stroke="#2ACAF7" stroke-width="0.5" stroke-linecap="round" stroke-linejoin="round"/>
<path d="M165.172 362.307L221.136 412.573L192.377 421.08L165.172 362.307Z" stroke="#2ACAF7" stroke-width="0.5" stroke-linecap="round" stroke-linejoin="round"/>
<path d="M178.387 448.147L191.601 449.693L192.378 421.08L178.387 448.147Z" stroke="#2ACAF7" stroke-width="0.5" stroke-linecap="round" stroke-linejoin="round"/>
<path d="M191.6 449.693L211.809 455.88L192.377 421.08L191.6 449.693Z" stroke="#2ACAF7" stroke-width="0.5" stroke-linecap="round" stroke-linejoin="round"/>
<path d="M211.809 455.88L225.023 448.147L192.377 421.08L211.809 455.88Z" stroke="#2ACAF7" stroke-width="0.5" stroke-linecap="round" stroke-linejoin="round"/>
<path d="M221.136 412.574L225.023 448.148L192.377 421.081L221.136 412.574Z" stroke="#2ACAF7" stroke-width="0.5" stroke-linecap="round" stroke-linejoin="round"/>
<path d="M195.486 329.826L221.137 412.573L251.451 372.359L195.486 329.826Z" stroke="#2ACAF7" stroke-width="0.5" stroke-linecap="round" stroke-linejoin="round"/>
<path d="M195.486 329.826L263.11 330.6L251.451 372.359L195.486 329.826Z" stroke="#2ACAF7" stroke-width="0.5" stroke-linecap="round" stroke-linejoin="round"/>
<path d="M221.137 412.573L272.437 414.119L251.451 372.359L221.137 412.573Z" stroke="#2ACAF7" stroke-width="0.5" stroke-linecap="round" stroke-linejoin="round"/>
<path d="M263.11 330.6L277.102 340.653L251.451 372.36L263.11 330.6Z" stroke="#2ACAF7" stroke-width="0.5" stroke-linecap="round" stroke-linejoin="round"/>
<path d="M272.438 414.119L282.542 405.613L251.451 372.359L272.438 414.119Z" stroke="#2ACAF7" stroke-width="0.5" stroke-linecap="round" stroke-linejoin="round"/>
<path d="M277.102 340.654L290.315 353.028L251.451 372.361L277.102 340.654Z" stroke="#2ACAF7" stroke-width="0.5" stroke-linecap="round" stroke-linejoin="round"/>
<path d="M282.543 405.613L294.979 396.333L251.451 372.359L282.543 405.613Z" stroke="#2ACAF7" stroke-width="0.5" stroke-linecap="round" stroke-linejoin="round"/>
<path d="M290.315 353.027L300.42 380.867L251.451 372.361L290.315 353.027Z" stroke="#2ACAF7" stroke-width="0.5" stroke-linecap="round" stroke-linejoin="round"/>
<path d="M294.979 396.333L300.42 380.866L251.451 372.359L294.979 396.333Z" stroke="#2ACAF7" stroke-width="0.5" stroke-linecap="round" stroke-linejoin="round"/>
<path d="M221.914 175.16L237.46 235.48L287.206 189.853L221.914 175.16Z" stroke="#2ACAF7" stroke-width="0.5" stroke-linecap="round" stroke-linejoin="round"/>
<path d="M221.914 175.161L277.878 150.414L287.206 189.854L221.914 175.161Z" stroke="#2ACAF7" stroke-width="0.5" stroke-linecap="round" stroke-linejoin="round"/>
<path d="M237.461 235.48L301.198 237.8L287.207 189.854L237.461 235.48Z" stroke="#2ACAF7" stroke-width="0.5" stroke-linecap="round" stroke-linejoin="round"/>
<path d="M277.879 150.414L328.402 146.547L287.206 189.854L277.879 150.414Z" stroke="#2ACAF7" stroke-width="0.5" stroke-linecap="round" stroke-linejoin="round"/>
<path d="M301.198 237.8L340.84 201.454L287.207 189.854L301.198 237.8Z" stroke="#2ACAF7" stroke-width="0.5" stroke-linecap="round" stroke-linejoin="round"/>
<path d="M328.403 146.547L334.621 182.12L287.207 189.854L328.403 146.547Z" stroke="#2ACAF7" stroke-width="0.5" stroke-linecap="round" stroke-linejoin="round"/>
<path d="M334.621 182.119L340.84 201.452L287.207 189.852L334.621 182.119Z" stroke="#2ACAF7" stroke-width="0.5" stroke-linecap="round" stroke-linejoin="round"/>
<path d="M109.984 295.026L123.975 240.893L154.289 256.359L109.984 295.026Z" stroke="#2ACAF7" stroke-width="0.5" stroke-linecap="round" stroke-linejoin="round"/>
<path d="M109.984 295.026L154.289 312.039V256.359L109.984 295.026Z" stroke="#2ACAF7" stroke-width="0.5" stroke-linecap="round" stroke-linejoin="round"/>
<path d="M123.977 240.893H178.386L154.291 256.359L123.977 240.893Z" stroke="#2ACAF7" stroke-width="0.5" stroke-linecap="round" stroke-linejoin="round"/>
<path d="M154.291 312.039L206.369 266.413L154.291 256.359V312.039Z" stroke="#2ACAF7" stroke-width="0.5" stroke-linecap="round" stroke-linejoin="round"/>
<path d="M178.387 240.893L206.369 266.413L154.291 256.359L178.387 240.893Z" stroke="#2ACAF7" stroke-width="0.5" stroke-linecap="round" stroke-linejoin="round"/>
</svg>
