<svg width="349" height="354" viewBox="0 0 349 354" fill="none" xmlns="http://www.w3.org/2000/svg">
<g clip-path="url(#clip0)">
<g style="mix-blend-mode:color-dodge">
<path d="M131.135 60.7653L137.58 52.8379V65.7223L131.135 60.7653Z" stroke="#2ACAF7" stroke-width="0.5" stroke-linecap="round" stroke-linejoin="round"/>
<path d="M137.58 52.8377L157.9 44.4121L137.58 65.7221V52.8377Z" stroke="#2ACAF7" stroke-width="0.5" stroke-linecap="round" stroke-linejoin="round"/>
<path d="M131.134 60.7656L137.58 65.7226L120.236 71.1778L131.134 60.7656Z" stroke="#2ACAF7" stroke-width="0.5" stroke-linecap="round" stroke-linejoin="round"/>
<path d="M73.6504 55.8147L91.4918 54.8184L86.5348 71.6696L73.6504 55.8147Z" stroke="#2ACAF7" stroke-width="0.5" stroke-linecap="round" stroke-linejoin="round"/>
<path d="M91.4921 54.8184L97.4393 65.2305L86.5352 71.6696L91.4921 54.8184Z" stroke="#2ACAF7" stroke-width="0.5" stroke-linecap="round" stroke-linejoin="round"/>
<path d="M86.5352 71.6696L97.4393 65.2305L87.0333 93.4715L86.5352 71.6696Z" stroke="#2ACAF7" stroke-width="0.5" stroke-linecap="round" stroke-linejoin="round"/>
<path d="M0.310547 91.4922L25.0892 90.0039L8.23798 108.835L0.310547 91.4922Z" stroke="#2ACAF7" stroke-width="0.5" stroke-linecap="round" stroke-linejoin="round"/>
<path d="M0.310547 91.4922L8.23798 108.835L1.79889 113.3L0.310547 91.4922Z" stroke="#2ACAF7" stroke-width="0.5" stroke-linecap="round" stroke-linejoin="round"/>
<path d="M1.79883 113.299L8.23792 108.834L11.2146 122.217L1.79883 113.299Z" stroke="#2ACAF7" stroke-width="0.5" stroke-linecap="round" stroke-linejoin="round"/>
<path d="M51.3494 97.4394L70.181 96.4492L46.8906 129.654L51.3494 97.4394Z" stroke="#2ACAF7" stroke-width="0.5" stroke-linecap="round" stroke-linejoin="round"/>
<path d="M57.7949 148.484L60.2734 141.049L66.7125 154.923L57.7949 148.484Z" stroke="#2ACAF7" stroke-width="0.5" stroke-linecap="round" stroke-linejoin="round"/>
<path d="M60.2734 141.049L74.6462 153.933L66.7125 154.923L60.2734 141.049Z" stroke="#2ACAF7" stroke-width="0.5" stroke-linecap="round" stroke-linejoin="round"/>
<path d="M57.7949 148.484L66.7125 154.923L70.6793 175.243L57.7949 148.484Z" stroke="#2ACAF7" stroke-width="0.5" stroke-linecap="round" stroke-linejoin="round"/>
<path d="M66.7129 154.924L74.6466 153.934L70.6797 175.244L66.7129 154.924Z" stroke="#2ACAF7" stroke-width="0.5" stroke-linecap="round" stroke-linejoin="round"/>
<path d="M86.043 190.107L95.9507 202.992L90.5018 215.384L86.043 190.107Z" stroke="#2ACAF7" stroke-width="0.5" stroke-linecap="round" stroke-linejoin="round"/>
<path d="M90.502 215.385L95.9509 202.992L103.386 236.688L90.502 215.385Z" stroke="#2ACAF7" stroke-width="0.5" stroke-linecap="round" stroke-linejoin="round"/>
<path d="M90.502 215.385L103.386 236.689L91.0001 229.259L90.502 215.385Z" stroke="#2ACAF7" stroke-width="0.5" stroke-linecap="round" stroke-linejoin="round"/>
<path d="M90.5017 215.385L90.9999 229.259L87.5312 244.616L90.5017 215.385Z" stroke="#2ACAF7" stroke-width="0.5" stroke-linecap="round" stroke-linejoin="round"/>
<path d="M90.9999 229.26L103.386 236.689L87.5312 244.616L90.9999 229.26Z" stroke="#2ACAF7" stroke-width="0.5" stroke-linecap="round" stroke-linejoin="round"/>
<path d="M103.386 236.689L106.855 248.584L87.5312 244.617L103.386 236.689Z" stroke="#2ACAF7" stroke-width="0.5" stroke-linecap="round" stroke-linejoin="round"/>
<path d="M87.5312 244.617L106.855 248.584L90.9999 258.99L87.5312 244.617Z" stroke="#2ACAF7" stroke-width="0.5" stroke-linecap="round" stroke-linejoin="round"/>
<path d="M87.5314 244.617L91 258.99L84.5547 280.3L87.5314 244.617Z" stroke="#2ACAF7" stroke-width="0.5" stroke-linecap="round" stroke-linejoin="round"/>
<path d="M84.5545 280.3L87.5312 244.617L78.6074 296.653L84.5545 280.3Z" stroke="#2ACAF7" stroke-width="0.5" stroke-linecap="round" stroke-linejoin="round"/>
<path d="M69.1914 313.005L78.6072 296.652L80.0955 321.929L69.1914 313.005Z" stroke="#2ACAF7" stroke-width="0.5" stroke-linecap="round" stroke-linejoin="round"/>
<path d="M117.26 335.305L134.603 339.272L173.754 351.658L117.26 335.305Z" stroke="#2ACAF7" stroke-width="0.5" stroke-linecap="round" stroke-linejoin="round"/>
<path d="M134.604 339.271H153.933L173.755 351.658L134.604 339.271Z" stroke="#2ACAF7" stroke-width="0.5" stroke-linecap="round" stroke-linejoin="round"/>
<path d="M257.5 310.035L272.371 308.547L283.269 318.455L257.5 310.035Z" stroke="#2ACAF7" stroke-width="0.5" stroke-linecap="round" stroke-linejoin="round"/>
<path d="M312.506 235.699L323.908 252.052L324.898 233.221L312.506 235.699Z" stroke="#2ACAF7" stroke-width="0.5" stroke-linecap="round" stroke-linejoin="round"/>
<path d="M312.506 235.698L324.898 233.22L316.971 215.385L312.506 235.698Z" stroke="#2ACAF7" stroke-width="0.5" stroke-linecap="round" stroke-linejoin="round"/>
<path d="M316.973 215.384L324.9 233.22L321.431 203.49L316.973 215.384Z" stroke="#2ACAF7" stroke-width="0.5" stroke-linecap="round" stroke-linejoin="round"/>
<path d="M313.995 186.141L321.431 203.49L291.203 199.523L313.995 186.141Z" stroke="#2ACAF7" stroke-width="0.5" stroke-linecap="round" stroke-linejoin="round"/>
<path d="M316.972 215.385L321.431 203.49L291.203 199.523L316.972 215.385Z" stroke="#2ACAF7" stroke-width="0.5" stroke-linecap="round" stroke-linejoin="round"/>
<path d="M291.203 199.523L313.995 186.14L298.632 179.701L291.203 199.523Z" stroke="#2ACAF7" stroke-width="0.5" stroke-linecap="round" stroke-linejoin="round"/>
<path d="M309.537 160.871L317.963 141.541L327.87 142.537L309.537 160.871Z" stroke="#2ACAF7" stroke-width="0.5" stroke-linecap="round" stroke-linejoin="round"/>
<path d="M317.963 141.54L327.871 142.537L332.828 120.729L317.963 141.54Z" stroke="#2ACAF7" stroke-width="0.5" stroke-linecap="round" stroke-linejoin="round"/>
<path d="M332.826 120.729L338.773 101.406L348.687 79.5977L332.826 120.729Z" stroke="#2ACAF7" stroke-width="0.5" stroke-linecap="round" stroke-linejoin="round"/>
<path d="M338.773 101.406L348.687 79.5973L327.377 75.6367L338.773 101.406Z" stroke="#2ACAF7" stroke-width="0.5" stroke-linecap="round" stroke-linejoin="round"/>
<path d="M276.331 62.2534L299.13 64.7318L254.529 44.9102L276.331 62.2534Z" stroke="#2ACAF7" stroke-width="0.5" stroke-linecap="round" stroke-linejoin="round"/>
<path d="M235.201 43.4236L254.531 44.9119L235.201 31.5293V43.4236Z" stroke="#2ACAF7" stroke-width="0.5" stroke-linecap="round" stroke-linejoin="round"/>
<path d="M191.098 36.4857L212.906 11.707L220.833 23.6013L191.098 36.4857Z" stroke="#2ACAF7" stroke-width="0.5" stroke-linecap="round" stroke-linejoin="round"/>
<path d="M235.201 31.529V43.4233L220.834 23.6016L235.201 31.529Z" stroke="#2ACAF7" stroke-width="0.5" stroke-linecap="round" stroke-linejoin="round"/>
<path d="M172.766 34.0068L175.736 4.27734L195.558 10.7164L172.766 34.0068Z" stroke="#2ACAF7" stroke-width="0.5" stroke-linecap="round" stroke-linejoin="round"/>
<path d="M172.766 34.0071L191.099 36.4856L195.558 10.7168L172.766 34.0071Z" stroke="#2ACAF7" stroke-width="0.5" stroke-linecap="round" stroke-linejoin="round"/>
<path d="M175.736 4.27738L193.086 0.310547L195.558 10.7165L175.736 4.27738Z" stroke="#2ACAF7" stroke-width="0.5" stroke-linecap="round" stroke-linejoin="round"/>
<path d="M191.098 36.4856L212.906 11.7069L195.556 10.7168L191.098 36.4856Z" stroke="#2ACAF7" stroke-width="0.5" stroke-linecap="round" stroke-linejoin="round"/>
<path d="M193.084 0.310547L212.906 11.7066L195.556 10.7165L193.084 0.310547Z" stroke="#2ACAF7" stroke-width="0.5" stroke-linecap="round" stroke-linejoin="round"/>
<path d="M137.58 65.7221L157.9 44.4121L184.161 57.2965L137.58 65.7221Z" stroke="#2ACAF7" stroke-width="0.5" stroke-linecap="round" stroke-linejoin="round"/>
<path d="M137.58 65.7225L191.098 91.4913L184.161 57.2969L137.58 65.7225Z" stroke="#2ACAF7" stroke-width="0.5" stroke-linecap="round" stroke-linejoin="round"/>
<path d="M157.9 44.4118L172.765 34.0059L184.161 57.2962L157.9 44.4118Z" stroke="#2ACAF7" stroke-width="0.5" stroke-linecap="round" stroke-linejoin="round"/>
<path d="M172.766 34.0059L191.099 36.4843L184.162 57.2962L172.766 34.0059Z" stroke="#2ACAF7" stroke-width="0.5" stroke-linecap="round" stroke-linejoin="round"/>
<path d="M184.16 57.2962L191.097 36.4844L213.896 52.3455L184.16 57.2962Z" stroke="#2ACAF7" stroke-width="0.5" stroke-linecap="round" stroke-linejoin="round"/>
<path d="M184.16 57.2965L191.097 91.4909L213.896 52.3457L184.16 57.2965Z" stroke="#2ACAF7" stroke-width="0.5" stroke-linecap="round" stroke-linejoin="round"/>
<path d="M191.098 36.486L220.833 23.6016L213.896 52.3471L191.098 36.486Z" stroke="#2ACAF7" stroke-width="0.5" stroke-linecap="round" stroke-linejoin="round"/>
<path d="M220.834 23.6016L235.2 43.4233L213.896 52.3471L220.834 23.6016Z" stroke="#2ACAF7" stroke-width="0.5" stroke-linecap="round" stroke-linejoin="round"/>
<path d="M213.896 52.3457L235.2 43.4219L237.685 71.6692L213.896 52.3457Z" stroke="#2ACAF7" stroke-width="0.5" stroke-linecap="round" stroke-linejoin="round"/>
<path d="M235.201 43.4219L254.531 44.9102L237.686 71.6692L235.201 43.4219Z" stroke="#2ACAF7" stroke-width="0.5" stroke-linecap="round" stroke-linejoin="round"/>
<path d="M254.531 44.9102L276.333 62.2534L237.686 71.6691L254.531 44.9102Z" stroke="#2ACAF7" stroke-width="0.5" stroke-linecap="round" stroke-linejoin="round"/>
<path d="M237.686 71.6697L276.333 62.2539L266.917 88.0227L237.686 71.6697Z" stroke="#2ACAF7" stroke-width="0.5" stroke-linecap="round" stroke-linejoin="round"/>
<path d="M327.378 75.6367L338.774 101.406L303.59 93.9701L327.378 75.6367Z" stroke="#2ACAF7" stroke-width="0.5" stroke-linecap="round" stroke-linejoin="round"/>
<path d="M332.827 120.73L338.774 101.406L303.59 93.9707L332.827 120.73Z" stroke="#2ACAF7" stroke-width="0.5" stroke-linecap="round" stroke-linejoin="round"/>
<path d="M309.039 75.1387L327.378 75.6369L303.59 93.9702L309.039 75.1387Z" stroke="#2ACAF7" stroke-width="0.5" stroke-linecap="round" stroke-linejoin="round"/>
<path d="M317.962 141.54L332.827 120.729L303.098 128.656L317.962 141.54Z" stroke="#2ACAF7" stroke-width="0.5" stroke-linecap="round" stroke-linejoin="round"/>
<path d="M303.59 93.9707L332.827 120.73L303.098 128.657L303.59 93.9707Z" stroke="#2ACAF7" stroke-width="0.5" stroke-linecap="round" stroke-linejoin="round"/>
<path d="M309.537 160.87L317.962 141.541L303.098 128.656L309.537 160.87Z" stroke="#2ACAF7" stroke-width="0.5" stroke-linecap="round" stroke-linejoin="round"/>
<path d="M191.098 91.4909L213.896 52.3457L223.804 95.9497L191.098 91.4909Z" stroke="#2ACAF7" stroke-width="0.5" stroke-linecap="round" stroke-linejoin="round"/>
<path d="M213.896 52.3457L237.685 71.6692L223.804 95.9497L213.896 52.3457Z" stroke="#2ACAF7" stroke-width="0.5" stroke-linecap="round" stroke-linejoin="round"/>
<path d="M120.236 71.1778L137.58 65.7227L140.058 98.4288L120.236 71.1778Z" stroke="#2ACAF7" stroke-width="0.5" stroke-linecap="round" stroke-linejoin="round"/>
<path d="M137.58 65.7227L191.098 91.4915L140.059 98.4288L137.58 65.7227Z" stroke="#2ACAF7" stroke-width="0.5" stroke-linecap="round" stroke-linejoin="round"/>
<path d="M87.0332 93.4716L97.4391 65.2305L108.835 102.887L87.0332 93.4716Z" stroke="#2ACAF7" stroke-width="0.5" stroke-linecap="round" stroke-linejoin="round"/>
<path d="M97.4375 65.2305L120.236 71.1776L108.834 102.887L97.4375 65.2305Z" stroke="#2ACAF7" stroke-width="0.5" stroke-linecap="round" stroke-linejoin="round"/>
<path d="M120.236 71.1777L140.058 98.4287L108.834 102.887L120.236 71.1777Z" stroke="#2ACAF7" stroke-width="0.5" stroke-linecap="round" stroke-linejoin="round"/>
<path d="M8.23828 108.834L11.215 122.217L40.9444 109.83L8.23828 108.834Z" stroke="#2ACAF7" stroke-width="0.5" stroke-linecap="round" stroke-linejoin="round"/>
<path d="M8.23828 108.835L25.0895 90.0039L40.9444 109.832L8.23828 108.835Z" stroke="#2ACAF7" stroke-width="0.5" stroke-linecap="round" stroke-linejoin="round"/>
<path d="M11.2148 122.218L31.0365 129.654L40.9443 109.832L11.2148 122.218Z" stroke="#2ACAF7" stroke-width="0.5" stroke-linecap="round" stroke-linejoin="round"/>
<path d="M25.0898 90.0036L42.433 84.5547L40.9447 109.832L25.0898 90.0036Z" stroke="#2ACAF7" stroke-width="0.5" stroke-linecap="round" stroke-linejoin="round"/>
<path d="M31.0371 129.654H46.892L40.9448 109.832L31.0371 129.654Z" stroke="#2ACAF7" stroke-width="0.5" stroke-linecap="round" stroke-linejoin="round"/>
<path d="M42.4317 84.5547L51.3493 97.4391L40.9434 109.832L42.4317 84.5547Z" stroke="#2ACAF7" stroke-width="0.5" stroke-linecap="round" stroke-linejoin="round"/>
<path d="M46.8905 129.654L51.3493 97.4395L40.9434 109.832L46.8905 129.654Z" stroke="#2ACAF7" stroke-width="0.5" stroke-linecap="round" stroke-linejoin="round"/>
<path d="M46.8906 129.652L60.2732 141.048L82.5734 127.174L46.8906 129.652Z" stroke="#2ACAF7" stroke-width="0.5" stroke-linecap="round" stroke-linejoin="round"/>
<path d="M46.8906 129.654L70.181 96.4492L82.5734 127.175L46.8906 129.654Z" stroke="#2ACAF7" stroke-width="0.5" stroke-linecap="round" stroke-linejoin="round"/>
<path d="M60.2734 141.048L74.6462 153.933L82.5736 127.174L60.2734 141.048Z" stroke="#2ACAF7" stroke-width="0.5" stroke-linecap="round" stroke-linejoin="round"/>
<path d="M70.1816 96.4493L87.0329 93.4727L82.5741 127.175L70.1816 96.4493Z" stroke="#2ACAF7" stroke-width="0.5" stroke-linecap="round" stroke-linejoin="round"/>
<path d="M87.033 93.4727L108.835 102.888L82.5742 127.175L87.033 93.4727Z" stroke="#2ACAF7" stroke-width="0.5" stroke-linecap="round" stroke-linejoin="round"/>
<path d="M82.5742 127.175L108.835 102.889L114.782 124.697L82.5742 127.175Z" stroke="#2ACAF7" stroke-width="0.5" stroke-linecap="round" stroke-linejoin="round"/>
<path d="M82.5742 127.174L119.247 140.55L114.782 124.695L82.5742 127.174Z" stroke="#2ACAF7" stroke-width="0.5" stroke-linecap="round" stroke-linejoin="round"/>
<path d="M108.834 102.888L140.058 98.4297L114.781 124.697L108.834 102.888Z" stroke="#2ACAF7" stroke-width="0.5" stroke-linecap="round" stroke-linejoin="round"/>
<path d="M86.043 190.109L95.9507 202.993L120.237 168.307L86.043 190.109Z" stroke="#2ACAF7" stroke-width="0.5" stroke-linecap="round" stroke-linejoin="round"/>
<path d="M114.781 124.695L119.246 140.55L145.507 148.484L114.781 124.695Z" stroke="#2ACAF7" stroke-width="0.5" stroke-linecap="round" stroke-linejoin="round"/>
<path d="M114.781 124.697L140.058 98.4297L145.507 148.485L114.781 124.697Z" stroke="#2ACAF7" stroke-width="0.5" stroke-linecap="round" stroke-linejoin="round"/>
<path d="M119.246 140.551L120.236 168.306L145.507 148.484L119.246 140.551Z" stroke="#2ACAF7" stroke-width="0.5" stroke-linecap="round" stroke-linejoin="round"/>
<path d="M70.6797 175.244L74.6465 153.934L83.0659 152.943L70.6797 175.244Z" stroke="#2ACAF7" stroke-width="0.5" stroke-linecap="round" stroke-linejoin="round"/>
<path d="M70.6797 175.244L86.0426 190.108L83.0659 152.943L70.6797 175.244Z" stroke="#2ACAF7" stroke-width="0.5" stroke-linecap="round" stroke-linejoin="round"/>
<path d="M74.6465 153.933L82.5739 127.174L83.0659 152.943L74.6465 153.933Z" stroke="#2ACAF7" stroke-width="0.5" stroke-linecap="round" stroke-linejoin="round"/>
<path d="M82.5742 127.174L119.247 140.55L83.0662 152.943L82.5742 127.174Z" stroke="#2ACAF7" stroke-width="0.5" stroke-linecap="round" stroke-linejoin="round"/>
<path d="M86.0431 190.108L120.238 168.306L83.0664 152.943L86.0431 190.108Z" stroke="#2ACAF7" stroke-width="0.5" stroke-linecap="round" stroke-linejoin="round"/>
<path d="M119.247 140.551L120.238 168.306L83.0664 152.943L119.247 140.551Z" stroke="#2ACAF7" stroke-width="0.5" stroke-linecap="round" stroke-linejoin="round"/>
<path d="M291.203 199.524L298.632 179.702L260.969 148.484L291.203 199.524Z" stroke="#2ACAF7" stroke-width="0.5" stroke-linecap="round" stroke-linejoin="round"/>
<path d="M298.632 179.702L309.536 160.871L260.969 148.484L298.632 179.702Z" stroke="#2ACAF7" stroke-width="0.5" stroke-linecap="round" stroke-linejoin="round"/>
<path d="M266.916 88.0234L267.912 111.812L291.695 94.4688L266.916 88.0234Z" stroke="#2ACAF7" stroke-width="0.5" stroke-linecap="round" stroke-linejoin="round"/>
<path d="M266.916 88.0227L276.332 62.2539L291.695 94.468L266.916 88.0227Z" stroke="#2ACAF7" stroke-width="0.5" stroke-linecap="round" stroke-linejoin="round"/>
<path d="M276.332 62.2539L299.13 64.7324L291.695 94.468L276.332 62.2539Z" stroke="#2ACAF7" stroke-width="0.5" stroke-linecap="round" stroke-linejoin="round"/>
<path d="M299.131 64.7324L309.039 75.1383L291.695 94.4681L299.131 64.7324Z" stroke="#2ACAF7" stroke-width="0.5" stroke-linecap="round" stroke-linejoin="round"/>
<path d="M303.098 128.657L303.59 93.9707L291.695 94.4689L303.098 128.657Z" stroke="#2ACAF7" stroke-width="0.5" stroke-linecap="round" stroke-linejoin="round"/>
<path d="M303.59 93.9702L309.039 75.1387L291.695 94.4684L303.59 93.9702Z" stroke="#2ACAF7" stroke-width="0.5" stroke-linecap="round" stroke-linejoin="round"/>
<path d="M223.805 95.9504L237.685 71.6699L235.699 86.0427L223.805 95.9504Z" stroke="#2ACAF7" stroke-width="0.5" stroke-linecap="round" stroke-linejoin="round"/>
<path d="M223.805 95.9507L241.154 124.198L235.699 86.043L223.805 95.9507Z" stroke="#2ACAF7" stroke-width="0.5" stroke-linecap="round" stroke-linejoin="round"/>
<path d="M237.686 71.6699L266.917 88.023L235.699 86.0427L237.686 71.6699Z" stroke="#2ACAF7" stroke-width="0.5" stroke-linecap="round" stroke-linejoin="round"/>
<path d="M241.154 124.198L267.913 111.812L235.699 86.043L241.154 124.198Z" stroke="#2ACAF7" stroke-width="0.5" stroke-linecap="round" stroke-linejoin="round"/>
<path d="M266.917 88.0233L267.913 111.812L235.699 86.043L266.917 88.0233Z" stroke="#2ACAF7" stroke-width="0.5" stroke-linecap="round" stroke-linejoin="round"/>
<path d="M191.098 91.4922L193.576 133.614L221.325 122.218L191.098 91.4922Z" stroke="#2ACAF7" stroke-width="0.5" stroke-linecap="round" stroke-linejoin="round"/>
<path d="M191.098 91.4922L223.804 95.951L221.325 122.218L191.098 91.4922Z" stroke="#2ACAF7" stroke-width="0.5" stroke-linecap="round" stroke-linejoin="round"/>
<path d="M223.805 95.9512L241.154 124.198L221.326 122.218L223.805 95.9512Z" stroke="#2ACAF7" stroke-width="0.5" stroke-linecap="round" stroke-linejoin="round"/>
<path d="M221.326 122.217L241.154 124.197L225.293 143.029L221.326 122.217Z" stroke="#2ACAF7" stroke-width="0.5" stroke-linecap="round" stroke-linejoin="round"/>
<path d="M241.154 124.197L260.97 148.484L225.293 143.029L241.154 124.197Z" stroke="#2ACAF7" stroke-width="0.5" stroke-linecap="round" stroke-linejoin="round"/>
<path d="M241.154 124.197L260.97 148.484L276.831 127.174L241.154 124.197Z" stroke="#2ACAF7" stroke-width="0.5" stroke-linecap="round" stroke-linejoin="round"/>
<path d="M241.154 124.197L267.913 111.811L276.831 127.173L241.154 124.197Z" stroke="#2ACAF7" stroke-width="0.5" stroke-linecap="round" stroke-linejoin="round"/>
<path d="M260.969 148.484L309.536 160.87L276.83 127.174L260.969 148.484Z" stroke="#2ACAF7" stroke-width="0.5" stroke-linecap="round" stroke-linejoin="round"/>
<path d="M267.912 111.812L291.694 94.4688L276.83 127.175L267.912 111.812Z" stroke="#2ACAF7" stroke-width="0.5" stroke-linecap="round" stroke-linejoin="round"/>
<path d="M291.695 94.4688L303.097 128.657L276.83 127.175L291.695 94.4688Z" stroke="#2ACAF7" stroke-width="0.5" stroke-linecap="round" stroke-linejoin="round"/>
<path d="M303.097 128.656L309.536 160.87L276.83 127.174L303.097 128.656Z" stroke="#2ACAF7" stroke-width="0.5" stroke-linecap="round" stroke-linejoin="round"/>
<path d="M260.969 148.484L291.202 199.524L258.988 214.389L260.969 148.484Z" stroke="#2ACAF7" stroke-width="0.5" stroke-linecap="round" stroke-linejoin="round"/>
<path d="M258.988 214.388L291.202 199.523L276.83 223.312L258.988 214.388Z" stroke="#2ACAF7" stroke-width="0.5" stroke-linecap="round" stroke-linejoin="round"/>
<path d="M291.203 199.523L316.972 215.385L276.83 223.312L291.203 199.523Z" stroke="#2ACAF7" stroke-width="0.5" stroke-linecap="round" stroke-linejoin="round"/>
<path d="M312.507 235.698L316.972 215.385L276.83 223.312L312.507 235.698Z" stroke="#2ACAF7" stroke-width="0.5" stroke-linecap="round" stroke-linejoin="round"/>
<path d="M276.83 223.312L312.507 235.699L286.246 240.656L276.83 223.312Z" stroke="#2ACAF7" stroke-width="0.5" stroke-linecap="round" stroke-linejoin="round"/>
<path d="M312.507 235.699L323.909 252.052L286.246 240.656L312.507 235.699Z" stroke="#2ACAF7" stroke-width="0.5" stroke-linecap="round" stroke-linejoin="round"/>
<path d="M322.42 309.536L322.918 274.85L332.328 292.193L322.42 309.536Z" stroke="#2ACAF7" stroke-width="0.5" stroke-linecap="round" stroke-linejoin="round"/>
<path d="M322.42 309.537L339.271 292.685L332.328 292.193L322.42 309.537Z" stroke="#2ACAF7" stroke-width="0.5" stroke-linecap="round" stroke-linejoin="round"/>
<path d="M322.918 274.85L346.208 276.83L332.328 292.193L322.918 274.85Z" stroke="#2ACAF7" stroke-width="0.5" stroke-linecap="round" stroke-linejoin="round"/>
<path d="M339.272 292.685L346.209 276.83L332.328 292.193L339.272 292.685Z" stroke="#2ACAF7" stroke-width="0.5" stroke-linecap="round" stroke-linejoin="round"/>
<path d="M240.656 306.068L257.501 310.035L253.042 297.643L240.656 306.068Z" stroke="#2ACAF7" stroke-width="0.5" stroke-linecap="round" stroke-linejoin="round"/>
<path d="M257.5 310.035L272.371 308.547L253.041 297.643L257.5 310.035Z" stroke="#2ACAF7" stroke-width="0.5" stroke-linecap="round" stroke-linejoin="round"/>
<path d="M227.771 313.995L240.656 306.068L244.125 286.744L227.771 313.995Z" stroke="#2ACAF7" stroke-width="0.5" stroke-linecap="round" stroke-linejoin="round"/>
<path d="M240.656 306.068L253.042 297.642L244.125 286.744L240.656 306.068Z" stroke="#2ACAF7" stroke-width="0.5" stroke-linecap="round" stroke-linejoin="round"/>
<path d="M223.805 249.574L244.125 286.745L276.831 261.468L223.805 249.574Z" stroke="#2ACAF7" stroke-width="0.5" stroke-linecap="round" stroke-linejoin="round"/>
<path d="M223.805 249.573L258.989 214.389L276.831 261.468L223.805 249.573Z" stroke="#2ACAF7" stroke-width="0.5" stroke-linecap="round" stroke-linejoin="round"/>
<path d="M244.125 286.744L253.043 297.642L276.831 261.467L244.125 286.744Z" stroke="#2ACAF7" stroke-width="0.5" stroke-linecap="round" stroke-linejoin="round"/>
<path d="M258.988 214.389L276.83 223.312V261.468L258.988 214.389Z" stroke="#2ACAF7" stroke-width="0.5" stroke-linecap="round" stroke-linejoin="round"/>
<path d="M276.83 223.312L286.246 240.656L276.83 261.468V223.312Z" stroke="#2ACAF7" stroke-width="0.5" stroke-linecap="round" stroke-linejoin="round"/>
<path d="M286.246 240.656L323.909 252.052L276.83 261.468L286.246 240.656Z" stroke="#2ACAF7" stroke-width="0.5" stroke-linecap="round" stroke-linejoin="round"/>
<path d="M322.421 309.536L322.919 274.85L290.213 283.269L322.421 309.536Z" stroke="#2ACAF7" stroke-width="0.5" stroke-linecap="round" stroke-linejoin="round"/>
<path d="M322.919 274.849L323.909 252.051L290.213 283.269L322.919 274.849Z" stroke="#2ACAF7" stroke-width="0.5" stroke-linecap="round" stroke-linejoin="round"/>
<path d="M253.041 297.642L272.371 308.546L290.212 283.27L253.041 297.642Z" stroke="#2ACAF7" stroke-width="0.5" stroke-linecap="round" stroke-linejoin="round"/>
<path d="M253.041 297.642L276.83 261.467L290.212 283.269L253.041 297.642Z" stroke="#2ACAF7" stroke-width="0.5" stroke-linecap="round" stroke-linejoin="round"/>
<path d="M272.371 308.546L283.269 318.454L290.212 283.27L272.371 308.546Z" stroke="#2ACAF7" stroke-width="0.5" stroke-linecap="round" stroke-linejoin="round"/>
<path d="M276.83 261.467L323.909 252.051L290.213 283.269L276.83 261.467Z" stroke="#2ACAF7" stroke-width="0.5" stroke-linecap="round" stroke-linejoin="round"/>
<path d="M283.27 318.454L305.078 320.933L290.213 283.27L283.27 318.454Z" stroke="#2ACAF7" stroke-width="0.5" stroke-linecap="round" stroke-linejoin="round"/>
<path d="M305.078 320.933L322.421 309.537L290.213 283.27L305.078 320.933Z" stroke="#2ACAF7" stroke-width="0.5" stroke-linecap="round" stroke-linejoin="round"/>
<path d="M134.604 339.272H153.933L157.9 300.121L134.604 339.272Z" stroke="#2ACAF7" stroke-width="0.5" stroke-linecap="round" stroke-linejoin="round"/>
<path d="M153.934 339.272L157.9 300.121L176.726 340.263L153.934 339.272Z" stroke="#2ACAF7" stroke-width="0.5" stroke-linecap="round" stroke-linejoin="round"/>
<path d="M153.934 339.271L173.755 351.658L176.726 340.262L153.934 339.271Z" stroke="#2ACAF7" stroke-width="0.5" stroke-linecap="round" stroke-linejoin="round"/>
<path d="M157.9 300.121L210.92 324.402L176.726 340.263L157.9 300.121Z" stroke="#2ACAF7" stroke-width="0.5" stroke-linecap="round" stroke-linejoin="round"/>
<path d="M173.756 351.658L196.554 353.638L176.726 340.262L173.756 351.658Z" stroke="#2ACAF7" stroke-width="0.5" stroke-linecap="round" stroke-linejoin="round"/>
<path d="M196.554 353.638L209.931 341.75L176.727 340.262L196.554 353.638Z" stroke="#2ACAF7" stroke-width="0.5" stroke-linecap="round" stroke-linejoin="round"/>
<path d="M209.931 341.75L210.921 324.4L176.727 340.262L209.931 341.75Z" stroke="#2ACAF7" stroke-width="0.5" stroke-linecap="round" stroke-linejoin="round"/>
<path d="M96.4473 328.867L117.259 335.306L107.843 322.92L96.4473 328.867Z" stroke="#2ACAF7" stroke-width="0.5" stroke-linecap="round" stroke-linejoin="round"/>
<path d="M117.26 335.306L134.603 339.273L107.844 322.92L117.26 335.306Z" stroke="#2ACAF7" stroke-width="0.5" stroke-linecap="round" stroke-linejoin="round"/>
<path d="M134.603 339.272L157.899 300.121L107.844 322.919L134.603 339.272Z" stroke="#2ACAF7" stroke-width="0.5" stroke-linecap="round" stroke-linejoin="round"/>
<path d="M84.5547 280.298L91 258.988L113.792 286.245L84.5547 280.298Z" stroke="#2ACAF7" stroke-width="0.5" stroke-linecap="round" stroke-linejoin="round"/>
<path d="M91 258.99L106.855 248.584L113.792 286.247L91 258.99Z" stroke="#2ACAF7" stroke-width="0.5" stroke-linecap="round" stroke-linejoin="round"/>
<path d="M107.844 322.919L157.899 300.121L113.791 286.246L107.844 322.919Z" stroke="#2ACAF7" stroke-width="0.5" stroke-linecap="round" stroke-linejoin="round"/>
<path d="M78.6074 296.652L80.0958 321.929L94.4685 310.035L78.6074 296.652Z" stroke="#2ACAF7" stroke-width="0.5" stroke-linecap="round" stroke-linejoin="round"/>
<path d="M78.6074 296.652L84.5545 280.299L94.4685 310.034L78.6074 296.652Z" stroke="#2ACAF7" stroke-width="0.5" stroke-linecap="round" stroke-linejoin="round"/>
<path d="M80.0957 321.929L96.4488 328.867L94.4684 310.035L80.0957 321.929Z" stroke="#2ACAF7" stroke-width="0.5" stroke-linecap="round" stroke-linejoin="round"/>
<path d="M84.5547 280.299L113.792 286.246L94.4686 310.034L84.5547 280.299Z" stroke="#2ACAF7" stroke-width="0.5" stroke-linecap="round" stroke-linejoin="round"/>
<path d="M96.4491 328.867L107.845 322.92L94.4688 310.035L96.4491 328.867Z" stroke="#2ACAF7" stroke-width="0.5" stroke-linecap="round" stroke-linejoin="round"/>
<path d="M107.845 322.919L113.792 286.246L94.4688 310.035L107.845 322.919Z" stroke="#2ACAF7" stroke-width="0.5" stroke-linecap="round" stroke-linejoin="round"/>
<path d="M95.9512 202.992L103.387 236.688L127.175 192.586L95.9512 202.992Z" stroke="#2ACAF7" stroke-width="0.5" stroke-linecap="round" stroke-linejoin="round"/>
<path d="M95.9512 202.993L120.238 168.307L127.175 192.587L95.9512 202.993Z" stroke="#2ACAF7" stroke-width="0.5" stroke-linecap="round" stroke-linejoin="round"/>
<path d="M103.387 236.688L159.881 224.302L127.175 192.586L103.387 236.688Z" stroke="#2ACAF7" stroke-width="0.5" stroke-linecap="round" stroke-linejoin="round"/>
<path d="M166.818 152.445L193.577 133.613L191.597 176.725L166.818 152.445Z" stroke="#2ACAF7" stroke-width="0.5" stroke-linecap="round" stroke-linejoin="round"/>
<path d="M191.596 176.725L193.576 133.613L213.398 149.966L191.596 176.725Z" stroke="#2ACAF7" stroke-width="0.5" stroke-linecap="round" stroke-linejoin="round"/>
<path d="M193.576 133.613L221.325 122.217L213.398 149.966L193.576 133.613Z" stroke="#2ACAF7" stroke-width="0.5" stroke-linecap="round" stroke-linejoin="round"/>
<path d="M221.326 122.217L225.293 143.029L213.398 149.966L221.326 122.217Z" stroke="#2ACAF7" stroke-width="0.5" stroke-linecap="round" stroke-linejoin="round"/>
<path d="M191.596 176.726L213.398 149.967L223.312 198.534L191.596 176.726Z" stroke="#2ACAF7" stroke-width="0.5" stroke-linecap="round" stroke-linejoin="round"/>
<path d="M213.398 149.967L225.293 143.029L223.312 198.534L213.398 149.967Z" stroke="#2ACAF7" stroke-width="0.5" stroke-linecap="round" stroke-linejoin="round"/>
<path d="M223.804 249.573L258.989 214.388L223.312 198.533L223.804 249.573Z" stroke="#2ACAF7" stroke-width="0.5" stroke-linecap="round" stroke-linejoin="round"/>
<path d="M225.293 143.029L260.969 148.484L223.312 198.534L225.293 143.029Z" stroke="#2ACAF7" stroke-width="0.5" stroke-linecap="round" stroke-linejoin="round"/>
<path d="M258.989 214.389L260.969 148.484L223.312 198.534L258.989 214.389Z" stroke="#2ACAF7" stroke-width="0.5" stroke-linecap="round" stroke-linejoin="round"/>
<path d="M159.881 224.302L191.597 176.725L192.587 225.79L159.881 224.302Z" stroke="#2ACAF7" stroke-width="0.5" stroke-linecap="round" stroke-linejoin="round"/>
<path d="M191.596 176.725L223.312 198.533L192.586 225.79L191.596 176.725Z" stroke="#2ACAF7" stroke-width="0.5" stroke-linecap="round" stroke-linejoin="round"/>
<path d="M223.312 198.533L223.804 249.573L192.586 225.79L223.312 198.533Z" stroke="#2ACAF7" stroke-width="0.5" stroke-linecap="round" stroke-linejoin="round"/>
<path d="M157.9 300.12L163.841 266.424L192.089 257.008L157.9 300.12Z" stroke="#2ACAF7" stroke-width="0.5" stroke-linecap="round" stroke-linejoin="round"/>
<path d="M157.9 300.12L210.92 324.4L192.089 257.008L157.9 300.12Z" stroke="#2ACAF7" stroke-width="0.5" stroke-linecap="round" stroke-linejoin="round"/>
<path d="M159.881 224.303L163.841 266.425L192.089 257.009L159.881 224.303Z" stroke="#2ACAF7" stroke-width="0.5" stroke-linecap="round" stroke-linejoin="round"/>
<path d="M159.881 224.303L192.587 225.791L192.089 257.009L159.881 224.303Z" stroke="#2ACAF7" stroke-width="0.5" stroke-linecap="round" stroke-linejoin="round"/>
<path d="M192.586 225.791L223.804 249.573L192.088 257.009L192.586 225.791Z" stroke="#2ACAF7" stroke-width="0.5" stroke-linecap="round" stroke-linejoin="round"/>
<path d="M210.919 324.4L227.771 313.994L192.088 257.008L210.919 324.4Z" stroke="#2ACAF7" stroke-width="0.5" stroke-linecap="round" stroke-linejoin="round"/>
<path d="M223.804 249.574L244.124 286.745L192.088 257.01L223.804 249.574Z" stroke="#2ACAF7" stroke-width="0.5" stroke-linecap="round" stroke-linejoin="round"/>
<path d="M227.771 313.994L244.124 286.743L192.088 257.008L227.771 313.994Z" stroke="#2ACAF7" stroke-width="0.5" stroke-linecap="round" stroke-linejoin="round"/>
<path d="M103.387 236.689L106.855 248.584L130.644 254.531L103.387 236.689Z" stroke="#2ACAF7" stroke-width="0.5" stroke-linecap="round" stroke-linejoin="round"/>
<path d="M103.387 236.689L159.881 224.303L130.644 254.53L103.387 236.689Z" stroke="#2ACAF7" stroke-width="0.5" stroke-linecap="round" stroke-linejoin="round"/>
<path d="M106.855 248.584L113.793 286.247L130.644 254.531L106.855 248.584Z" stroke="#2ACAF7" stroke-width="0.5" stroke-linecap="round" stroke-linejoin="round"/>
<path d="M113.791 286.245L157.899 300.12L130.642 254.529L113.791 286.245Z" stroke="#2ACAF7" stroke-width="0.5" stroke-linecap="round" stroke-linejoin="round"/>
<path d="M157.9 300.12L163.841 266.424L130.643 254.529L157.9 300.12Z" stroke="#2ACAF7" stroke-width="0.5" stroke-linecap="round" stroke-linejoin="round"/>
<path d="M159.88 224.303L163.841 266.425L130.643 254.53L159.88 224.303Z" stroke="#2ACAF7" stroke-width="0.5" stroke-linecap="round" stroke-linejoin="round"/>
<path d="M120.236 168.307L127.174 192.587L156.903 180.693L120.236 168.307Z" stroke="#2ACAF7" stroke-width="0.5" stroke-linecap="round" stroke-linejoin="round"/>
<path d="M120.236 168.306L145.507 148.484L156.903 180.692L120.236 168.306Z" stroke="#2ACAF7" stroke-width="0.5" stroke-linecap="round" stroke-linejoin="round"/>
<path d="M127.174 192.586L159.88 224.302L156.903 180.691L127.174 192.586Z" stroke="#2ACAF7" stroke-width="0.5" stroke-linecap="round" stroke-linejoin="round"/>
<path d="M145.508 148.484L166.818 152.445L156.904 180.692L145.508 148.484Z" stroke="#2ACAF7" stroke-width="0.5" stroke-linecap="round" stroke-linejoin="round"/>
<path d="M159.881 224.302L191.597 176.725L156.904 180.691L159.881 224.302Z" stroke="#2ACAF7" stroke-width="0.5" stroke-linecap="round" stroke-linejoin="round"/>
<path d="M166.818 152.445L191.597 176.726L156.904 180.693L166.818 152.445Z" stroke="#2ACAF7" stroke-width="0.5" stroke-linecap="round" stroke-linejoin="round"/>
<path d="M140.059 98.4297L145.508 148.485L166.319 122.716L140.059 98.4297Z" stroke="#2ACAF7" stroke-width="0.5" stroke-linecap="round" stroke-linejoin="round"/>
<path d="M140.059 98.4295L191.098 91.4922L166.319 122.716L140.059 98.4295Z" stroke="#2ACAF7" stroke-width="0.5" stroke-linecap="round" stroke-linejoin="round"/>
<path d="M145.508 148.484L166.818 152.444L166.32 122.715L145.508 148.484Z" stroke="#2ACAF7" stroke-width="0.5" stroke-linecap="round" stroke-linejoin="round"/>
<path d="M166.819 152.444L193.577 133.613L166.32 122.715L166.819 152.444Z" stroke="#2ACAF7" stroke-width="0.5" stroke-linecap="round" stroke-linejoin="round"/>
<path d="M191.099 91.4922L193.577 133.614L166.32 122.716L191.099 91.4922Z" stroke="#2ACAF7" stroke-width="0.5" stroke-linecap="round" stroke-linejoin="round"/>
</g>
</g>
<defs>
<clipPath id="clip0">
<rect width="349" height="353.951" fill="white"/>
</clipPath>
</defs>
</svg>
