<svg width="349" height="254" viewBox="0 0 349 254" fill="none" xmlns="http://www.w3.org/2000/svg">
<g clip-path="url(#clip0)">
<path d="M315.236 150.289L320.947 152.191L313.711 156.76L315.236 150.289Z" stroke="#2ACAF7" stroke-width="0.5" stroke-miterlimit="10"/>
<path d="M130.486 19.25L137.346 24.2019L122.107 20.3923L130.486 19.25Z" stroke="#2ACAF7" stroke-width="0.5" stroke-miterlimit="10"/>
<path d="M101.923 12.7715L110.302 20.0079L97.7305 17.7233L101.923 12.7715Z" stroke="#2ACAF7" stroke-width="0.5" stroke-miterlimit="10"/>
<path d="M54.3063 56.1964L58.4926 53.1523L52.7812 64.1983L54.3063 56.1964Z" stroke="#2ACAF7" stroke-width="0.5" stroke-miterlimit="10"/>
<path d="M45.1621 69.5339L52.7813 64.1992L47.8294 72.5779L45.1621 69.5339Z" stroke="#2ACAF7" stroke-width="0.5" stroke-miterlimit="10"/>
<path d="M45.1635 69.5332L47.8308 72.5772L43.2617 80.5792L45.1635 69.5332Z" stroke="#2ACAF7" stroke-width="0.5" stroke-miterlimit="10"/>
<path d="M0.212891 118.67L14.6918 117.527L3.263 126.672L0.212891 118.67Z" stroke="#2ACAF7" stroke-width="0.5" stroke-miterlimit="10"/>
<path d="M3.26367 126.672L14.6924 117.527L9.74059 134.285L3.26367 126.672Z" stroke="#2ACAF7" stroke-width="0.5" stroke-miterlimit="10"/>
<path d="M37.1602 179.234L42.112 172.381L44.7793 184.186L37.1602 179.234Z" stroke="#2ACAF7" stroke-width="0.5" stroke-miterlimit="10"/>
<path d="M39.8281 190.662L44.78 184.186L46.6878 199.424L39.8281 190.662Z" stroke="#2ACAF7" stroke-width="0.5" stroke-miterlimit="10"/>
<path d="M63.4453 203.616L64.5937 207.802L72.2068 198.664L63.4453 203.616Z" stroke="#2ACAF7" stroke-width="0.5" stroke-miterlimit="10"/>
<path d="M75.6387 210.469L80.2078 206.283L82.1095 218.471L75.6387 210.469Z" stroke="#2ACAF7" stroke-width="0.5" stroke-miterlimit="10"/>
<path d="M80.209 206.283L87.0626 207.043L82.1107 218.471L80.209 206.283Z" stroke="#2ACAF7" stroke-width="0.5" stroke-miterlimit="10"/>
<path d="M82.1113 218.472L87.0632 207.043L86.6865 221.899L82.1113 218.472Z" stroke="#2ACAF7" stroke-width="0.5" stroke-miterlimit="10"/>
<path d="M93.5391 237.52L99.2565 231.803L94.6813 242.849L93.5391 237.52Z" stroke="#2ACAF7" stroke-width="0.5" stroke-miterlimit="10"/>
<path d="M94.6816 242.849L99.2568 231.803L104.968 244.757L94.6816 242.849Z" stroke="#2ACAF7" stroke-width="0.5" stroke-miterlimit="10"/>
<path d="M99.2559 231.803L104.967 244.757L117.155 243.608L99.2559 231.803Z" stroke="#2ACAF7" stroke-width="0.5" stroke-miterlimit="10"/>
<path d="M182.678 247.418L191.056 253.135L203.245 247.418H182.678Z" stroke="#2ACAF7" stroke-width="0.5" stroke-miterlimit="10"/>
<path d="M252.381 219.232L262.667 218.473L270.669 224.567L252.381 219.232Z" stroke="#2ACAF7" stroke-width="0.5" stroke-miterlimit="10"/>
<path d="M262.668 218.473L270.67 224.567L277.524 223.425L262.668 218.473Z" stroke="#2ACAF7" stroke-width="0.5" stroke-miterlimit="10"/>
<path d="M277.523 223.424L282.858 226.468L288.193 224.566L277.523 223.424Z" stroke="#2ACAF7" stroke-width="0.5" stroke-miterlimit="10"/>
<path d="M282.857 226.468L288.192 224.566L293.144 235.23L282.857 226.468Z" stroke="#2ACAF7" stroke-width="0.5" stroke-miterlimit="10"/>
<path d="M305.332 237.52L314.853 236.754L316.378 223.041L305.332 237.52Z" stroke="#2ACAF7" stroke-width="0.5" stroke-miterlimit="10"/>
<path d="M320.947 152.19L331.234 145.713L336.186 155.999L320.947 152.19Z" stroke="#2ACAF7" stroke-width="0.5" stroke-miterlimit="10"/>
<path d="M331.234 145.712L338.471 142.668L336.186 155.999L331.234 145.712Z" stroke="#2ACAF7" stroke-width="0.5" stroke-miterlimit="10"/>
<path d="M338.47 142.668L347.997 148.379L336.186 155.999L338.47 142.668Z" stroke="#2ACAF7" stroke-width="0.5" stroke-miterlimit="10"/>
<path d="M346.855 155.617L347.997 148.381L336.186 156L346.855 155.617Z" stroke="#2ACAF7" stroke-width="0.5" stroke-miterlimit="10"/>
<path d="M313.711 156.759L320.947 152.189L325.14 161.334L313.711 156.759Z" stroke="#2ACAF7" stroke-width="0.5" stroke-miterlimit="10"/>
<path d="M313.711 156.76L322.472 165.904L325.14 161.335L313.711 156.76Z" stroke="#2ACAF7" stroke-width="0.5" stroke-miterlimit="10"/>
<path d="M320.947 152.189L336.186 155.999L325.14 161.334L320.947 152.189Z" stroke="#2ACAF7" stroke-width="0.5" stroke-miterlimit="10"/>
<path d="M322.473 165.903L328.19 168.188L325.14 161.334L322.473 165.903Z" stroke="#2ACAF7" stroke-width="0.5" stroke-miterlimit="10"/>
<path d="M325.141 161.334L328.191 168.188L335.804 165.903L325.141 161.334Z" stroke="#2ACAF7" stroke-width="0.5" stroke-miterlimit="10"/>
<path d="M325.141 161.335L336.187 156L335.804 165.904L325.141 161.335Z" stroke="#2ACAF7" stroke-width="0.5" stroke-miterlimit="10"/>
<path d="M328.189 168.189L330.474 175.808L335.803 165.904L328.189 168.189Z" stroke="#2ACAF7" stroke-width="0.5" stroke-miterlimit="10"/>
<path d="M330.475 175.808L337.711 174.666L335.803 165.904L330.475 175.808Z" stroke="#2ACAF7" stroke-width="0.5" stroke-miterlimit="10"/>
<path d="M336.186 156L346.855 155.617L335.803 165.904L336.186 156Z" stroke="#2ACAF7" stroke-width="0.5" stroke-miterlimit="10"/>
<path d="M337.711 174.666L344.947 173.523L335.803 165.904L337.711 174.666Z" stroke="#2ACAF7" stroke-width="0.5" stroke-miterlimit="10"/>
<path d="M344.947 173.523L348.757 164.762L335.803 165.904L344.947 173.523Z" stroke="#2ACAF7" stroke-width="0.5" stroke-miterlimit="10"/>
<path d="M346.855 155.617L348.757 164.761L335.803 165.904L346.855 155.617Z" stroke="#2ACAF7" stroke-width="0.5" stroke-miterlimit="10"/>
<path d="M302.666 154.475L313.712 156.759L305.716 170.096L302.666 154.475Z" stroke="#2ACAF7" stroke-width="0.5" stroke-miterlimit="10"/>
<path d="M313.711 156.76L322.472 165.904L305.715 170.096L313.711 156.76Z" stroke="#2ACAF7" stroke-width="0.5" stroke-miterlimit="10"/>
<path d="M317.52 184.569L321.713 173.523L305.715 170.096L317.52 184.569Z" stroke="#2ACAF7" stroke-width="0.5" stroke-miterlimit="10"/>
<path d="M321.713 173.523L322.472 165.904L305.715 170.097L321.713 173.523Z" stroke="#2ACAF7" stroke-width="0.5" stroke-miterlimit="10"/>
<path d="M288.57 138.094L295.813 146.096L293.145 161.334L288.57 138.094Z" stroke="#2ACAF7" stroke-width="0.5" stroke-miterlimit="10"/>
<path d="M295.812 146.096L302.665 154.474L293.145 161.334L295.812 146.096Z" stroke="#2ACAF7" stroke-width="0.5" stroke-miterlimit="10"/>
<path d="M302.665 154.475L305.716 170.096L293.145 161.334L302.665 154.475Z" stroke="#2ACAF7" stroke-width="0.5" stroke-miterlimit="10"/>
<path d="M293.145 161.334L305.716 170.095L299.239 181.518L293.145 161.334Z" stroke="#2ACAF7" stroke-width="0.5" stroke-miterlimit="10"/>
<path d="M305.715 170.096L317.521 184.569L299.238 181.518L305.715 170.096Z" stroke="#2ACAF7" stroke-width="0.5" stroke-miterlimit="10"/>
<path d="M299.238 181.518L317.521 184.568L307.234 196.373L299.238 181.518Z" stroke="#2ACAF7" stroke-width="0.5" stroke-miterlimit="10"/>
<path d="M313.711 211.611L314.477 200.565L307.234 196.373L313.711 211.611Z" stroke="#2ACAF7" stroke-width="0.5" stroke-miterlimit="10"/>
<path d="M314.477 200.566L319.805 189.52L307.234 196.373L314.477 200.566Z" stroke="#2ACAF7" stroke-width="0.5" stroke-miterlimit="10"/>
<path d="M317.521 184.568L319.805 189.52L307.234 196.374L317.521 184.568Z" stroke="#2ACAF7" stroke-width="0.5" stroke-miterlimit="10"/>
<path d="M288.191 224.566L293.143 235.23L302.664 217.33L288.191 224.566Z" stroke="#2ACAF7" stroke-width="0.5" stroke-miterlimit="10"/>
<path d="M293.145 235.23L305.333 237.52L302.665 217.33L293.145 235.23Z" stroke="#2ACAF7" stroke-width="0.5" stroke-miterlimit="10"/>
<path d="M305.333 237.52L316.379 223.041L302.666 217.33L305.333 237.52Z" stroke="#2ACAF7" stroke-width="0.5" stroke-miterlimit="10"/>
<path d="M307.235 196.373L313.712 211.611L302.666 217.329L307.235 196.373Z" stroke="#2ACAF7" stroke-width="0.5" stroke-miterlimit="10"/>
<path d="M313.712 211.611L316.379 223.04L302.666 217.329L313.712 211.611Z" stroke="#2ACAF7" stroke-width="0.5" stroke-miterlimit="10"/>
<path d="M262.668 218.472L277.524 223.424L283.241 209.711L262.668 218.472Z" stroke="#2ACAF7" stroke-width="0.5" stroke-miterlimit="10"/>
<path d="M277.523 223.424L288.193 224.567L283.241 209.711L277.523 223.424Z" stroke="#2ACAF7" stroke-width="0.5" stroke-miterlimit="10"/>
<path d="M288.192 224.567L302.665 217.33L283.24 209.711L288.192 224.567Z" stroke="#2ACAF7" stroke-width="0.5" stroke-miterlimit="10"/>
<path d="M302.665 217.329L307.234 196.373L283.24 209.71L302.665 217.329Z" stroke="#2ACAF7" stroke-width="0.5" stroke-miterlimit="10"/>
<path d="M283.24 209.711L307.234 196.374L285.525 192.947L283.24 209.711Z" stroke="#2ACAF7" stroke-width="0.5" stroke-miterlimit="10"/>
<path d="M299.239 181.518L307.235 196.373L285.525 192.946L299.239 181.518Z" stroke="#2ACAF7" stroke-width="0.5" stroke-miterlimit="10"/>
<path d="M252.381 219.232L262.667 218.472L266.094 202.092L252.381 219.232Z" stroke="#2ACAF7" stroke-width="0.5" stroke-miterlimit="10"/>
<path d="M262.668 218.472L283.241 209.711L266.095 202.092L262.668 218.472Z" stroke="#2ACAF7" stroke-width="0.5" stroke-miterlimit="10"/>
<path d="M283.24 209.711L285.525 192.947L266.094 202.091L283.24 209.711Z" stroke="#2ACAF7" stroke-width="0.5" stroke-miterlimit="10"/>
<path d="M266.094 202.091L285.525 192.946L273.336 174.281L266.094 202.091Z" stroke="#2ACAF7" stroke-width="0.5" stroke-miterlimit="10"/>
<path d="M285.526 192.946L299.239 181.518L273.338 174.281L285.526 192.946Z" stroke="#2ACAF7" stroke-width="0.5" stroke-miterlimit="10"/>
<path d="M293.145 161.334L299.239 181.518L273.338 174.282L293.145 161.334Z" stroke="#2ACAF7" stroke-width="0.5" stroke-miterlimit="10"/>
<path d="M273.337 174.283L293.145 161.335L262.668 158.285L273.337 174.283Z" stroke="#2ACAF7" stroke-width="0.5" stroke-miterlimit="10"/>
<path d="M262.668 158.284L293.145 161.334L268.003 139.619L262.668 158.284Z" stroke="#2ACAF7" stroke-width="0.5" stroke-miterlimit="10"/>
<path d="M288.569 138.094L293.144 161.334L268.002 139.619L288.569 138.094Z" stroke="#2ACAF7" stroke-width="0.5" stroke-miterlimit="10"/>
<path d="M268.002 139.62L288.569 138.095L274.096 125.906L268.002 139.62Z" stroke="#2ACAF7" stroke-width="0.5" stroke-miterlimit="10"/>
<path d="M284.759 106.48L287.426 120.57L274.096 125.905L284.759 106.48Z" stroke="#2ACAF7" stroke-width="0.5" stroke-miterlimit="10"/>
<path d="M287.426 120.57L290.476 133.524L274.096 125.905L287.426 120.57Z" stroke="#2ACAF7" stroke-width="0.5" stroke-miterlimit="10"/>
<path d="M288.569 138.095L290.476 133.525L274.096 125.906L288.569 138.095Z" stroke="#2ACAF7" stroke-width="0.5" stroke-miterlimit="10"/>
<path d="M274.097 125.905L284.76 106.48L262.291 114.859L274.097 125.905Z" stroke="#2ACAF7" stroke-width="0.5" stroke-miterlimit="10"/>
<path d="M262.291 114.86L284.76 106.481L267.237 101.529L262.291 114.86Z" stroke="#2ACAF7" stroke-width="0.5" stroke-miterlimit="10"/>
<path d="M284.759 106.481L288.569 93.1504L267.236 101.529L284.759 106.481Z" stroke="#2ACAF7" stroke-width="0.5" stroke-miterlimit="10"/>
<path d="M267.236 101.529L288.569 93.1501L268.385 83.623L267.236 101.529Z" stroke="#2ACAF7" stroke-width="0.5" stroke-miterlimit="10"/>
<path d="M272.571 58.4805L282.475 66.0997L268.385 83.6226L272.571 58.4805Z" stroke="#2ACAF7" stroke-width="0.5" stroke-miterlimit="10"/>
<path d="M282.475 66.0996L286.667 77.9112L268.385 83.6225L282.475 66.0996Z" stroke="#2ACAF7" stroke-width="0.5" stroke-miterlimit="10"/>
<path d="M260.383 43.625L266.859 51.2442L252.004 64.198L260.383 43.625Z" stroke="#2ACAF7" stroke-width="0.5" stroke-miterlimit="10"/>
<path d="M266.859 51.2441L272.571 58.4805L252.004 64.198L266.859 51.2441Z" stroke="#2ACAF7" stroke-width="0.5" stroke-miterlimit="10"/>
<path d="M268.385 83.6226L272.571 58.4805L252.004 64.1979L268.385 83.6226Z" stroke="#2ACAF7" stroke-width="0.5" stroke-miterlimit="10"/>
<path d="M248.195 29.1523L256.957 37.9138L239.051 47.058L248.195 29.1523Z" stroke="#2ACAF7" stroke-width="0.5" stroke-miterlimit="10"/>
<path d="M252.005 64.198L260.383 43.625L239.051 47.0579L252.005 64.198Z" stroke="#2ACAF7" stroke-width="0.5" stroke-miterlimit="10"/>
<path d="M256.956 37.9141L260.383 43.6254L239.051 47.0583L256.956 37.9141Z" stroke="#2ACAF7" stroke-width="0.5" stroke-miterlimit="10"/>
<path d="M209.34 13.1557L213.532 3.25195L227.622 20.7749L209.34 13.1557Z" stroke="#2ACAF7" stroke-width="0.5" stroke-miterlimit="10"/>
<path d="M213.531 3.25128L221.91 0.201172L227.621 20.7742L213.531 3.25128Z" stroke="#2ACAF7" stroke-width="0.5" stroke-miterlimit="10"/>
<path d="M221.91 0.201172L234.098 2.86849L227.622 20.7742L221.91 0.201172Z" stroke="#2ACAF7" stroke-width="0.5" stroke-miterlimit="10"/>
<path d="M234.1 2.86914L239.817 10.4883L227.623 20.7748L234.1 2.86914Z" stroke="#2ACAF7" stroke-width="0.5" stroke-miterlimit="10"/>
<path d="M239.052 47.0578L248.196 29.1521L227.623 20.7734L239.052 47.0578Z" stroke="#2ACAF7" stroke-width="0.5" stroke-miterlimit="10"/>
<path d="M239.817 10.4883L244.386 17.348L227.623 20.7748L239.817 10.4883Z" stroke="#2ACAF7" stroke-width="0.5" stroke-miterlimit="10"/>
<path d="M244.386 17.3477L248.196 29.1531L227.623 20.7745L244.386 17.3477Z" stroke="#2ACAF7" stroke-width="0.5" stroke-miterlimit="10"/>
<path d="M198.293 17.7234L209.339 13.1543L212.766 31.8195L198.293 17.7234Z" stroke="#2ACAF7" stroke-width="0.5" stroke-miterlimit="10"/>
<path d="M209.34 13.1543L227.622 20.7735L212.767 31.8195L209.34 13.1543Z" stroke="#2ACAF7" stroke-width="0.5" stroke-miterlimit="10"/>
<path d="M227.621 20.7734L239.05 47.0578L212.766 31.8194L227.621 20.7734Z" stroke="#2ACAF7" stroke-width="0.5" stroke-miterlimit="10"/>
<path d="M170.107 29.5352L176.961 21.916L186.482 34.8638L170.107 29.5352Z" stroke="#2ACAF7" stroke-width="0.5" stroke-miterlimit="10"/>
<path d="M176.961 21.9173L186.482 19.25V34.8651L176.961 21.9173Z" stroke="#2ACAF7" stroke-width="0.5" stroke-miterlimit="10"/>
<path d="M186.482 19.2497L198.294 17.7246L186.482 34.8647V19.2497Z" stroke="#2ACAF7" stroke-width="0.5" stroke-miterlimit="10"/>
<path d="M198.294 17.7246L212.767 31.8207L186.482 34.8647L198.294 17.7246Z" stroke="#2ACAF7" stroke-width="0.5" stroke-miterlimit="10"/>
<path d="M212.766 31.8203L239.05 47.0587L219.625 51.6278L212.766 31.8203Z" stroke="#2ACAF7" stroke-width="0.5" stroke-miterlimit="10"/>
<path d="M161.346 29.1523L170.107 29.5351L160.963 47.8175L161.346 29.1523Z" stroke="#2ACAF7" stroke-width="0.5" stroke-miterlimit="10"/>
<path d="M170.107 29.5352L186.482 34.8637L160.963 47.8176L170.107 29.5352Z" stroke="#2ACAF7" stroke-width="0.5" stroke-miterlimit="10"/>
<path d="M186.482 34.8652L190.674 59.6306L160.963 47.8191L186.482 34.8652Z" stroke="#2ACAF7" stroke-width="0.5" stroke-miterlimit="10"/>
<path d="M122.107 20.3906L137.346 24.2002L140.013 41.3403L122.107 20.3906Z" stroke="#2ACAF7" stroke-width="0.5" stroke-miterlimit="10"/>
<path d="M137.346 24.2002L150.3 20.0078L140.013 41.3403L137.346 24.2002Z" stroke="#2ACAF7" stroke-width="0.5" stroke-miterlimit="10"/>
<path d="M150.3 20.0078L161.346 29.1521L140.014 41.3403L150.3 20.0078Z" stroke="#2ACAF7" stroke-width="0.5" stroke-miterlimit="10"/>
<path d="M160.963 47.8175L161.346 29.1523L140.014 41.3406L160.963 47.8175Z" stroke="#2ACAF7" stroke-width="0.5" stroke-miterlimit="10"/>
<path d="M110.303 20.0078L122.108 20.3906L112.97 44.3904L110.303 20.0078Z" stroke="#2ACAF7" stroke-width="0.5" stroke-miterlimit="10"/>
<path d="M122.107 20.3906L140.013 41.3403L112.969 44.3904L122.107 20.3906Z" stroke="#2ACAF7" stroke-width="0.5" stroke-miterlimit="10"/>
<path d="M75.2559 31.0602L84.0173 29.5352L89.352 33.7215L75.2559 31.0602Z" stroke="#2ACAF7" stroke-width="0.5" stroke-miterlimit="10"/>
<path d="M84.0176 29.5349L90.8712 20.7734L89.3522 33.7212L84.0176 29.5349Z" stroke="#2ACAF7" stroke-width="0.5" stroke-miterlimit="10"/>
<path d="M90.8705 20.7747L97.7302 17.7246L89.3516 33.7225L90.8705 20.7747Z" stroke="#2ACAF7" stroke-width="0.5" stroke-miterlimit="10"/>
<path d="M97.7302 17.7246L110.301 20.0091L89.3516 33.7225L97.7302 17.7246Z" stroke="#2ACAF7" stroke-width="0.5" stroke-miterlimit="10"/>
<path d="M110.301 20.0078L112.969 44.3904L89.3516 33.7211L110.301 20.0078Z" stroke="#2ACAF7" stroke-width="0.5" stroke-miterlimit="10"/>
<path d="M58.4922 53.1534L62.3018 42.1074L86.6844 50.8689L58.4922 53.1534Z" stroke="#2ACAF7" stroke-width="0.5" stroke-miterlimit="10"/>
<path d="M62.3027 42.1078L68.0202 35.6309L86.6853 50.8692L62.3027 42.1078Z" stroke="#2ACAF7" stroke-width="0.5" stroke-miterlimit="10"/>
<path d="M68.0195 35.6296L75.2559 31.0605L86.6847 50.868L68.0195 35.6296Z" stroke="#2ACAF7" stroke-width="0.5" stroke-miterlimit="10"/>
<path d="M75.2559 31.0605L89.352 33.7218L86.6846 50.868L75.2559 31.0605Z" stroke="#2ACAF7" stroke-width="0.5" stroke-miterlimit="10"/>
<path d="M89.3529 33.7227L112.97 44.3919L86.6855 50.8689L89.3529 33.7227Z" stroke="#2ACAF7" stroke-width="0.5" stroke-miterlimit="10"/>
<path d="M52.7812 64.1983L58.4926 53.1523L73.731 69.533L52.7812 64.1983Z" stroke="#2ACAF7" stroke-width="0.5" stroke-miterlimit="10"/>
<path d="M58.4922 53.1537L86.6844 50.8691L73.7306 69.5343L58.4922 53.1537Z" stroke="#2ACAF7" stroke-width="0.5" stroke-miterlimit="10"/>
<path d="M40.5938 90.4838L43.2611 80.5801L57.3511 84.3897L40.5938 90.4838Z" stroke="#2ACAF7" stroke-width="0.5" stroke-miterlimit="10"/>
<path d="M43.2617 80.5801L47.8308 72.5781L57.3517 84.3897L43.2617 80.5801Z" stroke="#2ACAF7" stroke-width="0.5" stroke-miterlimit="10"/>
<path d="M47.8301 72.5779L52.7819 64.1992L57.351 84.3894L47.8301 72.5779Z" stroke="#2ACAF7" stroke-width="0.5" stroke-miterlimit="10"/>
<path d="M52.7812 64.1992L73.731 69.5339L57.3503 84.3894L52.7812 64.1992Z" stroke="#2ACAF7" stroke-width="0.5" stroke-miterlimit="10"/>
<path d="M30.3066 106.482L36.4008 95.0527L58.4928 111.051L30.3066 106.482Z" stroke="#2ACAF7" stroke-width="0.5" stroke-miterlimit="10"/>
<path d="M36.4004 95.0515L40.5928 90.4824L58.4924 111.049L36.4004 95.0515Z" stroke="#2ACAF7" stroke-width="0.5" stroke-miterlimit="10"/>
<path d="M40.5938 90.4828L57.3511 84.3887L58.4934 111.05L40.5938 90.4828Z" stroke="#2ACAF7" stroke-width="0.5" stroke-miterlimit="10"/>
<path d="M24.2129 113.334L30.307 106.48L39.4513 122.096L24.2129 113.334Z" stroke="#2ACAF7" stroke-width="0.5" stroke-miterlimit="10"/>
<path d="M30.3066 106.48L58.4928 111.05L39.4509 122.096L30.3066 106.48Z" stroke="#2ACAF7" stroke-width="0.5" stroke-miterlimit="10"/>
<path d="M24.2129 113.334L39.4513 122.095L27.263 130.857L24.2129 113.334Z" stroke="#2ACAF7" stroke-width="0.5" stroke-miterlimit="10"/>
<path d="M14.6914 117.526L24.2123 113.334L27.2625 130.857L14.6914 117.526Z" stroke="#2ACAF7" stroke-width="0.5" stroke-miterlimit="10"/>
<path d="M16.2109 139.619L18.1188 153.332L27.263 130.857L16.2109 139.619Z" stroke="#2ACAF7" stroke-width="0.5" stroke-miterlimit="10"/>
<path d="M24.9727 164.378L32.9746 167.046L48.5897 146.855L24.9727 164.378Z" stroke="#2ACAF7" stroke-width="0.5" stroke-miterlimit="10"/>
<path d="M27.2637 130.857L39.4519 122.096L48.5901 146.855L27.2637 130.857Z" stroke="#2ACAF7" stroke-width="0.5" stroke-miterlimit="10"/>
<path d="M39.4512 122.097L58.4931 111.051L48.5893 146.856L39.4512 122.097Z" stroke="#2ACAF7" stroke-width="0.5" stroke-miterlimit="10"/>
<path d="M18.1191 153.332L24.9728 164.378L48.5898 146.855L18.1191 153.332Z" stroke="#2ACAF7" stroke-width="0.5" stroke-miterlimit="10"/>
<path d="M18.1191 153.332L27.2634 130.857L48.5898 146.855L18.1191 153.332Z" stroke="#2ACAF7" stroke-width="0.5" stroke-miterlimit="10"/>
<path d="M32.9746 167.047L42.1128 172.381L53.1648 165.904L32.9746 167.047Z" stroke="#2ACAF7" stroke-width="0.5" stroke-miterlimit="10"/>
<path d="M32.9746 167.046L48.5897 146.855L53.1648 165.903L32.9746 167.046Z" stroke="#2ACAF7" stroke-width="0.5" stroke-miterlimit="10"/>
<path d="M42.1113 172.381L44.7786 184.187L53.1634 165.904L42.1113 172.381Z" stroke="#2ACAF7" stroke-width="0.5" stroke-miterlimit="10"/>
<path d="M44.7793 184.186L46.6871 199.424L63.8273 191.045L44.7793 184.186Z" stroke="#2ACAF7" stroke-width="0.5" stroke-miterlimit="10"/>
<path d="M44.7793 184.187L53.164 165.904L63.8273 191.046L44.7793 184.187Z" stroke="#2ACAF7" stroke-width="0.5" stroke-miterlimit="10"/>
<path d="M46.6875 199.424L63.4448 203.616L63.8276 191.045L46.6875 199.424Z" stroke="#2ACAF7" stroke-width="0.5" stroke-miterlimit="10"/>
<path d="M63.4453 203.616L72.2068 198.664L63.8281 191.045L63.4453 203.616Z" stroke="#2ACAF7" stroke-width="0.5" stroke-miterlimit="10"/>
<path d="M48.5898 146.856L53.165 165.904L76.782 139.619L48.5898 146.856Z" stroke="#2ACAF7" stroke-width="0.5" stroke-miterlimit="10"/>
<path d="M48.5898 146.856L58.4936 111.051L76.782 139.62L48.5898 146.856Z" stroke="#2ACAF7" stroke-width="0.5" stroke-miterlimit="10"/>
<path d="M53.1641 165.904L82.8752 158.284L76.7811 139.619L53.1641 165.904Z" stroke="#2ACAF7" stroke-width="0.5" stroke-miterlimit="10"/>
<path d="M58.4922 111.051L76.7807 139.62L77.9229 112.576L58.4922 111.051Z" stroke="#2ACAF7" stroke-width="0.5" stroke-miterlimit="10"/>
<path d="M112.969 44.3906L116.013 72.9595L133.153 65.7231L112.969 44.3906Z" stroke="#2ACAF7" stroke-width="0.5" stroke-miterlimit="10"/>
<path d="M112.969 44.3919L140.013 41.3418L133.153 65.7244L112.969 44.3919Z" stroke="#2ACAF7" stroke-width="0.5" stroke-miterlimit="10"/>
<path d="M133.154 65.7244L140.014 41.3418L152.585 71.053L133.154 65.7244Z" stroke="#2ACAF7" stroke-width="0.5" stroke-miterlimit="10"/>
<path d="M140.014 41.3418L160.963 47.8187L152.585 71.053L140.014 41.3418Z" stroke="#2ACAF7" stroke-width="0.5" stroke-miterlimit="10"/>
<path d="M133.154 65.7246L152.585 71.0532L151.06 86.6743L133.154 65.7246Z" stroke="#2ACAF7" stroke-width="0.5" stroke-miterlimit="10"/>
<path d="M73.7305 69.5343L86.6843 50.8691L101.157 60.3901L73.7305 69.5343Z" stroke="#2ACAF7" stroke-width="0.5" stroke-miterlimit="10"/>
<path d="M73.7305 69.5329L104.207 102.288L101.157 60.3887L73.7305 69.5329Z" stroke="#2ACAF7" stroke-width="0.5" stroke-miterlimit="10"/>
<path d="M86.6855 50.8675L112.97 44.3906L101.158 60.3885L86.6855 50.8675Z" stroke="#2ACAF7" stroke-width="0.5" stroke-miterlimit="10"/>
<path d="M104.208 102.288L116.014 72.9597L101.158 60.3887L104.208 102.288Z" stroke="#2ACAF7" stroke-width="0.5" stroke-miterlimit="10"/>
<path d="M112.97 44.3906L116.014 72.9595L101.158 60.3885L112.97 44.3906Z" stroke="#2ACAF7" stroke-width="0.5" stroke-miterlimit="10"/>
<path d="M151.059 86.6736L152.584 71.0525L171.626 70.6758L151.059 86.6736Z" stroke="#2ACAF7" stroke-width="0.5" stroke-miterlimit="10"/>
<path d="M152.584 71.0526L160.963 47.8184L171.626 70.6759L152.584 71.0526Z" stroke="#2ACAF7" stroke-width="0.5" stroke-miterlimit="10"/>
<path d="M160.963 47.8184L190.674 59.6299L171.626 70.6759L160.963 47.8184Z" stroke="#2ACAF7" stroke-width="0.5" stroke-miterlimit="10"/>
<path d="M185.34 83.6227L190.675 59.6289L171.627 70.6749L185.34 83.6227Z" stroke="#2ACAF7" stroke-width="0.5" stroke-miterlimit="10"/>
<path d="M219.627 51.6277L239.052 47.0586L229.148 73.3369L219.627 51.6277Z" stroke="#2ACAF7" stroke-width="0.5" stroke-miterlimit="10"/>
<path d="M239.05 47.0586L252.004 64.1987L229.146 73.3369L239.05 47.0586Z" stroke="#2ACAF7" stroke-width="0.5" stroke-miterlimit="10"/>
<path d="M185.34 83.6227L190.674 59.6289L213.149 72.9594L185.34 83.6227Z" stroke="#2ACAF7" stroke-width="0.5" stroke-miterlimit="10"/>
<path d="M190.674 59.6289L219.626 51.627L213.149 72.9595L190.674 59.6289Z" stroke="#2ACAF7" stroke-width="0.5" stroke-miterlimit="10"/>
<path d="M219.625 51.627L229.146 73.3362L213.148 72.9595L219.625 51.627Z" stroke="#2ACAF7" stroke-width="0.5" stroke-miterlimit="10"/>
<path d="M225.719 86.6742L229.146 73.3376L213.148 72.9609L225.719 86.6742Z" stroke="#2ACAF7" stroke-width="0.5" stroke-miterlimit="10"/>
<path d="M225.721 86.6726L229.148 73.3359L254.29 104.195L225.721 86.6726Z" stroke="#2ACAF7" stroke-width="0.5" stroke-miterlimit="10"/>
<path d="M229.146 73.3374L252.004 64.1992L254.289 104.197L229.146 73.3374Z" stroke="#2ACAF7" stroke-width="0.5" stroke-miterlimit="10"/>
<path d="M252.004 64.1992L268.385 83.6239L254.288 104.197L252.004 64.1992Z" stroke="#2ACAF7" stroke-width="0.5" stroke-miterlimit="10"/>
<path d="M262.291 114.86L267.237 101.529L254.289 104.197L262.291 114.86Z" stroke="#2ACAF7" stroke-width="0.5" stroke-miterlimit="10"/>
<path d="M267.237 101.529L268.385 83.623L254.289 104.196L267.237 101.529Z" stroke="#2ACAF7" stroke-width="0.5" stroke-miterlimit="10"/>
<path d="M218.484 132.383L224.196 116.768L248.955 133.142L218.484 132.383Z" stroke="#2ACAF7" stroke-width="0.5" stroke-miterlimit="10"/>
<path d="M254.29 104.197L262.292 114.86L248.955 133.143L254.29 104.197Z" stroke="#2ACAF7" stroke-width="0.5" stroke-miterlimit="10"/>
<path d="M262.292 114.859L274.097 125.905L248.955 133.142L262.292 114.859Z" stroke="#2ACAF7" stroke-width="0.5" stroke-miterlimit="10"/>
<path d="M262.668 158.285L268.003 139.619L248.955 133.143L262.668 158.285Z" stroke="#2ACAF7" stroke-width="0.5" stroke-miterlimit="10"/>
<path d="M268.003 139.62L274.097 125.906L248.955 133.143L268.003 139.62Z" stroke="#2ACAF7" stroke-width="0.5" stroke-miterlimit="10"/>
<path d="M224.195 116.768L225.72 86.6738L234.865 105.339L224.195 116.768Z" stroke="#2ACAF7" stroke-width="0.5" stroke-miterlimit="10"/>
<path d="M224.195 116.767L248.955 133.141L234.865 105.338L224.195 116.767Z" stroke="#2ACAF7" stroke-width="0.5" stroke-miterlimit="10"/>
<path d="M225.721 86.6738L254.29 104.197L234.865 105.339L225.721 86.6738Z" stroke="#2ACAF7" stroke-width="0.5" stroke-miterlimit="10"/>
<path d="M248.955 133.143L254.29 104.197L234.865 105.34L248.955 133.143Z" stroke="#2ACAF7" stroke-width="0.5" stroke-miterlimit="10"/>
<path d="M218.484 132.382L224.196 116.767L194.102 113.334L218.484 132.382Z" stroke="#2ACAF7" stroke-width="0.5" stroke-miterlimit="10"/>
<path d="M224.196 116.768L225.721 86.6738L194.102 113.335L224.196 116.768Z" stroke="#2ACAF7" stroke-width="0.5" stroke-miterlimit="10"/>
<path d="M104.207 102.289L114.87 104.574L118.297 118.287L104.207 102.289Z" stroke="#2ACAF7" stroke-width="0.5" stroke-miterlimit="10"/>
<path d="M76.7812 139.618L77.9235 112.574L91.6368 123.62L76.7812 139.618Z" stroke="#2ACAF7" stroke-width="0.5" stroke-miterlimit="10"/>
<path d="M76.7812 139.619L109.16 131.24L91.6368 123.621L76.7812 139.619Z" stroke="#2ACAF7" stroke-width="0.5" stroke-miterlimit="10"/>
<path d="M104.208 102.289L118.298 118.287L91.6367 123.622L104.208 102.289Z" stroke="#2ACAF7" stroke-width="0.5" stroke-miterlimit="10"/>
<path d="M109.16 131.241L118.298 118.287L91.6367 123.622L109.16 131.241Z" stroke="#2ACAF7" stroke-width="0.5" stroke-miterlimit="10"/>
<path d="M76.7812 139.619L82.8754 158.284L93.5386 161.711L76.7812 139.619Z" stroke="#2ACAF7" stroke-width="0.5" stroke-miterlimit="10"/>
<path d="M76.7812 139.619L109.16 131.24L93.5386 161.711L76.7812 139.619Z" stroke="#2ACAF7" stroke-width="0.5" stroke-miterlimit="10"/>
<path d="M53.1641 165.904L63.8273 191.046L76.3983 176.191L53.1641 165.904Z" stroke="#2ACAF7" stroke-width="0.5" stroke-miterlimit="10"/>
<path d="M53.1641 165.904L82.8752 158.285L76.3983 176.191L53.1641 165.904Z" stroke="#2ACAF7" stroke-width="0.5" stroke-miterlimit="10"/>
<path d="M63.8281 191.045L72.2068 198.664L76.3992 176.189L63.8281 191.045Z" stroke="#2ACAF7" stroke-width="0.5" stroke-miterlimit="10"/>
<path d="M72.207 198.664L80.209 200.183L76.3994 176.189L72.207 198.664Z" stroke="#2ACAF7" stroke-width="0.5" stroke-miterlimit="10"/>
<path d="M80.208 200.183L98.8732 179.616L76.3984 176.189L80.208 200.183Z" stroke="#2ACAF7" stroke-width="0.5" stroke-miterlimit="10"/>
<path d="M82.8753 158.285L93.5386 161.712L76.3984 176.191L82.8753 158.285Z" stroke="#2ACAF7" stroke-width="0.5" stroke-miterlimit="10"/>
<path d="M93.5386 161.711L98.8732 179.617L76.3984 176.19L93.5386 161.711Z" stroke="#2ACAF7" stroke-width="0.5" stroke-miterlimit="10"/>
<path d="M86.6855 221.898L88.9701 226.091L112.204 221.898H86.6855Z" stroke="#2ACAF7" stroke-width="0.5" stroke-miterlimit="10"/>
<path d="M88.9688 226.091L99.2553 231.802L112.203 221.898L88.9688 226.091Z" stroke="#2ACAF7" stroke-width="0.5" stroke-miterlimit="10"/>
<path d="M99.2559 231.802L117.155 243.608L112.204 221.898L99.2559 231.802Z" stroke="#2ACAF7" stroke-width="0.5" stroke-miterlimit="10"/>
<path d="M112.203 221.898L117.155 243.608L127.441 225.708L112.203 221.898Z" stroke="#2ACAF7" stroke-width="0.5" stroke-miterlimit="10"/>
<path d="M117.156 243.609L128.968 244.757L127.443 225.709L117.156 243.609Z" stroke="#2ACAF7" stroke-width="0.5" stroke-miterlimit="10"/>
<path d="M128.966 244.757L139.63 248.943L127.441 225.709L128.966 244.757Z" stroke="#2ACAF7" stroke-width="0.5" stroke-miterlimit="10"/>
<path d="M127.441 225.707L139.63 248.942L148.391 211.994L127.441 225.707Z" stroke="#2ACAF7" stroke-width="0.5" stroke-miterlimit="10"/>
<path d="M139.631 248.942L148.392 250.467V211.994L139.631 248.942Z" stroke="#2ACAF7" stroke-width="0.5" stroke-miterlimit="10"/>
<path d="M148.393 250.467L157.914 247.799L148.393 211.994V250.467Z" stroke="#2ACAF7" stroke-width="0.5" stroke-miterlimit="10"/>
<path d="M98.873 179.617L104.584 203.234L129.344 187.236L98.873 179.617Z" stroke="#2ACAF7" stroke-width="0.5" stroke-miterlimit="10"/>
<path d="M104.586 203.234L112.205 221.899L129.345 187.236L104.586 203.234Z" stroke="#2ACAF7" stroke-width="0.5" stroke-miterlimit="10"/>
<path d="M112.203 221.899L127.442 225.709L129.343 187.236L112.203 221.899Z" stroke="#2ACAF7" stroke-width="0.5" stroke-miterlimit="10"/>
<path d="M127.441 225.709L148.391 211.996L129.343 187.236L127.441 225.709Z" stroke="#2ACAF7" stroke-width="0.5" stroke-miterlimit="10"/>
<path d="M93.5391 161.711L98.8737 179.617L129.344 156.383L93.5391 161.711Z" stroke="#2ACAF7" stroke-width="0.5" stroke-miterlimit="10"/>
<path d="M93.5391 161.711L109.16 131.24L129.344 156.382L93.5391 161.711Z" stroke="#2ACAF7" stroke-width="0.5" stroke-miterlimit="10"/>
<path d="M98.873 179.617L129.344 187.236V156.383L98.873 179.617Z" stroke="#2ACAF7" stroke-width="0.5" stroke-miterlimit="10"/>
<path d="M129.344 187.236V156.383L162.865 168.188L129.344 187.236Z" stroke="#2ACAF7" stroke-width="0.5" stroke-miterlimit="10"/>
<path d="M129.344 187.235L148.392 211.995L162.865 168.188L129.344 187.235Z" stroke="#2ACAF7" stroke-width="0.5" stroke-miterlimit="10"/>
<path d="M114.871 104.574L118.298 118.287L138.488 104.197L114.871 104.574Z" stroke="#2ACAF7" stroke-width="0.5" stroke-miterlimit="10"/>
<path d="M146.107 104.573L151.059 86.6738L138.488 104.197L146.107 104.573Z" stroke="#2ACAF7" stroke-width="0.5" stroke-miterlimit="10"/>
<path d="M9.74023 134.285L14.6921 117.527L17.7361 135.433L9.74023 134.285Z" stroke="#2ACAF7" stroke-width="0.5" stroke-miterlimit="10"/>
<path d="M9.74023 134.285L16.2111 139.62L17.7361 135.434L9.74023 134.285Z" stroke="#2ACAF7" stroke-width="0.5" stroke-miterlimit="10"/>
<path d="M14.6914 117.527L27.2625 130.858L17.7354 135.433L14.6914 117.527Z" stroke="#2ACAF7" stroke-width="0.5" stroke-miterlimit="10"/>
<path d="M16.2109 139.619L27.263 130.857L17.736 135.433L16.2109 139.619Z" stroke="#2ACAF7" stroke-width="0.5" stroke-miterlimit="10"/>
<path d="M185.34 83.6241L213.149 72.9609L190.292 93.5279L185.34 83.6241Z" stroke="#2ACAF7" stroke-width="0.5" stroke-miterlimit="10"/>
<path d="M194.101 113.335L225.72 86.6738L190.291 93.5274L194.101 113.335Z" stroke="#2ACAF7" stroke-width="0.5" stroke-miterlimit="10"/>
<path d="M213.149 72.9609L225.72 86.6742L190.291 93.5279L213.149 72.9609Z" stroke="#2ACAF7" stroke-width="0.5" stroke-miterlimit="10"/>
<path d="M57.3516 84.3887L58.4938 111.05L81.7342 105.338L57.3516 84.3887Z" stroke="#2ACAF7" stroke-width="0.5" stroke-miterlimit="10"/>
<path d="M57.3516 84.3888L73.7322 69.5332L81.7342 105.339L57.3516 84.3888Z" stroke="#2ACAF7" stroke-width="0.5" stroke-miterlimit="10"/>
<path d="M58.4922 111.049L77.9229 112.574L81.7325 105.338L58.4922 111.049Z" stroke="#2ACAF7" stroke-width="0.5" stroke-miterlimit="10"/>
<path d="M73.7305 69.5332L104.207 102.288L81.7324 105.339L73.7305 69.5332Z" stroke="#2ACAF7" stroke-width="0.5" stroke-miterlimit="10"/>
<path d="M77.9238 112.574L91.6371 123.62L81.7334 105.338L77.9238 112.574Z" stroke="#2ACAF7" stroke-width="0.5" stroke-miterlimit="10"/>
<path d="M91.6361 123.622L104.207 102.289L81.7324 105.339L91.6361 123.622Z" stroke="#2ACAF7" stroke-width="0.5" stroke-miterlimit="10"/>
<path d="M80.209 200.184L98.8742 179.617L89.3532 206.661L80.209 200.184Z" stroke="#2ACAF7" stroke-width="0.5" stroke-miterlimit="10"/>
<path d="M86.6855 221.899L87.0622 207.043L89.3529 206.66L86.6855 221.899Z" stroke="#2ACAF7" stroke-width="0.5" stroke-miterlimit="10"/>
<path d="M86.6855 221.899H112.204L89.3529 206.66L86.6855 221.899Z" stroke="#2ACAF7" stroke-width="0.5" stroke-miterlimit="10"/>
<path d="M98.8725 179.617L104.584 203.234L89.3516 206.661L98.8725 179.617Z" stroke="#2ACAF7" stroke-width="0.5" stroke-miterlimit="10"/>
<path d="M104.584 203.234L112.203 221.9L89.3516 206.661L104.584 203.234Z" stroke="#2ACAF7" stroke-width="0.5" stroke-miterlimit="10"/>
<path d="M268.385 83.6235L286.667 77.9121L286.284 79.4372L268.385 83.6235Z" stroke="#2ACAF7" stroke-width="0.5" stroke-miterlimit="10"/>
<path d="M268.385 83.6238L288.569 93.1508L286.284 79.4375L268.385 83.6238Z" stroke="#2ACAF7" stroke-width="0.5" stroke-miterlimit="10"/>
<path d="M148.393 211.995L162.865 168.188L178.487 197.522L148.393 211.995Z" stroke="#2ACAF7" stroke-width="0.5" stroke-miterlimit="10"/>
<path d="M162.865 168.188L186.865 175.807L178.486 197.522L162.865 168.188Z" stroke="#2ACAF7" stroke-width="0.5" stroke-miterlimit="10"/>
<path d="M186.865 175.807L200.961 199.424L178.486 197.522L186.865 175.807Z" stroke="#2ACAF7" stroke-width="0.5" stroke-miterlimit="10"/>
<path d="M186.865 175.806L200.961 199.423L216.959 167.045L186.865 175.806Z" stroke="#2ACAF7" stroke-width="0.5" stroke-miterlimit="10"/>
<path d="M109.16 131.241L118.298 118.287L143.058 140.385L109.16 131.241Z" stroke="#2ACAF7" stroke-width="0.5" stroke-miterlimit="10"/>
<path d="M109.16 131.24L129.344 156.382L143.058 140.384L109.16 131.24Z" stroke="#2ACAF7" stroke-width="0.5" stroke-miterlimit="10"/>
<path d="M118.299 118.287L138.489 104.197L143.058 140.385L118.299 118.287Z" stroke="#2ACAF7" stroke-width="0.5" stroke-miterlimit="10"/>
<path d="M138.488 104.197L146.107 104.574L143.057 140.385L138.488 104.197Z" stroke="#2ACAF7" stroke-width="0.5" stroke-miterlimit="10"/>
<path d="M146.107 104.572L172.391 130.097L143.057 140.384L146.107 104.572Z" stroke="#2ACAF7" stroke-width="0.5" stroke-miterlimit="10"/>
<path d="M200.961 199.423L216.959 167.045L227.622 197.898L200.961 199.423Z" stroke="#2ACAF7" stroke-width="0.5" stroke-miterlimit="10"/>
<path d="M240.577 224.948L252.382 219.231L227.623 197.898L240.577 224.948Z" stroke="#2ACAF7" stroke-width="0.5" stroke-miterlimit="10"/>
<path d="M252.382 219.231L266.096 202.091L227.623 197.898L252.382 219.231Z" stroke="#2ACAF7" stroke-width="0.5" stroke-miterlimit="10"/>
<path d="M216.959 167.045L227.622 197.898L248.578 172.762L216.959 167.045Z" stroke="#2ACAF7" stroke-width="0.5" stroke-miterlimit="10"/>
<path d="M227.623 197.9L266.096 202.092L248.579 172.764L227.623 197.9Z" stroke="#2ACAF7" stroke-width="0.5" stroke-miterlimit="10"/>
<path d="M262.668 158.285L273.337 174.283L248.578 172.764L262.668 158.285Z" stroke="#2ACAF7" stroke-width="0.5" stroke-miterlimit="10"/>
<path d="M266.095 202.092L273.337 174.283L248.578 172.764L266.095 202.092Z" stroke="#2ACAF7" stroke-width="0.5" stroke-miterlimit="10"/>
<path d="M216.959 167.046L218.484 132.383L232.957 146.479L216.959 167.046Z" stroke="#2ACAF7" stroke-width="0.5" stroke-miterlimit="10"/>
<path d="M216.959 167.045L248.578 172.763L232.957 146.479L216.959 167.045Z" stroke="#2ACAF7" stroke-width="0.5" stroke-miterlimit="10"/>
<path d="M218.484 132.383L248.955 133.142L232.957 146.479L218.484 132.383Z" stroke="#2ACAF7" stroke-width="0.5" stroke-miterlimit="10"/>
<path d="M248.578 172.763L262.668 158.284L232.957 146.479L248.578 172.763Z" stroke="#2ACAF7" stroke-width="0.5" stroke-miterlimit="10"/>
<path d="M248.955 133.143L262.668 158.285L232.957 146.479L248.955 133.143Z" stroke="#2ACAF7" stroke-width="0.5" stroke-miterlimit="10"/>
<path d="M162.865 168.188L186.865 175.807L189.532 152.949L162.865 168.188Z" stroke="#2ACAF7" stroke-width="0.5" stroke-miterlimit="10"/>
<path d="M172.391 130.097L194.1 113.334L189.531 152.949L172.391 130.097Z" stroke="#2ACAF7" stroke-width="0.5" stroke-miterlimit="10"/>
<path d="M186.865 175.807L216.959 167.045L189.533 152.949L186.865 175.807Z" stroke="#2ACAF7" stroke-width="0.5" stroke-miterlimit="10"/>
<path d="M194.1 113.334L218.483 132.382L189.531 152.949L194.1 113.334Z" stroke="#2ACAF7" stroke-width="0.5" stroke-miterlimit="10"/>
<path d="M216.958 167.046L218.483 132.383L189.531 152.95L216.958 167.046Z" stroke="#2ACAF7" stroke-width="0.5" stroke-miterlimit="10"/>
<path d="M129.344 156.383L143.057 140.385L158.295 145.337L129.344 156.383Z" stroke="#2ACAF7" stroke-width="0.5" stroke-miterlimit="10"/>
<path d="M129.344 156.382L162.865 168.187L158.295 145.336L129.344 156.382Z" stroke="#2ACAF7" stroke-width="0.5" stroke-miterlimit="10"/>
<path d="M143.057 140.384L172.391 130.098L158.295 145.336L143.057 140.384Z" stroke="#2ACAF7" stroke-width="0.5" stroke-miterlimit="10"/>
<path d="M162.866 168.187L189.533 152.949L158.297 145.336L162.866 168.187Z" stroke="#2ACAF7" stroke-width="0.5" stroke-miterlimit="10"/>
<path d="M172.393 130.098L189.533 152.949L158.297 145.336L172.393 130.098Z" stroke="#2ACAF7" stroke-width="0.5" stroke-miterlimit="10"/>
<path d="M146.107 104.573L151.059 86.6738L172.775 103.048L146.107 104.573Z" stroke="#2ACAF7" stroke-width="0.5" stroke-miterlimit="10"/>
<path d="M146.107 104.574L172.392 130.099L172.775 103.049L146.107 104.574Z" stroke="#2ACAF7" stroke-width="0.5" stroke-miterlimit="10"/>
<path d="M151.059 86.6736L171.626 70.6758L172.774 103.048L151.059 86.6736Z" stroke="#2ACAF7" stroke-width="0.5" stroke-miterlimit="10"/>
<path d="M171.627 70.6758L185.34 83.6235L172.775 103.048L171.627 70.6758Z" stroke="#2ACAF7" stroke-width="0.5" stroke-miterlimit="10"/>
<path d="M172.391 130.099L194.1 113.335L172.773 103.049L172.391 130.099Z" stroke="#2ACAF7" stroke-width="0.5" stroke-miterlimit="10"/>
<path d="M185.34 83.623L190.292 93.5268L172.775 103.048L185.34 83.623Z" stroke="#2ACAF7" stroke-width="0.5" stroke-miterlimit="10"/>
<path d="M190.292 93.5273L194.102 113.335L172.775 103.048L190.292 93.5273Z" stroke="#2ACAF7" stroke-width="0.5" stroke-miterlimit="10"/>
<path d="M104.207 102.289L114.87 104.574L128.201 88.1992L104.207 102.289Z" stroke="#2ACAF7" stroke-width="0.5" stroke-miterlimit="10"/>
<path d="M104.207 102.289L116.013 72.9609L128.201 88.1993L104.207 102.289Z" stroke="#2ACAF7" stroke-width="0.5" stroke-miterlimit="10"/>
<path d="M114.871 104.574L138.488 104.197L128.202 88.1992L114.871 104.574Z" stroke="#2ACAF7" stroke-width="0.5" stroke-miterlimit="10"/>
<path d="M116.014 72.961L133.154 65.7246L128.202 88.1994L116.014 72.961Z" stroke="#2ACAF7" stroke-width="0.5" stroke-miterlimit="10"/>
<path d="M133.153 65.7246L151.059 86.6743L128.201 88.1994L133.153 65.7246Z" stroke="#2ACAF7" stroke-width="0.5" stroke-miterlimit="10"/>
<path d="M138.488 104.197L151.059 86.6738L128.201 88.1989L138.488 104.197Z" stroke="#2ACAF7" stroke-width="0.5" stroke-miterlimit="10"/>
<path d="M186.482 34.8652L190.675 59.6306L194.102 45.9112L186.482 34.8652Z" stroke="#2ACAF7" stroke-width="0.5" stroke-miterlimit="10"/>
<path d="M186.482 34.8643L212.767 31.8203L194.102 45.9103L186.482 34.8643Z" stroke="#2ACAF7" stroke-width="0.5" stroke-miterlimit="10"/>
<path d="M190.674 59.6295L219.626 51.6276L194.101 45.9102L190.674 59.6295Z" stroke="#2ACAF7" stroke-width="0.5" stroke-miterlimit="10"/>
<path d="M212.767 31.8203L219.626 51.6278L194.102 45.9103L212.767 31.8203Z" stroke="#2ACAF7" stroke-width="0.5" stroke-miterlimit="10"/>
<path d="M178.486 197.521L200.961 199.423L184.198 218.088L178.486 197.521Z" stroke="#2ACAF7" stroke-width="0.5" stroke-miterlimit="10"/>
<path d="M182.678 247.418L184.197 218.09L198.676 224.184L182.678 247.418Z" stroke="#2ACAF7" stroke-width="0.5" stroke-miterlimit="10"/>
<path d="M182.678 247.418H203.245L198.676 224.184L182.678 247.418Z" stroke="#2ACAF7" stroke-width="0.5" stroke-miterlimit="10"/>
<path d="M184.197 218.089L200.961 199.424L198.676 224.183L184.197 218.089Z" stroke="#2ACAF7" stroke-width="0.5" stroke-miterlimit="10"/>
<path d="M203.245 247.418L212.006 241.707L198.676 224.184L203.245 247.418Z" stroke="#2ACAF7" stroke-width="0.5" stroke-miterlimit="10"/>
<path d="M212.006 241.707L218.1 233.328L198.676 224.184L212.006 241.707Z" stroke="#2ACAF7" stroke-width="0.5" stroke-miterlimit="10"/>
<path d="M148.393 211.994L157.914 247.799L167.441 228.758L148.393 211.994Z" stroke="#2ACAF7" stroke-width="0.5" stroke-miterlimit="10"/>
<path d="M148.393 211.994L178.487 197.521L167.441 228.758L148.393 211.994Z" stroke="#2ACAF7" stroke-width="0.5" stroke-miterlimit="10"/>
<path d="M157.912 247.8L166.674 248.942L167.439 228.758L157.912 247.8Z" stroke="#2ACAF7" stroke-width="0.5" stroke-miterlimit="10"/>
<path d="M166.674 248.942L175.818 247.04L167.439 228.758L166.674 248.942Z" stroke="#2ACAF7" stroke-width="0.5" stroke-miterlimit="10"/>
<path d="M175.818 247.04L182.678 247.417L167.439 228.758L175.818 247.04Z" stroke="#2ACAF7" stroke-width="0.5" stroke-miterlimit="10"/>
<path d="M178.485 197.521L184.197 218.088L167.439 228.758L178.485 197.521Z" stroke="#2ACAF7" stroke-width="0.5" stroke-miterlimit="10"/>
<path d="M182.678 247.418L184.197 218.09L167.439 228.759L182.678 247.418Z" stroke="#2ACAF7" stroke-width="0.5" stroke-miterlimit="10"/>
<path d="M198.676 224.183L200.96 199.424L219.626 210.087L198.676 224.183Z" stroke="#2ACAF7" stroke-width="0.5" stroke-miterlimit="10"/>
<path d="M198.676 224.184L218.1 233.328L219.626 210.088L198.676 224.184Z" stroke="#2ACAF7" stroke-width="0.5" stroke-miterlimit="10"/>
<path d="M200.961 199.423L227.622 197.898L219.626 210.087L200.961 199.423Z" stroke="#2ACAF7" stroke-width="0.5" stroke-miterlimit="10"/>
<path d="M218.102 233.328L228.388 227.234L219.627 210.088L218.102 233.328Z" stroke="#2ACAF7" stroke-width="0.5" stroke-miterlimit="10"/>
<path d="M227.623 197.898L240.577 224.948L219.627 210.087L227.623 197.898Z" stroke="#2ACAF7" stroke-width="0.5" stroke-miterlimit="10"/>
<path d="M228.388 227.234L240.577 224.95L219.627 210.088L228.388 227.234Z" stroke="#2ACAF7" stroke-width="0.5" stroke-miterlimit="10"/>
</g>
<defs>
<clipPath id="clip0">
<rect width="349" height="253.311" fill="white"/>
</clipPath>
</defs>
</svg>
