<svg width="349" height="400" viewBox="0 0 349 400" fill="none" xmlns="http://www.w3.org/2000/svg">
<g clip-path="url(#clip0)">
<path d="M334.988 25.2148L348.438 35.9716L345.303 48.5236L334.988 25.2148Z" stroke="#2ACAF7" stroke-width="0.5" stroke-linecap="round" stroke-linejoin="round"/>
<path d="M333.643 124.741L335.438 109.496L321.988 121.15L333.643 124.741Z" stroke="#2ACAF7" stroke-width="0.5" stroke-linecap="round" stroke-linejoin="round"/>
<path d="M313.924 151.191L325.578 153.877L330.059 150.742L313.924 151.191Z" stroke="#2ACAF7" stroke-width="0.5" stroke-linecap="round" stroke-linejoin="round"/>
<path d="M325.578 153.877L330.059 150.742L333.642 158.806L325.578 153.877Z" stroke="#2ACAF7" stroke-width="0.5" stroke-linecap="round" stroke-linejoin="round"/>
<path d="M325.578 153.877L333.642 158.807L331.854 174.949L325.578 153.877Z" stroke="#2ACAF7" stroke-width="0.5" stroke-linecap="round" stroke-linejoin="round"/>
<path d="M331.855 174.947L334.092 183.467L327.367 186.602L331.855 174.947Z" stroke="#2ACAF7" stroke-width="0.5" stroke-linecap="round" stroke-linejoin="round"/>
<path d="M299.576 213.053L313.026 220.675L304.955 233.676L299.576 213.053Z" stroke="#2ACAF7" stroke-width="0.5" stroke-linecap="round" stroke-linejoin="round"/>
<path d="M299.576 213.053L304.954 233.676L294.646 234.573L299.576 213.053Z" stroke="#2ACAF7" stroke-width="0.5" stroke-linecap="round" stroke-linejoin="round"/>
<path d="M274.017 237.258L275.812 243.085L262.818 237.258H274.017Z" stroke="#2ACAF7" stroke-width="0.5" stroke-linecap="round" stroke-linejoin="round"/>
<path d="M250.259 240.85L251.606 231.881L243.086 238.606L250.259 240.85Z" stroke="#2ACAF7" stroke-width="0.5" stroke-linecap="round" stroke-linejoin="round"/>
<path d="M234.574 256.535L240.401 259.677L242.19 264.606L234.574 256.535Z" stroke="#2ACAF7" stroke-width="0.5" stroke-linecap="round" stroke-linejoin="round"/>
<path d="M242.188 264.607L250.259 269.537L248.912 278.057L242.188 264.607Z" stroke="#2ACAF7" stroke-width="0.5" stroke-linecap="round" stroke-linejoin="round"/>
<path d="M245.779 337.232L253.402 338.13L246.228 345.745L245.779 337.232Z" stroke="#2ACAF7" stroke-width="0.5" stroke-linecap="round" stroke-linejoin="round"/>
<path d="M235.022 357.407L236.81 353.816L228.297 355.163L235.022 357.407Z" stroke="#2ACAF7" stroke-width="0.5" stroke-linecap="round" stroke-linejoin="round"/>
<path d="M229.637 368.164L239.054 366.369L244.881 375.787L229.637 368.164Z" stroke="#2ACAF7" stroke-width="0.5" stroke-linecap="round" stroke-linejoin="round"/>
<path d="M237.259 391.473L239.503 398.197L229.637 397.749L237.259 391.473Z" stroke="#2ACAF7" stroke-width="0.5" stroke-linecap="round" stroke-linejoin="round"/>
<path d="M210.809 399.095L218.431 395.96L211.257 391.473L210.809 399.095Z" stroke="#2ACAF7" stroke-width="0.5" stroke-linecap="round" stroke-linejoin="round"/>
<path d="M205.43 384.298L211.257 391.472L213.501 378.029L205.43 384.298Z" stroke="#2ACAF7" stroke-width="0.5" stroke-linecap="round" stroke-linejoin="round"/>
<path d="M205.43 384.298L213.501 378.029L215.745 370.855L205.43 384.298Z" stroke="#2ACAF7" stroke-width="0.5" stroke-linecap="round" stroke-linejoin="round"/>
<path d="M215.746 370.856L229.637 368.164L217.983 357.855L215.746 370.856Z" stroke="#2ACAF7" stroke-width="0.5" stroke-linecap="round" stroke-linejoin="round"/>
<path d="M228.297 355.162L229.637 368.163L217.982 357.855L228.297 355.162Z" stroke="#2ACAF7" stroke-width="0.5" stroke-linecap="round" stroke-linejoin="round"/>
<path d="M217.982 357.856L228.297 355.164L224.258 343.061L217.982 357.856Z" stroke="#2ACAF7" stroke-width="0.5" stroke-linecap="round" stroke-linejoin="round"/>
<path d="M168.223 324.68L173.152 325.129L169.569 317.955L168.223 324.68Z" stroke="#2ACAF7" stroke-width="0.5" stroke-linecap="round" stroke-linejoin="round"/>
<path d="M173.154 325.129L184.808 324.231L169.57 317.955L173.154 325.129Z" stroke="#2ACAF7" stroke-width="0.5" stroke-linecap="round" stroke-linejoin="round"/>
<path d="M161.049 317.955H169.569L154.773 306.301L161.049 317.955Z" stroke="#2ACAF7" stroke-width="0.5" stroke-linecap="round" stroke-linejoin="round"/>
<path d="M139.977 305.853L152.529 293.75L133.701 302.263L139.977 305.853Z" stroke="#2ACAF7" stroke-width="0.5" stroke-linecap="round" stroke-linejoin="round"/>
<path d="M133.702 302.263L152.53 293.75L131.465 291.955L133.702 302.263Z" stroke="#2ACAF7" stroke-width="0.5" stroke-linecap="round" stroke-linejoin="round"/>
<path d="M106.362 300.917L116.67 301.365L104.566 293.75L106.362 300.917Z" stroke="#2ACAF7" stroke-width="0.5" stroke-linecap="round" stroke-linejoin="round"/>
<path d="M92.4622 299.129L94.2503 310.335L84.8398 307.642L92.4622 299.129Z" stroke="#2ACAF7" stroke-width="0.5" stroke-linecap="round" stroke-linejoin="round"/>
<path d="M27.9088 294.641L31.492 298.231L21.6328 299.128L27.9088 294.641Z" stroke="#2ACAF7" stroke-width="0.5" stroke-linecap="round" stroke-linejoin="round"/>
<path d="M21.633 299.128L27.9089 294.64L14.9082 292.852L21.633 299.128Z" stroke="#2ACAF7" stroke-width="0.5" stroke-linecap="round" stroke-linejoin="round"/>
<path d="M9.08008 287.915L14.9073 292.852L14.4585 281.197L9.08008 287.915Z" stroke="#2ACAF7" stroke-width="0.5" stroke-linecap="round" stroke-linejoin="round"/>
<path d="M34.6328 277.159L42.2551 275.812L46.736 284.332L34.6328 277.159Z" stroke="#2ACAF7" stroke-width="0.5" stroke-linecap="round" stroke-linejoin="round"/>
<path d="M42.2559 275.812L48.083 280.3L46.7367 284.332L42.2559 275.812Z" stroke="#2ACAF7" stroke-width="0.5" stroke-linecap="round" stroke-linejoin="round"/>
<path d="M46.7363 284.333L48.0827 280.301L56.5956 288.365L46.7363 284.333Z" stroke="#2ACAF7" stroke-width="0.5" stroke-linecap="round" stroke-linejoin="round"/>
<path d="M46.7363 284.332L54.8074 295.986L56.5956 288.364L46.7363 284.332Z" stroke="#2ACAF7" stroke-width="0.5" stroke-linecap="round" stroke-linejoin="round"/>
<path d="M54.8066 295.986L56.5948 288.363L64.6659 295.088L54.8066 295.986Z" stroke="#2ACAF7" stroke-width="0.5" stroke-linecap="round" stroke-linejoin="round"/>
<path d="M54.8066 295.985L62.4219 300.915L64.6659 295.088L54.8066 295.985Z" stroke="#2ACAF7" stroke-width="0.5" stroke-linecap="round" stroke-linejoin="round"/>
<path d="M62.4219 300.915L64.6658 295.088L71.3906 300.915H62.4219Z" stroke="#2ACAF7" stroke-width="0.5" stroke-linecap="round" stroke-linejoin="round"/>
<path d="M62.4219 300.916L68.2491 304.506L71.3906 300.916H62.4219Z" stroke="#2ACAF7" stroke-width="0.5" stroke-linecap="round" stroke-linejoin="round"/>
<path d="M68.25 304.506L79.4626 305.853L71.3915 300.916L68.25 304.506Z" stroke="#2ACAF7" stroke-width="0.5" stroke-linecap="round" stroke-linejoin="round"/>
<path d="M71.3906 300.917L79.4617 305.854L79.9105 299.129L71.3906 300.917Z" stroke="#2ACAF7" stroke-width="0.5" stroke-linecap="round" stroke-linejoin="round"/>
<path d="M79.4629 305.854L84.8413 307.642L79.9117 299.129L79.4629 305.854Z" stroke="#2ACAF7" stroke-width="0.5" stroke-linecap="round" stroke-linejoin="round"/>
<path d="M79.9102 299.127L84.8398 307.64L84.391 295.537L79.9102 299.127Z" stroke="#2ACAF7" stroke-width="0.5" stroke-linecap="round" stroke-linejoin="round"/>
<path d="M84.8414 307.64L92.4637 299.127L84.3926 295.537L84.8414 307.64Z" stroke="#2ACAF7" stroke-width="0.5" stroke-linecap="round" stroke-linejoin="round"/>
<path d="M57.0449 278.505L66.0136 285.678L67.36 275.363L57.0449 278.505Z" stroke="#2ACAF7" stroke-width="0.5" stroke-linecap="round" stroke-linejoin="round"/>
<path d="M66.0117 285.678L67.3581 275.363L73.1853 276.261L66.0117 285.678Z" stroke="#2ACAF7" stroke-width="0.5" stroke-linecap="round" stroke-linejoin="round"/>
<path d="M66.0117 285.679L73.1853 287.467V276.262L66.0117 285.679Z" stroke="#2ACAF7" stroke-width="0.5" stroke-linecap="round" stroke-linejoin="round"/>
<path d="M67.3594 275.364L73.1866 276.261L69.1475 270.883L67.3594 275.364Z" stroke="#2ACAF7" stroke-width="0.5" stroke-linecap="round" stroke-linejoin="round"/>
<path d="M69.1465 270.883L73.1855 276.261L78.5639 270.883H69.1465Z" stroke="#2ACAF7" stroke-width="0.5" stroke-linecap="round" stroke-linejoin="round"/>
<path d="M116.221 261.023L128.324 259.228L116.669 253.85L116.221 261.023Z" stroke="#2ACAF7" stroke-width="0.5" stroke-linecap="round" stroke-linejoin="round"/>
<path d="M125.188 252.055L128.322 259.228L116.668 253.85L125.188 252.055Z" stroke="#2ACAF7" stroke-width="0.5" stroke-linecap="round" stroke-linejoin="round"/>
<path d="M116.22 261.023L116.669 253.85L108.598 259.228L116.22 261.023Z" stroke="#2ACAF7" stroke-width="0.5" stroke-linecap="round" stroke-linejoin="round"/>
<path d="M94.6992 261.914L104.117 263.709L97.3919 258.779L94.6992 261.914Z" stroke="#2ACAF7" stroke-width="0.5" stroke-linecap="round" stroke-linejoin="round"/>
<path d="M104.117 263.709L108.598 259.228L97.3926 258.779L104.117 263.709Z" stroke="#2ACAF7" stroke-width="0.5" stroke-linecap="round" stroke-linejoin="round"/>
<path d="M94.6992 261.913L97.3919 258.779L89.7695 255.645L94.6992 261.913Z" stroke="#2ACAF7" stroke-width="0.5" stroke-linecap="round" stroke-linejoin="round"/>
<path d="M63.32 234.573L60.1855 228.746L74.9744 230.092L63.32 234.573Z" stroke="#2ACAF7" stroke-width="0.5" stroke-linecap="round" stroke-linejoin="round"/>
<path d="M63.3203 234.573L67.8011 243.085L74.9747 230.092L63.3203 234.573Z" stroke="#2ACAF7" stroke-width="0.5" stroke-linecap="round" stroke-linejoin="round"/>
<path d="M67.8008 243.085L76.3207 244.881L74.9743 230.092L67.8008 243.085Z" stroke="#2ACAF7" stroke-width="0.5" stroke-linecap="round" stroke-linejoin="round"/>
<path d="M74.9746 230.092L76.321 244.881L80.8018 231.431L74.9746 230.092Z" stroke="#2ACAF7" stroke-width="0.5" stroke-linecap="round" stroke-linejoin="round"/>
<path d="M60.1855 228.746L74.9744 230.092L74.0768 224.258L60.1855 228.746Z" stroke="#2ACAF7" stroke-width="0.5" stroke-linecap="round" stroke-linejoin="round"/>
<path d="M74.9737 230.092L80.8009 231.431L74.0762 224.258L74.9737 230.092Z" stroke="#2ACAF7" stroke-width="0.5" stroke-linecap="round" stroke-linejoin="round"/>
<path d="M68.25 218.88L74.0772 224.258L76.3211 209.918L68.25 218.88Z" stroke="#2ACAF7" stroke-width="0.5" stroke-linecap="round" stroke-linejoin="round"/>
<path d="M122.496 91.1153L124.74 75.4219L131.465 81.6978L122.496 91.1153Z" stroke="#2ACAF7" stroke-width="0.5" stroke-linecap="round" stroke-linejoin="round"/>
<path d="M124.74 75.4219L128.772 76.3194L131.465 81.6978L124.74 75.4219Z" stroke="#2ACAF7" stroke-width="0.5" stroke-linecap="round" stroke-linejoin="round"/>
<path d="M122.496 91.1167L131.465 81.6992L136.394 85.7383L122.496 91.1167Z" stroke="#2ACAF7" stroke-width="0.5" stroke-linecap="round" stroke-linejoin="round"/>
<path d="M136.395 85.7374L144.914 80.8008L157.018 89.3207L136.395 85.7374Z" stroke="#2ACAF7" stroke-width="0.5" stroke-linecap="round" stroke-linejoin="round"/>
<path d="M144.914 80.8022L150.292 79.4629L157.017 89.3221L144.914 80.8022Z" stroke="#2ACAF7" stroke-width="0.5" stroke-linecap="round" stroke-linejoin="round"/>
<path d="M156.568 102.323L157.017 89.3223L163.742 108.15L156.568 102.323Z" stroke="#2ACAF7" stroke-width="0.5" stroke-linecap="round" stroke-linejoin="round"/>
<path d="M163.742 108.148L174.499 109.944L170.916 117.566L163.742 108.148Z" stroke="#2ACAF7" stroke-width="0.5" stroke-linecap="round" stroke-linejoin="round"/>
<path d="M163.743 108.148L170.917 117.566L160.602 126.086L163.743 108.148Z" stroke="#2ACAF7" stroke-width="0.5" stroke-linecap="round" stroke-linejoin="round"/>
<path d="M160.6 126.086L163.741 108.148L152.08 124.291L160.6 126.086Z" stroke="#2ACAF7" stroke-width="0.5" stroke-linecap="round" stroke-linejoin="round"/>
<path d="M150.742 133.701L155.672 140.875L153.428 146.253L150.742 133.701Z" stroke="#2ACAF7" stroke-width="0.5" stroke-linecap="round" stroke-linejoin="round"/>
<path d="M153.428 146.253L155.672 140.875L158.364 151.19L153.428 146.253Z" stroke="#2ACAF7" stroke-width="0.5" stroke-linecap="round" stroke-linejoin="round"/>
<path d="M153.428 146.254L158.365 151.191L150.742 159.255L153.428 146.254Z" stroke="#2ACAF7" stroke-width="0.5" stroke-linecap="round" stroke-linejoin="round"/>
<path d="M224.258 131.913L226.502 138.638L230.983 126.086L224.258 131.913Z" stroke="#2ACAF7" stroke-width="0.5" stroke-linecap="round" stroke-linejoin="round"/>
<path d="M226.502 138.638L230.983 126.086L238.156 123.842L226.502 138.638Z" stroke="#2ACAF7" stroke-width="0.5" stroke-linecap="round" stroke-linejoin="round"/>
<path d="M230.982 126.087L238.156 123.843L236.81 121.15L230.982 126.087Z" stroke="#2ACAF7" stroke-width="0.5" stroke-linecap="round" stroke-linejoin="round"/>
<path d="M224.258 131.915L230.983 126.087L226.053 125.639L224.258 131.915Z" stroke="#2ACAF7" stroke-width="0.5" stroke-linecap="round" stroke-linejoin="round"/>
<path d="M230.982 126.087L236.81 121.15L226.053 125.638L230.982 126.087Z" stroke="#2ACAF7" stroke-width="0.5" stroke-linecap="round" stroke-linejoin="round"/>
<path d="M224.259 131.915L226.054 125.639L216.637 126.087L224.259 131.915Z" stroke="#2ACAF7" stroke-width="0.5" stroke-linecap="round" stroke-linejoin="round"/>
<path d="M203.186 121.15L209.02 125.189L203.186 111.291V121.15Z" stroke="#2ACAF7" stroke-width="0.5" stroke-linecap="round" stroke-linejoin="round"/>
<path d="M204.09 101.873L211.257 93.8086L203.186 89.7695L204.09 101.873Z" stroke="#2ACAF7" stroke-width="0.5" stroke-linecap="round" stroke-linejoin="round"/>
<path d="M203.187 89.7695L204.091 101.873L197.359 93.3528L203.187 89.7695Z" stroke="#2ACAF7" stroke-width="0.5" stroke-linecap="round" stroke-linejoin="round"/>
<path d="M203.187 111.291L204.091 101.873L197.359 93.3535L203.187 111.291Z" stroke="#2ACAF7" stroke-width="0.5" stroke-linecap="round" stroke-linejoin="round"/>
<path d="M197.359 93.353L203.186 111.29L187.5 92.0137L197.359 93.353Z" stroke="#2ACAF7" stroke-width="0.5" stroke-linecap="round" stroke-linejoin="round"/>
<path d="M180.775 86.6354L187.5 92.0138L185.256 81.25L180.775 86.6354Z" stroke="#2ACAF7" stroke-width="0.5" stroke-linecap="round" stroke-linejoin="round"/>
<path d="M187.5 92.0138L197.359 93.3532L185.256 81.25L187.5 92.0138Z" stroke="#2ACAF7" stroke-width="0.5" stroke-linecap="round" stroke-linejoin="round"/>
<path d="M180.775 86.6345L185.256 81.2491L186.603 75.4219L180.775 86.6345Z" stroke="#2ACAF7" stroke-width="0.5" stroke-linecap="round" stroke-linejoin="round"/>
<path d="M182.121 53.4598L185.256 65.1142L186.153 50.3184L182.121 53.4598Z" stroke="#2ACAF7" stroke-width="0.5" stroke-linecap="round" stroke-linejoin="round"/>
<path d="M182.121 53.4599L186.153 50.3184L187.948 38.6641L182.121 53.4599Z" stroke="#2ACAF7" stroke-width="0.5" stroke-linecap="round" stroke-linejoin="round"/>
<path d="M242.188 8.18164H250.259L255.637 17.5921L242.188 8.18164Z" stroke="#2ACAF7" stroke-width="0.5" stroke-linecap="round" stroke-linejoin="round"/>
<path d="M250.26 8.18164L255.638 17.5921L256.536 9.07921L250.26 8.18164Z" stroke="#2ACAF7" stroke-width="0.5" stroke-linecap="round" stroke-linejoin="round"/>
<path d="M255.639 17.593L259.678 16.2536L256.536 9.08008L255.639 17.593Z" stroke="#2ACAF7" stroke-width="0.5" stroke-linecap="round" stroke-linejoin="round"/>
<path d="M256.535 9.07921L259.677 16.2527L261.023 8.18164L256.535 9.07921Z" stroke="#2ACAF7" stroke-width="0.5" stroke-linecap="round" stroke-linejoin="round"/>
<path d="M259.678 16.2527L261.024 8.18164L265.056 10.8673L259.678 16.2527Z" stroke="#2ACAF7" stroke-width="0.5" stroke-linecap="round" stroke-linejoin="round"/>
<path d="M316.161 3.24581L321.989 18.9392L308.539 0.111328L316.161 3.24581Z" stroke="#2ACAF7" stroke-width="0.5" stroke-linecap="round" stroke-linejoin="round"/>
<path d="M184.807 138.639L197.807 128.324L204.532 137.742L184.807 138.639Z" stroke="#2ACAF7" stroke-width="0.5" stroke-linecap="round" stroke-linejoin="round"/>
<path d="M197.809 128.324L209.021 125.189L204.533 137.741L197.809 128.324Z" stroke="#2ACAF7" stroke-width="0.5" stroke-linecap="round" stroke-linejoin="round"/>
<path d="M209.021 125.189L216.636 126.087L204.533 137.741L209.021 125.189Z" stroke="#2ACAF7" stroke-width="0.5" stroke-linecap="round" stroke-linejoin="round"/>
<path d="M204.533 137.74L216.636 126.086L211.258 143.567L204.533 137.74Z" stroke="#2ACAF7" stroke-width="0.5" stroke-linecap="round" stroke-linejoin="round"/>
<path d="M204.98 166.428L216.635 158.364L211.256 143.568L204.98 166.428Z" stroke="#2ACAF7" stroke-width="0.5" stroke-linecap="round" stroke-linejoin="round"/>
<path d="M216.636 126.086L224.259 131.913L211.258 143.567L216.636 126.086Z" stroke="#2ACAF7" stroke-width="0.5" stroke-linecap="round" stroke-linejoin="round"/>
<path d="M216.636 158.364L224.707 149.396L211.258 143.568L216.636 158.364Z" stroke="#2ACAF7" stroke-width="0.5" stroke-linecap="round" stroke-linejoin="round"/>
<path d="M224.259 131.914L226.502 138.639L211.258 143.568L224.259 131.914Z" stroke="#2ACAF7" stroke-width="0.5" stroke-linecap="round" stroke-linejoin="round"/>
<path d="M224.707 149.395L226.502 138.639L211.258 143.568L224.707 149.395Z" stroke="#2ACAF7" stroke-width="0.5" stroke-linecap="round" stroke-linejoin="round"/>
<path d="M173.152 152.08L179.428 147.15L190.634 152.529L173.152 152.08Z" stroke="#2ACAF7" stroke-width="0.5" stroke-linecap="round" stroke-linejoin="round"/>
<path d="M179.428 147.152L184.806 138.639L190.633 152.53L179.428 147.152Z" stroke="#2ACAF7" stroke-width="0.5" stroke-linecap="round" stroke-linejoin="round"/>
<path d="M184.807 138.638L204.532 137.74L190.634 152.529L184.807 138.638Z" stroke="#2ACAF7" stroke-width="0.5" stroke-linecap="round" stroke-linejoin="round"/>
<path d="M204.533 137.74L211.258 143.567L190.635 152.529L204.533 137.74Z" stroke="#2ACAF7" stroke-width="0.5" stroke-linecap="round" stroke-linejoin="round"/>
<path d="M204.982 166.428L211.258 143.568L190.635 152.53L204.982 166.428Z" stroke="#2ACAF7" stroke-width="0.5" stroke-linecap="round" stroke-linejoin="round"/>
<path d="M173.152 152.08L190.634 152.529L178.089 162.844L173.152 152.08Z" stroke="#2ACAF7" stroke-width="0.5" stroke-linecap="round" stroke-linejoin="round"/>
<path d="M170.018 172.703L176.742 178.088L178.089 162.844L170.018 172.703Z" stroke="#2ACAF7" stroke-width="0.5" stroke-linecap="round" stroke-linejoin="round"/>
<path d="M176.742 178.088L183.467 181.223L178.089 162.844L176.742 178.088Z" stroke="#2ACAF7" stroke-width="0.5" stroke-linecap="round" stroke-linejoin="round"/>
<path d="M183.468 181.223L196.911 179.877L178.09 162.844L183.468 181.223Z" stroke="#2ACAF7" stroke-width="0.5" stroke-linecap="round" stroke-linejoin="round"/>
<path d="M190.635 152.529L204.982 166.428L178.09 162.844L190.635 152.529Z" stroke="#2ACAF7" stroke-width="0.5" stroke-linecap="round" stroke-linejoin="round"/>
<path d="M196.911 179.877L204.982 166.427L178.09 162.844L196.911 179.877Z" stroke="#2ACAF7" stroke-width="0.5" stroke-linecap="round" stroke-linejoin="round"/>
<path d="M157.916 170.467L162.846 171.807L159.704 160.152L157.916 170.467Z" stroke="#2ACAF7" stroke-width="0.5" stroke-linecap="round" stroke-linejoin="round"/>
<path d="M162.845 171.807L170.018 172.704L159.703 160.152L162.845 171.807Z" stroke="#2ACAF7" stroke-width="0.5" stroke-linecap="round" stroke-linejoin="round"/>
<path d="M173.153 152.08L178.089 162.844L159.703 160.151L173.153 152.08Z" stroke="#2ACAF7" stroke-width="0.5" stroke-linecap="round" stroke-linejoin="round"/>
<path d="M170.018 172.704L178.089 162.845L159.703 160.152L170.018 172.704Z" stroke="#2ACAF7" stroke-width="0.5" stroke-linecap="round" stroke-linejoin="round"/>
<path d="M68.25 304.506L79.4626 305.852L77.6675 310.782L68.25 304.506Z" stroke="#2ACAF7" stroke-width="0.5" stroke-linecap="round" stroke-linejoin="round"/>
<path d="M79.4631 305.854L84.8415 307.642L77.668 310.783L79.4631 305.854Z" stroke="#2ACAF7" stroke-width="0.5" stroke-linecap="round" stroke-linejoin="round"/>
<path d="M68.25 304.506L77.6675 310.782L69.1476 322.885L68.25 304.506Z" stroke="#2ACAF7" stroke-width="0.5" stroke-linecap="round" stroke-linejoin="round"/>
<path d="M39.5623 331.854L46.287 334.539L37.3184 325.129L39.5623 331.854Z" stroke="#2ACAF7" stroke-width="0.5" stroke-linecap="round" stroke-linejoin="round"/>
<path d="M46.287 334.539L53.0118 331.854L37.3184 325.129L46.287 334.539Z" stroke="#2ACAF7" stroke-width="0.5" stroke-linecap="round" stroke-linejoin="round"/>
<path d="M13.1133 322.437L20.2868 319.303L13.5621 326.918L13.1133 322.437Z" stroke="#2ACAF7" stroke-width="0.5" stroke-linecap="round" stroke-linejoin="round"/>
<path d="M13.111 322.438L13.5598 326.918L5.9375 326.47L13.111 322.438Z" stroke="#2ACAF7" stroke-width="0.5" stroke-linecap="round" stroke-linejoin="round"/>
<path d="M18.041 304.506L20.2849 319.302L30.1442 307.64L18.041 304.506Z" stroke="#2ACAF7" stroke-width="0.5" stroke-linecap="round" stroke-linejoin="round"/>
<path d="M20.2852 319.302L29.2538 323.334L30.1444 307.641L20.2852 319.302Z" stroke="#2ACAF7" stroke-width="0.5" stroke-linecap="round" stroke-linejoin="round"/>
<path d="M68.2494 304.506L69.147 322.885L57.9414 304.955L68.2494 304.506Z" stroke="#2ACAF7" stroke-width="0.5" stroke-linecap="round" stroke-linejoin="round"/>
<path d="M37.3184 325.13L40.0111 312.129L54.3581 319.751L37.3184 325.13Z" stroke="#2ACAF7" stroke-width="0.5" stroke-linecap="round" stroke-linejoin="round"/>
<path d="M37.3184 325.128L53.0118 331.853L54.3581 319.75L37.3184 325.128Z" stroke="#2ACAF7" stroke-width="0.5" stroke-linecap="round" stroke-linejoin="round"/>
<path d="M40.0117 312.128L48.9734 311.23L54.3588 319.75L40.0117 312.128Z" stroke="#2ACAF7" stroke-width="0.5" stroke-linecap="round" stroke-linejoin="round"/>
<path d="M48.9727 311.231L57.9413 304.955L54.3581 319.751L48.9727 311.231Z" stroke="#2ACAF7" stroke-width="0.5" stroke-linecap="round" stroke-linejoin="round"/>
<path d="M53.0117 331.853L61.9734 327.814L54.3581 319.75L53.0117 331.853Z" stroke="#2ACAF7" stroke-width="0.5" stroke-linecap="round" stroke-linejoin="round"/>
<path d="M57.9407 304.955L69.1463 322.885L54.3574 319.751L57.9407 304.955Z" stroke="#2ACAF7" stroke-width="0.5" stroke-linecap="round" stroke-linejoin="round"/>
<path d="M61.9727 327.814L69.1463 322.884L54.3574 319.75L61.9727 327.814Z" stroke="#2ACAF7" stroke-width="0.5" stroke-linecap="round" stroke-linejoin="round"/>
<path d="M29.2539 323.334L30.1445 307.641L35.9716 317.058L29.2539 323.334Z" stroke="#2ACAF7" stroke-width="0.5" stroke-linecap="round" stroke-linejoin="round"/>
<path d="M29.2539 323.335L37.318 325.13L35.9716 317.059L29.2539 323.335Z" stroke="#2ACAF7" stroke-width="0.5" stroke-linecap="round" stroke-linejoin="round"/>
<path d="M30.1445 307.641L40.0108 312.128L35.9717 317.058L30.1445 307.641Z" stroke="#2ACAF7" stroke-width="0.5" stroke-linecap="round" stroke-linejoin="round"/>
<path d="M37.319 325.13L40.0117 312.129L35.9727 317.059L37.319 325.13Z" stroke="#2ACAF7" stroke-width="0.5" stroke-linecap="round" stroke-linejoin="round"/>
<path d="M0.111328 321.988L3.24581 310.334L10.8681 314.815L0.111328 321.988Z" stroke="#2ACAF7" stroke-width="0.5" stroke-linecap="round" stroke-linejoin="round"/>
<path d="M0.111328 321.988L5.93851 326.469L10.8681 314.814L0.111328 321.988Z" stroke="#2ACAF7" stroke-width="0.5" stroke-linecap="round" stroke-linejoin="round"/>
<path d="M3.24609 310.333L10.8684 306.75V314.814L3.24609 310.333Z" stroke="#2ACAF7" stroke-width="0.5" stroke-linecap="round" stroke-linejoin="round"/>
<path d="M5.9375 326.469L13.111 322.437L10.8671 314.814L5.9375 326.469Z" stroke="#2ACAF7" stroke-width="0.5" stroke-linecap="round" stroke-linejoin="round"/>
<path d="M10.8691 306.75L18.0427 304.506L10.8691 314.814V306.75Z" stroke="#2ACAF7" stroke-width="0.5" stroke-linecap="round" stroke-linejoin="round"/>
<path d="M13.1131 322.437L20.2866 319.302L10.8691 314.814L13.1131 322.437Z" stroke="#2ACAF7" stroke-width="0.5" stroke-linecap="round" stroke-linejoin="round"/>
<path d="M18.0427 304.506L20.2866 319.302L10.8691 314.814L18.0427 304.506Z" stroke="#2ACAF7" stroke-width="0.5" stroke-linecap="round" stroke-linejoin="round"/>
<path d="M14.459 281.197L14.9078 292.852L23.8694 286.127L14.459 281.197Z" stroke="#2ACAF7" stroke-width="0.5" stroke-linecap="round" stroke-linejoin="round"/>
<path d="M14.459 281.198L23.8694 276.262V286.128L14.459 281.198Z" stroke="#2ACAF7" stroke-width="0.5" stroke-linecap="round" stroke-linejoin="round"/>
<path d="M14.9082 292.852L27.9089 294.64L23.8699 286.127L14.9082 292.852Z" stroke="#2ACAF7" stroke-width="0.5" stroke-linecap="round" stroke-linejoin="round"/>
<path d="M23.8691 276.262L34.6329 277.159L23.8691 286.128V276.262Z" stroke="#2ACAF7" stroke-width="0.5" stroke-linecap="round" stroke-linejoin="round"/>
<path d="M27.9082 294.64L34.6329 277.158L23.8691 286.127L27.9082 294.64Z" stroke="#2ACAF7" stroke-width="0.5" stroke-linecap="round" stroke-linejoin="round"/>
<path d="M27.9082 294.64L31.4915 298.23L42.2553 291.057L27.9082 294.64Z" stroke="#2ACAF7" stroke-width="0.5" stroke-linecap="round" stroke-linejoin="round"/>
<path d="M27.9082 294.64L34.633 277.158L42.2553 291.056L27.9082 294.64Z" stroke="#2ACAF7" stroke-width="0.5" stroke-linecap="round" stroke-linejoin="round"/>
<path d="M31.4902 298.23L37.7662 305.404L42.254 291.057L31.4902 298.23Z" stroke="#2ACAF7" stroke-width="0.5" stroke-linecap="round" stroke-linejoin="round"/>
<path d="M34.6328 277.158L46.736 284.332L42.2551 291.056L34.6328 277.158Z" stroke="#2ACAF7" stroke-width="0.5" stroke-linecap="round" stroke-linejoin="round"/>
<path d="M37.7676 305.404H49.8707L42.2554 291.057L37.7676 305.404Z" stroke="#2ACAF7" stroke-width="0.5" stroke-linecap="round" stroke-linejoin="round"/>
<path d="M46.7367 284.332L54.8078 295.986L42.2559 291.057L46.7367 284.332Z" stroke="#2ACAF7" stroke-width="0.5" stroke-linecap="round" stroke-linejoin="round"/>
<path d="M49.8712 305.404L54.8078 295.986L42.2559 291.057L49.8712 305.404Z" stroke="#2ACAF7" stroke-width="0.5" stroke-linecap="round" stroke-linejoin="round"/>
<path d="M67.3596 275.363L69.1477 270.882L65.5645 265.504L67.3596 275.363Z" stroke="#2ACAF7" stroke-width="0.5" stroke-linecap="round" stroke-linejoin="round"/>
<path d="M57.0436 278.505L67.3586 275.363L55.6973 272.678L57.0436 278.505Z" stroke="#2ACAF7" stroke-width="0.5" stroke-linecap="round" stroke-linejoin="round"/>
<path d="M57.9412 258.33L65.5635 265.504L55.6973 272.677L57.9412 258.33Z" stroke="#2ACAF7" stroke-width="0.5" stroke-linecap="round" stroke-linejoin="round"/>
<path d="M65.5635 265.504L67.3586 275.363L55.6973 272.677L65.5635 265.504Z" stroke="#2ACAF7" stroke-width="0.5" stroke-linecap="round" stroke-linejoin="round"/>
<path d="M48.082 257.434L57.9413 258.331L48.082 269.088V257.434Z" stroke="#2ACAF7" stroke-width="0.5" stroke-linecap="round" stroke-linejoin="round"/>
<path d="M55.6973 272.677L57.9413 258.33L48.082 269.087L55.6973 272.677Z" stroke="#2ACAF7" stroke-width="0.5" stroke-linecap="round" stroke-linejoin="round"/>
<path d="M30.1445 259.227L39.562 256.086L39.1132 261.023L30.1445 259.227Z" stroke="#2ACAF7" stroke-width="0.5" stroke-linecap="round" stroke-linejoin="round"/>
<path d="M39.5621 256.086L48.082 257.432L39.1133 261.023L39.5621 256.086Z" stroke="#2ACAF7" stroke-width="0.5" stroke-linecap="round" stroke-linejoin="round"/>
<path d="M48.082 269.088V257.434L39.1133 261.024L48.082 269.088Z" stroke="#2ACAF7" stroke-width="0.5" stroke-linecap="round" stroke-linejoin="round"/>
<path d="M30.1445 259.229L39.1132 261.024L32.8372 265.504L30.1445 259.229Z" stroke="#2ACAF7" stroke-width="0.5" stroke-linecap="round" stroke-linejoin="round"/>
<path d="M46.2871 246.675L63.3199 234.572L58.8391 243.983L46.2871 246.675Z" stroke="#2ACAF7" stroke-width="0.5" stroke-linecap="round" stroke-linejoin="round"/>
<path d="M63.3207 234.572L67.8015 243.085L58.8398 243.983L63.3207 234.572Z" stroke="#2ACAF7" stroke-width="0.5" stroke-linecap="round" stroke-linejoin="round"/>
<path d="M58.8398 243.984L67.8015 243.086V248.471L58.8398 243.984Z" stroke="#2ACAF7" stroke-width="0.5" stroke-linecap="round" stroke-linejoin="round"/>
<path d="M67.8008 243.086L76.3207 244.881L67.8008 248.471V243.086Z" stroke="#2ACAF7" stroke-width="0.5" stroke-linecap="round" stroke-linejoin="round"/>
<path d="M67.8008 248.471L76.3207 244.881L77.2182 254.298L67.8008 248.471Z" stroke="#2ACAF7" stroke-width="0.5" stroke-linecap="round" stroke-linejoin="round"/>
<path d="M76.3203 244.881L82.1475 248.913L77.2179 254.298L76.3203 244.881Z" stroke="#2ACAF7" stroke-width="0.5" stroke-linecap="round" stroke-linejoin="round"/>
<path d="M77.2188 254.299L82.1484 248.914L86.1874 260.575L77.2188 254.299Z" stroke="#2ACAF7" stroke-width="0.5" stroke-linecap="round" stroke-linejoin="round"/>
<path d="M82.1484 248.914L89.7708 255.646L86.1875 260.575L82.1484 248.914Z" stroke="#2ACAF7" stroke-width="0.5" stroke-linecap="round" stroke-linejoin="round"/>
<path d="M86.1875 260.574L87.9756 267.748L91.5659 264.157L86.1875 260.574Z" stroke="#2ACAF7" stroke-width="0.5" stroke-linecap="round" stroke-linejoin="round"/>
<path d="M86.1875 260.574L89.7708 255.645L91.5659 264.157L86.1875 260.574Z" stroke="#2ACAF7" stroke-width="0.5" stroke-linecap="round" stroke-linejoin="round"/>
<path d="M89.7695 255.645L94.6992 261.913L91.5647 264.157L89.7695 255.645Z" stroke="#2ACAF7" stroke-width="0.5" stroke-linecap="round" stroke-linejoin="round"/>
<path d="M94.6989 261.914L104.116 263.709L91.5645 264.158L94.6989 261.914Z" stroke="#2ACAF7" stroke-width="0.5" stroke-linecap="round" stroke-linejoin="round"/>
<path d="M77.2188 254.299L86.1874 260.575L82.1484 266.851L77.2188 254.299Z" stroke="#2ACAF7" stroke-width="0.5" stroke-linecap="round" stroke-linejoin="round"/>
<path d="M86.1875 260.574L87.9756 267.748L82.1484 266.85L86.1875 260.574Z" stroke="#2ACAF7" stroke-width="0.5" stroke-linecap="round" stroke-linejoin="round"/>
<path d="M77.2172 254.299L82.1468 266.851L72.7363 262.819L77.2172 254.299Z" stroke="#2ACAF7" stroke-width="0.5" stroke-linecap="round" stroke-linejoin="round"/>
<path d="M67.8001 248.471L77.2175 254.298L64.2168 259.676L67.8001 248.471Z" stroke="#2ACAF7" stroke-width="0.5" stroke-linecap="round" stroke-linejoin="round"/>
<path d="M72.7367 262.819L77.2175 254.299L64.2168 259.677L72.7367 262.819Z" stroke="#2ACAF7" stroke-width="0.5" stroke-linecap="round" stroke-linejoin="round"/>
<path d="M46.2871 246.677L58.8391 243.984L59.2878 250.26L46.2871 246.677Z" stroke="#2ACAF7" stroke-width="0.5" stroke-linecap="round" stroke-linejoin="round"/>
<path d="M58.8398 243.984L67.8015 248.472L59.2886 250.26L58.8398 243.984Z" stroke="#2ACAF7" stroke-width="0.5" stroke-linecap="round" stroke-linejoin="round"/>
<path d="M64.2167 259.676L67.8 248.471L59.2871 250.259L64.2167 259.676Z" stroke="#2ACAF7" stroke-width="0.5" stroke-linecap="round" stroke-linejoin="round"/>
<path d="M76.3203 244.881L80.8011 231.432L88.8723 241.298L76.3203 244.881Z" stroke="#2ACAF7" stroke-width="0.5" stroke-linecap="round" stroke-linejoin="round"/>
<path d="M76.3203 244.88L82.1475 248.912L88.8723 241.297L76.3203 244.88Z" stroke="#2ACAF7" stroke-width="0.5" stroke-linecap="round" stroke-linejoin="round"/>
<path d="M82.1484 248.912L89.7708 255.644L88.8732 241.297L82.1484 248.912Z" stroke="#2ACAF7" stroke-width="0.5" stroke-linecap="round" stroke-linejoin="round"/>
<path d="M88.873 241.297L89.7706 255.644L105.464 248.912L88.873 241.297Z" stroke="#2ACAF7" stroke-width="0.5" stroke-linecap="round" stroke-linejoin="round"/>
<path d="M89.7695 255.646L97.3919 258.78L105.463 248.914L89.7695 255.646Z" stroke="#2ACAF7" stroke-width="0.5" stroke-linecap="round" stroke-linejoin="round"/>
<path d="M97.3926 258.78L108.598 259.229L105.464 248.914L97.3926 258.78Z" stroke="#2ACAF7" stroke-width="0.5" stroke-linecap="round" stroke-linejoin="round"/>
<path d="M108.597 259.229L116.668 253.851L105.463 248.914L108.597 259.229Z" stroke="#2ACAF7" stroke-width="0.5" stroke-linecap="round" stroke-linejoin="round"/>
<path d="M74.0762 224.258L76.3201 209.918L88.872 221.124L74.0762 224.258Z" stroke="#2ACAF7" stroke-width="0.5" stroke-linecap="round" stroke-linejoin="round"/>
<path d="M74.0762 224.258L80.8009 231.431L88.872 221.123L74.0762 224.258Z" stroke="#2ACAF7" stroke-width="0.5" stroke-linecap="round" stroke-linejoin="round"/>
<path d="M80.8008 231.431L88.8719 241.297V221.123L80.8008 231.431Z" stroke="#2ACAF7" stroke-width="0.5" stroke-linecap="round" stroke-linejoin="round"/>
<path d="M76.3203 209.918L88.4235 196.91L99.6361 206.776L76.3203 209.918Z" stroke="#2ACAF7" stroke-width="0.5" stroke-linecap="round" stroke-linejoin="round"/>
<path d="M76.3203 209.919L88.8723 221.124L99.6361 206.777L76.3203 209.919Z" stroke="#2ACAF7" stroke-width="0.5" stroke-linecap="round" stroke-linejoin="round"/>
<path d="M88.4238 196.91L94.6998 188.846L99.6364 206.776L88.4238 196.91Z" stroke="#2ACAF7" stroke-width="0.5" stroke-linecap="round" stroke-linejoin="round"/>
<path d="M105.463 248.914L116.668 253.85L119.361 236.811L105.463 248.914Z" stroke="#2ACAF7" stroke-width="0.5" stroke-linecap="round" stroke-linejoin="round"/>
<path d="M116.668 253.85L125.188 252.055L119.361 236.811L116.668 253.85Z" stroke="#2ACAF7" stroke-width="0.5" stroke-linecap="round" stroke-linejoin="round"/>
<path d="M94.6992 188.845L99.6358 206.776L111.29 181.672L94.6992 188.845Z" stroke="#2ACAF7" stroke-width="0.5" stroke-linecap="round" stroke-linejoin="round"/>
<path d="M94.6992 188.846L101.873 170.916L111.29 181.673L94.6992 188.846Z" stroke="#2ACAF7" stroke-width="0.5" stroke-linecap="round" stroke-linejoin="round"/>
<path d="M101.873 170.915L108.598 156.568L118.464 162.396L101.873 170.915Z" stroke="#2ACAF7" stroke-width="0.5" stroke-linecap="round" stroke-linejoin="round"/>
<path d="M101.873 170.916L111.291 181.673L118.464 162.396L101.873 170.916Z" stroke="#2ACAF7" stroke-width="0.5" stroke-linecap="round" stroke-linejoin="round"/>
<path d="M108.598 156.569L113.078 141.773L118.464 162.396L108.598 156.569Z" stroke="#2ACAF7" stroke-width="0.5" stroke-linecap="round" stroke-linejoin="round"/>
<path d="M99.6367 206.777L109.047 215.297L122.048 192.879L99.6367 206.777Z" stroke="#2ACAF7" stroke-width="0.5" stroke-linecap="round" stroke-linejoin="round"/>
<path d="M99.6367 206.776L111.291 181.672L122.048 192.877L99.6367 206.776Z" stroke="#2ACAF7" stroke-width="0.5" stroke-linecap="round" stroke-linejoin="round"/>
<path d="M109.047 215.297L122.048 192.879L123.394 211.258L109.047 215.297Z" stroke="#2ACAF7" stroke-width="0.5" stroke-linecap="round" stroke-linejoin="round"/>
<path d="M109.047 215.297L119.362 236.81L126.087 230.983L109.047 215.297Z" stroke="#2ACAF7" stroke-width="0.5" stroke-linecap="round" stroke-linejoin="round"/>
<path d="M109.047 215.297L123.394 211.258L126.087 230.983L109.047 215.297Z" stroke="#2ACAF7" stroke-width="0.5" stroke-linecap="round" stroke-linejoin="round"/>
<path d="M119.361 236.811L125.189 252.055L139.529 244.433L119.361 236.811Z" stroke="#2ACAF7" stroke-width="0.5" stroke-linecap="round" stroke-linejoin="round"/>
<path d="M119.361 236.81L126.086 230.982L139.529 244.432L119.361 236.81Z" stroke="#2ACAF7" stroke-width="0.5" stroke-linecap="round" stroke-linejoin="round"/>
<path d="M73.1855 287.467V276.262L84.3911 280.301L73.1855 287.467Z" stroke="#2ACAF7" stroke-width="0.5" stroke-linecap="round" stroke-linejoin="round"/>
<path d="M73.1855 276.261L78.5639 270.883L84.3911 280.3L73.1855 276.261Z" stroke="#2ACAF7" stroke-width="0.5" stroke-linecap="round" stroke-linejoin="round"/>
<path d="M73.1855 287.467L79.4615 289.262L84.3911 280.301L73.1855 287.467Z" stroke="#2ACAF7" stroke-width="0.5" stroke-linecap="round" stroke-linejoin="round"/>
<path d="M78.5645 270.883L87.9749 267.748L84.3916 280.3L78.5645 270.883Z" stroke="#2ACAF7" stroke-width="0.5" stroke-linecap="round" stroke-linejoin="round"/>
<path d="M79.4629 289.262L84.3925 295.538V280.301L79.4629 289.262Z" stroke="#2ACAF7" stroke-width="0.5" stroke-linecap="round" stroke-linejoin="round"/>
<path d="M84.3926 295.538V280.301L101.874 283.435L84.3926 295.538Z" stroke="#2ACAF7" stroke-width="0.5" stroke-linecap="round" stroke-linejoin="round"/>
<path d="M84.3926 280.3L87.9758 267.748L101.874 283.434L84.3926 280.3Z" stroke="#2ACAF7" stroke-width="0.5" stroke-linecap="round" stroke-linejoin="round"/>
<path d="M84.3926 295.537L92.4637 299.127L101.874 283.434L84.3926 295.537Z" stroke="#2ACAF7" stroke-width="0.5" stroke-linecap="round" stroke-linejoin="round"/>
<path d="M87.9746 267.748L91.5649 264.158L101.873 283.435L87.9746 267.748Z" stroke="#2ACAF7" stroke-width="0.5" stroke-linecap="round" stroke-linejoin="round"/>
<path d="M91.5645 264.158L104.116 263.709L101.872 283.434L91.5645 264.158Z" stroke="#2ACAF7" stroke-width="0.5" stroke-linecap="round" stroke-linejoin="round"/>
<path d="M92.4629 299.127L104.566 293.749L101.873 283.434L92.4629 299.127Z" stroke="#2ACAF7" stroke-width="0.5" stroke-linecap="round" stroke-linejoin="round"/>
<path d="M101.873 283.434L104.117 263.709L112.188 272.678L101.873 283.434Z" stroke="#2ACAF7" stroke-width="0.5" stroke-linecap="round" stroke-linejoin="round"/>
<path d="M104.117 263.709L108.598 259.229L112.188 272.678L104.117 263.709Z" stroke="#2ACAF7" stroke-width="0.5" stroke-linecap="round" stroke-linejoin="round"/>
<path d="M108.598 259.229L116.22 261.024L112.188 272.678L108.598 259.229Z" stroke="#2ACAF7" stroke-width="0.5" stroke-linecap="round" stroke-linejoin="round"/>
<path d="M116.22 261.024L128.323 259.229L112.188 272.678L116.22 261.024Z" stroke="#2ACAF7" stroke-width="0.5" stroke-linecap="round" stroke-linejoin="round"/>
<path d="M101.873 283.435L104.566 293.75L116.22 282.986L101.873 283.435Z" stroke="#2ACAF7" stroke-width="0.5" stroke-linecap="round" stroke-linejoin="round"/>
<path d="M101.873 283.435L112.188 272.678L116.22 282.986L101.873 283.435Z" stroke="#2ACAF7" stroke-width="0.5" stroke-linecap="round" stroke-linejoin="round"/>
<path d="M104.566 293.75L116.67 301.365L116.221 282.986L104.566 293.75Z" stroke="#2ACAF7" stroke-width="0.5" stroke-linecap="round" stroke-linejoin="round"/>
<path d="M112.188 272.678L128.323 259.229L116.22 282.986L112.188 272.678Z" stroke="#2ACAF7" stroke-width="0.5" stroke-linecap="round" stroke-linejoin="round"/>
<path d="M116.669 301.365L126.087 291.506L116.221 282.986L116.669 301.365Z" stroke="#2ACAF7" stroke-width="0.5" stroke-linecap="round" stroke-linejoin="round"/>
<path d="M116.221 282.986L126.087 291.506L144.466 274.018L116.221 282.986Z" stroke="#2ACAF7" stroke-width="0.5" stroke-linecap="round" stroke-linejoin="round"/>
<path d="M116.221 282.986L128.324 259.229L144.466 274.017L116.221 282.986Z" stroke="#2ACAF7" stroke-width="0.5" stroke-linecap="round" stroke-linejoin="round"/>
<path d="M126.086 291.506L131.464 291.955L144.465 274.018L126.086 291.506Z" stroke="#2ACAF7" stroke-width="0.5" stroke-linecap="round" stroke-linejoin="round"/>
<path d="M131.465 291.955L152.53 293.75L144.466 274.018L131.465 291.955Z" stroke="#2ACAF7" stroke-width="0.5" stroke-linecap="round" stroke-linejoin="round"/>
<path d="M125.189 252.055L128.324 259.228L138.639 258.779L125.189 252.055Z" stroke="#2ACAF7" stroke-width="0.5" stroke-linecap="round" stroke-linejoin="round"/>
<path d="M125.189 252.054L139.53 244.432L138.639 258.779L125.189 252.054Z" stroke="#2ACAF7" stroke-width="0.5" stroke-linecap="round" stroke-linejoin="round"/>
<path d="M128.324 259.228L144.466 274.017L138.639 258.779L128.324 259.228Z" stroke="#2ACAF7" stroke-width="0.5" stroke-linecap="round" stroke-linejoin="round"/>
<path d="M144.465 274.018L152.529 293.75L158.363 287.025L144.465 274.018Z" stroke="#2ACAF7" stroke-width="0.5" stroke-linecap="round" stroke-linejoin="round"/>
<path d="M138.639 258.779L144.466 274.017L165.089 278.505L138.639 258.779Z" stroke="#2ACAF7" stroke-width="0.5" stroke-linecap="round" stroke-linejoin="round"/>
<path d="M144.465 274.018L158.363 287.025L165.088 278.505L144.465 274.018Z" stroke="#2ACAF7" stroke-width="0.5" stroke-linecap="round" stroke-linejoin="round"/>
<path d="M152.529 293.75L154.773 306.302L171.364 295.538L152.529 293.75Z" stroke="#2ACAF7" stroke-width="0.5" stroke-linecap="round" stroke-linejoin="round"/>
<path d="M152.529 293.75L158.363 287.025L171.364 295.538L152.529 293.75Z" stroke="#2ACAF7" stroke-width="0.5" stroke-linecap="round" stroke-linejoin="round"/>
<path d="M154.773 306.301L169.569 317.955L171.364 295.537L154.773 306.301Z" stroke="#2ACAF7" stroke-width="0.5" stroke-linecap="round" stroke-linejoin="round"/>
<path d="M158.363 287.026L165.088 278.506L171.364 295.539L158.363 287.026Z" stroke="#2ACAF7" stroke-width="0.5" stroke-linecap="round" stroke-linejoin="round"/>
<path d="M169.57 317.955L171.365 295.537L183.91 305.403L169.57 317.955Z" stroke="#2ACAF7" stroke-width="0.5" stroke-linecap="round" stroke-linejoin="round"/>
<path d="M169.57 317.956L184.808 324.232L183.91 305.404L169.57 317.956Z" stroke="#2ACAF7" stroke-width="0.5" stroke-linecap="round" stroke-linejoin="round"/>
<path d="M184.808 324.232L192.879 320.2L183.91 305.404L184.808 324.232Z" stroke="#2ACAF7" stroke-width="0.5" stroke-linecap="round" stroke-linejoin="round"/>
<path d="M183.91 305.404L192.879 320.2L206.328 308.988L183.91 305.404Z" stroke="#2ACAF7" stroke-width="0.5" stroke-linecap="round" stroke-linejoin="round"/>
<path d="M192.879 320.199L199.155 330.058L206.328 308.986L192.879 320.199Z" stroke="#2ACAF7" stroke-width="0.5" stroke-linecap="round" stroke-linejoin="round"/>
<path d="M211.258 391.472L213.502 378.029L225.605 380.266L211.258 391.472Z" stroke="#2ACAF7" stroke-width="0.5" stroke-linecap="round" stroke-linejoin="round"/>
<path d="M211.258 391.473L218.431 395.961L225.605 380.268L211.258 391.473Z" stroke="#2ACAF7" stroke-width="0.5" stroke-linecap="round" stroke-linejoin="round"/>
<path d="M213.502 378.029L215.746 370.855L225.605 380.266L213.502 378.029Z" stroke="#2ACAF7" stroke-width="0.5" stroke-linecap="round" stroke-linejoin="round"/>
<path d="M215.746 370.857L229.637 368.164L225.605 380.267L215.746 370.857Z" stroke="#2ACAF7" stroke-width="0.5" stroke-linecap="round" stroke-linejoin="round"/>
<path d="M218.432 395.961L229.637 397.749L225.605 380.268L218.432 395.961Z" stroke="#2ACAF7" stroke-width="0.5" stroke-linecap="round" stroke-linejoin="round"/>
<path d="M229.636 368.164L244.88 375.786L225.604 380.267L229.636 368.164Z" stroke="#2ACAF7" stroke-width="0.5" stroke-linecap="round" stroke-linejoin="round"/>
<path d="M229.636 397.749L237.258 391.473L225.604 380.268L229.636 397.749Z" stroke="#2ACAF7" stroke-width="0.5" stroke-linecap="round" stroke-linejoin="round"/>
<path d="M237.258 391.473L245.329 383.409L225.604 380.268L237.258 391.473Z" stroke="#2ACAF7" stroke-width="0.5" stroke-linecap="round" stroke-linejoin="round"/>
<path d="M244.88 375.785L245.329 383.407L225.604 380.266L244.88 375.785Z" stroke="#2ACAF7" stroke-width="0.5" stroke-linecap="round" stroke-linejoin="round"/>
<path d="M216.193 336.334L224.257 343.059L232.777 339.475L216.193 336.334Z" stroke="#2ACAF7" stroke-width="0.5" stroke-linecap="round" stroke-linejoin="round"/>
<path d="M224.258 343.06L228.297 355.163L232.778 339.477L224.258 343.06Z" stroke="#2ACAF7" stroke-width="0.5" stroke-linecap="round" stroke-linejoin="round"/>
<path d="M228.297 355.163L236.81 353.817L232.778 339.477L228.297 355.163Z" stroke="#2ACAF7" stroke-width="0.5" stroke-linecap="round" stroke-linejoin="round"/>
<path d="M236.809 353.817L246.227 345.746L232.777 339.477L236.809 353.817Z" stroke="#2ACAF7" stroke-width="0.5" stroke-linecap="round" stroke-linejoin="round"/>
<path d="M244.432 330.508L245.778 337.233L232.777 339.477L244.432 330.508Z" stroke="#2ACAF7" stroke-width="0.5" stroke-linecap="round" stroke-linejoin="round"/>
<path d="M245.778 337.232L246.227 345.745L232.777 339.476L245.778 337.232Z" stroke="#2ACAF7" stroke-width="0.5" stroke-linecap="round" stroke-linejoin="round"/>
<path d="M232.777 339.476L244.432 330.507L235.47 316.16L232.777 339.476Z" stroke="#2ACAF7" stroke-width="0.5" stroke-linecap="round" stroke-linejoin="round"/>
<path d="M244.432 330.507L252.055 318.853L235.471 316.16L244.432 330.507Z" stroke="#2ACAF7" stroke-width="0.5" stroke-linecap="round" stroke-linejoin="round"/>
<path d="M199.154 330.058L204.091 333.642L219.329 320.199L199.154 330.058Z" stroke="#2ACAF7" stroke-width="0.5" stroke-linecap="round" stroke-linejoin="round"/>
<path d="M199.154 330.058L206.328 308.986L219.329 320.199L199.154 330.058Z" stroke="#2ACAF7" stroke-width="0.5" stroke-linecap="round" stroke-linejoin="round"/>
<path d="M204.09 333.642L216.193 336.334L219.327 320.199L204.09 333.642Z" stroke="#2ACAF7" stroke-width="0.5" stroke-linecap="round" stroke-linejoin="round"/>
<path d="M216.193 336.334L232.777 339.476L219.328 320.199L216.193 336.334Z" stroke="#2ACAF7" stroke-width="0.5" stroke-linecap="round" stroke-linejoin="round"/>
<path d="M232.778 339.476L235.47 316.16L219.328 320.199L232.778 339.476Z" stroke="#2ACAF7" stroke-width="0.5" stroke-linecap="round" stroke-linejoin="round"/>
<path d="M235.471 316.161L252.055 318.853L240.4 295.986L235.471 316.161Z" stroke="#2ACAF7" stroke-width="0.5" stroke-linecap="round" stroke-linejoin="round"/>
<path d="M248.913 278.057L256.984 289.711L240.4 295.987L248.913 278.057Z" stroke="#2ACAF7" stroke-width="0.5" stroke-linecap="round" stroke-linejoin="round"/>
<path d="M252.055 318.853L258.331 310.333L240.4 295.986L252.055 318.853Z" stroke="#2ACAF7" stroke-width="0.5" stroke-linecap="round" stroke-linejoin="round"/>
<path d="M256.984 289.711L258.331 300.917L240.4 295.987L256.984 289.711Z" stroke="#2ACAF7" stroke-width="0.5" stroke-linecap="round" stroke-linejoin="round"/>
<path d="M258.331 300.916V310.333L240.4 295.986L258.331 300.916Z" stroke="#2ACAF7" stroke-width="0.5" stroke-linecap="round" stroke-linejoin="round"/>
<path d="M183.91 305.405L206.328 308.988L210.809 294.199L183.91 305.405Z" stroke="#2ACAF7" stroke-width="0.5" stroke-linecap="round" stroke-linejoin="round"/>
<path d="M206.328 308.988L219.329 320.201L210.809 294.199L206.328 308.988Z" stroke="#2ACAF7" stroke-width="0.5" stroke-linecap="round" stroke-linejoin="round"/>
<path d="M219.328 320.201L235.471 316.162L210.809 294.199L219.328 320.201Z" stroke="#2ACAF7" stroke-width="0.5" stroke-linecap="round" stroke-linejoin="round"/>
<path d="M235.471 316.162L240.4 295.987L210.809 294.199L235.471 316.162Z" stroke="#2ACAF7" stroke-width="0.5" stroke-linecap="round" stroke-linejoin="round"/>
<path d="M210.809 294.199L240.4 295.987L221.124 275.812L210.809 294.199Z" stroke="#2ACAF7" stroke-width="0.5" stroke-linecap="round" stroke-linejoin="round"/>
<path d="M234.573 256.535L242.188 264.606L221.123 275.812L234.573 256.535Z" stroke="#2ACAF7" stroke-width="0.5" stroke-linecap="round" stroke-linejoin="round"/>
<path d="M240.4 295.987L248.913 278.056L221.123 275.812L240.4 295.987Z" stroke="#2ACAF7" stroke-width="0.5" stroke-linecap="round" stroke-linejoin="round"/>
<path d="M242.188 264.607L248.913 278.057L221.123 275.813L242.188 264.607Z" stroke="#2ACAF7" stroke-width="0.5" stroke-linecap="round" stroke-linejoin="round"/>
<path d="M221.124 275.812L234.573 256.535L217.982 257.433L221.124 275.812Z" stroke="#2ACAF7" stroke-width="0.5" stroke-linecap="round" stroke-linejoin="round"/>
<path d="M233.676 243.984L234.573 256.536L217.982 257.434L233.676 243.984Z" stroke="#2ACAF7" stroke-width="0.5" stroke-linecap="round" stroke-linejoin="round"/>
<path d="M217.982 257.434L221.124 275.813L197.359 257.434H217.982Z" stroke="#2ACAF7" stroke-width="0.5" stroke-linecap="round" stroke-linejoin="round"/>
<path d="M144.914 163.742L150.741 159.254L138.189 160.6L144.914 163.742Z" stroke="#2ACAF7" stroke-width="0.5" stroke-linecap="round" stroke-linejoin="round"/>
<path d="M150.741 159.255L153.427 146.254L138.189 160.601L150.741 159.255Z" stroke="#2ACAF7" stroke-width="0.5" stroke-linecap="round" stroke-linejoin="round"/>
<path d="M115.322 105.913L122.496 91.1172L133.253 97.8419L115.322 105.913Z" stroke="#2ACAF7" stroke-width="0.5" stroke-linecap="round" stroke-linejoin="round"/>
<path d="M122.496 91.1167L136.394 85.7383L133.253 97.8414L122.496 91.1167Z" stroke="#2ACAF7" stroke-width="0.5" stroke-linecap="round" stroke-linejoin="round"/>
<path d="M136.395 85.7383L157.018 89.3215L133.254 97.8414L136.395 85.7383Z" stroke="#2ACAF7" stroke-width="0.5" stroke-linecap="round" stroke-linejoin="round"/>
<path d="M156.57 102.323L157.018 89.3223L133.254 97.8422L156.57 102.323Z" stroke="#2ACAF7" stroke-width="0.5" stroke-linecap="round" stroke-linejoin="round"/>
<path d="M133.254 97.8418L156.57 102.323L144.915 109.945L133.254 97.8418Z" stroke="#2ACAF7" stroke-width="0.5" stroke-linecap="round" stroke-linejoin="round"/>
<path d="M152.081 124.291L163.742 108.148L144.914 109.944L152.081 124.291Z" stroke="#2ACAF7" stroke-width="0.5" stroke-linecap="round" stroke-linejoin="round"/>
<path d="M156.568 102.322L163.742 108.149L144.914 109.945L156.568 102.322Z" stroke="#2ACAF7" stroke-width="0.5" stroke-linecap="round" stroke-linejoin="round"/>
<path d="M113.078 141.772L114.873 118.912L131.464 126.527L113.078 141.772Z" stroke="#2ACAF7" stroke-width="0.5" stroke-linecap="round" stroke-linejoin="round"/>
<path d="M114.873 118.913L115.322 105.912L131.464 126.528L114.873 118.913Z" stroke="#2ACAF7" stroke-width="0.5" stroke-linecap="round" stroke-linejoin="round"/>
<path d="M115.322 105.913L133.253 97.8418L131.464 126.529L115.322 105.913Z" stroke="#2ACAF7" stroke-width="0.5" stroke-linecap="round" stroke-linejoin="round"/>
<path d="M133.253 97.8418L144.914 109.945L131.465 126.529L133.253 97.8418Z" stroke="#2ACAF7" stroke-width="0.5" stroke-linecap="round" stroke-linejoin="round"/>
<path d="M144.914 109.943L152.081 124.29L131.465 126.527L144.914 109.943Z" stroke="#2ACAF7" stroke-width="0.5" stroke-linecap="round" stroke-linejoin="round"/>
<path d="M150.742 133.701L152.081 124.291L131.465 126.528L150.742 133.701Z" stroke="#2ACAF7" stroke-width="0.5" stroke-linecap="round" stroke-linejoin="round"/>
<path d="M113.078 141.772L118.464 162.395L127.874 140.426L113.078 141.772Z" stroke="#2ACAF7" stroke-width="0.5" stroke-linecap="round" stroke-linejoin="round"/>
<path d="M113.078 141.772L131.464 126.527L127.874 140.426L113.078 141.772Z" stroke="#2ACAF7" stroke-width="0.5" stroke-linecap="round" stroke-linejoin="round"/>
<path d="M118.465 162.395L138.19 160.6L127.875 140.426L118.465 162.395Z" stroke="#2ACAF7" stroke-width="0.5" stroke-linecap="round" stroke-linejoin="round"/>
<path d="M131.465 126.527L150.742 133.701L127.875 140.426L131.465 126.527Z" stroke="#2ACAF7" stroke-width="0.5" stroke-linecap="round" stroke-linejoin="round"/>
<path d="M138.19 160.6L153.428 146.253L127.875 140.426L138.19 160.6Z" stroke="#2ACAF7" stroke-width="0.5" stroke-linecap="round" stroke-linejoin="round"/>
<path d="M150.742 133.701L153.428 146.253L127.875 140.426L150.742 133.701Z" stroke="#2ACAF7" stroke-width="0.5" stroke-linecap="round" stroke-linejoin="round"/>
<path d="M111.291 181.673L118.465 162.396L126.977 175.846L111.291 181.673Z" stroke="#2ACAF7" stroke-width="0.5" stroke-linecap="round" stroke-linejoin="round"/>
<path d="M111.291 181.673L122.048 192.878L126.977 175.846L111.291 181.673Z" stroke="#2ACAF7" stroke-width="0.5" stroke-linecap="round" stroke-linejoin="round"/>
<path d="M118.465 162.397L138.19 160.602L126.978 175.846L118.465 162.397Z" stroke="#2ACAF7" stroke-width="0.5" stroke-linecap="round" stroke-linejoin="round"/>
<path d="M138.189 160.602L144.914 163.743L126.977 175.846L138.189 160.602Z" stroke="#2ACAF7" stroke-width="0.5" stroke-linecap="round" stroke-linejoin="round"/>
<path d="M144.914 163.742L149.395 167.325L126.977 175.845L144.914 163.742Z" stroke="#2ACAF7" stroke-width="0.5" stroke-linecap="round" stroke-linejoin="round"/>
<path d="M122.047 192.878L126.976 175.846L144.914 189.295L122.047 192.878Z" stroke="#2ACAF7" stroke-width="0.5" stroke-linecap="round" stroke-linejoin="round"/>
<path d="M126.977 175.846L149.395 167.326L144.914 189.296L126.977 175.846Z" stroke="#2ACAF7" stroke-width="0.5" stroke-linecap="round" stroke-linejoin="round"/>
<path d="M149.395 167.326L157.915 170.468L144.914 189.296L149.395 167.326Z" stroke="#2ACAF7" stroke-width="0.5" stroke-linecap="round" stroke-linejoin="round"/>
<path d="M157.915 170.467L162.844 171.806L144.914 189.295L157.915 170.467Z" stroke="#2ACAF7" stroke-width="0.5" stroke-linecap="round" stroke-linejoin="round"/>
<path d="M122.047 192.879L123.393 211.258L131.464 213.951L122.047 192.879Z" stroke="#2ACAF7" stroke-width="0.5" stroke-linecap="round" stroke-linejoin="round"/>
<path d="M122.047 192.878L144.914 189.295L131.464 213.95L122.047 192.878Z" stroke="#2ACAF7" stroke-width="0.5" stroke-linecap="round" stroke-linejoin="round"/>
<path d="M123.395 211.258L126.087 230.983L131.466 213.951L123.395 211.258Z" stroke="#2ACAF7" stroke-width="0.5" stroke-linecap="round" stroke-linejoin="round"/>
<path d="M126.086 230.982L131.464 213.949L145.811 222.469L126.086 230.982Z" stroke="#2ACAF7" stroke-width="0.5" stroke-linecap="round" stroke-linejoin="round"/>
<path d="M126.086 230.984L139.528 244.433L145.811 222.471L126.086 230.984Z" stroke="#2ACAF7" stroke-width="0.5" stroke-linecap="round" stroke-linejoin="round"/>
<path d="M131.465 213.95L144.914 189.295L159.703 196.91L131.465 213.95Z" stroke="#2ACAF7" stroke-width="0.5" stroke-linecap="round" stroke-linejoin="round"/>
<path d="M131.465 213.95L145.812 222.47L159.703 196.91L131.465 213.95Z" stroke="#2ACAF7" stroke-width="0.5" stroke-linecap="round" stroke-linejoin="round"/>
<path d="M144.914 189.295L162.844 171.807L159.703 196.911L144.914 189.295Z" stroke="#2ACAF7" stroke-width="0.5" stroke-linecap="round" stroke-linejoin="round"/>
<path d="M162.845 171.807L170.018 172.704L159.703 196.911L162.845 171.807Z" stroke="#2ACAF7" stroke-width="0.5" stroke-linecap="round" stroke-linejoin="round"/>
<path d="M170.018 172.703L176.743 178.089L159.703 196.909L170.018 172.703Z" stroke="#2ACAF7" stroke-width="0.5" stroke-linecap="round" stroke-linejoin="round"/>
<path d="M176.743 178.09L183.468 181.224L159.703 196.911L176.743 178.09Z" stroke="#2ACAF7" stroke-width="0.5" stroke-linecap="round" stroke-linejoin="round"/>
<path d="M88.873 241.297V221.123L101.425 227.399L88.873 241.297Z" stroke="#2ACAF7" stroke-width="0.5" stroke-linecap="round" stroke-linejoin="round"/>
<path d="M88.873 221.124L99.6369 206.777L101.425 227.4L88.873 221.124Z" stroke="#2ACAF7" stroke-width="0.5" stroke-linecap="round" stroke-linejoin="round"/>
<path d="M88.873 241.299L105.464 248.914L101.425 227.4L88.873 241.299Z" stroke="#2ACAF7" stroke-width="0.5" stroke-linecap="round" stroke-linejoin="round"/>
<path d="M99.6367 206.777L109.047 215.297L101.425 227.4L99.6367 206.777Z" stroke="#2ACAF7" stroke-width="0.5" stroke-linecap="round" stroke-linejoin="round"/>
<path d="M105.463 248.914L119.361 236.811L101.424 227.4L105.463 248.914Z" stroke="#2ACAF7" stroke-width="0.5" stroke-linecap="round" stroke-linejoin="round"/>
<path d="M109.046 215.297L119.361 236.81L101.424 227.4L109.046 215.297Z" stroke="#2ACAF7" stroke-width="0.5" stroke-linecap="round" stroke-linejoin="round"/>
<path d="M138.639 258.779L139.529 244.432L163.743 239.951L138.639 258.779Z" stroke="#2ACAF7" stroke-width="0.5" stroke-linecap="round" stroke-linejoin="round"/>
<path d="M139.529 244.433L145.812 222.471L163.743 239.952L139.529 244.433Z" stroke="#2ACAF7" stroke-width="0.5" stroke-linecap="round" stroke-linejoin="round"/>
<path d="M138.639 258.779L163.743 239.951L177.634 264.606L138.639 258.779Z" stroke="#2ACAF7" stroke-width="0.5" stroke-linecap="round" stroke-linejoin="round"/>
<path d="M138.639 258.779L165.089 278.505L177.634 264.606L138.639 258.779Z" stroke="#2ACAF7" stroke-width="0.5" stroke-linecap="round" stroke-linejoin="round"/>
<path d="M165.088 278.506L171.364 295.539L191.082 282.096L165.088 278.506Z" stroke="#2ACAF7" stroke-width="0.5" stroke-linecap="round" stroke-linejoin="round"/>
<path d="M165.088 278.506L177.633 264.607L191.082 282.096L165.088 278.506Z" stroke="#2ACAF7" stroke-width="0.5" stroke-linecap="round" stroke-linejoin="round"/>
<path d="M171.365 295.538L183.91 305.404L191.084 282.096L171.365 295.538Z" stroke="#2ACAF7" stroke-width="0.5" stroke-linecap="round" stroke-linejoin="round"/>
<path d="M177.633 264.607L197.358 257.434L191.082 282.096L177.633 264.607Z" stroke="#2ACAF7" stroke-width="0.5" stroke-linecap="round" stroke-linejoin="round"/>
<path d="M183.91 305.404L210.809 294.199L191.084 282.096L183.91 305.404Z" stroke="#2ACAF7" stroke-width="0.5" stroke-linecap="round" stroke-linejoin="round"/>
<path d="M197.36 257.434L221.124 275.813L191.084 282.096L197.36 257.434Z" stroke="#2ACAF7" stroke-width="0.5" stroke-linecap="round" stroke-linejoin="round"/>
<path d="M210.809 294.199L221.124 275.812L191.084 282.095L210.809 294.199Z" stroke="#2ACAF7" stroke-width="0.5" stroke-linecap="round" stroke-linejoin="round"/>
<path d="M197.359 257.434H217.982L213.95 234.125L197.359 257.434Z" stroke="#2ACAF7" stroke-width="0.5" stroke-linecap="round" stroke-linejoin="round"/>
<path d="M217.983 257.434L233.677 243.984L213.951 234.125L217.983 257.434Z" stroke="#2ACAF7" stroke-width="0.5" stroke-linecap="round" stroke-linejoin="round"/>
<path d="M213.951 234.124L233.677 243.983L226.952 219.328L213.951 234.124Z" stroke="#2ACAF7" stroke-width="0.5" stroke-linecap="round" stroke-linejoin="round"/>
<path d="M233.676 243.983L243.086 238.605L226.951 219.328L233.676 243.983Z" stroke="#2ACAF7" stroke-width="0.5" stroke-linecap="round" stroke-linejoin="round"/>
<path d="M243.086 238.605L251.606 231.88L226.951 219.328L243.086 238.605Z" stroke="#2ACAF7" stroke-width="0.5" stroke-linecap="round" stroke-linejoin="round"/>
<path d="M183.467 181.223L196.909 179.877L188.845 214.847L183.467 181.223Z" stroke="#2ACAF7" stroke-width="0.5" stroke-linecap="round" stroke-linejoin="round"/>
<path d="M145.812 222.47L159.704 196.91L174.051 215.296L145.812 222.47Z" stroke="#2ACAF7" stroke-width="0.5" stroke-linecap="round" stroke-linejoin="round"/>
<path d="M145.812 222.47L163.743 239.952L174.051 215.297L145.812 222.47Z" stroke="#2ACAF7" stroke-width="0.5" stroke-linecap="round" stroke-linejoin="round"/>
<path d="M159.703 196.911L183.468 181.225L174.05 215.297L159.703 196.911Z" stroke="#2ACAF7" stroke-width="0.5" stroke-linecap="round" stroke-linejoin="round"/>
<path d="M183.468 181.225L188.847 214.848L174.051 215.297L183.468 181.225Z" stroke="#2ACAF7" stroke-width="0.5" stroke-linecap="round" stroke-linejoin="round"/>
<path d="M163.742 239.952L174.05 215.297L183.019 236.81L163.742 239.952Z" stroke="#2ACAF7" stroke-width="0.5" stroke-linecap="round" stroke-linejoin="round"/>
<path d="M163.742 239.952L177.633 264.607L183.019 236.811L163.742 239.952Z" stroke="#2ACAF7" stroke-width="0.5" stroke-linecap="round" stroke-linejoin="round"/>
<path d="M174.051 215.296L188.847 214.848L183.019 236.81L174.051 215.296Z" stroke="#2ACAF7" stroke-width="0.5" stroke-linecap="round" stroke-linejoin="round"/>
<path d="M177.633 264.607L197.358 257.434L183.018 236.811L177.633 264.607Z" stroke="#2ACAF7" stroke-width="0.5" stroke-linecap="round" stroke-linejoin="round"/>
<path d="M188.847 214.848L213.951 234.124L183.02 236.81L188.847 214.848Z" stroke="#2ACAF7" stroke-width="0.5" stroke-linecap="round" stroke-linejoin="round"/>
<path d="M197.36 257.434L213.951 234.125L183.02 236.811L197.36 257.434Z" stroke="#2ACAF7" stroke-width="0.5" stroke-linecap="round" stroke-linejoin="round"/>
<path d="M188.846 214.847L196.91 179.877L210.808 200.051L188.846 214.847Z" stroke="#2ACAF7" stroke-width="0.5" stroke-linecap="round" stroke-linejoin="round"/>
<path d="M188.846 214.849L213.95 234.125L210.808 200.053L188.846 214.849Z" stroke="#2ACAF7" stroke-width="0.5" stroke-linecap="round" stroke-linejoin="round"/>
<path d="M213.95 234.125L226.951 219.329L210.809 200.053L213.95 234.125Z" stroke="#2ACAF7" stroke-width="0.5" stroke-linecap="round" stroke-linejoin="round"/>
<path d="M196.91 179.877L204.981 166.428L230.983 187.051L196.91 179.877Z" stroke="#2ACAF7" stroke-width="0.5" stroke-linecap="round" stroke-linejoin="round"/>
<path d="M196.91 179.877L210.808 200.051L230.983 187.051L196.91 179.877Z" stroke="#2ACAF7" stroke-width="0.5" stroke-linecap="round" stroke-linejoin="round"/>
<path d="M204.98 166.427L216.635 158.363L230.982 187.05L204.98 166.427Z" stroke="#2ACAF7" stroke-width="0.5" stroke-linecap="round" stroke-linejoin="round"/>
<path d="M251.605 231.88L262.818 237.258L264.606 218.879L251.605 231.88Z" stroke="#2ACAF7" stroke-width="0.5" stroke-linecap="round" stroke-linejoin="round"/>
<path d="M262.818 237.258H274.017L264.606 218.879L262.818 237.258Z" stroke="#2ACAF7" stroke-width="0.5" stroke-linecap="round" stroke-linejoin="round"/>
<path d="M264.607 218.879L274.018 237.258L281.64 209.02L264.607 218.879Z" stroke="#2ACAF7" stroke-width="0.5" stroke-linecap="round" stroke-linejoin="round"/>
<path d="M274.018 237.258L282.538 238.604L281.64 209.02L274.018 237.258Z" stroke="#2ACAF7" stroke-width="0.5" stroke-linecap="round" stroke-linejoin="round"/>
<path d="M282.536 238.604L294.646 234.572L281.639 209.02L282.536 238.604Z" stroke="#2ACAF7" stroke-width="0.5" stroke-linecap="round" stroke-linejoin="round"/>
<path d="M294.646 234.572L299.576 213.052L281.639 209.02L294.646 234.572Z" stroke="#2ACAF7" stroke-width="0.5" stroke-linecap="round" stroke-linejoin="round"/>
<path d="M299.576 213.052L306.743 202.295L281.639 209.02L299.576 213.052Z" stroke="#2ACAF7" stroke-width="0.5" stroke-linecap="round" stroke-linejoin="round"/>
<path d="M210.809 200.053L226.951 219.329L241.298 203.194L210.809 200.053Z" stroke="#2ACAF7" stroke-width="0.5" stroke-linecap="round" stroke-linejoin="round"/>
<path d="M210.809 200.052L230.983 187.051L241.298 203.193L210.809 200.052Z" stroke="#2ACAF7" stroke-width="0.5" stroke-linecap="round" stroke-linejoin="round"/>
<path d="M226.951 219.329L251.606 231.881L241.298 203.193L226.951 219.329Z" stroke="#2ACAF7" stroke-width="0.5" stroke-linecap="round" stroke-linejoin="round"/>
<path d="M251.607 231.881L264.608 218.88L241.299 203.193L251.607 231.881Z" stroke="#2ACAF7" stroke-width="0.5" stroke-linecap="round" stroke-linejoin="round"/>
<path d="M281.639 209.02L306.743 202.295L286.127 182.121L281.639 209.02Z" stroke="#2ACAF7" stroke-width="0.5" stroke-linecap="round" stroke-linejoin="round"/>
<path d="M286.127 182.121L306.743 202.295L309.884 177.633L286.127 182.121Z" stroke="#2ACAF7" stroke-width="0.5" stroke-linecap="round" stroke-linejoin="round"/>
<path d="M301.814 146.703L313.925 151.191L309.886 177.634L301.814 146.703Z" stroke="#2ACAF7" stroke-width="0.5" stroke-linecap="round" stroke-linejoin="round"/>
<path d="M306.744 202.295L315.264 200.949L309.886 177.633L306.744 202.295Z" stroke="#2ACAF7" stroke-width="0.5" stroke-linecap="round" stroke-linejoin="round"/>
<path d="M313.924 151.189L325.578 153.875L309.885 177.633L313.924 151.189Z" stroke="#2ACAF7" stroke-width="0.5" stroke-linecap="round" stroke-linejoin="round"/>
<path d="M315.263 200.949L321.988 192.877L309.885 177.633L315.263 200.949Z" stroke="#2ACAF7" stroke-width="0.5" stroke-linecap="round" stroke-linejoin="round"/>
<path d="M321.988 192.877L327.366 186.601L309.885 177.633L321.988 192.877Z" stroke="#2ACAF7" stroke-width="0.5" stroke-linecap="round" stroke-linejoin="round"/>
<path d="M325.578 153.877L331.854 174.949L309.885 177.634L325.578 153.877Z" stroke="#2ACAF7" stroke-width="0.5" stroke-linecap="round" stroke-linejoin="round"/>
<path d="M327.366 186.602L331.854 174.947L309.885 177.633L327.366 186.602Z" stroke="#2ACAF7" stroke-width="0.5" stroke-linecap="round" stroke-linejoin="round"/>
<path d="M286.127 182.122L309.884 177.634L285.678 160.152L286.127 182.122Z" stroke="#2ACAF7" stroke-width="0.5" stroke-linecap="round" stroke-linejoin="round"/>
<path d="M301.813 146.703L309.884 177.634L285.678 160.153L301.813 146.703Z" stroke="#2ACAF7" stroke-width="0.5" stroke-linecap="round" stroke-linejoin="round"/>
<path d="M216.637 158.363L224.708 149.395L247.575 168.671L216.637 158.363Z" stroke="#2ACAF7" stroke-width="0.5" stroke-linecap="round" stroke-linejoin="round"/>
<path d="M216.637 158.363L230.984 187.05L247.575 168.671L216.637 158.363Z" stroke="#2ACAF7" stroke-width="0.5" stroke-linecap="round" stroke-linejoin="round"/>
<path d="M224.707 149.395L226.502 138.639L252.055 142.671L224.707 149.395Z" stroke="#2ACAF7" stroke-width="0.5" stroke-linecap="round" stroke-linejoin="round"/>
<path d="M224.707 149.395L247.574 168.671L252.055 142.67L224.707 149.395Z" stroke="#2ACAF7" stroke-width="0.5" stroke-linecap="round" stroke-linejoin="round"/>
<path d="M226.502 138.638L238.156 123.842L252.055 142.67L226.502 138.638Z" stroke="#2ACAF7" stroke-width="0.5" stroke-linecap="round" stroke-linejoin="round"/>
<path d="M285.68 160.153L301.815 146.703L276.711 133.254L285.68 160.153Z" stroke="#2ACAF7" stroke-width="0.5" stroke-linecap="round" stroke-linejoin="round"/>
<path d="M301.815 146.703L304.956 134.151L276.711 133.254L301.815 146.703Z" stroke="#2ACAF7" stroke-width="0.5" stroke-linecap="round" stroke-linejoin="round"/>
<path d="M302.712 125.639L304.956 134.152L276.711 133.254L302.712 125.639Z" stroke="#2ACAF7" stroke-width="0.5" stroke-linecap="round" stroke-linejoin="round"/>
<path d="M276.711 133.253L302.712 125.638L281.641 111.291L276.711 133.253Z" stroke="#2ACAF7" stroke-width="0.5" stroke-linecap="round" stroke-linejoin="round"/>
<path d="M302.71 125.638L308.538 121.599L281.639 111.291L302.71 125.638Z" stroke="#2ACAF7" stroke-width="0.5" stroke-linecap="round" stroke-linejoin="round"/>
<path d="M281.639 111.29L308.538 121.598L308.089 93.8086L281.639 111.29Z" stroke="#2ACAF7" stroke-width="0.5" stroke-linecap="round" stroke-linejoin="round"/>
<path d="M308.539 121.598L321.988 121.149L308.09 93.8086L308.539 121.598Z" stroke="#2ACAF7" stroke-width="0.5" stroke-linecap="round" stroke-linejoin="round"/>
<path d="M321.988 121.149L335.438 109.495L308.09 93.8086L321.988 121.149Z" stroke="#2ACAF7" stroke-width="0.5" stroke-linecap="round" stroke-linejoin="round"/>
<path d="M335.438 109.495L337.233 93.8086H308.09L335.438 109.495Z" stroke="#2ACAF7" stroke-width="0.5" stroke-linecap="round" stroke-linejoin="round"/>
<path d="M308.09 93.8083H337.233L326.027 82.5957L308.09 93.8083Z" stroke="#2ACAF7" stroke-width="0.5" stroke-linecap="round" stroke-linejoin="round"/>
<path d="M337.233 93.8085L344.855 80.8008L326.027 82.5959L337.233 93.8085Z" stroke="#2ACAF7" stroke-width="0.5" stroke-linecap="round" stroke-linejoin="round"/>
<path d="M326.027 82.5956L344.855 80.8005L327.367 61.082L326.027 82.5956Z" stroke="#2ACAF7" stroke-width="0.5" stroke-linecap="round" stroke-linejoin="round"/>
<path d="M334.99 25.2148L345.305 48.5236L327.367 61.0825L334.99 25.2148Z" stroke="#2ACAF7" stroke-width="0.5" stroke-linecap="round" stroke-linejoin="round"/>
<path d="M344.856 80.8005L348.888 66.4604L327.367 61.082L344.856 80.8005Z" stroke="#2ACAF7" stroke-width="0.5" stroke-linecap="round" stroke-linejoin="round"/>
<path d="M345.305 48.5234L348.888 66.4608L327.367 61.0824L345.305 48.5234Z" stroke="#2ACAF7" stroke-width="0.5" stroke-linecap="round" stroke-linejoin="round"/>
<path d="M230.982 187.052L241.297 203.194L261.913 186.154L230.982 187.052Z" stroke="#2ACAF7" stroke-width="0.5" stroke-linecap="round" stroke-linejoin="round"/>
<path d="M230.982 187.051L247.573 168.672L261.913 186.153L230.982 187.051Z" stroke="#2ACAF7" stroke-width="0.5" stroke-linecap="round" stroke-linejoin="round"/>
<path d="M241.299 203.194L264.608 218.88L261.915 186.154L241.299 203.194Z" stroke="#2ACAF7" stroke-width="0.5" stroke-linecap="round" stroke-linejoin="round"/>
<path d="M264.607 218.88L281.64 209.021L261.914 186.154L264.607 218.88Z" stroke="#2ACAF7" stroke-width="0.5" stroke-linecap="round" stroke-linejoin="round"/>
<path d="M281.64 209.02L286.127 182.121L261.914 186.153L281.64 209.02Z" stroke="#2ACAF7" stroke-width="0.5" stroke-linecap="round" stroke-linejoin="round"/>
<path d="M247.574 168.671L252.055 142.67L265.056 155.222L247.574 168.671Z" stroke="#2ACAF7" stroke-width="0.5" stroke-linecap="round" stroke-linejoin="round"/>
<path d="M247.574 168.672L261.914 186.154L265.056 155.223L247.574 168.672Z" stroke="#2ACAF7" stroke-width="0.5" stroke-linecap="round" stroke-linejoin="round"/>
<path d="M252.055 142.671L276.71 133.254L265.055 155.223L252.055 142.671Z" stroke="#2ACAF7" stroke-width="0.5" stroke-linecap="round" stroke-linejoin="round"/>
<path d="M261.914 186.154L286.127 182.122L265.056 155.223L261.914 186.154Z" stroke="#2ACAF7" stroke-width="0.5" stroke-linecap="round" stroke-linejoin="round"/>
<path d="M276.709 133.254L285.678 160.153L265.055 155.223L276.709 133.254Z" stroke="#2ACAF7" stroke-width="0.5" stroke-linecap="round" stroke-linejoin="round"/>
<path d="M285.678 160.152L286.127 182.122L265.055 155.223L285.678 160.152Z" stroke="#2ACAF7" stroke-width="0.5" stroke-linecap="round" stroke-linejoin="round"/>
<path d="M236.811 121.15L238.157 123.843L256.087 118.016L236.811 121.15Z" stroke="#2ACAF7" stroke-width="0.5" stroke-linecap="round" stroke-linejoin="round"/>
<path d="M238.156 123.843L252.055 142.671L256.087 118.016L238.156 123.843Z" stroke="#2ACAF7" stroke-width="0.5" stroke-linecap="round" stroke-linejoin="round"/>
<path d="M252.055 142.671L276.71 133.253L256.087 118.016L252.055 142.671Z" stroke="#2ACAF7" stroke-width="0.5" stroke-linecap="round" stroke-linejoin="round"/>
<path d="M276.711 133.253L281.641 111.291L256.088 118.016L276.711 133.253Z" stroke="#2ACAF7" stroke-width="0.5" stroke-linecap="round" stroke-linejoin="round"/>
<path d="M203.186 111.291L204.09 101.873L219.328 107.251L203.186 111.291Z" stroke="#2ACAF7" stroke-width="0.5" stroke-linecap="round" stroke-linejoin="round"/>
<path d="M203.186 111.291L209.02 125.189L219.328 107.252L203.186 111.291Z" stroke="#2ACAF7" stroke-width="0.5" stroke-linecap="round" stroke-linejoin="round"/>
<path d="M204.09 101.873L211.256 93.8086L219.327 107.251L204.09 101.873Z" stroke="#2ACAF7" stroke-width="0.5" stroke-linecap="round" stroke-linejoin="round"/>
<path d="M209.02 125.189L216.635 126.087L219.328 107.252L209.02 125.189Z" stroke="#2ACAF7" stroke-width="0.5" stroke-linecap="round" stroke-linejoin="round"/>
<path d="M216.637 126.087L226.054 125.638L219.329 107.252L216.637 126.087Z" stroke="#2ACAF7" stroke-width="0.5" stroke-linecap="round" stroke-linejoin="round"/>
<path d="M226.053 125.638L236.81 121.15L219.328 107.252L226.053 125.638Z" stroke="#2ACAF7" stroke-width="0.5" stroke-linecap="round" stroke-linejoin="round"/>
<path d="M185.256 65.1142L186.153 50.3184L195.571 73.6341L185.256 65.1142Z" stroke="#2ACAF7" stroke-width="0.5" stroke-linecap="round" stroke-linejoin="round"/>
<path d="M185.256 65.1152L186.602 75.4232L195.571 73.6351L185.256 65.1152Z" stroke="#2ACAF7" stroke-width="0.5" stroke-linecap="round" stroke-linejoin="round"/>
<path d="M185.256 81.2501L186.602 75.4229L195.571 73.6348L185.256 81.2501Z" stroke="#2ACAF7" stroke-width="0.5" stroke-linecap="round" stroke-linejoin="round"/>
<path d="M185.256 81.2501L197.359 93.3532L195.571 73.6348L185.256 81.2501Z" stroke="#2ACAF7" stroke-width="0.5" stroke-linecap="round" stroke-linejoin="round"/>
<path d="M197.358 93.3532L203.186 89.77L195.57 73.6348L197.358 93.3532Z" stroke="#2ACAF7" stroke-width="0.5" stroke-linecap="round" stroke-linejoin="round"/>
<path d="M186.152 50.3184L187.947 38.6641L196.467 42.6961L186.152 50.3184Z" stroke="#2ACAF7" stroke-width="0.5" stroke-linecap="round" stroke-linejoin="round"/>
<path d="M187.949 38.6646L196.02 27.459L196.469 42.6966L187.949 38.6646Z" stroke="#2ACAF7" stroke-width="0.5" stroke-linecap="round" stroke-linejoin="round"/>
<path d="M196.02 27.4585L202.744 22.0801L196.468 42.6961L196.02 27.4585Z" stroke="#2ACAF7" stroke-width="0.5" stroke-linecap="round" stroke-linejoin="round"/>
<path d="M196.469 42.6961L202.745 22.0801L221.124 30.1442L196.469 42.6961Z" stroke="#2ACAF7" stroke-width="0.5" stroke-linecap="round" stroke-linejoin="round"/>
<path d="M202.744 22.0807L215.745 15.8047L221.123 30.1448L202.744 22.0807Z" stroke="#2ACAF7" stroke-width="0.5" stroke-linecap="round" stroke-linejoin="round"/>
<path d="M215.746 15.8043L228.747 11.3164L221.124 30.1443L215.746 15.8043Z" stroke="#2ACAF7" stroke-width="0.5" stroke-linecap="round" stroke-linejoin="round"/>
<path d="M186.152 50.3184L195.57 73.6341L214.398 53.4598L186.152 50.3184Z" stroke="#2ACAF7" stroke-width="0.5" stroke-linecap="round" stroke-linejoin="round"/>
<path d="M186.152 50.3196L196.467 42.6973L214.398 53.4611L186.152 50.3196Z" stroke="#2ACAF7" stroke-width="0.5" stroke-linecap="round" stroke-linejoin="round"/>
<path d="M196.469 42.6965L221.124 30.1445L214.399 53.4603L196.469 42.6965Z" stroke="#2ACAF7" stroke-width="0.5" stroke-linecap="round" stroke-linejoin="round"/>
<path d="M195.57 73.6348L203.186 89.77L221.572 74.5253L195.57 73.6348Z" stroke="#2ACAF7" stroke-width="0.5" stroke-linecap="round" stroke-linejoin="round"/>
<path d="M195.57 73.6352L214.398 53.4609L221.572 74.5258L195.57 73.6352Z" stroke="#2ACAF7" stroke-width="0.5" stroke-linecap="round" stroke-linejoin="round"/>
<path d="M203.186 89.77L211.257 93.8091L221.572 74.5254L203.186 89.77Z" stroke="#2ACAF7" stroke-width="0.5" stroke-linecap="round" stroke-linejoin="round"/>
<path d="M214.398 53.4609L221.572 74.5258L245.778 59.7369L214.398 53.4609Z" stroke="#2ACAF7" stroke-width="0.5" stroke-linecap="round" stroke-linejoin="round"/>
<path d="M255.639 17.5932L259.678 16.2539L258.78 38.6651L255.639 17.5932Z" stroke="#2ACAF7" stroke-width="0.5" stroke-linecap="round" stroke-linejoin="round"/>
<path d="M258.779 38.6651L259.677 16.2539L288.813 24.318L258.779 38.6651Z" stroke="#2ACAF7" stroke-width="0.5" stroke-linecap="round" stroke-linejoin="round"/>
<path d="M259.678 16.2546L265.056 10.8691L288.814 24.3186L259.678 16.2546Z" stroke="#2ACAF7" stroke-width="0.5" stroke-linecap="round" stroke-linejoin="round"/>
<path d="M265.055 10.8691L279.402 5.93945L288.812 24.3186L265.055 10.8691Z" stroke="#2ACAF7" stroke-width="0.5" stroke-linecap="round" stroke-linejoin="round"/>
<path d="M279.402 5.93938L294.198 1.00977L288.813 24.3185L279.402 5.93938Z" stroke="#2ACAF7" stroke-width="0.5" stroke-linecap="round" stroke-linejoin="round"/>
<path d="M294.198 1.0089L308.538 0.111328L288.812 24.3176L294.198 1.0089Z" stroke="#2ACAF7" stroke-width="0.5" stroke-linecap="round" stroke-linejoin="round"/>
<path d="M308.538 0.111328L321.987 18.9392L288.812 24.3176L308.538 0.111328Z" stroke="#2ACAF7" stroke-width="0.5" stroke-linecap="round" stroke-linejoin="round"/>
<path d="M288.812 24.3179L321.987 18.9395L310.782 33.7353L288.812 24.3179Z" stroke="#2ACAF7" stroke-width="0.5" stroke-linecap="round" stroke-linejoin="round"/>
<path d="M321.989 18.9395L334.99 25.2154L310.783 33.7353L321.989 18.9395Z" stroke="#2ACAF7" stroke-width="0.5" stroke-linecap="round" stroke-linejoin="round"/>
<path d="M327.367 61.0825L334.99 25.2148L310.783 33.7347L327.367 61.0825Z" stroke="#2ACAF7" stroke-width="0.5" stroke-linecap="round" stroke-linejoin="round"/>
<path d="M308.089 93.8085L326.027 82.5959L302.711 59.2871L308.089 93.8085Z" stroke="#2ACAF7" stroke-width="0.5" stroke-linecap="round" stroke-linejoin="round"/>
<path d="M310.782 33.7344L327.366 61.0822L302.711 59.287L310.782 33.7344Z" stroke="#2ACAF7" stroke-width="0.5" stroke-linecap="round" stroke-linejoin="round"/>
<path d="M326.027 82.5959L327.366 61.0822L302.711 59.2871L326.027 82.5959Z" stroke="#2ACAF7" stroke-width="0.5" stroke-linecap="round" stroke-linejoin="round"/>
<path d="M245.779 59.7359L258.78 38.6641L282.089 48.5233L245.779 59.7359Z" stroke="#2ACAF7" stroke-width="0.5" stroke-linecap="round" stroke-linejoin="round"/>
<path d="M258.779 38.6654L288.813 24.3184L282.088 48.5247L258.779 38.6654Z" stroke="#2ACAF7" stroke-width="0.5" stroke-linecap="round" stroke-linejoin="round"/>
<path d="M288.813 24.3184L310.782 33.7358L282.088 48.5247L288.813 24.3184Z" stroke="#2ACAF7" stroke-width="0.5" stroke-linecap="round" stroke-linejoin="round"/>
<path d="M302.711 59.287L310.782 33.7344L282.088 48.5232L302.711 59.287Z" stroke="#2ACAF7" stroke-width="0.5" stroke-linecap="round" stroke-linejoin="round"/>
<path d="M282.088 48.5234L302.711 59.2873L286.576 74.9737L282.088 48.5234Z" stroke="#2ACAF7" stroke-width="0.5" stroke-linecap="round" stroke-linejoin="round"/>
<path d="M302.711 59.2871L308.09 93.8085L286.576 74.9735L302.711 59.2871Z" stroke="#2ACAF7" stroke-width="0.5" stroke-linecap="round" stroke-linejoin="round"/>
<path d="M281.639 111.29L308.089 93.8086L284.331 89.7695L281.639 111.29Z" stroke="#2ACAF7" stroke-width="0.5" stroke-linecap="round" stroke-linejoin="round"/>
<path d="M286.576 74.9746L308.09 93.8095L284.332 89.7705L286.576 74.9746Z" stroke="#2ACAF7" stroke-width="0.5" stroke-linecap="round" stroke-linejoin="round"/>
<path d="M221.572 74.5252L245.779 59.7363L254.298 74.5252H221.572Z" stroke="#2ACAF7" stroke-width="0.5" stroke-linecap="round" stroke-linejoin="round"/>
<path d="M245.779 59.736L282.089 48.5234L254.299 74.5249L245.779 59.736Z" stroke="#2ACAF7" stroke-width="0.5" stroke-linecap="round" stroke-linejoin="round"/>
<path d="M282.088 48.5234L286.576 74.9737L254.299 74.5249L282.088 48.5234Z" stroke="#2ACAF7" stroke-width="0.5" stroke-linecap="round" stroke-linejoin="round"/>
<path d="M284.332 89.77L286.576 74.9742L254.299 74.5254L284.332 89.77Z" stroke="#2ACAF7" stroke-width="0.5" stroke-linecap="round" stroke-linejoin="round"/>
<path d="M221.572 74.5254H254.298L252.055 85.738L221.572 74.5254Z" stroke="#2ACAF7" stroke-width="0.5" stroke-linecap="round" stroke-linejoin="round"/>
<path d="M254.299 74.5254L284.332 89.77L252.055 85.738L254.299 74.5254Z" stroke="#2ACAF7" stroke-width="0.5" stroke-linecap="round" stroke-linejoin="round"/>
<path d="M252.055 85.7383L284.332 89.7703L264.158 101.873L252.055 85.7383Z" stroke="#2ACAF7" stroke-width="0.5" stroke-linecap="round" stroke-linejoin="round"/>
<path d="M256.088 118.015L281.641 111.291L264.159 101.873L256.088 118.015Z" stroke="#2ACAF7" stroke-width="0.5" stroke-linecap="round" stroke-linejoin="round"/>
<path d="M281.64 111.29L284.332 89.7695L264.158 101.873L281.64 111.29Z" stroke="#2ACAF7" stroke-width="0.5" stroke-linecap="round" stroke-linejoin="round"/>
<path d="M211.258 93.8086L219.329 107.251L238.157 98.7382L211.258 93.8086Z" stroke="#2ACAF7" stroke-width="0.5" stroke-linecap="round" stroke-linejoin="round"/>
<path d="M211.258 93.8091L221.573 74.5254L238.157 98.7387L211.258 93.8091Z" stroke="#2ACAF7" stroke-width="0.5" stroke-linecap="round" stroke-linejoin="round"/>
<path d="M219.328 107.251L236.81 121.149L238.156 98.7383L219.328 107.251Z" stroke="#2ACAF7" stroke-width="0.5" stroke-linecap="round" stroke-linejoin="round"/>
<path d="M221.572 74.5254L252.055 85.738L238.156 98.7387L221.572 74.5254Z" stroke="#2ACAF7" stroke-width="0.5" stroke-linecap="round" stroke-linejoin="round"/>
<path d="M236.811 121.149L256.087 118.015L238.157 98.7383L236.811 121.149Z" stroke="#2ACAF7" stroke-width="0.5" stroke-linecap="round" stroke-linejoin="round"/>
<path d="M252.055 85.7383L264.158 101.873L238.156 98.739L252.055 85.7383Z" stroke="#2ACAF7" stroke-width="0.5" stroke-linecap="round" stroke-linejoin="round"/>
<path d="M256.087 118.015L264.158 101.873L238.156 98.7383L256.087 118.015Z" stroke="#2ACAF7" stroke-width="0.5" stroke-linecap="round" stroke-linejoin="round"/>
<path d="M214.398 53.4603L221.123 30.1445L234.573 41.8059L214.398 53.4603Z" stroke="#2ACAF7" stroke-width="0.5" stroke-linecap="round" stroke-linejoin="round"/>
<path d="M214.398 53.461L245.778 59.737L234.573 41.8066L214.398 53.461Z" stroke="#2ACAF7" stroke-width="0.5" stroke-linecap="round" stroke-linejoin="round"/>
<path d="M221.123 30.1443L228.745 11.3164L234.573 41.8057L221.123 30.1443Z" stroke="#2ACAF7" stroke-width="0.5" stroke-linecap="round" stroke-linejoin="round"/>
<path d="M228.746 11.3161L242.189 8.18164L234.573 41.8054L228.746 11.3161Z" stroke="#2ACAF7" stroke-width="0.5" stroke-linecap="round" stroke-linejoin="round"/>
<path d="M242.19 8.18164L255.639 17.5921L234.574 41.8054L242.19 8.18164Z" stroke="#2ACAF7" stroke-width="0.5" stroke-linecap="round" stroke-linejoin="round"/>
<path d="M245.78 59.7359L258.781 38.6641L234.574 41.8056L245.78 59.7359Z" stroke="#2ACAF7" stroke-width="0.5" stroke-linecap="round" stroke-linejoin="round"/>
<path d="M255.639 17.5938L258.781 38.6656L234.574 41.8071L255.639 17.5938Z" stroke="#2ACAF7" stroke-width="0.5" stroke-linecap="round" stroke-linejoin="round"/>
</g>
<defs>
<clipPath id="clip0">
<rect width="349" height="399.208" fill="white"/>
</clipPath>
</defs>
</svg>
