<svg width="349" height="326" viewBox="0 0 349 326" fill="none" xmlns="http://www.w3.org/2000/svg">
<g clip-path="url(#clip0)">
<path d="M290.307 24.5084L291.884 20.418L299.438 24.8252L290.307 24.5084Z" stroke="#2ACAF7" stroke-width="0.5" stroke-miterlimit="10"/>
<path d="M291.883 20.418L299.437 24.8252L309.835 30.8094L291.883 20.418Z" stroke="#2ACAF7" stroke-width="0.5" stroke-miterlimit="10"/>
<path d="M315.504 42.4609L317.707 55.3798L325.269 76.7963L315.504 42.4609Z" stroke="#2ACAF7" stroke-width="0.5" stroke-miterlimit="10"/>
<path d="M317.707 55.3789L320.544 66.0871L325.268 76.7954L317.707 55.3789Z" stroke="#2ACAF7" stroke-width="0.5" stroke-miterlimit="10"/>
<path d="M311.723 143.256L313.616 145.459L319.91 146.086L311.723 143.256Z" stroke="#2ACAF7" stroke-width="0.5" stroke-miterlimit="10"/>
<path d="M313.615 145.459L319.909 146.086L326.527 162.785L313.615 145.459Z" stroke="#2ACAF7" stroke-width="0.5" stroke-miterlimit="10"/>
<path d="M319.91 146.086L327.471 153.33L326.528 162.785L319.91 146.086Z" stroke="#2ACAF7" stroke-width="0.5" stroke-miterlimit="10"/>
<path d="M324.324 178.844L329.682 187.665L328.422 195.536L324.324 178.844Z" stroke="#2ACAF7" stroke-width="0.5" stroke-miterlimit="10"/>
<path d="M337.869 204.676L346.684 219.791L341.333 222.312L337.869 204.676Z" stroke="#2ACAF7" stroke-width="0.5" stroke-miterlimit="10"/>
<path d="M341.334 222.311L348.579 236.173L334.09 245.621L341.334 222.311Z" stroke="#2ACAF7" stroke-width="0.5" stroke-miterlimit="10"/>
<path d="M343.855 246.248L348.579 236.174L334.09 245.622L343.855 246.248Z" stroke="#2ACAF7" stroke-width="0.5" stroke-miterlimit="10"/>
<path d="M301.958 316.488L307.316 325.31L295.664 322.789L301.958 316.488Z" stroke="#2ACAF7" stroke-width="0.5" stroke-miterlimit="10"/>
<path d="M295.664 322.789L301.958 316.488H283.379L295.664 322.789Z" stroke="#2ACAF7" stroke-width="0.5" stroke-miterlimit="10"/>
<path d="M300.388 295.072L301.958 316.489H283.379L300.388 295.072Z" stroke="#2ACAF7" stroke-width="0.5" stroke-miterlimit="10"/>
<path d="M283.377 316.489L295.663 322.79L276.133 314.912L283.377 316.489Z" stroke="#2ACAF7" stroke-width="0.5" stroke-miterlimit="10"/>
<path d="M283.379 316.489L300.388 295.072L269.207 307.041L283.379 316.489Z" stroke="#2ACAF7" stroke-width="0.5" stroke-miterlimit="10"/>
<path d="M276.135 314.912L283.379 316.489L269.207 307.041L276.135 314.912Z" stroke="#2ACAF7" stroke-width="0.5" stroke-miterlimit="10"/>
<path d="M236.765 313.341L240.856 305.146H227.627L236.765 313.341Z" stroke="#2ACAF7" stroke-width="0.5" stroke-miterlimit="10"/>
<path d="M204.633 319.953L208.413 312.082L199.592 316.489L204.633 319.953Z" stroke="#2ACAF7" stroke-width="0.5" stroke-miterlimit="10"/>
<path d="M199.593 316.488L204.634 319.952L194.242 317.748L199.593 316.488Z" stroke="#2ACAF7" stroke-width="0.5" stroke-miterlimit="10"/>
<path d="M194.242 317.748L199.593 316.487L194.559 307.666L194.242 317.748Z" stroke="#2ACAF7" stroke-width="0.5" stroke-miterlimit="10"/>
<path d="M199.592 316.487L208.414 312.08L194.559 307.666L199.592 316.487Z" stroke="#2ACAF7" stroke-width="0.5" stroke-miterlimit="10"/>
<path d="M188.256 307.983L194.557 307.666L181.955 295.381L188.256 307.983Z" stroke="#2ACAF7" stroke-width="0.5" stroke-miterlimit="10"/>
<path d="M164.948 307.667L172.192 306.097L164.631 302L164.948 307.667Z" stroke="#2ACAF7" stroke-width="0.5" stroke-miterlimit="10"/>
<path d="M172.192 306.097L174.713 301.057L164.631 302L172.192 306.097Z" stroke="#2ACAF7" stroke-width="0.5" stroke-miterlimit="10"/>
<path d="M164.631 301.999L164.948 307.666L157.703 291.607L164.631 301.999Z" stroke="#2ACAF7" stroke-width="0.5" stroke-miterlimit="10"/>
<path d="M164.631 301.999L174.712 301.055L157.703 291.607L164.631 301.999Z" stroke="#2ACAF7" stroke-width="0.5" stroke-miterlimit="10"/>
<path d="M174.712 301.055L181.957 295.381L157.703 291.607L174.712 301.055Z" stroke="#2ACAF7" stroke-width="0.5" stroke-miterlimit="10"/>
<path d="M152.661 289.088L157.702 291.608L150.141 277.119L152.661 289.088Z" stroke="#2ACAF7" stroke-width="0.5" stroke-miterlimit="10"/>
<path d="M124.635 274.282L132.189 271.135L115.18 264.834L124.635 274.282Z" stroke="#2ACAF7" stroke-width="0.5" stroke-miterlimit="10"/>
<path d="M115.18 264.833L132.189 271.134L119.911 255.068L115.18 264.833Z" stroke="#2ACAF7" stroke-width="0.5" stroke-miterlimit="10"/>
<path d="M115.18 264.833L119.911 255.068L107.936 258.532L115.18 264.833Z" stroke="#2ACAF7" stroke-width="0.5" stroke-miterlimit="10"/>
<path d="M107.934 258.534L119.91 255.07L98.4863 250.346L107.934 258.534Z" stroke="#2ACAF7" stroke-width="0.5" stroke-miterlimit="10"/>
<path d="M89.0391 247.508L98.4871 250.345L93.7631 259.166L89.0391 247.508Z" stroke="#2ACAF7" stroke-width="0.5" stroke-miterlimit="10"/>
<path d="M98.4877 250.346L107.936 258.534L93.7637 259.167L98.4877 250.346Z" stroke="#2ACAF7" stroke-width="0.5" stroke-miterlimit="10"/>
<path d="M82.7386 267.354L93.7636 259.166L75.4941 256.012L82.7386 267.354Z" stroke="#2ACAF7" stroke-width="0.5" stroke-miterlimit="10"/>
<path d="M89.0396 247.508L93.7636 259.166L75.4941 256.012L89.0396 247.508Z" stroke="#2ACAF7" stroke-width="0.5" stroke-miterlimit="10"/>
<path d="M64.7852 246.564L75.4934 256.012L74.8668 240.896L64.7852 246.564Z" stroke="#2ACAF7" stroke-width="0.5" stroke-miterlimit="10"/>
<path d="M75.4938 256.012L89.0392 247.507L74.8672 240.896L75.4938 256.012Z" stroke="#2ACAF7" stroke-width="0.5" stroke-miterlimit="10"/>
<path d="M64.7852 246.564L74.8668 240.897L71.0862 234.596L64.7852 246.564Z" stroke="#2ACAF7" stroke-width="0.5" stroke-miterlimit="10"/>
<path d="M58.4911 237.117L71.0861 234.597L56.9141 232.076L58.4911 237.117Z" stroke="#2ACAF7" stroke-width="0.5" stroke-miterlimit="10"/>
<path d="M56.9139 232.076L58.491 237.117L49.9863 227.979L56.9139 232.076Z" stroke="#2ACAF7" stroke-width="0.5" stroke-miterlimit="10"/>
<path d="M37.3838 224.831L49.9858 227.978L32.9766 215.066L37.3838 224.831Z" stroke="#2ACAF7" stroke-width="0.5" stroke-miterlimit="10"/>
<path d="M24.4719 212.229L32.9766 215.066L23.5215 221.05L24.4719 212.229Z" stroke="#2ACAF7" stroke-width="0.5" stroke-miterlimit="10"/>
<path d="M32.9766 215.066L37.3838 224.831L23.5215 221.051L32.9766 215.066Z" stroke="#2ACAF7" stroke-width="0.5" stroke-miterlimit="10"/>
<path d="M22.2695 210.342L24.4731 212.228L23.2129 206.244L22.2695 210.342Z" stroke="#2ACAF7" stroke-width="0.5" stroke-miterlimit="10"/>
<path d="M24.4731 212.228L32.9777 215.066L23.2129 206.244L24.4731 212.228Z" stroke="#2ACAF7" stroke-width="0.5" stroke-miterlimit="10"/>
<path d="M26.0431 197.43L32.9777 215.066L23.2129 206.244L26.0431 197.43Z" stroke="#2ACAF7" stroke-width="0.5" stroke-miterlimit="10"/>
<path d="M15.6504 183.568L23.8382 187.982L17.854 176.957L15.6504 183.568Z" stroke="#2ACAF7" stroke-width="0.5" stroke-miterlimit="10"/>
<path d="M22.2693 210.342L24.4729 212.229L17.2285 221.367L22.2693 210.342Z" stroke="#2ACAF7" stroke-width="0.5" stroke-miterlimit="10"/>
<path d="M23.5225 221.05L24.4729 212.229L17.2285 221.367L23.5225 221.05Z" stroke="#2ACAF7" stroke-width="0.5" stroke-miterlimit="10"/>
<path d="M23.5225 221.051L37.3848 224.831L17.2285 221.368L23.5225 221.051Z" stroke="#2ACAF7" stroke-width="0.5" stroke-miterlimit="10"/>
<path d="M15.9677 147.979L17.2279 141.052L12.5039 140.418L15.9677 147.979Z" stroke="#2ACAF7" stroke-width="0.5" stroke-miterlimit="10"/>
<path d="M12.5039 140.418L17.2279 141.052L12.8137 132.23L12.5039 140.418Z" stroke="#2ACAF7" stroke-width="0.5" stroke-miterlimit="10"/>
<path d="M12.8145 132.232L17.2287 141.053L15.9685 123.41L12.8145 132.232Z" stroke="#2ACAF7" stroke-width="0.5" stroke-miterlimit="10"/>
<path d="M0.21875 108.294L6.82956 113.961L0.21875 101.359V108.294Z" stroke="#2ACAF7" stroke-width="0.5" stroke-miterlimit="10"/>
<path d="M0.21875 101.358L6.82956 113.961L7.77999 94.1211L0.21875 101.358Z" stroke="#2ACAF7" stroke-width="0.5" stroke-miterlimit="10"/>
<path d="M7.14648 62.9326L8.40669 58.5254L18.4884 66.3964L7.14648 62.9326Z" stroke="#2ACAF7" stroke-width="0.5" stroke-miterlimit="10"/>
<path d="M7.14648 62.9336L9.35009 75.2189L18.4884 66.3974L7.14648 62.9336Z" stroke="#2ACAF7" stroke-width="0.5" stroke-miterlimit="10"/>
<path d="M9.34961 75.2179L11.5532 84.3562L18.4879 66.3965L9.34961 75.2179Z" stroke="#2ACAF7" stroke-width="0.5" stroke-miterlimit="10"/>
<path d="M7.7793 46.558L19.4309 51.5988L21.6345 42.7773L7.7793 46.558Z" stroke="#2ACAF7" stroke-width="0.5" stroke-miterlimit="10"/>
<path d="M7.7793 46.5584L21.6345 42.7778L25.732 41.5176L7.7793 46.5584Z" stroke="#2ACAF7" stroke-width="0.5" stroke-miterlimit="10"/>
<path d="M19.4316 51.5992L21.6352 42.7778L25.7327 41.5176L19.4316 51.5992Z" stroke="#2ACAF7" stroke-width="0.5" stroke-miterlimit="10"/>
<path d="M66.0449 31.1264L76.7532 24.5085L83.6878 16.9473L66.0449 31.1264Z" stroke="#2ACAF7" stroke-width="0.5" stroke-miterlimit="10"/>
<path d="M107.309 6.23769L118.017 4.03409L129.359 1.51367L107.309 6.23769Z" stroke="#2ACAF7" stroke-width="0.5" stroke-miterlimit="10"/>
<path d="M161.166 27.3446L176.915 26.7109L174.085 30.1818L161.166 27.3446Z" stroke="#2ACAF7" stroke-width="0.5" stroke-miterlimit="10"/>
<path d="M161.166 27.3438L174.085 30.181L176.915 34.5882L161.166 27.3438Z" stroke="#2ACAF7" stroke-width="0.5" stroke-miterlimit="10"/>
<path d="M174.084 30.1818L176.914 26.7109V34.589L174.084 30.1818Z" stroke="#2ACAF7" stroke-width="0.5" stroke-miterlimit="10"/>
<path d="M191.721 21.6777L203.372 24.8247L185.736 27.3451L191.721 21.6777Z" stroke="#2ACAF7" stroke-width="0.5" stroke-miterlimit="10"/>
<path d="M118.016 4.03409L129.357 1.51367L135.342 12.8555L118.016 4.03409Z" stroke="#2ACAF7" stroke-width="0.5" stroke-miterlimit="10"/>
<path d="M129.359 1.51411L144.158 0.253906L135.344 12.856L129.359 1.51411Z" stroke="#2ACAF7" stroke-width="0.5" stroke-miterlimit="10"/>
<path d="M144.156 0.253906L147.627 3.09113L135.342 12.856L144.156 0.253906Z" stroke="#2ACAF7" stroke-width="0.5" stroke-miterlimit="10"/>
<path d="M147.627 3.0918L152.034 21.6781L135.342 12.8566L147.627 3.0918Z" stroke="#2ACAF7" stroke-width="0.5" stroke-miterlimit="10"/>
<path d="M94.0801 14.7429L107.309 6.23828L112.976 23.2476L94.0801 14.7429Z" stroke="#2ACAF7" stroke-width="0.5" stroke-miterlimit="10"/>
<path d="M107.309 6.23876L118.017 4.03516L112.976 23.248L107.309 6.23876Z" stroke="#2ACAF7" stroke-width="0.5" stroke-miterlimit="10"/>
<path d="M118.015 4.03516L135.342 12.8566L112.975 23.248L118.015 4.03516Z" stroke="#2ACAF7" stroke-width="0.5" stroke-miterlimit="10"/>
<path d="M135.342 12.8555L152.034 21.6769L145.733 36.1658L135.342 12.8555Z" stroke="#2ACAF7" stroke-width="0.5" stroke-miterlimit="10"/>
<path d="M152.035 21.6777L161.167 27.3451L145.734 36.1666L152.035 21.6777Z" stroke="#2ACAF7" stroke-width="0.5" stroke-miterlimit="10"/>
<path d="M112.975 23.2469L135.342 12.8555L124.633 38.996L112.975 23.2469Z" stroke="#2ACAF7" stroke-width="0.5" stroke-miterlimit="10"/>
<path d="M135.343 12.8555L145.734 36.1658L124.635 38.996L135.343 12.8555Z" stroke="#2ACAF7" stroke-width="0.5" stroke-miterlimit="10"/>
<path d="M76.7539 24.5085L83.6886 16.9473L90.933 35.5336L76.7539 24.5085Z" stroke="#2ACAF7" stroke-width="0.5" stroke-miterlimit="10"/>
<path d="M83.6875 16.9458L94.0789 14.7422L90.9319 35.5321L83.6875 16.9458Z" stroke="#2ACAF7" stroke-width="0.5" stroke-miterlimit="10"/>
<path d="M94.0806 14.7422L112.977 23.2468L90.9336 35.5321L94.0806 14.7422Z" stroke="#2ACAF7" stroke-width="0.5" stroke-miterlimit="10"/>
<path d="M51.5566 34.5888L66.0455 31.125L71.7129 49.3945L51.5566 34.5888Z" stroke="#2ACAF7" stroke-width="0.5" stroke-miterlimit="10"/>
<path d="M66.0449 31.1257L76.7532 24.5078L71.7123 49.3952L66.0449 31.1257Z" stroke="#2ACAF7" stroke-width="0.5" stroke-miterlimit="10"/>
<path d="M76.7537 24.5078L90.9328 35.5329L71.7129 49.3952L76.7537 24.5078Z" stroke="#2ACAF7" stroke-width="0.5" stroke-miterlimit="10"/>
<path d="M18.4883 66.3982L19.4317 51.5996L44.6288 57.5838L18.4883 66.3982Z" stroke="#2ACAF7" stroke-width="0.5" stroke-miterlimit="10"/>
<path d="M19.4316 51.5992L25.7327 41.5176L44.6288 57.5835L19.4316 51.5992Z" stroke="#2ACAF7" stroke-width="0.5" stroke-miterlimit="10"/>
<path d="M25.7324 41.5177L37.0673 38.6875L44.6285 57.5836L25.7324 41.5177Z" stroke="#2ACAF7" stroke-width="0.5" stroke-miterlimit="10"/>
<path d="M37.0684 38.6873L51.5572 34.5898L44.6296 57.5833L37.0684 38.6873Z" stroke="#2ACAF7" stroke-width="0.5" stroke-miterlimit="10"/>
<path d="M51.5565 34.5898L71.7128 49.3955L44.6289 57.5833L51.5565 34.5898Z" stroke="#2ACAF7" stroke-width="0.5" stroke-miterlimit="10"/>
<path d="M11.5527 84.3562L18.4874 66.3965L37.7003 75.2179L11.5527 84.3562Z" stroke="#2ACAF7" stroke-width="0.5" stroke-miterlimit="10"/>
<path d="M18.4883 66.3964L44.6288 57.582L37.7012 75.2179L18.4883 66.3964Z" stroke="#2ACAF7" stroke-width="0.5" stroke-miterlimit="10"/>
<path d="M37.7012 75.2179L44.6288 57.582L59.4345 76.4781L37.7012 75.2179Z" stroke="#2ACAF7" stroke-width="0.5" stroke-miterlimit="10"/>
<path d="M44.6289 57.5824L71.7128 49.3945L59.4346 76.4784L44.6289 57.5824Z" stroke="#2ACAF7" stroke-width="0.5" stroke-miterlimit="10"/>
<path d="M59.4355 76.4784L71.7138 49.3945L85.8929 61.6727L59.4355 76.4784Z" stroke="#2ACAF7" stroke-width="0.5" stroke-miterlimit="10"/>
<path d="M71.7129 49.3955L90.9328 35.5332L85.892 61.6737L71.7129 49.3955Z" stroke="#2ACAF7" stroke-width="0.5" stroke-miterlimit="10"/>
<path d="M85.8926 61.6737L90.9334 35.5332L110.146 53.8027L85.8926 61.6737Z" stroke="#2ACAF7" stroke-width="0.5" stroke-miterlimit="10"/>
<path d="M90.9336 35.5333L112.977 23.248L110.146 53.8028L90.9336 35.5333Z" stroke="#2ACAF7" stroke-width="0.5" stroke-miterlimit="10"/>
<path d="M112.975 23.248L124.633 38.9971L110.145 53.8028L112.975 23.248Z" stroke="#2ACAF7" stroke-width="0.5" stroke-miterlimit="10"/>
<path d="M161.166 27.3438L176.915 34.5882L171.248 52.5409L161.166 27.3438Z" stroke="#2ACAF7" stroke-width="0.5" stroke-miterlimit="10"/>
<path d="M176.916 34.5882L185.737 27.3438L207.154 50.6541L176.916 34.5882Z" stroke="#2ACAF7" stroke-width="0.5" stroke-miterlimit="10"/>
<path d="M185.736 27.3446L203.372 24.8242L207.153 50.6549L185.736 27.3446Z" stroke="#2ACAF7" stroke-width="0.5" stroke-miterlimit="10"/>
<path d="M203.373 24.8242L214.081 26.0844L207.154 50.6549L203.373 24.8242Z" stroke="#2ACAF7" stroke-width="0.5" stroke-miterlimit="10"/>
<path d="M214.08 26.084H224.162L207.152 50.6545L214.08 26.084Z" stroke="#2ACAF7" stroke-width="0.5" stroke-miterlimit="10"/>
<path d="M224.162 26.084L239.285 27.3442L240.538 38.0524L224.162 26.084Z" stroke="#2ACAF7" stroke-width="0.5" stroke-miterlimit="10"/>
<path d="M239.285 27.3457L255.027 26.4023L240.538 38.054L239.285 27.3457Z" stroke="#2ACAF7" stroke-width="0.5" stroke-miterlimit="10"/>
<path d="M240.539 38.054L255.028 26.4023L270.467 53.1694L240.539 38.054Z" stroke="#2ACAF7" stroke-width="0.5" stroke-miterlimit="10"/>
<path d="M255.027 26.4012L272.67 25.7676L270.467 53.1683L255.027 26.4012Z" stroke="#2ACAF7" stroke-width="0.5" stroke-miterlimit="10"/>
<path d="M272.67 25.768L290.306 24.5078L270.467 53.1687L272.67 25.768Z" stroke="#2ACAF7" stroke-width="0.5" stroke-miterlimit="10"/>
<path d="M290.307 24.5078L299.438 24.8246L297.551 49.7049L290.307 24.5078Z" stroke="#2ACAF7" stroke-width="0.5" stroke-miterlimit="10"/>
<path d="M299.438 24.8242L309.836 30.8084L297.551 49.7045L299.438 24.8242Z" stroke="#2ACAF7" stroke-width="0.5" stroke-miterlimit="10"/>
<path d="M309.836 30.8086L315.503 42.4602L297.551 49.7047L309.836 30.8086Z" stroke="#2ACAF7" stroke-width="0.5" stroke-miterlimit="10"/>
<path d="M315.503 42.4609L317.707 55.3798L297.551 49.7054L315.503 42.4609Z" stroke="#2ACAF7" stroke-width="0.5" stroke-miterlimit="10"/>
<path d="M317.707 55.3795L320.544 66.0878L297.551 49.7051L317.707 55.3795Z" stroke="#2ACAF7" stroke-width="0.5" stroke-miterlimit="10"/>
<path d="M270.467 53.1687L290.306 24.5078L297.551 49.7049L270.467 53.1687Z" stroke="#2ACAF7" stroke-width="0.5" stroke-miterlimit="10"/>
<path d="M297.551 49.7051L320.544 66.0878L311.413 80.8864L297.551 49.7051Z" stroke="#2ACAF7" stroke-width="0.5" stroke-miterlimit="10"/>
<path d="M320.543 66.0879L325.267 76.7961L311.412 80.8865L320.543 66.0879Z" stroke="#2ACAF7" stroke-width="0.5" stroke-miterlimit="10"/>
<path d="M325.267 76.7949L332.195 89.39L311.412 80.8853L325.267 76.7949Z" stroke="#2ACAF7" stroke-width="0.5" stroke-miterlimit="10"/>
<path d="M297.55 49.7051L311.412 80.8864L285.898 66.7144L297.55 49.7051Z" stroke="#2ACAF7" stroke-width="0.5" stroke-miterlimit="10"/>
<path d="M270.467 53.1689L297.551 49.7051L285.899 66.7144L270.467 53.1689Z" stroke="#2ACAF7" stroke-width="0.5" stroke-miterlimit="10"/>
<path d="M285.898 66.7148L311.412 80.8869L296.923 90.342L285.898 66.7148Z" stroke="#2ACAF7" stroke-width="0.5" stroke-miterlimit="10"/>
<path d="M296.924 90.3418L311.413 80.8867L319.91 103.254L296.924 90.3418Z" stroke="#2ACAF7" stroke-width="0.5" stroke-miterlimit="10"/>
<path d="M311.412 80.8867L332.195 89.3914L319.91 103.254L311.412 80.8867Z" stroke="#2ACAF7" stroke-width="0.5" stroke-miterlimit="10"/>
<path d="M316.764 127.508L328.106 121.523L319.911 103.254L316.764 127.508Z" stroke="#2ACAF7" stroke-width="0.5" stroke-miterlimit="10"/>
<path d="M328.105 121.523L334.089 114.279L319.91 103.254L328.105 121.523Z" stroke="#2ACAF7" stroke-width="0.5" stroke-miterlimit="10"/>
<path d="M332.195 89.3906L333.146 97.8953L319.91 103.253L332.195 89.3906Z" stroke="#2ACAF7" stroke-width="0.5" stroke-miterlimit="10"/>
<path d="M333.146 97.8945L334.089 114.277L319.91 103.252L333.146 97.8945Z" stroke="#2ACAF7" stroke-width="0.5" stroke-miterlimit="10"/>
<path d="M296.924 90.3418L319.91 103.254L305.428 120.573L296.924 90.3418Z" stroke="#2ACAF7" stroke-width="0.5" stroke-miterlimit="10"/>
<path d="M308.258 140.736L316.763 127.507L305.428 120.572L308.258 140.736Z" stroke="#2ACAF7" stroke-width="0.5" stroke-miterlimit="10"/>
<path d="M316.763 127.508L319.91 103.254L305.428 120.573L316.763 127.508Z" stroke="#2ACAF7" stroke-width="0.5" stroke-miterlimit="10"/>
<path d="M296.923 90.3418L305.428 120.573L281.801 110.181L296.923 90.3418Z" stroke="#2ACAF7" stroke-width="0.5" stroke-miterlimit="10"/>
<path d="M281.801 110.181L296.924 90.3415L274.24 88.1309L281.801 110.181Z" stroke="#2ACAF7" stroke-width="0.5" stroke-miterlimit="10"/>
<path d="M285.899 66.7148L296.924 90.342L274.24 88.1313L285.899 66.7148Z" stroke="#2ACAF7" stroke-width="0.5" stroke-miterlimit="10"/>
<path d="M270.466 53.168L285.898 66.7134L251.562 74.5915L270.466 53.168Z" stroke="#2ACAF7" stroke-width="0.5" stroke-miterlimit="10"/>
<path d="M274.239 88.1313L285.898 66.7148L251.562 74.5929L274.239 88.1313Z" stroke="#2ACAF7" stroke-width="0.5" stroke-miterlimit="10"/>
<path d="M240.539 38.0527L270.467 53.1682L244.01 59.4692L240.539 38.0527Z" stroke="#2ACAF7" stroke-width="0.5" stroke-miterlimit="10"/>
<path d="M251.564 74.5915L270.467 53.168L244.01 59.469L251.564 74.5915Z" stroke="#2ACAF7" stroke-width="0.5" stroke-miterlimit="10"/>
<path d="M207.152 50.6545L224.162 26.084L228.569 58.8423L207.152 50.6545Z" stroke="#2ACAF7" stroke-width="0.5" stroke-miterlimit="10"/>
<path d="M224.162 26.084L240.538 38.0524L228.569 58.8423L224.162 26.084Z" stroke="#2ACAF7" stroke-width="0.5" stroke-miterlimit="10"/>
<path d="M240.539 38.0527L244.01 59.4692L228.57 58.8426L240.539 38.0527Z" stroke="#2ACAF7" stroke-width="0.5" stroke-miterlimit="10"/>
<path d="M244.01 59.4703L251.564 74.5928L228.57 58.8438L244.01 59.4703Z" stroke="#2ACAF7" stroke-width="0.5" stroke-miterlimit="10"/>
<path d="M207.152 50.6543L228.569 58.8421L210.616 70.1769L207.152 50.6543Z" stroke="#2ACAF7" stroke-width="0.5" stroke-miterlimit="10"/>
<path d="M171.248 52.5425L176.915 34.5898L183.216 60.7304L171.248 52.5425Z" stroke="#2ACAF7" stroke-width="0.5" stroke-miterlimit="10"/>
<path d="M176.916 34.5898L207.154 50.6557L183.217 60.7304L176.916 34.5898Z" stroke="#2ACAF7" stroke-width="0.5" stroke-miterlimit="10"/>
<path d="M207.154 50.6543L210.618 70.1769L183.217 60.7289L207.154 50.6543Z" stroke="#2ACAF7" stroke-width="0.5" stroke-miterlimit="10"/>
<path d="M171.248 52.543L183.216 60.7308L160.223 74.2763L171.248 52.543Z" stroke="#2ACAF7" stroke-width="0.5" stroke-miterlimit="10"/>
<path d="M124.635 38.9962L145.734 36.166L147.628 49.3947L124.635 38.9962Z" stroke="#2ACAF7" stroke-width="0.5" stroke-miterlimit="10"/>
<path d="M138.807 68.6074L160.223 74.2748L147.628 49.3945L138.807 68.6074Z" stroke="#2ACAF7" stroke-width="0.5" stroke-miterlimit="10"/>
<path d="M145.734 36.1652L161.167 27.3438L147.628 49.3939L145.734 36.1652Z" stroke="#2ACAF7" stroke-width="0.5" stroke-miterlimit="10"/>
<path d="M160.222 74.2748L171.247 52.5415L147.627 49.3945L160.222 74.2748Z" stroke="#2ACAF7" stroke-width="0.5" stroke-miterlimit="10"/>
<path d="M161.165 27.3438L171.247 52.5409L147.627 49.3939L161.165 27.3438Z" stroke="#2ACAF7" stroke-width="0.5" stroke-miterlimit="10"/>
<path d="M110.145 53.8018L124.633 38.9961L125.577 64.51L110.145 53.8018Z" stroke="#2ACAF7" stroke-width="0.5" stroke-miterlimit="10"/>
<path d="M124.635 38.9961L147.628 49.3946L125.578 64.51L124.635 38.9961Z" stroke="#2ACAF7" stroke-width="0.5" stroke-miterlimit="10"/>
<path d="M138.807 68.6074L147.628 49.3945L125.578 64.51L138.807 68.6074Z" stroke="#2ACAF7" stroke-width="0.5" stroke-miterlimit="10"/>
<path d="M59.4355 76.4795L85.8929 61.6738L86.8363 77.1131L59.4355 76.4795Z" stroke="#2ACAF7" stroke-width="0.5" stroke-miterlimit="10"/>
<path d="M85.8926 61.6738L86.836 77.1131L114.87 78.0565L85.8926 61.6738Z" stroke="#2ACAF7" stroke-width="0.5" stroke-miterlimit="10"/>
<path d="M85.8926 61.6738L110.146 53.8027L114.87 78.0565L85.8926 61.6738Z" stroke="#2ACAF7" stroke-width="0.5" stroke-miterlimit="10"/>
<path d="M110.145 53.8027L125.577 64.511L114.869 78.0565L110.145 53.8027Z" stroke="#2ACAF7" stroke-width="0.5" stroke-miterlimit="10"/>
<path d="M125.577 64.5098L138.806 68.6072L114.869 78.0552L125.577 64.5098Z" stroke="#2ACAF7" stroke-width="0.5" stroke-miterlimit="10"/>
<path d="M59.4355 76.4785L66.68 97.5852L79.5918 96.325L59.4355 76.4785Z" stroke="#2ACAF7" stroke-width="0.5" stroke-miterlimit="10"/>
<path d="M59.4355 76.4785L86.8363 77.1121L79.5918 96.325L59.4355 76.4785Z" stroke="#2ACAF7" stroke-width="0.5" stroke-miterlimit="10"/>
<path d="M6.83008 113.961L7.78051 94.1211L29.8236 98.2115L6.83008 113.961Z" stroke="#2ACAF7" stroke-width="0.5" stroke-miterlimit="10"/>
<path d="M6.83008 113.962L15.9683 123.41L29.8236 98.2129L6.83008 113.962Z" stroke="#2ACAF7" stroke-width="0.5" stroke-miterlimit="10"/>
<path d="M7.7793 94.1223L11.5529 84.3574L29.8224 98.2127L7.7793 94.1223Z" stroke="#2ACAF7" stroke-width="0.5" stroke-miterlimit="10"/>
<path d="M11.5527 84.357L37.7003 75.2188L29.8222 98.2123L11.5527 84.357Z" stroke="#2ACAF7" stroke-width="0.5" stroke-miterlimit="10"/>
<path d="M15.9688 123.409L17.229 141.052L33.6046 121.205L15.9688 123.409Z" stroke="#2ACAF7" stroke-width="0.5" stroke-miterlimit="10"/>
<path d="M15.9688 123.41L29.824 98.2129L33.6046 121.206L15.9688 123.41Z" stroke="#2ACAF7" stroke-width="0.5" stroke-miterlimit="10"/>
<path d="M29.8223 98.2129L33.6029 121.206L50.2954 108.604L29.8223 98.2129Z" stroke="#2ACAF7" stroke-width="0.5" stroke-miterlimit="10"/>
<path d="M29.8223 98.2123L37.7003 75.2188L50.2954 108.604L29.8223 98.2123Z" stroke="#2ACAF7" stroke-width="0.5" stroke-miterlimit="10"/>
<path d="M37.7012 75.2188L59.4345 76.479L50.2962 108.604L37.7012 75.2188Z" stroke="#2ACAF7" stroke-width="0.5" stroke-miterlimit="10"/>
<path d="M59.4351 76.4785L66.6796 97.5852L50.2969 108.603L59.4351 76.4785Z" stroke="#2ACAF7" stroke-width="0.5" stroke-miterlimit="10"/>
<path d="M50.2969 108.604L66.6796 97.5859L63.8423 124.67L50.2969 108.604Z" stroke="#2ACAF7" stroke-width="0.5" stroke-miterlimit="10"/>
<path d="M15.9688 147.98L17.229 141.053L33.2878 144.517L15.9688 147.98Z" stroke="#2ACAF7" stroke-width="0.5" stroke-miterlimit="10"/>
<path d="M15.9688 147.979L17.229 156.167L33.2878 144.516L15.9688 147.979Z" stroke="#2ACAF7" stroke-width="0.5" stroke-miterlimit="10"/>
<path d="M17.2285 141.052L33.6042 121.205L33.2874 144.515L17.2285 141.052Z" stroke="#2ACAF7" stroke-width="0.5" stroke-miterlimit="10"/>
<path d="M33.2871 144.515L33.6039 121.205L53.7602 137.588L33.2871 144.515Z" stroke="#2ACAF7" stroke-width="0.5" stroke-miterlimit="10"/>
<path d="M33.6035 121.206L50.296 108.604L53.7598 137.588L33.6035 121.206Z" stroke="#2ACAF7" stroke-width="0.5" stroke-miterlimit="10"/>
<path d="M50.2969 108.604L63.8423 124.669L53.7607 137.588L50.2969 108.604Z" stroke="#2ACAF7" stroke-width="0.5" stroke-miterlimit="10"/>
<path d="M79.5898 96.3262L86.8343 77.1133L102.267 95.6925L79.5898 96.3262Z" stroke="#2ACAF7" stroke-width="0.5" stroke-miterlimit="10"/>
<path d="M86.8359 77.1133L114.87 78.0567L102.268 95.6925L86.8359 77.1133Z" stroke="#2ACAF7" stroke-width="0.5" stroke-miterlimit="10"/>
<path d="M63.8418 124.67L66.679 97.5859L87.1521 112.075L63.8418 124.67Z" stroke="#2ACAF7" stroke-width="0.5" stroke-miterlimit="10"/>
<path d="M66.6797 97.5864L79.5915 96.3262L87.1528 112.075L66.6797 97.5864Z" stroke="#2ACAF7" stroke-width="0.5" stroke-miterlimit="10"/>
<path d="M79.5898 96.325L102.267 95.6914L87.1511 112.074L79.5898 96.325Z" stroke="#2ACAF7" stroke-width="0.5" stroke-miterlimit="10"/>
<path d="M53.7598 137.589L63.8414 124.67L74.2329 137.589H53.7598Z" stroke="#2ACAF7" stroke-width="0.5" stroke-miterlimit="10"/>
<path d="M63.8418 124.669L87.1521 112.074L74.2332 137.588L63.8418 124.669Z" stroke="#2ACAF7" stroke-width="0.5" stroke-miterlimit="10"/>
<path d="M74.2324 137.588L87.1513 112.074L95.9657 129.393L74.2324 137.588Z" stroke="#2ACAF7" stroke-width="0.5" stroke-miterlimit="10"/>
<path d="M53.7598 137.588H74.2329L63.8414 157.111L53.7598 137.588Z" stroke="#2ACAF7" stroke-width="0.5" stroke-miterlimit="10"/>
<path d="M12.8145 165.299L17.2287 156.168L38.3284 162.469L12.8145 165.299Z" stroke="#2ACAF7" stroke-width="0.5" stroke-miterlimit="10"/>
<path d="M12.8145 165.299L17.8553 176.958L38.3284 162.469L12.8145 165.299Z" stroke="#2ACAF7" stroke-width="0.5" stroke-miterlimit="10"/>
<path d="M17.2285 156.167L33.2874 144.516L38.3282 162.468L17.2285 156.167Z" stroke="#2ACAF7" stroke-width="0.5" stroke-miterlimit="10"/>
<path d="M33.2871 144.516L53.7602 137.588L38.3279 162.468L33.2871 144.516Z" stroke="#2ACAF7" stroke-width="0.5" stroke-miterlimit="10"/>
<path d="M53.7604 137.588L63.842 157.111L38.3281 162.468L53.7604 137.588Z" stroke="#2ACAF7" stroke-width="0.5" stroke-miterlimit="10"/>
<path d="M17.8535 176.957L23.8377 187.982L35.8062 179.161L17.8535 176.957Z" stroke="#2ACAF7" stroke-width="0.5" stroke-miterlimit="10"/>
<path d="M17.8535 176.958L38.3266 162.469L35.8062 179.161L17.8535 176.958Z" stroke="#2ACAF7" stroke-width="0.5" stroke-miterlimit="10"/>
<path d="M23.8379 187.982L26.0415 197.43L35.8063 179.16L23.8379 187.982Z" stroke="#2ACAF7" stroke-width="0.5" stroke-miterlimit="10"/>
<path d="M35.8066 179.161L38.3271 162.469L52.8159 182.625L35.8066 179.161Z" stroke="#2ACAF7" stroke-width="0.5" stroke-miterlimit="10"/>
<path d="M38.3281 162.469L63.842 157.111L52.817 182.625L38.3281 162.469Z" stroke="#2ACAF7" stroke-width="0.5" stroke-miterlimit="10"/>
<path d="M26.043 197.43L32.9776 215.066L44.9461 201.21L26.043 197.43Z" stroke="#2ACAF7" stroke-width="0.5" stroke-miterlimit="10"/>
<path d="M26.043 197.43L35.8078 179.16L44.9461 201.21L26.043 197.43Z" stroke="#2ACAF7" stroke-width="0.5" stroke-miterlimit="10"/>
<path d="M32.9766 215.066L49.9858 227.978L44.945 201.211L32.9766 215.066Z" stroke="#2ACAF7" stroke-width="0.5" stroke-miterlimit="10"/>
<path d="M35.8066 179.16L52.8159 182.624L44.9449 201.21L35.8066 179.16Z" stroke="#2ACAF7" stroke-width="0.5" stroke-miterlimit="10"/>
<path d="M44.9453 201.211L49.9861 227.978L63.8414 212.229L44.9453 201.211Z" stroke="#2ACAF7" stroke-width="0.5" stroke-miterlimit="10"/>
<path d="M44.9453 201.211L52.8163 182.625L63.8414 212.229L44.9453 201.211Z" stroke="#2ACAF7" stroke-width="0.5" stroke-miterlimit="10"/>
<path d="M49.9863 227.978L56.9139 232.075L63.8416 212.229L49.9863 227.978Z" stroke="#2ACAF7" stroke-width="0.5" stroke-miterlimit="10"/>
<path d="M56.9141 232.075L71.0861 234.595L63.8417 212.229L56.9141 232.075Z" stroke="#2ACAF7" stroke-width="0.5" stroke-miterlimit="10"/>
<path d="M63.8418 212.229L71.0862 234.595L81.7945 224.831L63.8418 212.229Z" stroke="#2ACAF7" stroke-width="0.5" stroke-miterlimit="10"/>
<path d="M71.0859 234.597L74.8666 240.898L81.7942 224.832L71.0859 234.597Z" stroke="#2ACAF7" stroke-width="0.5" stroke-miterlimit="10"/>
<path d="M74.8672 240.898L81.7948 224.832L91.8765 236.8L74.8672 240.898Z" stroke="#2ACAF7" stroke-width="0.5" stroke-miterlimit="10"/>
<path d="M74.8672 240.896L89.0392 247.507L91.8765 236.799L74.8672 240.896Z" stroke="#2ACAF7" stroke-width="0.5" stroke-miterlimit="10"/>
<path d="M89.0391 247.507L98.4871 250.344L91.8763 236.799L89.0391 247.507Z" stroke="#2ACAF7" stroke-width="0.5" stroke-miterlimit="10"/>
<path d="M63.8418 212.229L81.7945 224.831L88.7291 197.113L63.8418 212.229Z" stroke="#2ACAF7" stroke-width="0.5" stroke-miterlimit="10"/>
<path d="M52.8164 182.625L63.8415 157.111L73.9231 180.105L52.8164 182.625Z" stroke="#2ACAF7" stroke-width="0.5" stroke-miterlimit="10"/>
<path d="M52.8164 182.626L63.8415 212.23L73.9231 180.105L52.8164 182.626Z" stroke="#2ACAF7" stroke-width="0.5" stroke-miterlimit="10"/>
<path d="M63.8418 212.23L88.7291 197.115L73.9235 180.105L63.8418 212.23Z" stroke="#2ACAF7" stroke-width="0.5" stroke-miterlimit="10"/>
<path d="M63.8418 157.111L73.9235 180.105L89.0389 158.688L63.8418 157.111Z" stroke="#2ACAF7" stroke-width="0.5" stroke-miterlimit="10"/>
<path d="M63.8418 157.111L74.2332 137.588L89.0389 158.688L63.8418 157.111Z" stroke="#2ACAF7" stroke-width="0.5" stroke-miterlimit="10"/>
<path d="M74.2324 137.588L89.0381 158.688L101.64 146.085L74.2324 137.588Z" stroke="#2ACAF7" stroke-width="0.5" stroke-miterlimit="10"/>
<path d="M74.2324 137.589L95.9657 129.395L101.64 146.087L74.2324 137.589Z" stroke="#2ACAF7" stroke-width="0.5" stroke-miterlimit="10"/>
<path d="M87.1523 112.074L95.9668 129.393L105.732 112.384L87.1523 112.074Z" stroke="#2ACAF7" stroke-width="0.5" stroke-miterlimit="10"/>
<path d="M87.1523 112.074L102.268 95.6914L105.732 112.384L87.1523 112.074Z" stroke="#2ACAF7" stroke-width="0.5" stroke-miterlimit="10"/>
<path d="M95.9668 129.394L120.854 113.018L105.732 112.385L95.9668 129.394Z" stroke="#2ACAF7" stroke-width="0.5" stroke-miterlimit="10"/>
<path d="M102.268 95.6914L120.854 113.018L105.731 112.384L102.268 95.6914Z" stroke="#2ACAF7" stroke-width="0.5" stroke-miterlimit="10"/>
<path d="M102.268 95.6925L114.87 78.0566L134.083 98.5297L102.268 95.6925Z" stroke="#2ACAF7" stroke-width="0.5" stroke-miterlimit="10"/>
<path d="M102.268 95.6914L120.854 113.018L134.083 98.5286L102.268 95.6914Z" stroke="#2ACAF7" stroke-width="0.5" stroke-miterlimit="10"/>
<path d="M114.869 78.0555L138.806 68.6074L134.082 98.5285L114.869 78.0555Z" stroke="#2ACAF7" stroke-width="0.5" stroke-miterlimit="10"/>
<path d="M138.806 68.6074L160.223 74.2748L134.082 98.5285L138.806 68.6074Z" stroke="#2ACAF7" stroke-width="0.5" stroke-miterlimit="10"/>
<path d="M134.082 98.5291L160.223 74.2754L163.377 93.4883L134.082 98.5291Z" stroke="#2ACAF7" stroke-width="0.5" stroke-miterlimit="10"/>
<path d="M160.223 74.2754L163.377 93.4883L190.144 78.9994L160.223 74.2754Z" stroke="#2ACAF7" stroke-width="0.5" stroke-miterlimit="10"/>
<path d="M160.223 74.2759L183.216 60.7305L190.144 79L160.223 74.2759Z" stroke="#2ACAF7" stroke-width="0.5" stroke-miterlimit="10"/>
<path d="M183.217 60.7305L210.618 70.1785L190.144 79L183.217 60.7305Z" stroke="#2ACAF7" stroke-width="0.5" stroke-miterlimit="10"/>
<path d="M190.145 78.9992L210.618 70.1777L220.382 87.5038L190.145 78.9992Z" stroke="#2ACAF7" stroke-width="0.5" stroke-miterlimit="10"/>
<path d="M210.617 70.1786L228.57 58.8438L220.382 87.5047L210.617 70.1786Z" stroke="#2ACAF7" stroke-width="0.5" stroke-miterlimit="10"/>
<path d="M228.569 58.8438L251.562 74.5928L220.381 87.5047L228.569 58.8438Z" stroke="#2ACAF7" stroke-width="0.5" stroke-miterlimit="10"/>
<path d="M163.377 93.4889L190.144 79L184.477 99.4731L163.377 93.4889Z" stroke="#2ACAF7" stroke-width="0.5" stroke-miterlimit="10"/>
<path d="M134.082 98.5291L163.377 93.4883L161.8 109.554L134.082 98.5291Z" stroke="#2ACAF7" stroke-width="0.5" stroke-miterlimit="10"/>
<path d="M163.378 93.4883L184.477 99.4725L161.801 109.554L163.378 93.4883Z" stroke="#2ACAF7" stroke-width="0.5" stroke-miterlimit="10"/>
<path d="M120.854 113.018L134.082 98.5293L146.994 119.002L120.854 113.018Z" stroke="#2ACAF7" stroke-width="0.5" stroke-miterlimit="10"/>
<path d="M134.082 98.5293L161.8 109.554L146.994 119.002L134.082 98.5293Z" stroke="#2ACAF7" stroke-width="0.5" stroke-miterlimit="10"/>
<path d="M161.801 109.554L184.477 99.4727L185.111 118.686L161.801 109.554Z" stroke="#2ACAF7" stroke-width="0.5" stroke-miterlimit="10"/>
<path d="M184.477 99.4727L185.11 118.686L204.006 104.83L184.477 99.4727Z" stroke="#2ACAF7" stroke-width="0.5" stroke-miterlimit="10"/>
<path d="M184.477 99.4731L190.144 79L204.006 104.831L184.477 99.4731Z" stroke="#2ACAF7" stroke-width="0.5" stroke-miterlimit="10"/>
<path d="M190.145 79L220.382 87.5046L204.007 104.831L190.145 79Z" stroke="#2ACAF7" stroke-width="0.5" stroke-miterlimit="10"/>
<path d="M220.382 87.5039L224.479 116.798L204.006 104.83L220.382 87.5039Z" stroke="#2ACAF7" stroke-width="0.5" stroke-miterlimit="10"/>
<path d="M220.381 87.5039L224.478 116.798L242.748 101.359L220.381 87.5039Z" stroke="#2ACAF7" stroke-width="0.5" stroke-miterlimit="10"/>
<path d="M220.381 87.5036L251.562 74.5918L242.748 101.359L220.381 87.5036Z" stroke="#2ACAF7" stroke-width="0.5" stroke-miterlimit="10"/>
<path d="M251.562 74.5918L274.239 88.1302L242.748 101.359L251.562 74.5918Z" stroke="#2ACAF7" stroke-width="0.5" stroke-miterlimit="10"/>
<path d="M242.748 101.36L274.239 88.1309L266.368 119.319L242.748 101.36Z" stroke="#2ACAF7" stroke-width="0.5" stroke-miterlimit="10"/>
<path d="M274.24 88.1309L281.801 110.181L266.369 119.319L274.24 88.1309Z" stroke="#2ACAF7" stroke-width="0.5" stroke-miterlimit="10"/>
<path d="M281.801 110.182L305.428 120.573L273.613 147.664L281.801 110.182Z" stroke="#2ACAF7" stroke-width="0.5" stroke-miterlimit="10"/>
<path d="M305.428 120.572L308.258 140.736L273.613 147.663L305.428 120.572Z" stroke="#2ACAF7" stroke-width="0.5" stroke-miterlimit="10"/>
<path d="M266.369 119.32L281.801 110.182L273.614 147.664L266.369 119.32Z" stroke="#2ACAF7" stroke-width="0.5" stroke-miterlimit="10"/>
<path d="M308.258 140.734L311.722 143.255L293.77 164.038L308.258 140.734Z" stroke="#2ACAF7" stroke-width="0.5" stroke-miterlimit="10"/>
<path d="M311.722 143.256L313.616 145.459L293.77 164.039L311.722 143.256Z" stroke="#2ACAF7" stroke-width="0.5" stroke-miterlimit="10"/>
<path d="M313.616 145.459L326.528 162.785L293.77 164.038L313.616 145.459Z" stroke="#2ACAF7" stroke-width="0.5" stroke-miterlimit="10"/>
<path d="M324.324 178.844L326.528 162.785L293.77 164.038L324.324 178.844Z" stroke="#2ACAF7" stroke-width="0.5" stroke-miterlimit="10"/>
<path d="M273.613 147.662L308.258 140.734L293.77 164.038L273.613 147.662Z" stroke="#2ACAF7" stroke-width="0.5" stroke-miterlimit="10"/>
<path d="M293.77 164.039L324.324 178.845L297.867 191.13L293.77 164.039Z" stroke="#2ACAF7" stroke-width="0.5" stroke-miterlimit="10"/>
<path d="M324.324 178.844L328.422 195.536L297.867 191.129L324.324 178.844Z" stroke="#2ACAF7" stroke-width="0.5" stroke-miterlimit="10"/>
<path d="M297.867 191.129L328.422 195.536L314.876 212.862L297.867 191.129Z" stroke="#2ACAF7" stroke-width="0.5" stroke-miterlimit="10"/>
<path d="M328.422 195.537L337.87 204.675L314.877 212.863L328.422 195.537Z" stroke="#2ACAF7" stroke-width="0.5" stroke-miterlimit="10"/>
<path d="M337.87 204.676L341.334 222.312L314.877 212.864L337.87 204.676Z" stroke="#2ACAF7" stroke-width="0.5" stroke-miterlimit="10"/>
<path d="M306.055 285.307L313.616 274.282L298.811 255.695L306.055 285.307Z" stroke="#2ACAF7" stroke-width="0.5" stroke-miterlimit="10"/>
<path d="M313.616 274.282L319.6 264.517L298.811 255.695L313.616 274.282Z" stroke="#2ACAF7" stroke-width="0.5" stroke-miterlimit="10"/>
<path d="M296.924 230.816L298.811 255.697L316.446 243.418L296.924 230.816Z" stroke="#2ACAF7" stroke-width="0.5" stroke-miterlimit="10"/>
<path d="M296.924 230.816L314.876 212.863L316.446 243.418L296.924 230.816Z" stroke="#2ACAF7" stroke-width="0.5" stroke-miterlimit="10"/>
<path d="M298.811 255.696L319.6 264.518L316.446 243.418L298.811 255.696Z" stroke="#2ACAF7" stroke-width="0.5" stroke-miterlimit="10"/>
<path d="M314.877 212.863L341.334 222.311L316.447 243.418L314.877 212.863Z" stroke="#2ACAF7" stroke-width="0.5" stroke-miterlimit="10"/>
<path d="M319.601 264.518L328.106 256.647L316.447 243.418L319.601 264.518Z" stroke="#2ACAF7" stroke-width="0.5" stroke-miterlimit="10"/>
<path d="M328.106 256.647L334.09 245.622L316.447 243.418L328.106 256.647Z" stroke="#2ACAF7" stroke-width="0.5" stroke-miterlimit="10"/>
<path d="M334.09 245.621L341.335 222.311L316.447 243.417L334.09 245.621Z" stroke="#2ACAF7" stroke-width="0.5" stroke-miterlimit="10"/>
<path d="M296.923 230.816L314.876 212.864L279.914 203.732L296.923 230.816Z" stroke="#2ACAF7" stroke-width="0.5" stroke-miterlimit="10"/>
<path d="M297.867 191.129L314.876 212.862L279.914 203.731L297.867 191.129Z" stroke="#2ACAF7" stroke-width="0.5" stroke-miterlimit="10"/>
<path d="M279.913 203.732L297.866 191.13L258.807 174.754L279.913 203.732Z" stroke="#2ACAF7" stroke-width="0.5" stroke-miterlimit="10"/>
<path d="M293.769 164.039L297.866 191.13L258.807 174.754L293.769 164.039Z" stroke="#2ACAF7" stroke-width="0.5" stroke-miterlimit="10"/>
<path d="M273.612 147.662L293.769 164.038L258.807 174.753L273.612 147.662Z" stroke="#2ACAF7" stroke-width="0.5" stroke-miterlimit="10"/>
<path d="M146.994 119.003L161.8 109.555L158.963 134.435L146.994 119.003Z" stroke="#2ACAF7" stroke-width="0.5" stroke-miterlimit="10"/>
<path d="M161.8 109.555L185.11 118.686L158.963 134.435L161.8 109.555Z" stroke="#2ACAF7" stroke-width="0.5" stroke-miterlimit="10"/>
<path d="M224.48 116.799L228.571 155.225L244.32 136.012L224.48 116.799Z" stroke="#2ACAF7" stroke-width="0.5" stroke-miterlimit="10"/>
<path d="M224.48 116.799L242.75 101.359L244.32 136.012L224.48 116.799Z" stroke="#2ACAF7" stroke-width="0.5" stroke-miterlimit="10"/>
<path d="M228.57 155.225L258.808 174.754L244.319 136.012L228.57 155.225Z" stroke="#2ACAF7" stroke-width="0.5" stroke-miterlimit="10"/>
<path d="M242.748 101.359L266.368 119.319L244.318 136.012L242.748 101.359Z" stroke="#2ACAF7" stroke-width="0.5" stroke-miterlimit="10"/>
<path d="M258.807 174.754L273.613 147.663L244.318 136.012L258.807 174.754Z" stroke="#2ACAF7" stroke-width="0.5" stroke-miterlimit="10"/>
<path d="M266.368 119.318L273.613 147.662L244.318 136.011L266.368 119.318Z" stroke="#2ACAF7" stroke-width="0.5" stroke-miterlimit="10"/>
<path d="M158.963 134.435L185.11 118.686L177.232 151.127L158.963 134.435Z" stroke="#2ACAF7" stroke-width="0.5" stroke-miterlimit="10"/>
<path d="M177.232 151.127L185.11 118.686L195.819 140.102L177.232 151.127Z" stroke="#2ACAF7" stroke-width="0.5" stroke-miterlimit="10"/>
<path d="M185.111 118.685L204.007 104.83L195.82 140.102L185.111 118.685Z" stroke="#2ACAF7" stroke-width="0.5" stroke-miterlimit="10"/>
<path d="M204.006 104.83L224.479 116.799L195.818 140.102L204.006 104.83Z" stroke="#2ACAF7" stroke-width="0.5" stroke-miterlimit="10"/>
<path d="M224.479 116.799L228.57 155.225L195.818 140.102L224.479 116.799Z" stroke="#2ACAF7" stroke-width="0.5" stroke-miterlimit="10"/>
<path d="M95.9668 129.393L120.854 113.018L129.985 133.807L95.9668 129.393Z" stroke="#2ACAF7" stroke-width="0.5" stroke-miterlimit="10"/>
<path d="M120.854 113.018L146.994 119.002L129.985 133.807L120.854 113.018Z" stroke="#2ACAF7" stroke-width="0.5" stroke-miterlimit="10"/>
<path d="M146.994 119.002L158.962 134.434L129.984 133.808L146.994 119.002Z" stroke="#2ACAF7" stroke-width="0.5" stroke-miterlimit="10"/>
<path d="M95.9668 129.395L101.641 146.087L115.813 148.607L95.9668 129.395Z" stroke="#2ACAF7" stroke-width="0.5" stroke-miterlimit="10"/>
<path d="M95.9668 129.395L129.985 133.809L115.813 148.607L95.9668 129.395Z" stroke="#2ACAF7" stroke-width="0.5" stroke-miterlimit="10"/>
<path d="M115.812 148.607L129.985 133.809L132.188 170.341L115.812 148.607Z" stroke="#2ACAF7" stroke-width="0.5" stroke-miterlimit="10"/>
<path d="M129.984 133.809L132.188 170.341L155.181 162.47L129.984 133.809Z" stroke="#2ACAF7" stroke-width="0.5" stroke-miterlimit="10"/>
<path d="M129.984 133.809L158.962 134.435L155.181 162.47L129.984 133.809Z" stroke="#2ACAF7" stroke-width="0.5" stroke-miterlimit="10"/>
<path d="M158.962 134.434L177.232 151.126L155.182 162.468L158.962 134.434Z" stroke="#2ACAF7" stroke-width="0.5" stroke-miterlimit="10"/>
<path d="M155.182 162.469L177.232 151.127L168.41 176.014L155.182 162.469Z" stroke="#2ACAF7" stroke-width="0.5" stroke-miterlimit="10"/>
<path d="M73.9238 180.104L88.7295 197.113L105.732 167.818L73.9238 180.104Z" stroke="#2ACAF7" stroke-width="0.5" stroke-miterlimit="10"/>
<path d="M73.9238 180.104L89.0393 158.688L105.732 167.819L73.9238 180.104Z" stroke="#2ACAF7" stroke-width="0.5" stroke-miterlimit="10"/>
<path d="M88.7285 197.113L107.625 198.373L105.731 167.818L88.7285 197.113Z" stroke="#2ACAF7" stroke-width="0.5" stroke-miterlimit="10"/>
<path d="M89.0391 158.688L101.641 146.086L105.732 167.819L89.0391 158.688Z" stroke="#2ACAF7" stroke-width="0.5" stroke-miterlimit="10"/>
<path d="M101.641 146.086L115.813 148.606L105.731 167.819L101.641 146.086Z" stroke="#2ACAF7" stroke-width="0.5" stroke-miterlimit="10"/>
<path d="M115.812 148.605L132.188 170.339L105.73 167.818L115.812 148.605Z" stroke="#2ACAF7" stroke-width="0.5" stroke-miterlimit="10"/>
<path d="M105.73 167.818L107.624 198.373L131.244 191.445L105.73 167.818Z" stroke="#2ACAF7" stroke-width="0.5" stroke-miterlimit="10"/>
<path d="M105.73 167.818L132.188 170.339L131.244 191.445L105.73 167.818Z" stroke="#2ACAF7" stroke-width="0.5" stroke-miterlimit="10"/>
<path d="M132.189 170.34L155.183 162.469L131.246 191.446L132.189 170.34Z" stroke="#2ACAF7" stroke-width="0.5" stroke-miterlimit="10"/>
<path d="M140.384 202.471L168.412 176.014L131.246 191.446L140.384 202.471Z" stroke="#2ACAF7" stroke-width="0.5" stroke-miterlimit="10"/>
<path d="M155.183 162.469L168.412 176.014L131.246 191.446L155.183 162.469Z" stroke="#2ACAF7" stroke-width="0.5" stroke-miterlimit="10"/>
<path d="M81.7949 224.831L88.7296 197.113L104.788 228.928L81.7949 224.831Z" stroke="#2ACAF7" stroke-width="0.5" stroke-miterlimit="10"/>
<path d="M81.7949 224.832L91.8766 236.8L104.788 228.929L81.7949 224.832Z" stroke="#2ACAF7" stroke-width="0.5" stroke-miterlimit="10"/>
<path d="M88.7285 197.113L107.625 198.373L104.787 228.928L88.7285 197.113Z" stroke="#2ACAF7" stroke-width="0.5" stroke-miterlimit="10"/>
<path d="M91.877 236.801L98.4878 250.346L104.789 228.93L91.877 236.801Z" stroke="#2ACAF7" stroke-width="0.5" stroke-miterlimit="10"/>
<path d="M98.4863 250.346L119.91 255.07L104.787 228.93L98.4863 250.346Z" stroke="#2ACAF7" stroke-width="0.5" stroke-miterlimit="10"/>
<path d="M104.787 228.93L119.91 255.07L137.862 232.077L104.787 228.93Z" stroke="#2ACAF7" stroke-width="0.5" stroke-miterlimit="10"/>
<path d="M137.863 232.075L140.384 202.471L153.922 213.496L137.863 232.075Z" stroke="#2ACAF7" stroke-width="0.5" stroke-miterlimit="10"/>
<path d="M104.787 228.928L107.624 198.373L117.072 214.439L104.787 228.928Z" stroke="#2ACAF7" stroke-width="0.5" stroke-miterlimit="10"/>
<path d="M104.787 228.928L137.862 232.075L117.072 214.439L104.787 228.928Z" stroke="#2ACAF7" stroke-width="0.5" stroke-miterlimit="10"/>
<path d="M107.625 198.373L131.245 191.445L117.073 214.439L107.625 198.373Z" stroke="#2ACAF7" stroke-width="0.5" stroke-miterlimit="10"/>
<path d="M131.244 191.445L140.383 202.47L117.072 214.439L131.244 191.445Z" stroke="#2ACAF7" stroke-width="0.5" stroke-miterlimit="10"/>
<path d="M137.862 232.075L140.383 202.471L117.072 214.439L137.862 232.075Z" stroke="#2ACAF7" stroke-width="0.5" stroke-miterlimit="10"/>
<path d="M119.91 255.068L132.188 271.134L152.035 259.166L119.91 255.068Z" stroke="#2ACAF7" stroke-width="0.5" stroke-miterlimit="10"/>
<path d="M119.91 255.07L137.863 232.076L152.035 259.167L119.91 255.07Z" stroke="#2ACAF7" stroke-width="0.5" stroke-miterlimit="10"/>
<path d="M132.189 271.134L141.645 277.745L152.036 259.166L132.189 271.134Z" stroke="#2ACAF7" stroke-width="0.5" stroke-miterlimit="10"/>
<path d="M141.643 277.745L150.14 277.119L152.034 259.166L141.643 277.745Z" stroke="#2ACAF7" stroke-width="0.5" stroke-miterlimit="10"/>
<path d="M137.863 232.076L152.035 259.167L169.671 240.581L137.863 232.076Z" stroke="#2ACAF7" stroke-width="0.5" stroke-miterlimit="10"/>
<path d="M137.863 232.075L153.922 213.496L169.671 240.58L137.863 232.075Z" stroke="#2ACAF7" stroke-width="0.5" stroke-miterlimit="10"/>
<path d="M153.922 213.497L169.671 240.581L180.696 210.977L153.922 213.497Z" stroke="#2ACAF7" stroke-width="0.5" stroke-miterlimit="10"/>
<path d="M140.383 202.472L153.921 213.497L172.508 194.277L140.383 202.472Z" stroke="#2ACAF7" stroke-width="0.5" stroke-miterlimit="10"/>
<path d="M140.383 202.471L168.41 176.014L172.508 194.276L140.383 202.471Z" stroke="#2ACAF7" stroke-width="0.5" stroke-miterlimit="10"/>
<path d="M153.922 213.497L180.696 210.977L172.508 194.277L153.922 213.497Z" stroke="#2ACAF7" stroke-width="0.5" stroke-miterlimit="10"/>
<path d="M168.41 176.014L172.508 194.276L200.852 178.844L168.41 176.014Z" stroke="#2ACAF7" stroke-width="0.5" stroke-miterlimit="10"/>
<path d="M168.41 176.014L177.232 151.127L200.852 178.844L168.41 176.014Z" stroke="#2ACAF7" stroke-width="0.5" stroke-miterlimit="10"/>
<path d="M172.508 194.276L180.696 210.976L200.852 178.844L172.508 194.276Z" stroke="#2ACAF7" stroke-width="0.5" stroke-miterlimit="10"/>
<path d="M177.232 151.127L195.819 140.102L204.633 162.152L177.232 151.127Z" stroke="#2ACAF7" stroke-width="0.5" stroke-miterlimit="10"/>
<path d="M177.232 151.127L200.853 178.844L204.633 162.152L177.232 151.127Z" stroke="#2ACAF7" stroke-width="0.5" stroke-miterlimit="10"/>
<path d="M195.818 140.102L228.57 155.224L204.633 162.152L195.818 140.102Z" stroke="#2ACAF7" stroke-width="0.5" stroke-miterlimit="10"/>
<path d="M200.852 178.845L204.632 162.152L229.203 188.926L200.852 178.845Z" stroke="#2ACAF7" stroke-width="0.5" stroke-miterlimit="10"/>
<path d="M204.633 162.152L228.57 155.225L229.203 188.926L204.633 162.152Z" stroke="#2ACAF7" stroke-width="0.5" stroke-miterlimit="10"/>
<path d="M228.57 155.225L258.808 174.754L229.204 188.926L228.57 155.225Z" stroke="#2ACAF7" stroke-width="0.5" stroke-miterlimit="10"/>
<path d="M229.203 188.926L258.807 174.754L253.457 192.707L229.203 188.926Z" stroke="#2ACAF7" stroke-width="0.5" stroke-miterlimit="10"/>
<path d="M258.808 174.754L279.914 203.732L253.457 192.707L258.808 174.754Z" stroke="#2ACAF7" stroke-width="0.5" stroke-miterlimit="10"/>
<path d="M253.457 192.707L279.914 203.732L261.962 213.497L253.457 192.707Z" stroke="#2ACAF7" stroke-width="0.5" stroke-miterlimit="10"/>
<path d="M279.914 203.732L296.923 230.816L276.76 235.223L279.914 203.732Z" stroke="#2ACAF7" stroke-width="0.5" stroke-miterlimit="10"/>
<path d="M296.923 230.816L298.81 255.697L276.76 235.224L296.923 230.816Z" stroke="#2ACAF7" stroke-width="0.5" stroke-miterlimit="10"/>
<path d="M261.961 213.497L279.914 203.732L276.76 235.223L261.961 213.497Z" stroke="#2ACAF7" stroke-width="0.5" stroke-miterlimit="10"/>
<path d="M276.76 235.223L298.81 255.696L273.93 258.85L276.76 235.223Z" stroke="#2ACAF7" stroke-width="0.5" stroke-miterlimit="10"/>
<path d="M298.81 255.695L306.054 285.307L281.174 274.282L298.81 255.695Z" stroke="#2ACAF7" stroke-width="0.5" stroke-miterlimit="10"/>
<path d="M300.387 295.071L306.054 285.306L281.174 274.281L300.387 295.071Z" stroke="#2ACAF7" stroke-width="0.5" stroke-miterlimit="10"/>
<path d="M269.207 307.04L300.388 295.071L281.175 274.281L269.207 307.04Z" stroke="#2ACAF7" stroke-width="0.5" stroke-miterlimit="10"/>
<path d="M273.93 258.849L298.81 255.695L281.174 274.282L273.93 258.849Z" stroke="#2ACAF7" stroke-width="0.5" stroke-miterlimit="10"/>
<path d="M240.855 305.147L248.417 303.261L258.498 281.527L240.855 305.147Z" stroke="#2ACAF7" stroke-width="0.5" stroke-miterlimit="10"/>
<path d="M248.416 303.261L257.237 305.147L258.498 281.527L248.416 303.261Z" stroke="#2ACAF7" stroke-width="0.5" stroke-miterlimit="10"/>
<path d="M257.238 305.147L266.37 307.351L258.498 281.527L257.238 305.147Z" stroke="#2ACAF7" stroke-width="0.5" stroke-miterlimit="10"/>
<path d="M266.369 307.351L269.206 307.041L258.498 281.527L266.369 307.351Z" stroke="#2ACAF7" stroke-width="0.5" stroke-miterlimit="10"/>
<path d="M269.206 307.04L281.175 274.281L258.498 281.526L269.206 307.04Z" stroke="#2ACAF7" stroke-width="0.5" stroke-miterlimit="10"/>
<path d="M273.93 258.85L281.175 274.282L258.498 281.526L273.93 258.85Z" stroke="#2ACAF7" stroke-width="0.5" stroke-miterlimit="10"/>
<path d="M218.178 306.408L227.626 305.147L219.438 282.471L218.178 306.408Z" stroke="#2ACAF7" stroke-width="0.5" stroke-miterlimit="10"/>
<path d="M227.625 305.147H240.854L219.438 282.471L227.625 305.147Z" stroke="#2ACAF7" stroke-width="0.5" stroke-miterlimit="10"/>
<path d="M240.854 305.147L258.497 281.527L219.438 282.471L240.854 305.147Z" stroke="#2ACAF7" stroke-width="0.5" stroke-miterlimit="10"/>
<path d="M181.955 295.381L194.557 307.666L196.127 287.51L181.955 295.381Z" stroke="#2ACAF7" stroke-width="0.5" stroke-miterlimit="10"/>
<path d="M194.559 307.666L208.414 312.08L196.129 287.51L194.559 307.666Z" stroke="#2ACAF7" stroke-width="0.5" stroke-miterlimit="10"/>
<path d="M208.414 312.08L218.179 306.406L196.129 287.51L208.414 312.08Z" stroke="#2ACAF7" stroke-width="0.5" stroke-miterlimit="10"/>
<path d="M218.179 306.408L219.439 282.471L196.129 287.512L218.179 306.408Z" stroke="#2ACAF7" stroke-width="0.5" stroke-miterlimit="10"/>
<path d="M152.035 259.166L169.671 240.58L187.941 259.793L152.035 259.166Z" stroke="#2ACAF7" stroke-width="0.5" stroke-miterlimit="10"/>
<path d="M169.672 240.581L180.697 210.977L191.722 231.133L169.672 240.581Z" stroke="#2ACAF7" stroke-width="0.5" stroke-miterlimit="10"/>
<path d="M169.672 240.581L187.941 259.794L191.722 231.133L169.672 240.581Z" stroke="#2ACAF7" stroke-width="0.5" stroke-miterlimit="10"/>
<path d="M180.695 210.976L191.72 231.132L210.616 196.17L180.695 210.976Z" stroke="#2ACAF7" stroke-width="0.5" stroke-miterlimit="10"/>
<path d="M180.695 210.976L200.852 178.844L210.616 196.17L180.695 210.976Z" stroke="#2ACAF7" stroke-width="0.5" stroke-miterlimit="10"/>
<path d="M191.721 231.132L220.382 220.107L210.617 196.17L191.721 231.132Z" stroke="#2ACAF7" stroke-width="0.5" stroke-miterlimit="10"/>
<path d="M200.852 178.844L229.203 188.925L210.616 196.17L200.852 178.844Z" stroke="#2ACAF7" stroke-width="0.5" stroke-miterlimit="10"/>
<path d="M220.382 220.107L229.203 188.926L210.617 196.17L220.382 220.107Z" stroke="#2ACAF7" stroke-width="0.5" stroke-miterlimit="10"/>
<path d="M220.381 220.107L229.202 188.926L240.854 217.587L220.381 220.107Z" stroke="#2ACAF7" stroke-width="0.5" stroke-miterlimit="10"/>
<path d="M229.203 188.926L253.457 192.706L240.855 217.587L229.203 188.926Z" stroke="#2ACAF7" stroke-width="0.5" stroke-miterlimit="10"/>
<path d="M253.458 192.707L261.962 213.497L240.855 217.587L253.458 192.707Z" stroke="#2ACAF7" stroke-width="0.5" stroke-miterlimit="10"/>
<path d="M219.438 282.47L258.497 281.526L243.374 251.922L219.438 282.47Z" stroke="#2ACAF7" stroke-width="0.5" stroke-miterlimit="10"/>
<path d="M220.381 220.106L240.854 217.586L243.374 251.921L220.381 220.106Z" stroke="#2ACAF7" stroke-width="0.5" stroke-miterlimit="10"/>
<path d="M240.855 217.586L261.962 213.496L243.376 251.922L240.855 217.586Z" stroke="#2ACAF7" stroke-width="0.5" stroke-miterlimit="10"/>
<path d="M258.497 281.526L273.93 258.85L243.375 251.922L258.497 281.526Z" stroke="#2ACAF7" stroke-width="0.5" stroke-miterlimit="10"/>
<path d="M261.961 213.496L276.76 235.222L243.375 251.922L261.961 213.496Z" stroke="#2ACAF7" stroke-width="0.5" stroke-miterlimit="10"/>
<path d="M273.93 258.85L276.76 235.223L243.375 251.922L273.93 258.85Z" stroke="#2ACAF7" stroke-width="0.5" stroke-miterlimit="10"/>
<path d="M187.939 259.794L191.72 231.133L212.82 250.346L187.939 259.794Z" stroke="#2ACAF7" stroke-width="0.5" stroke-miterlimit="10"/>
<path d="M191.721 231.132L220.382 220.107L212.82 250.345L191.721 231.132Z" stroke="#2ACAF7" stroke-width="0.5" stroke-miterlimit="10"/>
<path d="M220.382 220.107L243.375 251.922L212.82 250.345L220.382 220.107Z" stroke="#2ACAF7" stroke-width="0.5" stroke-miterlimit="10"/>
<path d="M187.939 259.793L196.127 287.51L213.77 264.834L187.939 259.793Z" stroke="#2ACAF7" stroke-width="0.5" stroke-miterlimit="10"/>
<path d="M187.939 259.794L212.82 250.346L213.77 264.835L187.939 259.794Z" stroke="#2ACAF7" stroke-width="0.5" stroke-miterlimit="10"/>
<path d="M196.129 287.511L219.439 282.47L213.772 264.834L196.129 287.511Z" stroke="#2ACAF7" stroke-width="0.5" stroke-miterlimit="10"/>
<path d="M212.82 250.346L243.375 251.923L213.771 264.835L212.82 250.346Z" stroke="#2ACAF7" stroke-width="0.5" stroke-miterlimit="10"/>
<path d="M219.439 282.47L243.376 251.922L213.771 264.834L219.439 282.47Z" stroke="#2ACAF7" stroke-width="0.5" stroke-miterlimit="10"/>
<path d="M150.141 277.119L152.034 259.166L177.858 276.485L150.141 277.119Z" stroke="#2ACAF7" stroke-width="0.5" stroke-miterlimit="10"/>
<path d="M150.141 277.12L157.702 291.609L177.858 276.486L150.141 277.12Z" stroke="#2ACAF7" stroke-width="0.5" stroke-miterlimit="10"/>
<path d="M152.035 259.166L187.941 259.793L177.859 276.485L152.035 259.166Z" stroke="#2ACAF7" stroke-width="0.5" stroke-miterlimit="10"/>
<path d="M157.703 291.609L181.957 295.382L177.859 276.486L157.703 291.609Z" stroke="#2ACAF7" stroke-width="0.5" stroke-miterlimit="10"/>
<path d="M181.957 295.382L196.129 287.511L177.859 276.486L181.957 295.382Z" stroke="#2ACAF7" stroke-width="0.5" stroke-miterlimit="10"/>
<path d="M187.941 259.793L196.129 287.51L177.859 276.485L187.941 259.793Z" stroke="#2ACAF7" stroke-width="0.5" stroke-miterlimit="10"/>
</g>
<defs>
<clipPath id="clip0">
<rect width="349" height="325.563" fill="white"/>
</clipPath>
</defs>
</svg>
