<svg width="349" height="214" viewBox="0 0 349 214" fill="none" xmlns="http://www.w3.org/2000/svg">
<g clip-path="url(#clip0)">
<path d="M334.113 35.7597L344.55 33.918L348.233 41.2847L334.113 35.7597Z" stroke="#2ACAF7" stroke-width="0.5" stroke-linecap="round" stroke-linejoin="round"/>
<path d="M334.113 35.7598L348.233 41.2848L343.322 51.7211L334.113 35.7598Z" stroke="#2ACAF7" stroke-width="0.5" stroke-linecap="round" stroke-linejoin="round"/>
<path d="M348.233 41.2852L348.847 45.5824L343.322 51.7214L348.233 41.2852Z" stroke="#2ACAF7" stroke-width="0.5" stroke-linecap="round" stroke-linejoin="round"/>
<path d="M334.114 35.7598L343.323 51.7211L329.203 57.86L334.114 35.7598Z" stroke="#2ACAF7" stroke-width="0.5" stroke-linecap="round" stroke-linejoin="round"/>
<path d="M339.025 58.4736L343.323 51.7207L329.203 57.8597L339.025 58.4736Z" stroke="#2ACAF7" stroke-width="0.5" stroke-linecap="round" stroke-linejoin="round"/>
<path d="M326.134 62.1586L329.203 57.8613L319.381 60.9308L326.134 62.1586Z" stroke="#2ACAF7" stroke-width="0.5" stroke-linecap="round" stroke-linejoin="round"/>
<path d="M305.875 87.9416V79.9609L298.508 95.3083L305.875 87.9416Z" stroke="#2ACAF7" stroke-width="0.5" stroke-linecap="round" stroke-linejoin="round"/>
<path d="M276.408 147.489L281.32 141.35L270.27 146.875L276.408 147.489Z" stroke="#2ACAF7" stroke-width="0.5" stroke-linecap="round" stroke-linejoin="round"/>
<path d="M281.32 141.35L283.161 131.527L270.27 146.875L281.32 141.35Z" stroke="#2ACAF7" stroke-width="0.5" stroke-linecap="round" stroke-linejoin="round"/>
<path d="M268.428 156.697L269.655 162.836L264.744 165.906L268.428 156.697Z" stroke="#2ACAF7" stroke-width="0.5" stroke-linecap="round" stroke-linejoin="round"/>
<path d="M263.517 172.045L264.744 165.906L256.764 176.342L263.517 172.045Z" stroke="#2ACAF7" stroke-width="0.5" stroke-linecap="round" stroke-linejoin="round"/>
<path d="M256.762 176.342L264.743 165.906L246.326 173.273L256.762 176.342Z" stroke="#2ACAF7" stroke-width="0.5" stroke-linecap="round" stroke-linejoin="round"/>
<path d="M234.662 185.55L240.187 180.025L229.137 181.867L234.662 185.55Z" stroke="#2ACAF7" stroke-width="0.5" stroke-linecap="round" stroke-linejoin="round"/>
<path d="M191.076 184.938L200.284 182.482L183.709 180.641L191.076 184.938Z" stroke="#2ACAF7" stroke-width="0.5" stroke-linecap="round" stroke-linejoin="round"/>
<path d="M162.837 195.374L169.59 192.305L155.471 192.919L162.837 195.374Z" stroke="#2ACAF7" stroke-width="0.5" stroke-linecap="round" stroke-linejoin="round"/>
<path d="M138.894 202.741L148.717 198.443L133.369 200.899L138.894 202.741Z" stroke="#2ACAF7" stroke-width="0.5" stroke-linecap="round" stroke-linejoin="round"/>
<path d="M0.154297 123.547L9.36274 124.161V113.725L0.154297 123.547Z" stroke="#2ACAF7" stroke-width="0.5" stroke-linecap="round" stroke-linejoin="round"/>
<path d="M9.36328 124.161V113.725L21.0273 116.794L9.36328 124.161Z" stroke="#2ACAF7" stroke-width="0.5" stroke-linecap="round" stroke-linejoin="round"/>
<path d="M9.36328 124.162L9.97718 131.528L21.0273 116.795L9.36328 124.162Z" stroke="#2ACAF7" stroke-width="0.5" stroke-linecap="round" stroke-linejoin="round"/>
<path d="M9.97656 131.528L13.6599 141.965L21.0267 116.795L9.97656 131.528Z" stroke="#2ACAF7" stroke-width="0.5" stroke-linecap="round" stroke-linejoin="round"/>
<path d="M17.3438 97.7634L21.0271 102.061L21.641 92.2383L17.3438 97.7634Z" stroke="#2ACAF7" stroke-width="0.5" stroke-linecap="round" stroke-linejoin="round"/>
<path d="M21.6406 92.2389V85.486L32.0769 79.9609L21.6406 92.2389Z" stroke="#2ACAF7" stroke-width="0.5" stroke-linecap="round" stroke-linejoin="round"/>
<path d="M32.0773 79.9602L33.3051 73.8212L29.0078 67.0684L32.0773 79.9602Z" stroke="#2ACAF7" stroke-width="0.5" stroke-linecap="round" stroke-linejoin="round"/>
<path d="M19.7988 63.9997L29.0073 67.0692L27.7795 58.4746L19.7988 63.9997Z" stroke="#2ACAF7" stroke-width="0.5" stroke-linecap="round" stroke-linejoin="round"/>
<path d="M27.7793 58.4746L29.0071 67.0692L37.6016 65.2275L27.7793 58.4746Z" stroke="#2ACAF7" stroke-width="0.5" stroke-linecap="round" stroke-linejoin="round"/>
<path d="M29.0078 67.0683L33.3051 73.8211L37.6024 65.2266L29.0078 67.0683Z" stroke="#2ACAF7" stroke-width="0.5" stroke-linecap="round" stroke-linejoin="round"/>
<path d="M50.4941 51.1081L59.0887 40.6719L67.6832 42.5136L50.4941 51.1081Z" stroke="#2ACAF7" stroke-width="0.5" stroke-linecap="round" stroke-linejoin="round"/>
<path d="M50.4941 51.108L52.3358 61.5443L74.4361 50.4941L50.4941 51.108Z" stroke="#2ACAF7" stroke-width="0.5" stroke-linecap="round" stroke-linejoin="round"/>
<path d="M50.4941 51.1082L67.6832 42.5137L74.4361 50.4943L50.4941 51.1082Z" stroke="#2ACAF7" stroke-width="0.5" stroke-linecap="round" stroke-linejoin="round"/>
<path d="M138.281 50.4936L145.034 56.6326L141.965 41.2852L138.281 50.4936Z" stroke="#2ACAF7" stroke-width="0.5" stroke-linecap="round" stroke-linejoin="round"/>
<path d="M141.965 41.2857L145.034 56.6331L153.015 38.8301L141.965 41.2857Z" stroke="#2ACAF7" stroke-width="0.5" stroke-linecap="round" stroke-linejoin="round"/>
<path d="M141.965 41.2862L146.262 36.375L153.015 38.8306L141.965 41.2862Z" stroke="#2ACAF7" stroke-width="0.5" stroke-linecap="round" stroke-linejoin="round"/>
<path d="M145.033 56.6331L153.014 38.8301L164.064 40.0579L145.033 56.6331Z" stroke="#2ACAF7" stroke-width="0.5" stroke-linecap="round" stroke-linejoin="round"/>
<path d="M175.115 36.989L182.482 26.5527L194.146 30.85L175.115 36.989Z" stroke="#2ACAF7" stroke-width="0.5" stroke-linecap="round" stroke-linejoin="round"/>
<path d="M259.219 5.67875L275.18 0.767578L284.388 9.97602L259.219 5.67875Z" stroke="#2ACAF7" stroke-width="0.5" stroke-linecap="round" stroke-linejoin="round"/>
<path d="M316.312 11.8184L321.837 22.8685L303.42 15.5017L316.312 11.8184Z" stroke="#2ACAF7" stroke-width="0.5" stroke-linecap="round" stroke-linejoin="round"/>
<path d="M319.381 60.9298L329.203 57.8604L322.45 41.2852L319.381 60.9298Z" stroke="#2ACAF7" stroke-width="0.5" stroke-linecap="round" stroke-linejoin="round"/>
<path d="M321.836 22.8691L329.203 24.0969L322.45 41.286L321.836 22.8691Z" stroke="#2ACAF7" stroke-width="0.5" stroke-linecap="round" stroke-linejoin="round"/>
<path d="M329.202 57.86L334.113 35.7598L322.449 41.2848L329.202 57.86Z" stroke="#2ACAF7" stroke-width="0.5" stroke-linecap="round" stroke-linejoin="round"/>
<path d="M329.202 24.0957L334.113 35.7597L322.449 41.2848L329.202 24.0957Z" stroke="#2ACAF7" stroke-width="0.5" stroke-linecap="round" stroke-linejoin="round"/>
<path d="M291.756 17.9575L303.42 15.502L302.806 29.6216L291.756 17.9575Z" stroke="#2ACAF7" stroke-width="0.5" stroke-linecap="round" stroke-linejoin="round"/>
<path d="M303.419 15.502L321.835 22.8687L302.805 29.6216L303.419 15.502Z" stroke="#2ACAF7" stroke-width="0.5" stroke-linecap="round" stroke-linejoin="round"/>
<path d="M321.835 22.8691L322.449 41.286L302.805 29.622L321.835 22.8691Z" stroke="#2ACAF7" stroke-width="0.5" stroke-linecap="round" stroke-linejoin="round"/>
<path d="M291.756 17.957L302.806 29.6211L292.984 46.1963L291.756 17.957Z" stroke="#2ACAF7" stroke-width="0.5" stroke-linecap="round" stroke-linejoin="round"/>
<path d="M302.805 29.6211L322.449 41.2851L292.982 46.1963L302.805 29.6211Z" stroke="#2ACAF7" stroke-width="0.5" stroke-linecap="round" stroke-linejoin="round"/>
<path d="M292.982 46.1963L322.449 41.2852L304.033 62.7715L292.982 46.1963Z" stroke="#2ACAF7" stroke-width="0.5" stroke-linecap="round" stroke-linejoin="round"/>
<path d="M305.875 79.9606L312.628 73.8216L304.033 62.7715L305.875 79.9606Z" stroke="#2ACAF7" stroke-width="0.5" stroke-linecap="round" stroke-linejoin="round"/>
<path d="M312.628 73.8215L319.381 60.9297L304.033 62.7714L312.628 73.8215Z" stroke="#2ACAF7" stroke-width="0.5" stroke-linecap="round" stroke-linejoin="round"/>
<path d="M319.381 60.9298L322.45 41.2852L304.033 62.7715L319.381 60.9298Z" stroke="#2ACAF7" stroke-width="0.5" stroke-linecap="round" stroke-linejoin="round"/>
<path d="M292.982 46.1973L304.033 62.7725L283.16 72.5948L292.982 46.1973Z" stroke="#2ACAF7" stroke-width="0.5" stroke-linecap="round" stroke-linejoin="round"/>
<path d="M298.508 95.3079L305.874 79.9605L283.16 72.5938L298.508 95.3079Z" stroke="#2ACAF7" stroke-width="0.5" stroke-linecap="round" stroke-linejoin="round"/>
<path d="M304.033 62.7715L305.874 79.9606L283.16 72.5938L304.033 62.7715Z" stroke="#2ACAF7" stroke-width="0.5" stroke-linecap="round" stroke-linejoin="round"/>
<path d="M259.219 5.67969L284.388 9.97696L264.744 29.6216L259.219 5.67969Z" stroke="#2ACAF7" stroke-width="0.5" stroke-linecap="round" stroke-linejoin="round"/>
<path d="M284.389 9.97656L291.756 17.9572L264.744 29.6212L284.389 9.97656Z" stroke="#2ACAF7" stroke-width="0.5" stroke-linecap="round" stroke-linejoin="round"/>
<path d="M264.744 29.6211L291.756 17.957L270.883 45.5824L264.744 29.6211Z" stroke="#2ACAF7" stroke-width="0.5" stroke-linecap="round" stroke-linejoin="round"/>
<path d="M291.755 17.957L292.983 46.1963L270.883 45.5824L291.755 17.957Z" stroke="#2ACAF7" stroke-width="0.5" stroke-linecap="round" stroke-linejoin="round"/>
<path d="M219.314 24.0957L223.612 12.4316L245.712 19.7984L219.314 24.0957Z" stroke="#2ACAF7" stroke-width="0.5" stroke-linecap="round" stroke-linejoin="round"/>
<path d="M223.613 12.4331L229.138 3.22461L245.714 19.7998L223.613 12.4331Z" stroke="#2ACAF7" stroke-width="0.5" stroke-linecap="round" stroke-linejoin="round"/>
<path d="M229.137 3.2245L237.731 1.38281L245.712 19.7997L229.137 3.2245Z" stroke="#2ACAF7" stroke-width="0.5" stroke-linecap="round" stroke-linejoin="round"/>
<path d="M237.732 1.38209L245.713 0.154297V19.799L237.732 1.38209Z" stroke="#2ACAF7" stroke-width="0.5" stroke-linecap="round" stroke-linejoin="round"/>
<path d="M245.713 0.154297L259.219 5.67936L245.713 19.799V0.154297Z" stroke="#2ACAF7" stroke-width="0.5" stroke-linecap="round" stroke-linejoin="round"/>
<path d="M259.219 5.67969L264.744 29.6216L245.713 19.7993L259.219 5.67969Z" stroke="#2ACAF7" stroke-width="0.5" stroke-linecap="round" stroke-linejoin="round"/>
<path d="M219.314 24.0961L245.712 19.7988L239.573 43.7408L219.314 24.0961Z" stroke="#2ACAF7" stroke-width="0.5" stroke-linecap="round" stroke-linejoin="round"/>
<path d="M245.713 19.7988L264.744 29.6212L239.574 43.7408L245.713 19.7988Z" stroke="#2ACAF7" stroke-width="0.5" stroke-linecap="round" stroke-linejoin="round"/>
<path d="M264.744 29.6211L270.883 45.5824L239.574 43.7407L264.744 29.6211Z" stroke="#2ACAF7" stroke-width="0.5" stroke-linecap="round" stroke-linejoin="round"/>
<path d="M270.883 45.582L292.983 46.1959L270.883 64.6128V45.582Z" stroke="#2ACAF7" stroke-width="0.5" stroke-linecap="round" stroke-linejoin="round"/>
<path d="M283.161 72.5948L292.983 46.1973L270.883 64.6142L283.161 72.5948Z" stroke="#2ACAF7" stroke-width="0.5" stroke-linecap="round" stroke-linejoin="round"/>
<path d="M239.574 43.7402L270.883 45.5819L246.327 65.2266L239.574 43.7402Z" stroke="#2ACAF7" stroke-width="0.5" stroke-linecap="round" stroke-linejoin="round"/>
<path d="M270.882 64.6128V45.582L246.326 65.2267L270.882 64.6128Z" stroke="#2ACAF7" stroke-width="0.5" stroke-linecap="round" stroke-linejoin="round"/>
<path d="M199.67 34.532L209.492 25.9375L215.017 48.6517L199.67 34.532Z" stroke="#2ACAF7" stroke-width="0.5" stroke-linecap="round" stroke-linejoin="round"/>
<path d="M209.492 25.9374L219.315 24.0957L215.017 48.6515L209.492 25.9374Z" stroke="#2ACAF7" stroke-width="0.5" stroke-linecap="round" stroke-linejoin="round"/>
<path d="M219.315 24.0957L239.573 43.7404L215.018 48.6515L219.315 24.0957Z" stroke="#2ACAF7" stroke-width="0.5" stroke-linecap="round" stroke-linejoin="round"/>
<path d="M215.018 48.6514L239.573 43.7402L218.701 70.1378L215.018 48.6514Z" stroke="#2ACAF7" stroke-width="0.5" stroke-linecap="round" stroke-linejoin="round"/>
<path d="M239.574 43.7402L246.327 65.2266L218.701 70.1378L239.574 43.7402Z" stroke="#2ACAF7" stroke-width="0.5" stroke-linecap="round" stroke-linejoin="round"/>
<path d="M218.701 70.1377L246.327 65.2266L240.188 86.7129L218.701 70.1377Z" stroke="#2ACAF7" stroke-width="0.5" stroke-linecap="round" stroke-linejoin="round"/>
<path d="M240.188 86.7129L246.326 65.2266L264.129 92.238L240.188 86.7129Z" stroke="#2ACAF7" stroke-width="0.5" stroke-linecap="round" stroke-linejoin="round"/>
<path d="M246.326 65.2272L270.882 64.6133L264.129 92.2386L246.326 65.2272Z" stroke="#2ACAF7" stroke-width="0.5" stroke-linecap="round" stroke-linejoin="round"/>
<path d="M270.882 64.6133L283.16 72.5939L264.129 92.2386L270.882 64.6133Z" stroke="#2ACAF7" stroke-width="0.5" stroke-linecap="round" stroke-linejoin="round"/>
<path d="M283.16 72.5938L298.507 95.3079L264.129 92.2384L283.16 72.5938Z" stroke="#2ACAF7" stroke-width="0.5" stroke-linecap="round" stroke-linejoin="round"/>
<path d="M297.279 105.13L298.507 95.3078L264.129 92.2383L297.279 105.13Z" stroke="#2ACAF7" stroke-width="0.5" stroke-linecap="round" stroke-linejoin="round"/>
<path d="M264.129 92.2383L297.279 105.13L273.337 114.339L264.129 92.2383Z" stroke="#2ACAF7" stroke-width="0.5" stroke-linecap="round" stroke-linejoin="round"/>
<path d="M283.16 131.529L288.685 121.707L273.338 114.34L283.16 131.529Z" stroke="#2ACAF7" stroke-width="0.5" stroke-linecap="round" stroke-linejoin="round"/>
<path d="M288.071 114.954L288.685 121.707L273.338 114.34L288.071 114.954Z" stroke="#2ACAF7" stroke-width="0.5" stroke-linecap="round" stroke-linejoin="round"/>
<path d="M288.071 114.953L297.28 105.131L273.338 114.339L288.071 114.953Z" stroke="#2ACAF7" stroke-width="0.5" stroke-linecap="round" stroke-linejoin="round"/>
<path d="M264.129 92.2383L273.338 114.339L259.832 123.547L264.129 92.2383Z" stroke="#2ACAF7" stroke-width="0.5" stroke-linecap="round" stroke-linejoin="round"/>
<path d="M270.268 146.875L283.16 131.528L259.832 123.547L270.268 146.875Z" stroke="#2ACAF7" stroke-width="0.5" stroke-linecap="round" stroke-linejoin="round"/>
<path d="M273.338 114.34L283.16 131.529L259.832 123.548L273.338 114.34Z" stroke="#2ACAF7" stroke-width="0.5" stroke-linecap="round" stroke-linejoin="round"/>
<path d="M246.326 173.273L264.743 165.906L251.237 146.875L246.326 173.273Z" stroke="#2ACAF7" stroke-width="0.5" stroke-linecap="round" stroke-linejoin="round"/>
<path d="M259.833 123.547L270.269 146.875H251.238L259.833 123.547Z" stroke="#2ACAF7" stroke-width="0.5" stroke-linecap="round" stroke-linejoin="round"/>
<path d="M264.744 165.906L268.427 156.697L251.238 146.875L264.744 165.906Z" stroke="#2ACAF7" stroke-width="0.5" stroke-linecap="round" stroke-linejoin="round"/>
<path d="M268.427 156.697L270.269 146.875H251.238L268.427 156.697Z" stroke="#2ACAF7" stroke-width="0.5" stroke-linecap="round" stroke-linejoin="round"/>
<path d="M229.137 181.868L240.187 180.026L231.592 156.084L229.137 181.868Z" stroke="#2ACAF7" stroke-width="0.5" stroke-linecap="round" stroke-linejoin="round"/>
<path d="M240.188 180.026L246.327 173.273L231.594 156.084L240.188 180.026Z" stroke="#2ACAF7" stroke-width="0.5" stroke-linecap="round" stroke-linejoin="round"/>
<path d="M246.327 173.273L251.238 146.875L231.594 156.083L246.327 173.273Z" stroke="#2ACAF7" stroke-width="0.5" stroke-linecap="round" stroke-linejoin="round"/>
<path d="M200.285 182.481L204.582 183.708L205.196 162.836L200.285 182.481Z" stroke="#2ACAF7" stroke-width="0.5" stroke-linecap="round" stroke-linejoin="round"/>
<path d="M204.582 183.708L213.79 185.55L205.196 162.836L204.582 183.708Z" stroke="#2ACAF7" stroke-width="0.5" stroke-linecap="round" stroke-linejoin="round"/>
<path d="M213.79 185.55L229.137 181.867L205.195 162.836L213.79 185.55Z" stroke="#2ACAF7" stroke-width="0.5" stroke-linecap="round" stroke-linejoin="round"/>
<path d="M229.137 181.868L231.593 156.084L205.195 162.837L229.137 181.868Z" stroke="#2ACAF7" stroke-width="0.5" stroke-linecap="round" stroke-linejoin="round"/>
<path d="M205.195 162.837L231.593 156.084L214.404 138.281L205.195 162.837Z" stroke="#2ACAF7" stroke-width="0.5" stroke-linecap="round" stroke-linejoin="round"/>
<path d="M214.404 138.282L231.593 156.085L234.049 132.143L214.404 138.282Z" stroke="#2ACAF7" stroke-width="0.5" stroke-linecap="round" stroke-linejoin="round"/>
<path d="M231.594 156.085L251.238 146.876L234.049 132.143L231.594 156.085Z" stroke="#2ACAF7" stroke-width="0.5" stroke-linecap="round" stroke-linejoin="round"/>
<path d="M251.238 146.875L259.832 123.547L234.049 132.141L251.238 146.875Z" stroke="#2ACAF7" stroke-width="0.5" stroke-linecap="round" stroke-linejoin="round"/>
<path d="M234.049 132.142L259.832 123.548L240.802 103.289L234.049 132.142Z" stroke="#2ACAF7" stroke-width="0.5" stroke-linecap="round" stroke-linejoin="round"/>
<path d="M240.188 86.7129L264.129 92.238L240.801 103.288L240.188 86.7129Z" stroke="#2ACAF7" stroke-width="0.5" stroke-linecap="round" stroke-linejoin="round"/>
<path d="M259.832 123.547L264.129 92.2383L240.801 103.288L259.832 123.547Z" stroke="#2ACAF7" stroke-width="0.5" stroke-linecap="round" stroke-linejoin="round"/>
<path d="M214.404 138.281L234.049 132.142L222.999 109.428L214.404 138.281Z" stroke="#2ACAF7" stroke-width="0.5" stroke-linecap="round" stroke-linejoin="round"/>
<path d="M234.048 132.142L240.801 103.289L222.998 109.428L234.048 132.142Z" stroke="#2ACAF7" stroke-width="0.5" stroke-linecap="round" stroke-linejoin="round"/>
<path d="M240.187 86.7129L240.801 103.288L222.998 109.427L240.187 86.7129Z" stroke="#2ACAF7" stroke-width="0.5" stroke-linecap="round" stroke-linejoin="round"/>
<path d="M218.702 70.1387L240.189 86.7139L203.969 84.8722L218.702 70.1387Z" stroke="#2ACAF7" stroke-width="0.5" stroke-linecap="round" stroke-linejoin="round"/>
<path d="M223 109.427L240.189 86.7128L203.969 84.8711L223 109.427Z" stroke="#2ACAF7" stroke-width="0.5" stroke-linecap="round" stroke-linejoin="round"/>
<path d="M203.967 84.8711L218.701 70.1376L195.986 63.3848L203.967 84.8711Z" stroke="#2ACAF7" stroke-width="0.5" stroke-linecap="round" stroke-linejoin="round"/>
<path d="M215.017 48.6523L218.701 70.1387L195.986 63.3859L215.017 48.6523Z" stroke="#2ACAF7" stroke-width="0.5" stroke-linecap="round" stroke-linejoin="round"/>
<path d="M164.064 40.0578L175.115 36.9883L186.165 48.6523L164.064 40.0578Z" stroke="#2ACAF7" stroke-width="0.5" stroke-linecap="round" stroke-linejoin="round"/>
<path d="M175.115 36.9886L194.146 30.8496L186.165 48.6526L175.115 36.9886Z" stroke="#2ACAF7" stroke-width="0.5" stroke-linecap="round" stroke-linejoin="round"/>
<path d="M194.145 30.8496L199.67 34.533L186.164 48.6526L194.145 30.8496Z" stroke="#2ACAF7" stroke-width="0.5" stroke-linecap="round" stroke-linejoin="round"/>
<path d="M195.986 63.3859L215.017 48.6523H186.164L195.986 63.3859Z" stroke="#2ACAF7" stroke-width="0.5" stroke-linecap="round" stroke-linejoin="round"/>
<path d="M199.67 34.5332L215.017 48.6528H186.164L199.67 34.5332Z" stroke="#2ACAF7" stroke-width="0.5" stroke-linecap="round" stroke-linejoin="round"/>
<path d="M145.033 56.6318L164.064 40.0566L164.678 64.6125L145.033 56.6318Z" stroke="#2ACAF7" stroke-width="0.5" stroke-linecap="round" stroke-linejoin="round"/>
<path d="M164.064 40.0566L186.165 48.6512L164.678 64.6125L164.064 40.0566Z" stroke="#2ACAF7" stroke-width="0.5" stroke-linecap="round" stroke-linejoin="round"/>
<path d="M186.164 48.6523L195.986 63.3859L164.678 64.6137L186.164 48.6523Z" stroke="#2ACAF7" stroke-width="0.5" stroke-linecap="round" stroke-linejoin="round"/>
<path d="M133.369 62.1579L145.033 56.6328L149.33 75.0497L133.369 62.1579Z" stroke="#2ACAF7" stroke-width="0.5" stroke-linecap="round" stroke-linejoin="round"/>
<path d="M145.033 56.6328L164.678 64.6135L149.33 75.0497L145.033 56.6328Z" stroke="#2ACAF7" stroke-width="0.5" stroke-linecap="round" stroke-linejoin="round"/>
<path d="M117.408 62.1582H133.369L119.864 82.4168L117.408 62.1582Z" stroke="#2ACAF7" stroke-width="0.5" stroke-linecap="round" stroke-linejoin="round"/>
<path d="M133.369 62.1582L149.33 75.05L119.863 82.4168L133.369 62.1582Z" stroke="#2ACAF7" stroke-width="0.5" stroke-linecap="round" stroke-linejoin="round"/>
<path d="M149.332 75.0495L164.679 64.6133L164.066 96.5359L149.332 75.0495Z" stroke="#2ACAF7" stroke-width="0.5" stroke-linecap="round" stroke-linejoin="round"/>
<path d="M164.064 96.5359L164.678 64.6133L184.937 86.0996L164.064 96.5359Z" stroke="#2ACAF7" stroke-width="0.5" stroke-linecap="round" stroke-linejoin="round"/>
<path d="M164.678 64.6126L195.986 63.3848L184.936 86.0989L164.678 64.6126Z" stroke="#2ACAF7" stroke-width="0.5" stroke-linecap="round" stroke-linejoin="round"/>
<path d="M195.988 63.3848L203.968 84.8711L184.938 86.0989L195.988 63.3848Z" stroke="#2ACAF7" stroke-width="0.5" stroke-linecap="round" stroke-linejoin="round"/>
<path d="M164.064 96.5358L184.937 86.0996L192.918 114.953L164.064 96.5358Z" stroke="#2ACAF7" stroke-width="0.5" stroke-linecap="round" stroke-linejoin="round"/>
<path d="M184.938 86.0989L203.968 84.8711L192.918 114.952L184.938 86.0989Z" stroke="#2ACAF7" stroke-width="0.5" stroke-linecap="round" stroke-linejoin="round"/>
<path d="M203.968 84.8711L222.999 109.427L192.918 114.952L203.968 84.8711Z" stroke="#2ACAF7" stroke-width="0.5" stroke-linecap="round" stroke-linejoin="round"/>
<path d="M214.404 138.281L222.999 109.428L192.918 114.953L214.404 138.281Z" stroke="#2ACAF7" stroke-width="0.5" stroke-linecap="round" stroke-linejoin="round"/>
<path d="M192.918 114.953L214.405 138.281L184.938 140.123L192.918 114.953Z" stroke="#2ACAF7" stroke-width="0.5" stroke-linecap="round" stroke-linejoin="round"/>
<path d="M205.196 162.837L214.405 138.281L184.938 140.123L205.196 162.837Z" stroke="#2ACAF7" stroke-width="0.5" stroke-linecap="round" stroke-linejoin="round"/>
<path d="M176.957 184.324L183.71 180.641L183.096 160.996L176.957 184.324Z" stroke="#2ACAF7" stroke-width="0.5" stroke-linecap="round" stroke-linejoin="round"/>
<path d="M183.71 180.641L200.285 182.482L183.096 160.996L183.71 180.641Z" stroke="#2ACAF7" stroke-width="0.5" stroke-linecap="round" stroke-linejoin="round"/>
<path d="M184.937 140.123L205.196 162.837L183.096 160.996L184.937 140.123Z" stroke="#2ACAF7" stroke-width="0.5" stroke-linecap="round" stroke-linejoin="round"/>
<path d="M200.285 182.482L205.196 162.838L183.096 160.996L200.285 182.482Z" stroke="#2ACAF7" stroke-width="0.5" stroke-linecap="round" stroke-linejoin="round"/>
<path d="M155.471 192.918L169.59 192.304L159.154 169.59L155.471 192.918Z" stroke="#2ACAF7" stroke-width="0.5" stroke-linecap="round" stroke-linejoin="round"/>
<path d="M169.591 192.304L176.957 184.323L159.154 169.59L169.591 192.304Z" stroke="#2ACAF7" stroke-width="0.5" stroke-linecap="round" stroke-linejoin="round"/>
<path d="M176.957 184.324L183.096 160.996L159.154 169.591L176.957 184.324Z" stroke="#2ACAF7" stroke-width="0.5" stroke-linecap="round" stroke-linejoin="round"/>
<path d="M133.369 200.898L148.717 198.442L136.439 180.025L133.369 200.898Z" stroke="#2ACAF7" stroke-width="0.5" stroke-linecap="round" stroke-linejoin="round"/>
<path d="M148.717 198.442L155.47 192.917L136.439 180.025L148.717 198.442Z" stroke="#2ACAF7" stroke-width="0.5" stroke-linecap="round" stroke-linejoin="round"/>
<path d="M155.47 192.918L159.154 169.59L136.439 180.026L155.47 192.918Z" stroke="#2ACAF7" stroke-width="0.5" stroke-linecap="round" stroke-linejoin="round"/>
<path d="M100.219 209.494L108.199 211.335L109.427 190.463L100.219 209.494Z" stroke="#2ACAF7" stroke-width="0.5" stroke-linecap="round" stroke-linejoin="round"/>
<path d="M108.199 211.335L116.794 213.177L109.427 190.463L108.199 211.335Z" stroke="#2ACAF7" stroke-width="0.5" stroke-linecap="round" stroke-linejoin="round"/>
<path d="M116.794 213.177L124.775 209.494L109.428 190.463L116.794 213.177Z" stroke="#2ACAF7" stroke-width="0.5" stroke-linecap="round" stroke-linejoin="round"/>
<path d="M124.775 209.494L133.37 200.899L109.428 190.463L124.775 209.494Z" stroke="#2ACAF7" stroke-width="0.5" stroke-linecap="round" stroke-linejoin="round"/>
<path d="M133.37 200.898L136.439 180.025L109.428 190.462L133.37 200.898Z" stroke="#2ACAF7" stroke-width="0.5" stroke-linecap="round" stroke-linejoin="round"/>
<path d="M66.4551 195.373L73.8218 198.442L83.0303 188.006L66.4551 195.373Z" stroke="#2ACAF7" stroke-width="0.5" stroke-linecap="round" stroke-linejoin="round"/>
<path d="M73.8223 198.442L78.1195 205.195L83.0307 188.006L73.8223 198.442Z" stroke="#2ACAF7" stroke-width="0.5" stroke-linecap="round" stroke-linejoin="round"/>
<path d="M78.1191 205.195L87.3276 210.106L83.0303 188.006L78.1191 205.195Z" stroke="#2ACAF7" stroke-width="0.5" stroke-linecap="round" stroke-linejoin="round"/>
<path d="M87.3285 210.106L100.22 209.492L83.0312 188.006L87.3285 210.106Z" stroke="#2ACAF7" stroke-width="0.5" stroke-linecap="round" stroke-linejoin="round"/>
<path d="M100.22 209.492L109.429 190.461L83.0312 188.006L100.22 209.492Z" stroke="#2ACAF7" stroke-width="0.5" stroke-linecap="round" stroke-linejoin="round"/>
<path d="M83.0312 188.007L109.429 190.462L94.0814 167.748L83.0312 188.007Z" stroke="#2ACAF7" stroke-width="0.5" stroke-linecap="round" stroke-linejoin="round"/>
<path d="M94.0801 167.749L109.427 190.463L119.25 160.996L94.0801 167.749Z" stroke="#2ACAF7" stroke-width="0.5" stroke-linecap="round" stroke-linejoin="round"/>
<path d="M109.428 190.463L136.439 180.027L119.25 160.996L109.428 190.463Z" stroke="#2ACAF7" stroke-width="0.5" stroke-linecap="round" stroke-linejoin="round"/>
<path d="M119.25 160.994L136.439 180.025L138.895 139.508L119.25 160.994Z" stroke="#2ACAF7" stroke-width="0.5" stroke-linecap="round" stroke-linejoin="round"/>
<path d="M136.439 180.025L159.154 169.589L138.895 139.508L136.439 180.025Z" stroke="#2ACAF7" stroke-width="0.5" stroke-linecap="round" stroke-linejoin="round"/>
<path d="M138.895 139.51L159.153 169.591L162.223 137.668L138.895 139.51Z" stroke="#2ACAF7" stroke-width="0.5" stroke-linecap="round" stroke-linejoin="round"/>
<path d="M159.154 169.591L183.096 160.996L162.224 137.668L159.154 169.591Z" stroke="#2ACAF7" stroke-width="0.5" stroke-linecap="round" stroke-linejoin="round"/>
<path d="M164.064 96.5352L192.917 114.952L162.223 137.666L164.064 96.5352Z" stroke="#2ACAF7" stroke-width="0.5" stroke-linecap="round" stroke-linejoin="round"/>
<path d="M183.095 160.996L184.937 140.124L162.223 137.668L183.095 160.996Z" stroke="#2ACAF7" stroke-width="0.5" stroke-linecap="round" stroke-linejoin="round"/>
<path d="M184.937 140.123L192.917 114.953L162.223 137.667L184.937 140.123Z" stroke="#2ACAF7" stroke-width="0.5" stroke-linecap="round" stroke-linejoin="round"/>
<path d="M138.895 139.509L162.223 137.667L147.489 114.953L138.895 139.509Z" stroke="#2ACAF7" stroke-width="0.5" stroke-linecap="round" stroke-linejoin="round"/>
<path d="M162.224 137.666L164.065 96.5352L147.49 114.952L162.224 137.666Z" stroke="#2ACAF7" stroke-width="0.5" stroke-linecap="round" stroke-linejoin="round"/>
<path d="M119.863 82.4156L149.33 75.0488L127.23 102.06L119.863 82.4156Z" stroke="#2ACAF7" stroke-width="0.5" stroke-linecap="round" stroke-linejoin="round"/>
<path d="M147.489 114.952L164.064 96.5352L127.23 102.06L147.489 114.952Z" stroke="#2ACAF7" stroke-width="0.5" stroke-linecap="round" stroke-linejoin="round"/>
<path d="M149.331 75.0488L164.064 96.5352L127.23 102.06L149.331 75.0488Z" stroke="#2ACAF7" stroke-width="0.5" stroke-linecap="round" stroke-linejoin="round"/>
<path d="M84.8711 59.0879L102.06 61.5435L97.7629 75.0492L84.8711 59.0879Z" stroke="#2ACAF7" stroke-width="0.5" stroke-linecap="round" stroke-linejoin="round"/>
<path d="M102.061 61.543L117.408 62.1569L97.7637 75.0487L102.061 61.543Z" stroke="#2ACAF7" stroke-width="0.5" stroke-linecap="round" stroke-linejoin="round"/>
<path d="M117.408 62.1582L119.864 82.4168L97.7637 75.05L117.408 62.1582Z" stroke="#2ACAF7" stroke-width="0.5" stroke-linecap="round" stroke-linejoin="round"/>
<path d="M52.3359 61.5443L74.4362 50.4941L70.7528 70.7527L52.3359 61.5443Z" stroke="#2ACAF7" stroke-width="0.5" stroke-linecap="round" stroke-linejoin="round"/>
<path d="M74.4353 50.4941L84.8716 59.0887L70.752 70.7527L74.4353 50.4941Z" stroke="#2ACAF7" stroke-width="0.5" stroke-linecap="round" stroke-linejoin="round"/>
<path d="M84.8716 59.0879L97.7634 75.0492L70.752 70.7519L84.8716 59.0879Z" stroke="#2ACAF7" stroke-width="0.5" stroke-linecap="round" stroke-linejoin="round"/>
<path d="M32.0762 79.9612L33.304 73.8223L49.8792 89.1697L32.0762 79.9612Z" stroke="#2ACAF7" stroke-width="0.5" stroke-linecap="round" stroke-linejoin="round"/>
<path d="M33.3047 73.8211L37.602 65.2266L49.8799 89.1685L33.3047 73.8211Z" stroke="#2ACAF7" stroke-width="0.5" stroke-linecap="round" stroke-linejoin="round"/>
<path d="M37.6016 65.2263L52.3351 61.543L49.8795 89.1683L37.6016 65.2263Z" stroke="#2ACAF7" stroke-width="0.5" stroke-linecap="round" stroke-linejoin="round"/>
<path d="M52.3364 61.543L70.7533 70.7514L49.8809 89.1683L52.3364 61.543Z" stroke="#2ACAF7" stroke-width="0.5" stroke-linecap="round" stroke-linejoin="round"/>
<path d="M21.0273 102.061V116.794L32.0775 107.586L21.0273 102.061Z" stroke="#2ACAF7" stroke-width="0.5" stroke-linecap="round" stroke-linejoin="round"/>
<path d="M21.0273 102.061L21.6412 92.2383L32.0775 107.586L21.0273 102.061Z" stroke="#2ACAF7" stroke-width="0.5" stroke-linecap="round" stroke-linejoin="round"/>
<path d="M21.6406 92.2389L32.0769 79.9609V107.586L21.6406 92.2389Z" stroke="#2ACAF7" stroke-width="0.5" stroke-linecap="round" stroke-linejoin="round"/>
<path d="M32.0762 79.9609L49.8792 89.1694L32.0762 107.586V79.9609Z" stroke="#2ACAF7" stroke-width="0.5" stroke-linecap="round" stroke-linejoin="round"/>
<path d="M21.0273 116.794L32.0775 107.586L48.6527 132.142L21.0273 116.794Z" stroke="#2ACAF7" stroke-width="0.5" stroke-linecap="round" stroke-linejoin="round"/>
<path d="M13.6602 141.965L19.7991 148.104L33.9187 146.876L13.6602 141.965Z" stroke="#2ACAF7" stroke-width="0.5" stroke-linecap="round" stroke-linejoin="round"/>
<path d="M13.6602 141.965L21.0269 116.795L33.9187 146.876L13.6602 141.965Z" stroke="#2ACAF7" stroke-width="0.5" stroke-linecap="round" stroke-linejoin="round"/>
<path d="M19.7988 148.103L25.3239 154.856L33.9184 146.875L19.7988 148.103Z" stroke="#2ACAF7" stroke-width="0.5" stroke-linecap="round" stroke-linejoin="round"/>
<path d="M21.0273 116.795L48.6527 132.142L33.9192 146.876L21.0273 116.795Z" stroke="#2ACAF7" stroke-width="0.5" stroke-linecap="round" stroke-linejoin="round"/>
<path d="M25.3242 154.856L33.9188 160.381V146.875L25.3242 154.856Z" stroke="#2ACAF7" stroke-width="0.5" stroke-linecap="round" stroke-linejoin="round"/>
<path d="M32.0762 107.586L48.6514 132.142L59.0876 108.814L32.0762 107.586Z" stroke="#2ACAF7" stroke-width="0.5" stroke-linecap="round" stroke-linejoin="round"/>
<path d="M32.0762 107.587L49.8792 89.1699L59.0876 108.815L32.0762 107.587Z" stroke="#2ACAF7" stroke-width="0.5" stroke-linecap="round" stroke-linejoin="round"/>
<path d="M49.8809 89.1699L59.0893 108.815L76.8923 95.9228L49.8809 89.1699Z" stroke="#2ACAF7" stroke-width="0.5" stroke-linecap="round" stroke-linejoin="round"/>
<path d="M49.8809 89.1688L70.7533 70.752L76.8923 95.9217L49.8809 89.1688Z" stroke="#2ACAF7" stroke-width="0.5" stroke-linecap="round" stroke-linejoin="round"/>
<path d="M70.752 70.752L97.7634 75.0492L76.8909 95.9217L70.752 70.752Z" stroke="#2ACAF7" stroke-width="0.5" stroke-linecap="round" stroke-linejoin="round"/>
<path d="M76.8906 95.9213L97.7631 75.0488L103.902 110.655L76.8906 95.9213Z" stroke="#2ACAF7" stroke-width="0.5" stroke-linecap="round" stroke-linejoin="round"/>
<path d="M97.7637 75.0488L119.864 82.4156L103.903 110.655L97.7637 75.0488Z" stroke="#2ACAF7" stroke-width="0.5" stroke-linecap="round" stroke-linejoin="round"/>
<path d="M119.864 82.416L127.23 102.061L103.902 110.655L119.864 82.416Z" stroke="#2ACAF7" stroke-width="0.5" stroke-linecap="round" stroke-linejoin="round"/>
<path d="M103.902 110.655L127.23 102.061L117.408 127.844L103.902 110.655Z" stroke="#2ACAF7" stroke-width="0.5" stroke-linecap="round" stroke-linejoin="round"/>
<path d="M119.25 160.994L138.895 139.508L117.408 127.844L119.25 160.994Z" stroke="#2ACAF7" stroke-width="0.5" stroke-linecap="round" stroke-linejoin="round"/>
<path d="M127.231 102.061L147.489 114.952L117.408 127.844L127.231 102.061Z" stroke="#2ACAF7" stroke-width="0.5" stroke-linecap="round" stroke-linejoin="round"/>
<path d="M138.895 139.509L147.489 114.953L117.408 127.845L138.895 139.509Z" stroke="#2ACAF7" stroke-width="0.5" stroke-linecap="round" stroke-linejoin="round"/>
<path d="M94.0801 167.747L119.25 160.994L101.447 141.35L94.0801 167.747Z" stroke="#2ACAF7" stroke-width="0.5" stroke-linecap="round" stroke-linejoin="round"/>
<path d="M103.903 110.656L117.409 127.845L101.447 141.351L103.903 110.656Z" stroke="#2ACAF7" stroke-width="0.5" stroke-linecap="round" stroke-linejoin="round"/>
<path d="M117.409 127.844L119.25 160.994L101.447 141.349L117.409 127.844Z" stroke="#2ACAF7" stroke-width="0.5" stroke-linecap="round" stroke-linejoin="round"/>
<path d="M48.6523 132.143L59.0886 108.814L81.1888 124.776L48.6523 132.143Z" stroke="#2ACAF7" stroke-width="0.5" stroke-linecap="round" stroke-linejoin="round"/>
<path d="M59.0879 108.814L76.8909 95.9219L81.1882 124.775L59.0879 108.814Z" stroke="#2ACAF7" stroke-width="0.5" stroke-linecap="round" stroke-linejoin="round"/>
<path d="M76.8906 95.9219L103.902 110.655L81.1879 124.775L76.8906 95.9219Z" stroke="#2ACAF7" stroke-width="0.5" stroke-linecap="round" stroke-linejoin="round"/>
<path d="M101.448 141.351L103.904 110.656L81.1895 124.776L101.448 141.351Z" stroke="#2ACAF7" stroke-width="0.5" stroke-linecap="round" stroke-linejoin="round"/>
<path d="M48.6523 132.142L81.1888 124.775L74.436 146.876L48.6523 132.142Z" stroke="#2ACAF7" stroke-width="0.5" stroke-linecap="round" stroke-linejoin="round"/>
<path d="M81.1884 124.775L101.447 141.351L74.4355 146.876L81.1884 124.775Z" stroke="#2ACAF7" stroke-width="0.5" stroke-linecap="round" stroke-linejoin="round"/>
<path d="M94.0802 167.747L101.447 141.35L74.4355 146.875L94.0802 167.747Z" stroke="#2ACAF7" stroke-width="0.5" stroke-linecap="round" stroke-linejoin="round"/>
<path d="M33.918 160.381V146.875L60.9294 160.995L33.918 160.381Z" stroke="#2ACAF7" stroke-width="0.5" stroke-linecap="round" stroke-linejoin="round"/>
<path d="M33.918 146.876L48.6515 132.143L60.9294 160.996L33.918 146.876Z" stroke="#2ACAF7" stroke-width="0.5" stroke-linecap="round" stroke-linejoin="round"/>
<path d="M33.918 160.381L36.9874 164.678L60.9294 160.995L33.918 160.381Z" stroke="#2ACAF7" stroke-width="0.5" stroke-linecap="round" stroke-linejoin="round"/>
<path d="M36.9883 164.679L40.0578 172.046L60.9302 160.996L36.9883 164.679Z" stroke="#2ACAF7" stroke-width="0.5" stroke-linecap="round" stroke-linejoin="round"/>
<path d="M40.0566 172.046L52.3346 180.027L60.9291 160.996L40.0566 172.046Z" stroke="#2ACAF7" stroke-width="0.5" stroke-linecap="round" stroke-linejoin="round"/>
<path d="M48.6523 132.143L74.436 146.876L60.9303 160.996L48.6523 132.143Z" stroke="#2ACAF7" stroke-width="0.5" stroke-linecap="round" stroke-linejoin="round"/>
<path d="M52.3359 180.026L58.4749 189.848L73.2084 172.045L52.3359 180.026Z" stroke="#2ACAF7" stroke-width="0.5" stroke-linecap="round" stroke-linejoin="round"/>
<path d="M52.3359 180.027L60.9305 160.996L73.2084 172.046L52.3359 180.027Z" stroke="#2ACAF7" stroke-width="0.5" stroke-linecap="round" stroke-linejoin="round"/>
<path d="M58.4746 189.848L66.4553 195.373L73.2081 172.045L58.4746 189.848Z" stroke="#2ACAF7" stroke-width="0.5" stroke-linecap="round" stroke-linejoin="round"/>
<path d="M60.9297 160.995L74.4354 146.875L73.2076 172.045L60.9297 160.995Z" stroke="#2ACAF7" stroke-width="0.5" stroke-linecap="round" stroke-linejoin="round"/>
<path d="M66.4551 195.373L83.0303 188.006L73.2079 172.045L66.4551 195.373Z" stroke="#2ACAF7" stroke-width="0.5" stroke-linecap="round" stroke-linejoin="round"/>
<path d="M74.4348 146.875L94.0795 167.747L73.207 172.045L74.4348 146.875Z" stroke="#2ACAF7" stroke-width="0.5" stroke-linecap="round" stroke-linejoin="round"/>
<path d="M83.0294 188.007L94.0795 167.748L73.207 172.045L83.0294 188.007Z" stroke="#2ACAF7" stroke-width="0.5" stroke-linecap="round" stroke-linejoin="round"/>
</g>
<defs>
<clipPath id="clip0">
<rect width="349" height="213.329" fill="white"/>
</clipPath>
</defs>
</svg>
