<svg width="133" height="349" viewBox="0 0 133 349" fill="none" xmlns="http://www.w3.org/2000/svg">
<g clip-path="url(#clip0)">
<g style="mix-blend-mode:color-dodge">
<path d="M116.42 37.7585L119.285 36.9766L119.416 44.5334L116.42 37.7585Z" stroke="#2ACAF7" stroke-width="0.5" stroke-linecap="round" stroke-linejoin="round"/>
<path d="M125.014 66.9316L131.915 75.008L121.498 78.393L125.014 66.9316Z" stroke="#2ACAF7" stroke-width="0.5" stroke-linecap="round" stroke-linejoin="round"/>
<path d="M121.368 80.8637L121.499 78.3918L117.07 77.8672L121.368 80.8637Z" stroke="#2ACAF7" stroke-width="0.5" stroke-linecap="round" stroke-linejoin="round"/>
<path d="M121.499 78.393L125.016 66.9316L117.07 77.8683L121.499 78.393Z" stroke="#2ACAF7" stroke-width="0.5" stroke-linecap="round" stroke-linejoin="round"/>
<path d="M112.772 79.1699L114.074 85.9448L105.871 93.4966L112.772 79.1699Z" stroke="#2ACAF7" stroke-width="0.5" stroke-linecap="round" stroke-linejoin="round"/>
<path d="M105.871 93.4961L107.561 100.528L103.137 106.39L105.871 93.4961Z" stroke="#2ACAF7" stroke-width="0.5" stroke-linecap="round" stroke-linejoin="round"/>
<path d="M103.137 106.391L105.74 107.561L105.22 110.82L103.137 106.391Z" stroke="#2ACAF7" stroke-width="0.5" stroke-linecap="round" stroke-linejoin="round"/>
<path d="M105.221 110.82L109.907 113.423L110.951 117.984L105.221 110.82Z" stroke="#2ACAF7" stroke-width="0.5" stroke-linecap="round" stroke-linejoin="round"/>
<path d="M105.22 110.82L110.95 117.984L104.826 123.84L105.22 110.82Z" stroke="#2ACAF7" stroke-width="0.5" stroke-linecap="round" stroke-linejoin="round"/>
<path d="M104.57 130.221L104.827 123.84L96.625 137.385L104.57 130.221Z" stroke="#2ACAF7" stroke-width="0.5" stroke-linecap="round" stroke-linejoin="round"/>
<path d="M94.2778 142.465L96.6235 137.385L90.7617 141.814L94.2778 142.465Z" stroke="#2ACAF7" stroke-width="0.5" stroke-linecap="round" stroke-linejoin="round"/>
<path d="M85.9454 149.758L90.763 141.812L83.0801 149.758H85.9454Z" stroke="#2ACAF7" stroke-width="0.5" stroke-linecap="round" stroke-linejoin="round"/>
<path d="M78.5182 164.342L78.7805 160.307L71.6172 169.291L78.5182 164.342Z" stroke="#2ACAF7" stroke-width="0.5" stroke-linecap="round" stroke-linejoin="round"/>
<path d="M71.748 186.482L74.3561 188.309L73.443 190.649L71.748 186.482Z" stroke="#2ACAF7" stroke-width="0.5" stroke-linecap="round" stroke-linejoin="round"/>
<path d="M71.7491 186.482L73.4441 190.649H70.3164L71.7491 186.482Z" stroke="#2ACAF7" stroke-width="0.5" stroke-linecap="round" stroke-linejoin="round"/>
<path d="M69.5352 197.812L71.7497 200.416L71.3613 205.495L69.5352 197.812Z" stroke="#2ACAF7" stroke-width="0.5" stroke-linecap="round" stroke-linejoin="round"/>
<path d="M74.3574 215.393L77.3489 215.131L79.3011 218.258L74.3574 215.393Z" stroke="#2ACAF7" stroke-width="0.5" stroke-linecap="round" stroke-linejoin="round"/>
<path d="M79.3008 218.259L82.8219 215.131L85.6872 221.124L79.3008 218.259Z" stroke="#2ACAF7" stroke-width="0.5" stroke-linecap="round" stroke-linejoin="round"/>
<path d="M85.6875 221.125L88.5478 221.645L89.8493 226.2L85.6875 221.125Z" stroke="#2ACAF7" stroke-width="0.5" stroke-linecap="round" stroke-linejoin="round"/>
<path d="M88.5469 221.643L90.5042 221.512L89.8484 226.198L88.5469 221.643Z" stroke="#2ACAF7" stroke-width="0.5" stroke-linecap="round" stroke-linejoin="round"/>
<path d="M89.8496 226.199L96.3622 228.419L96.6245 238.967L89.8496 226.199Z" stroke="#2ACAF7" stroke-width="0.5" stroke-linecap="round" stroke-linejoin="round"/>
<path d="M96.3613 228.418L98.8382 234.537L96.6236 238.966L96.3613 228.418Z" stroke="#2ACAF7" stroke-width="0.5" stroke-linecap="round" stroke-linejoin="round"/>
<path d="M89.8496 226.199L96.6245 238.967L91.8069 242.74L89.8496 226.199Z" stroke="#2ACAF7" stroke-width="0.5" stroke-linecap="round" stroke-linejoin="round"/>
<path d="M90.1107 247.562L91.4122 252.118H88.5469L90.1107 247.562Z" stroke="#2ACAF7" stroke-width="0.5" stroke-linecap="round" stroke-linejoin="round"/>
<path d="M86.075 259.545L88.5469 252.119L84.2539 254.984L86.075 259.545Z" stroke="#2ACAF7" stroke-width="0.5" stroke-linecap="round" stroke-linejoin="round"/>
<path d="M88.5469 252.118L90.1107 247.562L84.2539 254.983L88.5469 252.118Z" stroke="#2ACAF7" stroke-width="0.5" stroke-linecap="round" stroke-linejoin="round"/>
<path d="M84.2536 254.984L86.0747 259.545L82.0391 260.064L84.2536 254.984Z" stroke="#2ACAF7" stroke-width="0.5" stroke-linecap="round" stroke-linejoin="round"/>
<path d="M82.0394 260.064L84.2539 254.984L77.7363 261.885L82.0394 260.064Z" stroke="#2ACAF7" stroke-width="0.5" stroke-linecap="round" stroke-linejoin="round"/>
<path d="M77.7366 261.885L77.8677 264.881H71.4863L77.7366 261.885Z" stroke="#2ACAF7" stroke-width="0.5" stroke-linecap="round" stroke-linejoin="round"/>
<path d="M71.4863 264.881L75.6532 269.179L74.3567 272.175L71.4863 264.881Z" stroke="#2ACAF7" stroke-width="0.5" stroke-linecap="round" stroke-linejoin="round"/>
<path d="M74.3574 272.176L75.6539 269.18L74.4835 279.597L74.3574 272.176Z" stroke="#2ACAF7" stroke-width="0.5" stroke-linecap="round" stroke-linejoin="round"/>
<path d="M74.3565 272.176L74.4826 279.596L71.0977 285.07L74.3565 272.176Z" stroke="#2ACAF7" stroke-width="0.5" stroke-linecap="round" stroke-linejoin="round"/>
<path d="M71.0977 285.07L74.3565 288.713L72.1419 291.966L71.0977 285.07Z" stroke="#2ACAF7" stroke-width="0.5" stroke-linecap="round" stroke-linejoin="round"/>
<path d="M72.1426 291.965L74.3572 292.489L73.4441 297.307L72.1426 291.965Z" stroke="#2ACAF7" stroke-width="0.5" stroke-linecap="round" stroke-linejoin="round"/>
<path d="M72.1426 311.892L77.8682 306.424L73.8325 324.917L72.1426 311.892Z" stroke="#2ACAF7" stroke-width="0.5" stroke-linecap="round" stroke-linejoin="round"/>
<path d="M72.1431 311.893L73.8331 324.918L70.0547 318.017L72.1431 311.893Z" stroke="#2ACAF7" stroke-width="0.5" stroke-linecap="round" stroke-linejoin="round"/>
<path d="M66.9302 326.48L70.0528 318.016L61.0684 327.525L66.9302 326.48Z" stroke="#2ACAF7" stroke-width="0.5" stroke-linecap="round" stroke-linejoin="round"/>
<path d="M52.6039 327.525H61.0688L51.4336 329.866L52.6039 327.525Z" stroke="#2ACAF7" stroke-width="0.5" stroke-linecap="round" stroke-linejoin="round"/>
<path d="M51.4337 329.866L52.604 327.525L46.7422 332.207L51.4337 329.866Z" stroke="#2ACAF7" stroke-width="0.5" stroke-linecap="round" stroke-linejoin="round"/>
<path d="M44.2715 348.751L46.6122 342.496L35.2871 346.925L44.2715 348.751Z" stroke="#2ACAF7" stroke-width="0.5" stroke-linecap="round" stroke-linejoin="round"/>
<path d="M44.5338 338.85L46.6122 342.497L35.2871 346.926L44.5338 338.85Z" stroke="#2ACAF7" stroke-width="0.5" stroke-linecap="round" stroke-linejoin="round"/>
<path d="M35.2861 346.926L44.2705 348.752L25.9082 347.577L35.2861 346.926Z" stroke="#2ACAF7" stroke-width="0.5" stroke-linecap="round" stroke-linejoin="round"/>
<path d="M25.9082 347.577L35.2861 346.926L26.559 341.584L25.9082 347.577Z" stroke="#2ACAF7" stroke-width="0.5" stroke-linecap="round" stroke-linejoin="round"/>
<path d="M26.5586 341.585L35.2857 346.927L28.2485 339.633L26.5586 341.585Z" stroke="#2ACAF7" stroke-width="0.5" stroke-linecap="round" stroke-linejoin="round"/>
<path d="M26.5594 341.583L28.2494 339.631L20.0469 327.262L26.5594 341.583Z" stroke="#2ACAF7" stroke-width="0.5" stroke-linecap="round" stroke-linejoin="round"/>
<path d="M20.0469 327.263L28.2494 339.632L24.9956 326.219L20.0469 327.263Z" stroke="#2ACAF7" stroke-width="0.5" stroke-linecap="round" stroke-linejoin="round"/>
<path d="M22.6543 322.309L24.995 326.218L25.5196 321.27L22.6543 322.309Z" stroke="#2ACAF7" stroke-width="0.5" stroke-linecap="round" stroke-linejoin="round"/>
<path d="M10.668 298.608L15.0971 301.993L11.581 291.576L10.668 298.608Z" stroke="#2ACAF7" stroke-width="0.5" stroke-linecap="round" stroke-linejoin="round"/>
<path d="M7.80273 288.975L11.5811 291.578L8.71581 285.59L7.80273 288.975Z" stroke="#2ACAF7" stroke-width="0.5" stroke-linecap="round" stroke-linejoin="round"/>
<path d="M4.68164 281.161L8.71731 285.59L6.1143 276.475L4.68164 281.161Z" stroke="#2ACAF7" stroke-width="0.5" stroke-linecap="round" stroke-linejoin="round"/>
<path d="M0.251953 260.195L0.640387 272.176L6.11377 263.056L0.251953 260.195Z" stroke="#2ACAF7" stroke-width="0.5" stroke-linecap="round" stroke-linejoin="round"/>
<path d="M0.251953 260.194L2.0781 256.936L6.11377 263.055L0.251953 260.194Z" stroke="#2ACAF7" stroke-width="0.5" stroke-linecap="round" stroke-linejoin="round"/>
<path d="M0.640625 272.175L6.11401 276.473V263.055L0.640625 272.175Z" stroke="#2ACAF7" stroke-width="0.5" stroke-linecap="round" stroke-linejoin="round"/>
<path d="M7.41602 244.567L8.97984 251.075L9.63059 240.4L7.41602 244.567Z" stroke="#2ACAF7" stroke-width="0.5" stroke-linecap="round" stroke-linejoin="round"/>
<path d="M13.2773 210.833L15.8804 216.957L20.1783 205.496L13.2773 210.833Z" stroke="#2ACAF7" stroke-width="0.5" stroke-linecap="round" stroke-linejoin="round"/>
<path d="M13.9284 195.342L19.3968 198.333L10.8008 188.436L13.9284 195.342Z" stroke="#2ACAF7" stroke-width="0.5" stroke-linecap="round" stroke-linejoin="round"/>
<path d="M26.166 120.328L30.2067 124.363L29.6821 111.207L26.166 120.328Z" stroke="#2ACAF7" stroke-width="0.5" stroke-linecap="round" stroke-linejoin="round"/>
<path d="M32.1582 81.6456L33.722 90.3728L40.1034 79.6934L32.1582 81.6456Z" stroke="#2ACAF7" stroke-width="0.5" stroke-linecap="round" stroke-linejoin="round"/>
<path d="M45.9609 45.9609L49.2197 54.1684L49.8705 42.1875L45.9609 45.9609Z" stroke="#2ACAF7" stroke-width="0.5" stroke-linecap="round" stroke-linejoin="round"/>
<path d="M49.8711 42.1869L50.9103 34.8924L61.9832 31.6387L49.8711 42.1869Z" stroke="#2ACAF7" stroke-width="0.5" stroke-linecap="round" stroke-linejoin="round"/>
<path d="M50.9102 34.8938L55.3393 30.0762L61.983 31.64L50.9102 34.8938Z" stroke="#2ACAF7" stroke-width="0.5" stroke-linecap="round" stroke-linejoin="round"/>
<path d="M78.5195 0.251953L84.906 1.03386L81.7783 7.67759L78.5195 0.251953Z" stroke="#2ACAF7" stroke-width="0.5" stroke-linecap="round" stroke-linejoin="round"/>
<path d="M84.905 1.0332L87.1145 4.93772L81.7773 7.67693L84.905 1.0332Z" stroke="#2ACAF7" stroke-width="0.5" stroke-linecap="round" stroke-linejoin="round"/>
<path d="M80.082 13.1465L80.8639 19.7902L88.1584 15.2299L80.082 13.1465Z" stroke="#2ACAF7" stroke-width="0.5" stroke-linecap="round" stroke-linejoin="round"/>
<path d="M80.082 13.1461L81.777 7.67773L88.1584 15.2295L80.082 13.1461Z" stroke="#2ACAF7" stroke-width="0.5" stroke-linecap="round" stroke-linejoin="round"/>
<path d="M81.7773 7.67671L87.1145 4.9375L88.1588 15.2285L81.7773 7.67671Z" stroke="#2ACAF7" stroke-width="0.5" stroke-linecap="round" stroke-linejoin="round"/>
<path d="M87.1152 4.9375L93.4966 10.0174L88.1595 15.2285L87.1152 4.9375Z" stroke="#2ACAF7" stroke-width="0.5" stroke-linecap="round" stroke-linejoin="round"/>
<path d="M93.4954 10.0176L99.8768 13.5337L88.1582 15.2286L93.4954 10.0176Z" stroke="#2ACAF7" stroke-width="0.5" stroke-linecap="round" stroke-linejoin="round"/>
<path d="M88.1582 15.2301L99.8768 13.5352L102.485 25.5161L88.1582 15.2301Z" stroke="#2ACAF7" stroke-width="0.5" stroke-linecap="round" stroke-linejoin="round"/>
<path d="M99.877 13.5346L104.049 13.2773L102.485 25.5155L99.877 13.5346Z" stroke="#2ACAF7" stroke-width="0.5" stroke-linecap="round" stroke-linejoin="round"/>
<path d="M104.05 13.2773L113.816 22.2618L102.486 25.5155L104.05 13.2773Z" stroke="#2ACAF7" stroke-width="0.5" stroke-linecap="round" stroke-linejoin="round"/>
<path d="M102.486 25.5155L113.816 22.2617L107.955 38.1522L102.486 25.5155Z" stroke="#2ACAF7" stroke-width="0.5" stroke-linecap="round" stroke-linejoin="round"/>
<path d="M113.815 22.2617L116.418 37.7587L107.953 38.1522L113.815 22.2617Z" stroke="#2ACAF7" stroke-width="0.5" stroke-linecap="round" stroke-linejoin="round"/>
<path d="M116.418 37.7578L119.414 44.5327L107.953 38.1513L116.418 37.7578Z" stroke="#2ACAF7" stroke-width="0.5" stroke-linecap="round" stroke-linejoin="round"/>
<path d="M107.953 38.1523L119.414 44.5338L112.64 53.387L107.953 38.1523Z" stroke="#2ACAF7" stroke-width="0.5" stroke-linecap="round" stroke-linejoin="round"/>
<path d="M119.416 44.5332L125.535 56.383L112.641 53.3865L119.416 44.5332Z" stroke="#2ACAF7" stroke-width="0.5" stroke-linecap="round" stroke-linejoin="round"/>
<path d="M123.714 59.8993L125.535 56.3832L112.641 53.3867L123.714 59.8993Z" stroke="#2ACAF7" stroke-width="0.5" stroke-linecap="round" stroke-linejoin="round"/>
<path d="M112.641 53.3867L123.714 59.8993L113.034 67.451L112.641 53.3867Z" stroke="#2ACAF7" stroke-width="0.5" stroke-linecap="round" stroke-linejoin="round"/>
<path d="M112.771 79.1698L117.069 77.8682L113.034 67.4512L112.771 79.1698Z" stroke="#2ACAF7" stroke-width="0.5" stroke-linecap="round" stroke-linejoin="round"/>
<path d="M117.069 77.8683L125.014 66.9316L113.033 67.4512L117.069 77.8683Z" stroke="#2ACAF7" stroke-width="0.5" stroke-linecap="round" stroke-linejoin="round"/>
<path d="M123.713 59.8984L125.014 66.9306L113.033 67.4502L123.713 59.8984Z" stroke="#2ACAF7" stroke-width="0.5" stroke-linecap="round" stroke-linejoin="round"/>
<path d="M61.9824 31.6389L63.5462 16.9238L75.5272 30.7258L61.9824 31.6389Z" stroke="#2ACAF7" stroke-width="0.5" stroke-linecap="round" stroke-linejoin="round"/>
<path d="M63.5469 16.9238L80.865 19.7892L75.5278 30.7258L63.5469 16.9238Z" stroke="#2ACAF7" stroke-width="0.5" stroke-linecap="round" stroke-linejoin="round"/>
<path d="M75.5273 30.7257L80.8645 19.7891L92.1947 30.7257H75.5273Z" stroke="#2ACAF7" stroke-width="0.5" stroke-linecap="round" stroke-linejoin="round"/>
<path d="M80.8633 19.7888L88.1578 15.2285L92.1934 30.7255L80.8633 19.7888Z" stroke="#2ACAF7" stroke-width="0.5" stroke-linecap="round" stroke-linejoin="round"/>
<path d="M88.1582 15.2285L102.485 25.5144L92.1939 30.7255L88.1582 15.2285Z" stroke="#2ACAF7" stroke-width="0.5" stroke-linecap="round" stroke-linejoin="round"/>
<path d="M102.486 25.5156L107.955 38.1523L92.1953 30.7267L102.486 25.5156Z" stroke="#2ACAF7" stroke-width="0.5" stroke-linecap="round" stroke-linejoin="round"/>
<path d="M92.1953 30.7266L107.955 38.1522L96.3621 47.6562L92.1953 30.7266Z" stroke="#2ACAF7" stroke-width="0.5" stroke-linecap="round" stroke-linejoin="round"/>
<path d="M107.954 38.1523L112.64 53.387L96.3613 47.6564L107.954 38.1523Z" stroke="#2ACAF7" stroke-width="0.5" stroke-linecap="round" stroke-linejoin="round"/>
<path d="M49.2188 54.1684L49.8695 42.1875L73.1806 45.5724L49.2188 54.1684Z" stroke="#2ACAF7" stroke-width="0.5" stroke-linecap="round" stroke-linejoin="round"/>
<path d="M49.8711 42.1869L61.9832 31.6387L73.1822 45.5718L49.8711 42.1869Z" stroke="#2ACAF7" stroke-width="0.5" stroke-linecap="round" stroke-linejoin="round"/>
<path d="M61.9824 31.6396L75.5272 30.7266L73.1814 45.5728L61.9824 31.6396Z" stroke="#2ACAF7" stroke-width="0.5" stroke-linecap="round" stroke-linejoin="round"/>
<path d="M75.5274 30.7266H92.1947L73.1816 45.5728L75.5274 30.7266Z" stroke="#2ACAF7" stroke-width="0.5" stroke-linecap="round" stroke-linejoin="round"/>
<path d="M92.1947 30.7266L96.3615 47.6562L73.1816 45.5728L92.1947 30.7266Z" stroke="#2ACAF7" stroke-width="0.5" stroke-linecap="round" stroke-linejoin="round"/>
<path d="M46.6113 61.7197L49.2194 54.168L65.7606 61.3313L46.6113 61.7197Z" stroke="#2ACAF7" stroke-width="0.5" stroke-linecap="round" stroke-linejoin="round"/>
<path d="M49.2188 54.1682L73.1806 45.5723L65.76 61.3316L49.2188 54.1682Z" stroke="#2ACAF7" stroke-width="0.5" stroke-linecap="round" stroke-linejoin="round"/>
<path d="M65.7617 61.3316L73.1823 45.5723L90.2431 64.1969L65.7617 61.3316Z" stroke="#2ACAF7" stroke-width="0.5" stroke-linecap="round" stroke-linejoin="round"/>
<path d="M73.1816 45.5723L96.3615 47.6557L90.2424 64.1969L73.1816 45.5723Z" stroke="#2ACAF7" stroke-width="0.5" stroke-linecap="round" stroke-linejoin="round"/>
<path d="M96.3613 47.6562L112.64 53.3869L90.2422 64.1975L96.3613 47.6562Z" stroke="#2ACAF7" stroke-width="0.5" stroke-linecap="round" stroke-linejoin="round"/>
<path d="M112.64 53.3867L113.034 67.451L90.2422 64.1973L112.64 53.3867Z" stroke="#2ACAF7" stroke-width="0.5" stroke-linecap="round" stroke-linejoin="round"/>
<path d="M112.771 79.1696L113.034 67.451L90.2422 64.1973L112.771 79.1696Z" stroke="#2ACAF7" stroke-width="0.5" stroke-linecap="round" stroke-linejoin="round"/>
<path d="M90.2431 64.1973L112.772 79.1696L89.8496 84.5118L90.2431 64.1973Z" stroke="#2ACAF7" stroke-width="0.5" stroke-linecap="round" stroke-linejoin="round"/>
<path d="M105.871 93.4966L112.772 79.1699L89.8496 84.5121L105.871 93.4966Z" stroke="#2ACAF7" stroke-width="0.5" stroke-linecap="round" stroke-linejoin="round"/>
<path d="M33.7227 90.3728L40.1041 79.6934L55.7322 81.5145L33.7227 90.3728Z" stroke="#2ACAF7" stroke-width="0.5" stroke-linecap="round" stroke-linejoin="round"/>
<path d="M40.1035 79.695L41.405 71.3613L55.7317 81.5161L40.1035 79.695Z" stroke="#2ACAF7" stroke-width="0.5" stroke-linecap="round" stroke-linejoin="round"/>
<path d="M41.4062 71.3609L46.6123 61.7207L55.7329 81.5157L41.4062 71.3609Z" stroke="#2ACAF7" stroke-width="0.5" stroke-linecap="round" stroke-linejoin="round"/>
<path d="M46.6113 61.7205L65.7606 61.332L55.7319 81.5154L46.6113 61.7205Z" stroke="#2ACAF7" stroke-width="0.5" stroke-linecap="round" stroke-linejoin="round"/>
<path d="M55.7324 81.5154L65.7611 61.332L77.4797 88.1592L55.7324 81.5154Z" stroke="#2ACAF7" stroke-width="0.5" stroke-linecap="round" stroke-linejoin="round"/>
<path d="M65.7617 61.332L90.2431 64.1974L77.4803 88.1592L65.7617 61.332Z" stroke="#2ACAF7" stroke-width="0.5" stroke-linecap="round" stroke-linejoin="round"/>
<path d="M89.8498 84.5118L90.2433 64.1973L77.4805 88.1591L89.8498 84.5118Z" stroke="#2ACAF7" stroke-width="0.5" stroke-linecap="round" stroke-linejoin="round"/>
<path d="M77.4805 88.159L89.8498 84.5117L86.8533 106.647L77.4805 88.159Z" stroke="#2ACAF7" stroke-width="0.5" stroke-linecap="round" stroke-linejoin="round"/>
<path d="M89.8481 84.5117L105.87 93.4961L86.8516 106.647L89.8481 84.5117Z" stroke="#2ACAF7" stroke-width="0.5" stroke-linecap="round" stroke-linejoin="round"/>
<path d="M103.135 106.391L105.219 110.82L86.8516 106.648L103.135 106.391Z" stroke="#2ACAF7" stroke-width="0.5" stroke-linecap="round" stroke-linejoin="round"/>
<path d="M103.135 106.39L105.87 93.4961L86.8516 106.647L103.135 106.39Z" stroke="#2ACAF7" stroke-width="0.5" stroke-linecap="round" stroke-linejoin="round"/>
<path d="M104.825 123.838L105.219 110.818L86.8516 106.646L104.825 123.838Z" stroke="#2ACAF7" stroke-width="0.5" stroke-linecap="round" stroke-linejoin="round"/>
<path d="M77.4789 88.1582L86.8518 106.647L74.4824 114.203L77.4789 88.1582Z" stroke="#2ACAF7" stroke-width="0.5" stroke-linecap="round" stroke-linejoin="round"/>
<path d="M86.8518 106.646L104.826 123.838L74.4824 114.203L86.8518 106.646Z" stroke="#2ACAF7" stroke-width="0.5" stroke-linecap="round" stroke-linejoin="round"/>
<path d="M90.7613 141.814L96.6231 137.385L74.4824 114.205L90.7613 141.814Z" stroke="#2ACAF7" stroke-width="0.5" stroke-linecap="round" stroke-linejoin="round"/>
<path d="M96.6231 137.385L104.826 123.84L74.4824 114.205L96.6231 137.385Z" stroke="#2ACAF7" stroke-width="0.5" stroke-linecap="round" stroke-linejoin="round"/>
<path d="M33.0723 99.3575L33.723 90.373L60.1567 97.274L33.0723 99.3575Z" stroke="#2ACAF7" stroke-width="0.5" stroke-linecap="round" stroke-linejoin="round"/>
<path d="M33.7227 90.3739L55.7322 81.5156L60.1563 97.2749L33.7227 90.3739Z" stroke="#2ACAF7" stroke-width="0.5" stroke-linecap="round" stroke-linejoin="round"/>
<path d="M55.7324 81.5156L77.4797 88.1594L60.1565 97.2749L55.7324 81.5156Z" stroke="#2ACAF7" stroke-width="0.5" stroke-linecap="round" stroke-linejoin="round"/>
<path d="M74.4829 114.203L77.4794 88.1582L60.1562 97.2738L74.4829 114.203Z" stroke="#2ACAF7" stroke-width="0.5" stroke-linecap="round" stroke-linejoin="round"/>
<path d="M29.6816 111.207L30.2063 124.363L46.0967 112.64L29.6816 111.207Z" stroke="#2ACAF7" stroke-width="0.5" stroke-linecap="round" stroke-linejoin="round"/>
<path d="M29.6816 111.207L33.0716 99.3574L46.0967 112.64L29.6816 111.207Z" stroke="#2ACAF7" stroke-width="0.5" stroke-linecap="round" stroke-linejoin="round"/>
<path d="M33.0723 99.3588L60.1567 97.2754L46.0974 112.641L33.0723 99.3588Z" stroke="#2ACAF7" stroke-width="0.5" stroke-linecap="round" stroke-linejoin="round"/>
<path d="M46.0977 112.641L60.1569 97.2754L59.7685 121.757L46.0977 112.641Z" stroke="#2ACAF7" stroke-width="0.5" stroke-linecap="round" stroke-linejoin="round"/>
<path d="M60.156 97.2754L74.4827 114.205L59.7676 121.757L60.156 97.2754Z" stroke="#2ACAF7" stroke-width="0.5" stroke-linecap="round" stroke-linejoin="round"/>
<path d="M59.7676 121.757L74.4827 114.205L69.2716 140.901L59.7676 121.757Z" stroke="#2ACAF7" stroke-width="0.5" stroke-linecap="round" stroke-linejoin="round"/>
<path d="M74.4825 114.205L90.7614 141.814L69.2715 140.901L74.4825 114.205Z" stroke="#2ACAF7" stroke-width="0.5" stroke-linecap="round" stroke-linejoin="round"/>
<path d="M78.7805 160.307L81.5147 156.66L69.2715 140.9L78.7805 160.307Z" stroke="#2ACAF7" stroke-width="0.5" stroke-linecap="round" stroke-linejoin="round"/>
<path d="M81.5147 156.66L83.0785 149.759L69.2715 140.9L81.5147 156.66Z" stroke="#2ACAF7" stroke-width="0.5" stroke-linecap="round" stroke-linejoin="round"/>
<path d="M83.0785 149.759L90.7614 141.813L69.2715 140.9L83.0785 149.759Z" stroke="#2ACAF7" stroke-width="0.5" stroke-linecap="round" stroke-linejoin="round"/>
<path d="M69.2725 140.9L78.7815 160.307L55.082 153.406L69.2725 140.9Z" stroke="#2ACAF7" stroke-width="0.5" stroke-linecap="round" stroke-linejoin="round"/>
<path d="M71.6182 169.292L78.7815 160.307L55.082 153.406L71.6182 169.292Z" stroke="#2ACAF7" stroke-width="0.5" stroke-linecap="round" stroke-linejoin="round"/>
<path d="M29.9453 134.392L30.2076 124.363L40.887 138.559L29.9453 134.392Z" stroke="#2ACAF7" stroke-width="0.5" stroke-linecap="round" stroke-linejoin="round"/>
<path d="M30.207 124.364L46.0975 112.641L40.8864 138.56L30.207 124.364Z" stroke="#2ACAF7" stroke-width="0.5" stroke-linecap="round" stroke-linejoin="round"/>
<path d="M46.0978 112.641L59.7686 121.756L40.8867 138.56L46.0978 112.641Z" stroke="#2ACAF7" stroke-width="0.5" stroke-linecap="round" stroke-linejoin="round"/>
<path d="M55.0822 153.407L69.2726 140.901L40.8867 138.561L55.0822 153.407Z" stroke="#2ACAF7" stroke-width="0.5" stroke-linecap="round" stroke-linejoin="round"/>
<path d="M59.7686 121.756L69.2726 140.9L40.8867 138.559L59.7686 121.756Z" stroke="#2ACAF7" stroke-width="0.5" stroke-linecap="round" stroke-linejoin="round"/>
<path d="M18.0957 134.782L24.8706 134L22.656 154.057L18.0957 134.782Z" stroke="#2ACAF7" stroke-width="0.5" stroke-linecap="round" stroke-linejoin="round"/>
<path d="M24.8689 134L29.9437 134.393L22.6543 154.057L24.8689 134Z" stroke="#2ACAF7" stroke-width="0.5" stroke-linecap="round" stroke-linejoin="round"/>
<path d="M29.9437 134.393L40.8855 138.559L22.6543 154.056L29.9437 134.393Z" stroke="#2ACAF7" stroke-width="0.5" stroke-linecap="round" stroke-linejoin="round"/>
<path d="M9.49805 150.797L11.0619 161.607L22.6543 154.056L9.49805 150.797Z" stroke="#2ACAF7" stroke-width="0.5" stroke-linecap="round" stroke-linejoin="round"/>
<path d="M9.49805 150.799L11.5815 144.16L22.6543 154.058L9.49805 150.799Z" stroke="#2ACAF7" stroke-width="0.5" stroke-linecap="round" stroke-linejoin="round"/>
<path d="M11.582 144.159L18.0946 134.781L22.6549 154.057L11.582 144.159Z" stroke="#2ACAF7" stroke-width="0.5" stroke-linecap="round" stroke-linejoin="round"/>
<path d="M22.6543 154.058L40.8855 138.561L40.1035 161.09L22.6543 154.058Z" stroke="#2ACAF7" stroke-width="0.5" stroke-linecap="round" stroke-linejoin="round"/>
<path d="M40.8854 138.561L55.0809 153.407L40.1035 161.09L40.8854 138.561Z" stroke="#2ACAF7" stroke-width="0.5" stroke-linecap="round" stroke-linejoin="round"/>
<path d="M22.6543 154.057L40.1035 161.089L27.7292 176.586L22.6543 154.057Z" stroke="#2ACAF7" stroke-width="0.5" stroke-linecap="round" stroke-linejoin="round"/>
<path d="M10.0195 166.426L12.4964 175.541L27.7311 176.586L10.0195 166.426Z" stroke="#2ACAF7" stroke-width="0.5" stroke-linecap="round" stroke-linejoin="round"/>
<path d="M10.0195 166.425L11.0638 161.607L27.7311 176.585L10.0195 166.425Z" stroke="#2ACAF7" stroke-width="0.5" stroke-linecap="round" stroke-linejoin="round"/>
<path d="M10.8008 188.435L12.4958 175.541L27.7304 176.585L10.8008 188.435Z" stroke="#2ACAF7" stroke-width="0.5" stroke-linecap="round" stroke-linejoin="round"/>
<path d="M10.8008 188.436L19.3968 198.333L27.7304 176.586L10.8008 188.436Z" stroke="#2ACAF7" stroke-width="0.5" stroke-linecap="round" stroke-linejoin="round"/>
<path d="M11.0625 161.608L22.655 154.057L27.7298 176.586L11.0625 161.608Z" stroke="#2ACAF7" stroke-width="0.5" stroke-linecap="round" stroke-linejoin="round"/>
<path d="M27.7305 176.585L40.1049 161.088L54.1692 178.668L27.7305 176.585Z" stroke="#2ACAF7" stroke-width="0.5" stroke-linecap="round" stroke-linejoin="round"/>
<path d="M40.1035 161.089L55.0809 153.406L54.1678 178.67L40.1035 161.089Z" stroke="#2ACAF7" stroke-width="0.5" stroke-linecap="round" stroke-linejoin="round"/>
<path d="M55.081 153.406L71.6172 169.292L54.168 178.67L55.081 153.406Z" stroke="#2ACAF7" stroke-width="0.5" stroke-linecap="round" stroke-linejoin="round"/>
<path d="M69.5338 197.814L70.3157 190.651L54.168 178.67L69.5338 197.814Z" stroke="#2ACAF7" stroke-width="0.5" stroke-linecap="round" stroke-linejoin="round"/>
<path d="M70.3157 190.651L71.7484 186.484L54.168 178.67L70.3157 190.651Z" stroke="#2ACAF7" stroke-width="0.5" stroke-linecap="round" stroke-linejoin="round"/>
<path d="M71.6172 169.291L73.181 178.018L54.168 178.669L71.6172 169.291Z" stroke="#2ACAF7" stroke-width="0.5" stroke-linecap="round" stroke-linejoin="round"/>
<path d="M71.7484 186.482L73.181 178.018L54.168 178.668L71.7484 186.482Z" stroke="#2ACAF7" stroke-width="0.5" stroke-linecap="round" stroke-linejoin="round"/>
<path d="M19.3965 198.333L20.1784 205.496L36.4573 188.047L19.3965 198.333Z" stroke="#2ACAF7" stroke-width="0.5" stroke-linecap="round" stroke-linejoin="round"/>
<path d="M19.3965 198.333L27.7301 176.586L36.4573 188.047L19.3965 198.333Z" stroke="#2ACAF7" stroke-width="0.5" stroke-linecap="round" stroke-linejoin="round"/>
<path d="M27.7305 176.586L54.1692 178.669L36.4576 188.047L27.7305 176.586Z" stroke="#2ACAF7" stroke-width="0.5" stroke-linecap="round" stroke-linejoin="round"/>
<path d="M36.457 188.048L54.1686 178.67L57.1651 207.843L36.457 188.048Z" stroke="#2ACAF7" stroke-width="0.5" stroke-linecap="round" stroke-linejoin="round"/>
<path d="M54.168 178.67L69.5338 197.814L57.1645 207.843L54.168 178.67Z" stroke="#2ACAF7" stroke-width="0.5" stroke-linecap="round" stroke-linejoin="round"/>
<path d="M69.5334 197.812L71.3596 205.495L57.1641 207.841L69.5334 197.812Z" stroke="#2ACAF7" stroke-width="0.5" stroke-linecap="round" stroke-linejoin="round"/>
<path d="M71.3595 205.496L74.356 215.394L57.1641 207.842L71.3595 205.496Z" stroke="#2ACAF7" stroke-width="0.5" stroke-linecap="round" stroke-linejoin="round"/>
<path d="M15.8789 216.957L17.5739 232.061L35.0231 216.957H15.8789Z" stroke="#2ACAF7" stroke-width="0.5" stroke-linecap="round" stroke-linejoin="round"/>
<path d="M15.8789 216.957L20.1769 205.496L35.0231 216.957H15.8789Z" stroke="#2ACAF7" stroke-width="0.5" stroke-linecap="round" stroke-linejoin="round"/>
<path d="M20.1777 205.496L36.4566 188.047L35.024 216.957L20.1777 205.496Z" stroke="#2ACAF7" stroke-width="0.5" stroke-linecap="round" stroke-linejoin="round"/>
<path d="M36.4581 188.047L57.1661 207.842L35.0254 216.957L36.4581 188.047Z" stroke="#2ACAF7" stroke-width="0.5" stroke-linecap="round" stroke-linejoin="round"/>
<path d="M35.0254 216.957L57.1661 207.842L56.3842 231.279L35.0254 216.957Z" stroke="#2ACAF7" stroke-width="0.5" stroke-linecap="round" stroke-linejoin="round"/>
<path d="M57.1647 207.842L74.3567 215.394L56.3828 231.279L57.1647 207.842Z" stroke="#2ACAF7" stroke-width="0.5" stroke-linecap="round" stroke-linejoin="round"/>
<path d="M56.3828 231.278L74.3567 215.393L75.527 238.315L56.3828 231.278Z" stroke="#2ACAF7" stroke-width="0.5" stroke-linecap="round" stroke-linejoin="round"/>
<path d="M74.3574 215.393L79.3011 218.258L75.5278 238.315L74.3574 215.393Z" stroke="#2ACAF7" stroke-width="0.5" stroke-linecap="round" stroke-linejoin="round"/>
<path d="M77.7369 261.885L84.2545 254.984L75.5273 238.316L77.7369 261.885Z" stroke="#2ACAF7" stroke-width="0.5" stroke-linecap="round" stroke-linejoin="round"/>
<path d="M79.3007 218.26L85.6871 221.125L75.5273 238.317L79.3007 218.26Z" stroke="#2ACAF7" stroke-width="0.5" stroke-linecap="round" stroke-linejoin="round"/>
<path d="M84.2545 254.984L90.1113 247.563L75.5273 238.316L84.2545 254.984Z" stroke="#2ACAF7" stroke-width="0.5" stroke-linecap="round" stroke-linejoin="round"/>
<path d="M85.6872 221.125L89.8489 226.2L75.5273 238.317L85.6872 221.125Z" stroke="#2ACAF7" stroke-width="0.5" stroke-linecap="round" stroke-linejoin="round"/>
<path d="M89.8489 226.199L91.8062 242.74L75.5273 238.316L89.8489 226.199Z" stroke="#2ACAF7" stroke-width="0.5" stroke-linecap="round" stroke-linejoin="round"/>
<path d="M90.1113 247.563L91.8062 242.741L75.5273 238.316L90.1113 247.563Z" stroke="#2ACAF7" stroke-width="0.5" stroke-linecap="round" stroke-linejoin="round"/>
<path d="M56.3828 231.279L75.527 238.316L57.2908 251.337L56.3828 231.279Z" stroke="#2ACAF7" stroke-width="0.5" stroke-linecap="round" stroke-linejoin="round"/>
<path d="M71.4865 264.881L77.7367 261.884L57.291 251.336L71.4865 264.881Z" stroke="#2ACAF7" stroke-width="0.5" stroke-linecap="round" stroke-linejoin="round"/>
<path d="M75.5272 238.316L77.7367 261.885L57.291 251.336L75.5272 238.316Z" stroke="#2ACAF7" stroke-width="0.5" stroke-linecap="round" stroke-linejoin="round"/>
<path d="M17.5742 232.061L35.0235 216.957L28.3797 248.995L17.5742 232.061Z" stroke="#2ACAF7" stroke-width="0.5" stroke-linecap="round" stroke-linejoin="round"/>
<path d="M35.0246 216.957L56.3834 231.279L28.3809 248.995L35.0246 216.957Z" stroke="#2ACAF7" stroke-width="0.5" stroke-linecap="round" stroke-linejoin="round"/>
<path d="M56.3834 231.279L57.2914 251.337L28.3809 248.996L56.3834 231.279Z" stroke="#2ACAF7" stroke-width="0.5" stroke-linecap="round" stroke-linejoin="round"/>
<path d="M8.97852 251.075L9.62927 240.4L28.38 248.996L8.97852 251.075Z" stroke="#2ACAF7" stroke-width="0.5" stroke-linecap="round" stroke-linejoin="round"/>
<path d="M9.63086 240.399L17.5761 232.061L28.3816 248.995L9.63086 240.399Z" stroke="#2ACAF7" stroke-width="0.5" stroke-linecap="round" stroke-linejoin="round"/>
<path d="M6.11328 276.473V263.055L22.0037 268.397L6.11328 276.473Z" stroke="#2ACAF7" stroke-width="0.5" stroke-linecap="round" stroke-linejoin="round"/>
<path d="M6.11328 263.055L8.97861 251.074L22.0037 268.397L6.11328 263.055Z" stroke="#2ACAF7" stroke-width="0.5" stroke-linecap="round" stroke-linejoin="round"/>
<path d="M6.11328 276.473L8.71629 285.588L22.0037 268.396L6.11328 276.473Z" stroke="#2ACAF7" stroke-width="0.5" stroke-linecap="round" stroke-linejoin="round"/>
<path d="M8.97852 251.074L28.38 248.996L22.0037 268.398L8.97852 251.074Z" stroke="#2ACAF7" stroke-width="0.5" stroke-linecap="round" stroke-linejoin="round"/>
<path d="M22.0039 268.398L28.3803 248.996L45.8346 274.385L22.0039 268.398Z" stroke="#2ACAF7" stroke-width="0.5" stroke-linecap="round" stroke-linejoin="round"/>
<path d="M28.3809 248.996L57.2914 251.337L45.8351 274.385L28.3809 248.996Z" stroke="#2ACAF7" stroke-width="0.5" stroke-linecap="round" stroke-linejoin="round"/>
<path d="M57.2922 251.336L71.4877 264.881L45.8359 274.385L57.2922 251.336Z" stroke="#2ACAF7" stroke-width="0.5" stroke-linecap="round" stroke-linejoin="round"/>
<path d="M71.0993 285.07L74.3581 272.176L45.8359 274.385L71.0993 285.07Z" stroke="#2ACAF7" stroke-width="0.5" stroke-linecap="round" stroke-linejoin="round"/>
<path d="M71.4877 264.881L74.3581 272.175L45.8359 274.385L71.4877 264.881Z" stroke="#2ACAF7" stroke-width="0.5" stroke-linecap="round" stroke-linejoin="round"/>
<path d="M22.0039 268.396L45.8346 274.384L29.9441 287.541L22.0039 268.396Z" stroke="#2ACAF7" stroke-width="0.5" stroke-linecap="round" stroke-linejoin="round"/>
<path d="M8.7168 285.588L22.0042 268.396L29.9444 287.541L8.7168 285.588Z" stroke="#2ACAF7" stroke-width="0.5" stroke-linecap="round" stroke-linejoin="round"/>
<path d="M8.7168 285.59L11.5821 291.578L29.9444 287.542L8.7168 285.59Z" stroke="#2ACAF7" stroke-width="0.5" stroke-linecap="round" stroke-linejoin="round"/>
<path d="M11.582 291.577L15.0981 301.994L29.9443 287.541L11.582 291.577Z" stroke="#2ACAF7" stroke-width="0.5" stroke-linecap="round" stroke-linejoin="round"/>
<path d="M29.9453 287.541L45.8358 274.385L56.7724 294.049L29.9453 287.541Z" stroke="#2ACAF7" stroke-width="0.5" stroke-linecap="round" stroke-linejoin="round"/>
<path d="M45.8359 274.385L71.0993 285.069L56.7726 294.049L45.8359 274.385Z" stroke="#2ACAF7" stroke-width="0.5" stroke-linecap="round" stroke-linejoin="round"/>
<path d="M71.0981 285.07L72.1424 291.966L56.7715 294.05L71.0981 285.07Z" stroke="#2ACAF7" stroke-width="0.5" stroke-linecap="round" stroke-linejoin="round"/>
<path d="M72.1423 291.965L73.4439 297.307L56.7715 294.048L72.1423 291.965Z" stroke="#2ACAF7" stroke-width="0.5" stroke-linecap="round" stroke-linejoin="round"/>
<path d="M72.1423 311.892L72.3996 303.558L56.7715 294.049L72.1423 311.892Z" stroke="#2ACAF7" stroke-width="0.5" stroke-linecap="round" stroke-linejoin="round"/>
<path d="M72.3996 303.558L73.4439 297.308L56.7715 294.049L72.3996 303.558Z" stroke="#2ACAF7" stroke-width="0.5" stroke-linecap="round" stroke-linejoin="round"/>
<path d="M29.9453 287.541L56.7724 294.049L46.3554 312.022L29.9453 287.541Z" stroke="#2ACAF7" stroke-width="0.5" stroke-linecap="round" stroke-linejoin="round"/>
<path d="M52.6038 327.525H61.0686L46.3535 312.023L52.6038 327.525Z" stroke="#2ACAF7" stroke-width="0.5" stroke-linecap="round" stroke-linejoin="round"/>
<path d="M56.7706 294.049L72.1415 311.892L46.3535 312.023L56.7706 294.049Z" stroke="#2ACAF7" stroke-width="0.5" stroke-linecap="round" stroke-linejoin="round"/>
<path d="M61.0686 327.525L70.053 318.016L46.3535 312.023L61.0686 327.525Z" stroke="#2ACAF7" stroke-width="0.5" stroke-linecap="round" stroke-linejoin="round"/>
<path d="M70.053 318.017L72.1415 311.893L46.3535 312.024L70.053 318.017Z" stroke="#2ACAF7" stroke-width="0.5" stroke-linecap="round" stroke-linejoin="round"/>
<path d="M15.0977 301.994L16.6615 310.07L30.4635 310.464L15.0977 301.994Z" stroke="#2ACAF7" stroke-width="0.5" stroke-linecap="round" stroke-linejoin="round"/>
<path d="M15.0977 301.994L29.9439 287.541L30.4635 310.464L15.0977 301.994Z" stroke="#2ACAF7" stroke-width="0.5" stroke-linecap="round" stroke-linejoin="round"/>
<path d="M16.6621 310.07L25.5204 321.269L30.4641 310.464L16.6621 310.07Z" stroke="#2ACAF7" stroke-width="0.5" stroke-linecap="round" stroke-linejoin="round"/>
<path d="M29.9453 287.541L46.3554 312.022L30.4649 310.464L29.9453 287.541Z" stroke="#2ACAF7" stroke-width="0.5" stroke-linecap="round" stroke-linejoin="round"/>
<path d="M24.9961 326.218L25.5207 321.27L35.6755 327.131L24.9961 326.218Z" stroke="#2ACAF7" stroke-width="0.5" stroke-linecap="round" stroke-linejoin="round"/>
<path d="M24.9961 326.219L28.2499 339.632L35.6755 327.132L24.9961 326.219Z" stroke="#2ACAF7" stroke-width="0.5" stroke-linecap="round" stroke-linejoin="round"/>
<path d="M25.5195 321.27L30.4632 310.465L35.6743 327.132L25.5195 321.27Z" stroke="#2ACAF7" stroke-width="0.5" stroke-linecap="round" stroke-linejoin="round"/>
<path d="M30.4629 310.465L46.3534 312.024L35.674 327.132L30.4629 310.465Z" stroke="#2ACAF7" stroke-width="0.5" stroke-linecap="round" stroke-linejoin="round"/>
<path d="M44.5321 338.849L46.7417 332.206L35.6738 327.131L44.5321 338.849Z" stroke="#2ACAF7" stroke-width="0.5" stroke-linecap="round" stroke-linejoin="round"/>
<path d="M46.3532 312.023L52.6035 327.525L35.6738 327.132L46.3532 312.023Z" stroke="#2ACAF7" stroke-width="0.5" stroke-linecap="round" stroke-linejoin="round"/>
<path d="M46.7417 332.206L52.6035 327.524L35.6738 327.131L46.7417 332.206Z" stroke="#2ACAF7" stroke-width="0.5" stroke-linecap="round" stroke-linejoin="round"/>
<path d="M28.25 339.632L35.2872 346.926L33.9857 339.506L28.25 339.632Z" stroke="#2ACAF7" stroke-width="0.5" stroke-linecap="round" stroke-linejoin="round"/>
<path d="M28.25 339.631L35.6756 327.131L33.9857 339.505L28.25 339.631Z" stroke="#2ACAF7" stroke-width="0.5" stroke-linecap="round" stroke-linejoin="round"/>
<path d="M35.2878 346.926L44.5346 338.85L33.9863 339.505L35.2878 346.926Z" stroke="#2ACAF7" stroke-width="0.5" stroke-linecap="round" stroke-linejoin="round"/>
<path d="M35.6763 327.131L44.5346 338.849L33.9863 339.505L35.6763 327.131Z" stroke="#2ACAF7" stroke-width="0.5" stroke-linecap="round" stroke-linejoin="round"/>
<path d="M88.5469 252.119H91.4122L91.6745 252.25L88.5469 252.119Z" stroke="#2ACAF7" stroke-width="0.5" stroke-linecap="round" stroke-linejoin="round"/>
<path d="M90.1113 247.562L91.4128 252.118L91.6751 252.249L90.1113 247.562Z" stroke="#2ACAF7" stroke-width="0.5" stroke-linecap="round" stroke-linejoin="round"/>
</g>
</g>
<defs>
<clipPath id="clip0">
<rect width="132.168" height="349" fill="white"/>
</clipPath>
</defs>
</svg>
