<svg width="349" height="198" viewBox="0 0 349 198" fill="none" xmlns="http://www.w3.org/2000/svg">
<g clip-path="url(#clip0)">
<path d="M126.541 9.83193L130.149 9.32031L129.637 15.2466L126.541 9.83193Z" stroke="#2ACAF7" stroke-width="0.5" stroke-linecap="round" stroke-linejoin="round"/>
<path d="M129.637 15.2467L136.08 17.5703L139.176 13.7012L129.637 15.2467Z" stroke="#2ACAF7" stroke-width="0.5" stroke-linecap="round" stroke-linejoin="round"/>
<path d="M147.172 8.80402L149.49 5.96879L147.428 2.35547L147.172 8.80402Z" stroke="#2ACAF7" stroke-width="0.5" stroke-linecap="round" stroke-linejoin="round"/>
<path d="M147.428 2.35547L149.49 5.96879L153.871 2.61661L147.428 2.35547Z" stroke="#2ACAF7" stroke-width="0.5" stroke-linecap="round" stroke-linejoin="round"/>
<path d="M153.871 2.61719L156.967 3.64576L162.126 5.19128L153.871 2.61719Z" stroke="#2ACAF7" stroke-width="0.5" stroke-linecap="round" stroke-linejoin="round"/>
<path d="M156.967 3.64453L162.126 5.19005L161.348 9.32032L156.967 3.64453Z" stroke="#2ACAF7" stroke-width="0.5" stroke-linecap="round" stroke-linejoin="round"/>
<path d="M163.154 13.4453L166.506 15.5078V19.8885L163.154 13.4453Z" stroke="#2ACAF7" stroke-width="0.5" stroke-linecap="round" stroke-linejoin="round"/>
<path d="M182.494 21.9518L188.682 20.4062L191.005 26.3379L182.494 21.9518Z" stroke="#2ACAF7" stroke-width="0.5" stroke-linecap="round" stroke-linejoin="round"/>
<path d="M191.006 26.3379L195.648 24.2754L198.483 30.4628L191.006 26.3379Z" stroke="#2ACAF7" stroke-width="0.5" stroke-linecap="round" stroke-linejoin="round"/>
<path d="M201.574 31.4908L201.835 27.627H205.96L201.574 31.4908Z" stroke="#2ACAF7" stroke-width="0.5" stroke-linecap="round" stroke-linejoin="round"/>
<path d="M201.574 31.4908L205.96 27.627L208.023 29.6894L201.574 31.4908Z" stroke="#2ACAF7" stroke-width="0.5" stroke-linecap="round" stroke-linejoin="round"/>
<path d="M208.021 29.6894L211.374 25.8203L217.561 33.5586L208.021 29.6894Z" stroke="#2ACAF7" stroke-width="0.5" stroke-linecap="round" stroke-linejoin="round"/>
<path d="M211.375 25.8203L218.852 29.4283L217.562 33.5586L211.375 25.8203Z" stroke="#2ACAF7" stroke-width="0.5" stroke-linecap="round" stroke-linejoin="round"/>
<path d="M218.852 29.4277L219.886 32.5241L217.562 33.558L218.852 29.4277Z" stroke="#2ACAF7" stroke-width="0.5" stroke-linecap="round" stroke-linejoin="round"/>
<path d="M208.021 29.6895L217.561 33.5586L215.754 39.4849L208.021 29.6895Z" stroke="#2ACAF7" stroke-width="0.5" stroke-linecap="round" stroke-linejoin="round"/>
<path d="M212.408 49.541L216.272 49.8022L219.107 53.666L212.408 49.541Z" stroke="#2ACAF7" stroke-width="0.5" stroke-linecap="round" stroke-linejoin="round"/>
<path d="M219.107 53.666L222.46 54.183L226.329 58.8249L219.107 53.666Z" stroke="#2ACAF7" stroke-width="0.5" stroke-linecap="round" stroke-linejoin="round"/>
<path d="M219.107 53.666L226.329 58.8249L226.59 64.2395L219.107 53.666Z" stroke="#2ACAF7" stroke-width="0.5" stroke-linecap="round" stroke-linejoin="round"/>
<path d="M239.221 66.3026L240.772 62.4388L246.442 59.8594L239.221 66.3026Z" stroke="#2ACAF7" stroke-width="0.5" stroke-linecap="round" stroke-linejoin="round"/>
<path d="M250.566 56.763L252.117 59.3424L251.339 54.1836L250.566 56.763Z" stroke="#2ACAF7" stroke-width="0.5" stroke-linecap="round" stroke-linejoin="round"/>
<path d="M245.152 49.5416L246.959 51.6041L245.152 46.1895V49.5416Z" stroke="#2ACAF7" stroke-width="0.5" stroke-linecap="round" stroke-linejoin="round"/>
<path d="M242.834 43.099L245.152 46.19L248.249 42.582L242.834 43.099Z" stroke="#2ACAF7" stroke-width="0.5" stroke-linecap="round" stroke-linejoin="round"/>
<path d="M245.152 46.1901L246.959 51.6048L254.18 44.9004L245.152 46.1901Z" stroke="#2ACAF7" stroke-width="0.5" stroke-linecap="round" stroke-linejoin="round"/>
<path d="M245.152 46.19L248.249 42.582L254.18 44.9003L245.152 46.19Z" stroke="#2ACAF7" stroke-width="0.5" stroke-linecap="round" stroke-linejoin="round"/>
<path d="M246.959 51.6048L251.34 54.1842L254.18 44.9004L246.959 51.6048Z" stroke="#2ACAF7" stroke-width="0.5" stroke-linecap="round" stroke-linejoin="round"/>
<path d="M251.34 54.1829L252.118 59.3417L261.141 49.2852L251.34 54.1829Z" stroke="#2ACAF7" stroke-width="0.5" stroke-linecap="round" stroke-linejoin="round"/>
<path d="M251.34 54.1842L254.18 44.9004L261.141 49.2865L251.34 54.1842Z" stroke="#2ACAF7" stroke-width="0.5" stroke-linecap="round" stroke-linejoin="round"/>
<path d="M254.18 44.9004L258.56 45.4173L261.14 49.2865L254.18 44.9004Z" stroke="#2ACAF7" stroke-width="0.5" stroke-linecap="round" stroke-linejoin="round"/>
<path d="M261.141 49.2852L267.072 51.6034L268.101 54.444L261.141 49.2852Z" stroke="#2ACAF7" stroke-width="0.5" stroke-linecap="round" stroke-linejoin="round"/>
<path d="M268.1 54.4454L270.679 52.8945L273.003 54.4454H268.1Z" stroke="#2ACAF7" stroke-width="0.5" stroke-linecap="round" stroke-linejoin="round"/>
<path d="M283.572 52.3762L285.896 49.2852L287.958 51.6034L283.572 52.3762Z" stroke="#2ACAF7" stroke-width="0.5" stroke-linecap="round" stroke-linejoin="round"/>
<path d="M279.445 53.6667L283.57 52.377L287.184 55.2175L279.445 53.6667Z" stroke="#2ACAF7" stroke-width="0.5" stroke-linecap="round" stroke-linejoin="round"/>
<path d="M283.572 52.3763L287.958 51.6035L287.186 55.2168L283.572 52.3763Z" stroke="#2ACAF7" stroke-width="0.5" stroke-linecap="round" stroke-linejoin="round"/>
<path d="M279.445 53.666L287.184 55.2169L286.922 59.8588L279.445 53.666Z" stroke="#2ACAF7" stroke-width="0.5" stroke-linecap="round" stroke-linejoin="round"/>
<path d="M287.185 55.2168L288.986 55.9896L286.924 59.8587L287.185 55.2168Z" stroke="#2ACAF7" stroke-width="0.5" stroke-linecap="round" stroke-linejoin="round"/>
<path d="M273.004 54.4441L279.447 53.666L281.254 62.4382L273.004 54.4441Z" stroke="#2ACAF7" stroke-width="0.5" stroke-linecap="round" stroke-linejoin="round"/>
<path d="M279.445 53.666L286.922 59.8588L281.252 62.4382L279.445 53.666Z" stroke="#2ACAF7" stroke-width="0.5" stroke-linecap="round" stroke-linejoin="round"/>
<path d="M283.572 65.5293H286.924L290.538 69.1373L283.572 65.5293Z" stroke="#2ACAF7" stroke-width="0.5" stroke-linecap="round" stroke-linejoin="round"/>
<path d="M305.49 73.2676L306.002 69.3984L308.07 73.2676H305.49Z" stroke="#2ACAF7" stroke-width="0.5" stroke-linecap="round" stroke-linejoin="round"/>
<path d="M312.713 74.041L317.094 76.3593L318.128 78.6829L312.713 74.041Z" stroke="#2ACAF7" stroke-width="0.5" stroke-linecap="round" stroke-linejoin="round"/>
<path d="M317.094 76.36L318.128 78.6836L321.219 75.0703L317.094 76.36Z" stroke="#2ACAF7" stroke-width="0.5" stroke-linecap="round" stroke-linejoin="round"/>
<path d="M318.127 78.6836L321.218 75.0703L326.121 78.1667L318.127 78.6836Z" stroke="#2ACAF7" stroke-width="0.5" stroke-linecap="round" stroke-linejoin="round"/>
<path d="M326.121 78.166L331.536 77.9102L333.337 81.5182L326.121 78.166Z" stroke="#2ACAF7" stroke-width="0.5" stroke-linecap="round" stroke-linejoin="round"/>
<path d="M326.121 78.166L332.047 84.6092L333.337 81.5182L326.121 78.166Z" stroke="#2ACAF7" stroke-width="0.5" stroke-linecap="round" stroke-linejoin="round"/>
<path d="M341.848 95.6992H344.944L346.49 99.8242L341.848 95.6992Z" stroke="#2ACAF7" stroke-width="0.5" stroke-linecap="round" stroke-linejoin="round"/>
<path d="M341.848 95.6992L346.49 99.8242L340.041 108.074L341.848 95.6992Z" stroke="#2ACAF7" stroke-width="0.5" stroke-linecap="round" stroke-linejoin="round"/>
<path d="M343.91 110.398L348.291 106.012L340.041 108.074L343.91 110.398Z" stroke="#2ACAF7" stroke-width="0.5" stroke-linecap="round" stroke-linejoin="round"/>
<path d="M346.49 99.8242L348.291 106.012L340.041 108.074L346.49 99.8242Z" stroke="#2ACAF7" stroke-width="0.5" stroke-linecap="round" stroke-linejoin="round"/>
<path d="M337.978 109.881L340.04 108.074L333.336 109.881H337.978Z" stroke="#2ACAF7" stroke-width="0.5" stroke-linecap="round" stroke-linejoin="round"/>
<path d="M326.122 124.324L326.894 120.711L320.707 126.643L326.122 124.324Z" stroke="#2ACAF7" stroke-width="0.5" stroke-linecap="round" stroke-linejoin="round"/>
<path d="M314.258 133.602L314.775 135.408L314.258 138.76V133.602Z" stroke="#2ACAF7" stroke-width="0.5" stroke-linecap="round" stroke-linejoin="round"/>
<path d="M302.139 160.681L304.457 156.551L298.014 160.164L302.139 160.681Z" stroke="#2ACAF7" stroke-width="0.5" stroke-linecap="round" stroke-linejoin="round"/>
<path d="M303.684 151.908L304.457 156.55L298.014 160.163L303.684 151.908Z" stroke="#2ACAF7" stroke-width="0.5" stroke-linecap="round" stroke-linejoin="round"/>
<path d="M285.379 169.442H287.697L283.061 167.896L285.379 169.442Z" stroke="#2ACAF7" stroke-width="0.5" stroke-linecap="round" stroke-linejoin="round"/>
<path d="M287.697 169.443L291.827 166.869L283.061 167.898L287.697 169.443Z" stroke="#2ACAF7" stroke-width="0.5" stroke-linecap="round" stroke-linejoin="round"/>
<path d="M254.953 188.01L256.499 182.595L252.891 180.016L254.953 188.01Z" stroke="#2ACAF7" stroke-width="0.5" stroke-linecap="round" stroke-linejoin="round"/>
<path d="M256.499 182.595L258.817 180.277L252.891 180.016L256.499 182.595Z" stroke="#2ACAF7" stroke-width="0.5" stroke-linecap="round" stroke-linejoin="round"/>
<path d="M258.817 180.277L259.851 175.891L252.891 180.016L258.817 180.277Z" stroke="#2ACAF7" stroke-width="0.5" stroke-linecap="round" stroke-linejoin="round"/>
<path d="M246.185 180.532L248.247 178.726L243.605 177.697L246.185 180.532Z" stroke="#2ACAF7" stroke-width="0.5" stroke-linecap="round" stroke-linejoin="round"/>
<path d="M240.771 177.952L243.606 177.697L238.191 175.117L240.771 177.952Z" stroke="#2ACAF7" stroke-width="0.5" stroke-linecap="round" stroke-linejoin="round"/>
<path d="M191.778 172.022L193.068 170.477L188.17 170.994L191.778 172.022Z" stroke="#2ACAF7" stroke-width="0.5" stroke-linecap="round" stroke-linejoin="round"/>
<path d="M188.171 170.994L193.069 170.477L182.234 166.869L188.171 170.994Z" stroke="#2ACAF7" stroke-width="0.5" stroke-linecap="round" stroke-linejoin="round"/>
<path d="M166.766 161.453L171.147 161.709L165.732 164.805L166.766 161.453Z" stroke="#2ACAF7" stroke-width="0.5" stroke-linecap="round" stroke-linejoin="round"/>
<path d="M160.058 165.318L165.734 164.806L159.029 160.42L160.058 165.318Z" stroke="#2ACAF7" stroke-width="0.5" stroke-linecap="round" stroke-linejoin="round"/>
<path d="M165.734 164.806L166.768 161.454L159.029 160.42L165.734 164.806Z" stroke="#2ACAF7" stroke-width="0.5" stroke-linecap="round" stroke-linejoin="round"/>
<path d="M147.171 181.05L150.262 178.471L142.012 179.76L147.171 181.05Z" stroke="#2ACAF7" stroke-width="0.5" stroke-linecap="round" stroke-linejoin="round"/>
<path d="M150.006 165.318L151.551 169.96L142.012 179.761L150.006 165.318Z" stroke="#2ACAF7" stroke-width="0.5" stroke-linecap="round" stroke-linejoin="round"/>
<path d="M150.262 178.471L150.779 174.602L142.012 179.76L150.262 178.471Z" stroke="#2ACAF7" stroke-width="0.5" stroke-linecap="round" stroke-linejoin="round"/>
<path d="M150.779 174.601L151.551 169.959L142.012 179.76L150.779 174.601Z" stroke="#2ACAF7" stroke-width="0.5" stroke-linecap="round" stroke-linejoin="round"/>
<path d="M147.172 181.05L150.263 178.471L149.746 180.016L147.172 181.05Z" stroke="#2ACAF7" stroke-width="0.5" stroke-linecap="round" stroke-linejoin="round"/>
<path d="M141.495 184.402L142.012 179.76L136.336 186.464L141.495 184.402Z" stroke="#2ACAF7" stroke-width="0.5" stroke-linecap="round" stroke-linejoin="round"/>
<path d="M136.336 186.465L141.495 184.402L137.37 194.715L136.336 186.465Z" stroke="#2ACAF7" stroke-width="0.5" stroke-linecap="round" stroke-linejoin="round"/>
<path d="M136.336 186.465L137.37 194.715L131.955 192.135L136.336 186.465Z" stroke="#2ACAF7" stroke-width="0.5" stroke-linecap="round" stroke-linejoin="round"/>
<path d="M131.955 192.135L137.37 194.714H134.534L131.955 192.135Z" stroke="#2ACAF7" stroke-width="0.5" stroke-linecap="round" stroke-linejoin="round"/>
<path d="M129.376 193.169L131.955 192.135L123.705 190.328L129.376 193.169Z" stroke="#2ACAF7" stroke-width="0.5" stroke-linecap="round" stroke-linejoin="round"/>
<path d="M131.955 192.135L136.336 186.465L123.705 190.329L131.955 192.135Z" stroke="#2ACAF7" stroke-width="0.5" stroke-linecap="round" stroke-linejoin="round"/>
<path d="M119.837 196.521L122.416 193.941L116.484 197.294L119.837 196.521Z" stroke="#2ACAF7" stroke-width="0.5" stroke-linecap="round" stroke-linejoin="round"/>
<path d="M100.24 191.622L102.559 194.197L102.303 189.299L100.24 191.622Z" stroke="#2ACAF7" stroke-width="0.5" stroke-linecap="round" stroke-linejoin="round"/>
<path d="M102.559 194.197H109.519L102.303 189.299L102.559 194.197Z" stroke="#2ACAF7" stroke-width="0.5" stroke-linecap="round" stroke-linejoin="round"/>
<path d="M94.0473 181.567L96.8879 184.402L89.9277 180.789L94.0473 181.567Z" stroke="#2ACAF7" stroke-width="0.5" stroke-linecap="round" stroke-linejoin="round"/>
<path d="M89.9271 180.788L94.0467 181.566L87.3477 175.891L89.9271 180.788Z" stroke="#2ACAF7" stroke-width="0.5" stroke-linecap="round" stroke-linejoin="round"/>
<path d="M68.2637 164.034L72.6498 166.608L69.2976 160.938L68.2637 164.034Z" stroke="#2ACAF7" stroke-width="0.5" stroke-linecap="round" stroke-linejoin="round"/>
<path d="M72.6491 166.608L74.9673 164.807L69.2969 160.938L72.6491 166.608Z" stroke="#2ACAF7" stroke-width="0.5" stroke-linecap="round" stroke-linejoin="round"/>
<path d="M58.724 153.716L63.6217 154.233L56.1445 151.137L58.724 153.716Z" stroke="#2ACAF7" stroke-width="0.5" stroke-linecap="round" stroke-linejoin="round"/>
<path d="M40.9349 136.182L42.9974 135.41L36.5488 134.893L40.9349 136.182Z" stroke="#2ACAF7" stroke-width="0.5" stroke-linecap="round" stroke-linejoin="round"/>
<path d="M36.5487 134.892L42.9973 135.409L32.168 128.705L36.5487 134.892Z" stroke="#2ACAF7" stroke-width="0.5" stroke-linecap="round" stroke-linejoin="round"/>
<path d="M29.8457 128.444L32.1693 128.706L28.0391 121.229L29.8457 128.444Z" stroke="#2ACAF7" stroke-width="0.5" stroke-linecap="round" stroke-linejoin="round"/>
<path d="M24.4297 117.359L28.0377 121.228L24.4297 114.523V117.359Z" stroke="#2ACAF7" stroke-width="0.5" stroke-linecap="round" stroke-linejoin="round"/>
<path d="M22.3672 111.687L24.4297 114.522L22.623 109.107L22.3672 111.687Z" stroke="#2ACAF7" stroke-width="0.5" stroke-linecap="round" stroke-linejoin="round"/>
<path d="M19.2715 108.075L22.6237 109.109L19.2715 100.598V108.075Z" stroke="#2ACAF7" stroke-width="0.5" stroke-linecap="round" stroke-linejoin="round"/>
<path d="M16.1797 102.404L19.2707 108.075V100.598L16.1797 102.404Z" stroke="#2ACAF7" stroke-width="0.5" stroke-linecap="round" stroke-linejoin="round"/>
<path d="M20.0488 88.2233L23.9126 92.0871L20.5605 85.127L20.0488 88.2233Z" stroke="#2ACAF7" stroke-width="0.5" stroke-linecap="round" stroke-linejoin="round"/>
<path d="M0.708984 62.9505L5.08974 65.5299L2.25451 60.3711L0.708984 62.9505Z" stroke="#2ACAF7" stroke-width="0.5" stroke-linecap="round" stroke-linejoin="round"/>
<path d="M2.25391 60.371L3.02667 56.2461L6.8958 59.5983L2.25391 60.371Z" stroke="#2ACAF7" stroke-width="0.5" stroke-linecap="round" stroke-linejoin="round"/>
<path d="M2.25391 60.3704L5.08914 65.5293L6.8958 59.5977L2.25391 60.3704Z" stroke="#2ACAF7" stroke-width="0.5" stroke-linecap="round" stroke-linejoin="round"/>
<path d="M5.08984 65.5293L6.8965 59.5977L9.22012 62.4382L5.08984 65.5293Z" stroke="#2ACAF7" stroke-width="0.5" stroke-linecap="round" stroke-linejoin="round"/>
<path d="M5.08984 65.5293L5.60679 72.7506L10.5045 66.5632L5.08984 65.5293Z" stroke="#2ACAF7" stroke-width="0.5" stroke-linecap="round" stroke-linejoin="round"/>
<path d="M5.08984 65.5305L9.22012 62.4395L10.5045 66.5644L5.08984 65.5305Z" stroke="#2ACAF7" stroke-width="0.5" stroke-linecap="round" stroke-linejoin="round"/>
<path d="M9.2207 62.4395L10.5051 66.5644L11.022 62.9511L9.2207 62.4395Z" stroke="#2ACAF7" stroke-width="0.5" stroke-linecap="round" stroke-linejoin="round"/>
<path d="M5.60547 72.7519L9.21879 76.6158L12.8268 68.8828L5.60547 72.7519Z" stroke="#2ACAF7" stroke-width="0.5" stroke-linecap="round" stroke-linejoin="round"/>
<path d="M5.60547 72.7519L10.5032 66.5645L12.8268 68.8827L5.60547 72.7519Z" stroke="#2ACAF7" stroke-width="0.5" stroke-linecap="round" stroke-linejoin="round"/>
<path d="M9.2207 76.6157L14.63 81.5188L12.8287 68.8828L9.2207 76.6157Z" stroke="#2ACAF7" stroke-width="0.5" stroke-linecap="round" stroke-linejoin="round"/>
<path d="M13.8555 63.4674L17.9804 56.763L21.3326 55.9902L13.8555 63.4674Z" stroke="#2ACAF7" stroke-width="0.5" stroke-linecap="round" stroke-linejoin="round"/>
<path d="M21.334 55.9908L21.8509 52.8944L28.8164 50.3203L21.334 55.9908Z" stroke="#2ACAF7" stroke-width="0.5" stroke-linecap="round" stroke-linejoin="round"/>
<path d="M21.334 55.9908L28.8164 50.3203L31.6517 51.0931L21.334 55.9908Z" stroke="#2ACAF7" stroke-width="0.5" stroke-linecap="round" stroke-linejoin="round"/>
<path d="M45.0605 49.541L47.8958 43.6094L51.248 44.1263L45.0605 49.541Z" stroke="#2ACAF7" stroke-width="0.5" stroke-linecap="round" stroke-linejoin="round"/>
<path d="M51.248 44.1275L54.6002 42.3262L57.4355 43.8717L51.248 44.1275Z" stroke="#2ACAF7" stroke-width="0.5" stroke-linecap="round" stroke-linejoin="round"/>
<path d="M54.5996 42.3262L57.4348 43.8717V38.7129L54.5996 42.3262Z" stroke="#2ACAF7" stroke-width="0.5" stroke-linecap="round" stroke-linejoin="round"/>
<path d="M57.4355 43.8718V38.7129L60.5319 36.9062L57.4355 43.8718Z" stroke="#2ACAF7" stroke-width="0.5" stroke-linecap="round" stroke-linejoin="round"/>
<path d="M57.4355 43.8718L60.5319 36.9062H62.5944L57.4355 43.8718Z" stroke="#2ACAF7" stroke-width="0.5" stroke-linecap="round" stroke-linejoin="round"/>
<path d="M62.5938 36.9061L66.7187 32.2695L69.5539 34.849L62.5938 36.9061Z" stroke="#2ACAF7" stroke-width="0.5" stroke-linecap="round" stroke-linejoin="round"/>
<path d="M74.4512 32.5253V27.8834L81.6725 26.082L74.4512 32.5253Z" stroke="#2ACAF7" stroke-width="0.5" stroke-linecap="round" stroke-linejoin="round"/>
<path d="M89.1504 25.0475L96.3717 19.8887H101.269L89.1504 25.0475Z" stroke="#2ACAF7" stroke-width="0.5" stroke-linecap="round" stroke-linejoin="round"/>
<path d="M96.3711 19.8892H101.269L105.138 16.2812L96.3711 19.8892Z" stroke="#2ACAF7" stroke-width="0.5" stroke-linecap="round" stroke-linejoin="round"/>
<path d="M112.098 0.548828L117.512 2.87244L114.421 6.22462L112.098 0.548828Z" stroke="#2ACAF7" stroke-width="0.5" stroke-linecap="round" stroke-linejoin="round"/>
<path d="M112.871 7.77013L117.001 9.8326L114.422 6.22461L112.871 7.77013Z" stroke="#2ACAF7" stroke-width="0.5" stroke-linecap="round" stroke-linejoin="round"/>
<path d="M112.098 0.548828L114.422 6.22462L110.553 4.6791L112.098 0.548828Z" stroke="#2ACAF7" stroke-width="0.5" stroke-linecap="round" stroke-linejoin="round"/>
<path d="M112.871 7.77073L114.422 6.22521L110.553 4.67969L112.871 7.77073Z" stroke="#2ACAF7" stroke-width="0.5" stroke-linecap="round" stroke-linejoin="round"/>
<path d="M114.422 6.22393L117.001 9.83193L119.581 5.45117L114.422 6.22393Z" stroke="#2ACAF7" stroke-width="0.5" stroke-linecap="round" stroke-linejoin="round"/>
<path d="M114.422 6.22523L117.513 2.87305L119.581 5.45247L114.422 6.22523Z" stroke="#2ACAF7" stroke-width="0.5" stroke-linecap="round" stroke-linejoin="round"/>
<path d="M117.514 2.87174L121.9 1.58203L119.581 5.45116L117.514 2.87174Z" stroke="#2ACAF7" stroke-width="0.5" stroke-linecap="round" stroke-linejoin="round"/>
<path d="M121.898 1.58203L128.603 6.22392L119.58 5.45116L121.898 1.58203Z" stroke="#2ACAF7" stroke-width="0.5" stroke-linecap="round" stroke-linejoin="round"/>
<path d="M126.54 9.83193L128.603 6.22393L119.58 5.45117L126.54 9.83193Z" stroke="#2ACAF7" stroke-width="0.5" stroke-linecap="round" stroke-linejoin="round"/>
<path d="M117.002 11.8945V9.83203L121.9 10.6048L117.002 11.8945Z" stroke="#2ACAF7" stroke-width="0.5" stroke-linecap="round" stroke-linejoin="round"/>
<path d="M117.002 9.83193L119.581 5.45117L121.9 10.6047L117.002 9.83193Z" stroke="#2ACAF7" stroke-width="0.5" stroke-linecap="round" stroke-linejoin="round"/>
<path d="M119.58 5.45117L126.54 9.83193L121.898 10.6047L119.58 5.45117Z" stroke="#2ACAF7" stroke-width="0.5" stroke-linecap="round" stroke-linejoin="round"/>
<path d="M126.54 9.83203L129.637 15.2467L121.898 10.6048L126.54 9.83203Z" stroke="#2ACAF7" stroke-width="0.5" stroke-linecap="round" stroke-linejoin="round"/>
<path d="M101.27 19.8892L105.139 16.2812L118.292 21.9517L101.27 19.8892Z" stroke="#2ACAF7" stroke-width="0.5" stroke-linecap="round" stroke-linejoin="round"/>
<path d="M105.139 16.2819L110.809 13.1855L118.292 21.9524L105.139 16.2819Z" stroke="#2ACAF7" stroke-width="0.5" stroke-linecap="round" stroke-linejoin="round"/>
<path d="M110.809 13.1842L117.001 11.8945L118.291 21.9511L110.809 13.1842Z" stroke="#2ACAF7" stroke-width="0.5" stroke-linecap="round" stroke-linejoin="round"/>
<path d="M117.002 11.8952L121.9 10.6055L118.292 21.9517L117.002 11.8952Z" stroke="#2ACAF7" stroke-width="0.5" stroke-linecap="round" stroke-linejoin="round"/>
<path d="M121.899 10.6055L129.637 15.2474L118.291 21.9517L121.899 10.6055Z" stroke="#2ACAF7" stroke-width="0.5" stroke-linecap="round" stroke-linejoin="round"/>
<path d="M147.172 8.80469L147.428 13.1854L155.161 8.80469H147.172Z" stroke="#2ACAF7" stroke-width="0.5" stroke-linecap="round" stroke-linejoin="round"/>
<path d="M147.172 8.80398L149.49 5.96875L155.161 8.80398H147.172Z" stroke="#2ACAF7" stroke-width="0.5" stroke-linecap="round" stroke-linejoin="round"/>
<path d="M149.488 5.96937L153.869 2.61719L155.159 8.8046L149.488 5.96937Z" stroke="#2ACAF7" stroke-width="0.5" stroke-linecap="round" stroke-linejoin="round"/>
<path d="M153.871 2.61719L156.967 3.64576L155.161 8.8046L153.871 2.61719Z" stroke="#2ACAF7" stroke-width="0.5" stroke-linecap="round" stroke-linejoin="round"/>
<path d="M156.967 3.64453L161.348 9.32032L155.16 8.80337L156.967 3.64453Z" stroke="#2ACAF7" stroke-width="0.5" stroke-linecap="round" stroke-linejoin="round"/>
<path d="M161.348 9.32164L163.154 13.4466L155.16 8.80469L161.348 9.32164Z" stroke="#2ACAF7" stroke-width="0.5" stroke-linecap="round" stroke-linejoin="round"/>
<path d="M147.428 13.1854L155.161 8.80469L154.132 20.4068L147.428 13.1854Z" stroke="#2ACAF7" stroke-width="0.5" stroke-linecap="round" stroke-linejoin="round"/>
<path d="M155.159 8.80469L163.154 13.4466L154.131 20.4068L155.159 8.80469Z" stroke="#2ACAF7" stroke-width="0.5" stroke-linecap="round" stroke-linejoin="round"/>
<path d="M163.154 13.4453L166.506 19.8885L154.131 20.4055L163.154 13.4453Z" stroke="#2ACAF7" stroke-width="0.5" stroke-linecap="round" stroke-linejoin="round"/>
<path d="M136.08 17.5703L139.176 13.7012L139.432 27.1099L136.08 17.5703Z" stroke="#2ACAF7" stroke-width="0.5" stroke-linecap="round" stroke-linejoin="round"/>
<path d="M139.178 13.7025L147.428 13.1855L139.434 27.1112L139.178 13.7025Z" stroke="#2ACAF7" stroke-width="0.5" stroke-linecap="round" stroke-linejoin="round"/>
<path d="M147.428 13.1855L154.132 20.4069L139.434 27.1112L147.428 13.1855Z" stroke="#2ACAF7" stroke-width="0.5" stroke-linecap="round" stroke-linejoin="round"/>
<path d="M118.291 21.9524L129.637 15.248L123.961 31.2362L118.291 21.9524Z" stroke="#2ACAF7" stroke-width="0.5" stroke-linecap="round" stroke-linejoin="round"/>
<path d="M129.637 15.248L136.08 17.5717L123.961 31.2362L129.637 15.248Z" stroke="#2ACAF7" stroke-width="0.5" stroke-linecap="round" stroke-linejoin="round"/>
<path d="M136.08 17.5703L139.432 27.1099L123.961 31.2349L136.08 17.5703Z" stroke="#2ACAF7" stroke-width="0.5" stroke-linecap="round" stroke-linejoin="round"/>
<path d="M123.961 31.2363L139.432 27.1113L138.398 41.037L123.961 31.2363Z" stroke="#2ACAF7" stroke-width="0.5" stroke-linecap="round" stroke-linejoin="round"/>
<path d="M138.398 41.037L139.432 27.1113L156.966 33.8157L138.398 41.037Z" stroke="#2ACAF7" stroke-width="0.5" stroke-linecap="round" stroke-linejoin="round"/>
<path d="M139.434 27.1106L154.132 20.4062L156.967 33.815L139.434 27.1106Z" stroke="#2ACAF7" stroke-width="0.5" stroke-linecap="round" stroke-linejoin="round"/>
<path d="M154.131 20.4056L166.506 19.8887L156.966 33.8144L154.131 20.4056Z" stroke="#2ACAF7" stroke-width="0.5" stroke-linecap="round" stroke-linejoin="round"/>
<path d="M156.967 33.8144L166.506 19.8887L170.631 30.718L156.967 33.8144Z" stroke="#2ACAF7" stroke-width="0.5" stroke-linecap="round" stroke-linejoin="round"/>
<path d="M166.506 19.8892L169.858 18.0879L170.631 30.7185L166.506 19.8892Z" stroke="#2ACAF7" stroke-width="0.5" stroke-linecap="round" stroke-linejoin="round"/>
<path d="M169.857 18.0879L179.397 19.8892L170.63 30.7185L169.857 18.0879Z" stroke="#2ACAF7" stroke-width="0.5" stroke-linecap="round" stroke-linejoin="round"/>
<path d="M179.398 19.8887L182.494 21.9511L170.631 30.718L179.398 19.8887Z" stroke="#2ACAF7" stroke-width="0.5" stroke-linecap="round" stroke-linejoin="round"/>
<path d="M170.631 30.718L182.494 21.9512L187.136 33.2974L170.631 30.718Z" stroke="#2ACAF7" stroke-width="0.5" stroke-linecap="round" stroke-linejoin="round"/>
<path d="M182.494 21.9512L191.005 26.3373L187.136 33.2974L182.494 21.9512Z" stroke="#2ACAF7" stroke-width="0.5" stroke-linecap="round" stroke-linejoin="round"/>
<path d="M191.006 26.3379L198.483 30.4628L187.137 33.2981L191.006 26.3379Z" stroke="#2ACAF7" stroke-width="0.5" stroke-linecap="round" stroke-linejoin="round"/>
<path d="M198.482 30.4629L201.573 31.4915L204.414 34.5878L198.482 30.4629Z" stroke="#2ACAF7" stroke-width="0.5" stroke-linecap="round" stroke-linejoin="round"/>
<path d="M201.574 31.4908L208.023 29.6895L204.415 34.5872L201.574 31.4908Z" stroke="#2ACAF7" stroke-width="0.5" stroke-linecap="round" stroke-linejoin="round"/>
<path d="M208.022 29.6895L215.755 39.4849L204.414 34.5872L208.022 29.6895Z" stroke="#2ACAF7" stroke-width="0.5" stroke-linecap="round" stroke-linejoin="round"/>
<path d="M210.857 42.8378L215.755 39.4856L204.414 34.5879L210.857 42.8378Z" stroke="#2ACAF7" stroke-width="0.5" stroke-linecap="round" stroke-linejoin="round"/>
<path d="M187.137 33.2981L198.483 30.4629L195.648 45.4171L187.137 33.2981Z" stroke="#2ACAF7" stroke-width="0.5" stroke-linecap="round" stroke-linejoin="round"/>
<path d="M198.482 30.4629L204.413 34.5878L195.646 45.4171L198.482 30.4629Z" stroke="#2ACAF7" stroke-width="0.5" stroke-linecap="round" stroke-linejoin="round"/>
<path d="M204.413 34.5879L210.857 42.8378L195.646 45.4172L204.413 34.5879Z" stroke="#2ACAF7" stroke-width="0.5" stroke-linecap="round" stroke-linejoin="round"/>
<path d="M210.857 42.8379L212.407 49.5423L195.646 45.4173L210.857 42.8379Z" stroke="#2ACAF7" stroke-width="0.5" stroke-linecap="round" stroke-linejoin="round"/>
<path d="M156.967 33.8151L170.631 30.7188L173.472 42.065L156.967 33.8151Z" stroke="#2ACAF7" stroke-width="0.5" stroke-linecap="round" stroke-linejoin="round"/>
<path d="M170.631 30.7188L187.136 33.2982L173.471 42.065L170.631 30.7188Z" stroke="#2ACAF7" stroke-width="0.5" stroke-linecap="round" stroke-linejoin="round"/>
<path d="M187.137 33.2969L195.648 45.4159L173.473 42.0637L187.137 33.2969Z" stroke="#2ACAF7" stroke-width="0.5" stroke-linecap="round" stroke-linejoin="round"/>
<path d="M138.398 41.0358L156.966 33.8145L151.551 46.7062L138.398 41.0358Z" stroke="#2ACAF7" stroke-width="0.5" stroke-linecap="round" stroke-linejoin="round"/>
<path d="M156.965 33.8145L173.471 42.0643L151.551 46.7062L156.965 33.8145Z" stroke="#2ACAF7" stroke-width="0.5" stroke-linecap="round" stroke-linejoin="round"/>
<path d="M151.551 46.7063L173.471 42.0645L167.539 57.024L151.551 46.7063Z" stroke="#2ACAF7" stroke-width="0.5" stroke-linecap="round" stroke-linejoin="round"/>
<path d="M167.539 57.024L173.471 42.0645L183.783 56.2459L167.539 57.024Z" stroke="#2ACAF7" stroke-width="0.5" stroke-linecap="round" stroke-linejoin="round"/>
<path d="M173.473 42.0645L195.648 45.4166L183.785 56.2459L173.473 42.0645Z" stroke="#2ACAF7" stroke-width="0.5" stroke-linecap="round" stroke-linejoin="round"/>
<path d="M183.783 56.2453L195.646 45.416L205.186 56.7623L183.783 56.2453Z" stroke="#2ACAF7" stroke-width="0.5" stroke-linecap="round" stroke-linejoin="round"/>
<path d="M183.783 56.2461L198.221 69.1379L205.186 56.763L183.783 56.2461Z" stroke="#2ACAF7" stroke-width="0.5" stroke-linecap="round" stroke-linejoin="round"/>
<path d="M195.646 45.416L212.407 49.541L205.186 56.7623L195.646 45.416Z" stroke="#2ACAF7" stroke-width="0.5" stroke-linecap="round" stroke-linejoin="round"/>
<path d="M212.409 49.541L219.108 53.666L205.188 56.7623L212.409 49.541Z" stroke="#2ACAF7" stroke-width="0.5" stroke-linecap="round" stroke-linejoin="round"/>
<path d="M219.108 53.666L226.59 64.2395L205.188 56.7624L219.108 53.666Z" stroke="#2ACAF7" stroke-width="0.5" stroke-linecap="round" stroke-linejoin="round"/>
<path d="M198.221 69.1385L205.186 56.7637L219.624 76.8768L198.221 69.1385Z" stroke="#2ACAF7" stroke-width="0.5" stroke-linecap="round" stroke-linejoin="round"/>
<path d="M205.188 56.7637L226.59 64.2408L219.625 76.8768L205.188 56.7637Z" stroke="#2ACAF7" stroke-width="0.5" stroke-linecap="round" stroke-linejoin="round"/>
<path d="M226.591 64.2402L230.715 67.5924L219.625 76.8762L226.591 64.2402Z" stroke="#2ACAF7" stroke-width="0.5" stroke-linecap="round" stroke-linejoin="round"/>
<path d="M219.625 76.8756L230.715 67.5918L236.386 81.0005L219.625 76.8756Z" stroke="#2ACAF7" stroke-width="0.5" stroke-linecap="round" stroke-linejoin="round"/>
<path d="M230.715 67.5918L235.868 69.3985L236.385 81.0005L230.715 67.5918Z" stroke="#2ACAF7" stroke-width="0.5" stroke-linecap="round" stroke-linejoin="round"/>
<path d="M235.869 69.3991L239.221 66.3027L236.386 81.0012L235.869 69.3991Z" stroke="#2ACAF7" stroke-width="0.5" stroke-linecap="round" stroke-linejoin="round"/>
<path d="M236.385 81.0012L239.22 66.3027L254.691 75.3307L236.385 81.0012Z" stroke="#2ACAF7" stroke-width="0.5" stroke-linecap="round" stroke-linejoin="round"/>
<path d="M239.221 66.3026L246.442 59.8594L254.692 75.3306L239.221 66.3026Z" stroke="#2ACAF7" stroke-width="0.5" stroke-linecap="round" stroke-linejoin="round"/>
<path d="M246.441 59.8587L249.021 59.3418L254.691 75.33L246.441 59.8587Z" stroke="#2ACAF7" stroke-width="0.5" stroke-linecap="round" stroke-linejoin="round"/>
<path d="M249.021 59.3418H252.118L254.692 75.33L249.021 59.3418Z" stroke="#2ACAF7" stroke-width="0.5" stroke-linecap="round" stroke-linejoin="round"/>
<path d="M252.117 59.3418L254.691 75.33L263.458 60.6315L252.117 59.3418Z" stroke="#2ACAF7" stroke-width="0.5" stroke-linecap="round" stroke-linejoin="round"/>
<path d="M252.117 59.3417L261.14 49.2852L263.458 60.6314L252.117 59.3417Z" stroke="#2ACAF7" stroke-width="0.5" stroke-linecap="round" stroke-linejoin="round"/>
<path d="M261.141 49.2852L268.101 54.444L263.459 60.6314L261.141 49.2852Z" stroke="#2ACAF7" stroke-width="0.5" stroke-linecap="round" stroke-linejoin="round"/>
<path d="M268.101 54.4453H273.004L263.459 60.6327L268.101 54.4453Z" stroke="#2ACAF7" stroke-width="0.5" stroke-linecap="round" stroke-linejoin="round"/>
<path d="M254.691 75.3313L263.458 60.6328L271.713 68.3657L254.691 75.3313Z" stroke="#2ACAF7" stroke-width="0.5" stroke-linecap="round" stroke-linejoin="round"/>
<path d="M263.459 60.6327L273.004 54.4453L271.714 68.3657L263.459 60.6327Z" stroke="#2ACAF7" stroke-width="0.5" stroke-linecap="round" stroke-linejoin="round"/>
<path d="M273.003 54.4453L281.253 62.4394L271.713 68.3657L273.003 54.4453Z" stroke="#2ACAF7" stroke-width="0.5" stroke-linecap="round" stroke-linejoin="round"/>
<path d="M281.252 62.4395L283.571 65.5305L271.713 68.3657L281.252 62.4395Z" stroke="#2ACAF7" stroke-width="0.5" stroke-linecap="round" stroke-linejoin="round"/>
<path d="M271.713 68.3645L283.571 65.5293L285.122 80.2277L271.713 68.3645Z" stroke="#2ACAF7" stroke-width="0.5" stroke-linecap="round" stroke-linejoin="round"/>
<path d="M283.572 65.5293L290.538 69.1373L285.123 80.2277L283.572 65.5293Z" stroke="#2ACAF7" stroke-width="0.5" stroke-linecap="round" stroke-linejoin="round"/>
<path d="M290.538 69.1387L291.566 73.7806L285.123 80.2291L290.538 69.1387Z" stroke="#2ACAF7" stroke-width="0.5" stroke-linecap="round" stroke-linejoin="round"/>
<path d="M291.566 73.7793L297.498 76.1029L285.123 80.2278L291.566 73.7793Z" stroke="#2ACAF7" stroke-width="0.5" stroke-linecap="round" stroke-linejoin="round"/>
<path d="M297.496 76.1028L301.621 73.2676L307.036 83.3188L297.496 76.1028Z" stroke="#2ACAF7" stroke-width="0.5" stroke-linecap="round" stroke-linejoin="round"/>
<path d="M301.623 73.2676H305.492L307.038 83.3188L301.623 73.2676Z" stroke="#2ACAF7" stroke-width="0.5" stroke-linecap="round" stroke-linejoin="round"/>
<path d="M305.49 73.2676H308.07L307.036 83.3188L305.49 73.2676Z" stroke="#2ACAF7" stroke-width="0.5" stroke-linecap="round" stroke-linejoin="round"/>
<path d="M308.071 73.2676L310.906 74.0403L307.037 83.3188L308.071 73.2676Z" stroke="#2ACAF7" stroke-width="0.5" stroke-linecap="round" stroke-linejoin="round"/>
<path d="M310.906 74.041H312.713L307.037 83.3195L310.906 74.041Z" stroke="#2ACAF7" stroke-width="0.5" stroke-linecap="round" stroke-linejoin="round"/>
<path d="M312.713 74.041L318.128 78.6829L307.037 83.3195L312.713 74.041Z" stroke="#2ACAF7" stroke-width="0.5" stroke-linecap="round" stroke-linejoin="round"/>
<path d="M307.037 83.3202L318.128 78.6836L321.991 92.8651L307.037 83.3202Z" stroke="#2ACAF7" stroke-width="0.5" stroke-linecap="round" stroke-linejoin="round"/>
<path d="M318.127 78.683L326.121 78.166L321.991 92.8645L318.127 78.683Z" stroke="#2ACAF7" stroke-width="0.5" stroke-linecap="round" stroke-linejoin="round"/>
<path d="M326.121 78.166L332.047 84.6092L321.99 92.8645L326.121 78.166Z" stroke="#2ACAF7" stroke-width="0.5" stroke-linecap="round" stroke-linejoin="round"/>
<path d="M332.047 84.6094L334.109 88.4785L321.99 92.8646L332.047 84.6094Z" stroke="#2ACAF7" stroke-width="0.5" stroke-linecap="round" stroke-linejoin="round"/>
<path d="M321.99 92.8646L334.109 88.4785L329.212 101.114L321.99 92.8646Z" stroke="#2ACAF7" stroke-width="0.5" stroke-linecap="round" stroke-linejoin="round"/>
<path d="M333.338 109.88L340.042 108.073L329.213 101.113L333.338 109.88Z" stroke="#2ACAF7" stroke-width="0.5" stroke-linecap="round" stroke-linejoin="round"/>
<path d="M334.111 88.4785L336.434 92.3476L329.213 101.114L334.111 88.4785Z" stroke="#2ACAF7" stroke-width="0.5" stroke-linecap="round" stroke-linejoin="round"/>
<path d="M336.434 92.3477L339.531 93.3762L329.213 101.114L336.434 92.3477Z" stroke="#2ACAF7" stroke-width="0.5" stroke-linecap="round" stroke-linejoin="round"/>
<path d="M339.531 93.375L341.849 95.6986L329.213 101.113L339.531 93.375Z" stroke="#2ACAF7" stroke-width="0.5" stroke-linecap="round" stroke-linejoin="round"/>
<path d="M340.042 108.074L341.849 95.6992L329.213 101.114L340.042 108.074Z" stroke="#2ACAF7" stroke-width="0.5" stroke-linecap="round" stroke-linejoin="round"/>
<path d="M316.32 128.188L320.706 126.643L317.093 114.779L316.32 128.188Z" stroke="#2ACAF7" stroke-width="0.5" stroke-linecap="round" stroke-linejoin="round"/>
<path d="M320.707 126.643L326.894 120.711L317.094 114.779L320.707 126.643Z" stroke="#2ACAF7" stroke-width="0.5" stroke-linecap="round" stroke-linejoin="round"/>
<path d="M326.895 120.711L329.474 118.904L317.094 114.779L326.895 120.711Z" stroke="#2ACAF7" stroke-width="0.5" stroke-linecap="round" stroke-linejoin="round"/>
<path d="M329.213 101.113L333.338 109.88L317.094 114.778L329.213 101.113Z" stroke="#2ACAF7" stroke-width="0.5" stroke-linecap="round" stroke-linejoin="round"/>
<path d="M329.474 118.904L332.826 113.75L317.094 114.779L329.474 118.904Z" stroke="#2ACAF7" stroke-width="0.5" stroke-linecap="round" stroke-linejoin="round"/>
<path d="M332.826 113.75L333.338 109.881L317.094 114.779L332.826 113.75Z" stroke="#2ACAF7" stroke-width="0.5" stroke-linecap="round" stroke-linejoin="round"/>
<path d="M314.258 133.602L316.32 128.187L303.945 125.607L314.258 133.602Z" stroke="#2ACAF7" stroke-width="0.5" stroke-linecap="round" stroke-linejoin="round"/>
<path d="M316.32 128.188L317.093 114.779L303.945 125.609L316.32 128.188Z" stroke="#2ACAF7" stroke-width="0.5" stroke-linecap="round" stroke-linejoin="round"/>
<path d="M303.945 125.607L314.258 133.602L301.883 134.118L303.945 125.607Z" stroke="#2ACAF7" stroke-width="0.5" stroke-linecap="round" stroke-linejoin="round"/>
<path d="M314.258 138.76V133.602L301.883 134.119L314.258 138.76Z" stroke="#2ACAF7" stroke-width="0.5" stroke-linecap="round" stroke-linejoin="round"/>
<path d="M301.883 134.119L314.258 138.761L302.656 145.721L301.883 134.119Z" stroke="#2ACAF7" stroke-width="0.5" stroke-linecap="round" stroke-linejoin="round"/>
<path d="M303.685 151.908H308.071L302.656 145.721L303.685 151.908Z" stroke="#2ACAF7" stroke-width="0.5" stroke-linecap="round" stroke-linejoin="round"/>
<path d="M308.071 151.908L311.935 150.88L302.656 145.721L308.071 151.908Z" stroke="#2ACAF7" stroke-width="0.5" stroke-linecap="round" stroke-linejoin="round"/>
<path d="M311.935 150.881L315.548 144.949L302.656 145.722L311.935 150.881Z" stroke="#2ACAF7" stroke-width="0.5" stroke-linecap="round" stroke-linejoin="round"/>
<path d="M314.258 138.762L315.548 144.949L302.656 145.722L314.258 138.762Z" stroke="#2ACAF7" stroke-width="0.5" stroke-linecap="round" stroke-linejoin="round"/>
<path d="M283.061 167.897L291.827 166.868L290.538 152.17L283.061 167.897Z" stroke="#2ACAF7" stroke-width="0.5" stroke-linecap="round" stroke-linejoin="round"/>
<path d="M291.827 166.868L298.014 160.164L290.537 152.17L291.827 166.868Z" stroke="#2ACAF7" stroke-width="0.5" stroke-linecap="round" stroke-linejoin="round"/>
<path d="M298.014 160.163L303.685 151.908L290.537 152.169L298.014 160.163Z" stroke="#2ACAF7" stroke-width="0.5" stroke-linecap="round" stroke-linejoin="round"/>
<path d="M302.656 145.721L303.685 151.908L290.537 152.169L302.656 145.721Z" stroke="#2ACAF7" stroke-width="0.5" stroke-linecap="round" stroke-linejoin="round"/>
<path d="M265.525 167.641L271.452 166.868L275.321 160.164L265.525 167.641Z" stroke="#2ACAF7" stroke-width="0.5" stroke-linecap="round" stroke-linejoin="round"/>
<path d="M271.451 166.868L279.189 167.124L275.32 160.164L271.451 166.868Z" stroke="#2ACAF7" stroke-width="0.5" stroke-linecap="round" stroke-linejoin="round"/>
<path d="M279.191 167.124L283.061 167.897L275.322 160.164L279.191 167.124Z" stroke="#2ACAF7" stroke-width="0.5" stroke-linecap="round" stroke-linejoin="round"/>
<path d="M283.061 167.897L290.538 152.17L275.322 160.164L283.061 167.897Z" stroke="#2ACAF7" stroke-width="0.5" stroke-linecap="round" stroke-linejoin="round"/>
<path d="M252.89 180.017L259.85 175.892L250.311 169.443L252.89 180.017Z" stroke="#2ACAF7" stroke-width="0.5" stroke-linecap="round" stroke-linejoin="round"/>
<path d="M259.85 175.892L262.685 172.284L250.311 169.443L259.85 175.892Z" stroke="#2ACAF7" stroke-width="0.5" stroke-linecap="round" stroke-linejoin="round"/>
<path d="M262.685 172.283L265.526 167.641L250.311 169.442L262.685 172.283Z" stroke="#2ACAF7" stroke-width="0.5" stroke-linecap="round" stroke-linejoin="round"/>
<path d="M238.191 175.119L243.606 177.699L250.31 169.443L238.191 175.119Z" stroke="#2ACAF7" stroke-width="0.5" stroke-linecap="round" stroke-linejoin="round"/>
<path d="M243.605 177.699L248.247 178.727L250.31 169.443L243.605 177.699Z" stroke="#2ACAF7" stroke-width="0.5" stroke-linecap="round" stroke-linejoin="round"/>
<path d="M248.248 178.727L252.89 180.017L250.311 169.443L248.248 178.727Z" stroke="#2ACAF7" stroke-width="0.5" stroke-linecap="round" stroke-linejoin="round"/>
<path d="M232.516 173.312L238.191 175.119L244.123 160.682L232.516 173.312Z" stroke="#2ACAF7" stroke-width="0.5" stroke-linecap="round" stroke-linejoin="round"/>
<path d="M238.191 175.119L250.31 169.443L244.123 160.682L238.191 175.119Z" stroke="#2ACAF7" stroke-width="0.5" stroke-linecap="round" stroke-linejoin="round"/>
<path d="M265.526 167.641L275.321 160.163L256.754 151.908L265.526 167.641Z" stroke="#2ACAF7" stroke-width="0.5" stroke-linecap="round" stroke-linejoin="round"/>
<path d="M244.123 160.68L250.31 169.442L256.754 151.908L244.123 160.68Z" stroke="#2ACAF7" stroke-width="0.5" stroke-linecap="round" stroke-linejoin="round"/>
<path d="M250.311 169.442L265.526 167.641L256.754 151.908L250.311 169.442Z" stroke="#2ACAF7" stroke-width="0.5" stroke-linecap="round" stroke-linejoin="round"/>
<path d="M256.754 151.908L275.321 160.163L272.742 143.146L256.754 151.908Z" stroke="#2ACAF7" stroke-width="0.5" stroke-linecap="round" stroke-linejoin="round"/>
<path d="M275.322 160.163L290.537 152.169L272.742 143.146L275.322 160.163Z" stroke="#2ACAF7" stroke-width="0.5" stroke-linecap="round" stroke-linejoin="round"/>
<path d="M272.742 143.147L290.537 152.17L289.503 136.182L272.742 143.147Z" stroke="#2ACAF7" stroke-width="0.5" stroke-linecap="round" stroke-linejoin="round"/>
<path d="M290.538 152.17L302.657 145.721L289.504 136.182L290.538 152.17Z" stroke="#2ACAF7" stroke-width="0.5" stroke-linecap="round" stroke-linejoin="round"/>
<path d="M301.884 134.119L302.657 145.721L289.504 136.182L301.884 134.119Z" stroke="#2ACAF7" stroke-width="0.5" stroke-linecap="round" stroke-linejoin="round"/>
<path d="M289.503 136.182L301.883 134.119L288.469 120.193L289.503 136.182Z" stroke="#2ACAF7" stroke-width="0.5" stroke-linecap="round" stroke-linejoin="round"/>
<path d="M301.883 134.119L303.945 125.608L288.469 120.193L301.883 134.119Z" stroke="#2ACAF7" stroke-width="0.5" stroke-linecap="round" stroke-linejoin="round"/>
<path d="M288.469 120.194L303.945 125.608L301.105 106.529L288.469 120.194Z" stroke="#2ACAF7" stroke-width="0.5" stroke-linecap="round" stroke-linejoin="round"/>
<path d="M303.946 125.608L317.094 114.779L301.105 106.529L303.946 125.608Z" stroke="#2ACAF7" stroke-width="0.5" stroke-linecap="round" stroke-linejoin="round"/>
<path d="M301.105 106.529L317.094 114.779L319.417 100.598L301.105 106.529Z" stroke="#2ACAF7" stroke-width="0.5" stroke-linecap="round" stroke-linejoin="round"/>
<path d="M307.037 83.3203L321.991 92.8652L319.417 100.598L307.037 83.3203Z" stroke="#2ACAF7" stroke-width="0.5" stroke-linecap="round" stroke-linejoin="round"/>
<path d="M317.094 114.779L329.213 101.115L319.417 100.598L317.094 114.779Z" stroke="#2ACAF7" stroke-width="0.5" stroke-linecap="round" stroke-linejoin="round"/>
<path d="M321.99 92.8633L329.211 101.113L319.416 100.596L321.99 92.8633Z" stroke="#2ACAF7" stroke-width="0.5" stroke-linecap="round" stroke-linejoin="round"/>
<path d="M285.123 80.2285L297.498 76.1035L298.271 98.796L285.123 80.2285Z" stroke="#2ACAF7" stroke-width="0.5" stroke-linecap="round" stroke-linejoin="round"/>
<path d="M288.469 120.194L301.105 106.53L298.269 98.7969L288.469 120.194Z" stroke="#2ACAF7" stroke-width="0.5" stroke-linecap="round" stroke-linejoin="round"/>
<path d="M297.496 76.1035L307.036 83.3195L298.269 98.796L297.496 76.1035Z" stroke="#2ACAF7" stroke-width="0.5" stroke-linecap="round" stroke-linejoin="round"/>
<path d="M301.105 106.53L319.416 100.598L298.27 98.7969L301.105 106.53Z" stroke="#2ACAF7" stroke-width="0.5" stroke-linecap="round" stroke-linejoin="round"/>
<path d="M307.036 83.3203L319.416 100.598L298.27 98.7968L307.036 83.3203Z" stroke="#2ACAF7" stroke-width="0.5" stroke-linecap="round" stroke-linejoin="round"/>
<path d="M285.123 80.2285L298.271 98.7961L281.254 95.4439L285.123 80.2285Z" stroke="#2ACAF7" stroke-width="0.5" stroke-linecap="round" stroke-linejoin="round"/>
<path d="M288.47 120.193L298.271 98.7955L281.254 95.4434L288.47 120.193Z" stroke="#2ACAF7" stroke-width="0.5" stroke-linecap="round" stroke-linejoin="round"/>
<path d="M254.691 75.3307L271.713 68.3652L268.1 89.2511L254.691 75.3307Z" stroke="#2ACAF7" stroke-width="0.5" stroke-linecap="round" stroke-linejoin="round"/>
<path d="M271.713 68.3652L285.122 80.2284L268.1 89.2511L271.713 68.3652Z" stroke="#2ACAF7" stroke-width="0.5" stroke-linecap="round" stroke-linejoin="round"/>
<path d="M281.253 95.4439L285.122 80.2285L268.1 89.2512L281.253 95.4439Z" stroke="#2ACAF7" stroke-width="0.5" stroke-linecap="round" stroke-linejoin="round"/>
<path d="M254.691 75.3301L268.1 89.2504L250.311 96.7276L254.691 75.3301Z" stroke="#2ACAF7" stroke-width="0.5" stroke-linecap="round" stroke-linejoin="round"/>
<path d="M236.385 81.0005L254.691 75.3301L250.31 96.7276L236.385 81.0005Z" stroke="#2ACAF7" stroke-width="0.5" stroke-linecap="round" stroke-linejoin="round"/>
<path d="M219.625 76.877L236.386 81.0019L234.068 95.1834L219.625 76.877Z" stroke="#2ACAF7" stroke-width="0.5" stroke-linecap="round" stroke-linejoin="round"/>
<path d="M236.385 81.002L250.31 96.729L234.066 95.1834L236.385 81.002Z" stroke="#2ACAF7" stroke-width="0.5" stroke-linecap="round" stroke-linejoin="round"/>
<path d="M198.221 69.1387L219.624 76.8769L196.932 83.3202L198.221 69.1387Z" stroke="#2ACAF7" stroke-width="0.5" stroke-linecap="round" stroke-linejoin="round"/>
<path d="M167.539 57.0242L183.783 56.2461L176.562 73.7798L167.539 57.0242Z" stroke="#2ACAF7" stroke-width="0.5" stroke-linecap="round" stroke-linejoin="round"/>
<path d="M183.784 56.2461L198.221 69.1379L176.562 73.7798L183.784 56.2461Z" stroke="#2ACAF7" stroke-width="0.5" stroke-linecap="round" stroke-linejoin="round"/>
<path d="M196.931 83.3202L198.221 69.1387L176.562 73.7806L196.931 83.3202Z" stroke="#2ACAF7" stroke-width="0.5" stroke-linecap="round" stroke-linejoin="round"/>
<path d="M151.551 46.707L167.539 57.0247L156.71 65.5304L151.551 46.707Z" stroke="#2ACAF7" stroke-width="0.5" stroke-linecap="round" stroke-linejoin="round"/>
<path d="M167.54 57.0254L176.563 73.781L156.711 65.5311L167.54 57.0254Z" stroke="#2ACAF7" stroke-width="0.5" stroke-linecap="round" stroke-linejoin="round"/>
<path d="M138.398 41.0352L151.551 46.7056L135.824 55.2166L138.398 41.0352Z" stroke="#2ACAF7" stroke-width="0.5" stroke-linecap="round" stroke-linejoin="round"/>
<path d="M151.551 46.707L156.71 65.5304L135.824 55.2181L151.551 46.707Z" stroke="#2ACAF7" stroke-width="0.5" stroke-linecap="round" stroke-linejoin="round"/>
<path d="M89.1504 25.0475L101.269 19.8887L111.326 39.229L89.1504 25.0475Z" stroke="#2ACAF7" stroke-width="0.5" stroke-linecap="round" stroke-linejoin="round"/>
<path d="M101.27 19.8887L118.292 21.9511L111.326 39.229L101.27 19.8887Z" stroke="#2ACAF7" stroke-width="0.5" stroke-linecap="round" stroke-linejoin="round"/>
<path d="M118.292 21.9512L123.962 31.235L111.326 39.229L118.292 21.9512Z" stroke="#2ACAF7" stroke-width="0.5" stroke-linecap="round" stroke-linejoin="round"/>
<path d="M69.5527 34.849L74.4504 32.5254L84.2512 38.1959L69.5527 34.849Z" stroke="#2ACAF7" stroke-width="0.5" stroke-linecap="round" stroke-linejoin="round"/>
<path d="M74.4512 32.5253L81.6725 26.082L84.2519 38.1957L74.4512 32.5253Z" stroke="#2ACAF7" stroke-width="0.5" stroke-linecap="round" stroke-linejoin="round"/>
<path d="M81.6738 26.0827L89.151 25.0488L84.2533 38.1964L81.6738 26.0827Z" stroke="#2ACAF7" stroke-width="0.5" stroke-linecap="round" stroke-linejoin="round"/>
<path d="M89.1497 25.0488L111.325 39.2303L84.252 38.1964L89.1497 25.0488Z" stroke="#2ACAF7" stroke-width="0.5" stroke-linecap="round" stroke-linejoin="round"/>
<path d="M57.4355 43.8718L62.5944 36.9062L68.009 49.0306L57.4355 43.8718Z" stroke="#2ACAF7" stroke-width="0.5" stroke-linecap="round" stroke-linejoin="round"/>
<path d="M62.5938 36.9068L69.5539 34.8496L68.0084 49.0311L62.5938 36.9068Z" stroke="#2ACAF7" stroke-width="0.5" stroke-linecap="round" stroke-linejoin="round"/>
<path d="M69.5533 34.8496L84.2518 38.1965L68.0078 49.0311L69.5533 34.8496Z" stroke="#2ACAF7" stroke-width="0.5" stroke-linecap="round" stroke-linejoin="round"/>
<path d="M45.0605 49.5416L51.248 44.127L58.2081 61.9218L45.0605 49.5416Z" stroke="#2ACAF7" stroke-width="0.5" stroke-linecap="round" stroke-linejoin="round"/>
<path d="M51.248 44.1269L57.4355 43.8711L58.2082 61.9217L51.248 44.1269Z" stroke="#2ACAF7" stroke-width="0.5" stroke-linecap="round" stroke-linejoin="round"/>
<path d="M57.4355 43.8711L68.009 49.0299L58.2083 61.9217L57.4355 43.8711Z" stroke="#2ACAF7" stroke-width="0.5" stroke-linecap="round" stroke-linejoin="round"/>
<path d="M21.334 55.9895L31.6517 51.0918L36.5494 64.7563L21.334 55.9895Z" stroke="#2ACAF7" stroke-width="0.5" stroke-linecap="round" stroke-linejoin="round"/>
<path d="M31.6504 51.0924L38.0936 47.7402L36.5481 64.757L31.6504 51.0924Z" stroke="#2ACAF7" stroke-width="0.5" stroke-linecap="round" stroke-linejoin="round"/>
<path d="M38.0944 47.7402L45.0599 49.5416L36.5488 64.757L38.0944 47.7402Z" stroke="#2ACAF7" stroke-width="0.5" stroke-linecap="round" stroke-linejoin="round"/>
<path d="M45.0599 49.541L58.2074 61.9212L36.5488 64.7564L45.0599 49.541Z" stroke="#2ACAF7" stroke-width="0.5" stroke-linecap="round" stroke-linejoin="round"/>
<path d="M21.334 55.9902L36.5494 64.7571L24.4304 70.6887L21.334 55.9902Z" stroke="#2ACAF7" stroke-width="0.5" stroke-linecap="round" stroke-linejoin="round"/>
<path d="M12.8281 68.8815L13.8567 63.4668L24.4302 70.6881L12.8281 68.8815Z" stroke="#2ACAF7" stroke-width="0.5" stroke-linecap="round" stroke-linejoin="round"/>
<path d="M12.8281 68.8828L14.6295 81.5188L24.4302 70.6895L12.8281 68.8828Z" stroke="#2ACAF7" stroke-width="0.5" stroke-linecap="round" stroke-linejoin="round"/>
<path d="M13.8555 63.4674L21.3326 55.9902L24.429 70.6887L13.8555 63.4674Z" stroke="#2ACAF7" stroke-width="0.5" stroke-linecap="round" stroke-linejoin="round"/>
<path d="M14.6289 81.5188L20.5605 85.1268L24.4296 70.6895L14.6289 81.5188Z" stroke="#2ACAF7" stroke-width="0.5" stroke-linecap="round" stroke-linejoin="round"/>
<path d="M20.5605 85.1256L23.9127 92.0858L35.7759 81.7734L20.5605 85.1256Z" stroke="#2ACAF7" stroke-width="0.5" stroke-linecap="round" stroke-linejoin="round"/>
<path d="M20.5605 85.1268L24.4297 70.6895L35.7759 81.7746L20.5605 85.1268Z" stroke="#2ACAF7" stroke-width="0.5" stroke-linecap="round" stroke-linejoin="round"/>
<path d="M24.4297 70.6894L36.5487 64.7578L35.7759 81.7745L24.4297 70.6894Z" stroke="#2ACAF7" stroke-width="0.5" stroke-linecap="round" stroke-linejoin="round"/>
<path d="M19.2715 97.2441V100.596L32.6802 99.8236L19.2715 97.2441Z" stroke="#2ACAF7" stroke-width="0.5" stroke-linecap="round" stroke-linejoin="round"/>
<path d="M19.2715 97.2448L23.9134 92.0859L32.6802 99.8242L19.2715 97.2448Z" stroke="#2ACAF7" stroke-width="0.5" stroke-linecap="round" stroke-linejoin="round"/>
<path d="M19.2715 100.597L22.6237 109.108L32.6802 99.8242L19.2715 100.597Z" stroke="#2ACAF7" stroke-width="0.5" stroke-linecap="round" stroke-linejoin="round"/>
<path d="M23.9121 92.0858L35.7753 81.7734L32.6789 99.8241L23.9121 92.0858Z" stroke="#2ACAF7" stroke-width="0.5" stroke-linecap="round" stroke-linejoin="round"/>
<path d="M22.623 109.107L24.4297 114.522L34.7421 112.715L22.623 109.107Z" stroke="#2ACAF7" stroke-width="0.5" stroke-linecap="round" stroke-linejoin="round"/>
<path d="M22.623 109.108L32.6796 99.8242L34.7421 112.716L22.623 109.108Z" stroke="#2ACAF7" stroke-width="0.5" stroke-linecap="round" stroke-linejoin="round"/>
<path d="M24.4297 114.523L28.0377 121.228L34.742 112.717L24.4297 114.523Z" stroke="#2ACAF7" stroke-width="0.5" stroke-linecap="round" stroke-linejoin="round"/>
<path d="M28.0391 121.228L32.1693 128.705L34.7434 112.717L28.0391 121.228Z" stroke="#2ACAF7" stroke-width="0.5" stroke-linecap="round" stroke-linejoin="round"/>
<path d="M32.168 128.705L34.7421 112.717L51.503 122.001L32.168 128.705Z" stroke="#2ACAF7" stroke-width="0.5" stroke-linecap="round" stroke-linejoin="round"/>
<path d="M32.168 128.704L42.9973 135.409L51.503 122L32.168 128.704Z" stroke="#2ACAF7" stroke-width="0.5" stroke-linecap="round" stroke-linejoin="round"/>
<path d="M42.998 135.408L48.1516 140.05L59.4978 133.346L42.998 135.408Z" stroke="#2ACAF7" stroke-width="0.5" stroke-linecap="round" stroke-linejoin="round"/>
<path d="M42.998 135.409L51.5037 122L59.4978 133.346L42.998 135.409Z" stroke="#2ACAF7" stroke-width="0.5" stroke-linecap="round" stroke-linejoin="round"/>
<path d="M48.1504 140.05L52.0195 143.919L59.4967 133.346L48.1504 140.05Z" stroke="#2ACAF7" stroke-width="0.5" stroke-linecap="round" stroke-linejoin="round"/>
<path d="M52.0215 143.919L56.1464 151.135L59.4986 133.346L52.0215 143.919Z" stroke="#2ACAF7" stroke-width="0.5" stroke-linecap="round" stroke-linejoin="round"/>
<path d="M56.1445 151.135L59.4967 133.346L71.8769 141.596L56.1445 151.135Z" stroke="#2ACAF7" stroke-width="0.5" stroke-linecap="round" stroke-linejoin="round"/>
<path d="M56.1445 151.135L63.6217 154.232L71.8769 141.596L56.1445 151.135Z" stroke="#2ACAF7" stroke-width="0.5" stroke-linecap="round" stroke-linejoin="round"/>
<path d="M63.623 154.232L66.7194 156.038L71.8783 141.596L63.623 154.232Z" stroke="#2ACAF7" stroke-width="0.5" stroke-linecap="round" stroke-linejoin="round"/>
<path d="M66.7188 156.039L69.2982 160.937L82.4457 152.17L66.7188 156.039Z" stroke="#2ACAF7" stroke-width="0.5" stroke-linecap="round" stroke-linejoin="round"/>
<path d="M66.7188 156.038L71.8776 141.596L82.4457 152.169L66.7188 156.038Z" stroke="#2ACAF7" stroke-width="0.5" stroke-linecap="round" stroke-linejoin="round"/>
<path d="M69.2969 160.937L74.9673 164.806L82.4445 152.17L69.2969 160.937Z" stroke="#2ACAF7" stroke-width="0.5" stroke-linecap="round" stroke-linejoin="round"/>
<path d="M74.9688 164.805L80.1276 167.641L88.1217 161.965L74.9688 164.805Z" stroke="#2ACAF7" stroke-width="0.5" stroke-linecap="round" stroke-linejoin="round"/>
<path d="M74.9688 164.806L82.4459 152.17L88.1217 161.965L74.9688 164.806Z" stroke="#2ACAF7" stroke-width="0.5" stroke-linecap="round" stroke-linejoin="round"/>
<path d="M80.127 167.641L82.9622 171.766L88.121 161.965L80.127 167.641Z" stroke="#2ACAF7" stroke-width="0.5" stroke-linecap="round" stroke-linejoin="round"/>
<path d="M82.9629 171.766L86.5709 172.799L88.1217 161.965L82.9629 171.766Z" stroke="#2ACAF7" stroke-width="0.5" stroke-linecap="round" stroke-linejoin="round"/>
<path d="M86.5703 172.799L87.3484 175.891L105.911 171.51L86.5703 172.799Z" stroke="#2ACAF7" stroke-width="0.5" stroke-linecap="round" stroke-linejoin="round"/>
<path d="M86.5703 172.799L88.1212 161.965L105.911 171.51L86.5703 172.799Z" stroke="#2ACAF7" stroke-width="0.5" stroke-linecap="round" stroke-linejoin="round"/>
<path d="M87.3477 175.891L94.0467 181.566L105.91 171.51L87.3477 175.891Z" stroke="#2ACAF7" stroke-width="0.5" stroke-linecap="round" stroke-linejoin="round"/>
<path d="M94.0469 181.566L96.8874 184.402L105.91 171.51L94.0469 181.566Z" stroke="#2ACAF7" stroke-width="0.5" stroke-linecap="round" stroke-linejoin="round"/>
<path d="M96.8887 184.402L102.303 189.299L111.843 183.629L96.8887 184.402Z" stroke="#2ACAF7" stroke-width="0.5" stroke-linecap="round" stroke-linejoin="round"/>
<path d="M96.8887 184.402L105.911 171.51L111.843 183.629L96.8887 184.402Z" stroke="#2ACAF7" stroke-width="0.5" stroke-linecap="round" stroke-linejoin="round"/>
<path d="M102.303 189.299L109.519 194.197L111.842 183.629L102.303 189.299Z" stroke="#2ACAF7" stroke-width="0.5" stroke-linecap="round" stroke-linejoin="round"/>
<path d="M109.52 194.197L116.485 197.293L111.843 183.629L109.52 194.197Z" stroke="#2ACAF7" stroke-width="0.5" stroke-linecap="round" stroke-linejoin="round"/>
<path d="M116.484 197.293L122.415 193.941L111.842 183.629L116.484 197.293Z" stroke="#2ACAF7" stroke-width="0.5" stroke-linecap="round" stroke-linejoin="round"/>
<path d="M122.415 193.941L123.705 190.328L111.842 183.629L122.415 193.941Z" stroke="#2ACAF7" stroke-width="0.5" stroke-linecap="round" stroke-linejoin="round"/>
<path d="M105.91 171.51L111.842 183.629L122.415 177.697L105.91 171.51Z" stroke="#2ACAF7" stroke-width="0.5" stroke-linecap="round" stroke-linejoin="round"/>
<path d="M111.842 183.629L123.705 190.328L122.415 177.697L111.842 183.629Z" stroke="#2ACAF7" stroke-width="0.5" stroke-linecap="round" stroke-linejoin="round"/>
<path d="M123.706 190.328L136.336 186.464L122.416 177.697L123.706 190.328Z" stroke="#2ACAF7" stroke-width="0.5" stroke-linecap="round" stroke-linejoin="round"/>
<path d="M122.416 177.697L136.336 186.464L129.376 169.703L122.416 177.697Z" stroke="#2ACAF7" stroke-width="0.5" stroke-linecap="round" stroke-linejoin="round"/>
<path d="M136.337 186.464L142.013 179.76L129.377 169.703L136.337 186.464Z" stroke="#2ACAF7" stroke-width="0.5" stroke-linecap="round" stroke-linejoin="round"/>
<path d="M142.013 179.761L150.007 165.318L129.377 169.704L142.013 179.761Z" stroke="#2ACAF7" stroke-width="0.5" stroke-linecap="round" stroke-linejoin="round"/>
<path d="M129.377 169.704L150.007 165.318L144.331 156.551L129.377 169.704Z" stroke="#2ACAF7" stroke-width="0.5" stroke-linecap="round" stroke-linejoin="round"/>
<path d="M150.006 165.318L153.097 160.681L144.33 156.551L150.006 165.318Z" stroke="#2ACAF7" stroke-width="0.5" stroke-linecap="round" stroke-linejoin="round"/>
<path d="M144.33 156.55L153.097 160.68L157.739 145.465L144.33 156.55Z" stroke="#2ACAF7" stroke-width="0.5" stroke-linecap="round" stroke-linejoin="round"/>
<path d="M153.098 160.68H155.938L157.74 145.465L153.098 160.68Z" stroke="#2ACAF7" stroke-width="0.5" stroke-linecap="round" stroke-linejoin="round"/>
<path d="M155.938 160.68L159.029 160.419L157.739 145.465L155.938 160.68Z" stroke="#2ACAF7" stroke-width="0.5" stroke-linecap="round" stroke-linejoin="round"/>
<path d="M157.738 145.465L159.028 160.419L171.147 151.908L157.738 145.465Z" stroke="#2ACAF7" stroke-width="0.5" stroke-linecap="round" stroke-linejoin="round"/>
<path d="M159.029 160.419L166.768 161.453L171.148 151.908L159.029 160.419Z" stroke="#2ACAF7" stroke-width="0.5" stroke-linecap="round" stroke-linejoin="round"/>
<path d="M166.768 161.453L171.148 161.709V151.908L166.768 161.453Z" stroke="#2ACAF7" stroke-width="0.5" stroke-linecap="round" stroke-linejoin="round"/>
<path d="M171.148 161.709L177.853 164.805L171.148 151.908V161.709Z" stroke="#2ACAF7" stroke-width="0.5" stroke-linecap="round" stroke-linejoin="round"/>
<path d="M171.148 151.909L177.853 164.807L197.449 148.818L171.148 151.909Z" stroke="#2ACAF7" stroke-width="0.5" stroke-linecap="round" stroke-linejoin="round"/>
<path d="M177.852 164.807L182.232 166.869L197.448 148.818L177.852 164.807Z" stroke="#2ACAF7" stroke-width="0.5" stroke-linecap="round" stroke-linejoin="round"/>
<path d="M182.234 166.869L193.069 170.477L197.45 148.818L182.234 166.869Z" stroke="#2ACAF7" stroke-width="0.5" stroke-linecap="round" stroke-linejoin="round"/>
<path d="M193.068 170.477L197.71 169.96L197.449 148.818L193.068 170.477Z" stroke="#2ACAF7" stroke-width="0.5" stroke-linecap="round" stroke-linejoin="round"/>
<path d="M197.447 148.818L197.708 169.96L207.504 161.454L197.447 148.818Z" stroke="#2ACAF7" stroke-width="0.5" stroke-linecap="round" stroke-linejoin="round"/>
<path d="M197.711 169.959L201.319 173.572L207.506 161.453L197.711 169.959Z" stroke="#2ACAF7" stroke-width="0.5" stroke-linecap="round" stroke-linejoin="round"/>
<path d="M201.318 173.572L206.216 176.924L207.506 161.453L201.318 173.572Z" stroke="#2ACAF7" stroke-width="0.5" stroke-linecap="round" stroke-linejoin="round"/>
<path d="M206.215 176.924L211.374 178.987L207.505 161.453L206.215 176.924Z" stroke="#2ACAF7" stroke-width="0.5" stroke-linecap="round" stroke-linejoin="round"/>
<path d="M207.504 161.453L211.373 178.987L222.975 162.482L207.504 161.453Z" stroke="#2ACAF7" stroke-width="0.5" stroke-linecap="round" stroke-linejoin="round"/>
<path d="M211.375 178.988L219.108 179.499L222.977 162.482L211.375 178.988Z" stroke="#2ACAF7" stroke-width="0.5" stroke-linecap="round" stroke-linejoin="round"/>
<path d="M219.107 179.499L224.783 177.437L222.977 162.482L219.107 179.499Z" stroke="#2ACAF7" stroke-width="0.5" stroke-linecap="round" stroke-linejoin="round"/>
<path d="M224.783 177.437L228.908 173.829L222.977 162.482L224.783 177.437Z" stroke="#2ACAF7" stroke-width="0.5" stroke-linecap="round" stroke-linejoin="round"/>
<path d="M228.908 173.829L232.516 173.312L222.977 162.482L228.908 173.829Z" stroke="#2ACAF7" stroke-width="0.5" stroke-linecap="round" stroke-linejoin="round"/>
<path d="M232.516 173.312L244.124 160.682L222.977 162.483L232.516 173.312Z" stroke="#2ACAF7" stroke-width="0.5" stroke-linecap="round" stroke-linejoin="round"/>
<path d="M222.977 162.481L244.124 160.68L232.005 149.072L222.977 162.481Z" stroke="#2ACAF7" stroke-width="0.5" stroke-linecap="round" stroke-linejoin="round"/>
<path d="M197.447 148.818L207.504 161.454L214.725 146.494L197.447 148.818Z" stroke="#2ACAF7" stroke-width="0.5" stroke-linecap="round" stroke-linejoin="round"/>
<path d="M207.504 161.454L222.975 162.482L214.725 146.494L207.504 161.454Z" stroke="#2ACAF7" stroke-width="0.5" stroke-linecap="round" stroke-linejoin="round"/>
<path d="M219.624 131.801L232.004 149.073L214.727 146.494L219.624 131.801Z" stroke="#2ACAF7" stroke-width="0.5" stroke-linecap="round" stroke-linejoin="round"/>
<path d="M222.976 162.482L232.004 149.074L214.727 146.494L222.976 162.482Z" stroke="#2ACAF7" stroke-width="0.5" stroke-linecap="round" stroke-linejoin="round"/>
<path d="M197.447 148.817L214.725 146.493L201.572 131.283L197.447 148.817Z" stroke="#2ACAF7" stroke-width="0.5" stroke-linecap="round" stroke-linejoin="round"/>
<path d="M214.727 146.493L219.625 131.8L201.574 131.283L214.727 146.493Z" stroke="#2ACAF7" stroke-width="0.5" stroke-linecap="round" stroke-linejoin="round"/>
<path d="M171.148 151.908L197.449 148.817L186.62 139.277L171.148 151.908Z" stroke="#2ACAF7" stroke-width="0.5" stroke-linecap="round" stroke-linejoin="round"/>
<path d="M197.448 148.817L201.573 131.283L186.619 139.277L197.448 148.817Z" stroke="#2ACAF7" stroke-width="0.5" stroke-linecap="round" stroke-linejoin="round"/>
<path d="M157.738 145.465L171.147 151.909L173.209 136.438L157.738 145.465Z" stroke="#2ACAF7" stroke-width="0.5" stroke-linecap="round" stroke-linejoin="round"/>
<path d="M171.148 151.909L186.62 139.278L173.211 136.438L171.148 151.909Z" stroke="#2ACAF7" stroke-width="0.5" stroke-linecap="round" stroke-linejoin="round"/>
<path d="M157.74 145.465L173.211 136.437L155.678 128.443L157.74 145.465Z" stroke="#2ACAF7" stroke-width="0.5" stroke-linecap="round" stroke-linejoin="round"/>
<path d="M144.33 156.55L157.739 145.465L138.143 139.789L144.33 156.55Z" stroke="#2ACAF7" stroke-width="0.5" stroke-linecap="round" stroke-linejoin="round"/>
<path d="M155.676 128.443L157.739 145.465L138.143 139.79L155.676 128.443Z" stroke="#2ACAF7" stroke-width="0.5" stroke-linecap="round" stroke-linejoin="round"/>
<path d="M129.377 169.703L144.331 156.55L131.956 155.777L129.377 169.703Z" stroke="#2ACAF7" stroke-width="0.5" stroke-linecap="round" stroke-linejoin="round"/>
<path d="M138.142 139.789L144.33 156.55L131.955 155.777L138.142 139.789Z" stroke="#2ACAF7" stroke-width="0.5" stroke-linecap="round" stroke-linejoin="round"/>
<path d="M88.1211 161.964L105.911 171.509L110.035 157.066L88.1211 161.964Z" stroke="#2ACAF7" stroke-width="0.5" stroke-linecap="round" stroke-linejoin="round"/>
<path d="M105.91 171.509L122.415 177.696L110.035 157.066L105.91 171.509Z" stroke="#2ACAF7" stroke-width="0.5" stroke-linecap="round" stroke-linejoin="round"/>
<path d="M122.415 177.696L129.375 169.702L110.035 157.066L122.415 177.696Z" stroke="#2ACAF7" stroke-width="0.5" stroke-linecap="round" stroke-linejoin="round"/>
<path d="M129.375 169.703L131.955 155.777L110.035 157.067L129.375 169.703Z" stroke="#2ACAF7" stroke-width="0.5" stroke-linecap="round" stroke-linejoin="round"/>
<path d="M110.035 157.068L131.955 155.779L114.421 147.268L110.035 157.068Z" stroke="#2ACAF7" stroke-width="0.5" stroke-linecap="round" stroke-linejoin="round"/>
<path d="M131.956 155.777L138.143 139.789L114.422 147.266L131.956 155.777Z" stroke="#2ACAF7" stroke-width="0.5" stroke-linecap="round" stroke-linejoin="round"/>
<path d="M71.877 141.596L82.4451 152.169L92.5017 142.63L71.877 141.596Z" stroke="#2ACAF7" stroke-width="0.5" stroke-linecap="round" stroke-linejoin="round"/>
<path d="M82.4453 152.17L88.1211 161.966L92.5019 142.631L82.4453 152.17Z" stroke="#2ACAF7" stroke-width="0.5" stroke-linecap="round" stroke-linejoin="round"/>
<path d="M88.1211 161.966L110.035 157.068L92.5018 142.631L88.1211 161.966Z" stroke="#2ACAF7" stroke-width="0.5" stroke-linecap="round" stroke-linejoin="round"/>
<path d="M110.036 157.068L114.422 147.267L92.502 142.631L110.036 157.068Z" stroke="#2ACAF7" stroke-width="0.5" stroke-linecap="round" stroke-linejoin="round"/>
<path d="M59.498 133.346L71.8782 141.596L79.8723 131.539L59.498 133.346Z" stroke="#2ACAF7" stroke-width="0.5" stroke-linecap="round" stroke-linejoin="round"/>
<path d="M71.877 141.596L92.5017 142.63L79.871 131.539L71.877 141.596Z" stroke="#2ACAF7" stroke-width="0.5" stroke-linecap="round" stroke-linejoin="round"/>
<path d="M51.502 122L59.496 133.346L68.2629 117.875L51.502 122Z" stroke="#2ACAF7" stroke-width="0.5" stroke-linecap="round" stroke-linejoin="round"/>
<path d="M59.498 133.346L79.8723 131.54L68.2649 117.875L59.498 133.346Z" stroke="#2ACAF7" stroke-width="0.5" stroke-linecap="round" stroke-linejoin="round"/>
<path d="M34.7422 112.717L51.5031 122.001L58.4686 108.592L34.7422 112.717Z" stroke="#2ACAF7" stroke-width="0.5" stroke-linecap="round" stroke-linejoin="round"/>
<path d="M51.502 122.001L68.2629 117.876L58.4675 108.592L51.502 122.001Z" stroke="#2ACAF7" stroke-width="0.5" stroke-linecap="round" stroke-linejoin="round"/>
<path d="M32.6797 99.8242L34.7422 112.716L48.6678 91.8301L32.6797 99.8242Z" stroke="#2ACAF7" stroke-width="0.5" stroke-linecap="round" stroke-linejoin="round"/>
<path d="M32.6797 99.8241L35.7761 81.7734L48.6678 91.83L32.6797 99.8241Z" stroke="#2ACAF7" stroke-width="0.5" stroke-linecap="round" stroke-linejoin="round"/>
<path d="M34.7422 112.716L58.4686 108.591L48.6679 91.8301L34.7422 112.716Z" stroke="#2ACAF7" stroke-width="0.5" stroke-linecap="round" stroke-linejoin="round"/>
<path d="M35.7773 81.7745L36.5501 64.7578L55.6346 78.1665L35.7773 81.7745Z" stroke="#2ACAF7" stroke-width="0.5" stroke-linecap="round" stroke-linejoin="round"/>
<path d="M35.7773 81.774L48.6691 91.8306L55.6346 78.166L35.7773 81.774Z" stroke="#2ACAF7" stroke-width="0.5" stroke-linecap="round" stroke-linejoin="round"/>
<path d="M36.5488 64.7571L58.2074 61.9219L55.6333 78.1658L36.5488 64.7571Z" stroke="#2ACAF7" stroke-width="0.5" stroke-linecap="round" stroke-linejoin="round"/>
<path d="M55.6328 78.1658L58.2069 61.9219L72.9053 70.9445L55.6328 78.1658Z" stroke="#2ACAF7" stroke-width="0.5" stroke-linecap="round" stroke-linejoin="round"/>
<path d="M58.207 61.923L68.0078 49.0312L72.9055 70.9457L58.207 61.923Z" stroke="#2ACAF7" stroke-width="0.5" stroke-linecap="round" stroke-linejoin="round"/>
<path d="M68.0078 49.0312L72.9055 70.9457L81.6724 58.8267L68.0078 49.0312Z" stroke="#2ACAF7" stroke-width="0.5" stroke-linecap="round" stroke-linejoin="round"/>
<path d="M68.0078 49.0299L84.2518 38.1953L81.6724 58.8253L68.0078 49.0299Z" stroke="#2ACAF7" stroke-width="0.5" stroke-linecap="round" stroke-linejoin="round"/>
<path d="M81.6738 58.8253L84.2532 38.1953L104.366 53.6665L81.6738 58.8253Z" stroke="#2ACAF7" stroke-width="0.5" stroke-linecap="round" stroke-linejoin="round"/>
<path d="M84.252 38.1953L111.325 39.2292L104.365 53.6665L84.252 38.1953Z" stroke="#2ACAF7" stroke-width="0.5" stroke-linecap="round" stroke-linejoin="round"/>
<path d="M104.365 53.6678L111.325 39.2305L126.541 47.9973L104.365 53.6678Z" stroke="#2ACAF7" stroke-width="0.5" stroke-linecap="round" stroke-linejoin="round"/>
<path d="M111.326 39.2304L123.962 31.2363L126.542 47.9972L111.326 39.2304Z" stroke="#2ACAF7" stroke-width="0.5" stroke-linecap="round" stroke-linejoin="round"/>
<path d="M123.961 31.2363L138.398 41.0371L126.54 47.9972L123.961 31.2363Z" stroke="#2ACAF7" stroke-width="0.5" stroke-linecap="round" stroke-linejoin="round"/>
<path d="M135.825 55.2166L138.399 41.0352L126.541 47.9953L135.825 55.2166Z" stroke="#2ACAF7" stroke-width="0.5" stroke-linecap="round" stroke-linejoin="round"/>
<path d="M104.365 53.6666L126.541 47.9961L112.359 73.0069L104.365 53.6666Z" stroke="#2ACAF7" stroke-width="0.5" stroke-linecap="round" stroke-linejoin="round"/>
<path d="M72.9062 70.9452L81.6731 58.8262L92.2466 74.0416L72.9062 70.9452Z" stroke="#2ACAF7" stroke-width="0.5" stroke-linecap="round" stroke-linejoin="round"/>
<path d="M81.6738 58.8249L104.366 53.666L92.2473 74.0403L81.6738 58.8249Z" stroke="#2ACAF7" stroke-width="0.5" stroke-linecap="round" stroke-linejoin="round"/>
<path d="M104.365 53.666L112.359 73.0064L92.2461 74.0403L104.365 53.666Z" stroke="#2ACAF7" stroke-width="0.5" stroke-linecap="round" stroke-linejoin="round"/>
<path d="M72.9062 70.9453L92.2466 74.0417L88.8944 89.2517L72.9062 70.9453Z" stroke="#2ACAF7" stroke-width="0.5" stroke-linecap="round" stroke-linejoin="round"/>
<path d="M58.4688 108.592L68.2642 117.876L85.0251 102.922L58.4688 108.592Z" stroke="#2ACAF7" stroke-width="0.5" stroke-linecap="round" stroke-linejoin="round"/>
<path d="M48.668 91.8306L55.6335 78.166L70.0708 89.5123L48.668 91.8306Z" stroke="#2ACAF7" stroke-width="0.5" stroke-linecap="round" stroke-linejoin="round"/>
<path d="M48.668 91.83L58.4687 108.591L70.0708 89.5117L48.668 91.83Z" stroke="#2ACAF7" stroke-width="0.5" stroke-linecap="round" stroke-linejoin="round"/>
<path d="M55.6328 78.1666L72.9053 70.9453L70.0701 89.5129L55.6328 78.1666Z" stroke="#2ACAF7" stroke-width="0.5" stroke-linecap="round" stroke-linejoin="round"/>
<path d="M58.4688 108.591L85.0251 102.92L70.0708 89.5117L58.4688 108.591Z" stroke="#2ACAF7" stroke-width="0.5" stroke-linecap="round" stroke-linejoin="round"/>
<path d="M72.9055 70.9453L88.8937 89.2517L70.0703 89.5129L72.9055 70.9453Z" stroke="#2ACAF7" stroke-width="0.5" stroke-linecap="round" stroke-linejoin="round"/>
<path d="M85.0246 102.92L88.8937 89.25L70.0703 89.5111L85.0246 102.92Z" stroke="#2ACAF7" stroke-width="0.5" stroke-linecap="round" stroke-linejoin="round"/>
<path d="M68.2637 117.875L79.8711 131.54L89.9276 124.324L68.2637 117.875Z" stroke="#2ACAF7" stroke-width="0.5" stroke-linecap="round" stroke-linejoin="round"/>
<path d="M68.2637 117.876L85.0246 102.922L89.9276 124.325L68.2637 117.876Z" stroke="#2ACAF7" stroke-width="0.5" stroke-linecap="round" stroke-linejoin="round"/>
<path d="M79.8711 131.54L92.5017 142.631L89.9276 124.324L79.8711 131.54Z" stroke="#2ACAF7" stroke-width="0.5" stroke-linecap="round" stroke-linejoin="round"/>
<path d="M89.9277 124.324L92.5018 142.631L112.359 135.148L89.9277 124.324Z" stroke="#2ACAF7" stroke-width="0.5" stroke-linecap="round" stroke-linejoin="round"/>
<path d="M89.9277 124.324L111.842 127.159L112.359 135.148L89.9277 124.324Z" stroke="#2ACAF7" stroke-width="0.5" stroke-linecap="round" stroke-linejoin="round"/>
<path d="M92.502 142.631L114.422 147.267L112.359 135.148L92.502 142.631Z" stroke="#2ACAF7" stroke-width="0.5" stroke-linecap="round" stroke-linejoin="round"/>
<path d="M114.422 147.267L138.143 139.79L112.359 135.148L114.422 147.267Z" stroke="#2ACAF7" stroke-width="0.5" stroke-linecap="round" stroke-linejoin="round"/>
<path d="M111.842 127.158L112.359 135.147L131.438 125.607L111.842 127.158Z" stroke="#2ACAF7" stroke-width="0.5" stroke-linecap="round" stroke-linejoin="round"/>
<path d="M112.359 135.147L138.143 139.789L131.439 125.607L112.359 135.147Z" stroke="#2ACAF7" stroke-width="0.5" stroke-linecap="round" stroke-linejoin="round"/>
<path d="M138.144 139.789L155.677 128.443L131.439 125.607L138.144 139.789Z" stroke="#2ACAF7" stroke-width="0.5" stroke-linecap="round" stroke-linejoin="round"/>
<path d="M111.842 127.159L131.438 125.609L127.313 110.398L111.842 127.159Z" stroke="#2ACAF7" stroke-width="0.5" stroke-linecap="round" stroke-linejoin="round"/>
<path d="M85.0254 102.92L88.8945 89.25L114.678 95.9544L85.0254 102.92Z" stroke="#2ACAF7" stroke-width="0.5" stroke-linecap="round" stroke-linejoin="round"/>
<path d="M85.0254 102.921L89.9284 124.323L114.678 95.9551L85.0254 102.921Z" stroke="#2ACAF7" stroke-width="0.5" stroke-linecap="round" stroke-linejoin="round"/>
<path d="M89.9277 124.323L111.842 127.159L114.677 95.9551L89.9277 124.323Z" stroke="#2ACAF7" stroke-width="0.5" stroke-linecap="round" stroke-linejoin="round"/>
<path d="M111.842 127.159L127.313 110.398L114.677 95.9551L111.842 127.159Z" stroke="#2ACAF7" stroke-width="0.5" stroke-linecap="round" stroke-linejoin="round"/>
<path d="M88.8945 89.2511L92.2467 74.041L113.388 80.4843L88.8945 89.2511Z" stroke="#2ACAF7" stroke-width="0.5" stroke-linecap="round" stroke-linejoin="round"/>
<path d="M88.8945 89.2512L114.678 95.9556L113.388 80.4844L88.8945 89.2512Z" stroke="#2ACAF7" stroke-width="0.5" stroke-linecap="round" stroke-linejoin="round"/>
<path d="M92.2461 74.0417L112.359 73.0078L113.388 80.4849L92.2461 74.0417Z" stroke="#2ACAF7" stroke-width="0.5" stroke-linecap="round" stroke-linejoin="round"/>
<path d="M112.359 73.0078L113.388 80.4849L134.018 65.0137L112.359 73.0078Z" stroke="#2ACAF7" stroke-width="0.5" stroke-linecap="round" stroke-linejoin="round"/>
<path d="M112.359 73.0069L126.541 47.9961L134.018 65.0128L112.359 73.0069Z" stroke="#2ACAF7" stroke-width="0.5" stroke-linecap="round" stroke-linejoin="round"/>
<path d="M113.389 80.4849L138.916 77.1327L134.019 65.0137L113.389 80.4849Z" stroke="#2ACAF7" stroke-width="0.5" stroke-linecap="round" stroke-linejoin="round"/>
<path d="M126.541 47.9961L135.825 55.2174L134.018 65.0128L126.541 47.9961Z" stroke="#2ACAF7" stroke-width="0.5" stroke-linecap="round" stroke-linejoin="round"/>
<path d="M135.826 55.2168L156.712 65.5292L134.02 65.0122L135.826 55.2168Z" stroke="#2ACAF7" stroke-width="0.5" stroke-linecap="round" stroke-linejoin="round"/>
<path d="M138.917 77.1327L156.712 65.5306L134.02 65.0137L138.917 77.1327Z" stroke="#2ACAF7" stroke-width="0.5" stroke-linecap="round" stroke-linejoin="round"/>
<path d="M138.916 77.1314L156.711 65.5293L152.586 79.455L138.916 77.1314Z" stroke="#2ACAF7" stroke-width="0.5" stroke-linecap="round" stroke-linejoin="round"/>
<path d="M156.711 65.5293L176.563 73.7792L152.586 79.455L156.711 65.5293Z" stroke="#2ACAF7" stroke-width="0.5" stroke-linecap="round" stroke-linejoin="round"/>
<path d="M152.586 79.4551L176.563 73.7793L171.665 85.6425L152.586 79.4551Z" stroke="#2ACAF7" stroke-width="0.5" stroke-linecap="round" stroke-linejoin="round"/>
<path d="M176.564 73.7793L196.933 83.3189L171.666 85.6425L176.564 73.7793Z" stroke="#2ACAF7" stroke-width="0.5" stroke-linecap="round" stroke-linejoin="round"/>
<path d="M138.916 77.1328L152.586 79.4564L144.075 98.5356L138.916 77.1328Z" stroke="#2ACAF7" stroke-width="0.5" stroke-linecap="round" stroke-linejoin="round"/>
<path d="M113.389 80.4844L114.678 95.9556L131.7 97.7622L113.389 80.4844Z" stroke="#2ACAF7" stroke-width="0.5" stroke-linecap="round" stroke-linejoin="round"/>
<path d="M113.389 80.485L138.916 77.1328L131.7 97.7629L113.389 80.485Z" stroke="#2ACAF7" stroke-width="0.5" stroke-linecap="round" stroke-linejoin="round"/>
<path d="M114.678 95.9551L127.314 110.398L131.7 97.7617L114.678 95.9551Z" stroke="#2ACAF7" stroke-width="0.5" stroke-linecap="round" stroke-linejoin="round"/>
<path d="M127.314 110.398L144.075 98.5345L131.701 97.7617L127.314 110.398Z" stroke="#2ACAF7" stroke-width="0.5" stroke-linecap="round" stroke-linejoin="round"/>
<path d="M138.915 77.1328L144.074 98.5356L131.699 97.7629L138.915 77.1328Z" stroke="#2ACAF7" stroke-width="0.5" stroke-linecap="round" stroke-linejoin="round"/>
<path d="M127.314 110.398L131.439 125.609L150.263 114.268L127.314 110.398Z" stroke="#2ACAF7" stroke-width="0.5" stroke-linecap="round" stroke-linejoin="round"/>
<path d="M127.314 110.398L144.075 98.5352L150.263 114.267L127.314 110.398Z" stroke="#2ACAF7" stroke-width="0.5" stroke-linecap="round" stroke-linejoin="round"/>
<path d="M131.439 125.608L155.677 128.444L150.263 114.268L131.439 125.608Z" stroke="#2ACAF7" stroke-width="0.5" stroke-linecap="round" stroke-linejoin="round"/>
<path d="M150.262 114.268L155.676 128.444L168.312 117.359L150.262 114.268Z" stroke="#2ACAF7" stroke-width="0.5" stroke-linecap="round" stroke-linejoin="round"/>
<path d="M155.678 128.444L173.211 136.439L168.314 117.359L155.678 128.444Z" stroke="#2ACAF7" stroke-width="0.5" stroke-linecap="round" stroke-linejoin="round"/>
<path d="M144.074 98.5344L150.262 114.267L163.926 97.5059L144.074 98.5344Z" stroke="#2ACAF7" stroke-width="0.5" stroke-linecap="round" stroke-linejoin="round"/>
<path d="M144.074 98.5343L152.585 79.4551L163.926 97.5057L144.074 98.5343Z" stroke="#2ACAF7" stroke-width="0.5" stroke-linecap="round" stroke-linejoin="round"/>
<path d="M150.262 114.267L168.312 117.358L163.926 97.5059L150.262 114.267Z" stroke="#2ACAF7" stroke-width="0.5" stroke-linecap="round" stroke-linejoin="round"/>
<path d="M152.586 79.4551L171.665 85.6425L163.927 97.5057L152.586 79.4551Z" stroke="#2ACAF7" stroke-width="0.5" stroke-linecap="round" stroke-linejoin="round"/>
<path d="M163.928 97.5059L168.314 117.358L188.683 101.114L163.928 97.5059Z" stroke="#2ACAF7" stroke-width="0.5" stroke-linecap="round" stroke-linejoin="round"/>
<path d="M163.928 97.5058L171.666 85.6426L188.683 101.114L163.928 97.5058Z" stroke="#2ACAF7" stroke-width="0.5" stroke-linecap="round" stroke-linejoin="round"/>
<path d="M171.666 85.6439L196.933 83.3203L188.683 101.115L171.666 85.6439Z" stroke="#2ACAF7" stroke-width="0.5" stroke-linecap="round" stroke-linejoin="round"/>
<path d="M188.682 101.115L196.932 83.3203L206.732 92.8652L188.682 101.115Z" stroke="#2ACAF7" stroke-width="0.5" stroke-linecap="round" stroke-linejoin="round"/>
<path d="M196.932 83.3202L219.624 76.877L206.732 92.8651L196.932 83.3202Z" stroke="#2ACAF7" stroke-width="0.5" stroke-linecap="round" stroke-linejoin="round"/>
<path d="M219.624 76.877L234.067 95.1834L206.732 92.8651L219.624 76.877Z" stroke="#2ACAF7" stroke-width="0.5" stroke-linecap="round" stroke-linejoin="round"/>
<path d="M168.312 117.359L173.21 136.439L189.454 121.484L168.312 117.359Z" stroke="#2ACAF7" stroke-width="0.5" stroke-linecap="round" stroke-linejoin="round"/>
<path d="M168.312 117.357L188.681 101.113L189.454 121.482L168.312 117.357Z" stroke="#2ACAF7" stroke-width="0.5" stroke-linecap="round" stroke-linejoin="round"/>
<path d="M173.211 136.437L186.62 139.277L189.455 121.482L173.211 136.437Z" stroke="#2ACAF7" stroke-width="0.5" stroke-linecap="round" stroke-linejoin="round"/>
<path d="M186.619 139.277L201.573 131.283L189.454 121.482L186.619 139.277Z" stroke="#2ACAF7" stroke-width="0.5" stroke-linecap="round" stroke-linejoin="round"/>
<path d="M188.682 101.113L189.454 121.482L207.766 113.232L188.682 101.113Z" stroke="#2ACAF7" stroke-width="0.5" stroke-linecap="round" stroke-linejoin="round"/>
<path d="M188.682 101.113L206.732 92.8633L207.766 113.232L188.682 101.113Z" stroke="#2ACAF7" stroke-width="0.5" stroke-linecap="round" stroke-linejoin="round"/>
<path d="M189.453 121.482L201.572 131.283L207.765 113.232L189.453 121.482Z" stroke="#2ACAF7" stroke-width="0.5" stroke-linecap="round" stroke-linejoin="round"/>
<path d="M201.574 131.283L219.625 131.8L207.767 113.232L201.574 131.283Z" stroke="#2ACAF7" stroke-width="0.5" stroke-linecap="round" stroke-linejoin="round"/>
<path d="M206.732 92.8633L207.766 113.232L225.3 104.982L206.732 92.8633Z" stroke="#2ACAF7" stroke-width="0.5" stroke-linecap="round" stroke-linejoin="round"/>
<path d="M206.732 92.8633L234.067 95.1816L225.3 104.982L206.732 92.8633Z" stroke="#2ACAF7" stroke-width="0.5" stroke-linecap="round" stroke-linejoin="round"/>
<path d="M207.766 113.234L219.623 131.802L225.299 104.984L207.766 113.234Z" stroke="#2ACAF7" stroke-width="0.5" stroke-linecap="round" stroke-linejoin="round"/>
<path d="M219.625 131.802L225.301 104.984L234.84 115.553L219.625 131.802Z" stroke="#2ACAF7" stroke-width="0.5" stroke-linecap="round" stroke-linejoin="round"/>
<path d="M225.301 104.984L234.068 95.1836L234.84 115.553L225.301 104.984Z" stroke="#2ACAF7" stroke-width="0.5" stroke-linecap="round" stroke-linejoin="round"/>
<path d="M234.066 95.1836L250.31 96.7291L234.839 115.553L234.066 95.1836Z" stroke="#2ACAF7" stroke-width="0.5" stroke-linecap="round" stroke-linejoin="round"/>
<path d="M234.84 115.552L250.311 96.7285L254.953 112.978L234.84 115.552Z" stroke="#2ACAF7" stroke-width="0.5" stroke-linecap="round" stroke-linejoin="round"/>
<path d="M250.311 96.7271L268.1 89.25L254.952 112.976L250.311 96.7271Z" stroke="#2ACAF7" stroke-width="0.5" stroke-linecap="round" stroke-linejoin="round"/>
<path d="M254.953 112.976L268.101 89.25L274.549 112.976H254.953Z" stroke="#2ACAF7" stroke-width="0.5" stroke-linecap="round" stroke-linejoin="round"/>
<path d="M268.1 89.25L281.253 95.4427L274.548 112.976L268.1 89.25Z" stroke="#2ACAF7" stroke-width="0.5" stroke-linecap="round" stroke-linejoin="round"/>
<path d="M281.253 95.4434L288.469 120.193L274.549 112.977L281.253 95.4434Z" stroke="#2ACAF7" stroke-width="0.5" stroke-linecap="round" stroke-linejoin="round"/>
<path d="M254.953 112.979H274.549L266.038 127.933L254.953 112.979Z" stroke="#2ACAF7" stroke-width="0.5" stroke-linecap="round" stroke-linejoin="round"/>
<path d="M272.741 143.147L289.502 136.182L266.037 127.932L272.741 143.147Z" stroke="#2ACAF7" stroke-width="0.5" stroke-linecap="round" stroke-linejoin="round"/>
<path d="M274.548 112.979L288.469 120.194L266.037 127.933L274.548 112.979Z" stroke="#2ACAF7" stroke-width="0.5" stroke-linecap="round" stroke-linejoin="round"/>
<path d="M288.468 120.193L289.502 136.182L266.037 127.932L288.468 120.193Z" stroke="#2ACAF7" stroke-width="0.5" stroke-linecap="round" stroke-linejoin="round"/>
<path d="M254.953 112.979L266.038 127.933L246.959 131.024L254.953 112.979Z" stroke="#2ACAF7" stroke-width="0.5" stroke-linecap="round" stroke-linejoin="round"/>
<path d="M219.625 131.802L232.005 149.074L246.959 131.023L219.625 131.802Z" stroke="#2ACAF7" stroke-width="0.5" stroke-linecap="round" stroke-linejoin="round"/>
<path d="M219.625 131.8L234.84 115.551L246.959 131.022L219.625 131.8Z" stroke="#2ACAF7" stroke-width="0.5" stroke-linecap="round" stroke-linejoin="round"/>
<path d="M234.84 115.553L254.953 112.979L246.959 131.024L234.84 115.553Z" stroke="#2ACAF7" stroke-width="0.5" stroke-linecap="round" stroke-linejoin="round"/>
<path d="M256.754 151.909L272.742 143.147L248.248 141.857L256.754 151.909Z" stroke="#2ACAF7" stroke-width="0.5" stroke-linecap="round" stroke-linejoin="round"/>
<path d="M266.038 127.932L272.742 143.147L248.248 141.857L266.038 127.932Z" stroke="#2ACAF7" stroke-width="0.5" stroke-linecap="round" stroke-linejoin="round"/>
<path d="M232.004 149.073L244.123 160.681L248.248 141.857L232.004 149.073Z" stroke="#2ACAF7" stroke-width="0.5" stroke-linecap="round" stroke-linejoin="round"/>
<path d="M232.004 149.074L246.958 131.023L248.248 141.858L232.004 149.074Z" stroke="#2ACAF7" stroke-width="0.5" stroke-linecap="round" stroke-linejoin="round"/>
<path d="M244.123 160.681L256.754 151.909L248.248 141.857L244.123 160.681Z" stroke="#2ACAF7" stroke-width="0.5" stroke-linecap="round" stroke-linejoin="round"/>
<path d="M246.959 131.023L266.038 127.932L248.249 141.857L246.959 131.023Z" stroke="#2ACAF7" stroke-width="0.5" stroke-linecap="round" stroke-linejoin="round"/>
</g>
<defs>
<clipPath id="clip0">
<rect width="349" height="197.843" fill="white"/>
</clipPath>
</defs>
</svg>
