<svg width="349" height="220" viewBox="0 0 349 220" fill="none" xmlns="http://www.w3.org/2000/svg">
<g clip-path="url(#clip0)">
<path d="M265.601 10.1641L272.539 16.3309L258.662 15.5593L265.601 10.1641Z" stroke="#2ACAF7" stroke-width="0.5" stroke-linecap="round" stroke-linejoin="round"/>
<path d="M258.663 15.5593L265.602 10.1641L250.953 10.9356L258.663 15.5593Z" stroke="#2ACAF7" stroke-width="0.5" stroke-linecap="round" stroke-linejoin="round"/>
<path d="M229.364 2.45508L234.763 9.39349H227.824L229.364 2.45508Z" stroke="#2ACAF7" stroke-width="0.5" stroke-linecap="round" stroke-linejoin="round"/>
<path d="M227.825 9.39349L229.365 2.45508L220.887 10.1651L227.825 9.39349Z" stroke="#2ACAF7" stroke-width="0.5" stroke-linecap="round" stroke-linejoin="round"/>
<path d="M213.947 0.142578L220.886 10.1644L216.259 8.62129L213.947 0.142578Z" stroke="#2ACAF7" stroke-width="0.5" stroke-linecap="round" stroke-linejoin="round"/>
<path d="M213.949 0.142578L216.261 8.62129L210.865 11.7075L213.949 0.142578Z" stroke="#2ACAF7" stroke-width="0.5" stroke-linecap="round" stroke-linejoin="round"/>
<path d="M216.261 8.62109L220.887 10.1642L210.865 11.7074L216.261 8.62109Z" stroke="#2ACAF7" stroke-width="0.5" stroke-linecap="round" stroke-linejoin="round"/>
<path d="M200.844 1.68555L210.866 11.7074L203.927 13.2477L200.844 1.68555Z" stroke="#2ACAF7" stroke-width="0.5" stroke-linecap="round" stroke-linejoin="round"/>
<path d="M183.883 14.0195L196.988 15.5598L182.34 19.4148L183.883 14.0195Z" stroke="#2ACAF7" stroke-width="0.5" stroke-linecap="round" stroke-linejoin="round"/>
<path d="M182.341 19.4148L183.884 14.0195L176.945 17.103L182.341 19.4148Z" stroke="#2ACAF7" stroke-width="0.5" stroke-linecap="round" stroke-linejoin="round"/>
<path d="M164.608 17.4885L176.945 17.1027L164.092 10.6777L164.608 17.4885Z" stroke="#2ACAF7" stroke-width="0.5" stroke-linecap="round" stroke-linejoin="round"/>
<path d="M164.609 17.4893L176.946 17.1035L165.381 20.9585L164.609 17.4893Z" stroke="#2ACAF7" stroke-width="0.5" stroke-linecap="round" stroke-linejoin="round"/>
<path d="M176.944 17.1035L182.339 19.4154L165.379 20.9585L176.944 17.1035Z" stroke="#2ACAF7" stroke-width="0.5" stroke-linecap="round" stroke-linejoin="round"/>
<path d="M160.753 27.124L165.38 20.9572L157.67 19.4141L160.753 27.124Z" stroke="#2ACAF7" stroke-width="0.5" stroke-linecap="round" stroke-linejoin="round"/>
<path d="M157.67 19.4141L160.754 27.124L151.881 21.7288L157.67 19.4141Z" stroke="#2ACAF7" stroke-width="0.5" stroke-linecap="round" stroke-linejoin="round"/>
<path d="M136.854 25.5837L139.938 20.1855L129.916 27.124L136.854 25.5837Z" stroke="#2ACAF7" stroke-width="0.5" stroke-linecap="round" stroke-linejoin="round"/>
<path d="M129.916 27.1243L136.854 25.584L132.231 34.0627L129.916 27.1243Z" stroke="#2ACAF7" stroke-width="0.5" stroke-linecap="round" stroke-linejoin="round"/>
<path d="M129.917 27.125L132.232 34.0634L123.75 28.6681L129.917 27.125Z" stroke="#2ACAF7" stroke-width="0.5" stroke-linecap="round" stroke-linejoin="round"/>
<path d="M123.75 28.668L132.232 34.0633L127.605 37.9182L123.75 28.668Z" stroke="#2ACAF7" stroke-width="0.5" stroke-linecap="round" stroke-linejoin="round"/>
<path d="M106.016 46.3972L109.871 41.002L99.8496 42.5422L106.016 46.3972Z" stroke="#2ACAF7" stroke-width="0.5" stroke-linecap="round" stroke-linejoin="round"/>
<path d="M99.8509 42.543L106.018 46.398L97.5391 47.1695L99.8509 42.543Z" stroke="#2ACAF7" stroke-width="0.5" stroke-linecap="round" stroke-linejoin="round"/>
<path d="M97.5387 47.1695L99.8506 42.543L92.1406 46.398L97.5387 47.1695Z" stroke="#2ACAF7" stroke-width="0.5" stroke-linecap="round" stroke-linejoin="round"/>
<path d="M92.1406 46.3965L97.5387 47.1681L92.9122 51.023L92.1406 46.3965Z" stroke="#2ACAF7" stroke-width="0.5" stroke-linecap="round" stroke-linejoin="round"/>
<path d="M92.9121 51.023L97.5387 47.168V59.5045L92.9121 51.023Z" stroke="#2ACAF7" stroke-width="0.5" stroke-linecap="round" stroke-linejoin="round"/>
<path d="M88.2871 61.8177L97.5374 59.5059L91.3705 67.9846L88.2871 61.8177Z" stroke="#2ACAF7" stroke-width="0.5" stroke-linecap="round" stroke-linejoin="round"/>
<path d="M91.373 67.9846L97.5399 59.5059L102.166 68.7561L91.373 67.9846Z" stroke="#2ACAF7" stroke-width="0.5" stroke-linecap="round" stroke-linejoin="round"/>
<path d="M90.5996 75.6935L95.9949 74.1504L94.4546 84.9438L90.5996 75.6935Z" stroke="#2ACAF7" stroke-width="0.5" stroke-linecap="round" stroke-linejoin="round"/>
<path d="M90.5996 75.6934L94.4546 84.9436L90.5996 91.1105V75.6934Z" stroke="#2ACAF7" stroke-width="0.5" stroke-linecap="round" stroke-linejoin="round"/>
<path d="M90.5996 91.1102L94.4546 84.9434L97.538 89.5699L90.5996 91.1102Z" stroke="#2ACAF7" stroke-width="0.5" stroke-linecap="round" stroke-linejoin="round"/>
<path d="M109.105 97.281L110.645 91.1113L101.395 94.9663L109.105 97.281Z" stroke="#2ACAF7" stroke-width="0.5" stroke-linecap="round" stroke-linejoin="round"/>
<path d="M94.4551 97.2795L101.393 94.9648L94.4551 109.613V97.2795Z" stroke="#2ACAF7" stroke-width="0.5" stroke-linecap="round" stroke-linejoin="round"/>
<path d="M101.393 94.9648L109.103 97.2795L94.4551 109.613L101.393 94.9648Z" stroke="#2ACAF7" stroke-width="0.5" stroke-linecap="round" stroke-linejoin="round"/>
<path d="M94.4551 109.613L109.103 97.2793L101.393 115.78L94.4551 109.613Z" stroke="#2ACAF7" stroke-width="0.5" stroke-linecap="round" stroke-linejoin="round"/>
<path d="M102.934 129.658L105.248 135.053L116.039 136.597L102.934 129.658Z" stroke="#2ACAF7" stroke-width="0.5" stroke-linecap="round" stroke-linejoin="round"/>
<path d="M136.855 185.166L141.482 171.289L142.254 182.854L136.855 185.166Z" stroke="#2ACAF7" stroke-width="0.5" stroke-linecap="round" stroke-linejoin="round"/>
<path d="M141.48 171.289L142.252 182.854L149.19 175.144L141.48 171.289Z" stroke="#2ACAF7" stroke-width="0.5" stroke-linecap="round" stroke-linejoin="round"/>
<path d="M141.48 171.288L146.107 164.35L149.19 175.143L141.48 171.288Z" stroke="#2ACAF7" stroke-width="0.5" stroke-linecap="round" stroke-linejoin="round"/>
<path d="M146.107 164.35L149.191 175.143H157.67L146.107 164.35Z" stroke="#2ACAF7" stroke-width="0.5" stroke-linecap="round" stroke-linejoin="round"/>
<path d="M157.67 175.143L166.151 172.828L167.695 165.893L157.67 175.143Z" stroke="#2ACAF7" stroke-width="0.5" stroke-linecap="round" stroke-linejoin="round"/>
<path d="M166.15 172.828L167.694 165.893L175.401 168.976L166.15 172.828Z" stroke="#2ACAF7" stroke-width="0.5" stroke-linecap="round" stroke-linejoin="round"/>
<path d="M167.693 165.893L175.401 168.976L183.882 163.578L167.693 165.893Z" stroke="#2ACAF7" stroke-width="0.5" stroke-linecap="round" stroke-linejoin="round"/>
<path d="M183.883 163.577L190.821 169.744L192.362 161.266L183.883 163.577Z" stroke="#2ACAF7" stroke-width="0.5" stroke-linecap="round" stroke-linejoin="round"/>
<path d="M206.238 173.6L210.093 179.766L217.803 178.226L206.238 173.6Z" stroke="#2ACAF7" stroke-width="0.5" stroke-linecap="round" stroke-linejoin="round"/>
<path d="M217.803 178.227L220.886 183.622L234.763 187.477L217.803 178.227Z" stroke="#2ACAF7" stroke-width="0.5" stroke-linecap="round" stroke-linejoin="round"/>
<path d="M233.992 192.103L234.764 187.477L241.702 198.27L233.992 192.103Z" stroke="#2ACAF7" stroke-width="0.5" stroke-linecap="round" stroke-linejoin="round"/>
<path d="M260.975 214.458L264.058 219.085L277.163 211.375L260.975 214.458Z" stroke="#2ACAF7" stroke-width="0.5" stroke-linecap="round" stroke-linejoin="round"/>
<path d="M291.811 209.064L293.354 214.46L304.144 215.231L291.811 209.064Z" stroke="#2ACAF7" stroke-width="0.5" stroke-linecap="round" stroke-linejoin="round"/>
<path d="M291.811 209.064L304.144 215.231L308.002 210.608L291.811 209.064Z" stroke="#2ACAF7" stroke-width="0.5" stroke-linecap="round" stroke-linejoin="round"/>
<path d="M304.145 215.231L310.314 216.003L308.002 210.607L304.145 215.231Z" stroke="#2ACAF7" stroke-width="0.5" stroke-linecap="round" stroke-linejoin="round"/>
<path d="M291.811 209.063L308.002 210.607L312.626 201.354L291.811 209.063Z" stroke="#2ACAF7" stroke-width="0.5" stroke-linecap="round" stroke-linejoin="round"/>
<path d="M308.002 210.607L312.626 209.063V201.354L308.002 210.607Z" stroke="#2ACAF7" stroke-width="0.5" stroke-linecap="round" stroke-linejoin="round"/>
<path d="M312.627 201.353L319.565 197.498L324.192 187.477L312.627 201.353Z" stroke="#2ACAF7" stroke-width="0.5" stroke-linecap="round" stroke-linejoin="round"/>
<path d="M324.191 187.477L333.442 183.622L330.358 177.455L324.191 187.477Z" stroke="#2ACAF7" stroke-width="0.5" stroke-linecap="round" stroke-linejoin="round"/>
<path d="M324.191 187.477L330.358 177.455L326.503 165.893L324.191 187.477Z" stroke="#2ACAF7" stroke-width="0.5" stroke-linecap="round" stroke-linejoin="round"/>
<path d="M324.192 187.476L326.504 165.892L321.105 161.266L324.192 187.476Z" stroke="#2ACAF7" stroke-width="0.5" stroke-linecap="round" stroke-linejoin="round"/>
<path d="M308.003 131.201L309.543 140.451L298.75 127.346L308.003 131.201Z" stroke="#2ACAF7" stroke-width="0.5" stroke-linecap="round" stroke-linejoin="round"/>
<path d="M298.75 127.347L308.003 131.202L300.293 118.094L298.75 127.347Z" stroke="#2ACAF7" stroke-width="0.5" stroke-linecap="round" stroke-linejoin="round"/>
<path d="M176.945 81.8607L204.699 79.5488V110.386L176.945 81.8607Z" stroke="#2ACAF7" stroke-width="0.5" stroke-linecap="round" stroke-linejoin="round"/>
<path d="M297.207 107.302L300.293 118.093L260.975 104.219L297.207 107.302Z" stroke="#2ACAF7" stroke-width="0.5" stroke-linecap="round" stroke-linejoin="round"/>
<path d="M298.75 127.346L300.293 118.093L260.975 104.219L298.75 127.346Z" stroke="#2ACAF7" stroke-width="0.5" stroke-linecap="round" stroke-linejoin="round"/>
<path d="M254.035 77.2344L260.974 104.219L276.394 78.7775L254.035 77.2344Z" stroke="#2ACAF7" stroke-width="0.5" stroke-linecap="round" stroke-linejoin="round"/>
<path d="M285.645 23.2708L297.207 21.7305L310.315 37.1476L285.645 23.2708Z" stroke="#2ACAF7" stroke-width="0.5" stroke-linecap="round" stroke-linejoin="round"/>
<path d="M297.207 21.7305H310.315V37.1476L297.207 21.7305Z" stroke="#2ACAF7" stroke-width="0.5" stroke-linecap="round" stroke-linejoin="round"/>
<path d="M310.314 21.7305L322.648 23.2708L310.314 37.1476V21.7305Z" stroke="#2ACAF7" stroke-width="0.5" stroke-linecap="round" stroke-linejoin="round"/>
<path d="M285.644 23.2695L310.314 37.1464L277.934 56.4213L285.644 23.2695Z" stroke="#2ACAF7" stroke-width="0.5" stroke-linecap="round" stroke-linejoin="round"/>
<path d="M258.662 15.5605L272.539 16.3321L263.286 30.9805L258.662 15.5605Z" stroke="#2ACAF7" stroke-width="0.5" stroke-linecap="round" stroke-linejoin="round"/>
<path d="M272.538 16.3301L285.644 23.2685L263.285 30.9785L272.538 16.3301Z" stroke="#2ACAF7" stroke-width="0.5" stroke-linecap="round" stroke-linejoin="round"/>
<path d="M277.934 56.4213L285.644 23.2695L263.285 30.9795L277.934 56.4213Z" stroke="#2ACAF7" stroke-width="0.5" stroke-linecap="round" stroke-linejoin="round"/>
<path d="M132.23 34.0627L136.854 25.584L152.274 42.5414L132.23 34.0627Z" stroke="#2ACAF7" stroke-width="0.5" stroke-linecap="round" stroke-linejoin="round"/>
<path d="M136.855 25.5837L139.939 20.1855L152.275 42.5411L136.855 25.5837Z" stroke="#2ACAF7" stroke-width="0.5" stroke-linecap="round" stroke-linejoin="round"/>
<path d="M139.938 20.1855L151.88 21.7287L152.274 42.5411L139.938 20.1855Z" stroke="#2ACAF7" stroke-width="0.5" stroke-linecap="round" stroke-linejoin="round"/>
<path d="M151.881 21.7305L160.754 27.1258L152.275 42.5429L151.881 21.7305Z" stroke="#2ACAF7" stroke-width="0.5" stroke-linecap="round" stroke-linejoin="round"/>
<path d="M119.123 40.2298L127.605 37.918L122.209 58.7332L119.123 40.2298Z" stroke="#2ACAF7" stroke-width="0.5" stroke-linecap="round" stroke-linejoin="round"/>
<path d="M97.5391 47.168V59.5045L108.332 54.1064L97.5391 47.168Z" stroke="#2ACAF7" stroke-width="0.5" stroke-linecap="round" stroke-linejoin="round"/>
<path d="M97.5391 47.1681L106.018 46.3965L108.332 54.1065L97.5391 47.1681Z" stroke="#2ACAF7" stroke-width="0.5" stroke-linecap="round" stroke-linejoin="round"/>
<path d="M97.5391 59.5055L102.166 68.7558L108.332 54.1074L97.5391 59.5055Z" stroke="#2ACAF7" stroke-width="0.5" stroke-linecap="round" stroke-linejoin="round"/>
<path d="M102.164 68.7558L122.208 58.734L108.331 54.1074L102.164 68.7558Z" stroke="#2ACAF7" stroke-width="0.5" stroke-linecap="round" stroke-linejoin="round"/>
<path d="M106.018 46.3972L109.873 41.002L108.332 54.1072L106.018 46.3972Z" stroke="#2ACAF7" stroke-width="0.5" stroke-linecap="round" stroke-linejoin="round"/>
<path d="M109.872 41.002L119.123 40.2305L108.332 54.1073L109.872 41.002Z" stroke="#2ACAF7" stroke-width="0.5" stroke-linecap="round" stroke-linejoin="round"/>
<path d="M119.123 40.2305L122.209 58.7339L108.332 54.1073L119.123 40.2305Z" stroke="#2ACAF7" stroke-width="0.5" stroke-linecap="round" stroke-linejoin="round"/>
<path d="M94.4551 84.9438L95.9954 74.1504L115.27 82.6319L94.4551 84.9438Z" stroke="#2ACAF7" stroke-width="0.5" stroke-linecap="round" stroke-linejoin="round"/>
<path d="M94.4551 84.9447L97.5385 89.5712L115.27 82.6328L94.4551 84.9447Z" stroke="#2ACAF7" stroke-width="0.5" stroke-linecap="round" stroke-linejoin="round"/>
<path d="M95.9961 74.1511L102.166 68.7559L115.271 82.6327L95.9961 74.1511Z" stroke="#2ACAF7" stroke-width="0.5" stroke-linecap="round" stroke-linejoin="round"/>
<path d="M97.5391 89.5712L110.644 91.1115L115.271 82.6328L97.5391 89.5712Z" stroke="#2ACAF7" stroke-width="0.5" stroke-linecap="round" stroke-linejoin="round"/>
<path d="M102.164 68.7562L122.208 58.7344L115.269 82.633L102.164 68.7562Z" stroke="#2ACAF7" stroke-width="0.5" stroke-linecap="round" stroke-linejoin="round"/>
<path d="M101.395 115.78L109.105 97.2793L118.355 107.301L101.395 115.78Z" stroke="#2ACAF7" stroke-width="0.5" stroke-linecap="round" stroke-linejoin="round"/>
<path d="M109.104 97.281L110.644 91.1113L118.354 107.303L109.104 97.281Z" stroke="#2ACAF7" stroke-width="0.5" stroke-linecap="round" stroke-linejoin="round"/>
<path d="M110.643 91.1115L115.269 82.6328L118.353 107.303L110.643 91.1115Z" stroke="#2ACAF7" stroke-width="0.5" stroke-linecap="round" stroke-linejoin="round"/>
<path d="M101.395 115.781L102.935 129.658L119.895 125.031L101.395 115.781Z" stroke="#2ACAF7" stroke-width="0.5" stroke-linecap="round" stroke-linejoin="round"/>
<path d="M101.395 115.781L118.355 107.303L119.895 125.032L101.395 115.781Z" stroke="#2ACAF7" stroke-width="0.5" stroke-linecap="round" stroke-linejoin="round"/>
<path d="M102.934 129.658L116.039 136.596L119.894 125.031L102.934 129.658Z" stroke="#2ACAF7" stroke-width="0.5" stroke-linecap="round" stroke-linejoin="round"/>
<path d="M116.039 136.596L127.604 142.763L119.894 125.031L116.039 136.596Z" stroke="#2ACAF7" stroke-width="0.5" stroke-linecap="round" stroke-linejoin="round"/>
<path d="M118.354 107.303L137.626 129.658L119.894 125.032L118.354 107.303Z" stroke="#2ACAF7" stroke-width="0.5" stroke-linecap="round" stroke-linejoin="round"/>
<path d="M127.605 142.763L132.231 141.223L119.895 125.031L127.605 142.763Z" stroke="#2ACAF7" stroke-width="0.5" stroke-linecap="round" stroke-linejoin="round"/>
<path d="M132.231 141.223L137.626 129.658L119.895 125.031L132.231 141.223Z" stroke="#2ACAF7" stroke-width="0.5" stroke-linecap="round" stroke-linejoin="round"/>
<path d="M146.107 164.351V147.391L159.213 158.956L146.107 164.351Z" stroke="#2ACAF7" stroke-width="0.5" stroke-linecap="round" stroke-linejoin="round"/>
<path d="M146.107 147.389L150.731 141.994L159.213 158.954L146.107 147.389Z" stroke="#2ACAF7" stroke-width="0.5" stroke-linecap="round" stroke-linejoin="round"/>
<path d="M146.107 164.35L157.67 175.144L159.213 158.955L146.107 164.35Z" stroke="#2ACAF7" stroke-width="0.5" stroke-linecap="round" stroke-linejoin="round"/>
<path d="M157.67 175.144L167.695 165.894L159.213 158.955L157.67 175.144Z" stroke="#2ACAF7" stroke-width="0.5" stroke-linecap="round" stroke-linejoin="round"/>
<path d="M234.764 187.477L241.702 198.27L263.286 172.828L234.764 187.477Z" stroke="#2ACAF7" stroke-width="0.5" stroke-linecap="round" stroke-linejoin="round"/>
<path d="M241.701 198.271L249.408 209.064L268.683 194.416L241.701 198.271Z" stroke="#2ACAF7" stroke-width="0.5" stroke-linecap="round" stroke-linejoin="round"/>
<path d="M241.701 198.27L263.285 172.828L268.683 194.415L241.701 198.27Z" stroke="#2ACAF7" stroke-width="0.5" stroke-linecap="round" stroke-linejoin="round"/>
<path d="M249.408 209.064L260.973 214.46L268.683 194.416L249.408 209.064Z" stroke="#2ACAF7" stroke-width="0.5" stroke-linecap="round" stroke-linejoin="round"/>
<path d="M260.975 214.46L277.163 211.376L268.685 194.416L260.975 214.46Z" stroke="#2ACAF7" stroke-width="0.5" stroke-linecap="round" stroke-linejoin="round"/>
<path d="M277.164 211.376L283.331 206.753L268.686 194.416L277.164 211.376Z" stroke="#2ACAF7" stroke-width="0.5" stroke-linecap="round" stroke-linejoin="round"/>
<path d="M334.984 24.8116L340.38 16.3301L348.858 25.5832L334.984 24.8116Z" stroke="#2ACAF7" stroke-width="0.5" stroke-linecap="round" stroke-linejoin="round"/>
<path d="M334.984 24.8125L348.858 25.5841L344.235 34.0628L334.984 24.8125Z" stroke="#2ACAF7" stroke-width="0.5" stroke-linecap="round" stroke-linejoin="round"/>
<path d="M334.986 24.8125L344.237 34.0628L334.215 37.1462L334.986 24.8125Z" stroke="#2ACAF7" stroke-width="0.5" stroke-linecap="round" stroke-linejoin="round"/>
<path d="M310.314 37.1464L322.648 23.2695L329.587 32.5198L310.314 37.1464Z" stroke="#2ACAF7" stroke-width="0.5" stroke-linecap="round" stroke-linejoin="round"/>
<path d="M322.648 23.2695L334.985 24.8127L329.587 32.5198L322.648 23.2695Z" stroke="#2ACAF7" stroke-width="0.5" stroke-linecap="round" stroke-linejoin="round"/>
<path d="M334.212 37.1462L334.984 24.8125L329.586 32.5196L334.212 37.1462Z" stroke="#2ACAF7" stroke-width="0.5" stroke-linecap="round" stroke-linejoin="round"/>
<path d="M310.314 37.1461L329.587 32.5195L331.192 51.6016L310.314 37.1461Z" stroke="#2ACAF7" stroke-width="0.5" stroke-linecap="round" stroke-linejoin="round"/>
<path d="M329.586 32.5195L334.212 37.1461L331.191 51.6016L329.586 32.5195Z" stroke="#2ACAF7" stroke-width="0.5" stroke-linecap="round" stroke-linejoin="round"/>
<path d="M310.314 37.1465L331.192 51.602L325.794 66.0575L310.314 37.1465Z" stroke="#2ACAF7" stroke-width="0.5" stroke-linecap="round" stroke-linejoin="round"/>
<path d="M277.934 56.4214L310.314 37.1465L297.206 68.7551L277.934 56.4214Z" stroke="#2ACAF7" stroke-width="0.5" stroke-linecap="round" stroke-linejoin="round"/>
<path d="M310.315 37.1465L325.795 66.0575L297.207 68.7551L310.315 37.1465Z" stroke="#2ACAF7" stroke-width="0.5" stroke-linecap="round" stroke-linejoin="round"/>
<path d="M276.395 78.7774L277.935 56.4219L287.957 73.3821L276.395 78.7774Z" stroke="#2ACAF7" stroke-width="0.5" stroke-linecap="round" stroke-linejoin="round"/>
<path d="M277.934 56.4219L297.206 68.7556L287.955 73.3821L277.934 56.4219Z" stroke="#2ACAF7" stroke-width="0.5" stroke-linecap="round" stroke-linejoin="round"/>
<path d="M260.975 104.219L276.395 78.7773L284.102 90.3423L260.975 104.219Z" stroke="#2ACAF7" stroke-width="0.5" stroke-linecap="round" stroke-linejoin="round"/>
<path d="M276.395 78.7761L287.957 73.3809L284.102 90.3411L276.395 78.7761Z" stroke="#2ACAF7" stroke-width="0.5" stroke-linecap="round" stroke-linejoin="round"/>
<path d="M260.975 104.219L284.102 90.3418L290.269 94.1939L260.975 104.219Z" stroke="#2ACAF7" stroke-width="0.5" stroke-linecap="round" stroke-linejoin="round"/>
<path d="M260.975 104.22L297.207 107.303L290.269 94.1953L260.975 104.22Z" stroke="#2ACAF7" stroke-width="0.5" stroke-linecap="round" stroke-linejoin="round"/>
<path d="M44.3425 58.7344L48.969 59.5059L39.7188 64.1297L44.3425 58.7344Z" stroke="#2ACAF7" stroke-width="0.5" stroke-linecap="round" stroke-linejoin="round"/>
<path d="M14.2773 71.0664L26.6139 71.838L21.2158 78.7764L14.2773 71.0664Z" stroke="#2ACAF7" stroke-width="0.5" stroke-linecap="round" stroke-linejoin="round"/>
<path d="M21.2168 78.7763L26.6149 71.8379L29.6983 76.4644L21.2168 78.7763Z" stroke="#2ACAF7" stroke-width="0.5" stroke-linecap="round" stroke-linejoin="round"/>
<path d="M26.6133 71.8392L35.8636 69.5273L29.6967 76.4657L26.6133 71.8392Z" stroke="#2ACAF7" stroke-width="0.5" stroke-linecap="round" stroke-linejoin="round"/>
<path d="M29.6973 76.4657L35.8641 69.5273L33.5523 81.0895L29.6973 76.4657Z" stroke="#2ACAF7" stroke-width="0.5" stroke-linecap="round" stroke-linejoin="round"/>
<path d="M33.5527 81.0879L37.4077 96.5079L45.1149 95.7363L33.5527 81.0879Z" stroke="#2ACAF7" stroke-width="0.5" stroke-linecap="round" stroke-linejoin="round"/>
<path d="M33.5527 81.0879L45.1149 95.7363L51.2817 86.486L33.5527 81.0879Z" stroke="#2ACAF7" stroke-width="0.5" stroke-linecap="round" stroke-linejoin="round"/>
<path d="M33.5527 81.0895L35.8646 69.5273L42.803 75.6942L33.5527 81.0895Z" stroke="#2ACAF7" stroke-width="0.5" stroke-linecap="round" stroke-linejoin="round"/>
<path d="M33.5527 81.0886L51.2817 86.4868L42.803 75.6934L33.5527 81.0886Z" stroke="#2ACAF7" stroke-width="0.5" stroke-linecap="round" stroke-linejoin="round"/>
<path d="M35.8652 69.527L39.7202 64.1289L42.8036 75.6939L35.8652 69.527Z" stroke="#2ACAF7" stroke-width="0.5" stroke-linecap="round" stroke-linejoin="round"/>
<path d="M39.7188 64.1296L48.969 59.5059L42.8022 75.6946L39.7188 64.1296Z" stroke="#2ACAF7" stroke-width="0.5" stroke-linecap="round" stroke-linejoin="round"/>
<path d="M48.9696 59.5059L65.1583 81.0898L42.8027 75.6945L48.9696 59.5059Z" stroke="#2ACAF7" stroke-width="0.5" stroke-linecap="round" stroke-linejoin="round"/>
<path d="M51.2814 86.4868L65.1583 81.0886L42.8027 75.6934L51.2814 86.4868Z" stroke="#2ACAF7" stroke-width="0.5" stroke-linecap="round" stroke-linejoin="round"/>
<path d="M70.5566 105.759L74.4116 101.133L82.1188 106.531L70.5566 105.759Z" stroke="#2ACAF7" stroke-width="0.5" stroke-linecap="round" stroke-linejoin="round"/>
<path d="M70.5566 105.76L82.1188 106.531L74.4116 113.47L70.5566 105.76Z" stroke="#2ACAF7" stroke-width="0.5" stroke-linecap="round" stroke-linejoin="round"/>
<path d="M82.1192 106.531L85.2055 114.241L74.4121 113.47L82.1192 106.531Z" stroke="#2ACAF7" stroke-width="0.5" stroke-linecap="round" stroke-linejoin="round"/>
<path d="M70.5569 105.76L74.4119 113.47H68.2422L70.5569 105.76Z" stroke="#2ACAF7" stroke-width="0.5" stroke-linecap="round" stroke-linejoin="round"/>
<path d="M68.2422 113.469H74.4119L70.5569 121.179L68.2422 113.469Z" stroke="#2ACAF7" stroke-width="0.5" stroke-linecap="round" stroke-linejoin="round"/>
<path d="M74.4116 113.469L79.0354 123.491L70.5566 121.179L74.4116 113.469Z" stroke="#2ACAF7" stroke-width="0.5" stroke-linecap="round" stroke-linejoin="round"/>
<path d="M47.4266 141.223L48.1982 146.618L41.2598 141.223H47.4266Z" stroke="#2ACAF7" stroke-width="0.5" stroke-linecap="round" stroke-linejoin="round"/>
<path d="M8.11133 164.35L19.6763 158.955L8.11133 176.684V164.35Z" stroke="#2ACAF7" stroke-width="0.5" stroke-linecap="round" stroke-linejoin="round"/>
<path d="M8.11069 176.683V164.35L5.79883 172.06L8.11069 176.683Z" stroke="#2ACAF7" stroke-width="0.5" stroke-linecap="round" stroke-linejoin="round"/>
<path d="M8.11133 164.35L19.6763 158.955L14.2782 158.184L8.11133 164.35Z" stroke="#2ACAF7" stroke-width="0.5" stroke-linecap="round" stroke-linejoin="round"/>
<path d="M14.2773 158.183L19.6755 158.954L18.1323 151.244L14.2773 158.183Z" stroke="#2ACAF7" stroke-width="0.5" stroke-linecap="round" stroke-linejoin="round"/>
<path d="M19.6759 158.956L23.5281 147.391L18.1328 151.246L19.6759 158.956Z" stroke="#2ACAF7" stroke-width="0.5" stroke-linecap="round" stroke-linejoin="round"/>
<path d="M18.1316 151.246L23.5269 147.391L12.7363 150.474L18.1316 151.246Z" stroke="#2ACAF7" stroke-width="0.5" stroke-linecap="round" stroke-linejoin="round"/>
<path d="M12.738 150.474L23.5285 147.39L7.33984 143.535L12.738 150.474Z" stroke="#2ACAF7" stroke-width="0.5" stroke-linecap="round" stroke-linejoin="round"/>
<path d="M1.17188 141.994L7.33873 143.534L4.2553 137.367L1.17188 141.994Z" stroke="#2ACAF7" stroke-width="0.5" stroke-linecap="round" stroke-linejoin="round"/>
<path d="M4.25586 137.368L7.33928 143.535L8.88241 128.115L4.25586 137.368Z" stroke="#2ACAF7" stroke-width="0.5" stroke-linecap="round" stroke-linejoin="round"/>
<path d="M0.142578 115.541L8.88226 128.115L7.33913 112.312L0.142578 115.541Z" stroke="#2ACAF7" stroke-width="0.5" stroke-linecap="round" stroke-linejoin="round"/>
<path d="M7.33984 112.312L8.88297 128.115L15.8214 118.094L7.33984 112.312Z" stroke="#2ACAF7" stroke-width="0.5" stroke-linecap="round" stroke-linejoin="round"/>
<path d="M8.88281 128.116L15.8212 118.094L21.9881 119.637L8.88281 128.116Z" stroke="#2ACAF7" stroke-width="0.5" stroke-linecap="round" stroke-linejoin="round"/>
<path d="M15.8203 118.092L21.9872 119.635L25.8422 108.785L15.8203 118.092Z" stroke="#2ACAF7" stroke-width="0.5" stroke-linecap="round" stroke-linejoin="round"/>
<path d="M21.9883 119.635L25.8433 108.785H34.2057L21.9883 119.635Z" stroke="#2ACAF7" stroke-width="0.5" stroke-linecap="round" stroke-linejoin="round"/>
<path d="M34.2051 108.786L40.7577 103.447L49.7413 110.386L34.2051 108.786Z" stroke="#2ACAF7" stroke-width="0.5" stroke-linecap="round" stroke-linejoin="round"/>
<path d="M55.9072 138.909L62.8456 132.742L48.9688 121.18L55.9072 138.909Z" stroke="#2ACAF7" stroke-width="0.5" stroke-linecap="round" stroke-linejoin="round"/>
<path d="M58.219 106.531L68.2409 113.47L48.9688 121.18L58.219 106.531Z" stroke="#2ACAF7" stroke-width="0.5" stroke-linecap="round" stroke-linejoin="round"/>
<path d="M62.8456 132.742L70.5556 121.18H48.9688L62.8456 132.742Z" stroke="#2ACAF7" stroke-width="0.5" stroke-linecap="round" stroke-linejoin="round"/>
<path d="M68.2409 113.469L70.5556 121.179H48.9688L68.2409 113.469Z" stroke="#2ACAF7" stroke-width="0.5" stroke-linecap="round" stroke-linejoin="round"/>
<path d="M34.2051 108.785L49.7413 110.385L48.9698 121.178L34.2051 108.785Z" stroke="#2ACAF7" stroke-width="0.5" stroke-linecap="round" stroke-linejoin="round"/>
<path d="M41.2598 141.223H47.4266L48.9698 121.18L41.2598 141.223Z" stroke="#2ACAF7" stroke-width="0.5" stroke-linecap="round" stroke-linejoin="round"/>
<path d="M47.4277 141.223L55.9093 138.909L48.9709 121.18L47.4277 141.223Z" stroke="#2ACAF7" stroke-width="0.5" stroke-linecap="round" stroke-linejoin="round"/>
<path d="M49.7403 110.386L58.219 106.531L48.9688 121.18L49.7403 110.386Z" stroke="#2ACAF7" stroke-width="0.5" stroke-linecap="round" stroke-linejoin="round"/>
<path d="M7.33984 143.535L8.88297 128.115L25.8432 128.887L7.33984 143.535Z" stroke="#2ACAF7" stroke-width="0.5" stroke-linecap="round" stroke-linejoin="round"/>
<path d="M7.33984 143.535L23.5285 147.39L25.8432 128.887L7.33984 143.535Z" stroke="#2ACAF7" stroke-width="0.5" stroke-linecap="round" stroke-linejoin="round"/>
<path d="M8.88281 128.115L21.9881 119.637L25.8431 128.887L8.88281 128.115Z" stroke="#2ACAF7" stroke-width="0.5" stroke-linecap="round" stroke-linejoin="round"/>
<path d="M21.9883 119.635L34.2057 108.785L25.8433 128.886L21.9883 119.635Z" stroke="#2ACAF7" stroke-width="0.5" stroke-linecap="round" stroke-linejoin="round"/>
<path d="M23.5273 147.39L35.0923 145.078L25.842 128.887L23.5273 147.39Z" stroke="#2ACAF7" stroke-width="0.5" stroke-linecap="round" stroke-linejoin="round"/>
<path d="M34.2062 108.785L48.9709 121.178L25.8438 128.886L34.2062 108.785Z" stroke="#2ACAF7" stroke-width="0.5" stroke-linecap="round" stroke-linejoin="round"/>
<path d="M35.094 145.078L41.2609 141.223L25.8438 128.887L35.094 145.078Z" stroke="#2ACAF7" stroke-width="0.5" stroke-linecap="round" stroke-linejoin="round"/>
<path d="M41.2609 141.223L48.9709 121.18L25.8438 128.887L41.2609 141.223Z" stroke="#2ACAF7" stroke-width="0.5" stroke-linecap="round" stroke-linejoin="round"/>
<path d="M147.648 131.969L150.732 141.993L177.714 135.052L147.648 131.969Z" stroke="#2ACAF7" stroke-width="0.5" stroke-linecap="round" stroke-linejoin="round"/>
<path d="M150.732 141.994L159.214 158.954L177.715 135.053L150.732 141.994Z" stroke="#2ACAF7" stroke-width="0.5" stroke-linecap="round" stroke-linejoin="round"/>
<path d="M159.213 158.954L167.694 165.893L177.713 135.053L159.213 158.954Z" stroke="#2ACAF7" stroke-width="0.5" stroke-linecap="round" stroke-linejoin="round"/>
<path d="M167.693 165.893L183.882 163.578L177.712 135.053L167.693 165.893Z" stroke="#2ACAF7" stroke-width="0.5" stroke-linecap="round" stroke-linejoin="round"/>
<path d="M183.883 163.578L192.361 161.266L177.713 135.053L183.883 163.578Z" stroke="#2ACAF7" stroke-width="0.5" stroke-linecap="round" stroke-linejoin="round"/>
<path d="M192.361 161.267L204.698 128.115L177.713 135.054L192.361 161.267Z" stroke="#2ACAF7" stroke-width="0.5" stroke-linecap="round" stroke-linejoin="round"/>
<path d="M147.648 131.97L177.714 135.053L174.633 115.781L147.648 131.97Z" stroke="#2ACAF7" stroke-width="0.5" stroke-linecap="round" stroke-linejoin="round"/>
<path d="M176.945 81.8613L204.698 110.387L174.633 115.782L176.945 81.8613Z" stroke="#2ACAF7" stroke-width="0.5" stroke-linecap="round" stroke-linejoin="round"/>
<path d="M177.713 135.053L204.698 128.115L174.633 115.781L177.713 135.053Z" stroke="#2ACAF7" stroke-width="0.5" stroke-linecap="round" stroke-linejoin="round"/>
<path d="M204.698 110.387V128.116L174.633 115.782L204.698 110.387Z" stroke="#2ACAF7" stroke-width="0.5" stroke-linecap="round" stroke-linejoin="round"/>
<path d="M118.354 107.303L137.626 129.658L151.502 106.531L118.354 107.303Z" stroke="#2ACAF7" stroke-width="0.5" stroke-linecap="round" stroke-linejoin="round"/>
<path d="M137.625 129.658L147.647 131.97L151.502 106.531L137.625 129.658Z" stroke="#2ACAF7" stroke-width="0.5" stroke-linecap="round" stroke-linejoin="round"/>
<path d="M147.648 131.97L174.633 115.782L151.503 106.531L147.648 131.97Z" stroke="#2ACAF7" stroke-width="0.5" stroke-linecap="round" stroke-linejoin="round"/>
<path d="M174.632 115.782L176.944 81.8613L151.502 106.532L174.632 115.782Z" stroke="#2ACAF7" stroke-width="0.5" stroke-linecap="round" stroke-linejoin="round"/>
<path d="M115.271 82.6328L118.355 107.303L143.022 84.9447L115.271 82.6328Z" stroke="#2ACAF7" stroke-width="0.5" stroke-linecap="round" stroke-linejoin="round"/>
<path d="M115.271 82.633L122.21 58.7344L143.022 84.9449L115.271 82.633Z" stroke="#2ACAF7" stroke-width="0.5" stroke-linecap="round" stroke-linejoin="round"/>
<path d="M118.354 107.302L151.502 106.53L143.021 84.9434L118.354 107.302Z" stroke="#2ACAF7" stroke-width="0.5" stroke-linecap="round" stroke-linejoin="round"/>
<path d="M151.503 106.532L176.945 81.8613L143.021 84.9448L151.503 106.532Z" stroke="#2ACAF7" stroke-width="0.5" stroke-linecap="round" stroke-linejoin="round"/>
<path d="M164.608 70.2949L176.945 81.8599L143.021 84.9433L164.608 70.2949Z" stroke="#2ACAF7" stroke-width="0.5" stroke-linecap="round" stroke-linejoin="round"/>
<path d="M122.209 58.7332L127.604 37.918L139.938 56.4214L122.209 58.7332Z" stroke="#2ACAF7" stroke-width="0.5" stroke-linecap="round" stroke-linejoin="round"/>
<path d="M122.209 58.7337L143.021 84.9443L139.938 56.4219L122.209 58.7337Z" stroke="#2ACAF7" stroke-width="0.5" stroke-linecap="round" stroke-linejoin="round"/>
<path d="M127.604 37.9175L132.23 34.0625L139.937 56.4209L127.604 37.9175Z" stroke="#2ACAF7" stroke-width="0.5" stroke-linecap="round" stroke-linejoin="round"/>
<path d="M132.23 34.0625L152.274 42.5412L139.938 56.4209L132.23 34.0625Z" stroke="#2ACAF7" stroke-width="0.5" stroke-linecap="round" stroke-linejoin="round"/>
<path d="M143.021 84.9443L164.608 70.2959L139.938 56.4219L143.021 84.9443Z" stroke="#2ACAF7" stroke-width="0.5" stroke-linecap="round" stroke-linejoin="round"/>
<path d="M152.274 42.543L164.608 70.2966L139.938 56.4226L152.274 42.543Z" stroke="#2ACAF7" stroke-width="0.5" stroke-linecap="round" stroke-linejoin="round"/>
<path d="M152.273 42.5421L160.752 27.125L182.339 45.6284L152.273 42.5421Z" stroke="#2ACAF7" stroke-width="0.5" stroke-linecap="round" stroke-linejoin="round"/>
<path d="M152.273 42.543L164.607 70.2966L182.339 45.6292L152.273 42.543Z" stroke="#2ACAF7" stroke-width="0.5" stroke-linecap="round" stroke-linejoin="round"/>
<path d="M160.754 27.1239L165.38 20.957L182.341 45.6273L160.754 27.1239Z" stroke="#2ACAF7" stroke-width="0.5" stroke-linecap="round" stroke-linejoin="round"/>
<path d="M164.609 70.2963L176.946 81.8613L182.341 45.6289L164.609 70.2963Z" stroke="#2ACAF7" stroke-width="0.5" stroke-linecap="round" stroke-linejoin="round"/>
<path d="M165.379 20.9572L182.339 19.4141V45.6274L165.379 20.9572Z" stroke="#2ACAF7" stroke-width="0.5" stroke-linecap="round" stroke-linejoin="round"/>
<path d="M176.945 81.8613L204.699 79.5494L182.341 45.6289L176.945 81.8613Z" stroke="#2ACAF7" stroke-width="0.5" stroke-linecap="round" stroke-linejoin="round"/>
<path d="M182.34 19.4155L196.988 15.5605L182.34 45.6289V19.4155Z" stroke="#2ACAF7" stroke-width="0.5" stroke-linecap="round" stroke-linejoin="round"/>
<path d="M182.34 45.6289L196.988 15.5605L207.01 45.6289H182.34Z" stroke="#2ACAF7" stroke-width="0.5" stroke-linecap="round" stroke-linejoin="round"/>
<path d="M182.34 45.6289L204.698 79.5494L207.01 45.6289H182.34Z" stroke="#2ACAF7" stroke-width="0.5" stroke-linecap="round" stroke-linejoin="round"/>
<path d="M196.988 15.5599L203.927 13.248L207.01 45.6283L196.988 15.5599Z" stroke="#2ACAF7" stroke-width="0.5" stroke-linecap="round" stroke-linejoin="round"/>
<path d="M203.926 13.2473L210.864 11.707L207.009 45.6275L203.926 13.2473Z" stroke="#2ACAF7" stroke-width="0.5" stroke-linecap="round" stroke-linejoin="round"/>
<path d="M207.01 45.6275L210.865 11.707L232.449 41.7725L207.01 45.6275Z" stroke="#2ACAF7" stroke-width="0.5" stroke-linecap="round" stroke-linejoin="round"/>
<path d="M210.865 11.7072L220.887 10.1641L232.449 41.7727L210.865 11.7072Z" stroke="#2ACAF7" stroke-width="0.5" stroke-linecap="round" stroke-linejoin="round"/>
<path d="M220.887 10.1641L227.825 9.39258L241.702 27.1244L220.887 10.1641Z" stroke="#2ACAF7" stroke-width="0.5" stroke-linecap="round" stroke-linejoin="round"/>
<path d="M220.887 10.1641L232.449 41.7727L241.702 27.1243L220.887 10.1641Z" stroke="#2ACAF7" stroke-width="0.5" stroke-linecap="round" stroke-linejoin="round"/>
<path d="M227.824 9.39258H234.763L241.701 27.1244L227.824 9.39258Z" stroke="#2ACAF7" stroke-width="0.5" stroke-linecap="round" stroke-linejoin="round"/>
<path d="M234.764 9.39381L241.702 7.85352V27.1256L234.764 9.39381Z" stroke="#2ACAF7" stroke-width="0.5" stroke-linecap="round" stroke-linejoin="round"/>
<path d="M241.701 7.85352L250.951 10.9369L241.701 27.1256V7.85352Z" stroke="#2ACAF7" stroke-width="0.5" stroke-linecap="round" stroke-linejoin="round"/>
<path d="M250.951 10.9355L258.661 15.5593L241.701 27.1242L250.951 10.9355Z" stroke="#2ACAF7" stroke-width="0.5" stroke-linecap="round" stroke-linejoin="round"/>
<path d="M258.661 15.5605L263.285 30.9805L241.701 27.1255L258.661 15.5605Z" stroke="#2ACAF7" stroke-width="0.5" stroke-linecap="round" stroke-linejoin="round"/>
<path d="M204.699 79.5488V110.386L223.971 93.4257L204.699 79.5488Z" stroke="#2ACAF7" stroke-width="0.5" stroke-linecap="round" stroke-linejoin="round"/>
<path d="M254.036 77.2344L260.975 104.219L223.971 93.4259L254.036 77.2344Z" stroke="#2ACAF7" stroke-width="0.5" stroke-linecap="round" stroke-linejoin="round"/>
<path d="M204.699 110.387V128.116L237.077 121.949L204.699 110.387Z" stroke="#2ACAF7" stroke-width="0.5" stroke-linecap="round" stroke-linejoin="round"/>
<path d="M204.699 110.386L223.971 93.4258L237.077 121.948L204.699 110.386Z" stroke="#2ACAF7" stroke-width="0.5" stroke-linecap="round" stroke-linejoin="round"/>
<path d="M223.971 93.4258L260.975 104.219L237.076 121.948L223.971 93.4258Z" stroke="#2ACAF7" stroke-width="0.5" stroke-linecap="round" stroke-linejoin="round"/>
<path d="M217.803 178.226L234.763 187.476L235.532 159.723L217.803 178.226Z" stroke="#2ACAF7" stroke-width="0.5" stroke-linecap="round" stroke-linejoin="round"/>
<path d="M234.764 187.476L263.286 172.828L235.532 159.723L234.764 187.476Z" stroke="#2ACAF7" stroke-width="0.5" stroke-linecap="round" stroke-linejoin="round"/>
<path d="M192.361 161.266L196.216 165.893L213.948 148.93L192.361 161.266Z" stroke="#2ACAF7" stroke-width="0.5" stroke-linecap="round" stroke-linejoin="round"/>
<path d="M192.361 161.267L204.698 128.115L213.948 148.93L192.361 161.267Z" stroke="#2ACAF7" stroke-width="0.5" stroke-linecap="round" stroke-linejoin="round"/>
<path d="M196.217 165.893L206.239 173.6L213.949 148.93L196.217 165.893Z" stroke="#2ACAF7" stroke-width="0.5" stroke-linecap="round" stroke-linejoin="round"/>
<path d="M204.699 128.114L237.077 121.947L213.949 148.929L204.699 128.114Z" stroke="#2ACAF7" stroke-width="0.5" stroke-linecap="round" stroke-linejoin="round"/>
<path d="M206.238 173.6L217.803 178.226L213.948 148.93L206.238 173.6Z" stroke="#2ACAF7" stroke-width="0.5" stroke-linecap="round" stroke-linejoin="round"/>
<path d="M217.802 178.226L235.531 159.723L213.947 148.93L217.802 178.226Z" stroke="#2ACAF7" stroke-width="0.5" stroke-linecap="round" stroke-linejoin="round"/>
<path d="M235.531 159.723L237.074 121.947L213.947 148.929L235.531 159.723Z" stroke="#2ACAF7" stroke-width="0.5" stroke-linecap="round" stroke-linejoin="round"/>
<path d="M260.975 104.219L298.75 127.346L283.33 142.763L260.975 104.219Z" stroke="#2ACAF7" stroke-width="0.5" stroke-linecap="round" stroke-linejoin="round"/>
<path d="M298.75 127.346L309.543 140.451L283.33 142.763L298.75 127.346Z" stroke="#2ACAF7" stroke-width="0.5" stroke-linecap="round" stroke-linejoin="round"/>
<path d="M263.285 172.829L283.329 142.764L295.665 162.81L263.285 172.829Z" stroke="#2ACAF7" stroke-width="0.5" stroke-linecap="round" stroke-linejoin="round"/>
<path d="M283.33 142.763L309.543 140.451L295.667 162.81L283.33 142.763Z" stroke="#2ACAF7" stroke-width="0.5" stroke-linecap="round" stroke-linejoin="round"/>
<path d="M309.543 140.451L317.253 154.328L295.666 162.81L309.543 140.451Z" stroke="#2ACAF7" stroke-width="0.5" stroke-linecap="round" stroke-linejoin="round"/>
<path d="M317.253 154.328L321.105 161.267L295.666 162.81L317.253 154.328Z" stroke="#2ACAF7" stroke-width="0.5" stroke-linecap="round" stroke-linejoin="round"/>
<path d="M321.105 161.266L324.191 187.476L295.666 162.809L321.105 161.266Z" stroke="#2ACAF7" stroke-width="0.5" stroke-linecap="round" stroke-linejoin="round"/>
<path d="M263.285 172.828L268.683 194.415L285.644 185.165L263.285 172.828Z" stroke="#2ACAF7" stroke-width="0.5" stroke-linecap="round" stroke-linejoin="round"/>
<path d="M263.285 172.828L295.665 162.809L285.644 185.164L263.285 172.828Z" stroke="#2ACAF7" stroke-width="0.5" stroke-linecap="round" stroke-linejoin="round"/>
<path d="M268.686 194.416L283.331 206.753L285.646 185.166L268.686 194.416Z" stroke="#2ACAF7" stroke-width="0.5" stroke-linecap="round" stroke-linejoin="round"/>
<path d="M283.33 206.753L291.812 209.065L285.645 185.166L283.33 206.753Z" stroke="#2ACAF7" stroke-width="0.5" stroke-linecap="round" stroke-linejoin="round"/>
<path d="M291.811 209.065L312.627 201.355L285.645 185.166L291.811 209.065Z" stroke="#2ACAF7" stroke-width="0.5" stroke-linecap="round" stroke-linejoin="round"/>
<path d="M295.666 162.809L324.192 187.476L285.645 185.164L295.666 162.809Z" stroke="#2ACAF7" stroke-width="0.5" stroke-linecap="round" stroke-linejoin="round"/>
<path d="M312.627 201.355L324.192 187.478L285.645 185.166L312.627 201.355Z" stroke="#2ACAF7" stroke-width="0.5" stroke-linecap="round" stroke-linejoin="round"/>
<path d="M204.699 79.5494L207.011 45.6289L223.2 66.4413L204.699 79.5494Z" stroke="#2ACAF7" stroke-width="0.5" stroke-linecap="round" stroke-linejoin="round"/>
<path d="M204.699 79.5495L223.971 93.4263L223.2 66.4414L204.699 79.5495Z" stroke="#2ACAF7" stroke-width="0.5" stroke-linecap="round" stroke-linejoin="round"/>
<path d="M207.01 45.6284L232.449 41.7734L223.198 66.4408L207.01 45.6284Z" stroke="#2ACAF7" stroke-width="0.5" stroke-linecap="round" stroke-linejoin="round"/>
<path d="M223.971 93.4263L254.036 77.2348L223.199 66.4414L223.971 93.4263Z" stroke="#2ACAF7" stroke-width="0.5" stroke-linecap="round" stroke-linejoin="round"/>
<path d="M223.199 66.4408L232.449 41.7734L257.12 54.8787L223.199 66.4408Z" stroke="#2ACAF7" stroke-width="0.5" stroke-linecap="round" stroke-linejoin="round"/>
<path d="M223.199 66.4411L254.036 77.2345L257.12 54.8789L223.199 66.4411Z" stroke="#2ACAF7" stroke-width="0.5" stroke-linecap="round" stroke-linejoin="round"/>
<path d="M232.449 41.7734L241.702 27.125L257.119 54.8787L232.449 41.7734Z" stroke="#2ACAF7" stroke-width="0.5" stroke-linecap="round" stroke-linejoin="round"/>
<path d="M241.701 27.125L263.285 30.98L257.118 54.8787L241.701 27.125Z" stroke="#2ACAF7" stroke-width="0.5" stroke-linecap="round" stroke-linejoin="round"/>
<path d="M254.035 77.2344L276.394 78.7776L257.119 54.8789L254.035 77.2344Z" stroke="#2ACAF7" stroke-width="0.5" stroke-linecap="round" stroke-linejoin="round"/>
<path d="M263.286 30.9805L277.934 56.4223L257.119 54.8791L263.286 30.9805Z" stroke="#2ACAF7" stroke-width="0.5" stroke-linecap="round" stroke-linejoin="round"/>
<path d="M276.394 78.7776L277.934 56.422L257.119 54.8789L276.394 78.7776Z" stroke="#2ACAF7" stroke-width="0.5" stroke-linecap="round" stroke-linejoin="round"/>
<path d="M235.531 159.723L237.074 121.947L256.347 148.929L235.531 159.723Z" stroke="#2ACAF7" stroke-width="0.5" stroke-linecap="round" stroke-linejoin="round"/>
<path d="M235.531 159.723L263.285 172.828L256.347 148.93L235.531 159.723Z" stroke="#2ACAF7" stroke-width="0.5" stroke-linecap="round" stroke-linejoin="round"/>
<path d="M237.076 121.948L260.975 104.219L256.348 148.93L237.076 121.948Z" stroke="#2ACAF7" stroke-width="0.5" stroke-linecap="round" stroke-linejoin="round"/>
<path d="M260.974 104.219L283.33 142.763L256.348 148.93L260.974 104.219Z" stroke="#2ACAF7" stroke-width="0.5" stroke-linecap="round" stroke-linejoin="round"/>
<path d="M263.286 172.829L283.33 142.764L256.348 148.931L263.286 172.829Z" stroke="#2ACAF7" stroke-width="0.5" stroke-linecap="round" stroke-linejoin="round"/>
</g>
<defs>
<clipPath id="clip0">
<rect width="349" height="219.227" fill="white"/>
</clipPath>
</defs>
</svg>
