<svg width="118" height="152" viewBox="0 0 118 152" fill="none" xmlns="http://www.w3.org/2000/svg">
<g clip-path="url(#clip0)">
<path d="M53.7031 0.09375L79.6587 35.333" stroke="#2ACAF7" stroke-width="0.5" stroke-miterlimit="10"/>
<path d="M53.704 0.09375L50.5312 38.267" stroke="#2ACAF7" stroke-width="0.5" stroke-miterlimit="10"/>
<path d="M50.5312 38.268L79.6596 35.334" stroke="#2ACAF7" stroke-width="0.5" stroke-miterlimit="10"/>
<path d="M51 38.5L69.5 21.5" stroke="#2ACAF7" stroke-width="0.5" stroke-miterlimit="10"/>
<path d="M52 19.5L69.5 21.5" stroke="#2ACAF7" stroke-width="0.5" stroke-miterlimit="10"/>
<path d="M79.6593 35.334L64.1426 57.3363" stroke="#2ACAF7" stroke-width="0.5" stroke-miterlimit="10"/>
<path d="M64.1414 57.3345L47.1445 55.25" stroke="#2ACAF7" stroke-width="0.5" stroke-miterlimit="10"/>
<path d="M47.1445 55.25L55.6046 88.1674" stroke="#2ACAF7" stroke-width="0.5" stroke-miterlimit="10"/>
<path d="M55.6055 88.1688L64.1423 57.3359" stroke="#2ACAF7" stroke-width="0.5" stroke-miterlimit="10"/>
<path d="M50.5312 38.2676L77.3442 74.0077" stroke="#2ACAF7" stroke-width="0.5" stroke-miterlimit="10"/>
<path d="M77.3438 74.0078L97.1295 58.1582" stroke="#2ACAF7" stroke-width="0.5" stroke-miterlimit="10"/>
<path d="M97.1299 58.1581L50.5312 38.2676" stroke="#2ACAF7" stroke-width="0.5" stroke-miterlimit="10"/>
<path d="M79.6592 35.334L77.3438 74.0081" stroke="#2ACAF7" stroke-width="0.5" stroke-miterlimit="10"/>
<path d="M79.6582 35.334L99.4755 82.9889" stroke="#2ACAF7" stroke-width="0.5" stroke-miterlimit="10"/>
<path d="M99.4764 82.9885L77.3438 74.0078" stroke="#2ACAF7" stroke-width="0.5" stroke-miterlimit="10"/>
<path d="M55.6055 88.168L79.7022 97.554" stroke="#2ACAF7" stroke-width="0.5" stroke-miterlimit="10"/>
<path d="M79.7024 97.5541L77.3965 73.127" stroke="#2ACAF7" stroke-width="0.5" stroke-miterlimit="10"/>
<path d="M77.3963 73.127L55.6055 88.168" stroke="#2ACAF7" stroke-width="0.5" stroke-miterlimit="10"/>
<path d="M55.5 88L34.5 81" stroke="#2ACAF7" stroke-width="0.5" stroke-miterlimit="10"/>
<path d="M55.5 88L26.5 97.5" stroke="#2ACAF7" stroke-width="0.5" stroke-miterlimit="10"/>
<path d="M36.5 116L27 97.5" stroke="#2ACAF7" stroke-width="0.5" stroke-miterlimit="10"/>
<path d="M49 124L33.5 120.5" stroke="#2ACAF7" stroke-width="0.5" stroke-miterlimit="10"/>
<path d="M36.5 116L18 115" stroke="#2ACAF7" stroke-width="0.5" stroke-miterlimit="10"/>
<path d="M27.5 129L18 115" stroke="#2ACAF7" stroke-width="0.5" stroke-miterlimit="10"/>
<path d="M27.5 129L9 133.5" stroke="#2ACAF7" stroke-width="0.5" stroke-miterlimit="10"/>
<path d="M18.5 143L9 133.5" stroke="#2ACAF7" stroke-width="0.5" stroke-miterlimit="10"/>
<path d="M55.6052 88.168L48.8672 124.117" stroke="#2ACAF7" stroke-width="0.5" stroke-miterlimit="10"/>
<path d="M48.8672 124.118L79.7019 97.5547" stroke="#2ACAF7" stroke-width="0.5" stroke-miterlimit="10"/>
<path d="M79.7012 97.5547L79.799 123.336" stroke="#2ACAF7" stroke-width="0.5" stroke-miterlimit="10"/>
<path d="M79.7997 123.336L48.8672 124.117" stroke="#2ACAF7" stroke-width="0.5" stroke-miterlimit="10"/>
<path d="M48.8678 124.117L18.416 142.811" stroke="#2ACAF7" stroke-width="0.5" stroke-miterlimit="10"/>
<path d="M47.1452 55.25L0.142578 151.859" stroke="#2ACAF7" stroke-width="0.5" stroke-miterlimit="10"/>
<path d="M0.142578 151.86L18.4155 142.811" stroke="#2ACAF7" stroke-width="0.5" stroke-miterlimit="10"/>
<path d="M18.416 142.811L55.6058 88.168" stroke="#2ACAF7" stroke-width="0.5" stroke-miterlimit="10"/>
<path d="M50.5298 38.2676L47.1445 55.2513" stroke="#2ACAF7" stroke-width="0.5" stroke-miterlimit="10"/>
<path d="M97.1289 57.3359L117.163 76.1417" stroke="#2ACAF7" stroke-width="0.5" stroke-miterlimit="10"/>
<path d="M99.4766 82.9883L102.048 108.821" stroke="#2ACAF7" stroke-width="0.5" stroke-miterlimit="10"/>
<path d="M102.046 108.822L79.7012 97.5547" stroke="#2ACAF7" stroke-width="0.5" stroke-miterlimit="10"/>
<path d="M79.7012 97.5546L99.4753 82.9883" stroke="#2ACAF7" stroke-width="0.5" stroke-miterlimit="10"/>
<path d="M79.7988 123.336L101.955 107.902" stroke="#2ACAF7" stroke-width="0.5" stroke-miterlimit="10"/>
<path d="M117.163 76.1406L102.047 108.821" stroke="#2ACAF7" stroke-width="0.5" stroke-miterlimit="10"/>
<path d="M99.4766 82.9875L117.946 76.1406" stroke="#2ACAF7" stroke-width="0.5" stroke-miterlimit="10"/>
<path d="M97.1289 57.334L99.4759 82.9866" stroke="#2ACAF7" stroke-width="0.5" stroke-miterlimit="10"/>
</g>
<defs>
<clipPath id="clip0">
<rect width="118" height="152" fill="white"/>
</clipPath>
</defs>
</svg>
